<?xml version="1.0" encoding="utf-8"?>
<!-- Generator: Adobe Illustrator 16.0.0, SVG Export Plug-In . SVG Version: 6.00 Build 0)  -->
<!DOCTYPE svg PUBLIC "-//W3C//DTD SVG 1.1//EN" "http://www.w3.org/Graphics/SVG/1.1/DTD/svg11.dtd">
<svg version="1.1" id="Layer_1" xmlns="http://www.w3.org/2000/svg" xmlns:xlink="http://www.w3.org/1999/xlink" x="0px" y="0px"
	 width="194.888px" height="49.659px" viewBox="0 0 194.888 49.659" enable-background="new 0 0 194.888 49.659"
	 xml:space="preserve">
<g>
	<path fill="#033B3C" d="M8.551,43.602l-0.048,0.145c-1.792-0.863-3.376-2.143-4.752-3.84c-1.344-1.695-2.256-3.232-2.736-4.607
		l-0.288-1.92v-3.168l0.288-0.816l0.336-0.863l2.544-3.409l2.256-0.815l1.488-0.336h2.16l0.864,0.336l2.784,2.015l0.864,2.209
		l0.336,2.303l-1.92,2.785l-0.624,0.24h-1.2l-1.68-1.105l0.24-1.344l0.336-2.303l-0.336-0.576l-1.584-1.346h-2.64l-0.432,0.145
		l-0.576,0.432l-1.776,2.449l-0.24,3.168l0.24,1.104l1.44,3.119c1.952,2.625,4.144,4.162,6.576,4.609
		c1.184,0.225,2.368,0.393,3.552,0.504c1.183,0.111,2.352,0.168,3.504,0.168l1.872-0.24l1.152-0.385
		c3.904-1.566,7.375-3.967,10.416-7.199c3.007-3.199,5.936-6.656,8.784-10.368c1.408-1.856,2.848-3.696,4.32-5.521
		c1.472-1.824,2.959-3.648,4.464-5.472c3.008-3.616,6.463-6.704,10.368-9.265c1.088-0.863,2.225-1.503,3.408-1.92
		c0.544-0.191,1.08-0.383,1.608-0.576c0.528-0.191,1.048-0.398,1.56-0.623l1.44-0.288c1.472-0.128,3.039-0.224,4.703-0.288
		c1.76,0,3.377,0.288,4.849,0.863v1.345l-3.888-0.336l-1.2,0.575l-2.256,2.064c-1.248,2.816-2.448,5.592-3.6,8.328
		c-1.152,2.736-2.273,5.448-3.36,8.137c-1.089,2.688-2.169,5.375-3.24,8.064c-1.072,2.688-2.152,5.393-3.24,8.111l-0.624,3.744
		l0.24,0.48l0.768,0.959l3.984,0.527l-0.768,1.297l-19.2-0.24l1.68-1.057l1.632-0.287l2.88-1.439c1.888-2.4,3.232-4.816,4.032-7.248
		c0.8-2.465,1.808-4.961,3.024-7.488l0.576-2.208l-4.224-0.239h-5.904l-5.616,7.872l-5.376,5.664
		c-0.704,0.641-1.448,1.256-2.232,1.848c-0.784,0.592-1.608,1.193-2.472,1.801c-1.665,1.152-3.296,2.031-4.896,2.639l-1.344,0.145
		l-1.2,0.24l-2.64,0.336h-3.264L8.551,43.602z M49.975,23.06h0.048h4.224l1.104-0.48c1.6-3.136,2.944-6.256,4.032-9.359
		c1.119-3.168,2.848-6.464,5.184-9.889l-1.871,0.864c-3.426,1.696-6.737,4.433-9.937,8.208c-1.601,1.889-3.064,3.72-4.392,5.496
		c-1.328,1.775-2.52,3.496-3.576,5.16H49.975z"/>
	<path fill="#033B3C" d="M80.79,15h8.833c6.385,0,9.217,3.265,9.217,9.169c0,2.976-1.248,6.097-4.128,7.248
		c3.023,1.346,4.8,3.746,4.8,8.209c0,5.713-2.544,10.033-9.312,10.033H80.79V15z M86.743,29.209h2.16
		c2.256,0,3.984-1.537,3.984-4.417c0-3.216-1.248-4.896-3.889-4.896h-2.256V29.209z M86.743,44.762h2.496
		c3.168,0,4.32-1.824,4.32-5.328c0-3.553-1.344-5.328-4.896-5.328h-1.92V44.762z"/>
	<path fill="#033B3C" d="M120.967,11.905c6.817,0,11.665,4.896,11.665,11.665c0,6.768-4.848,11.665-11.665,11.665
		c-6.816,0-11.665-4.896-11.665-11.665C109.302,16.802,114.15,11.905,120.967,11.905z M120.967,32.643
		c5.425,0,8.785-4.08,8.785-9.073c0-4.993-3.36-9.073-8.785-9.073c-5.424,0-8.784,4.08-8.784,9.073
		C112.183,28.563,115.543,32.643,120.967,32.643z"/>
	<path fill="#033B3C" d="M153.896,12.593v1.104h-3.744v23.81c0,1.104,0.864,6.289,6.673,6.289c7.2,0,8.112-4.945,8.112-11.041
		V13.696h-3.696v-1.104h8.688v1.104h-3.696v20.546c0,7.535-3.312,11.137-10.561,11.137c-6.192,0-10.177-3.408-10.177-8.785V13.696
		h-3.696v-1.104H153.896z"/>
	<path fill="#033B3C" d="M183.175,5.185h-5.761V0h17.474v5.185h-5.761v29.474h-5.952V5.185z"/>
</g>
</svg>
