<?xml version="1.0" encoding="utf-8"?>
<!-- Generator: Adobe Illustrator 16.0.0, SVG Export Plug-In . SVG Version: 6.00 Build 0)  -->
<!DOCTYPE svg PUBLIC "-//W3C//DTD SVG 1.1//EN" "http://www.w3.org/Graphics/SVG/1.1/DTD/svg11.dtd">
<svg version="1.1" id="Layer_1" xmlns="http://www.w3.org/2000/svg" xmlns:xlink="http://www.w3.org/1999/xlink" x="0px" y="0px"
	 width="32.427px" height="37.138px" viewBox="0 0 32.427 37.138" enable-background="new 0 0 32.427 37.138" xml:space="preserve">
<g id="wuo7b0_1_">
	<g id="_x39_xaLN0_1_">
		<g>
			<path fill-rule="evenodd" clip-rule="evenodd" fill="#FFFFFF" d="M21.1,18.189c0.651,0.659,1.371,1.255,1.938,2
				c1.177,1.512,0.401,4.172-2.016,4.652c-0.24,0.049-0.861-0.486-0.854-0.736c0.049-1.66-0.911-2.777-2.121-3.521
				c-2.92-1.811-7.779-1.472-10.239,1.459c-0.923,1.094-1.268,3.795-0.676,5.113c1.338,2.982,3.063,3.199,5.438,3.062
				c1.599-0.09,3.34-1.938,3.506-3.695c0.117-1.246-1.308-3.105-2.729-3.422c-1.194-0.266-2.272,0.035-3.061,1.049
				c-0.678,0.873-0.465,1.699-0.012,2.635c0.445,0.92,1.325,1.043,1.961,0.947c0.719-0.109,1.5-0.684,1.423-1.594
				c-0.695,0.076-1.388,0.312-1.972,0.15c-0.286-0.08-0.368-0.895-0.605-1.551c1.212,0.086,2.316-0.545,2.905,0.842
				c0.423,0.998,0.123,1.777-0.625,2.434c-0.715,0.627-2.706,0.27-3.48-0.5c-1.543-1.529-0.686-4.434,1.761-4.975
				c2.43-0.537,4.046,0.559,4.941,2.77c0.587,1.449-0.623,4.387-2.165,5.078c-2.253,1.008-5.196,0.68-6.854-1.215
				c-0.121,1.338-0.229,2.654-0.363,3.969c-0.146,1.447-1.232,2.797-2.263,2.842c-2.786,0.119-3.882-0.43-4.074-2.508
				c-0.073-0.787,0.591-1.879,1.253-2.436c0.767-0.645,2.432,0.025,2.927,0.852c0.438,0.732,0.338,1.479-0.28,1.898
				c-0.442,0.301-1.275,0.436-1.73,0.219c-0.781-0.373-0.417-1.188,0.028-1.586c0.221-0.197,0.899,0.119,1.422,0.211
				c-0.03-0.707-0.536-1.18-1.353-1.174c-0.919,0.008-1.531,0.785-1.448,1.639c0.119,1.23,0.988,2.148,2.085,2.16
				c1.058,0.012,2.655-1.066,2.803-2.189c0.223-1.684,0.142-3.303-0.3-4.982c-0.945-3.592-0.248-6.441,2.876-9.066
				c0.173-0.145,0.402-0.222,0.603-0.333c0.347-0.192,0.693-0.386,1.04-0.579c-0.284-0.227-0.542-0.496-0.855-0.672
				c-1.098-0.615-2.111-1.304-2.776-2.427c-0.127-0.215-0.509-0.279-0.693-0.373c-0.054-0.338-0.066-0.73-0.183-1.089
				c-0.315-0.964-0.536-1.902-0.291-2.945c0.376-1.604,0.656-3.231,0.945-4.855c0.322-1.812-1.197-3.971-2.993-4.3
				C2.982,1.27,1.722,2.078,1.469,3.034C1.229,3.946,1.825,4.949,2.896,5.08C3.372,5.138,3.911,4.675,4.42,4.449
				C4.344,4.317,4.268,4.186,4.191,4.054c-0.283,0.15-0.565,0.301-0.889,0.473c-0.525-0.522-1.521-0.959-0.376-1.79
				C3.224,2.521,4,2.446,4.138,2.626c0.394,0.517,0.827,1.219,0.778,1.809C4.839,5.356,3.682,5.979,2.662,5.82
				C1.644,5.66,1.076,4.988,0.97,3.971C0.832,2.647,1.445,1.385,2.425,1.034C3.937,0.49,5.323,0.878,6.297,2.088
				c1.006,1.248,1.574,2.641,0.947,4.293c-0.119,0.313-0.017,0.711-0.017,1.1c0.631-0.387,1.22-0.797,1.85-1.125
				c2.105-1.098,4.157-0.98,6.05,0.465c1.221,0.933,1.592,2.288,1.392,3.754c-0.243,1.775-1.436,2.866-3.068,3.246
				c-1.483,0.345-2.925-0.038-3.932-1.354c-0.68-0.889-0.487-2.866,0.321-3.491c1.321-1.021,3.245-1.012,3.949,0.192
				c0.315,0.541,0.365,1.596,0.034,2.055c-0.341,0.473-1.291,0.647-1.978,0.656c-0.259,0.004-0.623-0.8-0.747-1.285
				c-0.05-0.193,0.436-0.755,0.644-0.738c0.42,0.034,0.825,0.337,1.218,0.56c0.096,0.055,0.122,0.232,0.18,0.353
				c0.12-0.055,0.24-0.11,0.36-0.166c-0.206-0.412-0.315-0.95-0.644-1.203c-0.384-0.297-1.171-0.628-1.412-0.447
				c-0.64,0.479-1.291,1.151-1.545,1.883c-0.295,0.849,0.293,1.523,1.121,1.977c1.22,0.668,2.407,0.621,3.487-0.149
				c1.216-0.867,1.66-2.252,1.26-3.589c-0.513-1.715-2.798-3.35-4.805-2.8C7.312,7.272,6.69,9.397,7.02,12.686
				c0.162,1.614,3.008,3.687,4.988,3.799c2.301,0.13,4.544-0.197,6.438-1.649c1.057-0.81,1.934-1.792,1.921-3.285
				c-0.001-0.174,0.392-0.517,0.575-0.499c1.192,0.113,2.465,1.368,2.65,2.527c0.173,1.082-0.555,2.355-1.664,2.93
				c-0.449,0.233-0.876,0.516-1.338,0.72c-0.457,0.202-0.946,0.333-1.421,0.692c0.655,0.102,1.31,0.202,1.965,0.303L21.1,18.189z"/>
			<path fill-rule="evenodd" clip-rule="evenodd" fill="#FFFFFF" d="M21.134,18.223c0.414-0.323,0.81-0.889,1.246-0.922
				c1.308-0.102,2.275-0.796,3.209-1.552c0.585-0.474,0.85-0.593,1.371,0.151c0.822,1.173,2.244,1.311,3.546,1.585
				c0.317,0.067,0.627,0.172,0.968,0.535c-0.29,0.14-0.581,0.397-0.871,0.397c-1.822,0.004-3.018,1.064-4.176,2.298
				c-0.152,0.16-0.855,0.121-0.908,0c-0.854-1.976-2.532-2.423-4.419-2.528L21.134,18.223z"/>
			<path fill-rule="evenodd" clip-rule="evenodd" fill="#FFFFFF" d="M1.295,18.063c1.164-0.544,2.433-1.137,3.599-1.682
				c1.604,0.511,3.267,1.041,5.001,1.594c-0.229,0.148-0.428,0.39-0.594,0.369c-1.583-0.196-2.588,0.748-3.624,1.713
				c-0.172,0.164-0.657,0.175-0.887,0.046C3.63,19.46,2.506,18.776,1.295,18.063z"/>
		</g>
	</g>
</g>
</svg>
