<?xml version="1.0" encoding="utf-8"?>
<!-- Generator: Adobe Illustrator 17.1.0, SVG Export Plug-In . SVG Version: 6.00 Build 0)  -->
<!DOCTYPE svg PUBLIC "-//W3C//DTD SVG 1.1//EN" "http://www.w3.org/Graphics/SVG/1.1/DTD/svg11.dtd">
<svg version="1.1" id="Layer_1" xmlns="http://www.w3.org/2000/svg" xmlns:xlink="http://www.w3.org/1999/xlink" x="0px" y="0px"
	 viewBox="0 0 612 792" enable-background="new 0 0 612 792" xml:space="preserve">
<text transform="matrix(1 0 0 1 570.3975 119.2158)" font-family="'MrsEavesSmallCaps'" font-size="43.9702"> </text>
<line fill="none" stroke="#231F20" stroke-width="0.5" x1="28.2" y1="396.6" x2="582.5" y2="396.6"/>
<line fill="none" stroke="#231F20" stroke-width="0.5" x1="28.2" y1="557.8" x2="216.7" y2="557.8"/>
<line fill="none" stroke="#231F20" stroke-width="0.5" x1="393.6" y1="557.8" x2="582" y2="557.8"/>
<g>
	<path fill="#231F20" d="M193.5,306.3c-4.5,0-8.2-3.8-8.2-8.5c0-4.6,3.7-8.5,8.2-8.5c1.7,0,3.7,1,4.8,2.4c0.3-0.3,0.5-1.2,0.7-1.8
		h0.7v6.3h-0.7c-0.7-3.4-2.6-5.5-5.4-5.5c-4.1,0-5.3,4-5.3,7.1c0,3.1,1.3,7.1,5.3,7.1c1.8,0,4.6-1.1,4.6-3.1c0-1.5-1.3-2.2-3.1-2.2
		v-0.7h8v0.7c-2.4,0-2.9,0.6-2.9,4.2c0,0,0,0.7,0,1.1C197.9,304.9,195.6,306.3,193.5,306.3z"/>
	<path fill="#231F20" d="M215.3,306.3c-4.9,0-8.9-3.8-8.9-8.5c0-4.6,4-8.5,8.9-8.5s8.9,3.8,8.9,8.5
		C224.2,302.5,220.2,306.3,215.3,306.3z M215.3,290.7c-4.3,0-5.9,4-5.9,7.1c0,3.2,1.6,7.1,5.9,7.1s5.9-3.9,5.9-7.1
		C221.2,294.7,219.6,290.7,215.3,290.7z"/>
	<path fill="#231F20" d="M228.8,290.7V290h8.3v0.7c-2.4,0-2.9,0.6-2.9,4.2v5.2c0,3.6,0.4,4.2,2.9,4.2h1.3c3.3,0,3.8-0.6,4.2-2.3
		l0.2-0.7h0.8l-0.3,4.4h-14.5V305c2.4,0,2.9-0.6,2.9-4.2v-5.8C231.7,291.3,231.3,290.7,228.8,290.7z"/>
	<path fill="#231F20" d="M245.8,305c2.4,0,2.9-0.6,2.9-4.2v-5.8c0-3.6-0.4-4.2-2.9-4.2V290h7.7c6.2,0,8.9,3.6,8.9,7.8
		c0,4.3-2.7,7.9-8.9,7.9h-7.7V305z M253.6,291.3c-0.2,0-1.7,0-2.4,0v10.3c0,2.4,0.3,2.8,2.1,2.8h0.3c4.8,0,5.7-3.6,5.7-6.5
		C259.3,294.9,258.4,291.3,253.6,291.3z"/>
	<path fill="#231F20" d="M279.9,302l0.2-0.7h0.7l-0.3,4.4h-13.6V305c2.4,0,2.9-0.6,2.9-4.2v-5.8c0-3.6-0.4-4.2-2.9-4.2V290h8h4.7
		l0.3,4.4h-0.8l-0.2-0.7c-0.4-1.7-0.9-2.3-4.2-2.3h-2.4v5.4h0.2c3.6,0,3.9-0.4,3.9-2.9h0.7v7.1h-0.7c0-2.4-0.3-2.9-3.9-2.9h-0.2v2.1
		c0,3.6,0.4,4.2,2.9,4.2h0.4C279,304.3,279.5,303.7,279.9,302z"/>
	<path fill="#231F20" d="M285.1,290.7V290h4.5l9.7,11.5v-6.5c0-3.6-0.4-4.2-2.9-4.2V290h7.1v0.7c-2.4,0-2.9,0.6-2.9,4.2v11.4h-0.7
		l-10.6-12.7v7.1c0,3.6,0.4,4.2,2.9,4.2v0.7h-7.1V305c2.4,0,2.9-0.6,2.9-4.2v-5.8C288,291.3,287.5,290.7,285.1,290.7z"/>
	<path fill="#231F20" d="M326.3,306.3c-4.9,0-8.9-3.8-8.9-8.5c0-4.6,4-8.5,8.9-8.5s8.9,3.8,8.9,8.5
		C335.1,302.5,331.1,306.3,326.3,306.3z M326.3,290.7c-4.3,0-5.9,4-5.9,7.1c0,3.2,1.6,7.1,5.9,7.1s5.9-3.9,5.9-7.1
		C332.1,294.7,330.6,290.7,326.3,290.7z"/>
	<path fill="#231F20" d="M345.8,306.3c-1.9,0-3.4-0.9-4.1-1.3c-0.2,0.3-0.6,0.7-0.7,1.3h-0.7v-6.2h0.7c0.3,3.1,2.2,4.8,5,4.8
		c1.6,0,2.8-0.9,2.8-2.4c0-1.3-1-2.2-3-3.2l-2.5-1.3c-1.7-0.9-3-2.4-3-4.4c0-2.3,1.9-4.1,4.5-4.1c1.5,0,2.7,0.5,3.4,1.1
		c0.2-0.2,0.5-0.5,0.5-1.1h0.7v6.1h-0.7c-0.2-2.2-1.2-4.8-3.8-4.8c-1.4,0-2.6,0.8-2.6,2.1c0,1.3,0.9,2,3.2,3.1l2.4,1.3
		c2.1,1.1,2.8,2.7,2.8,4.1C350.9,304.3,348.6,306.3,345.8,306.3z"/>
	<path fill="#231F20" d="M368.1,302l0.2-0.7h0.7l-0.3,4.4h-13.6V305c2.4,0,2.9-0.6,2.9-4.2v-5.8c0-3.6-0.4-4.2-2.9-4.2V290h8h4.7
		l0.3,4.4h-0.8l-0.2-0.7c-0.4-1.7-0.9-2.3-4.2-2.3h-2.4v5.4h0.2c3.6,0,3.9-0.4,3.9-2.9h0.7v7.1h-0.7c0-2.4-0.3-2.9-3.9-2.9h-0.2v2.1
		c0,3.6,0.4,4.2,2.9,4.2h0.4C367.2,304.3,367.6,303.7,368.1,302z"/>
	<path fill="#231F20" d="M376.7,291.4c-3.3,0-3.6,0.6-4.1,2.3l-0.2,0.7h-0.7l0.2-4.5h16.2l0.3,4.5h-0.8l-0.2-0.7
		c-0.4-1.7-0.9-2.3-4.2-2.3h-1.9v9.3c0,3.6,0.5,4.2,2.9,4.2v0.7h-8.3V305c2.4,0,2.9-0.6,2.9-4.2v-9.3H376.7z"/>
	<path fill="#231F20" d="M402.2,301.6c1.5,1.7,3.1,3.1,4.9,3.4v0.7h-4.6l-4.9-6.7h-1v1.8c0,3.6,0.4,4.2,2.9,4.2v0.7H391V305
		c2.4,0,2.9-0.6,2.9-4.2v-5.8c0-3.6-0.4-4.2-2.9-4.2V290h7.5c3.7,0,5.8,1.9,5.8,4.5c0,2.2-1.7,4-4.4,4.4L402.2,301.6z M398.5,291.3
		h-2.1v6.3h2.1c2,0,3-1.4,3-3.1C401.5,292.7,400.6,291.3,398.5,291.3z"/>
	<path fill="#231F20" d="M412.9,302.2c-0.9,2.1-0.9,2.8,2,2.8v0.8H408v-0.8c2.2,0,2.5-0.4,3.7-3.2l5.3-12.4h0.5l5.3,12.4
		c1.2,2.7,1.6,3.2,3.6,3.2v0.8h-8.1v-0.8c2.6,0,2.9-0.6,2-2.8l-0.7-1.7h-6L412.9,302.2z M416.6,293.6l-2.4,5.6h4.8L416.6,293.6z"/>
</g>
<g>
	<path fill="#231F20" d="M276.7,326.4h2.4v3.5c2.2,0.4,4.2,1.7,5.5,3.6l-3,2.6c-0.6-1-1.3-2-2.5-2.3v8.2c3.4,2.1,6.4,4.4,6.4,8.8
		c0,4-2.3,7.3-6.4,7.7v4.6h-2.4v-4.6c-2.7-0.3-5-2.3-6.4-4.5l3.3-2.5c0.5,1.4,1.6,2.7,3.1,3.2v-9.3c-3-1.9-6-4.3-6-8.2
		c0-3.7,2.1-6.8,6-7.3V326.4z M276.7,333.8c-1.2,0.4-2,1.6-2,2.9c0,1.7,0.8,2.8,2,4V333.8z M279,354.7c1.6-0.6,2.2-1.9,2.2-3.7
		c0-1.9-0.9-2.9-2.2-4.1V354.7z"/>
	<path fill="#231F20" d="M294.6,335.8h-3.9v-2.7c2.2-1.1,4.2-2.3,5.8-3.7h2.5v29h-4.4V335.8z"/>
	<path fill="#231F20" d="M306.4,358.5v-3.8c6.1-8.9,9.4-13.8,9.4-18c0-2.3-0.9-3.2-2.2-3.2c-1.6,0-2.4,1.2-2.4,3v1.9h-4.7v-1.3
		c0-4.2,2.7-7.4,7.3-7.4c4,0,6.6,3,6.6,6.3c0,4.5-1.4,7.8-9.1,18.6h8.7v4H306.4z"/>
	<path fill="#231F20" d="M329.6,350.2v2.3c0,1.5,0.9,2.5,2.2,2.5c1.5,0,2.4-0.9,2.4-3.5V345c0-1.9-1-2.6-2.1-2.6
		c-1.5,0-2.2,1-2.7,2.2h-3.8c0.2-4.4,0.4-7.9,0.4-14.7H338l-0.2,4h-7.7l-0.3,6.2l0.1,0.1c1.2-1.5,2.3-1.7,3.8-1.7
		c3.8,0,5.2,2.7,5.2,7.5v4c0,6-1.9,8.9-6.6,8.9c-4,0-7-1.7-7-6.5v-2.2H329.6z"/>
</g>
<g>
	<path fill="#231F20" d="M112.2,455.4c-4.9,0-8.9-3.8-8.9-8.5c0-4.6,4-8.5,8.9-8.5s8.9,3.8,8.9,8.5
		C121.1,451.5,117.1,455.4,112.2,455.4z M112.2,439.8c-4.3,0-5.9,4-5.9,7.1c0,3.2,1.6,7.1,5.9,7.1s5.9-3.9,5.9-7.1
		C118.1,443.7,116.5,439.8,112.2,439.8z"/>
	<path fill="#231F20" d="M131.5,455.4c-1.9,0-3.4-0.9-4.1-1.3c-0.2,0.3-0.6,0.7-0.7,1.3h-0.7v-6.2h0.7c0.3,3.1,2.2,4.8,5,4.8
		c1.6,0,2.8-0.9,2.8-2.4c0-1.3-1-2.2-3-3.2l-2.5-1.3c-1.7-0.9-3-2.4-3-4.4c0-2.3,1.9-4.1,4.5-4.1c1.5,0,2.7,0.5,3.4,1.1
		c0.2-0.2,0.5-0.5,0.5-1.1h0.7v6.1h-0.7c-0.2-2.2-1.2-4.8-3.8-4.8c-1.4,0-2.6,0.8-2.6,2.1c0,1.3,0.9,2,3.2,3.1l2.4,1.3
		c2.1,1.1,2.8,2.7,2.8,4.1C136.7,453.4,134.3,455.4,131.5,455.4z"/>
	<path fill="#231F20" d="M153.7,451.1l0.2-0.7h0.7l-0.3,4.4h-13.6V454c2.4,0,2.9-0.6,2.9-4.2V444c0-3.6-0.4-4.2-2.9-4.2V439h8h4.7
		l0.3,4.4H153l-0.2-0.7c-0.4-1.7-0.9-2.3-4.2-2.3h-2.4v5.4h0.2c3.6,0,3.9-0.4,3.9-2.9h0.7v7.1h-0.7c0-2.4-0.3-2.9-3.9-2.9h-0.2v2.1
		c0,3.6,0.4,4.2,2.9,4.2h0.4C152.8,453.4,153.2,452.8,153.7,451.1z"/>
	<path fill="#231F20" d="M162.1,440.4c-3.3,0-3.6,0.6-4.1,2.3l-0.2,0.7h-0.7l0.2-4.5h16.2l0.3,4.5H173l-0.2-0.7
		c-0.4-1.7-0.9-2.3-4.2-2.3h-1.9v9.3c0,3.6,0.5,4.2,2.9,4.2v0.7h-8.3V454c2.4,0,2.9-0.6,2.9-4.2v-9.3H162.1z"/>
	<path fill="#231F20" d="M187.4,450.6c1.5,1.7,3.1,3.1,4.9,3.4v0.7h-4.6l-4.9-6.7h-1v1.8c0,3.6,0.4,4.2,2.9,4.2v0.7h-8.3V454
		c2.4,0,2.9-0.6,2.9-4.2V444c0-3.6-0.4-4.2-2.9-4.2V439h7.5c3.7,0,5.8,1.9,5.8,4.5c0,2.2-1.7,4-4.4,4.4L187.4,450.6z M183.8,440.3
		h-2.1v6.3h2.1c2,0,3-1.4,3-3.1C186.7,441.8,185.8,440.3,183.8,440.3z"/>
	<path fill="#231F20" d="M197.9,451.2c-0.9,2.1-0.9,2.8,2,2.8v0.8H193V454c2.2,0,2.5-0.4,3.7-3.2l5.3-12.4h0.5l5.3,12.4
		c1.2,2.7,1.6,3.2,3.6,3.2v0.8h-8.1V454c2.6,0,2.9-0.6,2-2.8l-0.7-1.7h-6L197.9,451.2z M201.6,442.7l-2.4,5.6h4.8L201.6,442.7z"/>
</g>
<g>
	<path fill="#231F20" d="M127.4,475.5h2.4v3.5c2.2,0.4,4.2,1.7,5.5,3.6l-3,2.6c-0.6-1-1.3-2-2.5-2.3v8.2c3.4,2.1,6.4,4.4,6.4,8.8
		c0,4-2.3,7.3-6.4,7.7v4.6h-2.4v-4.6c-2.7-0.3-5-2.3-6.4-4.5l3.3-2.5c0.5,1.4,1.6,2.7,3.1,3.2v-9.3c-3-1.9-6-4.3-6-8.2
		c0-3.7,2.1-6.8,6-7.3V475.5z M127.4,482.8c-1.2,0.4-2,1.6-2,2.9c0,1.7,0.8,2.8,2,4V482.8z M129.8,503.7c1.6-0.6,2.2-1.9,2.2-3.7
		c0-1.9-0.9-2.9-2.2-4.1V503.7z"/>
	<path fill="#231F20" d="M145.4,484.9h-3.9v-2.7c2.2-1.1,4.2-2.3,5.8-3.7h2.5v29h-4.4V484.9z"/>
	<path fill="#231F20" d="M158.8,486.4c0-5.4,2.1-7.8,7-7.8s7,2.5,7,7.8v13.7c0,5.4-2.1,7.8-7,7.8s-7-2.5-7-7.8V486.4z M168,485.2
		c0-1.9-0.8-2.7-2.3-2.7s-2.3,0.9-2.3,2.7v16.1c0,1.9,0.8,2.7,2.3,2.7s2.3-0.9,2.3-2.7V485.2z"/>
	<path fill="#231F20" d="M177.3,486.4c0-5.4,2.1-7.8,7-7.8s7,2.5,7,7.8v13.7c0,5.4-2.1,7.8-7,7.8s-7-2.5-7-7.8V486.4z M186.6,485.2
		c0-1.9-0.8-2.7-2.3-2.7s-2.3,0.9-2.3,2.7v16.1c0,1.9,0.8,2.7,2.3,2.7s2.3-0.9,2.3-2.7V485.2z"/>
</g>
<text transform="matrix(1 0 0 1 193.0827 507.52)" fill="#231F20" font-family="'TradeGothic-CondEighteen'" font-size="39.5882"> </text>
<g>
	<path fill="#231F20" d="M382.5,455.4c-1.9,0-3.4-0.9-4.1-1.3c-0.2,0.3-0.6,0.7-0.7,1.3h-0.7v-6.2h0.7c0.3,3.1,2.2,4.8,5,4.8
		c1.6,0,2.8-0.9,2.8-2.4c0-1.3-1-2.2-3-3.2l-2.5-1.3c-1.7-0.9-3-2.4-3-4.4c0-2.3,1.9-4.1,4.5-4.1c1.5,0,2.7,0.5,3.4,1.1
		c0.2-0.2,0.5-0.5,0.5-1.1h0.7v6.1h-0.7c-0.2-2.2-1.2-4.8-3.8-4.8c-1.4,0-2.6,0.8-2.6,2.1c0,1.3,0.9,2,3.2,3.1l2.4,1.3
		c2.1,1.1,2.8,2.7,2.8,4.1C387.7,453.4,385.3,455.4,382.5,455.4z"/>
	<path fill="#231F20" d="M395.3,440.4c-3.3,0-3.6,0.6-4.1,2.3l-0.2,0.7h-0.7l0.2-4.5h16.2l0.3,4.5h-0.8l-0.2-0.7
		c-0.4-1.7-0.9-2.3-4.2-2.3h-1.9v9.3c0,3.6,0.5,4.2,2.9,4.2v0.7h-8.3V454c2.4,0,2.9-0.6,2.9-4.2v-9.3H395.3z"/>
	<path fill="#231F20" d="M418.7,453.7c2.5,0,4.4-1.5,4.4-4.6V444c0-3.6-0.4-4.2-2.9-4.2V439h7.4v0.7c-2.4,0-2.9,0.6-2.9,4.2v4.9
		c0,4.2-2.9,6.5-6.5,6.5c-3.6,0-6.5-2.2-6.5-6.5V444c0-3.6-0.4-4.2-2.9-4.2V439h8.3v0.7c-2.4,0-2.9,0.6-2.9,4.2v5.2
		C414.4,452.3,416.2,453.7,418.7,453.7z"/>
	<path fill="#231F20" d="M442.5,450.6c1.5,1.7,3.1,3.1,4.9,3.4v0.7h-4.6l-4.9-6.7h-1v1.8c0,3.6,0.4,4.2,2.9,4.2v0.7h-8.3V454
		c2.4,0,2.9-0.6,2.9-4.2V444c0-3.6-0.4-4.2-2.9-4.2V439h7.5c3.7,0,5.8,1.9,5.8,4.5c0,2.2-1.7,4-4.4,4.4L442.5,450.6z M438.8,440.3
		h-2.1v6.3h2.1c2,0,3-1.4,3-3.1C441.8,441.8,440.9,440.3,438.8,440.3z"/>
	<path fill="#231F20" d="M458.4,455.4c-4.5,0-8.2-3.8-8.2-8.5c0-4.6,3.7-8.5,8.2-8.5c1.7,0,3.7,1,4.8,2.4c0.3-0.3,0.5-1.2,0.7-1.8
		h0.7v6.3h-0.7c-0.7-3.4-2.6-5.5-5.4-5.5c-4.1,0-5.3,4-5.3,7.1c0,3.1,1.3,7.1,5.3,7.1c1.8,0,4.6-1.1,4.6-3.1c0-1.5-1.3-2.2-3.1-2.2
		v-0.7h8v0.7c-2.4,0-2.9,0.6-2.9,4.2c0,0,0,0.7,0,1.1C462.8,454,460.5,455.4,458.4,455.4z"/>
	<path fill="#231F20" d="M483.9,451.1l0.2-0.7h0.7l-0.3,4.4H471V454c2.4,0,2.9-0.6,2.9-4.2V444c0-3.6-0.4-4.2-2.9-4.2V439h8h4.7
		l0.3,4.4h-0.8l-0.2-0.7c-0.4-1.7-0.9-2.3-4.2-2.3h-2.4v5.4h0.2c3.6,0,3.9-0.4,3.9-2.9h0.7v7.1h-0.7c0-2.4-0.3-2.9-3.9-2.9h-0.2v2.1
		c0,3.6,0.4,4.2,2.9,4.2h0.4C483,453.4,483.5,452.8,483.9,451.1z"/>
	<path fill="#231F20" d="M498.4,455.4c-4.9,0-8.9-3.8-8.9-8.5c0-4.6,4-8.5,8.9-8.5s8.9,3.8,8.9,8.5
		C507.2,451.5,503.2,455.4,498.4,455.4z M498.4,439.8c-4.3,0-5.9,4-5.9,7.1c0,3.2,1.6,7.1,5.9,7.1s5.9-3.9,5.9-7.1
		C504.2,443.7,502.6,439.8,498.4,439.8z"/>
	<path fill="#231F20" d="M511.9,439.8V439h4.5l9.7,11.5V444c0-3.6-0.4-4.2-2.9-4.2V439h7.1v0.7c-2.4,0-2.9,0.6-2.9,4.2v11.4h-0.7
		l-10.6-12.7v7.1c0,3.6,0.4,4.2,2.9,4.2v0.7h-7.1V454c2.4,0,2.9-0.6,2.9-4.2V444C514.7,440.3,514.3,439.8,511.9,439.8z"/>
</g>
<g>
	<path fill="#231F20" d="M433.6,475.5h2.4v3.5c2.2,0.4,4.2,1.7,5.5,3.6l-3,2.6c-0.6-1-1.3-2-2.5-2.3v8.2c3.4,2.1,6.4,4.4,6.4,8.8
		c0,4-2.3,7.3-6.4,7.7v4.6h-2.4v-4.6c-2.7-0.3-5-2.3-6.4-4.5l3.3-2.5c0.5,1.4,1.6,2.7,3.1,3.2v-9.3c-3-1.9-6-4.3-6-8.2
		c0-3.7,2.1-6.8,6-7.3V475.5z M433.6,482.8c-1.2,0.4-2,1.6-2,2.9c0,1.7,0.8,2.8,2,4V482.8z M436,503.7c1.6-0.6,2.2-1.9,2.2-3.7
		c0-1.9-0.9-2.9-2.2-4.1V503.7z"/>
	<path fill="#231F20" d="M446.8,483v-4h12.9v2.8l-5.8,25.8h-4.6L455,483H446.8z"/>
	<path fill="#231F20" d="M469.5,499.2v2.3c0,1.5,0.9,2.5,2.2,2.5c1.5,0,2.4-0.9,2.4-3.5v-6.5c0-1.9-1-2.6-2.1-2.6
		c-1.5,0-2.2,1-2.7,2.2h-3.8c0.2-4.4,0.4-7.9,0.4-14.7h11.9l-0.2,4H470l-0.3,6.2l0.1,0.1c1.2-1.5,2.3-1.7,3.8-1.7
		c3.8,0,5.2,2.7,5.2,7.5v4c0,6-1.9,8.9-6.6,8.9c-4,0-7-1.7-7-6.5v-2.2H469.5z"/>
</g>
<g>
	<g>
		<path fill="#231F20" d="M128.7,191l-0.4-0.3c-4.4,0-8.9-1.1-13.4-3.2c-4.6-2.2-8.9-6-12.8-11.2l-3.1-6.1l-0.7-3.9l-0.6-1l-0.5-3.9
			l0.5-19.5c1.9-8.9,6.3-18.2,13.3-27.9c7.1-9.9,15.5-18,25.3-24.4c3.8-2.5,7.3-4.4,10.7-5.6c1.7-0.6,3.5-1.3,5.3-2s3.6-1.5,5.4-2.3
			l3.1-0.4l3.1-0.8l2.9-0.4l8.1-0.7c2,0.1,4,0.4,6,0.6c2,0.3,4,0.6,6,0.8c3.9,0.6,7.9,2.6,11.9,5.9l3,0.7l2.6-2.5h2.2l-7.9,25.8
			l-2.6,4.9h-1.9V98.2l-0.3-3c-0.4-1.8-1.5-3.8-3.1-6c-1.7-2.2-3.7-4.1-5.8-5.7l-3.5-1.9l-10.5-0.5l-3.1,0.5l-2.4,0.7l-2.4,0.6
			c-5.8,2-11.5,5.2-17,9.7c-5.5,4.5-10.6,9.5-15.2,15.2c-2.3,2.8-4.4,5.7-6.4,8.6c-2,2.9-3.7,5.9-5.3,8.9
			c-3.2,5.9-5.4,11.5-6.6,16.7c-1.2,4.4-1.8,8.5-1.8,12.2c0,3.8-0.2,7.5-0.6,11.2l0.8,3.7l0.3,2.5c0.6,2.7,2.3,5.5,5,8.5
			c2.7,3,5.6,4.9,8.7,5.7l13.6,1.8l4.8-0.5l3.1-0.7l12.7-6.3c3.7-2.2,6.8-5.1,9.4-8.5c1.3-1.7,2.6-3.5,3.7-5.1
			c1.2-1.7,2.2-3.3,3.2-4.8c2.4-6.9,3.6-13.1,3.6-18.4l-0.6-4.2l-2.9-4.9l-6.9-4.8l-7.2-0.6l-2.9,0.6l-7,4.4l-4.3,5.3l-0.4,2.5
			l1.3,3.6l3.5,0.7l4.9,1.8v3.8l-1.8,4.2l-3.7,1.3l-3.8,0.6l-6.2-3.7l-0.9-2.4l-0.9-1.2v-6.1l0.9-2l0.4-1.9c1.2-2.5,3-5.1,5.6-7.9
			c2.4-2.7,4.9-4.3,7.4-4.9l3.9-1.3l3.5-0.4c0.4,0,0.9,0,1.3-0.1c0.5-0.1,0.9-0.1,1.4-0.1c2.6,0,5.4,0.5,8.6,1.5
			c4.1,1.3,7.3,4.1,9.7,8.4l1.9,4.9l0.5,5.6l-2.4,13.6l-0.7,1.8c-3,6.4-7.7,12.3-14,17.9c-6.3,5.6-12.2,8.9-17.6,10.1l-3.1,0.9
			l-2.5,0.3l-4.5,0.5l-9.5,0.7L128.7,191z"/>
	</g>
	<g>
		<path fill="#231F20" d="M212.3,138.6v-1.8h6L234.9,87h3l15.7,49.8h5.3v1.8h-19.2v-1.8h6.2l-5.3-16.8H226l-5.4,16.8h6.6v1.8H212.3z
			 M239.8,117.9l-6.2-20.7h-0.2l-6.7,20.7H239.8z"/>
	</g>
	<g>
		<path fill="#231F20" d="M309.7,124.1h13.2l-16.3,78h-13.4l-16.3-78H290l9.7,54.1h0.2L309.7,124.1z"/>
	</g>
	<g>
		<path fill="#231F20" d="M359.8,62.2c6.1,0,11.1,5,11.1,11.1s-5,11.1-11.1,11.1c-6.1,0-11.1-5-11.1-11.1S353.7,62.2,359.8,62.2z
			 M350.2,92.7h19.1v61.7h-19.1V92.7z"/>
	</g>
	<g>
		<path fill="#231F20" d="M418.1,164v-1.1c3.8,0,5-0.2,6.8-2.7c1.3-1.8,1.5-3.3,1.5-4.3c0-1.7-1.3-4.3-2.1-5.9l-2.6-5.7h-21
			l-2.6,5.6c-0.8,1.8-1.9,4.7-1.9,5.9c0,0.9,0.2,3,1.4,4.7c1.7,2.3,2.7,2.4,6.3,2.4v1.1h-20.4v-1.1c1.3-0.1,2.7-0.2,3.9-1
			c3.9-2.7,7.6-7.8,8.8-10.5l19.4-42.3h0.4l19,43.1c1.9,4.3,5.1,9.1,7,10.1c1.1,0.5,1.7,0.7,3.9,0.7v1.1H418.1z M394.8,162.9
			c-0.2-1.1-0.3-2.1-0.3-3.2c0-1.4,0.2-2.7,0.4-3.9l-0.2-0.2c-1.7,2.4-3.7,4.6-5.9,6.6v0.7H394.8z M402.3,140.9l-1.1,2.4h20.1
			l-1.1-2.4H402.3z M402.7,140H420l-8.4-19.1L402.7,140z M438.8,162.9v-0.2c-3.2-2.1-5.3-5.6-7.1-9.5l-16.9-38.5h-0.3l-1.7,3.4
			c-0.3,0.7-0.7,1.3-0.7,1.5c0,0.4,0.3,0.7,0.9,2.1l12.6,28.4c1.1,2.4,1.8,4,1.8,6c0,2.8-1.7,5.3-3.5,6.6v0.2H438.8z"/>
	</g>
	<g>
		<path fill="#231F20" d="M477.3,148.1h-13.4v-78h18.8c15,0,22.7,6.4,22.7,23c0,12.5-4.9,17.6-9.4,19.7l11.3,35.3h-13.6l-9.5-32.3
			c-1.7,0.2-4.5,0.3-6.9,0.3V148.1z M477.3,105.1h4.8c7.2,0,9.9-2.7,9.9-12c0-9.3-2.7-12-9.9-12h-4.8V105.1z"/>
	</g>
	<text transform="matrix(1 0 0 1 511.4444 138.5888)" fill="#231F20" font-family="'MrsEavesSmallCaps'" font-size="34.9294"> </text>
</g>
<g>
	<defs>
		<rect id="SVGID_1_" x="-1.9" y="85.5" width="613.9" height="625.7"/>
	</defs>
	<clipPath id="SVGID_2_">
		<use xlink:href="#SVGID_1_"  overflow="visible"/>
	</clipPath>
	<path clip-path="url(#SVGID_2_)" fill="#231F20" d="M520.4,323c0.8,0.5,1.4,0.8,1.9,1.1c0.2,0.1,0.5,0.3,0.7,0.5
		c0.3,0.3,0.6,0.5,0.9,0.8c0.2,0.2,0.5,0.4,0.7,0.6c0.6,0.6,1.1,1.2,1.6,1.8c0.2,0.2,0.3,0.4,0.4,0.6c0.3,0.9,0.6,1.8,0.8,2.7
		c0.2,0.9,0.2,1.8,0.4,2.7c0.1,0.5,0,0.9-0.3,1.2c-0.2,0.2-0.2,0.4-0.1,0.6c0,0.1,0.1,0.2,0.1,0.4c0,0.4-0.3,0.9-0.6,0.8
		c-0.6-0.3-1,0.1-1.5,0.4c-0.8,0.6-1.5,1.1-2.5,1.2c-0.1,0-0.2,0-0.3,0.1c-0.5,0.3-1,0.5-1.5,0.8c-0.2,0.1-0.4,0.2-0.5,0.4
		c-0.2,0.2-0.4,0.3-0.7,0.3c-0.5,0-0.9,0-1.4,0.3c-0.3,0.2-0.6,0.2-1,0.2c-0.5,0-0.7-0.4-0.4-0.8c0.2-0.2,0.4-0.4,0.6-0.7
		c0.3-0.4,0.6-0.9,0.8-1.3c0.3-0.7,0.5-1.4,0.6-2.2c0.2-0.9,0.3-1.8,0-2.7c-0.2-0.8-0.5-1.6-0.7-2.4c-0.1-0.4-0.4-0.8-0.6-1.1
		c-0.6-0.7-1.3-1.3-2.3-1.4c-0.2,0-0.3-0.2-0.5-0.2c-0.2-0.1-0.3-0.1-0.5-0.2c-1.1-0.1-2.2-0.1-3.3,0.4c-0.5,0.2-1,0.5-1.5,0.8
		c-0.9,0.7-1,1.8-1.4,2.8c0,0,0,0.1,0,0.1c0,0.7,0.1,1.4,0.3,2c0.2,0.8,0.7,1.3,1.3,1.7c0.5,0.3,1,0.3,1.5,0.4
		c0.6,0.1,1-0.1,1.2-0.6c0.2-0.6,0.2-1.1-0.1-1.7c-0.2-0.4-0.5-0.8-0.6-1.2c-0.3-0.6-0.2-1.1,0.3-1.6c0.2-0.1,0.3-0.3,0.5-0.5
		c0.8-0.9,2.6-0.9,3.2,0c0.2,0.3,0.5,0.5,0.7,0.8c0.3,0.4,0.6,0.7,0.7,1.1c0.4,1.1,0.6,2.2,0.1,3.3c-0.1,0.1-0.1,0.2-0.1,0.4
		c-0.2,0.6-0.3,1.2-0.8,1.6c-0.1,0.1-0.2,0.3-0.2,0.4c-0.2,0.6-0.4,1-1,1.4c-0.1,0.1-0.2,0.2-0.4,0.3c-0.7,0.6-1.2,1.5-2.3,1.4
		c-0.8,0.4-1.6,0.3-2.4,0.4c-1,0.1-1.9,0-2.7-0.7c-0.4-0.3-0.8-0.6-1.3-0.8c-0.9-0.3-1.4-0.9-1.9-1.6c-0.6-0.7-1.1-1.5-1.5-2.4
		c-0.1-0.3-0.4-0.7-0.4-1c-0.1-0.8-0.1-1.6-0.1-2.3c0-0.6,0.2-1.3,0.2-1.9c-0.1-0.9,0.2-1.6,0.7-2.3c0.4-0.6,0.8-1.2,1.2-1.9
		c0.4-0.6,0.8-1.2,1.2-1.8c0.1-0.1,0.2-0.1,0.2-0.2c0.7-0.5,1.3-1,2-1.5c0.8-0.6,1.6-1.1,2.5-1.3c0.2,0,0.4-0.1,0.6-0.2
		c1.2-0.6,2.5-0.5,3.8-0.4c0.8,0,1.6,0.4,2.5,0.6C518.6,321.9,519.6,322.5,520.4,323 M539.9,336.3c0.1,0.2,0.3,0.3,0.4,0.4
		c0.3,0.4,0.6,0.7,1.1,0.8c0.3,0.1,0.6,0.2,0.9,0.4c0.6,0.4,1.3,0.7,2,0.7c0.4,0,0.7,0.2,1,0.5c0.3,0.3,0.6,0.6,0.9,0.9
		c0.2,0.2,0.4,0.3,0.6,0.4c0.3,0.1,0.5,0.3,0.6,0.7c0.1,0.2,0.1,0.5,0.3,0.6c0.3,0.4,0.5,0.9,0.8,1.3c0.7,1.4,1.1,2.8,1.4,4.4
		c0.1,0.4,0.3,0.6,0.6,0.7c0.6,0.2,0.8,0.6,1,1.2c0.1,0.4,0.3,0.8,0.5,1.2c0.3,0.7,0.7,1.5,0.6,2.3c0,0.7,0.1,1.3,0.4,1.9
		c0.2,0.4,0.3,0.8,0.5,1.2c0.5,1,1,2,1.6,3c0.4,0.6,0.7,1.4,1.4,1.9c0.1,0,0.1,0.1,0.2,0.2c0.4,0.9,1.1,1.3,1.8,1.9
		c0.1,0.1,0.2,0.1,0.3,0.2c1,0.5,2.1,0.9,3.1,1.5c0.8,0.4,1.6,0.6,2.6,0.5c0.6,0,1.1,0,1.7,0.1c0.5,0.1,0.9-0.1,1.3-0.4
		c0.6-0.5,1.4-0.8,2.1-1.2c0.2-0.1,0.3-0.2,0.4-0.3c0.6-0.7,1.3-1.4,1.9-2.1c0.3-0.4,0.6-0.9,0.7-1.4c0.1-0.3,0.2-0.6,0.3-0.9
		c0.5-1.7,0.3-3.2-0.8-4.6c-0.3-0.4-0.6-0.8-0.9-1.2c-0.4-0.7-1-1-1.7-1.2c-0.4-0.1-0.7-0.3-1.1-0.4c-0.7-0.2-1.4-0.1-2.1,0
		c-0.3,0-0.7,0.2-1,0.2c-1.3,0.1-2.3,0.9-3.2,1.8c-0.4,0.4-0.5,0.9-0.5,1.4c0,0.3,0,0.5-0.1,0.8c-0.2,1.3,0.3,2.2,1.3,2.9
		c0.4,0.3,0.9,0.5,1.3,0.6c0.5,0.1,0.7,0,1-0.5c0.3-0.5,0.3-0.7-0.1-1.1c-0.6-0.5-0.7-1.2-0.5-1.9c0.2-0.6,0.4-1.2,1-1.6
		c0.3-0.2,0.6-0.3,0.9-0.4c0.4-0.1,0.8-0.2,1.2-0.3c0.4-0.1,0.8,0.2,1.2,0.3c0.2,0.1,0.4,0.3,0.7,0.4c1,0.5,1.4,1.4,1.6,2.4
		c0.3,1.4,0,2.7-0.9,3.8c-0.4,0.5-0.8,1.1-1.2,1.6c-0.1,0.1-0.2,0.3-0.4,0.3c-0.8,0.3-1.7,0.6-2.5,1c-0.1,0-0.2,0-0.3,0.1
		c-0.8,0.2-1.6,0.5-2.5,0.2c-0.1,0-0.2,0-0.4,0c-0.4,0-0.8,0-1.1-0.4c-0.3-0.3-0.7-0.5-1.1-0.8c-0.2-0.1-0.3-0.2-0.5-0.4
		c-0.7-0.6-1.3-1.3-2-1.9c-0.3-0.3-0.5-0.7-0.8-1.1c-1-1.5-1.8-3.2-2.3-5c-0.2-0.8-0.6-1.6-0.8-2.4c-0.1-0.4-0.2-0.7-0.2-1.1
		c-0.1-0.3-0.1-0.6-0.2-0.9c-0.3-0.9-0.6-1.7-0.8-2.6c-0.2-0.9-0.5-1.7-1.1-2.4c-0.5-0.6-0.8-1.3-1.2-1.9c-0.4-0.7-0.9-1.3-1.4-2
		c-0.6-0.7-1.2-1.5-1.8-2.2c-0.2-0.3-0.5-0.4-0.8-0.6c-0.4-0.2-0.8-0.5-1.2-0.7c-1.1-0.5-2.1-1-3.2-1.5c-0.4-0.2-0.9-0.2-1.4,0.1
		c-0.4,0.2-0.7,0.2-1.1-0.1c-0.6-0.4-1.3-0.7-2-0.6c-0.4,0-0.9,0-1.3,0c-0.4,0-0.8,0.1-1.2,0.4c-0.2,0.2-0.4,0.2-0.6,0.1
		c-0.8-0.4-1.6-0.4-2.4-0.1c-0.2,0.1-0.3,0-0.5,0.1c-0.4,0-0.6,0.2-0.9,0.4c-0.1,0.1-0.2,0.3-0.4,0.4c-0.5,0.4-0.7,0.3-0.9-0.3
		c0-0.1,0-0.2,0-0.2c0.1-0.7,0.2-1.3,0.3-2c0-0.3,0.1-0.6,0.1-0.9c0-0.5,0.1-1,0.4-1.4c0,0,0,0,0-0.1c0.4-1.2,1.3-1.9,2.3-2.6
		c0.6-0.4,1.2-0.5,1.9-0.6c0.1,0,0.2,0,0.3,0.1c0.1,0.1,0.3,0.2,0.4,0.3c0.8,0.6,0.8,0.6,1.6,0.1c0.3-0.2,0.4-0.4,0.4-0.7
		c0-0.7-0.5-1.4-1.2-1.6c-1-0.3-2-0.5-3.1-0.4c-0.2,0-0.4,0.1-0.5,0.1c-1,0.3-2.1,0.7-2.8,1.6c-0.1,0.1-0.3,0.2-0.5,0.4
		c-0.1-0.2-0.2-0.4-0.2-0.5c-0.3-0.5-0.6-1-1.2-1.1c-0.4,0-0.6-0.3-0.6-0.7c0.1-0.1,0.3-0.1,0.4-0.2c0.7-0.2,1-0.6,0.9-1.3
		c0-0.1,0-0.2-0.1-0.2c-0.3-0.6-0.4-1.2-0.6-1.8c-0.3-1.2-0.6-2.3-0.6-3.5c0-0.2,0-0.4-0.1-0.5c-0.3-0.5-0.2-0.9-0.1-1.4
		c0.1-0.3,0.1-0.5,0.1-0.8c-0.1-0.6-0.7-1.1-1.1-1c-0.5,0.1-1,0.8-0.9,1.4c0.3,1,0.3,2,0.4,3c0.2,1.3,0.6,2.6,0.9,3.8
		c0.1,0.3,0.1,0.7,0.1,1.1c0,0.4-0.3,0.5-0.6,0.3c-0.1-0.1-0.3-0.2-0.4-0.3c-0.5-0.8-1.4-1.3-2.1-1.9c-1.1-0.9-2.3-1.4-3.6-1.9
		c-0.3-0.1-0.6-0.3-0.9-0.4c-0.3-0.1-0.7-0.1-1.1-0.2c-0.5-0.1-0.9-0.2-1.4-0.4c-0.1,0-0.2-0.1-0.3-0.1c-1.1,0.1-2.2-0.4-3.2-0.4
		c-0.9-0.1-1.8-0.1-2.7,0c-0.3,0-0.6,0-0.8-0.1c-0.3-0.1-0.6-0.1-1,0c-0.3,0.2-0.7,0.1-0.9-0.1c-0.3-0.3-0.8-0.5-1.2-0.6
		c-1.5-0.5-2.8-1.3-3.9-2.4c-0.5-0.6-1-1.1-1.2-1.8c-0.2-0.5-0.5-1-0.8-1.5c-0.2-0.4-0.3-0.8-0.2-1.2c0-0.3,0.1-0.7,0.1-1
		c-0.1-1.8,0.7-3.2,1.8-4.5c0.1-0.1,0.2-0.2,0.2-0.3c0.4-0.8,1.2-1.2,2-1.6c0.3-0.2,0.7-0.2,1-0.2c0.7-0.1,1.3-0.2,2-0.3
		c0.5,0,1,0.1,1.4,0.4c0.5,0.5,1.1,0.8,1.7,1.2c0.9,0.5,1.2,1.4,1.4,2.3c0.2,0.8,0.1,1.5,0,2.2c0,0.3-0.1,0.6-0.3,0.8
		c-0.3,0.6-0.9,0.7-1.4,0.7c-0.6,0-1.1-0.3-1.5-0.7c-0.1-0.1-0.2-0.4-0.3-0.6c0-0.5,0-0.9,0.1-1.4c0-0.2,0-0.4,0-0.6
		c0-0.3-0.2-0.5-0.5-0.6c-0.6-0.2-1.1-0.1-1.5,0.3c-0.8,0.6-1.3,1.4-1.2,2.5c0.1,0.7,0,1.4,0.3,2c0.3,0.7,0.7,1.3,1.5,1.6
		c1,0.3,2,0.5,3,0.3c0.3,0,0.5-0.2,0.7-0.3c0.4-0.3,0.7-0.7,1-1c0.1-0.1,0.2-0.2,0.2-0.2c0.7-0.3,1-0.8,1.4-1.4
		c0.6-1.1,0.8-2.2,0.6-3.3c-0.1-0.7-0.3-1.3-0.7-1.9c-0.4-0.5-0.7-1.1-1-1.7c-0.4-0.7-0.8-1.2-1.6-1.4c-0.5-0.2-0.9-0.5-1.4-0.8
		c-0.2-0.1-0.3-0.2-0.5-0.3c-1.4-0.1-2.7-0.3-4.1,0c-0.6,0.1-1.1,0.4-1.7,0.5c0,0-0.1,0-0.1,0.1c-0.9,0.8-1.8,1.6-2.6,2.5
		c-0.6,0.7-1.2,1.5-1.3,2.6c0,0.2-0.1,0.4-0.2,0.5c-0.4,0.8-0.4,1.7-0.3,2.6c0,0.2,0.1,0.3,0.1,0.5c-0.1,1.1,0.1,2.2,0.7,3.1
		c0,0,0,0.1,0.1,0.1c0,0.8,0.5,1.4,0.9,2.1c0.5,0.8,1.1,1.6,1.9,2.1c0.8,0.5,1.6,1,2.5,1.5c0.4,0.2,0.7,0.4,1.1,0.5
		c0.6,0.2,1.3,0.4,1.9,0c0.1-0.1,0.2-0.1,0.3-0.1c0.2,0,0.4,0.1,0.5,0.2c0,0.1,0,0.3-0.1,0.4c-0.6,0.5-1.2,0.9-1.8,1.3
		c-0.1,0.1-0.3,0.2-0.4,0.3c-0.4,0.4-0.6,0.4-1,0.1c-0.4-0.3-0.8-0.2-1.1,0.1c-1.8,1.2-3.6,2.5-5.5,3.6c-0.8,0.5-1.6,0.6-2.4,0.4
		c-0.3-0.1-0.5-0.1-0.8-0.1c-0.4,0-0.7-0.2-0.9-0.4c-0.4-0.5-0.7-1.1-0.8-1.7c-0.1-0.5,0.1-1,0.2-1.5c0.1-0.8-0.4-1.6-1.1-1.8
		c-0.5-0.2-1.4,0.3-1.6,0.9c-0.2,0.5-0.4,1.1-0.5,1.6c-0.1,0.8-0.1,1.6,0.3,2.4c0.4,0.7,0.9,1.3,1.4,1.8c0.4,0.4,0.9,0.6,1.5,0.7
		c0.3,0,0.5,0.1,0.8,0.2c0.4,0.1,0.7,0.2,1.1,0c0.1-0.1,0.3-0.1,0.5-0.1c0.5,0,0.7,0.4,0.4,0.8c-0.1,0.2-0.3,0.3-0.4,0.4
		c-0.3,0.4-0.7,0.7-1,1.1c-0.6,0.8-1.1,1.7-1.6,2.6c-0.6,0.9-1.3,1.7-2,2.6c-0.9,1.1-1.7,2.3-2.5,3.4c-0.1,0.2-0.2,0.3-0.4,0.5
		c-0.8,0.8-1.5,1.5-2.2,2.4c-0.1,0.2-0.4,0.3-0.5,0.4c-0.2,0.1-0.3,0.3-0.5,0.4c-0.6,0.8-1.4,1.4-2.1,2.1c-0.3,0.3-0.8,0.4-1.2,0.7
		c-0.6,0.5-1.3,0.8-2,1c-0.4,0.1-0.7,0.4-1,0.7c-0.3,0.3-0.6,0.3-1,0.2c-0.2-0.1-0.5-0.1-0.7,0c-0.8,0.3-1.6,0.2-2.4,0.2
		c-0.5,0-0.9,0.1-1.4,0.1c-0.3,0-0.6,0-0.9-0.1c-1-0.3-2-0.6-2.9-1.2c-0.5-0.3-1-0.7-1.5-1.1c-0.2-0.1-0.3-0.2-0.5-0.3
		c-0.4-0.2-0.7-0.5-0.9-0.9c-0.1-0.1-0.1-0.2-0.2-0.3c-0.5-0.6-1.1-1.1-1.5-1.8c-0.2-0.3-0.4-0.7-0.5-1.1c-0.3-1.1-0.5-2.2-0.6-3.3
		c-0.1-0.6-0.1-1.3,0.1-2c0.2-1.1,0.7-2.2,1.2-3.2c0.2-0.4,0.5-0.8,0.8-1.1c0.7-0.8,1.3-1.5,2.3-1.9c0.3-0.1,0.7-0.3,0.9-0.5
		c0.4-0.3,0.9-0.4,1.4-0.4c0.6,0,1.2-0.1,1.7-0.4c0.3-0.1,0.6-0.1,0.9,0c1.1,0.2,2.2,0.6,3,1.2c0.8,0.6,1.6,1.4,2.2,2.4
		c0.4,0.8,0.7,1.7,0.6,2.7c0,0.8-0.2,1.6-0.8,2.2c-0.3,0.4-0.7,0.8-1.2,1c-1.1,0.7-2.9-0.1-3.2-1.4c-0.1-0.5,0.2-0.8,0.4-1.1
		c0.3-0.3,0.6-0.7,0.8-1c0.3-0.4,0.2-0.8-0.2-1.1c-0.4-0.4-1-0.6-1.5-0.6c-0.5,0-1.1,0.2-1.6,0.3c-0.4,0.1-0.7,0.5-0.9,0.9
		c-0.2,0.5-0.3,1-0.5,1.6c-0.2,0.5-0.3,1,0,1.4c0.1,0.1,0.1,0.3,0.2,0.5c0.2,0.7,0.6,1.2,0.9,1.8c0.4,0.7,1.1,1.2,1.9,1.3
		c0.5,0.1,1,0,1.5,0c0.8,0,1.6-0.1,2.3-0.5c0.1,0,0.1,0,0.2-0.1c0.5-0.3,0.9-0.7,1.4-1c0.9-0.6,1.2-1.5,1.6-2.4
		c0.5-1.1,0.5-2.3,0.3-3.5c0-0.3,0-0.5-0.1-0.8c-0.1-0.6-0.4-1.1-0.8-1.5c-0.2-0.2-0.4-0.5-0.6-0.8c-0.8-1.2-1.9-2-3.1-2.7
		c-0.4-0.2-0.9-0.2-1.4-0.4c-0.7-0.3-1.5-0.3-2.3-0.4c-0.1,0-0.2,0-0.3,0c-0.8-0.2-1.5,0-2.3,0.2c-0.2,0-0.4,0.1-0.7,0.2
		c-0.5,0.1-1,0.2-1.4,0.6c0,0-0.1,0.1-0.1,0.1c-1.1,0.4-1.9,1.5-3,2c-0.3,0.1-0.5,0.5-0.7,0.8c-0.5,0.5-0.9,1.1-1.4,1.6
		c-0.4,0.4-0.7,0.9-0.7,1.6c0,0.8-0.2,1.5-0.5,2.2c-0.3,0.7-0.4,1.5-0.1,2.3c0.1,0.3,0.2,0.7,0.1,1.1c-0.1,0.6,0.1,1.2,0.3,1.7
		c0.2,0.6,0.5,1.2,0.8,1.8c0.3,0.6,0.7,1.1,1,1.7c0.4,0.6,0.8,1.2,1.2,1.8c0.7,0.9,1.6,1.6,2.7,2c0.6,0.2,1.1,0.5,1.6,0.9
		c0.3,0.3,0.7,0.3,1.1,0.4c0.9,0.2,1.8,0.4,2.7,0.6c0.1,0,0.3,0.1,0.4,0.1c1.1-0.2,2.2,0,3.3-0.1c0.7-0.1,1.2-0.3,1.6-0.9
		c0.3-0.5,0.5-0.6,1.1-0.3c0.5,0.2,0.9,0.2,1.3-0.1c0.5-0.4,1.1-0.7,1.7-0.9c1.1-0.5,2.1-1.2,3.1-2.1c0.4-0.4,0.9-0.7,1.4-1.1
		c0.1-0.1,0.3-0.2,0.4-0.3c0.7-0.8,1.5-1.7,2.2-2.5c0.9-1.1,1.8-2.2,2.6-3.3c0.5-0.7,1.1-1.4,1.6-2.2c0.8-1.2,1.5-2.4,2.3-3.7
		c0.2-0.4,0.5-0.8,0.7-1.2c0.6-1.2,1.5-2.1,2.3-3.1c0.6-0.7,1.5-1.3,2.4-1.7c0.1,0,0.2-0.1,0.3-0.1c0.4-0.1,0.6,0.2,0.5,0.6
		c-0.1,0.2-0.2,0.3-0.3,0.5c-0.2,0.6-0.3,1.1-0.4,1.7c0,0.2,0,0.4-0.1,0.6c-0.5,1.2-0.3,2.4-0.4,3.7c0,0.3,0.1,0.6,0.2,0.8
		c0.2,0.6,0.5,1.1,0.7,1.7c0.2,0.6,0.4,1.3,0.7,1.9c0.1,0.3,0.4,0.5,0.5,0.8c0.4,0.8,1,1.4,1.7,1.9c0.7,0.5,1.4,1,2.2,1.4
		c0.5,0.3,1,0.4,1.6,0.4c0.3,0,0.7,0.1,1,0.2c0.4,0.1,0.9,0.3,1.3,0.4c1.1,0.2,2.3,0.2,3.5,0c0.5,0,0.9-0.3,1.3-0.5
		c0.2-0.1,0.4-0.1,0.7-0.1c0.6,0,1.3-0.1,1.9-0.3c0.5-0.1,1.1-0.2,1.6-0.2c0.3,0,0.5-0.1,0.7-0.3c0.4-0.4,0.8-0.6,1.4-0.4
		c0.4,0.1,0.7,0,1-0.4c0.1-0.2,0.4-0.4,0.6-0.4c0.4-0.1,0.8-0.3,1.1-0.6c0.3-0.3,0.7-0.4,1.1-0.4c0.3,0,0.6-0.1,1-0.3
		c0.5-0.2,0.7,0,0.7,0.5c0,0.2-0.1,0.5-0.2,0.7c-0.2,0.6-0.4,1.3-0.6,1.9c-0.2,0.7-0.5,1.3-0.9,1.9c-0.3,0.4-0.5,0.9-0.7,1.3
		c-0.3,0.6-0.6,1.2-1.1,1.7c-0.4,0.4-0.7,0.9-1,1.3c-0.7,1-1.5,1.9-2.6,2.6c-0.6,0.4-1.2,0.9-1.9,1.1c-0.9,0.4-1.8,0.9-2.7,1.2
		c-0.7,0.3-1.5,0.5-2.2,0.7c-0.9,0.3-1.9,0.6-2.8,0.9c-0.7,0.2-1.4,0.3-2.1,0.2c-0.5-0.1-1-0.1-1.5-0.1c-0.2,0-0.5-0.1-0.7-0.1
		c-0.5-0.1-1-0.2-1.5-0.3c-0.4-0.1-0.8-0.2-1.2-0.4c-0.4-0.1-0.8-0.2-1.2-0.3c-0.6-0.1-1-0.3-1.5-0.6c-1.2-0.7-2.2-1.8-3.4-2.6
		c-0.1-0.1-0.2-0.1-0.2-0.2c-0.3-0.6-0.7-1.3-1-1.9c-0.3-0.6-0.2-1.4-0.1-2.1c0-0.4,0.1-0.7,0.2-1.1c0.1-0.5,0.4-0.9,1-1
		c0.3-0.1,0.6-0.1,0.9-0.2c1.2-0.3,1.7-1.6,1.1-2.6c-0.3-0.5-0.7-0.8-1.2-1c-0.2-0.1-0.4,0-0.6,0c-0.4,0.2-0.9,0.5-1.3,0.8
		c-0.2,0.1-0.3,0.2-0.5,0.4c-0.1,0.1-0.3,0.2-0.4,0.4c-0.4,1.1-1,2.2-1,3.4c0,0.1,0,0.2,0,0.3c-0.4,1.1-0.1,2.2,0.3,3.2
		c0.3,0.6,0.6,1.2,1,1.7c0.5,0.7,1.2,1.3,1.7,2c0.7,0.9,1.7,1.5,2.7,2.1c0.6,0.3,1.2,0.6,1.8,0.9c0.4,0.2,0.8,0.4,1.2,0.7
		c0.4,0.3,0.8,0.5,1.3,0.4c0.2,0,0.3,0,0.5,0c0.4,0.1,0.9,0.1,1.3,0.2c0.2,0,0.3,0,0.5,0.1c0.6,0.3,1.3,0.3,2,0c0.1,0,0.2,0,0.3,0
		c0.6,0,1.2,0,1.7-0.1c0.3,0,0.5-0.2,0.8-0.3c0.4-0.1,0.7-0.3,1.1-0.4c0.3-0.1,0.7-0.2,1-0.2c0.7-0.1,1.3-0.3,1.9-0.7
		c0.8-0.5,1.7-1,2.6-1.3c0.6-0.2,1.2-0.6,1.7-0.8c0.4-0.2,0.9-0.3,1.4-0.4c0.6-0.2,1.2-0.3,1.8-0.5c0.6-0.1,1.1,0.1,1.6,0.4
		c0.3,0.1,0.5,0.4,0.6,0.7c0.3,0.6,0.5,1.3,0.6,2c0.1,0.5,0.5,0.9,0.9,1.1c0.3,0.2,0.7,0.1,0.9-0.3c0.3-0.5,0.5-1.1,0.5-1.7
		c0-0.7,0-1.4-0.2-2.2c-0.1-0.5-0.4-0.8-0.8-1.1c-0.4-0.2-0.8-0.4-1.3-0.5c-0.3-0.1-0.7-0.3-1.1-0.1c-0.1,0-0.2,0-0.2,0
		c-0.3-0.1-0.6-0.1-0.7-0.4c-0.1-0.3,0.1-0.6,0.3-0.9c0.1-0.1,0.1-0.2,0.2-0.2c0.5-0.6,1.2-1.1,1.4-1.9c0-0.1,0.1-0.1,0.1-0.2
		c1-1.5,1.8-3.2,2.5-4.8c0.1-0.2,0.1-0.3,0.2-0.5c0.2-0.8,0.3-1.7,0.6-2.5c0.2-0.6,0.4-1.2,0.7-1.8c0.2-0.4,0.3-0.4,0.8-0.3
		c0.1,0,0.2,0.1,0.4,0.1c0.5,0.1,1,0.2,1.6-0.1c0.3-0.2,0.7-0.2,1.1-0.2c0.4-0.1,0.8-0.2,1.1-0.6c0.2-0.3,0.4-0.4,0.8-0.2
		c0.6,0.3,1.2,0.3,1.8,0.2c0.2,0,0.5,0,0.7,0.1c0.2,0,0.5,0.1,0.7,0.2c0.4,0.1,0.9,0.1,1.2-0.4C539.6,336.5,539.8,336.4,539.9,336.3
		"/>
	<path clip-path="url(#SVGID_2_)" fill="#231F20" d="M538.1,317.6c-0.6-0.5-1.1-0.9-1.6-1.3c-0.1-0.1-0.2-0.3-0.3-0.5
		c-0.2-0.4-0.3-0.8-0.4-1.2c-0.1-0.2-0.1-0.4,0-0.6c0.3-0.8,0.8-1.6,1.3-2.3c0.4-0.5,0.9-0.6,1.4-0.7c0.4,0,0.8,0.3,1.1,0.6
		c0.3,0.4,0.7,0.7,1,1.1c0.1,0.1,0.1,0.1,0.2,0.2c0.6,0.4,1.4,0,1.4-0.7c0-1-0.1-2.1-0.7-2.9c-0.7-1-1.7-1.5-2.9-1.3
		c-0.7,0.1-1.3,0.3-1.9,0.5c-1.5,0.6-2.4,1.7-2.7,3.3c0,0,0,0.1,0,0.1c-0.3,0.8-0.1,1.6,0.2,2.4c0.1,0.2,0.1,0.5,0.1,0.8
		c0.1,1.1,0.5,2,1.4,2.7c0.4,0.3,0.7,0.6,1.1,0.9c0.5,0.4,1,0.6,1.7,0.7c0.1,0,0.2,0,0.3,0.1c0.8,0.4,1.6,0.3,2.4,0.2
		c1.4-0.1,2.6-0.7,3.9-1c0.1,0,0.3-0.1,0.4-0.2c0.4-0.4,0.7-0.7,1.1-1.1c0.3-0.3,0.5-0.3,0.6,0.1c0.1,0.4,0.1,0.8,0.1,1.2
		c0,0.4,0,0.8-0.1,1.2c-0.1,0.6,0.1,1,0.3,1.5c0.3,0.4,0.4,0.9,0.7,1.4c0.3,0.7,0.6,1.3,1.4,1.5c0.2,0,0.3,0.1,0.4,0.3
		c0.5,0.6,1.1,0.9,1.8,1c0.6,0.2,1.2,0.3,1.8,0.3c0.9,0.1,1.9-0.7,1.9-1.6c0-0.5-0.3-0.8-0.6-1.1c-0.3-0.2-0.7-0.3-1-0.4
		c-0.1,0-0.3,0-0.3,0.1c-0.7,0.7-1.5,0.5-2.3,0.6c-0.2,0-0.4-0.2-0.5-0.3c-0.5-0.9-1-1.7-1.4-2.7c-0.6-1.7-0.7-3.4-0.2-5.2
		c0.1-0.5,0.2-1.1,0.2-1.6c0-0.6,0-1.3,0-1.9c0-0.7-0.2-1.4-0.7-2c-0.2-0.2-0.1-0.3-0.1-0.5c0.1-0.4,0.3-0.9,0.1-1.4
		c-0.1-0.5-0.6-0.9-1-0.9c-0.5,0-0.7,0.2-0.7,0.7c0,0.6,0.1,1.3,0.5,1.7c0.4,0.4,0.4,0.8,0.3,1.3c-0.2,0.4-0.2,0.8-0.2,1.2
		c0,0.1,0,0.3-0.1,0.4c-0.1,0.4-0.2,0.9-0.3,1.3c-0.2,0.6-0.4,1.1-0.9,1.6c-0.8,0.8-1.6,1.4-2.6,1.8c-0.3,0.1-0.5,0.3-0.8,0.4
		c-1.2,0.7-2.5,0.8-3.7,0.6C539,318,538.5,317.8,538.1,317.6"/>
	<path clip-path="url(#SVGID_2_)" fill="#231F20" d="M532.8,347.7c-0.3,0.6-0.6,1.1-0.9,1.7c-0.3,0.6-0.1,1.2-0.2,1.7
		c0,0.4,0,0.8-0.1,1.2c-0.1,0.5-0.1,1.1,0.1,1.6c0.4,0.9,0.9,1.7,1.5,2.5c0.5,0.6,1,1.2,1.7,1.6c1.1,0.7,2.2,1.4,3.5,1.7
		c1.8,0.5,3.6,0.2,5.4-0.4c0.3-0.1,0.5-0.3,0.7-0.5c0.6-0.5,1.1-0.9,1.7-1.4c0.2-0.2,0.5-0.4,0.7-0.6c0.1-0.1,0.3-0.3,0.4-0.4
		c0.7-0.4,1.1-1,1.6-1.6c0.7-0.8,1.1-1.9,1.4-2.9c0.1-0.3,0.2-0.5,0.4-0.8c0.3-0.4,0.3-0.9,0.2-1.4c-0.1-0.2-0.2-0.4-0.3-0.5
		c-0.3-0.3-0.7-0.3-0.9,0.2c-0.1,0.2-0.1,0.4-0.2,0.6c-0.3,1.1-0.9,2.2-1.5,3.2c-0.8,1.1-1.7,2.1-2.7,3.1c-0.1,0.1-0.1,0.1-0.2,0.2
		c-1,0.5-1.9,1.2-3,1.4c-1.2,0.2-2.4,0.4-3.6-0.1c-0.4-0.2-0.9-0.2-1.3-0.4c-1-0.3-1.8-0.9-2.5-1.8c-0.9-1-1.1-2.3-1.4-3.6
		c0-0.1,0-0.2,0-0.3c0.1-0.7,0.2-1.4,0.4-2.1c0.1-0.5,0.4-0.9,0.7-1.3c0.3-0.5,0.8-0.9,1.2-1.3c0.1-0.1,0.3-0.2,0.4-0.3
		c1.1-0.3,2.1-0.4,3.2,0c0.3,0.1,0.6,0.3,0.7,0.7c0,0.1,0.1,0.2,0.1,0.3c0.4,0.5,0.4,1,0.3,1.6c-0.2,1.2-0.5,1.3-1.5,1.7
		c-0.6,0.3-1,0.6-1,1.1c0,0.6,0.3,1.1,1,1.3c0.9,0.3,1.7,0.1,2.5-0.3c0.4-0.2,0.7-0.7,1.1-1.1c0.7-0.8,0.9-1.9,1-2.9
		c0.1-0.6-0.2-1.2-0.6-1.7c-0.1-0.1-0.2-0.2-0.2-0.3c-0.6-1.2-1.7-1.7-2.8-2c-0.7-0.2-1.5-0.3-2.2-0.1c-0.3,0.1-0.6,0-0.9,0
		c-0.3,0-0.6,0.1-0.9,0.3c-0.4,0.4-0.9,0.6-1.4,0.8c-0.6,0.2-1,0.7-1.3,1.2C533,347.3,532.9,347.5,532.8,347.7
		C532.8,347.7,532.8,347.7,532.8,347.7"/>
	<path clip-path="url(#SVGID_2_)" fill="#231F20" d="M547.3,297.2c-0.2,0.6-0.6,1-1.1,1.3c-0.3,0.2-0.5,0.5-0.8,0.7
		c-0.1,0.1-0.2,0.3-0.4,0.3c-0.6,0.1-1.3,0.2-1.9,0.3c-0.6,0.1-1.3,0.2-1.9,0.4c-0.2,0-0.3,0.2-0.5,0.3c-0.3,0.2-0.3,0.4,0,0.6
		c0.3,0.3,0.6,0.7,1.1,0.8c0.2,0,0.4,0.1,0.5,0.2c0.9,0.2,1.6,0.8,2.1,1.6c0.1,0.2,0.4,0.4,0.6,0.6c0.2,0.2,0.4,0.2,0.7,0.1
		c0.3-0.1,0.4-0.4,0.4-0.7c0-0.4-0.1-0.7-0.4-0.9c-0.3-0.3-0.6-0.5-0.8-0.8c-0.2-0.3-0.2-0.5,0.1-0.7c0.3-0.2,0.6-0.3,0.9-0.5
		c0.4-0.2,0.7-0.3,1.1-0.4c0.2-0.1,0.5-0.3,0.7-0.6c0.5-0.6,0.9-1.3,1.3-1.9c0.2-0.3,0.3-0.6,0.4-1c0.3-1,0.5-2.1,0.4-3.2
		c0-0.2-0.1-0.4-0.2-0.5c-0.8-1.1-1.8-2-2.8-2.9c-0.4-0.4-1-0.4-1.5-0.4c-0.4,0-0.9,0.1-1.3,0.2c-1,0.2-1.5,1.1-1.9,1.9
		c-0.3,0.6-0.5,1.2-0.4,1.9c0.1,0.6,0.4,0.9,0.8,1.1c0.3,0.2,0.5,0.1,0.7-0.1c0.3-0.3,0.5-0.7,0.8-1c0,0,0-0.1,0.1-0.1
		c0.6-0.4,1.1-0.9,1.9-0.7c0.7,0.1,1.2,0.5,1.4,1.2c0.1,0.4,0.3,0.7,0.4,1.2c0.1,0.5,0.1,0.9-0.3,1.3
		C547.4,297.1,547.3,297.2,547.3,297.2"/>
	<path clip-path="url(#SVGID_2_)" fill="#231F20" d="M526.1,304.2c0.1,0.3,0.1,0.6,0.2,0.9c0.2,0.4,0.2,0.7,0,1
		c-0.3,0.6-0.4,1.3-0.2,2c0.1,0.5,0.4,0.8,0.7,0.8c0.4,0,0.7-0.2,0.9-0.7c0.2-0.6,0.4-1.1,0.7-1.7c0.4-0.7,0.9-1.4,1.3-2.1
		c0.1-0.2,0.4-0.3,0.6-0.5c0.8-0.6,1.7-0.8,2.6-1.2c0.5-0.2,0.9-0.3,1.2-0.7c0.2-0.2,0.5-0.3,0.8-0.4c0.8-0.1,1.6-0.1,2.4-0.2
		c0.6-0.1,1.2-0.4,1.8-0.6c0.2-0.1,0.4-0.3,0.4-0.6c-0.1-0.3-0.2-0.5-0.6-0.5c-1.1-0.1-2.3-0.2-3.4,0.1c-0.2,0-0.3,0.1-0.5,0.2
		c-0.4,0.2-0.8,0.4-1.2,0.3c-0.1,0-0.3,0-0.5,0c-0.6,0.3-1.2,0.5-1.7,0.8c-0.4,0.2-0.9,0.4-1.3,0.7c-0.2,0.1-0.4,0.2-0.6,0.4
		c-0.7,0.7-1.5,1.2-2.3,1.7c-0.2,0.1-0.4,0.1-0.7,0.1C526.7,304.2,526.4,304.2,526.1,304.2"/>
	<path clip-path="url(#SVGID_2_)" fill="#231F20" d="M525.9,303.7c0.7-0.8,0.6-1.5,0.2-2.3c-0.5-0.7-1-1.3-1.8-1.8
		c-0.4-0.2-0.8-0.4-1.3-0.4c-0.6,0-1.1-0.1-1.7,0c-0.9,0.3-1.6,0.9-2.1,1.6c-0.2,0.3-0.4,0.6-0.5,0.9c-0.1,0.3-0.2,0.6-0.2,0.9
		c0,0.9,0.8,1.6,1.7,1.4c0.1,0,0.2-0.2,0.3-0.3c0.4-0.4,0.8-0.9,1.3-1.3c0.5-0.4,1.1-0.5,1.7-0.3c0.6,0.2,1.2,0.6,1.7,1
		C525.4,303.4,525.6,303.6,525.9,303.7"/>
	<path clip-path="url(#SVGID_2_)" fill="#231F20" d="M526.6,313.3c0.3-0.6,0-1.3-0.5-1.4c-0.3-0.1-0.5,0.1-0.6,0.3
		c-0.1,0.3-0.2,0.6-0.2,0.9c0,0.5,0.4,0.7,0.8,0.5C526.3,313.5,526.4,313.4,526.6,313.3"/>
	<path clip-path="url(#SVGID_2_)" fill="#231F20" d="M553.4,322.3c0.1,0,0.3,0,0.4-0.1c0.1-0.1-0.1-0.6-0.3-0.7
		c-0.1,0-0.3,0-0.4,0.1C552.9,321.8,553,322.1,553.4,322.3"/>
	<path clip-path="url(#SVGID_2_)" fill="#231F20" d="M82.7,323c-0.8,0.5-1.4,0.8-1.9,1.1c-0.2,0.1-0.5,0.3-0.7,0.5
		c-0.3,0.3-0.6,0.5-0.9,0.8c-0.2,0.2-0.5,0.4-0.7,0.6c-0.6,0.6-1.1,1.2-1.6,1.8c-0.2,0.2-0.3,0.4-0.4,0.6c-0.3,0.9-0.6,1.8-0.8,2.7
		c-0.2,0.9-0.2,1.8-0.4,2.7c-0.1,0.5,0,0.9,0.3,1.2c0.2,0.2,0.2,0.4,0.1,0.6c0,0.1-0.1,0.2-0.1,0.4c0,0.4,0.3,0.9,0.6,0.8
		c0.6-0.3,1,0.1,1.5,0.4c0.8,0.6,1.5,1.1,2.5,1.2c0.1,0,0.2,0,0.3,0.1c0.5,0.3,1,0.5,1.5,0.8c0.2,0.1,0.4,0.2,0.5,0.4
		c0.2,0.2,0.4,0.3,0.7,0.3c0.5,0,0.9,0,1.4,0.3c0.3,0.2,0.6,0.2,1,0.2c0.5,0,0.7-0.4,0.4-0.8c-0.2-0.2-0.4-0.4-0.6-0.7
		c-0.3-0.4-0.6-0.9-0.8-1.3c-0.3-0.7-0.5-1.4-0.6-2.2c-0.2-0.9-0.3-1.8,0-2.7c0.2-0.8,0.5-1.6,0.7-2.4c0.1-0.4,0.4-0.8,0.6-1.1
		c0.6-0.7,1.3-1.3,2.3-1.4c0.2,0,0.3-0.2,0.5-0.2c0.2-0.1,0.3-0.1,0.5-0.2c1.1-0.1,2.2-0.1,3.3,0.4c0.5,0.2,1,0.5,1.5,0.8
		c0.9,0.7,1,1.8,1.4,2.8c0,0,0,0.1,0,0.1c0,0.7-0.1,1.4-0.3,2c-0.2,0.8-0.7,1.3-1.3,1.7c-0.5,0.3-1,0.3-1.5,0.4
		c-0.6,0.1-1-0.1-1.2-0.6c-0.2-0.6-0.2-1.1,0.1-1.7c0.2-0.4,0.5-0.8,0.6-1.2c0.3-0.6,0.2-1.1-0.3-1.6c-0.2-0.1-0.3-0.3-0.5-0.5
		c-0.8-0.9-2.6-0.9-3.2,0c-0.2,0.3-0.5,0.5-0.7,0.8c-0.3,0.4-0.6,0.7-0.7,1.1c-0.4,1.1-0.6,2.2-0.1,3.3c0.1,0.1,0.1,0.2,0.1,0.4
		c0.2,0.6,0.3,1.2,0.8,1.6c0.1,0.1,0.2,0.3,0.2,0.4c0.2,0.6,0.4,1,1,1.4c0.1,0.1,0.2,0.2,0.4,0.3c0.7,0.6,1.2,1.5,2.3,1.4
		c0.8,0.4,1.6,0.3,2.4,0.4c1,0.1,1.9,0,2.7-0.7c0.4-0.3,0.8-0.6,1.3-0.8c0.9-0.3,1.4-0.9,1.9-1.6c0.6-0.7,1.1-1.5,1.5-2.4
		c0.1-0.3,0.4-0.7,0.4-1c0.1-0.8,0.1-1.6,0.1-2.3c0-0.6-0.2-1.3-0.2-1.9c0.1-0.9-0.2-1.6-0.7-2.3c-0.4-0.6-0.8-1.2-1.2-1.9
		c-0.4-0.6-0.8-1.2-1.2-1.8c-0.1-0.1-0.2-0.1-0.2-0.2c-0.7-0.5-1.3-1-2-1.5c-0.8-0.6-1.6-1.1-2.5-1.3c-0.2,0-0.4-0.1-0.6-0.2
		c-1.2-0.6-2.5-0.5-3.8-0.4c-0.8,0-1.6,0.4-2.5,0.6C84.5,321.9,83.5,322.5,82.7,323 M63.2,336.3c-0.1,0.2-0.3,0.3-0.4,0.4
		c-0.3,0.4-0.6,0.7-1.1,0.8c-0.3,0.1-0.6,0.2-0.9,0.4c-0.6,0.4-1.3,0.7-2,0.7c-0.4,0-0.7,0.2-1,0.5c-0.3,0.3-0.6,0.6-0.9,0.9
		c-0.2,0.2-0.4,0.3-0.6,0.4c-0.3,0.1-0.5,0.3-0.6,0.7c-0.1,0.2-0.1,0.5-0.3,0.6c-0.3,0.4-0.5,0.9-0.8,1.3c-0.7,1.4-1.1,2.8-1.4,4.4
		c-0.1,0.4-0.3,0.6-0.6,0.7c-0.6,0.2-0.8,0.6-1,1.2c-0.1,0.4-0.3,0.8-0.5,1.2c-0.3,0.7-0.7,1.5-0.6,2.3c0,0.7-0.1,1.3-0.4,1.9
		c-0.2,0.4-0.3,0.8-0.5,1.2c-0.5,1-1,2-1.6,3c-0.4,0.6-0.7,1.4-1.4,1.9c-0.1,0-0.1,0.1-0.2,0.2c-0.4,0.9-1.1,1.3-1.8,1.9
		c-0.1,0.1-0.2,0.1-0.3,0.2c-1,0.5-2.1,0.9-3.1,1.5c-0.8,0.4-1.6,0.6-2.6,0.5c-0.6,0-1.1,0-1.7,0.1c-0.5,0.1-0.9-0.1-1.3-0.4
		c-0.6-0.5-1.4-0.8-2.1-1.2c-0.2-0.1-0.3-0.2-0.4-0.3c-0.6-0.7-1.3-1.4-1.9-2.1c-0.3-0.4-0.6-0.9-0.7-1.4c-0.1-0.3-0.2-0.6-0.3-0.9
		c-0.5-1.7-0.3-3.2,0.8-4.6c0.3-0.4,0.6-0.8,0.9-1.2c0.4-0.7,1-1,1.7-1.2c0.4-0.1,0.7-0.3,1.1-0.4c0.7-0.2,1.4-0.1,2.1,0
		c0.3,0,0.7,0.2,1,0.2c1.3,0.1,2.3,0.9,3.2,1.8c0.4,0.4,0.5,0.9,0.5,1.4c0,0.3,0,0.5,0.1,0.8c0.2,1.3-0.3,2.2-1.3,2.9
		c-0.4,0.3-0.9,0.5-1.3,0.6c-0.5,0.1-0.7,0-1-0.5c-0.3-0.5-0.3-0.7,0.1-1.1c0.6-0.5,0.7-1.2,0.5-1.9c-0.2-0.6-0.4-1.2-1-1.6
		c-0.3-0.2-0.6-0.3-0.9-0.4c-0.4-0.1-0.8-0.2-1.2-0.3c-0.4-0.1-0.8,0.2-1.2,0.3c-0.2,0.1-0.4,0.3-0.7,0.4c-1,0.5-1.4,1.4-1.6,2.4
		c-0.3,1.4,0,2.7,0.9,3.8c0.4,0.5,0.8,1.1,1.2,1.6c0.1,0.1,0.2,0.3,0.4,0.3c0.8,0.3,1.7,0.6,2.5,1c0.1,0,0.2,0,0.3,0.1
		c0.8,0.2,1.6,0.5,2.5,0.2c0.1,0,0.2,0,0.4,0c0.4,0,0.8,0,1.1-0.4c0.3-0.3,0.7-0.5,1.1-0.8c0.2-0.1,0.3-0.2,0.5-0.4
		c0.7-0.6,1.3-1.3,2-1.9c0.3-0.3,0.5-0.7,0.8-1.1c1-1.5,1.8-3.2,2.3-5c0.2-0.8,0.6-1.6,0.8-2.4c0.1-0.4,0.2-0.7,0.2-1.1
		c0.1-0.3,0.1-0.6,0.2-0.9c0.3-0.9,0.6-1.7,0.8-2.6c0.2-0.9,0.5-1.7,1.1-2.4c0.5-0.6,0.8-1.3,1.2-1.9c0.4-0.7,0.9-1.3,1.4-2
		c0.6-0.7,1.2-1.5,1.8-2.2c0.2-0.3,0.5-0.4,0.8-0.6c0.4-0.2,0.8-0.5,1.2-0.7c1.1-0.5,2.1-1,3.2-1.5c0.4-0.2,0.9-0.2,1.4,0.1
		c0.4,0.2,0.7,0.2,1.1-0.1c0.6-0.4,1.3-0.7,2-0.6c0.4,0,0.9,0,1.3,0c0.4,0,0.8,0.1,1.2,0.4c0.2,0.2,0.4,0.2,0.6,0.1
		c0.8-0.4,1.6-0.4,2.4-0.1c0.2,0.1,0.3,0,0.5,0.1c0.4,0,0.6,0.2,0.9,0.4c0.1,0.1,0.2,0.3,0.4,0.4c0.5,0.4,0.7,0.3,0.9-0.3
		c0-0.1,0-0.2,0-0.2c-0.1-0.7-0.2-1.3-0.3-2c0-0.3-0.1-0.6-0.1-0.9c0-0.5-0.1-1-0.4-1.4c0,0,0,0,0-0.1c-0.4-1.2-1.3-1.9-2.3-2.6
		c-0.6-0.4-1.2-0.5-1.9-0.6c-0.1,0-0.2,0-0.3,0.1c-0.1,0.1-0.3,0.2-0.4,0.3c-0.8,0.6-0.8,0.6-1.6,0.1c-0.3-0.2-0.4-0.4-0.4-0.7
		c0-0.7,0.5-1.4,1.2-1.6c1-0.3,2-0.5,3.1-0.4c0.2,0,0.4,0.1,0.5,0.1c1,0.3,2.1,0.7,2.8,1.6c0.1,0.1,0.3,0.2,0.5,0.4
		c0.1-0.2,0.2-0.4,0.2-0.5c0.3-0.5,0.6-1,1.2-1.1c0.4,0,0.6-0.3,0.6-0.7c-0.1-0.1-0.3-0.1-0.4-0.2c-0.7-0.2-1-0.6-0.9-1.3
		c0-0.1,0-0.2,0.1-0.2c0.3-0.6,0.4-1.2,0.6-1.8c0.3-1.2,0.6-2.3,0.6-3.5c0-0.2,0-0.4,0.1-0.5c0.3-0.5,0.2-0.9,0.1-1.4
		c-0.1-0.3-0.1-0.5-0.1-0.8c0.1-0.6,0.7-1.1,1.1-1c0.5,0.1,1,0.8,0.9,1.4c-0.3,1-0.3,2-0.4,3c-0.2,1.3-0.6,2.6-0.9,3.8
		c-0.1,0.3-0.1,0.7-0.1,1.1c0,0.4,0.3,0.5,0.6,0.3c0.1-0.1,0.3-0.2,0.4-0.3c0.5-0.8,1.4-1.3,2.1-1.9c1.1-0.9,2.3-1.4,3.6-1.9
		c0.3-0.1,0.6-0.3,0.9-0.4c0.3-0.1,0.7-0.1,1.1-0.2c0.5-0.1,0.9-0.2,1.4-0.4c0.1,0,0.2-0.1,0.3-0.1c1.1,0.1,2.2-0.4,3.2-0.4
		c0.9-0.1,1.8-0.1,2.7,0c0.3,0,0.6,0,0.8-0.1c0.3-0.1,0.6-0.1,1,0s0.7,0.1,0.9-0.1c0.3-0.3,0.8-0.5,1.2-0.6c1.5-0.5,2.8-1.3,3.9-2.4
		c0.5-0.6,1-1.1,1.2-1.8c0.2-0.5,0.5-1,0.8-1.5c0.2-0.4,0.3-0.8,0.2-1.2c0-0.3-0.1-0.7-0.1-1c0.1-1.8-0.7-3.2-1.8-4.5
		c-0.1-0.1-0.2-0.2-0.2-0.3c-0.4-0.8-1.2-1.2-2-1.6c-0.3-0.2-0.7-0.2-1-0.2c-0.7-0.1-1.3-0.2-2-0.3c-0.5,0-1,0.1-1.4,0.4
		c-0.5,0.5-1.1,0.8-1.7,1.2c-0.9,0.5-1.2,1.4-1.4,2.3c-0.2,0.8-0.1,1.5,0,2.2c0,0.3,0.1,0.6,0.3,0.8c0.3,0.6,0.9,0.7,1.4,0.7
		c0.6,0,1.1-0.3,1.5-0.7c0.1-0.1,0.2-0.4,0.3-0.6c0-0.5,0-0.9-0.1-1.4c0-0.2,0-0.4,0-0.6c0-0.3,0.2-0.5,0.5-0.6
		c0.6-0.2,1.1-0.1,1.5,0.3c0.8,0.6,1.3,1.4,1.2,2.5c-0.1,0.7,0,1.4-0.3,2c-0.3,0.7-0.7,1.3-1.5,1.6c-1,0.3-2,0.5-3,0.3
		c-0.3,0-0.5-0.2-0.7-0.3c-0.4-0.3-0.7-0.7-1-1c-0.1-0.1-0.2-0.2-0.2-0.2c-0.7-0.3-1-0.8-1.4-1.4c-0.6-1.1-0.8-2.2-0.6-3.3
		c0.1-0.7,0.3-1.3,0.7-1.9c0.4-0.5,0.7-1.1,1-1.7c0.4-0.7,0.8-1.2,1.6-1.4c0.5-0.2,0.9-0.5,1.4-0.8c0.2-0.1,0.3-0.2,0.5-0.3
		c1.4-0.1,2.7-0.3,4.1,0c0.6,0.1,1.1,0.4,1.7,0.5c0,0,0.1,0,0.1,0.1c0.9,0.8,1.8,1.6,2.6,2.5c0.6,0.7,1.2,1.5,1.3,2.6
		c0,0.2,0.1,0.4,0.2,0.5c0.4,0.8,0.4,1.7,0.3,2.6c0,0.2-0.1,0.3-0.1,0.5c0.1,1.1-0.1,2.2-0.7,3.1c0,0,0,0.1-0.1,0.1
		c0,0.8-0.5,1.4-0.9,2.1c-0.5,0.8-1.1,1.6-1.9,2.1c-0.8,0.5-1.6,1-2.5,1.5c-0.4,0.2-0.7,0.4-1.1,0.5c-0.6,0.2-1.3,0.4-1.9,0
		c-0.1-0.1-0.2-0.1-0.3-0.1c-0.2,0-0.4,0.1-0.5,0.2c0,0.1,0,0.3,0.1,0.4c0.6,0.5,1.2,0.9,1.8,1.3c0.1,0.1,0.3,0.2,0.4,0.3
		c0.4,0.4,0.6,0.4,1,0.1c0.4-0.3,0.8-0.2,1.1,0.1c1.8,1.2,3.6,2.5,5.5,3.6c0.8,0.5,1.6,0.6,2.4,0.4c0.3-0.1,0.5-0.1,0.8-0.1
		c0.4,0,0.7-0.2,0.9-0.4c0.4-0.5,0.7-1.1,0.8-1.7c0.1-0.5-0.1-1-0.2-1.5c-0.1-0.8,0.4-1.6,1.1-1.8c0.5-0.2,1.4,0.3,1.6,0.9
		c0.2,0.5,0.4,1.1,0.5,1.6c0.1,0.8,0.1,1.6-0.3,2.4c-0.4,0.7-0.9,1.3-1.4,1.8c-0.4,0.4-0.9,0.6-1.5,0.7c-0.3,0-0.5,0.1-0.8,0.2
		c-0.4,0.1-0.7,0.2-1.1,0c-0.1-0.1-0.3-0.1-0.5-0.1c-0.5,0-0.7,0.4-0.4,0.8c0.1,0.2,0.3,0.3,0.4,0.4c0.3,0.4,0.7,0.7,1,1.1
		c0.6,0.8,1.1,1.7,1.6,2.6c0.6,0.9,1.3,1.7,2,2.6c0.9,1.1,1.7,2.3,2.5,3.4c0.1,0.2,0.2,0.3,0.4,0.5c0.8,0.8,1.5,1.5,2.2,2.4
		c0.1,0.2,0.4,0.3,0.5,0.4c0.2,0.1,0.3,0.3,0.5,0.4c0.6,0.8,1.4,1.4,2.1,2.1c0.3,0.3,0.8,0.4,1.2,0.7c0.6,0.5,1.3,0.8,2,1
		c0.4,0.1,0.7,0.4,1,0.7c0.3,0.3,0.6,0.3,1,0.2c0.2-0.1,0.5-0.1,0.7,0c0.8,0.3,1.6,0.2,2.4,0.2c0.5,0,0.9,0.1,1.4,0.1
		c0.3,0,0.6,0,0.9-0.1c1-0.3,2-0.6,2.9-1.2c0.5-0.3,1-0.7,1.5-1.1c0.2-0.1,0.3-0.2,0.5-0.3c0.4-0.2,0.7-0.5,0.9-0.9
		c0.1-0.1,0.1-0.2,0.2-0.3c0.5-0.6,1.1-1.1,1.5-1.8c0.2-0.3,0.4-0.7,0.5-1.1c0.3-1.1,0.5-2.2,0.6-3.3c0.1-0.6,0.1-1.3-0.1-2
		c-0.2-1.1-0.7-2.2-1.2-3.2c-0.2-0.4-0.5-0.8-0.8-1.1c-0.7-0.8-1.3-1.5-2.3-1.9c-0.3-0.1-0.7-0.3-0.9-0.5c-0.4-0.3-0.9-0.4-1.4-0.4
		c-0.6,0-1.2-0.1-1.7-0.4c-0.3-0.1-0.6-0.1-0.9,0c-1.1,0.2-2.2,0.6-3,1.2c-0.8,0.6-1.6,1.4-2.2,2.4c-0.4,0.8-0.7,1.7-0.6,2.7
		c0,0.8,0.2,1.6,0.8,2.2c0.3,0.4,0.7,0.8,1.2,1c1.1,0.7,2.9-0.1,3.2-1.4c0.1-0.5-0.2-0.8-0.4-1.1c-0.3-0.3-0.6-0.7-0.8-1
		c-0.3-0.4-0.2-0.8,0.2-1.1c0.4-0.4,1-0.6,1.5-0.6c0.5,0,1.1,0.2,1.6,0.3c0.4,0.1,0.7,0.5,0.9,0.9c0.2,0.5,0.3,1,0.5,1.6
		c0.2,0.5,0.3,1,0,1.4c-0.1,0.1-0.1,0.3-0.2,0.5c-0.2,0.7-0.6,1.2-0.9,1.8c-0.4,0.7-1.1,1.2-1.9,1.3c-0.5,0.1-1,0-1.5,0
		c-0.8,0-1.6-0.1-2.3-0.5c-0.1,0-0.1,0-0.2-0.1c-0.5-0.3-0.9-0.7-1.4-1c-0.9-0.6-1.2-1.5-1.6-2.4c-0.5-1.1-0.5-2.3-0.3-3.5
		c0-0.3,0-0.5,0.1-0.8c0.1-0.6,0.4-1.1,0.8-1.5c0.2-0.2,0.4-0.5,0.6-0.8c0.8-1.2,1.9-2,3.1-2.7c0.4-0.2,0.9-0.2,1.4-0.4
		c0.7-0.3,1.5-0.3,2.3-0.4c0.1,0,0.2,0,0.3,0c0.8-0.2,1.5,0,2.3,0.2c0.2,0,0.4,0.1,0.7,0.2c0.5,0.1,1,0.2,1.4,0.6
		c0,0,0.1,0.1,0.1,0.1c1.1,0.4,1.9,1.5,3,2c0.3,0.1,0.5,0.5,0.7,0.8c0.5,0.5,0.9,1.1,1.4,1.6c0.4,0.4,0.7,0.9,0.7,1.6
		c0,0.8,0.2,1.5,0.5,2.2c0.3,0.7,0.4,1.5,0.1,2.3c-0.1,0.3-0.2,0.7-0.1,1.1c0.1,0.6-0.1,1.2-0.3,1.7c-0.2,0.6-0.5,1.2-0.8,1.8
		c-0.3,0.6-0.7,1.1-1,1.7c-0.4,0.6-0.8,1.2-1.2,1.8c-0.7,0.9-1.6,1.6-2.7,2c-0.6,0.2-1.1,0.5-1.6,0.9c-0.3,0.3-0.7,0.3-1.1,0.4
		c-0.9,0.2-1.8,0.4-2.7,0.6c-0.1,0-0.3,0.1-0.4,0.1c-1.1-0.2-2.2,0-3.3-0.1c-0.7-0.1-1.2-0.3-1.6-0.9c-0.3-0.5-0.5-0.6-1.1-0.3
		c-0.5,0.2-0.9,0.2-1.3-0.1c-0.5-0.4-1.1-0.7-1.7-0.9c-1.1-0.5-2.1-1.2-3.1-2.1c-0.4-0.4-0.9-0.7-1.4-1.1c-0.1-0.1-0.3-0.2-0.4-0.3
		c-0.7-0.8-1.5-1.7-2.2-2.5c-0.9-1.1-1.8-2.2-2.6-3.3c-0.5-0.7-1.1-1.4-1.6-2.2c-0.8-1.2-1.5-2.4-2.3-3.7c-0.2-0.4-0.5-0.8-0.7-1.2
		c-0.6-1.2-1.5-2.1-2.3-3.1c-0.6-0.7-1.5-1.3-2.4-1.7c-0.1,0-0.2-0.1-0.3-0.1c-0.4-0.1-0.6,0.2-0.5,0.6c0.1,0.2,0.2,0.3,0.3,0.5
		c0.2,0.6,0.3,1.1,0.4,1.7c0,0.2,0,0.4,0.1,0.6c0.5,1.2,0.3,2.4,0.4,3.7c0,0.3-0.1,0.6-0.2,0.8c-0.2,0.6-0.5,1.1-0.7,1.7
		c-0.2,0.6-0.4,1.3-0.7,1.9c-0.1,0.3-0.4,0.5-0.5,0.8c-0.4,0.8-1,1.4-1.7,1.9c-0.7,0.5-1.4,1-2.2,1.4c-0.5,0.3-1,0.4-1.6,0.4
		c-0.3,0-0.7,0.1-1,0.2c-0.4,0.1-0.9,0.3-1.3,0.4c-1.1,0.2-2.3,0.2-3.5,0c-0.5,0-0.9-0.3-1.3-0.5c-0.2-0.1-0.4-0.1-0.7-0.1
		c-0.6,0-1.3-0.1-1.9-0.3c-0.5-0.1-1.1-0.2-1.6-0.2c-0.3,0-0.5-0.1-0.7-0.3c-0.4-0.4-0.8-0.6-1.4-0.4c-0.4,0.1-0.7,0-1-0.4
		c-0.1-0.2-0.4-0.4-0.6-0.4c-0.4-0.1-0.8-0.3-1.1-0.6c-0.3-0.3-0.7-0.4-1.1-0.4c-0.3,0-0.6-0.1-1-0.3c-0.5-0.2-0.7,0-0.7,0.5
		c0,0.2,0.1,0.5,0.2,0.7c0.2,0.6,0.4,1.3,0.6,1.9c0.2,0.7,0.5,1.3,0.9,1.9c0.3,0.4,0.5,0.9,0.7,1.3c0.3,0.6,0.6,1.2,1.1,1.7
		c0.4,0.4,0.7,0.9,1,1.3c0.7,1,1.5,1.9,2.6,2.6c0.6,0.4,1.2,0.9,1.9,1.1c0.9,0.4,1.8,0.9,2.7,1.2c0.7,0.3,1.5,0.5,2.2,0.7
		c0.9,0.3,1.9,0.6,2.8,0.9c0.7,0.2,1.4,0.3,2.1,0.2c0.5-0.1,1-0.1,1.5-0.1c0.2,0,0.5-0.1,0.7-0.1c0.5-0.1,1-0.2,1.5-0.3
		c0.4-0.1,0.8-0.2,1.2-0.4c0.4-0.1,0.8-0.2,1.2-0.3c0.6-0.1,1-0.3,1.5-0.6c1.2-0.7,2.2-1.8,3.4-2.6c0.1-0.1,0.2-0.1,0.2-0.2
		c0.3-0.6,0.7-1.3,1-1.9c0.3-0.6,0.2-1.4,0.1-2.1c0-0.4-0.1-0.7-0.2-1.1c-0.1-0.5-0.4-0.9-1-1c-0.3-0.1-0.6-0.1-0.9-0.2
		c-1.2-0.3-1.7-1.6-1.1-2.6c0.3-0.5,0.7-0.8,1.2-1c0.2-0.1,0.4,0,0.6,0c0.4,0.2,0.9,0.5,1.3,0.8c0.2,0.1,0.3,0.2,0.5,0.4
		c0.1,0.1,0.3,0.2,0.4,0.4c0.4,1.1,1,2.2,1,3.4c0,0.1,0,0.2,0,0.3c0.4,1.1,0.1,2.2-0.3,3.2c-0.3,0.6-0.6,1.2-1,1.7
		c-0.5,0.7-1.2,1.3-1.7,2c-0.7,0.9-1.7,1.5-2.7,2.1c-0.6,0.3-1.2,0.6-1.8,0.9c-0.4,0.2-0.8,0.4-1.2,0.7c-0.4,0.3-0.8,0.5-1.3,0.4
		c-0.2,0-0.3,0-0.5,0c-0.4,0.1-0.9,0.1-1.3,0.2c-0.2,0-0.3,0-0.5,0.1c-0.6,0.3-1.3,0.3-2,0c-0.1,0-0.2,0-0.3,0c-0.6,0-1.2,0-1.7-0.1
		c-0.3,0-0.5-0.2-0.8-0.3c-0.4-0.1-0.7-0.3-1.1-0.4c-0.3-0.1-0.7-0.2-1-0.2c-0.7-0.1-1.3-0.3-1.9-0.7c-0.8-0.5-1.7-1-2.6-1.3
		c-0.6-0.2-1.2-0.6-1.7-0.8c-0.4-0.2-0.9-0.3-1.4-0.4c-0.6-0.2-1.2-0.3-1.8-0.5c-0.6-0.1-1.1,0.1-1.6,0.4c-0.3,0.1-0.5,0.4-0.6,0.7
		c-0.3,0.6-0.5,1.3-0.6,2c-0.1,0.5-0.5,0.9-0.9,1.1c-0.3,0.2-0.7,0.1-0.9-0.3c-0.3-0.5-0.5-1.1-0.5-1.7c0-0.7,0-1.4,0.2-2.2
		c0.1-0.5,0.4-0.8,0.8-1.1c0.4-0.2,0.8-0.4,1.3-0.5c0.3-0.1,0.7-0.3,1.1-0.1c0.1,0,0.2,0,0.2,0c0.3-0.1,0.6-0.1,0.7-0.4
		c0.1-0.3-0.1-0.6-0.3-0.9c-0.1-0.1-0.1-0.2-0.2-0.2c-0.5-0.6-1.2-1.1-1.4-1.9c0-0.1-0.1-0.1-0.1-0.2c-1-1.5-1.8-3.2-2.5-4.8
		c-0.1-0.2-0.1-0.3-0.2-0.5c-0.2-0.8-0.3-1.7-0.6-2.5c-0.2-0.6-0.4-1.2-0.7-1.8c-0.2-0.4-0.3-0.4-0.8-0.3c-0.1,0-0.2,0.1-0.4,0.1
		c-0.5,0.1-1,0.2-1.6-0.1c-0.3-0.2-0.7-0.2-1.1-0.2c-0.4-0.1-0.8-0.2-1.1-0.6c-0.2-0.3-0.4-0.4-0.8-0.2c-0.6,0.3-1.2,0.3-1.8,0.2
		c-0.2,0-0.5,0-0.7,0.1c-0.2,0-0.5,0.1-0.7,0.2c-0.4,0.1-0.9,0.1-1.2-0.4C63.5,336.5,63.3,336.4,63.2,336.3"/>
	<path clip-path="url(#SVGID_2_)" fill="#231F20" d="M65,317.6c0.6-0.5,1.1-0.9,1.6-1.3c0.1-0.1,0.2-0.3,0.3-0.5
		c0.2-0.4,0.3-0.8,0.4-1.2c0.1-0.2,0.1-0.4,0-0.6c-0.3-0.8-0.8-1.6-1.3-2.3c-0.4-0.5-0.9-0.6-1.4-0.7c-0.4,0-0.8,0.3-1.1,0.6
		c-0.3,0.4-0.7,0.7-1,1.1c-0.1,0.1-0.1,0.1-0.2,0.2c-0.6,0.4-1.4,0-1.4-0.7c0-1,0.1-2.1,0.7-2.9c0.7-1,1.7-1.5,2.9-1.3
		c0.7,0.1,1.3,0.3,1.9,0.5c1.5,0.6,2.4,1.7,2.7,3.3c0,0,0,0.1,0,0.1c0.3,0.8,0.1,1.6-0.2,2.4c-0.1,0.2-0.1,0.5-0.1,0.8
		c-0.1,1.1-0.5,2-1.4,2.7c-0.4,0.3-0.7,0.6-1.1,0.9c-0.5,0.4-1,0.6-1.7,0.7c-0.1,0-0.2,0-0.3,0.1c-0.8,0.4-1.6,0.3-2.4,0.2
		c-1.4-0.1-2.6-0.7-3.9-1c-0.1,0-0.3-0.1-0.4-0.2c-0.4-0.4-0.7-0.7-1.1-1.1c-0.3-0.3-0.5-0.3-0.6,0.1c-0.1,0.4-0.1,0.8-0.1,1.2
		c0,0.4,0,0.8,0.1,1.2c0.1,0.6-0.1,1-0.3,1.5c-0.3,0.4-0.4,0.9-0.7,1.4c-0.3,0.7-0.6,1.3-1.4,1.5c-0.2,0-0.3,0.1-0.4,0.3
		c-0.5,0.6-1.1,0.9-1.8,1c-0.6,0.2-1.2,0.3-1.8,0.3c-0.9,0.1-1.9-0.7-1.9-1.6c0-0.5,0.3-0.8,0.6-1.1c0.3-0.2,0.7-0.3,1-0.4
		c0.1,0,0.3,0,0.3,0.1c0.7,0.7,1.5,0.5,2.3,0.6c0.2,0,0.4-0.2,0.5-0.3c0.5-0.9,1-1.7,1.4-2.7c0.6-1.7,0.7-3.4,0.2-5.2
		c-0.1-0.5-0.2-1.1-0.2-1.6c0-0.6,0-1.3,0-1.9c0-0.7,0.2-1.4,0.7-2c0.2-0.2,0.1-0.3,0.1-0.5c-0.1-0.4-0.3-0.9-0.1-1.4
		c0.1-0.5,0.6-0.9,1-0.9c0.5,0,0.7,0.2,0.7,0.7c0,0.6-0.1,1.3-0.5,1.7c-0.4,0.4-0.4,0.8-0.3,1.3c0.2,0.4,0.2,0.8,0.2,1.2
		c0,0.1,0,0.3,0.1,0.4c0.1,0.4,0.2,0.9,0.3,1.3c0.2,0.6,0.4,1.1,0.9,1.6c0.8,0.8,1.6,1.4,2.6,1.8c0.3,0.1,0.5,0.3,0.8,0.4
		c1.2,0.7,2.5,0.8,3.7,0.6C64.1,318,64.6,317.8,65,317.6"/>
	<path clip-path="url(#SVGID_2_)" fill="#231F20" d="M70.3,347.7c0.3,0.6,0.6,1.1,0.9,1.7c0.3,0.6,0.1,1.2,0.2,1.7
		c0,0.4,0,0.8,0.1,1.2c0.1,0.5,0.1,1.1-0.1,1.6c-0.4,0.9-0.9,1.7-1.5,2.5c-0.5,0.6-1,1.2-1.7,1.6c-1.1,0.7-2.2,1.4-3.5,1.7
		c-1.8,0.5-3.6,0.2-5.4-0.4c-0.3-0.1-0.5-0.3-0.7-0.5c-0.6-0.5-1.1-0.9-1.7-1.4c-0.2-0.2-0.5-0.4-0.7-0.6c-0.1-0.1-0.3-0.3-0.4-0.4
		c-0.7-0.4-1.1-1-1.6-1.6c-0.7-0.8-1.1-1.9-1.4-2.9c-0.1-0.3-0.2-0.5-0.4-0.8c-0.3-0.4-0.3-0.9-0.2-1.4c0.1-0.2,0.2-0.4,0.3-0.5
		c0.3-0.3,0.7-0.3,0.9,0.2c0.1,0.2,0.1,0.4,0.2,0.6c0.3,1.1,0.9,2.2,1.5,3.2c0.8,1.1,1.7,2.1,2.7,3.1c0.1,0.1,0.1,0.1,0.2,0.2
		c1,0.5,1.9,1.2,3,1.4c1.2,0.2,2.4,0.4,3.6-0.1c0.4-0.2,0.9-0.2,1.3-0.4c1-0.3,1.8-0.9,2.5-1.8c0.9-1,1.1-2.3,1.4-3.6
		c0-0.1,0-0.2,0-0.3c-0.1-0.7-0.2-1.4-0.4-2.1c-0.1-0.5-0.4-0.9-0.7-1.3c-0.3-0.5-0.8-0.9-1.2-1.3c-0.1-0.1-0.3-0.2-0.4-0.3
		c-1.1-0.3-2.1-0.4-3.2,0c-0.3,0.1-0.6,0.3-0.7,0.7c0,0.1-0.1,0.2-0.1,0.3c-0.4,0.5-0.4,1-0.3,1.6c0.2,1.2,0.5,1.3,1.5,1.7
		c0.6,0.3,1,0.6,1,1.1c0,0.6-0.3,1.1-1,1.3c-0.9,0.3-1.7,0.1-2.5-0.3c-0.4-0.2-0.7-0.7-1.1-1.1c-0.7-0.8-0.9-1.9-1-2.9
		c-0.1-0.6,0.2-1.2,0.6-1.7c0.1-0.1,0.2-0.2,0.2-0.3c0.6-1.2,1.7-1.7,2.8-2c0.7-0.2,1.5-0.3,2.2-0.1c0.3,0.1,0.6,0,0.9,0
		c0.3,0,0.6,0.1,0.9,0.3c0.4,0.4,0.9,0.6,1.4,0.8c0.6,0.2,1,0.7,1.3,1.2C70.1,347.3,70.2,347.5,70.3,347.7
		C70.3,347.7,70.3,347.7,70.3,347.7"/>
	<path clip-path="url(#SVGID_2_)" fill="#231F20" d="M55.8,297.2c0.2,0.6,0.6,1,1.1,1.3c0.3,0.2,0.5,0.5,0.8,0.7
		c0.1,0.1,0.2,0.3,0.4,0.3c0.6,0.1,1.3,0.2,1.9,0.3c0.6,0.1,1.3,0.2,1.9,0.4c0.2,0,0.3,0.2,0.5,0.3c0.3,0.2,0.3,0.4,0,0.6
		c-0.3,0.3-0.6,0.7-1.1,0.8c-0.2,0-0.4,0.1-0.5,0.2c-0.9,0.2-1.6,0.8-2.1,1.6c-0.1,0.2-0.4,0.4-0.6,0.6c-0.2,0.2-0.4,0.2-0.7,0.1
		c-0.3-0.1-0.4-0.4-0.4-0.7c0-0.4,0.1-0.7,0.4-0.9c0.3-0.3,0.6-0.5,0.8-0.8c0.2-0.3,0.2-0.5-0.1-0.7c-0.3-0.2-0.6-0.3-0.9-0.5
		c-0.4-0.2-0.7-0.3-1.1-0.4c-0.2-0.1-0.5-0.3-0.7-0.6c-0.5-0.6-0.9-1.3-1.3-1.9c-0.2-0.3-0.3-0.6-0.4-1c-0.3-1-0.5-2.1-0.4-3.2
		c0-0.2,0.1-0.4,0.2-0.5c0.8-1.1,1.8-2,2.8-2.9c0.4-0.4,1-0.4,1.5-0.4c0.4,0,0.9,0.1,1.3,0.2c1,0.2,1.5,1.1,1.9,1.9
		c0.3,0.6,0.5,1.2,0.4,1.9c-0.1,0.6-0.4,0.9-0.8,1.1c-0.3,0.2-0.5,0.1-0.7-0.1c-0.3-0.3-0.5-0.7-0.8-1c0,0,0-0.1-0.1-0.1
		c-0.6-0.4-1.1-0.9-1.9-0.7c-0.7,0.1-1.2,0.5-1.4,1.2c-0.1,0.4-0.3,0.7-0.4,1.2c-0.1,0.5-0.1,0.9,0.3,1.3
		C55.7,297.1,55.8,297.2,55.8,297.2"/>
	<path clip-path="url(#SVGID_2_)" fill="#231F20" d="M77,304.2c-0.1,0.3-0.1,0.6-0.2,0.9c-0.2,0.4-0.2,0.7,0,1
		c0.3,0.6,0.4,1.3,0.2,2c-0.1,0.5-0.4,0.8-0.7,0.8c-0.4,0-0.7-0.2-0.9-0.7c-0.2-0.6-0.4-1.1-0.7-1.7c-0.4-0.7-0.9-1.4-1.3-2.1
		c-0.1-0.2-0.4-0.3-0.6-0.5c-0.8-0.6-1.7-0.8-2.6-1.2c-0.5-0.2-0.9-0.3-1.2-0.7c-0.2-0.2-0.5-0.3-0.8-0.4c-0.8-0.1-1.6-0.1-2.4-0.2
		c-0.6-0.1-1.2-0.4-1.8-0.6c-0.2-0.1-0.4-0.3-0.4-0.6c0.1-0.3,0.2-0.5,0.6-0.5c1.1-0.1,2.3-0.2,3.4,0.1c0.2,0,0.3,0.1,0.5,0.2
		c0.4,0.2,0.8,0.4,1.2,0.3c0.1,0,0.3,0,0.5,0c0.6,0.3,1.2,0.5,1.7,0.8c0.4,0.2,0.9,0.4,1.3,0.7c0.2,0.1,0.4,0.2,0.6,0.4
		c0.7,0.7,1.5,1.2,2.3,1.7c0.2,0.1,0.4,0.1,0.7,0.1C76.4,304.2,76.7,304.2,77,304.2"/>
	<path clip-path="url(#SVGID_2_)" fill="#231F20" d="M77.2,303.7c-0.7-0.8-0.6-1.5-0.2-2.3c0.5-0.7,1-1.3,1.8-1.8
		c0.4-0.2,0.8-0.4,1.3-0.4c0.6,0,1.1-0.1,1.7,0c0.9,0.3,1.6,0.9,2.1,1.6c0.2,0.3,0.4,0.6,0.5,0.9c0.1,0.3,0.2,0.6,0.2,0.9
		c0,0.9-0.8,1.6-1.7,1.4c-0.1,0-0.2-0.2-0.3-0.3c-0.4-0.4-0.8-0.9-1.3-1.3c-0.5-0.4-1.1-0.5-1.7-0.3c-0.6,0.2-1.2,0.6-1.7,1
		C77.7,303.4,77.5,303.6,77.2,303.7"/>
	<path clip-path="url(#SVGID_2_)" fill="#231F20" d="M76.5,313.3c-0.3-0.6,0-1.3,0.5-1.4c0.3-0.1,0.5,0.1,0.6,0.3
		c0.1,0.3,0.2,0.6,0.2,0.9c0,0.5-0.4,0.7-0.8,0.5C76.8,313.5,76.7,313.4,76.5,313.3"/>
	<path clip-path="url(#SVGID_2_)" fill="#231F20" d="M49.7,322.3c-0.1,0-0.3,0-0.4-0.1c-0.1-0.1,0.1-0.6,0.3-0.7
		c0.1,0,0.3,0,0.4,0.1C50.2,321.8,50.1,322.1,49.7,322.3"/>
</g>
<line fill="none" stroke="#231F20" stroke-width="0.5" x1="304.1" y1="428.1" x2="304.1" y2="507.9"/>
<g>
	<path fill="#231F20" d="M246.6,553.2c-0.1-1.6-1-2.1-1.7-2.1c-1.1,0-1.6,0.7-1.6,1.9c0,3.2,6.7,4.8,6.7,10c0,3.1-2.1,4.9-5.2,4.9
		c-3,0-4.8-2.4-4.9-5.3l3.1-0.4c0.1,1.9,0.9,2.9,2,2.9c1.1,0,1.9-0.6,1.9-1.7c0-3.8-6.7-4.8-6.7-10.2c0-3,1.8-4.8,5.1-4.8
		c2.7,0,4.3,1.9,4.5,4.6L246.6,553.2z"/>
	<path fill="#231F20" d="M253,567.6v-19.1h8.8v2.9h-5.5v4.9h4.2v2.9h-4.2v5.6h5.9v2.9H253z"/>
	<path fill="#231F20" d="M268.7,567.6h-3.3v-19.1h4.6c3.7,0,5.5,1.6,5.5,5.6c0,3.1-1.2,4.3-2.3,4.8l2.8,8.6h-3.3l-2.3-7.9
		c-0.4,0.1-1.1,0.1-1.7,0.1V567.6z M268.7,557.1h1.2c1.8,0,2.4-0.7,2.4-2.9s-0.7-2.9-2.4-2.9h-1.2V557.1z"/>
	<path fill="#231F20" d="M285.9,548.5h3.2l-4,19.1h-3.3l-4-19.1h3.2l2.4,13.2h0.1L285.9,548.5z"/>
	<path fill="#231F20" d="M291.6,567.6v-19.1h8.8v2.9h-5.5v4.9h4.2v2.9h-4.2v5.6h5.9v2.9H291.6z"/>
	<path fill="#231F20" d="M304,548.5h4.9c3.4,0,5.2,1.8,5.2,5.8v7.5c0,3.9-1.8,5.8-5.2,5.8H304V548.5z M307.2,564.9h1.1
		c1.7,0,2.3-0.7,2.3-2.7v-8.3c0-2-0.6-2.7-2.3-2.7h-1.1V564.9z"/>
	<path fill="#231F20" d="M330,548.5h2.7l2.2,12.1h0.1l1.8-12.1h3.1l-3.4,19.1h-2.7l-2.4-12.6h-0.1l-2.2,12.6h-2.7l-3.6-19.1h3.1
		l2,12.1h0.1L330,548.5z"/>
	<path fill="#231F20" d="M343.1,567.6v-19.1h3.3v19.1H343.1z"/>
	<path fill="#231F20" d="M352.5,551.4h-3.2v-2.9h9.6v2.9h-3.2v16.2h-3.3V551.4z"/>
	<path fill="#231F20" d="M361.5,567.6v-19.1h3.3v7.8h3.5v-7.8h3.3v19.1h-3.3v-8.4h-3.5v8.4H361.5z"/>
</g>
<g>
	<path fill="#231F20" d="M49.4,629.6c-0.1-0.5-0.3-1.2-0.5-1.5c-0.9,1.1-2.5,2-3.9,2c-3.7,0-6.7-3.1-6.7-6.9c0-3.8,3-6.9,6.7-6.9
		c1.4,0,3,0.8,3.9,2c0.2-0.2,0.4-1,0.5-1.5H50v5.1h-0.6c-0.6-2.8-2.1-4.5-4.4-4.5c-3.3,0-4.3,3.3-4.3,5.8c0,2.5,1,5.8,4.3,5.8
		c2.3,0,3.9-1.8,4.4-4.5H50v5.2H49.4z"/>
	<path fill="#231F20" d="M65.2,622.2v-1.5c0-3-0.4-3.4-2.3-3.4v-0.6h6.8v0.6c-2,0-2.3,0.5-2.3,3.4v4.8c0,3,0.4,3.5,2.3,3.5v0.6h-6.8
		V629c2,0,2.3-0.5,2.3-3.5v-2.2h-6.7v2.2c0,3,0.4,3.5,2.3,3.5v0.6H54V629c2,0,2.3-0.5,2.3-3.5v-4.8c0-3-0.4-3.4-2.3-3.4v-0.6h6.8
		v0.6c-2,0-2.3,0.5-2.3,3.4v1.5H65.2z"/>
	<path fill="#231F20" d="M80.8,630.1c-4,0-7.2-3.1-7.2-6.9c0-3.8,3.3-6.9,7.2-6.9c4,0,7.2,3.1,7.2,6.9C88,627,84.7,630.1,80.8,630.1
		z M80.8,617.3c-3.5,0-4.8,3.2-4.8,5.8c0,2.6,1.3,5.8,4.8,5.8c3.5,0,4.8-3.2,4.8-5.8C85.6,620.6,84.3,617.3,80.8,617.3z"/>
	<path fill="#231F20" d="M98.6,629v0.6h-6.8V629c2,0,2.3-0.5,2.3-3.5v-4.8c0-3-0.4-3.4-2.3-3.4v-0.6h6.1c3.1,0,4.8,1.6,4.8,3.7
		c0,2-1.7,3.7-4.8,3.7h-1.7v1.5C96.2,628.5,96.6,629,98.6,629z M97.9,617.8h-1.7v5.2h1.7c1.7,0,2.4-1.2,2.4-2.6
		C100.4,619,99.6,617.8,97.9,617.8z"/>
	<path fill="#231F20" d="M112.2,629v0.6h-6.8V629c2,0,2.3-0.5,2.3-3.5v-4.8c0-3-0.4-3.4-2.3-3.4v-0.6h6.1c3.1,0,4.8,1.6,4.8,3.7
		c0,2-1.7,3.7-4.8,3.7h-1.7v1.5C109.8,628.5,110.2,629,112.2,629z M111.5,617.8h-1.7v5.2h1.7c1.7,0,2.4-1.2,2.4-2.6
		C113.9,619,113.2,617.8,111.5,617.8z"/>
	<path fill="#231F20" d="M129.6,626.6l0.1-0.6h0.6l-0.2,3.6H119V629c2,0,2.3-0.5,2.3-3.5v-4.8c0-3-0.4-3.4-2.3-3.4v-0.6h6.6h3.8
		l0.2,3.6H129l-0.1-0.6c-0.3-1.4-0.7-1.9-3.4-1.9h-2v4.4h0.2c3,0,3.2-0.4,3.2-2.3h0.6v5.8h-0.6c0-2-0.2-2.3-3.2-2.3h-0.2v1.7
		c0,3,0.4,3.4,2.3,3.4h0.4C128.8,628.5,129.2,628,129.6,626.6z"/>
	<path fill="#231F20" d="M133.8,629c2,0,2.3-0.5,2.3-3.5v-4.8c0-3-0.4-3.4-2.3-3.4v-0.6h6.3c5,0,7.2,2.9,7.2,6.4
		c0,3.5-2.2,6.4-7.2,6.4h-6.3V629z M140.2,617.8c-0.2,0-1.4,0-1.9,0v8.4c0,1.9,0.2,2.3,1.7,2.3h0.2c3.9,0,4.7-3,4.7-5.3
		C144.9,620.8,144.1,617.8,140.2,617.8z"/>
	<path fill="#231F20" d="M169.3,626.6l0.1-0.6h0.6l-0.2,3.6h-11.1V629c2,0,2.3-0.5,2.3-3.5v-4.8c0-3-0.4-3.4-2.3-3.4v-0.6h6.6h3.8
		l0.2,3.6h-0.6l-0.1-0.6c-0.3-1.4-0.7-1.9-3.4-1.9h-2v4.4h0.2c3,0,3.2-0.4,3.2-2.3h0.6v5.8h-0.6c0-2-0.2-2.3-3.2-2.3h-0.2v1.7
		c0,3,0.4,3.4,2.3,3.4h0.4C168.6,628.5,169,628,169.3,626.6z"/>
	<path fill="#231F20" d="M180.6,630.1c-3.7,0-6.7-3.1-6.7-6.9c0-3.8,3-6.9,6.7-6.9c1.4,0,3,0.8,3.9,2c0.2-0.2,0.4-1,0.5-1.5h0.6v5.1
		h-0.6c-0.6-2.8-2.1-4.5-4.4-4.5c-3.3,0-4.4,3.3-4.4,5.8c0,2.5,1,5.8,4.4,5.8c1.5,0,3.8-0.9,3.8-2.5c0-1.2-1.1-1.8-2.6-1.8V624h6.6
		v0.6c-2,0-2.3,0.5-2.3,3.5c0,0,0,0.6,0,0.9C184.2,629,182.4,630.1,180.6,630.1z"/>
	<path fill="#231F20" d="M197.9,630.1c-3.7,0-6.7-3.1-6.7-6.9c0-3.8,3-6.9,6.7-6.9c1.4,0,3,0.8,3.9,2c0.2-0.2,0.4-1,0.5-1.5h0.6v5.1
		h-0.6c-0.6-2.8-2.1-4.5-4.4-4.5c-3.3,0-4.4,3.3-4.4,5.8c0,2.5,1,5.8,4.4,5.8c1.5,0,3.8-0.9,3.8-2.5c0-1.2-1.1-1.8-2.6-1.8V624h6.6
		v0.6c-2,0-2.3,0.5-2.3,3.5c0,0,0,0.6,0,0.9C201.5,629,199.7,630.1,197.9,630.1z"/>
	<path fill="#231F20" d="M211.2,629.7c-0.8,0-1.4-0.7-1.4-1.5c0-0.8,0.6-1.4,1.4-1.4s1.6,0.6,1.6,1.9c0,1.3-0.9,3.3-2.7,4.5
		l-0.3-0.4c1.1-1.2,1.5-2,1.7-3.1C211.4,629.7,211.2,629.7,211.2,629.7z"/>
	<path fill="#231F20" d="M235.1,626.2c1.2,1.4,2.6,2.6,4,2.8v0.6h-3.8l-4-5.5h-0.8v1.5c0,3,0.4,3.5,2.3,3.5v0.6h-6.8V629
		c2,0,2.3-0.5,2.3-3.5v-4.8c0-3-0.4-3.4-2.3-3.4v-0.6h6.1c3.1,0,4.8,1.6,4.8,3.7c0,1.8-1.4,3.3-3.6,3.6L235.1,626.2z M232.1,617.8
		h-1.7v5.2h1.7c1.7,0,2.4-1.2,2.4-2.6C234.5,619,233.7,617.8,232.1,617.8z"/>
	<path fill="#231F20" d="M251.7,626.6l0.1-0.6h0.6l-0.2,3.6h-11.1V629c2,0,2.3-0.5,2.3-3.5v-4.8c0-3-0.4-3.4-2.3-3.4v-0.6h6.6h3.8
		l0.2,3.6h-0.6l-0.1-0.6c-0.3-1.4-0.7-1.9-3.4-1.9h-2v4.4h0.2c3,0,3.2-0.4,3.2-2.3h0.6v5.8h-0.6c0-2-0.2-2.3-3.2-2.3h-0.2v1.7
		c0,3,0.4,3.4,2.3,3.4h0.4C250.9,628.5,251.3,628,251.7,626.6z"/>
	<path fill="#231F20" d="M255.9,629c2,0,2.3-0.5,2.3-3.5v-4.8c0-3-0.4-3.4-2.3-3.4v-0.6h6.3c5,0,7.2,2.9,7.2,6.4
		c0,3.5-2.2,6.4-7.2,6.4h-6.3V629z M262.3,617.8c-0.2,0-1.4,0-1.9,0v8.4c0,1.9,0.2,2.3,1.7,2.3h0.2c3.9,0,4.7-3,4.7-5.3
		C267,620.8,266.2,617.8,262.3,617.8z"/>
	<path fill="#231F20" d="M288.4,630.1c-4,0-7.2-3.1-7.2-6.9c0-3.8,3.3-6.9,7.2-6.9c4,0,7.2,3.1,7.2,6.9
		C295.7,627,292.4,630.1,288.4,630.1z M288.4,617.3c-3.5,0-4.8,3.2-4.8,5.8c0,2.6,1.3,5.8,4.8,5.8c3.5,0,4.8-3.2,4.8-5.8
		C293.2,620.6,291.9,617.3,288.4,617.3z"/>
	<path fill="#231F20" d="M299.5,617.3v-0.6h3.7l7.9,9.4v-5.3c0-3-0.4-3.4-2.3-3.4v-0.6h5.8v0.6c-2,0-2.3,0.5-2.3,3.4v9.3h-0.6
		l-8.6-10.4v5.8c0,3,0.4,3.5,2.3,3.5v0.6h-5.8V629c2,0,2.3-0.5,2.3-3.5v-4.8C301.8,617.8,301.5,617.3,299.5,617.3z"/>
	<path fill="#231F20" d="M318,629.6V629c2,0,2.3-0.5,2.3-3.5v-4.8c0-3-0.4-3.4-2.3-3.4v-0.6h6.8v0.6c-2,0-2.3,0.5-2.3,3.4v4.8
		c0,3,0.4,3.5,2.3,3.5v0.6H318z"/>
	<path fill="#231F20" d="M335.8,630.1c-4,0-7.2-3.1-7.2-6.9c0-3.8,3.3-6.9,7.2-6.9c4,0,7.2,3.1,7.2,6.9
		C343.1,627,339.8,630.1,335.8,630.1z M335.8,617.3c-3.5,0-4.8,3.2-4.8,5.8c0,2.6,1.3,5.8,4.8,5.8s4.8-3.2,4.8-5.8
		C340.6,620.6,339.3,617.3,335.8,617.3z"/>
	<path fill="#231F20" d="M346.9,617.3v-0.6h3.7l7.9,9.4v-5.3c0-3-0.4-3.4-2.3-3.4v-0.6h5.8v0.6c-2,0-2.3,0.5-2.3,3.4v9.3H359
		l-8.6-10.4v5.8c0,3,0.4,3.5,2.3,3.5v0.6h-5.8V629c2,0,2.3-0.5,2.3-3.5v-4.8C349.2,617.8,348.9,617.3,346.9,617.3z"/>
	<path fill="#231F20" d="M368.3,629.7c-0.8,0-1.4-0.7-1.4-1.5c0-0.8,0.6-1.4,1.4-1.4c0.8,0,1.6,0.6,1.6,1.9c0,1.3-0.9,3.3-2.7,4.5
		l-0.3-0.4c1.1-1.2,1.5-2,1.7-3.1C368.5,629.7,368.4,629.7,368.3,629.7z"/>
	<path fill="#231F20" d="M394.5,629.6c-0.1-0.5-0.3-1.2-0.5-1.5c-0.9,1.1-2.5,2-3.9,2c-3.7,0-6.7-3.1-6.7-6.9c0-3.8,3-6.9,6.7-6.9
		c1.4,0,3,0.8,3.9,2c0.2-0.2,0.4-1,0.5-1.5h0.6v5.1h-0.6c-0.6-2.8-2.1-4.5-4.4-4.5c-3.3,0-4.3,3.3-4.3,5.8c0,2.5,1,5.8,4.3,5.8
		c2.3,0,3.9-1.8,4.4-4.5h0.6v5.2H394.5z"/>
	<path fill="#231F20" d="M408.3,626.2c1.2,1.4,2.6,2.6,4,2.8v0.6h-3.8l-4-5.5h-0.8v1.5c0,3,0.4,3.5,2.3,3.5v0.6h-6.8V629
		c2,0,2.3-0.5,2.3-3.5v-4.8c0-3-0.4-3.4-2.3-3.4v-0.6h6.1c3.1,0,4.8,1.6,4.8,3.7c0,1.8-1.4,3.3-3.6,3.6L408.3,626.2z M405.3,617.8
		h-1.7v5.2h1.7c1.7,0,2.4-1.2,2.4-2.6C407.7,619,406.9,617.8,405.3,617.8z"/>
	<path fill="#231F20" d="M424.9,626.6l0.1-0.6h0.6l-0.2,3.6h-11.1V629c2,0,2.3-0.5,2.3-3.5v-4.8c0-3-0.4-3.4-2.3-3.4v-0.6h6.6h3.8
		l0.2,3.6h-0.6l-0.1-0.6c-0.3-1.4-0.7-1.9-3.4-1.9h-2v4.4h0.2c3,0,3.2-0.4,3.2-2.3h0.6v5.8h-0.6c0-2-0.2-2.3-3.2-2.3h-0.2v1.7
		c0,3,0.4,3.4,2.3,3.4h0.4C424.1,628.5,424.5,628,424.9,626.6z M421.9,614.5l-4.1-1.7c-0.2-0.1-0.7-0.4-0.7-0.9
		c0-0.4,0.3-0.9,0.8-0.9c0.5,0,0.8,0.2,1.3,0.7l2.8,2.6L421.9,614.5z"/>
	<path fill="#231F20" d="M432.6,625.5c0,3,0.4,3.5,2.3,3.5v0.6h-5.8V629c2,0,2.3-0.5,2.3-3.5v-4.8c0-3-0.4-3.4-2.3-3.4v-0.6h4.5
		l4.4,9.9l4.4-9.9h4.2v0.6c-2,0-2.4,0.5-2.4,3.4v4.8c0,3,0.4,3.5,2.4,3.5v0.6h-6.8V629c2,0,2.3-0.5,2.3-3.5V620l-4.5,10.1h-0.4
		l-4.6-10.5V625.5z"/>
	<path fill="#231F20" d="M460.6,626.6l0.1-0.6h0.6l-0.2,3.6H450V629c2,0,2.3-0.5,2.3-3.5v-4.8c0-3-0.4-3.4-2.3-3.4v-0.6h6.6h3.8
		l0.2,3.6H460l-0.1-0.6c-0.3-1.4-0.7-1.9-3.4-1.9h-2v4.4h0.2c3,0,3.2-0.4,3.2-2.3h0.6v5.8h-0.6c0-2-0.2-2.3-3.2-2.3h-0.2v1.7
		c0,3,0.4,3.4,2.3,3.4h0.4C459.8,628.5,460.2,628,460.6,626.6z"/>
	<path fill="#231F20" d="M479.3,629v0.6h-6.8V629c2,0,2.3-0.5,2.3-3.5v-4.8c0-3-0.4-3.4-2.3-3.4v-0.6h6.9h3.9l0.2,3.6h-0.6l-0.1-0.6
		c-0.4-1.4-0.7-1.9-3.4-1.9h-2.3v4.4h0.2c3,0,3.2-0.4,3.2-2.3h0.6v5.8h-0.6c0-2-0.2-2.3-3.2-2.3h-0.2v2.2
		C476.9,628.5,477.3,629,479.3,629z"/>
	<path fill="#231F20" d="M495.3,626.2c1.2,1.4,2.6,2.6,4,2.8v0.6h-3.8l-4-5.5h-0.8v1.5c0,3,0.4,3.5,2.3,3.5v0.6h-6.8V629
		c2,0,2.3-0.5,2.3-3.5v-4.8c0-3-0.4-3.4-2.3-3.4v-0.6h6.1c3.1,0,4.8,1.6,4.8,3.7c0,1.8-1.4,3.3-3.6,3.6L495.3,626.2z M492.3,617.8
		h-1.7v5.2h1.7c1.7,0,2.4-1.2,2.4-2.6C494.7,619,493.9,617.8,492.3,617.8z"/>
	<path fill="#231F20" d="M504,626.7c-0.7,1.8-0.7,2.3,1.6,2.3v0.6H500V629c1.8,0,2.1-0.4,3.1-2.6l4.4-10.2h0.4l4.4,10.2
		c1,2.2,1.3,2.6,2.9,2.6v0.6h-6.7V629c2.1,0,2.3-0.5,1.6-2.3l-0.6-1.4h-4.9L504,626.7z M507,619.7l-2,4.5h3.9L507,619.7z"/>
	<path fill="#231F20" d="M523.8,614.5l-3.2-2.2l-3.2,2.2l-0.4-0.3l3.5-3.8l3.5,3.8L523.8,614.5z M517.3,629.6V629
		c2,0,2.3-0.5,2.3-3.5v-4.8c0-3-0.4-3.4-2.3-3.4v-0.6h6.8v0.6c-2,0-2.3,0.5-2.3,3.4v4.8c0,3,0.4,3.5,2.3,3.5v0.6H517.3z"/>
	<path fill="#231F20" d="M539.1,629.6c-0.1-0.5-0.3-1.2-0.5-1.5c-0.9,1.1-2.5,2-3.9,2c-3.7,0-6.7-3.1-6.7-6.9c0-3.8,3-6.9,6.7-6.9
		c1.4,0,3,0.8,3.9,2c0.2-0.2,0.4-1,0.5-1.5h0.6v5.1H539c-0.6-2.8-2.1-4.5-4.4-4.5c-3.3,0-4.3,3.3-4.3,5.8c0,2.5,1,5.8,4.3,5.8
		c2.3,0,3.9-1.8,4.4-4.5h0.6v5.2H539.1z"/>
	<path fill="#231F20" d="M554.9,622.2v-1.5c0-3-0.4-3.4-2.3-3.4v-0.6h6.8v0.6c-2,0-2.3,0.5-2.3,3.4v4.8c0,3,0.4,3.5,2.3,3.5v0.6
		h-6.8V629c2,0,2.3-0.5,2.3-3.5v-2.2h-6.7v2.2c0,3,0.4,3.5,2.3,3.5v0.6h-6.8V629c2,0,2.3-0.5,2.3-3.5v-4.8c0-3-0.4-3.4-2.3-3.4v-0.6
		h6.8v0.6c-2,0-2.3,0.5-2.3,3.4v1.5H554.9z"/>
	<path fill="#231F20" d="M573.4,626.6l0.1-0.6h0.6l-0.2,3.6h-11.1V629c2,0,2.3-0.5,2.3-3.5v-4.8c0-3-0.4-3.4-2.3-3.4v-0.6h6.6h3.8
		l0.2,3.6h-0.6l-0.1-0.6c-0.3-1.4-0.7-1.9-3.4-1.9h-2v4.4h0.2c3,0,3.2-0.4,3.2-2.3h0.6v5.8h-0.6c0-2-0.2-2.3-3.2-2.3h-0.2v1.7
		c0,3,0.4,3.4,2.3,3.4h0.4C572.6,628.5,573,628,573.4,626.6z"/>
</g>
<g>
	<path fill="#231F20" d="M129.9,665.7c-2.8,0-5.8-1.6-5.8-5.2c0-2.4,1.5-3.7,3.4-4.9c-1-1.6-1.6-3.1-1.6-4.5c0-2.5,2.3-4.3,5-4.3
		c2.3,0,4.2,1.4,4.2,3.4c0,2.6-2.9,3.6-5.3,5.2c1.1,1.6,2.7,3.5,4.8,5.8c0.2-0.6,0.4-1.2,0.4-1.8c0.3-2.2-0.1-2.7-2.6-2.7v-0.6h6.7
		v0.6c-2.5,0-2.8,0.6-3.1,2.7c-0.1,1-0.3,1.8-0.7,2.6c1.2,1.3,2.5,2.4,3.6,2.4c0.5,0,1.2-0.3,1.9-1l0.5,0.5c-0.8,1.1-2,1.7-3,1.7
		c-1.6,0-2.8-0.9-3.9-2C133.3,665,131.9,665.7,129.9,665.7z M128.2,656.7c-1.1,1-2,2.1-2,4.1c0,1.9,1.6,3.8,3.9,3.8
		c1.5,0,2.7-0.6,3.5-1.6C131.5,660.7,129.6,658.6,128.2,656.7z M133.1,650.3c0-1.3-1-2.3-2.3-2.3c-1.9,0-2.8,1.5-2.8,2.6
		c0,1.4,0.4,2.6,1.2,3.9C131.2,653.4,133.1,652.3,133.1,650.3z"/>
	<path fill="#231F20" d="M162.6,657.8v-1.5c0-3-0.4-3.4-2.3-3.4v-0.6h6.8v0.6c-2,0-2.3,0.5-2.3,3.4v4.8c0,3,0.4,3.5,2.3,3.5v0.6
		h-6.8v-0.6c2,0,2.3-0.5,2.3-3.5v-2.2h-6.7v2.2c0,3,0.4,3.5,2.3,3.5v0.6h-6.8v-0.6c2,0,2.3-0.5,2.3-3.5v-4.8c0-3-0.4-3.4-2.3-3.4
		v-0.6h6.8v0.6c-2,0-2.3,0.5-2.3,3.4v1.5H162.6z"/>
	<path fill="#231F20" d="M178.1,665.7c-4,0-7.2-3.1-7.2-6.9c0-3.8,3.3-6.9,7.2-6.9c4,0,7.2,3.1,7.2,6.9
		C185.4,662.6,182.1,665.7,178.1,665.7z M178.1,653c-3.5,0-4.8,3.2-4.8,5.8c0,2.6,1.3,5.8,4.8,5.8c3.5,0,4.8-3.2,4.8-5.8
		C182.9,656.2,181.6,653,178.1,653z"/>
	<path fill="#231F20" d="M196.1,664.4c2.1,0,3.6-1.2,3.6-3.8v-4.2c0-3-0.4-3.4-2.3-3.4v-0.6h6.1v0.6c-2,0-2.3,0.5-2.3,3.4v4
		c0,3.5-2.4,5.3-5.3,5.3c-2.9,0-5.3-1.8-5.3-5.3v-4c0-3-0.4-3.4-2.3-3.4v-0.6h6.8v0.6c-2,0-2.3,0.5-2.3,3.4v4.2
		C192.6,663.2,194.1,664.4,196.1,664.4z"/>
	<path fill="#231F20" d="M211.3,665.7c-1.5,0-2.8-0.7-3.3-1.1c-0.2,0.2-0.5,0.6-0.6,1.1h-0.5v-5.1h0.6c0.2,2.5,1.8,3.9,4.1,3.9
		c1.3,0,2.3-0.7,2.3-2c0-1-0.8-1.8-2.4-2.6l-2-1c-1.4-0.7-2.5-2-2.5-3.6c0-1.9,1.6-3.4,3.7-3.4c1.2,0,2.2,0.4,2.8,0.9
		c0.1-0.2,0.4-0.4,0.4-0.9h0.6v5h-0.6c-0.2-1.8-1-3.9-3.1-3.9c-1.2,0-2.1,0.6-2.1,1.7c0,1,0.8,1.6,2.6,2.6l2,1
		c1.7,0.9,2.3,2.2,2.3,3.4C215.5,664.1,213.6,665.7,211.3,665.7z"/>
	<path fill="#231F20" d="M229.6,662.2l0.1-0.6h0.6l-0.2,3.6H219v-0.6c2,0,2.3-0.5,2.3-3.5v-4.8c0-3-0.4-3.4-2.3-3.4v-0.6h6.6h3.8
		l0.2,3.6H229l-0.1-0.6c-0.3-1.4-0.7-1.9-3.4-1.9h-2v4.4h0.2c3,0,3.2-0.4,3.2-2.3h0.6v5.8h-0.6c0-2-0.2-2.3-3.2-2.3h-0.2v1.7
		c0,3,0.4,3.4,2.3,3.4h0.4C228.8,664.1,229.2,663.6,229.6,662.2z"/>
	<path fill="#231F20" d="M244.9,661.1c0,3,0.4,3.5,2.3,3.5v0.6h-5.8v-0.6c2,0,2.3-0.5,2.3-3.5v-4.8c0-3-0.4-3.4-2.3-3.4v-0.6h4.5
		l4.4,9.9l4.4-9.9h4.2v0.6c-2,0-2.4,0.5-2.4,3.4v4.8c0,3,0.4,3.5,2.4,3.5v0.6h-6.8v-0.6c2,0,2.3-0.5,2.3-3.5v-5.6l-4.5,10.1h-0.4
		l-4.6-10.5V661.1z"/>
	<path fill="#231F20" d="M265.1,662.3c-0.7,1.8-0.7,2.3,1.6,2.3v0.6h-5.6v-0.6c1.8,0,2.1-0.4,3.1-2.6l4.4-10.2h0.4l4.4,10.2
		c1,2.2,1.3,2.6,2.9,2.6v0.6h-6.7v-0.6c2.1,0,2.3-0.5,1.6-2.3l-0.6-1.4h-4.9L265.1,662.3z M268.1,655.3l-2,4.5h3.9L268.1,655.3z"/>
	<path fill="#231F20" d="M278.3,664.6c2,0,2.3-0.5,2.3-3.5v-4.8c0-3-0.4-3.4-2.3-3.4v-0.6h6.3c5,0,7.2,2.9,7.2,6.4
		c0,3.5-2.2,6.4-7.2,6.4h-6.3V664.6z M284.7,653.4c-0.2,0-1.4,0-1.9,0v8.4c0,1.9,0.2,2.3,1.7,2.3h0.2c3.9,0,4.7-3,4.7-5.3
		C289.4,656.4,288.6,653.4,284.7,653.4z"/>
	<path fill="#231F20" d="M306.3,662.2l0.1-0.6h0.6l-0.2,3.6h-11.1v-0.6c2,0,2.3-0.5,2.3-3.5v-4.8c0-3-0.4-3.4-2.3-3.4v-0.6h6.6h3.8
		l0.2,3.6h-0.6l-0.1-0.6c-0.3-1.4-0.7-1.9-3.4-1.9h-2v4.4h0.2c3,0,3.2-0.4,3.2-2.3h0.6v5.8h-0.6c0-2-0.2-2.3-3.2-2.3h-0.2v1.7
		c0,3,0.4,3.4,2.3,3.4h0.4C305.5,664.1,305.9,663.6,306.3,662.2z"/>
	<path fill="#231F20" d="M325,664.6v0.6h-6.8v-0.6c2,0,2.3-0.5,2.3-3.5v-4.8c0-3-0.4-3.4-2.3-3.4v-0.6h6.1c3.1,0,4.8,1.6,4.8,3.7
		c0,2-1.7,3.7-4.8,3.7h-1.7v1.5C322.6,664.1,323,664.6,325,664.6z M324.3,653.4h-1.7v5.2h1.7c1.7,0,2.4-1.2,2.4-2.6
		C326.7,654.6,326,653.4,324.3,653.4z"/>
	<path fill="#231F20" d="M339.3,665.7c-4,0-7.2-3.1-7.2-6.9c0-3.8,3.3-6.9,7.2-6.9c4,0,7.2,3.1,7.2,6.9
		C346.6,662.6,343.3,665.7,339.3,665.7z M339.3,653c-3.5,0-4.8,3.2-4.8,5.8c0,2.6,1.3,5.8,4.8,5.8s4.8-3.2,4.8-5.8
		C344.1,656.2,342.8,653,339.3,653z"/>
	<path fill="#231F20" d="M353.2,653.5c-2.7,0-3,0.5-3.3,1.9l-0.1,0.6h-0.6l0.2-3.7h13.2l0.2,3.7h-0.6l-0.1-0.6
		c-0.4-1.4-0.7-1.9-3.4-1.9H357v7.6c0,3,0.4,3.5,2.4,3.5v0.6h-6.8v-0.6c2,0,2.4-0.5,2.4-3.5v-7.6H353.2z"/>
	<path fill="#231F20" d="M366.9,662.3c-0.7,1.8-0.7,2.3,1.6,2.3v0.6h-5.6v-0.6c1.8,0,2.1-0.4,3.1-2.6l4.4-10.2h0.4l4.4,10.2
		c1,2.2,1.3,2.6,2.9,2.6v0.6h-6.7v-0.6c2.1,0,2.3-0.5,1.6-2.3l-0.6-1.4h-4.9L366.9,662.3z M369.9,655.3l-2,4.5h3.9L369.9,655.3z"/>
	<path fill="#231F20" d="M382.3,653.5c-2.7,0-3,0.5-3.3,1.9l-0.1,0.6h-0.6l0.2-3.7h13.2l0.2,3.7h-0.6l-0.1-0.6
		c-0.4-1.4-0.7-1.9-3.4-1.9h-1.5v7.6c0,3,0.4,3.5,2.4,3.5v0.6h-6.8v-0.6c2,0,2.4-0.5,2.4-3.5v-7.6H382.3z"/>
	<path fill="#231F20" d="M401.6,665.7c-4,0-7.2-3.1-7.2-6.9c0-3.8,3.3-6.9,7.2-6.9c4,0,7.2,3.1,7.2,6.9
		C408.8,662.6,405.5,665.7,401.6,665.7z M401.6,653c-3.5,0-4.8,3.2-4.8,5.8c0,2.6,1.3,5.8,4.8,5.8s4.8-3.2,4.8-5.8
		C406.4,656.2,405.1,653,401.6,653z"/>
	<path fill="#231F20" d="M431.8,665.2c-0.1-0.5-0.3-1.2-0.5-1.5c-0.9,1.1-2.5,2-3.9,2c-3.7,0-6.7-3.1-6.7-6.9c0-3.8,3-6.9,6.7-6.9
		c1.4,0,3,0.8,3.9,2c0.2-0.2,0.4-1,0.5-1.5h0.6v5.1h-0.6c-0.6-2.8-2.1-4.5-4.4-4.5c-3.3,0-4.3,3.3-4.3,5.8c0,2.5,1,5.8,4.3,5.8
		c2.3,0,3.9-1.8,4.4-4.5h0.6v5.2H431.8z"/>
	<path fill="#231F20" d="M447.6,657.8v-1.5c0-3-0.4-3.4-2.3-3.4v-0.6h6.8v0.6c-2,0-2.3,0.5-2.3,3.4v4.8c0,3,0.4,3.5,2.3,3.5v0.6
		h-6.8v-0.6c2,0,2.3-0.5,2.3-3.5v-2.2h-6.7v2.2c0,3,0.4,3.5,2.3,3.5v0.6h-6.8v-0.6c2,0,2.3-0.5,2.3-3.5v-4.8c0-3-0.4-3.4-2.3-3.4
		v-0.6h6.8v0.6c-2,0-2.3,0.5-2.3,3.4v1.5H447.6z"/>
	<path fill="#231F20" d="M455.5,665.2v-0.6c2,0,2.3-0.5,2.3-3.5v-4.8c0-3-0.4-3.4-2.3-3.4v-0.6h6.8v0.6c-2,0-2.3,0.5-2.3,3.4v4.8
		c0,3,0.4,3.5,2.3,3.5v0.6H455.5z"/>
	<path fill="#231F20" d="M472.6,664.6v0.6h-6.8v-0.6c2,0,2.3-0.5,2.3-3.5v-4.8c0-3-0.4-3.4-2.3-3.4v-0.6h6.1c3.1,0,4.8,1.6,4.8,3.7
		c0,2-1.7,3.7-4.8,3.7h-1.7v1.5C470.2,664.1,470.6,664.6,472.6,664.6z M471.9,653.4h-1.7v5.2h1.7c1.7,0,2.4-1.2,2.4-2.6
		C474.4,654.6,473.6,653.4,471.9,653.4z"/>
	<path fill="#231F20" d="M484.3,665.7c-1.5,0-2.8-0.7-3.3-1.1c-0.2,0.2-0.5,0.6-0.6,1.1h-0.5v-5.1h0.6c0.2,2.5,1.8,3.9,4.1,3.9
		c1.3,0,2.3-0.7,2.3-2c0-1-0.8-1.8-2.4-2.6l-2-1c-1.4-0.7-2.5-2-2.5-3.6c0-1.9,1.6-3.4,3.7-3.4c1.2,0,2.2,0.4,2.8,0.9
		c0.1-0.2,0.4-0.4,0.4-0.9h0.6v5h-0.6c-0.2-1.8-1-3.9-3.1-3.9c-1.2,0-2.1,0.6-2.1,1.7c0,1,0.8,1.6,2.6,2.6l2,1
		c1.7,0.9,2.3,2.2,2.3,3.4C488.5,664.1,486.6,665.7,484.3,665.7z"/>
</g>
</svg>
