<?xml version="1.0" encoding="utf-8"?>
<!-- Generator: Adobe Illustrator 16.0.0, SVG Export Plug-In . SVG Version: 6.00 Build 0)  -->
<!DOCTYPE svg PUBLIC "-//W3C//DTD SVG 1.1//EN" "http://www.w3.org/Graphics/SVG/1.1/DTD/svg11.dtd">
<svg version="1.1" id="Layer_1" xmlns="http://www.w3.org/2000/svg" xmlns:xlink="http://www.w3.org/1999/xlink" x="0px" y="0px"
	 width="779.899px" height="111px" viewBox="0 0 779.899 111" enable-background="new 0 0 779.899 111" xml:space="preserve">
<g>
	<g>
		<path d="M286.183,10.102V8.75c0-1.473-0.677-2.101-1.449-2.101c-1.208,0-1.594,0.628-1.594,1.931v8.837
			c0,1.306,0.386,1.932,1.594,1.932c1.086,0,1.449-0.626,1.449-1.762v-2.101h2.994v2.004c0,2.463-1.449,4.467-4.443,4.467
			c-3.14,0-4.588-2.004-4.588-4.467V8.507c0-2.462,1.448-4.467,4.588-4.467c2.994,0,4.443,2.173,4.443,4.78v1.282H286.183z"/>
		<path d="M293.423,21.715V4.28h2.996v7.101h3.186V4.28h2.996v17.435h-2.996V13.99h-3.186v7.725H293.423z"/>
		<path d="M308.419,21.715h-2.898l3.211-17.435h3.719l3.211,17.435h-2.896l-0.531-3.862h-3.283L308.419,21.715z M309.383,15.246
			h2.415l-1.186-7.487h-0.047L309.383,15.246z"/>
		<path d="M321.601,21.715h-2.994V4.28h4.201c3.355,0,5.07,1.428,5.07,5.144c0,2.802-1.086,3.936-2.1,4.394l2.535,7.896h-3.043
			l-2.125-7.219c-0.388,0.047-1.014,0.073-1.545,0.073L321.601,21.715L321.601,21.715z M321.601,12.106h1.062
			c1.617,0,2.221-0.604,2.221-2.682c0-2.075-0.604-2.679-2.221-2.679h-1.062V12.106z"/>
		<path d="M337.899,10.102V8.75c0-1.473-0.677-2.101-1.449-2.101c-1.209,0-1.595,0.628-1.595,1.931v8.837
			c0,1.306,0.386,1.932,1.595,1.932c1.084,0,1.449-0.626,1.449-1.762v-2.101h2.992v2.004c0,2.463-1.449,4.467-4.441,4.467
			c-3.141,0-4.59-2.004-4.59-4.467V8.507c0-2.462,1.449-4.467,4.59-4.467c2.992,0,4.441,2.173,4.441,4.78v1.282H337.899z"/>
		<path d="M345.14,4.28h2.994v13.161c0,1.282,0.508,1.908,1.594,1.908c1.088,0,1.594-0.626,1.594-1.908V4.28h2.994v13.041
			c0,2.994-1.737,4.636-4.588,4.636c-2.85,0-4.588-1.642-4.588-4.636V4.28L345.14,4.28z"/>
		<path d="M360.156,6.891h-2.896V4.28h8.79v2.61h-2.898v14.824h-2.995L360.156,6.891L360.156,6.891z"/>
		<path d="M369.018,21.715V4.28h8.017v2.61h-5.021v4.491h3.864v2.609h-3.864v5.119h5.361v2.605L369.018,21.715L369.018,21.715z"/>
		<path d="M383.94,21.715h-2.997V4.28h4.202c3.356,0,5.07,1.428,5.07,5.144c0,2.802-1.086,3.936-2.1,4.394l2.536,7.896h-3.042
			l-2.127-7.219c-0.386,0.047-1.014,0.073-1.543,0.073L383.94,21.715L383.94,21.715z M383.94,12.106h1.061
			c1.619,0,2.223-0.604,2.223-2.682c0-2.075-0.604-2.679-2.223-2.679h-1.061V12.106z"/>
		<path d="M394.631,21.715V4.28h2.994v17.435H394.631z"/>
		<path d="M402.12,21.715V4.28h8.016v2.61h-5.02v4.491h3.859v2.609h-3.859v5.119h5.359v2.605L402.12,21.715L402.12,21.715z"/>
		<path d="M420.586,21.715V4.28h4.297c3.697,0,5.412,1.428,5.412,5.144c0,3.719-1.715,5.144-5.412,5.144h-1.301v7.146
			L420.586,21.715L420.586,21.715z M423.583,12.106h1.158c1.955,0,2.559-0.604,2.559-2.682c0-2.075-0.604-2.679-2.559-2.679h-1.158
			V12.106z"/>
		<path d="M433.723,21.715V4.28h2.994v14.829h4.709v2.605L433.723,21.715L433.723,21.715z"/>
		<path d="M446.204,21.715h-2.898l3.213-17.435h3.719l3.213,17.435h-2.898l-0.531-3.862h-3.283L446.204,21.715z M447.17,15.246
			h2.412l-1.182-7.487h-0.049L447.17,15.246z"/>
		<path d="M457.237,6.891h-2.896V4.28h8.791v2.61h-2.898v14.824h-2.994V6.891H457.237z"/>
		<path d="M467.836,6.891h-2.896V4.28h8.791v2.61h-2.898v14.824h-2.994V6.891H467.836z"/>
		<path d="M476.698,21.715V4.28h8.018v2.61h-5.021v4.491h3.861v2.609h-3.861v5.119h5.359v2.605L476.698,21.715L476.698,21.715z"/>
		<path d="M491.62,21.715h-2.996V4.28h4.203c3.354,0,5.07,1.428,5.07,5.144c0,2.802-1.088,3.936-2.102,4.394l2.535,7.896h-3.043
			l-2.123-7.219c-0.387,0.047-1.016,0.073-1.547,0.073v7.147H491.62z M491.62,12.106h1.062c1.615,0,2.221-0.604,2.221-2.682
			c0-2.075-0.604-2.679-2.221-2.679h-1.062V12.106z"/>
	</g>
	<text transform="matrix(1 0 0 1 426.938 77.6855)" font-family="'TradeGothic'" font-size="54.8724"> </text>
	<line fill="none" stroke="#000000" stroke-width="0.5" stroke-linecap="round" x1="0" y1="13.613" x2="261.913" y2="13.613"/>
	
		<line fill="none" stroke="#000000" stroke-width="0.5" stroke-linecap="round" x1="515.985" y1="13.613" x2="779.897" y2="13.613"/>
	
		<line fill="none" stroke="#000000" stroke-width="0.5" stroke-linecap="round" x1="589.397" y1="102.477" x2="779.899" y2="102.477"/>
	<line fill="none" stroke="#000000" stroke-width="0.5" stroke-linecap="round" x1="0" y1="102.477" x2="189.061" y2="102.477"/>
	<g>
		<g>
			<defs>
				<rect id="SVGID_1_" x="57.521" y="-11.08" width="663.001" height="138.189"/>
			</defs>
			<clipPath id="SVGID_2_">
				<use xlink:href="#SVGID_1_"  overflow="visible"/>
			</clipPath>
			<path clip-path="url(#SVGID_2_)" d="M533.577,52.613c-0.84-0.037-1.326-0.156-1.771-0.062c-2.842,0.601-5.666,1.719-8.508,1.771
				c-4.24,0.077-8.49-0.737-12.742-0.888c-4.104-0.141-7.145,4.089-6.229,8.103c1.041,4.559,5.668,5.384,10.824,4.072
				c3.5-0.895,6.898-1.582,10.516-0.756c2.539,0.582,5.139,0.892,7.959,1.359c-0.85-3.018-2.756-4.682-5.598-5.332
				c-4.336-0.986-8.611-0.929-12.893,0.48c-1.611,0.531-3.391,0.771-5.088,0.731c-0.721-0.02-1.803-0.977-2.01-1.709
				c-0.176-0.618,0.51-2.008,1.104-2.215c1.434-0.496,3.268-1.08,4.529-0.586c3.592,1.408,7.152,1.104,10.826,0.912
				C528.54,58.289,531.36,56.454,533.577,52.613 M497.014,59.902c1.48-0.791,2.467-3.129,4.828-1.381
				c-0.854,0.5-1.68,0.981-2.734,1.604c1.539,0.88,2.969,1.19,3.229-0.642c1.109-7.728,7.021-9.115,13.664-7.938
				c4.07,0.718,8.311,0.813,12.447,0.659c2.115-0.076,4.189-1.326,6.881-1.592c-1.014,2.268-2.023,4.537-3.213,7.209
				c0.998-0.623,1.846-1.149,2.689-1.677c-0.098-0.245-0.193-0.489-0.291-0.733c2.748,0.094,3.344,2.204,3.828,4.348
				c2.303,0.173,4.543,0.364,6.789,0.468c0.238,0.01,0.5-0.494,0.756-0.76l-0.025,0.008c2.242-1.858,4.855,0.363,7.232-0.566
				c0.195-0.076,0.932,1.227,1.41,1.893c-0.686,0.353-1.6,1.187-2.027,0.984c-2.564-1.201-4.09,0.542-6.105,1.972
				c1.045-3.247-1.049-3.241-2.936-2.983c-2.768,0.382-5.969-0.428-7.779,2.638c-0.809-0.677-1.439-1.199-2.064-1.726
				c-0.195,0.182-0.391,0.358-0.584,0.539c0.885,1.836,1.77,3.676,2.902,6.037c-1.197-0.18-2.119-0.117-2.852-0.459
				c-4.502-2.115-9.023-2.053-13.756-0.74c-2.67,0.74-5.504,1.082-8.277,1.193c-4.072,0.163-6.893-2.131-8.488-6.445
				c-2.021-0.029-4.629,1.349-5.449-2C497.094,59.811,497.014,59.902,497.014,59.902"/>
		</g>
		<g>
			<defs>
				<rect id="SVGID_3_" x="57.521" y="-11.08" width="663.001" height="138.189"/>
			</defs>
			<clipPath id="SVGID_4_">
				<use xlink:href="#SVGID_3_"  overflow="visible"/>
			</clipPath>
			<path clip-path="url(#SVGID_4_)" d="M479.231,68.189c0.918-1.076,1.836-2.154,2.75-3.228c-0.885-0.317-1.92-1.103-2.621-0.866
				C477.549,64.699,477.698,66.174,479.231,68.189 M476.254,68.447c0.268-0.283,0.535-0.566,0.801-0.853
				c-0.078-1.655-0.295-3.342-2.42-3.559c-0.559-0.058-1.223,0.907-1.842,1.405C473.948,66.443,475.1,67.445,476.254,68.447
				 M466.604,63.725c1.604,0.649,3.207,1.299,4.807,1.948c0.266-0.251,0.533-0.504,0.799-0.757c-0.664-1.021-1.105-2.492-2.049-2.96
				C468.852,61.307,467.219,61.52,466.604,63.725 M483.53,59.152c-5.828-4.104-8.963-3.83-13.156,1.014
				C477.745,64.771,477.333,64.215,483.53,59.152 M495.866,59.482c-0.877,0.811-1.633,1.854-2.658,2.391
				c-4.521,2.37-9.031,4.805-13.74,6.754c-1.518,0.627-3.777,0.229-5.441-0.396c-4.457-1.672-8.807-3.672-13.143-5.66
				c-1.311-0.602-2.447-1.598-3.826-2.521c0.369-0.48,0.58-1.003,0.961-1.214c5.766-3.138,11.541-6.257,17.346-9.312
				c0.445-0.236,1.215-0.159,1.713,0.049c6.016,2.527,12.035,5.042,17.973,7.732c0.865,0.396,1.322,1.706,1.967,2.592
				c-0.004,0.004,0.08-0.088,0.076-0.086c-0.414-0.104-0.82-0.215-1.23-0.326c-0.998-0.438-1.986-0.909-3-1.313
				c-1.682-0.659-3.373-1.276-5.064-1.916c-1.77-0.318-4.02,0.851-4.994-2.193c-0.082-0.258-0.504-0.498-0.807-0.573
				c-1.818-0.448-3.648-0.847-5.74-1.323c-1.412,2.269-5.838,1.348-7.354,4.674c-3.58-0.488-5.803,2.303-8.805,3.492
				c1.078,0.893,2.098,1.521,3.199,1.916c0.83,0.297,1.77,0.291,2.656,0.42c-0.58-0.789-1.139-1.596-1.756-2.355
				c-0.178-0.222-0.516-0.312-0.779-0.459c0.006-0.278,0.012-0.561,0.02-0.84c1.463-0.096,2.936-0.117,4.387-0.314
				c1.127-0.161,2.652-0.195,3.238-0.911c1.023-1.238,1.893-2.043,3.574-1.765c0.424,0.07,0.914-0.471,1.412-0.604
				c0.73-0.196,1.609-0.592,2.211-0.355c1.553,0.613,2.963,1.565,4.473,2.298c0.838,0.41,1.732,0.826,2.643,0.953
				c2.502,0.354,5.031,0.556,8.172,0.882c-2.303,1.704-6.057-0.955-6.016,3.786c-0.588-0.819-0.818-1.422-1.066-1.436
				c-1.121-0.05-2.32-0.142-3.336,0.223c-0.445,0.158-0.916,1.543-0.684,2.076c0.938,2.182,2.465,1.146,3.865,0.438
				C489.495,62.684,492.68,61.082,495.866,59.482"/>
		</g>
		<g>
			<defs>
				<rect id="SVGID_5_" x="57.521" y="-11.08" width="663.001" height="138.189"/>
			</defs>
			<clipPath id="SVGID_6_">
				<use xlink:href="#SVGID_5_"  overflow="visible"/>
			</clipPath>
			<path clip-path="url(#SVGID_6_)" d="M546.62,52.883c0.139,1.9,0.227,3.141,0.32,4.404c-2.238-1.254-1.736-3.271-1.113-5.039
				c0.131-0.375,2.512-0.605,2.918-0.126c1.764,2.135,4.094,2.78,6.562,3.515c1.098,0.326,1.883,1.697,2.797,2.583h4.572
				c0.307-1.503,0.697-3.445,1.037-5.123c2.336-0.972,4.691-1.944,7.062-2.926c2.01,0.523,4.238,1.102,6.41,1.668
				c0.572,2.166,1.215,4.6,1.855,7.032c-1.066-2.394-2.848-2.009-4.791-1.164c-0.105-0.188-0.217-0.374-0.324-0.562
				c0.383-0.584,0.846-1.133,1.131-1.765c0.312-0.697,0.455-1.465,0.672-2.202c-0.803,0.228-1.678,0.321-2.373,0.729
				c-0.533,0.31-0.834,1.015-1.688,2.131c0-1.382,0.182-2.151-0.051-2.761c-0.23-0.592-0.889-1.012-1.355-1.509
				c-0.299,0.522-0.752,1.017-0.869,1.582c-0.152,0.725-0.039,1.505-0.039,2.287c-1.385-0.708-2.621-1.343-3.861-1.979
				c-0.248,0.312-0.488,0.622-0.73,0.931c0.918,1.084,1.84,2.169,3.047,3.583c-0.854,0.139-1.66,0.1-2.311,0.399
				c-1.307,0.598-3.363,1.153-3.627,2.128c-0.73,2.697-2.01,2.047-3.338,1.925c-1.848,0.817-3.729,1.576-5.533,2.479
				c-1.367,0.689-2.629,1.582-3.951,2.371c-0.854,0.517-1.725,1.01-2.586,1.513c-0.477-1.195-0.957-2.392-1.434-3.591
				c0.244-0.09,0.482-0.18,0.723-0.27c0.309,0.682,0.619,1.36,0.924,2.041c0.82-0.436,2.135-0.691,2.363-1.334
				c0.762-2.115,2.621-1.97,4.164-2.388c1.756-0.472,3.658-0.823,3.455-3.134c-0.189-2.197-1.506-3.424-3.918-3.238
				c-1.055,0.076-2.066,0.252-2.463-1.503C550.061,54.613,548.247,54.017,546.62,52.883"/>
		</g>
		<g>
			<defs>
				<rect id="SVGID_7_" x="57.521" y="-11.08" width="663.001" height="138.189"/>
			</defs>
			<clipPath id="SVGID_8_">
				<use xlink:href="#SVGID_7_"  overflow="visible"/>
			</clipPath>
			<path clip-path="url(#SVGID_8_)" d="M584.862,56.891c0.98-1.448,2.498-2.604,5.074-2.483c1.129,0.057,2.285-1.637,3.525-2.375
				c0.881-0.522,2.17-1.311,2.834-1.007c0.682,0.312,0.826,1.801,1.205,2.776c-0.205,0.094-0.416,0.189-0.621,0.287
				c-0.365-0.547-0.729-1.094-1.191-1.791c-0.27,0.164-0.711,0.271-0.785,0.498c-0.855,2.568-2.91,2.959-5.246,3.271
				c-3.076,0.41-3.861,1.466-3.338,4.061c0.145,0.719,0.963,1.887,1.418,1.863c3.045-0.167,4.422,2.406,6.561,3.695
				c0.211,0.123,0.465,0.181,0.693,0.271c1.143-2.671-0.984-5.749-3.9-5.715c-0.604,0.009-1.344,0.317-1.783,0.067
				c-0.473-0.271-0.938-1.052-0.896-1.568c0.033-0.359,1.094-1.041,1.406-0.908c2.701,1.166,4.584-0.086,6.658-2.341
				c0.234,1.231,0.406,2.114,0.631,3.28c2.068-0.297,4.264-0.613,6.619-0.953c0.676,1.637,0.391,2.516-1.699,2.438
				c-2.275-0.088-4.559-0.021-7.074-0.021c0.668,1.892,1.418,3.377,1.666,4.939c0.137,0.877-0.559,1.885-0.883,2.826
				c-0.885-0.377-1.816-0.684-2.652-1.152c-1.646-0.93-3.246-1.938-4.855-2.93c-1.066-0.665-2.111-1.373-3.176-2.043
				c-0.41-0.253-0.922-0.721-1.264-0.631c-1.449,0.383-2.496,0.035-2.83-1.455c-0.172-0.773-0.186-2.205,0.162-2.359
				C582.104,56.996,583.313,57.068,584.862,56.891"/>
		</g>
		<g>
			<defs>
				<rect id="SVGID_9_" x="57.521" y="-11.08" width="663.001" height="138.189"/>
			</defs>
			<clipPath id="SVGID_10_">
				<use xlink:href="#SVGID_9_"  overflow="visible"/>
			</clipPath>
			<path clip-path="url(#SVGID_10_)" d="M569.856,62.08c0,1.188-0.098,2.002,0.031,2.779c0.092,0.543,0.488,1.033,0.75,1.551
				c0.518-0.369,1.24-0.628,1.502-1.13c0.451-0.87,0.615-1.884,0.902-2.837c0.34-0.06,0.682-0.121,1.021-0.176
				c0.484,1.414,0.971,2.836,1.326,3.875c-1.928,0.68-3.301,1.158-4.842,1.703c-1.736-0.818-3.883-1.832-6.457-3.046
				c-0.291-1.012-0.727-2.545-1.227-4.282c1.811,0.101,3.123,0.172,4.848,0.266c-1.09,1.205-1.949,2.158-2.861,3.17
				C567.473,65.861,568.135,63.223,569.856,62.08"/>
		</g>
		<g>
			<defs>
				<rect id="SVGID_11_" x="57.521" y="-11.08" width="663.001" height="138.189"/>
			</defs>
			<clipPath id="SVGID_12_">
				<use xlink:href="#SVGID_11_"  overflow="visible"/>
			</clipPath>
			<path clip-path="url(#SVGID_12_)" d="M567.78,59.12c1.371-1.087,2.244-2.329,3.172-2.375c1.258-0.058,2.619,0.56,2.541,2.538
				c-0.088,2.217-1.725,2.383-3.074,2.344C569.688,61.605,568.995,60.332,567.78,59.12"/>
		</g>
		<g>
			<defs>
				<rect id="SVGID_13_" x="57.521" y="-11.08" width="663.001" height="138.189"/>
			</defs>
			<clipPath id="SVGID_14_">
				<use xlink:href="#SVGID_13_"  overflow="visible"/>
			</clipPath>
			<path clip-path="url(#SVGID_14_)" d="M544.85,62.738c-0.312,1.158-0.461,2.275-0.916,3.252c-0.297,0.637-1.072,1.539-1.561,1.494
				c-0.764-0.073-1.766-0.692-2.084-1.361c-0.219-0.457,0.363-1.713,0.922-2.041C542.354,63.414,543.725,63.129,544.85,62.738"/>
		</g>
		<g>
			<defs>
				<rect id="SVGID_15_" x="57.521" y="-11.08" width="663.001" height="138.189"/>
			</defs>
			<clipPath id="SVGID_16_">
				<use xlink:href="#SVGID_15_"  overflow="visible"/>
			</clipPath>
			<path clip-path="url(#SVGID_16_)" d="M596.323,60.93c1.885,0.594,3.275,0.938,4.584,1.492c0.533,0.225,1.223,0.912,1.215,1.377
				c-0.018,0.682-0.445,1.568-0.99,1.951c-0.361,0.258-1.498,0.006-1.83-0.395C598.266,64.087,597.448,62.643,596.323,60.93"/>
		</g>
		<g>
			<defs>
				<rect id="SVGID_17_" x="57.521" y="-11.08" width="663.001" height="138.189"/>
			</defs>
			<clipPath id="SVGID_18_">
				<use xlink:href="#SVGID_17_"  overflow="visible"/>
			</clipPath>
			<path clip-path="url(#SVGID_18_)" d="M545.887,59.47c-1.48-0.81-3.014-1.534-4.408-2.474c-0.531-0.359-1.039-1.221-1.016-1.826
				c0.031-0.647,0.582-1.483,1.15-1.809c0.355-0.207,1.482,0.197,1.717,0.626c0.957,1.768,1.705,3.647,2.529,5.49L545.887,59.47z"/>
		</g>
		<g>
			<defs>
				<rect id="SVGID_19_" x="57.521" y="-11.08" width="663.001" height="138.189"/>
			</defs>
			<clipPath id="SVGID_20_">
				<use xlink:href="#SVGID_19_"  overflow="visible"/>
			</clipPath>
			<path clip-path="url(#SVGID_20_)" d="M597.922,56.436c1.908-1.352-0.412-4.601,2.982-4.408c0.557,0.035,1.59,1.223,1.484,1.659
				C601.963,55.5,600.778,56.662,597.922,56.436"/>
		</g>
		<g>
			<defs>
				<rect id="SVGID_21_" x="57.521" y="-11.08" width="663.001" height="138.189"/>
			</defs>
			<clipPath id="SVGID_22_">
				<use xlink:href="#SVGID_21_"  overflow="visible"/>
			</clipPath>
			<path clip-path="url(#SVGID_22_)" d="M577.616,65.014c-0.904-1.617-1.812-3.246-3.041-5.438c1.359,0.326,3.461,0.507,3.5,0.891
				C578.233,62.098,577.782,63.787,577.616,65.014"/>
		</g>
		<g>
			<defs>
				<rect id="SVGID_23_" x="57.521" y="-11.08" width="663.001" height="138.189"/>
			</defs>
			<clipPath id="SVGID_24_">
				<use xlink:href="#SVGID_23_"  overflow="visible"/>
			</clipPath>
			<path clip-path="url(#SVGID_24_)" d="M508.694,63.718c5.523-0.596,11.043-1.317,16.586-1.696
				c1.658-0.114,3.387,0.725,5.021,1.433c-5.105-1.366-10.062-0.824-15.074,0.471c-2.076,0.537-4.311,0.437-6.479,0.624
				C508.729,64.271,508.713,63.994,508.694,63.718"/>
		</g>
		<g>
			<defs>
				<rect id="SVGID_25_" x="57.521" y="-11.08" width="663.001" height="138.189"/>
			</defs>
			<clipPath id="SVGID_26_">
				<use xlink:href="#SVGID_25_"  overflow="visible"/>
			</clipPath>
			<path clip-path="url(#SVGID_26_)" d="M519.909,56.443c3.189-0.392,6.654-0.812,9.779-1.191
				C528.055,57.064,522.938,57.762,519.909,56.443"/>
		</g>
		<g>
			<defs>
				<rect id="SVGID_27_" x="57.521" y="-11.08" width="663.001" height="138.189"/>
			</defs>
			<clipPath id="SVGID_28_">
				<use xlink:href="#SVGID_27_"  overflow="visible"/>
			</clipPath>
			<path clip-path="url(#SVGID_28_)" d="M479.454,58.957c-1.568,1.488-3.127,2.926-5.441,0H479.454z"/>
		</g>
		<g>
			<defs>
				<rect id="SVGID_29_" x="57.521" y="-11.08" width="663.001" height="138.189"/>
			</defs>
			<clipPath id="SVGID_30_">
				<use xlink:href="#SVGID_29_"  overflow="visible"/>
			</clipPath>
			<path clip-path="url(#SVGID_30_)" d="M239.931,52.613c0.842-0.037,1.328-0.156,1.775-0.062c2.84,0.601,5.664,1.719,8.507,1.771
				c4.24,0.077,8.489-0.737,12.743-0.888c4.102-0.141,7.145,4.089,6.229,8.103c-1.042,4.559-5.666,5.384-10.824,4.072
				c-3.501-0.895-6.901-1.582-10.516-0.756c-2.537,0.582-5.139,0.892-7.959,1.359c0.85-3.018,2.754-4.682,5.598-5.332
				c4.334-0.986,8.611-0.929,12.892,0.48c1.612,0.531,3.392,0.771,5.087,0.731c0.721-0.02,1.803-0.977,2.01-1.709
				c0.176-0.618-0.51-2.008-1.104-2.215c-1.434-0.496-3.268-1.08-4.529-0.586c-3.593,1.408-7.152,1.104-10.826,0.912
				C244.968,58.289,242.151,56.454,239.931,52.613 M276.497,59.902c-1.48-0.791-2.465-3.129-4.83-1.381
				c0.854,0.5,1.68,0.981,2.736,1.604c-1.539,0.88-2.969,1.19-3.23-0.642c-1.107-7.728-7.021-9.115-13.664-7.938
				c-4.068,0.718-8.309,0.813-12.447,0.659c-2.116-0.076-4.19-1.326-6.879-1.592c1.012,2.268,2.021,4.537,3.211,7.209
				c-0.999-0.623-1.846-1.149-2.691-1.677c0.099-0.245,0.196-0.489,0.295-0.733c-2.75,0.094-3.345,2.204-3.83,4.348
				c-2.303,0.173-4.543,0.364-6.789,0.468c-0.24,0.01-0.5-0.494-0.755-0.76l0.026,0.008c-2.246-1.858-4.857,0.363-7.234-0.566
				c-0.195-0.076-0.931,1.227-1.412,1.893c0.688,0.353,1.6,1.187,2.029,0.984c2.564-1.201,4.088,0.542,6.105,1.972
				c-1.045-3.247,1.049-3.241,2.935-2.983c2.768,0.382,5.97-0.428,7.781,2.638c0.807-0.677,1.437-1.199,2.065-1.726
				c0.193,0.182,0.388,0.358,0.582,0.539c-0.885,1.836-1.768,3.676-2.902,6.037c1.198-0.18,2.119-0.117,2.851-0.459
				c4.505-2.115,9.026-2.053,13.755-0.74c2.67,0.74,5.506,1.082,8.279,1.193c4.072,0.163,6.891-2.131,8.488-6.445
				c2.021-0.029,4.629,1.349,5.448-2C276.415,59.811,276.497,59.902,276.497,59.902"/>
		</g>
		<g>
			<defs>
				<rect id="SVGID_31_" x="57.521" y="-11.08" width="663.001" height="138.189"/>
			</defs>
			<clipPath id="SVGID_32_">
				<use xlink:href="#SVGID_31_"  overflow="visible"/>
			</clipPath>
			<path clip-path="url(#SVGID_32_)" d="M294.278,68.189c-0.917-1.076-1.836-2.154-2.751-3.228c0.886-0.317,1.921-1.103,2.622-0.866
				C295.96,64.699,295.812,66.174,294.278,68.189 M297.255,68.447c-0.266-0.283-0.533-0.566-0.799-0.853
				c0.076-1.655,0.293-3.342,2.415-3.559c0.562-0.058,1.227,0.907,1.843,1.405C299.562,66.443,298.408,67.445,297.255,68.447
				 M306.905,63.725c-1.604,0.649-3.207,1.299-4.807,1.948c-0.266-0.251-0.533-0.504-0.799-0.757
				c0.666-1.021,1.105-2.492,2.047-2.96C304.658,61.307,306.288,61.52,306.905,63.725 M289.981,59.152
				c5.826-4.104,8.963-3.83,13.154,1.014C295.763,64.771,296.177,64.215,289.981,59.152 M277.646,59.482
				c0.876,0.811,1.633,1.854,2.656,2.391c4.521,2.37,9.031,4.805,13.739,6.754c1.521,0.627,3.78,0.229,5.443-0.396
				c4.458-1.672,8.805-3.672,13.142-5.66c1.313-0.602,2.445-1.598,3.826-2.521c-0.369-0.48-0.578-1.003-0.961-1.214
				c-5.764-3.138-11.54-6.257-17.345-9.312c-0.445-0.236-1.213-0.159-1.712,0.049c-6.018,2.527-12.035,5.042-17.973,7.732
				c-0.867,0.396-1.323,1.706-1.967,2.592c0.002,0.004-0.081-0.088-0.076-0.086c0.412-0.104,0.82-0.215,1.23-0.326
				c0.999-0.438,1.986-0.909,3.002-1.313c1.678-0.659,3.372-1.276,5.062-1.916c1.771-0.318,4.019,0.851,4.996-2.193
				c0.08-0.258,0.502-0.498,0.805-0.573c1.818-0.448,3.648-0.847,5.74-1.323c1.415,2.269,5.839,1.348,7.356,4.674
				c3.579-0.488,5.8,2.303,8.802,3.492c-1.077,0.893-2.098,1.521-3.199,1.916c-0.831,0.297-1.768,0.291-2.657,0.42
				c0.583-0.789,1.14-1.596,1.758-2.355c0.175-0.222,0.514-0.312,0.78-0.459c-0.007-0.278-0.014-0.561-0.02-0.84
				c-1.464-0.096-2.938-0.117-4.389-0.314c-1.127-0.161-2.65-0.195-3.24-0.911c-1.021-1.238-1.889-2.043-3.57-1.765
				c-0.425,0.07-0.918-0.471-1.413-0.604c-0.73-0.196-1.609-0.592-2.212-0.355c-1.552,0.613-2.963,1.565-4.471,2.298
				c-0.838,0.41-1.734,0.826-2.644,0.953c-2.501,0.354-5.03,0.556-8.171,0.882c2.302,1.704,6.055-0.955,6.014,3.786
				c0.59-0.819,0.818-1.422,1.069-1.436c1.119-0.05,2.319-0.142,3.333,0.223c0.446,0.158,0.916,1.543,0.685,2.076
				c-0.938,2.182-2.465,1.146-3.864,0.438C284.015,62.684,280.831,61.082,277.646,59.482"/>
		</g>
		<g>
			<defs>
				<rect id="SVGID_33_" x="57.521" y="-11.08" width="663.001" height="138.189"/>
			</defs>
			<clipPath id="SVGID_34_">
				<use xlink:href="#SVGID_33_"  overflow="visible"/>
			</clipPath>
			<path clip-path="url(#SVGID_34_)" d="M226.892,52.883c-0.139,1.9-0.229,3.141-0.321,4.404c2.239-1.254,1.735-3.271,1.112-5.039
				c-0.131-0.375-2.514-0.605-2.917-0.126c-1.765,2.135-4.093,2.78-6.562,3.515c-1.098,0.326-1.884,1.697-2.799,2.583h-4.572
				c-0.306-1.503-0.698-3.445-1.036-5.123c-2.338-0.972-4.693-1.944-7.063-2.926c-2.011,0.523-4.24,1.102-6.412,1.668
				c-0.572,2.166-1.213,4.6-1.855,7.032c1.066-2.394,2.849-2.009,4.791-1.164c0.107-0.188,0.217-0.374,0.325-0.562
				c-0.384-0.584-0.848-1.133-1.13-1.765c-0.312-0.697-0.455-1.465-0.672-2.202c0.801,0.228,1.676,0.321,2.372,0.729
				c0.534,0.31,0.834,1.015,1.688,2.131c0-1.382-0.182-2.151,0.051-2.761c0.229-0.592,0.886-1.012,1.354-1.509
				c0.301,0.522,0.753,1.017,0.871,1.582c0.151,0.725,0.037,1.505,0.037,2.287c1.385-0.708,2.623-1.343,3.863-1.979
				c0.246,0.312,0.488,0.622,0.73,0.931c-0.919,1.084-1.84,2.169-3.049,3.583c0.856,0.139,1.662,0.1,2.312,0.399
				c1.307,0.598,3.361,1.153,3.625,2.128c0.73,2.697,2.011,2.047,3.338,1.925c1.85,0.817,3.73,1.576,5.533,2.479
				c1.368,0.689,2.633,1.582,3.952,2.371c0.855,0.517,1.725,1.01,2.587,1.513c0.477-1.195,0.955-2.392,1.432-3.591
				c-0.242-0.09-0.48-0.18-0.72-0.27c-0.31,0.682-0.62,1.36-0.927,2.041c-0.818-0.436-2.131-0.691-2.361-1.334
				c-0.762-2.115-2.621-1.97-4.164-2.388c-1.756-0.472-3.658-0.823-3.457-3.134c0.191-2.197,1.508-3.424,3.92-3.238
				c1.055,0.076,2.065,0.252,2.463-1.503C223.448,54.613,225.262,54.017,226.892,52.883"/>
		</g>
		<g>
			<defs>
				<rect id="SVGID_35_" x="57.521" y="-11.08" width="663.001" height="138.189"/>
			</defs>
			<clipPath id="SVGID_36_">
				<use xlink:href="#SVGID_35_"  overflow="visible"/>
			</clipPath>
			<path clip-path="url(#SVGID_36_)" d="M188.649,56.891c-0.984-1.448-2.498-2.604-5.076-2.483
				c-1.129,0.057-2.285-1.637-3.525-2.375c-0.883-0.522-2.172-1.311-2.834-1.007c-0.682,0.312-0.824,1.801-1.205,2.776
				c0.207,0.094,0.414,0.189,0.621,0.287c0.364-0.547,0.729-1.094,1.191-1.791c0.269,0.164,0.71,0.271,0.784,0.498
				c0.856,2.568,2.913,2.959,5.248,3.271c3.075,0.41,3.86,1.466,3.339,4.061c-0.146,0.719-0.965,1.887-1.418,1.863
				c-3.047-0.167-4.426,2.406-6.563,3.695c-0.21,0.123-0.464,0.181-0.693,0.271c-1.142-2.671,0.985-5.749,3.903-5.715
				c0.604,0.009,1.34,0.317,1.779,0.067c0.475-0.271,0.939-1.052,0.897-1.568c-0.03-0.359-1.093-1.041-1.405-0.908
				c-2.701,1.166-4.584-0.086-6.656-2.341c-0.236,1.231-0.408,2.114-0.633,3.28c-2.068-0.297-4.264-0.613-6.619-0.953
				c-0.676,1.637-0.391,2.516,1.699,2.438c2.275-0.088,4.557-0.021,7.074-0.021c-0.667,1.892-1.418,3.377-1.666,4.939
				c-0.137,0.877,0.559,1.885,0.883,2.826c0.886-0.377,1.816-0.684,2.652-1.152c1.646-0.93,3.246-1.938,4.855-2.93
				c1.069-0.665,2.111-1.373,3.178-2.043c0.409-0.253,0.92-0.721,1.263-0.631c1.448,0.383,2.498,0.035,2.829-1.455
				c0.172-0.773,0.187-2.205-0.16-2.359C191.405,56.996,190.196,57.068,188.649,56.891"/>
		</g>
		<g>
			<defs>
				<rect id="SVGID_37_" x="57.521" y="-11.08" width="663.001" height="138.189"/>
			</defs>
			<clipPath id="SVGID_38_">
				<use xlink:href="#SVGID_37_"  overflow="visible"/>
			</clipPath>
			<path clip-path="url(#SVGID_38_)" d="M203.655,62.08c0,1.188,0.098,2.002-0.033,2.779c-0.092,0.543-0.49,1.033-0.75,1.551
				c-0.516-0.369-1.239-0.628-1.502-1.13c-0.451-0.87-0.616-1.884-0.904-2.837c-0.34-0.06-0.68-0.121-1.02-0.176
				c-0.485,1.414-0.971,2.836-1.328,3.875c1.93,0.68,3.301,1.158,4.842,1.703c1.736-0.818,3.885-1.832,6.457-3.046
				c0.29-1.012,0.729-2.545,1.228-4.282c-1.812,0.101-3.124,0.172-4.849,0.266c1.088,1.205,1.948,2.158,2.861,3.17
				C206.037,65.861,205.374,63.223,203.655,62.08"/>
		</g>
		<g>
			<defs>
				<rect id="SVGID_39_" x="57.521" y="-11.08" width="663.001" height="138.189"/>
			</defs>
			<clipPath id="SVGID_40_">
				<use xlink:href="#SVGID_39_"  overflow="visible"/>
			</clipPath>
			<path clip-path="url(#SVGID_40_)" d="M205.73,59.12c-1.372-1.087-2.245-2.329-3.172-2.375c-1.258-0.058-2.62,0.56-2.542,2.538
				c0.088,2.217,1.724,2.383,3.073,2.344C203.821,61.605,204.515,60.332,205.73,59.12"/>
		</g>
		<g>
			<defs>
				<rect id="SVGID_41_" x="57.521" y="-11.08" width="663.001" height="138.189"/>
			</defs>
			<clipPath id="SVGID_42_">
				<use xlink:href="#SVGID_41_"  overflow="visible"/>
			</clipPath>
			<path clip-path="url(#SVGID_42_)" d="M228.661,62.738c0.311,1.158,0.461,2.275,0.916,3.252c0.295,0.637,1.072,1.539,1.558,1.494
				c0.765-0.073,1.768-0.692,2.086-1.361c0.218-0.457-0.362-1.713-0.923-2.041C231.153,63.414,229.782,63.129,228.661,62.738"/>
		</g>
		<g>
			<defs>
				<rect id="SVGID_43_" x="57.521" y="-11.08" width="663.001" height="138.189"/>
			</defs>
			<clipPath id="SVGID_44_">
				<use xlink:href="#SVGID_43_"  overflow="visible"/>
			</clipPath>
			<path clip-path="url(#SVGID_44_)" d="M177.188,60.93c-1.885,0.594-3.279,0.938-4.585,1.492c-0.531,0.225-1.224,0.912-1.214,1.377
				c0.015,0.682,0.443,1.568,0.988,1.951c0.361,0.258,1.498,0.006,1.83-0.395C175.243,64.087,176.062,62.643,177.188,60.93"/>
		</g>
		<g>
			<defs>
				<rect id="SVGID_45_" x="57.521" y="-11.08" width="663.001" height="138.189"/>
			</defs>
			<clipPath id="SVGID_46_">
				<use xlink:href="#SVGID_45_"  overflow="visible"/>
			</clipPath>
			<path clip-path="url(#SVGID_46_)" d="M227.624,59.47c1.479-0.81,3.014-1.534,4.406-2.474c0.534-0.359,1.041-1.221,1.016-1.826
				c-0.029-0.647-0.58-1.483-1.148-1.809c-0.357-0.207-1.484,0.197-1.717,0.626c-0.959,1.768-1.707,3.647-2.529,5.49L227.624,59.47z
				"/>
		</g>
		<g>
			<defs>
				<rect id="SVGID_47_" x="57.521" y="-11.08" width="663.001" height="138.189"/>
			</defs>
			<clipPath id="SVGID_48_">
				<use xlink:href="#SVGID_47_"  overflow="visible"/>
			</clipPath>
			<path clip-path="url(#SVGID_48_)" d="M175.59,56.436c-1.91-1.352,0.409-4.601-2.985-4.408c-0.559,0.035-1.59,1.223-1.486,1.659
				C171.546,55.5,172.733,56.662,175.59,56.436"/>
		</g>
		<g>
			<defs>
				<rect id="SVGID_49_" x="57.521" y="-11.08" width="663.001" height="138.189"/>
			</defs>
			<clipPath id="SVGID_50_">
				<use xlink:href="#SVGID_49_"  overflow="visible"/>
			</clipPath>
			<path clip-path="url(#SVGID_50_)" d="M195.894,65.014c0.905-1.617,1.814-3.246,3.041-5.438c-1.36,0.326-3.461,0.507-3.499,0.891
				C195.276,62.098,195.728,63.787,195.894,65.014"/>
		</g>
		<g>
			<defs>
				<rect id="SVGID_51_" x="57.521" y="-11.08" width="663.001" height="138.189"/>
			</defs>
			<clipPath id="SVGID_52_">
				<use xlink:href="#SVGID_51_"  overflow="visible"/>
			</clipPath>
			<path clip-path="url(#SVGID_52_)" d="M264.817,63.718c-5.525-0.596-11.045-1.317-16.588-1.696
				c-1.658-0.114-3.386,0.725-5.021,1.433c5.105-1.366,10.063-0.824,15.075,0.471c2.073,0.537,4.31,0.437,6.477,0.624
				C264.78,64.271,264.797,63.994,264.817,63.718"/>
		</g>
		<g>
			<defs>
				<rect id="SVGID_53_" x="57.521" y="-11.08" width="663.001" height="138.189"/>
			</defs>
			<clipPath id="SVGID_54_">
				<use xlink:href="#SVGID_53_"  overflow="visible"/>
			</clipPath>
			<path clip-path="url(#SVGID_54_)" d="M253.603,56.443c-3.193-0.392-6.658-0.812-9.783-1.191
				C245.456,57.064,250.574,57.762,253.603,56.443"/>
		</g>
		<g>
			<defs>
				<rect id="SVGID_55_" x="57.521" y="-11.08" width="663.001" height="138.189"/>
			</defs>
			<clipPath id="SVGID_56_">
				<use xlink:href="#SVGID_55_"  overflow="visible"/>
			</clipPath>
			<path clip-path="url(#SVGID_56_)" d="M294.058,58.957c1.564,1.488,3.125,2.926,5.439,0H294.058z"/>
		</g>
	</g>
	<g>
		<path d="M219.971,105.098v0.353h-4.02v-0.353c1.177,0,1.388-0.299,1.388-2.053v-2.809c0-1.754-0.211-2.035-1.388-2.035V97.85
			h4.072h2.281l0.142,2.104h-0.369l-0.088-0.349c-0.211-0.81-0.422-1.125-2.035-1.125h-1.37v2.615h0.106
			c1.754,0,1.895-0.212,1.895-1.387h0.352v3.421h-0.352c0-1.157-0.141-1.387-1.895-1.387h-0.106v1.3
			C218.584,104.799,218.796,105.098,219.971,105.098z"/>
		<path d="M227.995,104.958c1.229,0,2.141-0.702,2.141-2.229v-2.492c0-1.754-0.21-2.034-1.386-2.034v-0.351h3.58v0.351
			c-1.159,0-1.388,0.28-1.388,2.034v2.371c0,2.054-1.42,3.123-3.141,3.123c-1.72,0-3.125-1.069-3.125-3.123v-2.371
			c0-1.754-0.209-2.034-1.385-2.034v-0.351h4.019v0.351c-1.158,0-1.387,0.28-1.387,2.034v2.492
			C225.924,104.256,226.767,104.958,227.995,104.958z"/>
		<path d="M233.651,98.201V97.85h4.019v0.352c-1.175,0-1.386,0.281-1.386,2.035v2.527c0,1.754,0.211,2.034,1.386,2.034h0.614
			c1.615,0,1.825-0.297,2.036-1.123l0.089-0.351h0.367l-0.123,2.124h-7.002v-0.353c1.176,0,1.387-0.299,1.387-2.053v-2.809
			C235.038,98.482,234.827,98.201,233.651,98.201z"/>
		<path d="M241.431,98.201V97.85h4.018v0.352c-1.175,0-1.385,0.281-1.385,2.035v2.527c0,1.754,0.21,2.034,1.385,2.034h0.614
			c1.616,0,1.825-0.297,2.036-1.123l0.089-0.351h0.368l-0.123,2.124h-7.002v-0.353c1.175,0,1.387-0.299,1.387-2.053v-2.809
			C242.817,98.482,242.605,98.201,241.431,98.201z"/>
		<path d="M256.194,105.746c-0.911,0-1.648-0.439-1.965-0.648c-0.105,0.125-0.281,0.353-0.333,0.648h-0.316v-3.018h0.351
			c0.141,1.492,1.089,2.334,2.404,2.334c0.755,0,1.352-0.422,1.352-1.177c0-0.612-0.49-1.088-1.439-1.561l-1.192-0.615
			c-0.843-0.438-1.456-1.157-1.456-2.142c0-1.105,0.929-2,2.193-2c0.736,0,1.298,0.265,1.666,0.524
			c0.089-0.104,0.229-0.261,0.264-0.542h0.351v2.965h-0.351c-0.105-1.053-0.58-2.299-1.844-2.299c-0.684,0-1.263,0.369-1.263,1.02
			c0,0.613,0.456,0.947,1.526,1.509l1.176,0.612c1.002,0.511,1.369,1.3,1.369,1.984
			C258.687,104.782,257.547,105.746,256.194,105.746z"/>
		<path d="M266.554,103.676l0.088-0.351h0.35l-0.139,2.124h-6.564v-0.352c1.176,0,1.387-0.3,1.387-2.054v-2.81
			c0-1.754-0.211-2.034-1.387-2.034V97.85h3.879h2.264l0.141,2.104h-0.368l-0.089-0.35c-0.191-0.809-0.42-1.123-2.018-1.123h-1.176
			v2.615h0.105c1.754,0,1.895-0.213,1.895-1.388h0.352v3.421h-0.352c0-1.156-0.141-1.387-1.895-1.387h-0.105v1.019
			c0,1.755,0.21,2.035,1.387,2.035h0.211C266.114,104.799,266.343,104.502,266.554,103.676z"/>
		<path d="M274.034,103.467c0.701,0.824,1.509,1.508,2.352,1.631v0.353h-2.246l-2.387-3.265h-0.491v0.859
			c0,1.754,0.21,2.053,1.386,2.053v0.353h-4.02v-0.353c1.176,0,1.387-0.299,1.387-2.053v-2.809c0-1.754-0.211-2.035-1.387-2.035
			V97.85h3.634c1.808,0,2.808,0.932,2.808,2.176c0,1.072-0.807,1.949-2.123,2.125L274.034,103.467z M272.262,98.482h-1v3.053h1
			c0.981,0,1.438-0.684,1.438-1.51C273.7,99.184,273.243,98.482,272.262,98.482z"/>
		<path d="M283.567,99.745l-2.598,6.001h-0.229l-2.596-6.001c-0.562-1.333-0.791-1.544-1.703-1.544V97.85h3.931v0.352
			c-1.264,0-1.386,0.316-0.947,1.334l1.79,4.141l1.772-4.141c0.456-1.035,0.456-1.334-0.931-1.334V97.85h3.3v0.352
			C284.287,98.201,284.129,98.412,283.567,99.745z"/>
		<path d="M286.169,105.449v-0.352c1.176,0,1.387-0.3,1.387-2.054v-2.81c0-1.754-0.211-2.034-1.387-2.034V97.85h4.02V98.2
			c-1.176,0-1.387,0.28-1.387,2.034v2.81c0,1.754,0.211,2.054,1.387,2.054v0.352H286.169z"/>
		<path d="M291.822,98.201V97.85h2.159l4.667,5.545v-3.158c0-1.754-0.21-2.035-1.386-2.035V97.85h3.422v0.352
			c-1.175,0-1.385,0.281-1.385,2.035v5.492h-0.334l-5.107-6.123v3.438c0,1.754,0.211,2.054,1.387,2.054v0.352h-3.423v-0.352
			c1.176,0,1.387-0.3,1.387-2.054v-2.81C293.209,98.482,292.998,98.201,291.822,98.201z"/>
		<path d="M306.172,105.746c-2.192,0-3.966-1.84-3.966-4.105c0-2.229,1.773-4.088,3.966-4.088c0.845,0,1.792,0.49,2.319,1.156
			c0.12-0.141,0.244-0.578,0.312-0.857h0.334v3.034h-0.352c-0.332-1.632-1.262-2.667-2.614-2.667c-1.964,0-2.579,1.949-2.579,3.422
			c0,1.491,0.615,3.422,2.579,3.422c0.879,0,2.229-0.543,2.229-1.49c0-0.703-0.647-1.071-1.51-1.071v-0.351h3.88v0.351
			c-1.177,0-1.387,0.299-1.387,2.054c0,0,0,0.334,0,0.526C308.278,105.08,307.192,105.746,306.172,105.746z"/>
		<path d="M314.707,105.746c-0.913,0-1.65-0.439-1.966-0.648c-0.104,0.125-0.281,0.353-0.332,0.648h-0.317v-3.018h0.352
			c0.142,1.492,1.089,2.334,2.405,2.334c0.754,0,1.35-0.422,1.35-1.177c0-0.612-0.49-1.088-1.439-1.561l-1.191-0.615
			c-0.844-0.438-1.458-1.157-1.458-2.142c0-1.105,0.93-2,2.194-2c0.737,0,1.299,0.265,1.668,0.524
			c0.086-0.104,0.227-0.261,0.262-0.542h0.352v2.965h-0.352c-0.105-1.053-0.579-2.299-1.844-2.299c-0.682,0-1.262,0.369-1.262,1.02
			c0,0.613,0.456,0.947,1.527,1.509l1.175,0.612c1.001,0.511,1.368,1.3,1.368,1.984
			C317.198,104.782,316.058,105.746,314.707,105.746z"/>
		<path d="M327.366,105.746c-2.352,0-4.283-1.84-4.283-4.105c0-2.229,1.932-4.088,4.283-4.088c2.351,0,4.282,1.859,4.282,4.088
			C331.648,103.906,329.718,105.746,327.366,105.746z M327.366,98.219c-2.07,0-2.842,1.912-2.842,3.422
			c0,1.527,0.771,3.422,2.842,3.422c2.071,0,2.842-1.895,2.842-3.422C330.208,100.131,329.437,98.219,327.366,98.219z"/>
		<path d="M337.479,105.098v0.353h-4.018v-0.353c1.175,0,1.385-0.299,1.385-2.053v-2.809c0-1.754-0.21-2.035-1.385-2.035V97.85h4.07
			h2.283l0.139,2.104h-0.368l-0.089-0.349c-0.209-0.81-0.419-1.125-2.035-1.125h-1.368v2.615h0.105c1.755,0,1.895-0.212,1.895-1.387
			h0.352v3.421h-0.352c0-1.157-0.14-1.387-1.895-1.387h-0.105v1.3C336.094,104.799,336.305,105.098,337.479,105.098z"/>
		<path d="M346.805,103.748c-0.438,1.034-0.438,1.332,0.948,1.332v0.369h-3.316v-0.369c1.069,0,1.227-0.21,1.808-1.525l2.577-6.002
			h0.248l2.578,6.002c0.58,1.315,0.791,1.525,1.721,1.525v0.369h-3.931v-0.369c1.263,0,1.387-0.298,0.947-1.332l-0.349-0.809h-2.882
			L346.805,103.748z M348.595,99.605l-1.157,2.684h2.315L348.595,99.605z"/>
		<path d="M354.216,98.201V97.85h4.018v0.352c-1.176,0-1.387,0.281-1.387,2.035v2.527c0,1.754,0.211,2.034,1.387,2.034h0.616
			c1.614,0,1.823-0.297,2.036-1.123l0.086-0.351h0.368l-0.122,2.124h-7.002v-0.353c1.174,0,1.387-0.299,1.387-2.053v-2.809
			C355.603,98.482,355.39,98.201,354.216,98.201z"/>
		<path d="M361.993,98.201V97.85h4.02v0.352c-1.175,0-1.387,0.281-1.387,2.035v2.527c0,1.754,0.212,2.034,1.387,2.034h0.613
			c1.616,0,1.826-0.297,2.035-1.123l0.091-0.351h0.366l-0.121,2.124h-7.004v-0.353c1.178,0,1.387-0.299,1.387-2.053v-2.809
			C363.38,98.482,363.171,98.201,361.993,98.201z"/>
		<path d="M375.478,103.748c-0.439,1.034-0.439,1.332,0.947,1.332v0.369h-3.318v-0.369c1.072,0,1.231-0.21,1.811-1.525l2.58-6.002
			h0.245l2.58,6.002c0.579,1.315,0.789,1.525,1.72,1.525v0.369h-3.932v-0.369c1.265,0,1.387-0.298,0.947-1.332l-0.352-0.809h-2.876
			L375.478,103.748z M377.269,99.605l-1.16,2.684h2.319L377.269,99.605z"/>
		<path d="M382.889,105.098c1.176,0,1.387-0.299,1.387-2.053v-2.809c0-1.754-0.211-2.035-1.387-2.035V97.85h1.966h1.735
			c1.651,0,2.53,0.842,2.53,1.93c0,0.615-0.302,1.143-0.756,1.512c0.877,0.385,1.367,1.123,1.367,1.999
			c0,1.229-0.981,2.159-2.79,2.159h-2.087h-1.966L382.889,105.098L382.889,105.098z M386.521,98.482h-1.001v2.615h1.001
			c0.842,0,1.229-0.599,1.229-1.281C387.75,99.113,387.363,98.482,386.521,98.482z M386.924,101.799h-1.403v1.668
			c0,1.141,0.122,1.332,1.069,1.332h0.334c1.001,0,1.458-0.666,1.458-1.49C388.382,102.482,387.925,101.799,386.924,101.799z"/>
		<path d="M395.967,105.746c-2.352,0-4.279-1.84-4.279-4.105c0-2.229,1.93-4.088,4.279-4.088c2.355,0,4.283,1.859,4.283,4.088
			C400.25,103.906,398.321,105.746,395.967,105.746z M395.967,98.219c-2.07,0-2.842,1.912-2.842,3.422
			c0,1.527,0.771,3.422,2.842,3.422c2.072,0,2.844-1.895,2.844-3.422C398.813,100.131,398.04,98.219,395.967,98.219z"/>
		<path d="M407.899,99.745l-2.596,6.001h-0.229l-2.6-6.001c-0.561-1.333-0.789-1.544-1.701-1.544V97.85h3.932v0.352
			c-1.264,0-1.387,0.316-0.947,1.334l1.789,4.141l1.771-4.141c0.457-1.035,0.457-1.334-0.93-1.334V97.85h3.301v0.352
			C408.62,98.201,408.461,98.412,407.899,99.745z"/>
		<path d="M416.77,103.676l0.088-0.351h0.35l-0.139,2.124h-6.564v-0.352c1.176,0,1.385-0.3,1.385-2.054v-2.81
			c0-1.754-0.209-2.034-1.385-2.034V97.85h3.879h2.264l0.143,2.104h-0.369l-0.088-0.35c-0.193-0.809-0.422-1.123-2.02-1.123h-1.176
			v2.615h0.105c1.756,0,1.895-0.213,1.895-1.388h0.354v3.421h-0.354c0-1.156-0.139-1.387-1.895-1.387h-0.105v1.019
			c0,1.755,0.211,2.035,1.389,2.035h0.209C416.331,104.799,416.557,104.502,416.77,103.676z"/>
		<path d="M429.727,105.449c-0.07-0.314-0.191-0.737-0.314-0.859c-0.527,0.648-1.477,1.156-2.316,1.156
			c-2.193,0-3.967-1.84-3.967-4.105c0-2.229,1.773-4.088,3.967-4.088c0.842,0,1.789,0.49,2.316,1.156
			c0.123-0.141,0.244-0.578,0.314-0.857h0.336v3.034h-0.354c-0.334-1.632-1.266-2.667-2.615-2.667c-1.965,0-2.545,1.949-2.545,3.422
			c0,1.491,0.58,3.422,2.545,3.422c1.352,0,2.281-1.035,2.615-2.668h0.354v3.056L429.727,105.449L429.727,105.449z"/>
		<path d="M438.629,101.098v-0.861c0-1.754-0.211-2.034-1.387-2.034v-0.351h4.018v0.351c-1.156,0-1.385,0.28-1.385,2.034v2.81
			c0,1.754,0.229,2.054,1.385,2.054v0.352h-4.018V105.1c1.176,0,1.387-0.3,1.387-2.054v-1.3h-3.982v1.3
			c0,1.754,0.209,2.054,1.387,2.054v0.352h-4.02V105.1c1.176,0,1.387-0.3,1.387-2.054v-2.81c0-1.754-0.211-2.034-1.387-2.034v-0.351
			h4.02v0.351c-1.178,0-1.387,0.28-1.387,2.034v0.861H438.629z"/>
		<path d="M444.514,103.748c-0.438,1.034-0.438,1.332,0.947,1.332v0.369h-3.314v-0.369c1.068,0,1.229-0.21,1.807-1.525l2.58-6.002
			h0.246l2.58,6.002c0.578,1.315,0.789,1.525,1.719,1.525v0.369h-3.932v-0.369c1.264,0,1.387-0.298,0.947-1.332l-0.352-0.809h-2.877
			L444.514,103.748z M446.305,99.605l-1.158,2.684h2.314L446.305,99.605z"/>
		<path d="M457.331,103.467c0.703,0.824,1.508,1.508,2.352,1.631v0.353h-2.244l-2.389-3.265h-0.49v0.859
			c0,1.754,0.209,2.053,1.387,2.053v0.353h-4.02v-0.353c1.174,0,1.385-0.299,1.385-2.053v-2.809c0-1.754-0.211-2.035-1.385-2.035
			V97.85h3.631c1.811,0,2.811,0.932,2.811,2.176c0,1.072-0.809,1.949-2.123,2.125L457.331,103.467z M455.557,98.482h-0.998v3.053
			h0.998c0.984,0,1.441-0.684,1.441-1.51C456.999,99.184,456.542,98.482,455.557,98.482z"/>
		<path d="M467.233,105.449c-0.07-0.314-0.193-0.737-0.314-0.859c-0.527,0.648-1.475,1.156-2.318,1.156
			c-2.191,0-3.965-1.84-3.965-4.105c0-2.229,1.771-4.088,3.965-4.088c0.844,0,1.791,0.49,2.318,1.156
			c0.121-0.141,0.244-0.578,0.314-0.857h0.334v3.034h-0.354c-0.334-1.632-1.264-2.667-2.613-2.667c-1.967,0-2.545,1.949-2.545,3.422
			c0,1.491,0.578,3.422,2.545,3.422c1.352,0,2.279-1.035,2.613-2.668h0.354v3.056L467.233,105.449L467.233,105.449z"/>
		<path d="M473.924,104.958c1.23,0,2.143-0.702,2.143-2.229v-2.492c0-1.754-0.213-2.034-1.389-2.034v-0.351h3.58v0.351
			c-1.158,0-1.387,0.28-1.387,2.034v2.371c0,2.054-1.42,3.123-3.141,3.123s-3.125-1.069-3.125-3.123v-2.371
			c0-1.754-0.209-2.034-1.387-2.034v-0.351h4.02v0.351c-1.158,0-1.387,0.28-1.387,2.034v2.492
			C471.854,104.256,472.698,104.958,473.924,104.958z"/>
		<path d="M481.229,98.534c-1.613,0-1.754,0.298-1.967,1.124l-0.086,0.351h-0.352l0.105-2.157h7.826l0.123,2.157h-0.369
			l-0.086-0.351c-0.211-0.826-0.424-1.124-2.037-1.124h-0.912v4.511c0,1.754,0.229,2.053,1.402,2.053v0.353h-4.035v-0.353
			c1.178,0,1.402-0.299,1.402-2.053v-4.511H481.229z"/>
		<path d="M493.993,103.676l0.09-0.351h0.35l-0.141,2.124h-6.562v-0.352c1.176,0,1.387-0.3,1.387-2.054v-2.81
			c0-1.754-0.211-2.034-1.387-2.034V97.85h3.877h2.266l0.141,2.104h-0.369l-0.088-0.35c-0.191-0.809-0.422-1.123-2.018-1.123h-1.176
			v2.615h0.104c1.756,0,1.896-0.213,1.896-1.388h0.352v3.421h-0.352c0-1.156-0.141-1.387-1.896-1.387h-0.104v1.019
			c0,1.755,0.209,2.035,1.387,2.035h0.211C493.555,104.799,493.782,104.502,493.993,103.676z"/>
		<path d="M501.473,103.467c0.703,0.824,1.51,1.508,2.354,1.631v0.353h-2.246l-2.389-3.265h-0.49v0.859
			c0,1.754,0.211,2.053,1.387,2.053v0.353h-4.02v-0.353c1.176,0,1.387-0.299,1.387-2.053v-2.809c0-1.754-0.211-2.035-1.387-2.035
			V97.85h3.631c1.811,0,2.809,0.932,2.809,2.176c0,1.072-0.805,1.949-2.121,2.125L501.473,103.467z M499.7,98.482h-0.998v3.053
			h0.998c0.982,0,1.439-0.684,1.439-1.51C501.141,99.184,500.684,98.482,499.7,98.482z"/>
		<path d="M504.584,105.449v-0.352c1.176,0,1.385-0.3,1.385-2.054v-2.81c0-1.754-0.209-2.034-1.385-2.034V97.85h4.02V98.2
			c-1.176,0-1.387,0.28-1.387,2.034v2.81c0,1.754,0.211,2.054,1.387,2.054v0.352H504.584z"/>
		<path d="M516.504,103.676l0.088-0.351h0.35l-0.139,2.124h-6.562v-0.352c1.174,0,1.385-0.3,1.385-2.054v-2.81
			c0-1.754-0.211-2.034-1.385-2.034V97.85h3.877h2.264l0.143,2.104h-0.369l-0.088-0.35c-0.191-0.809-0.422-1.123-2.021-1.123h-1.172
			v2.615h0.104c1.756,0,1.895-0.213,1.895-1.388h0.354v3.421h-0.354c0-1.156-0.139-1.387-1.895-1.387h-0.104v1.019
			c0,1.755,0.209,2.035,1.387,2.035h0.209C516.065,104.799,516.292,104.502,516.504,103.676z"/>
		<path d="M522.672,105.449v-0.352c1.174,0,1.383-0.3,1.383-2.054v-2.81c0-1.754-0.209-2.034-1.383-2.034V97.85h4.018V98.2
			c-1.176,0-1.387,0.28-1.387,2.034v2.81c0,1.754,0.211,2.054,1.387,2.054v0.352H522.672z"/>
		<path d="M529.973,98.534c-1.611,0-1.754,0.298-1.965,1.124l-0.088,0.351h-0.35l0.105-2.157h7.824l0.125,2.157h-0.369l-0.088-0.351
			c-0.213-0.826-0.422-1.124-2.035-1.124h-0.914v4.511c0,1.754,0.23,2.053,1.404,2.053v0.353h-4.037v-0.353
			c1.178,0,1.404-0.299,1.404-2.053v-4.511H529.973z"/>
		<path d="M542.739,103.676l0.084-0.351h0.352l-0.137,2.124h-6.564v-0.352c1.176,0,1.387-0.3,1.387-2.054v-2.81
			c0-1.754-0.211-2.034-1.387-2.034V97.85h3.877h2.266l0.141,2.104h-0.369l-0.088-0.35c-0.191-0.809-0.422-1.123-2.02-1.123h-1.174
			v2.615h0.105c1.754,0,1.895-0.213,1.895-1.388h0.352v3.421h-0.352c0-1.156-0.141-1.387-1.895-1.387h-0.105v1.019
			c0,1.755,0.209,2.035,1.387,2.035h0.209C542.299,104.799,542.526,104.502,542.739,103.676z"/>
		<path d="M546.846,103.045c0,1.754,0.213,2.053,1.389,2.053v0.353h-3.422v-0.353c1.176,0,1.387-0.299,1.387-2.053v-2.809
			c0-1.754-0.211-2.035-1.387-2.035V97.85h2.633l2.615,5.86l2.596-5.86h2.459v0.352c-1.178,0-1.404,0.281-1.404,2.035v2.809
			c0,1.754,0.229,2.053,1.404,2.053v0.353h-4.021v-0.353c1.176,0,1.389-0.299,1.389-2.053v-3.283l-2.65,5.984h-0.246l-2.738-6.211
			v3.51H546.846z"/>
		<path d="M559.614,105.746c-0.914,0-1.65-0.439-1.965-0.648c-0.107,0.125-0.281,0.353-0.336,0.648h-0.314v-3.018h0.35
			c0.143,1.492,1.09,2.334,2.404,2.334c0.754,0,1.352-0.422,1.352-1.177c0-0.612-0.49-1.088-1.438-1.561l-1.193-0.615
			c-0.844-0.438-1.457-1.157-1.457-2.142c0-1.105,0.932-2,2.193-2c0.736,0,1.299,0.265,1.668,0.524
			c0.088-0.104,0.229-0.261,0.264-0.542h0.352v2.965h-0.352c-0.105-1.053-0.578-2.299-1.844-2.299c-0.684,0-1.264,0.369-1.264,1.02
			c0,0.613,0.457,0.947,1.525,1.509l1.18,0.612c0.998,0.511,1.367,1.3,1.367,1.984C562.104,104.782,560.963,105.746,559.614,105.746
			z"/>
	</g>
	<g>
		<path d="M360.97,32.456h3.417v5.011c3.188,0.627,6.036,2.506,7.915,5.183l-4.328,3.701c-0.854-1.424-1.822-2.904-3.587-3.303
			v11.788c4.84,3.076,9.225,6.321,9.225,12.698c0,5.695-3.245,10.535-9.225,11.049v6.605h-3.417v-6.605
			c-3.93-0.398-7.175-3.246-9.226-6.436l4.727-3.588c0.74,1.992,2.278,3.93,4.499,4.557V59.732
			c-4.385-2.677-8.655-6.208-8.655-11.73c0-5.296,3.074-9.795,8.655-10.535V32.456z M360.97,43.047
			c-1.766,0.569-2.848,2.278-2.848,4.214c0,2.506,1.082,4.101,2.848,5.694V43.047z M364.387,73.115
			c2.335-0.911,3.188-2.678,3.188-5.297c0-2.789-1.31-4.213-3.188-5.922V73.115z"/>
		<path d="M379.247,78.582v-5.523c8.77-12.812,13.55-19.874,13.55-25.91c0-3.246-1.252-4.67-3.19-4.67
			c-2.272,0-3.413,1.766-3.413,4.271v2.791h-6.72v-1.937c0-6.036,3.872-10.706,10.475-10.706c5.81,0,9.568,4.328,9.568,9.111
			c0,6.492-2.051,11.275-13.097,26.765h12.472v5.811L379.247,78.582L379.247,78.582z"/>
		<path d="M412.67,66.681v3.304c0,2.222,1.252,3.586,3.131,3.586c2.223,0,3.475-1.31,3.475-5.01v-9.34
			c0-2.677-1.365-3.759-2.961-3.759c-2.164,0-3.188,1.424-3.814,3.132h-5.467c0.229-6.378,0.514-11.389,0.514-21.127h17.143
			l-0.23,5.809h-11.104l-0.398,8.884l0.113,0.114c1.768-2.107,3.246-2.393,5.41-2.393c5.41,0,7.518,3.93,7.518,10.821v5.693
			c0,8.655-2.73,12.756-9.564,12.756c-5.695,0-10.139-2.506-10.139-9.338v-3.134L412.67,66.681L412.67,66.681z"/>
	</g>
</g>
</svg>
