<?xml version="1.0" encoding="utf-8"?>
<!-- Generator: Adobe Illustrator 16.0.0, SVG Export Plug-In . SVG Version: 6.00 Build 0)  -->
<!DOCTYPE svg PUBLIC "-//W3C//DTD SVG 1.1//EN" "http://www.w3.org/Graphics/SVG/1.1/DTD/svg11.dtd">
<svg version="1.1" id="Layer_1" xmlns="http://www.w3.org/2000/svg" xmlns:xlink="http://www.w3.org/1999/xlink" x="0px" y="0px"
	 width="398px" height="72px" viewBox="190.45 14 398 72" enable-background="new 190.45 14 398 72" xml:space="preserve">
<g>
	<path fill="#231F20" d="M214.591,32.487v-3.208c0-3.494-1.604-4.983-3.437-4.983c-2.864,0-3.779,1.489-3.779,4.582v20.96
		c0,3.095,0.916,4.583,3.779,4.583c2.577,0,3.437-1.488,3.437-4.181v-4.984h7.102v4.755c0,5.838-3.437,10.582-10.539,10.582
		c-7.445,0-10.881-4.744-10.881-10.582V28.707c0-5.842,3.437-10.596,10.881-10.596c7.102,0,10.539,5.154,10.539,11.341v3.035
		H214.591z"/>
</g>
<g>
	<path fill="#231F20" d="M219.889,78.145l0.17,0.084l-4.329-2.375l-0.805-1.229l-0.128-0.51V72.29l1.443-2.209l0.508-0.298h1.826
		l1.485,1.061v1.061l-1.104,1.658v1.062l0.34,0.55l0.211,0.552l1.612,0.891l3.225,0.299l0.933-0.299
		c3.877-3.024,6.96-6.364,9.252-10.016c2.291-3.646,4.244-7.427,5.855-11.318c0.792-1.952,1.555-3.904,2.292-5.854
		c0.735-1.951,1.427-3.918,2.079-5.897c1.33-3.933,2.942-7.709,4.837-11.331l0.552-3.565l-1.741-1.272l-5.855-0.213l-1.571,0.213
		l-0.934,0.297l-1.061,0.211l-3.267,1.529l-3.564,3.818l-0.212,0.807l-0.297,3.267l0.297,0.68l1.952,2.037l1.528,0.34l1.062-0.34
		l1.23-1.782l-0.679-1.231l-0.381-0.467l0.891-1.824l0.381-0.298l0.553-0.212h0.721l1.782,1.062l0.51,0.975v0.553v1.443
		l-1.739,2.885l-1.826,0.679l-1.272,0.212h-2.208l-1.995-0.891l-1.612-1.613l-0.51-1.527l-0.211-3.564l0.211-0.764l0.297-0.679
		l2.759-3.777c1.697-1.216,3.395-2.064,5.093-2.546l1.824-0.551l1.061-0.127l1.951-0.34l20.411,0.466v1.104h-1.739l-1.656,0.212
		l-1.273,0.509c-2.603,2.292-4.258,4.796-4.965,7.512c-0.368,1.358-0.778,2.694-1.231,4.01s-0.948,2.596-1.484,3.84l4.03,0.551
		h4.499l6.153-0.212c1.215-2.856,2.572-5.615,4.073-8.274c1.5-2.659,3.494-5.333,5.983-8.021c1.358-1.215,2.589-2.149,3.692-2.801
		c1.046-0.593,2.22-1.188,3.523-1.782l1.824-0.17h2.503l2.886,1.188l0.381,1.315l0.298,0.425v1.57l-0.298,0.721l-1.442,1.826h-0.51
		l-0.806,0.17l-1.952-1.231l-0.382-0.51l0.934-1.527l0.891-0.68v-1.273l-2.164-0.807l-1.102,0.255l-3.014,1.824l-1.272,1.23
		c-4.047,5.659-7.03,11.344-8.955,17.06c-0.962,2.857-1.958,5.701-2.992,8.527c-1.033,2.831-2.115,5.652-3.246,8.476l0.296,1.02
		l1.527,1.061l4.328,0.51l-0.551,0.891h-17.908l-0.892-0.338l0.51-0.851h2.334l2.545-1.272l2.038-2.504l5.771-14.204l-14.683-0.169
		c-0.991,2.32-2.016,4.626-3.077,6.917c-1.062,2.292-2.142,4.549-3.246,6.776c-2.179,4.473-5.319,8.983-9.421,13.538
		c-1.472,1.524-2.901,2.687-4.286,3.478c-0.651,0.396-1.315,0.744-1.996,1.041c-0.678,0.297-1.356,0.559-2.036,0.785l-1.74,0.34
		l-4.031,0.213L219.889,78.145z"/>
</g>
<g>
	<path fill="#231F20" d="M310.825,73.9c1.833,0,2.635,0,4.066,0c0,0.688,0,0.344,0,0.914c-1.375,0-12.715,0.059-16.037,0.059
		c0-0.396,0-0.456,0-0.975c1.488,0,3.208,0,4.752,0c-0.629-1.83-3.036-9.219-4.008-11.683c-1.718,0-10.424,0-11.97,0
		c-1.146,3.378-3.437,10.138-3.895,11.683c1.546,0,4.124,0,5.669,0c0,0.346,0,0.576,0,0.975c-3.607,0-7.445,0-11.168,0
		c0-0.229,0-0.629,0-0.975c1.775,0,1.031-0.058,4.124-0.058c4.468-12.428,9.165-26.848,13.574-39.332c0.458,0,0.63,0,1.202,0
		C301.833,47.567,306.072,60.959,310.825,73.9z M287.974,61.244c3.379,0,8.762,0,11.282,0c-1.604-5.087-3.608-10.754-5.727-16.482
		C291.696,49.973,289.52,55.93,287.974,61.244z M304.868,73.9c0.974,0,1.719,0,2.578,0c-2.92-8.477-5.729-17.401-8.706-25.932
		c-1.031-2.807-2.062-6.186-3.093-8.992c-1.087,2.692-0.688,1.947-1.433,4.008C297.71,53.067,301.375,63.938,304.868,73.9z"/>
</g>
<g>
	<path fill="#231F20" d="M327.617,68.518h-7.102V27.177h9.966c7.961,0,12.026,3.379,12.026,12.199c0,6.644-2.577,9.335-4.982,10.426
		l6.014,18.716h-7.217l-5.04-17.116c-0.916,0.115-2.405,0.173-3.666,0.173L327.617,68.518L327.617,68.518z M327.617,45.734h2.52
		c3.838,0,5.271-1.432,5.271-6.357c0-4.926-1.433-6.357-5.271-6.357h-2.52V45.734z"/>
</g>
<g>
	<path fill="#231F20" d="M371.897,41.206c-0.858-1.202-2.463-2.119-4.236-2.119c-4.296,0-6.874,2.864-6.874,7.044
		c0,4.18,2.578,7.043,6.874,7.043c1.889,0,3.264-0.974,4.236-2.117l5.67,5.951c-2.691,2.743-6.644,3.717-9.907,3.717
		c-8.592,0-15.464-5.714-15.464-14.594c0-8.877,6.872-14.604,15.464-14.604c3.264,0,7.216,0.974,9.907,3.722L371.897,41.206z"/>
</g>
<g>
	<path fill="#231F20" d="M409.303,35.483v-1.031h10.654v1.031h-4.752v28.166c0,6.244-3.955,11.457-11.855,11.457
		c-15.406,0-15.008-11.168-15.008-11.168c0-3.037,0.06-26.852,0.06-28.455c-1.375,0-3.322,0-4.983,0c0-0.859,0-0.515,0-1.031
		c4.697,0,16.784,0,16.784,0v1.031c0,0-0.748,0-4.812,0c0,2.292,0,13.346,0,25.646c0,4.355-0.916,12.714,8.07,12.714
		c7.219,0,10.598-4.409,10.598-10.194V35.483H409.303z M389.258,64.166c0,5.098,5.325,9.162,9.336,9.622
		c-2.291-1.72-6.473-2.231-6.473-9.622c0-7.213,0-21.81,0-28.684c-1.09,0-1.831,0-2.805,0
		C389.317,36.285,389.258,53.125,389.258,64.166z"/>
</g>
<g>
	<path fill="#231F20" d="M434.055,33.363h-6.871v-6.186h20.848v6.186h-6.871v35.155h-7.105V33.363z"/>
</g>
<g>
	<path fill="#231F20" d="M457.545,23.74h27.549v8.246h-18.615v7.561h17.584v8.249h-17.584v8.247h19.646v8.234h-28.58V23.74z"/>
</g>
<g>
	<path fill="#231F20" d="M504.002,68.518h-7.102V27.177h9.967c7.959,0,12.025,3.379,12.025,12.199c0,6.644-2.572,9.335-4.98,10.426
		l6.014,18.716h-7.215l-5.039-17.116c-0.916,0.115-2.408,0.173-3.668,0.173v16.94h-0.002V68.518z M504.002,45.734h2.521
		c3.838,0,5.271-1.432,5.271-6.357c0-4.926-1.436-6.357-5.271-6.357h-2.521V45.734z"/>
</g>
<g>
	<path fill="#231F20" d="M533.856,22.709c2.746,0,4.98,2.234,4.98,4.982c0,2.749-2.234,4.983-4.98,4.983
		c-2.748,0-4.982-2.234-4.982-4.983C528.874,24.943,531.106,22.709,533.856,22.709z M529.557,36.454h8.59v27.823h-8.59V36.454z"/>
</g>
<g>
	<path fill="#231F20" d="M549.692,74.995l0.049,0.086c-1.221-0.888-2.111-1.822-2.676-2.802c-0.562-0.978-0.965-1.914-1.201-2.805
		l-0.27-2.049V63.82c0.418-1.569,1.012-2.967,1.781-4.182c0.42-0.625,0.887-1.266,1.406-1.935c0.518-0.665,1.104-1.367,1.762-2.107
		c0.828-0.679,1.613-1.214,2.361-1.6c0.355-0.178,0.711-0.356,1.066-0.534c0.357-0.179,0.715-0.373,1.07-0.58l-0.137-1.29
		l-0.396-1.247l-0.139-1.292c0-0.148-0.004-0.297-0.02-0.444c-0.02-0.149-0.021-0.298-0.021-0.446c0-2.67,1.186-5.282,3.566-7.834
		l1.199-0.934l4.68-2.047l1.021-0.312l1.072-0.223l1.74-0.311c0.561-0.029,1.162-0.059,1.801-0.088
		c0.641-0.031,1.434-0.045,2.383-0.045c1.426,0.059,2.855,0.386,4.281,0.979c0.979,0.239,1.961,0.817,2.938,1.737
		c1.014,0.951,1.619,1.797,1.826,2.541l0.312,2.85l-0.535,0.981l-1.559,2.315l-1.734,0.759l-2.633,0.311l-0.666-0.311l-2.186-1.472
		l-0.225-0.534v-1.511l1.068-1.604l0.492-0.178h0.443l1.828,0.668l0.805,0.803h1.604l0.355-0.223l0.844-2.004l-0.268-1.069
		l-0.934-1.471l-2.139-1.292c-0.832-0.356-1.646-0.535-2.451-0.535c-0.088,0-0.18,0.007-0.266,0.023
		c-0.092,0.015-0.18,0.022-0.27,0.022c-0.18,0-0.365,0.007-0.557,0.023c-0.195,0.015-0.41,0.021-0.645,0.021
		c-0.27,0-0.553-0.007-0.848-0.021c-0.299-0.016-0.596-0.038-0.891-0.068l-1.205,0.223l-1.023,0.312
		c-1.246,0.505-2.6,1.322-4.055,2.452c-1.486,1.158-2.602,2.45-3.342,3.875l-0.803,1.738l-0.535,2.541l0.223,1.604l1.338,0.178
		l3.832-0.178l0.848,0.178l0.758,0.357l1.426,1.247l0.311,0.443v1.069l-0.311,0.672l-1.426,1.865l-1.338,0.225
		c-0.299,0.027-0.58,0.054-0.848,0.064c-0.27,0.018-0.551,0.024-0.844,0.024c-0.299,0-0.609-0.009-0.938-0.024
		c-0.326-0.012-0.654-0.037-0.982-0.064c-1.189-0.178-2.346-0.872-3.473-2.088c-2.854,1.276-4.725,3.038-5.613,5.29
		c-0.891,2.229-1.34,4.293-1.34,6.195l0.133,2.092l0.402,1.069c0.18,0.625,0.492,1.293,0.938,2.007
		c0.414,0.652,1.021,1.336,1.826,2.051l1.736,0.979c0.742,0.299,1.527,0.477,2.361,0.534c0.387,0.028,0.771,0.047,1.16,0.047
		c0.385,0,0.771,0,1.158,0l1.824-0.312l0.893-0.27l3.074-1.203c1.07-0.683,2.123-1.572,3.162-2.672
		c0.533-0.564,1.027-1.115,1.471-1.648c0.447-0.535,0.861-1.054,1.248-1.559l1.115-0.314c-0.594,1.486-1.453,2.867-2.586,4.145
		c-1.188,1.309-2.404,2.378-3.65,3.207l-4.77,2.062l-1.334,0.304l-1.605,0.173h-3.83L549.692,74.995z M562.124,54.866l2.365,0.397
		l0.58-0.397l0.758-1.741l-2.408-1.294l-2.004,0.27l-1.248,0.58v0.754L562.124,54.866z"/>
</g>
</svg>
