<?xml version="1.0" encoding="utf-8"?>
<!-- Generator: Adobe Illustrator 16.0.0, SVG Export Plug-In . SVG Version: 6.00 Build 0)  -->
<!DOCTYPE svg PUBLIC "-//W3C//DTD SVG 1.1//EN" "http://www.w3.org/Graphics/SVG/1.1/DTD/svg11.dtd">
<svg version="1.1" id="Layer_1" xmlns="http://www.w3.org/2000/svg" xmlns:xlink="http://www.w3.org/1999/xlink" x="0px" y="0px"
	 width="398px" height="72px" viewBox="0 0 398 72" enable-background="new 0 0 398 72" xml:space="preserve">
<g>
	<path fill="#003B3C" d="M24.154,20.62v-3.208c0-3.494-1.604-4.983-3.437-4.983c-2.864,0-3.779,1.489-3.779,4.582v20.96
		c0,3.096,0.916,4.583,3.779,4.583c2.576,0,3.437-1.487,3.437-4.181v-4.984h7.103v4.755c0,5.839-3.438,10.582-10.539,10.582
		c-7.445,0-10.881-4.743-10.881-10.582V16.84c0-5.842,3.437-10.596,10.881-10.596c7.102,0,10.539,5.154,10.539,11.341v3.035H24.154z
		"/>
</g>
<g>
	<path fill="#003B3C" d="M29.452,66.277l0.17,0.084l-4.328-2.375l-0.806-1.229l-0.128-0.51v-1.825l1.443-2.209l0.508-0.298h1.826
		l1.484,1.061v1.062l-1.104,1.657v1.062l0.34,0.55l0.211,0.552l1.612,0.892l3.225,0.299l0.933-0.299
		c3.877-3.024,6.961-6.364,9.252-10.017c2.291-3.646,4.244-7.427,5.855-11.317c0.792-1.952,1.555-3.904,2.292-5.854
		c0.735-1.951,1.427-3.918,2.079-5.896c1.33-3.934,2.941-7.709,4.837-11.331l0.552-3.565l-1.74-1.272l-5.855-0.213l-1.57,0.213
		l-0.935,0.297l-1.062,0.211l-3.267,1.529l-3.563,3.818l-0.213,0.807l-0.297,3.267l0.297,0.681l1.953,2.036l1.527,0.341l1.062-0.341
		l1.229-1.782l-0.679-1.23l-0.381-0.467l0.891-1.824l0.381-0.298l0.553-0.212h0.721l1.783,1.062l0.51,0.975v0.553v1.443
		l-1.739,2.885l-1.826,0.679l-1.272,0.212h-2.207l-1.996-0.891l-1.611-1.613l-0.51-1.527l-0.211-3.563l0.211-0.764l0.297-0.679
		l2.759-3.777c1.697-1.216,3.396-2.064,5.093-2.546l1.824-0.551l1.061-0.127l1.951-0.34l20.412,0.466v1.104h-1.74l-1.655,0.212
		l-1.272,0.509c-2.604,2.292-4.259,4.796-4.966,7.512c-0.368,1.358-0.778,2.694-1.231,4.009c-0.453,1.316-0.947,2.597-1.483,3.84
		l4.03,0.552h4.498l6.154-0.212c1.215-2.855,2.571-5.615,4.072-8.274c1.5-2.659,3.494-5.333,5.982-8.021
		c1.358-1.215,2.59-2.149,3.692-2.801c1.046-0.593,2.22-1.188,3.523-1.782l1.823-0.17h2.504l2.886,1.188l0.381,1.315l0.298,0.425
		v1.57l-0.298,0.721l-1.442,1.826h-0.51l-0.806,0.17l-1.952-1.231l-0.382-0.51l0.935-1.527l0.891-0.68v-1.273l-2.164-0.807
		l-1.102,0.255l-3.015,1.824l-1.272,1.23c-4.047,5.659-7.029,11.344-8.955,17.06c-0.961,2.857-1.957,5.701-2.992,8.527
		c-1.032,2.83-2.114,5.652-3.245,8.476l0.296,1.021l1.527,1.061l4.328,0.51l-0.552,0.891H62.165l-0.893-0.338l0.51-0.851h2.334
		l2.545-1.272l2.038-2.504l5.771-14.203l-14.682-0.17c-0.992,2.32-2.017,4.627-3.078,6.918s-2.142,4.549-3.246,6.775
		c-2.178,4.473-5.318,8.983-9.42,13.538c-1.473,1.524-2.901,2.687-4.287,3.478c-0.65,0.396-1.314,0.744-1.996,1.041
		c-0.678,0.297-1.355,0.56-2.035,0.785l-1.74,0.34l-4.031,0.213L29.452,66.277z"/>
</g>
<g>
	<path fill="#003B3C" d="M120.389,62.033c1.833,0,2.635,0,4.065,0c0,0.688,0,0.344,0,0.914c-1.375,0-12.715,0.059-16.037,0.059
		c0-0.396,0-0.456,0-0.975c1.488,0,3.209,0,4.752,0c-0.629-1.83-3.035-9.219-4.008-11.684c-1.718,0-10.424,0-11.97,0
		c-1.146,3.378-3.437,10.139-3.896,11.684c1.547,0,4.125,0,5.67,0c0,0.346,0,0.576,0,0.975c-3.607,0-7.445,0-11.168,0
		c0-0.229,0-0.629,0-0.975c1.775,0,1.031-0.059,4.123-0.059c4.469-12.428,9.166-26.848,13.574-39.332c0.459,0,0.631,0,1.203,0
		C111.396,35.699,115.636,49.092,120.389,62.033z M97.538,49.377c3.379,0,8.762,0,11.281,0c-1.604-5.087-3.607-10.754-5.727-16.482
		C101.259,38.105,99.083,44.062,97.538,49.377z M114.432,62.033c0.974,0,1.719,0,2.577,0c-2.92-8.478-5.729-17.401-8.705-25.933
		c-1.031-2.807-2.062-6.186-3.094-8.991c-1.086,2.691-0.688,1.946-1.433,4.008C107.273,41.199,110.938,52.07,114.432,62.033z"/>
</g>
<g>
	<path fill="#003B3C" d="M137.181,56.65h-7.102V15.31h9.965c7.961,0,12.026,3.379,12.026,12.199c0,6.644-2.577,9.335-4.981,10.426
		l6.014,18.716h-7.217l-5.04-17.115c-0.916,0.115-2.405,0.173-3.666,0.173L137.181,56.65L137.181,56.65z M137.181,33.867h2.52
		c3.838,0,5.271-1.433,5.271-6.357c0-4.926-1.434-6.357-5.271-6.357h-2.52V33.867z"/>
</g>
<g>
	<path fill="#003B3C" d="M181.46,29.339c-0.857-1.202-2.463-2.119-4.235-2.119c-4.296,0-6.874,2.864-6.874,7.044
		s2.578,7.043,6.874,7.043c1.889,0,3.264-0.974,4.235-2.117l5.67,5.951c-2.69,2.743-6.644,3.717-9.906,3.717
		c-8.592,0-15.465-5.714-15.465-14.594c0-8.877,6.873-14.604,15.465-14.604c3.264,0,7.216,0.974,9.906,3.722L181.46,29.339z"/>
</g>
<g>
	<path fill="#003B3C" d="M218.866,23.616v-1.031h10.654v1.031h-4.752v28.166c0,6.244-3.955,11.457-11.855,11.457
		c-15.406,0-15.008-11.168-15.008-11.168c0-3.037,0.061-26.852,0.061-28.455c-1.375,0-3.322,0-4.983,0c0-0.859,0-0.515,0-1.031
		c4.697,0,16.784,0,16.784,0v1.031c0,0-0.748,0-4.812,0c0,2.292,0,13.346,0,25.646c0,4.355-0.916,12.714,8.07,12.714
		c7.219,0,10.598-4.409,10.598-10.194V23.616H218.866z M198.821,52.299c0,5.098,5.325,9.162,9.336,9.622
		c-2.291-1.72-6.473-2.231-6.473-9.622c0-7.213,0-21.811,0-28.684c-1.09,0-1.831,0-2.805,0
		C198.88,24.418,198.821,41.258,198.821,52.299z"/>
</g>
<g>
	<path fill="#003B3C" d="M243.618,21.496h-6.871V15.31h20.849v6.186h-6.871V56.65h-7.105L243.618,21.496L243.618,21.496z"/>
</g>
<g>
	<path fill="#003B3C" d="M267.108,11.873h27.549v8.246h-18.614v7.561h17.584v8.249h-17.584v8.247h19.646v8.234h-28.58V11.873
		L267.108,11.873z"/>
</g>
<g>
	<path fill="#003B3C" d="M313.565,56.65h-7.102V15.31h9.967c7.959,0,12.024,3.379,12.024,12.199c0,6.644-2.571,9.335-4.979,10.426
		l6.014,18.716h-7.215l-5.039-17.115c-0.916,0.115-2.408,0.173-3.668,0.173v16.94h-0.002V56.65L313.565,56.65z M313.565,33.867
		h2.521c3.838,0,5.271-1.433,5.271-6.357c0-4.926-1.436-6.357-5.271-6.357h-2.521V33.867z"/>
</g>
<g>
	<path fill="#003B3C" d="M343.42,10.842c2.745,0,4.979,2.234,4.979,4.982c0,2.749-2.234,4.983-4.979,4.983
		c-2.748,0-4.982-2.234-4.982-4.983C338.438,13.076,340.67,10.842,343.42,10.842z M339.12,24.587h8.591V52.41h-8.591V24.587z"/>
</g>
<g>
	<path fill="#003B3C" d="M359.256,63.128l0.049,0.086c-1.222-0.888-2.111-1.822-2.676-2.802c-0.562-0.979-0.966-1.914-1.201-2.805
		l-0.271-2.05v-3.604c0.418-1.569,1.013-2.967,1.781-4.182c0.42-0.625,0.887-1.267,1.406-1.936c0.518-0.665,1.104-1.367,1.762-2.107
		c0.828-0.679,1.613-1.214,2.361-1.6c0.354-0.178,0.711-0.355,1.065-0.534c0.357-0.179,0.716-0.373,1.07-0.58l-0.137-1.29
		l-0.396-1.247l-0.139-1.292c0-0.147-0.004-0.297-0.021-0.443c-0.02-0.149-0.021-0.299-0.021-0.446c0-2.67,1.186-5.282,3.565-7.834
		l1.199-0.935l4.68-2.047l1.021-0.312l1.072-0.224l1.74-0.311c0.561-0.029,1.161-0.059,1.801-0.088
		c0.641-0.031,1.434-0.045,2.383-0.045c1.426,0.059,2.854,0.386,4.281,0.979c0.979,0.239,1.961,0.817,2.938,1.737
		c1.014,0.951,1.619,1.797,1.826,2.541l0.312,2.851l-0.535,0.98l-1.56,2.314l-1.733,0.76l-2.634,0.311l-0.666-0.311l-2.186-1.473
		l-0.225-0.533v-1.512l1.067-1.604l0.492-0.178h0.443l1.828,0.668l0.805,0.803h1.604l0.355-0.223l0.844-2.004l-0.268-1.069
		l-0.935-1.472l-2.139-1.291c-0.832-0.356-1.646-0.535-2.451-0.535c-0.088,0-0.18,0.007-0.266,0.022
		c-0.092,0.015-0.181,0.022-0.271,0.022c-0.18,0-0.365,0.007-0.557,0.022c-0.195,0.015-0.41,0.021-0.646,0.021
		c-0.27,0-0.553-0.007-0.848-0.021c-0.299-0.016-0.596-0.038-0.891-0.067l-1.205,0.223l-1.023,0.312
		c-1.246,0.504-2.6,1.321-4.055,2.451c-1.486,1.158-2.603,2.45-3.342,3.875l-0.804,1.738l-0.534,2.541l0.223,1.604l1.338,0.179
		l3.832-0.179l0.848,0.179l0.759,0.356l1.426,1.247l0.311,0.443v1.069l-0.311,0.672l-1.426,1.865l-1.339,0.225
		c-0.299,0.027-0.579,0.054-0.848,0.064c-0.27,0.018-0.551,0.023-0.844,0.023c-0.299,0-0.609-0.009-0.938-0.023
		c-0.326-0.013-0.653-0.037-0.981-0.064c-1.189-0.178-2.347-0.872-3.474-2.088c-2.854,1.275-4.725,3.037-5.612,5.289
		c-0.892,2.229-1.341,4.293-1.341,6.195l0.134,2.092l0.401,1.069c0.181,0.625,0.492,1.293,0.938,2.007
		c0.414,0.652,1.021,1.336,1.826,2.051l1.735,0.979c0.742,0.3,1.527,0.478,2.361,0.534c0.387,0.027,0.771,0.047,1.16,0.047
		c0.385,0,0.771,0,1.158,0l1.823-0.312l0.894-0.27l3.074-1.203c1.069-0.683,2.123-1.572,3.161-2.672
		c0.533-0.564,1.027-1.115,1.472-1.648c0.447-0.535,0.86-1.054,1.248-1.559l1.114-0.314c-0.594,1.486-1.452,2.867-2.586,4.146
		c-1.188,1.31-2.403,2.378-3.649,3.207l-4.771,2.062l-1.334,0.305l-1.604,0.173h-3.83L359.256,63.128z M371.688,42.999l2.365,0.397
		l0.58-0.397l0.758-1.741l-2.408-1.294l-2.004,0.271l-1.248,0.58v0.754L371.688,42.999z"/>
</g>
</svg>
