<?xml version="1.0" encoding="utf-8"?>
<!-- Generator: Adobe Illustrator 16.0.0, SVG Export Plug-In . SVG Version: 6.00 Build 0)  -->
<!DOCTYPE svg PUBLIC "-//W3C//DTD SVG 1.1//EN" "http://www.w3.org/Graphics/SVG/1.1/DTD/svg11.dtd">
<svg version="1.1" id="Layer_1" xmlns="http://www.w3.org/2000/svg" xmlns:xlink="http://www.w3.org/1999/xlink" x="0px" y="0px"
	 width="779.899px" height="111px" viewBox="0 0 779.899 111" enable-background="new 0 0 779.899 111" xml:space="preserve">
<g>
	<path fill="#003B3C" d="M286.183,10.102V8.75c0-1.473-0.677-2.101-1.449-2.101c-1.208,0-1.594,0.628-1.594,1.931v8.837
		c0,1.306,0.386,1.932,1.594,1.932c1.086,0,1.449-0.626,1.449-1.762v-2.101h2.994v2.004c0,2.463-1.449,4.467-4.443,4.467
		c-3.14,0-4.588-2.004-4.588-4.467V8.507c0-2.462,1.448-4.467,4.588-4.467c2.994,0,4.443,2.173,4.443,4.78v1.282H286.183z"/>
	<path fill="#003B3C" d="M293.423,21.715V4.28h2.996v7.101h3.186V4.28h2.996v17.435h-2.996V13.99h-3.186v7.725H293.423z"/>
	<path fill="#003B3C" d="M308.419,21.715h-2.898l3.211-17.435h3.719l3.211,17.435h-2.896l-0.531-3.862h-3.283L308.419,21.715z
		 M309.383,15.246h2.415l-1.186-7.487h-0.047L309.383,15.246z"/>
	<path fill="#003B3C" d="M321.601,21.715h-2.994V4.28h4.201c3.355,0,5.07,1.428,5.07,5.144c0,2.802-1.086,3.936-2.1,4.394
		l2.535,7.896h-3.043l-2.125-7.219c-0.388,0.047-1.014,0.073-1.545,0.073L321.601,21.715L321.601,21.715z M321.601,12.106h1.062
		c1.617,0,2.221-0.604,2.221-2.682c0-2.075-0.604-2.679-2.221-2.679h-1.062V12.106z"/>
	<path fill="#003B3C" d="M337.899,10.102V8.75c0-1.473-0.677-2.101-1.449-2.101c-1.209,0-1.595,0.628-1.595,1.931v8.837
		c0,1.306,0.386,1.932,1.595,1.932c1.084,0,1.449-0.626,1.449-1.762v-2.101h2.992v2.004c0,2.463-1.449,4.467-4.441,4.467
		c-3.141,0-4.59-2.004-4.59-4.467V8.507c0-2.462,1.449-4.467,4.59-4.467c2.992,0,4.441,2.173,4.441,4.78v1.282H337.899z"/>
	<path fill="#003B3C" d="M345.14,4.28h2.994v13.161c0,1.282,0.508,1.908,1.594,1.908c1.088,0,1.594-0.626,1.594-1.908V4.28h2.994
		v13.041c0,2.994-1.737,4.636-4.588,4.636c-2.85,0-4.588-1.642-4.588-4.636V4.28L345.14,4.28z"/>
	<path fill="#003B3C" d="M360.156,6.891h-2.896V4.28h8.79v2.61h-2.898v14.824h-2.995L360.156,6.891L360.156,6.891z"/>
	<path fill="#003B3C" d="M369.018,21.715V4.28h8.017v2.61h-5.021v4.491h3.864v2.609h-3.864v5.119h5.361v2.605L369.018,21.715
		L369.018,21.715z"/>
	<path fill="#003B3C" d="M383.94,21.715h-2.997V4.28h4.202c3.356,0,5.07,1.428,5.07,5.144c0,2.802-1.086,3.936-2.1,4.394
		l2.536,7.896h-3.042l-2.127-7.219c-0.386,0.047-1.014,0.073-1.543,0.073L383.94,21.715L383.94,21.715z M383.94,12.106h1.061
		c1.619,0,2.223-0.604,2.223-2.682c0-2.075-0.604-2.679-2.223-2.679h-1.061V12.106z"/>
	<path fill="#003B3C" d="M394.631,21.715V4.28h2.994v17.435H394.631z"/>
	<path fill="#003B3C" d="M402.12,21.715V4.28h8.016v2.61h-5.02v4.491h3.859v2.609h-3.859v5.119h5.359v2.605L402.12,21.715
		L402.12,21.715z"/>
	<path fill="#003B3C" d="M420.586,21.715V4.28h4.297c3.697,0,5.412,1.428,5.412,5.144c0,3.719-1.715,5.144-5.412,5.144h-1.301v7.146
		L420.586,21.715L420.586,21.715z M423.583,12.106h1.158c1.955,0,2.559-0.604,2.559-2.682c0-2.075-0.604-2.679-2.559-2.679h-1.158
		V12.106z"/>
	<path fill="#003B3C" d="M433.723,21.715V4.28h2.994v14.829h4.709v2.605L433.723,21.715L433.723,21.715z"/>
	<path fill="#003B3C" d="M446.204,21.715h-2.898l3.213-17.435h3.721l3.213,17.435h-2.898l-0.531-3.862h-3.283L446.204,21.715z
		 M447.17,15.246h2.412l-1.182-7.487h-0.051L447.17,15.246z"/>
	<path fill="#003B3C" d="M457.237,6.891h-2.896V4.28h8.791v2.61h-2.896v14.824h-2.994V6.891H457.237z"/>
	<path fill="#003B3C" d="M467.836,6.891h-2.896V4.28h8.791v2.61h-2.898v14.824h-2.994V6.891H467.836z"/>
	<path fill="#003B3C" d="M476.698,21.715V4.28h8.018v2.61h-5.02v4.491h3.859v2.609h-3.859v5.119h5.357v2.605L476.698,21.715
		L476.698,21.715z"/>
	<path fill="#003B3C" d="M491.62,21.715h-2.996V4.28h4.203c3.354,0,5.07,1.428,5.07,5.144c0,2.802-1.088,3.936-2.102,4.394
		l2.535,7.896h-3.043l-2.123-7.219c-0.387,0.047-1.016,0.073-1.547,0.073v7.147H491.62z M491.62,12.106h1.062
		c1.615,0,2.221-0.604,2.221-2.682c0-2.075-0.604-2.679-2.221-2.679h-1.062V12.106z"/>
</g>
<path fill="#003B3C" d="M261.913,13.863H0c-0.138,0-0.25-0.112-0.25-0.25s0.112-0.25,0.25-0.25h261.913
	c0.138,0,0.25,0.112,0.25,0.25S262.051,13.863,261.913,13.863z"/>
<path fill="#003B3C" d="M779.897,13.863H515.985c-0.138,0-0.25-0.112-0.25-0.25s0.112-0.25,0.25-0.25h263.912
	c0.138,0,0.25,0.112,0.25,0.25S780.035,13.863,779.897,13.863z"/>
<path fill="#003B3C" d="M779.899,102.727H589.397c-0.138,0-0.25-0.112-0.25-0.25s0.112-0.25,0.25-0.25h190.502
	c0.138,0,0.25,0.112,0.25,0.25S780.037,102.727,779.899,102.727z"/>
<path fill="#003B3C" d="M189.061,102.727H0c-0.138,0-0.25-0.112-0.25-0.25s0.112-0.25,0.25-0.25h189.061
	c0.138,0,0.25,0.112,0.25,0.25S189.199,102.727,189.061,102.727z"/>
<text transform="matrix(1 0 0 1 426.938 77.6855)" fill="#003B3C" font-family="'TradeGothic'" font-size="54.8724"> </text>
<g>
	<path fill="#003B3C" d="M219.971,105.098v0.354h-4.02v-0.354c1.177,0,1.388-0.299,1.388-2.053v-2.809
		c0-1.754-0.211-2.035-1.388-2.035V97.85h4.072h2.281l0.142,2.104h-0.369l-0.088-0.349c-0.211-0.811-0.422-1.125-2.035-1.125h-1.37
		v2.615h0.106c1.754,0,1.895-0.213,1.895-1.388h0.352v3.421h-0.352c0-1.156-0.141-1.387-1.895-1.387h-0.106v1.3
		C218.584,104.799,218.796,105.098,219.971,105.098z"/>
	<path fill="#003B3C" d="M227.995,104.958c1.229,0,2.141-0.702,2.141-2.229v-2.492c0-1.754-0.21-2.033-1.386-2.033v-0.352h3.58
		v0.352c-1.159,0-1.388,0.279-1.388,2.033v2.371c0,2.055-1.42,3.123-3.141,3.123c-1.72,0-3.125-1.068-3.125-3.123v-2.371
		c0-1.754-0.209-2.033-1.385-2.033v-0.352h4.019v0.352c-1.158,0-1.387,0.279-1.387,2.033v2.492
		C225.924,104.256,226.767,104.958,227.995,104.958z"/>
	<path fill="#003B3C" d="M233.651,98.201V97.85h4.019v0.353c-1.175,0-1.386,0.28-1.386,2.034v2.527c0,1.754,0.211,2.034,1.386,2.034
		h0.614c1.615,0,1.825-0.297,2.036-1.123l0.089-0.351h0.367l-0.123,2.124h-7.002v-0.353c1.176,0,1.387-0.3,1.387-2.054v-2.81
		C235.038,98.482,234.827,98.201,233.651,98.201z"/>
	<path fill="#003B3C" d="M241.431,98.201V97.85h4.018v0.353c-1.175,0-1.385,0.28-1.385,2.034v2.527c0,1.754,0.21,2.034,1.385,2.034
		h0.614c1.616,0,1.825-0.297,2.036-1.123l0.089-0.351h0.368l-0.123,2.124h-7.002v-0.353c1.175,0,1.387-0.3,1.387-2.054v-2.81
		C242.817,98.482,242.605,98.201,241.431,98.201z"/>
	<path fill="#003B3C" d="M256.194,105.746c-0.911,0-1.648-0.439-1.965-0.648c-0.105,0.125-0.281,0.354-0.333,0.648h-0.316v-3.018
		h0.351c0.141,1.492,1.089,2.334,2.404,2.334c0.755,0,1.352-0.422,1.352-1.178c0-0.611-0.49-1.088-1.439-1.561l-1.192-0.615
		c-0.843-0.438-1.456-1.157-1.456-2.143c0-1.104,0.929-2,2.193-2c0.736,0,1.298,0.266,1.666,0.524
		c0.089-0.104,0.229-0.261,0.264-0.542h0.351v2.965h-0.351c-0.105-1.053-0.58-2.299-1.844-2.299c-0.684,0-1.263,0.369-1.263,1.02
		c0,0.613,0.456,0.947,1.526,1.51l1.176,0.611c1.002,0.512,1.369,1.301,1.369,1.984
		C258.687,104.782,257.547,105.746,256.194,105.746z"/>
	<path fill="#003B3C" d="M266.554,103.676l0.088-0.351h0.35l-0.139,2.124h-6.564v-0.352c1.176,0,1.387-0.301,1.387-2.055v-2.811
		c0-1.754-0.211-2.033-1.387-2.033v-0.35h3.879h2.264l0.141,2.104h-0.368l-0.089-0.351c-0.191-0.809-0.42-1.123-2.018-1.123h-1.176
		v2.615h0.105c1.754,0,1.895-0.213,1.895-1.388h0.352v3.421h-0.352c0-1.156-0.141-1.387-1.895-1.387h-0.105v1.019
		c0,1.755,0.21,2.035,1.387,2.035h0.211C266.114,104.799,266.343,104.502,266.554,103.676z"/>
	<path fill="#003B3C" d="M274.034,103.467c0.701,0.824,1.509,1.508,2.352,1.631v0.354h-2.246l-2.387-3.266h-0.491v0.859
		c0,1.754,0.21,2.053,1.386,2.053v0.354h-4.02v-0.354c1.176,0,1.387-0.299,1.387-2.053v-2.809c0-1.754-0.211-2.035-1.387-2.035
		V97.85h3.634c1.808,0,2.808,0.933,2.808,2.176c0,1.072-0.807,1.949-2.123,2.125L274.034,103.467z M272.262,98.482h-1v3.053h1
		c0.981,0,1.438-0.684,1.438-1.51C273.7,99.184,273.243,98.482,272.262,98.482z"/>
	<path fill="#003B3C" d="M283.567,99.745l-2.598,6.001h-0.229l-2.596-6.001c-0.562-1.333-0.791-1.544-1.703-1.544V97.85h3.931v0.353
		c-1.264,0-1.386,0.315-0.947,1.334l1.79,4.141l1.772-4.141c0.456-1.035,0.456-1.334-0.931-1.334V97.85h3.3v0.353
		C284.287,98.201,284.129,98.412,283.567,99.745z"/>
	<path fill="#003B3C" d="M286.169,105.449v-0.352c1.176,0,1.387-0.301,1.387-2.055v-2.811c0-1.754-0.211-2.033-1.387-2.033v-0.35
		h4.02V98.2c-1.176,0-1.387,0.28-1.387,2.034v2.81c0,1.754,0.211,2.054,1.387,2.054v0.353L286.169,105.449L286.169,105.449z"/>
	<path fill="#003B3C" d="M291.822,98.201V97.85h2.159l4.667,5.545v-3.158c0-1.754-0.21-2.034-1.386-2.034V97.85h3.422v0.353
		c-1.175,0-1.385,0.28-1.385,2.034v5.492h-0.334l-5.107-6.123v3.438c0,1.754,0.211,2.054,1.387,2.054v0.353h-3.423v-0.353
		c1.176,0,1.387-0.3,1.387-2.054v-2.81C293.209,98.482,292.998,98.201,291.822,98.201z"/>
	<path fill="#003B3C" d="M306.172,105.746c-2.192,0-3.966-1.84-3.966-4.105c0-2.229,1.773-4.088,3.966-4.088
		c0.845,0,1.792,0.49,2.319,1.156c0.12-0.141,0.244-0.578,0.312-0.857h0.334v3.034h-0.352c-0.332-1.632-1.262-2.667-2.614-2.667
		c-1.964,0-2.579,1.949-2.579,3.422c0,1.491,0.615,3.422,2.579,3.422c0.879,0,2.229-0.543,2.229-1.489
		c0-0.703-0.647-1.071-1.51-1.071v-0.352h3.88v0.352c-1.177,0-1.387,0.299-1.387,2.055c0,0,0,0.334,0,0.525
		C308.278,105.08,307.192,105.746,306.172,105.746z"/>
	<path fill="#003B3C" d="M314.707,105.746c-0.913,0-1.65-0.439-1.966-0.648c-0.104,0.125-0.281,0.354-0.332,0.648h-0.317v-3.018
		h0.352c0.142,1.492,1.089,2.334,2.405,2.334c0.754,0,1.35-0.422,1.35-1.178c0-0.611-0.49-1.088-1.439-1.561l-1.191-0.615
		c-0.844-0.438-1.458-1.157-1.458-2.143c0-1.104,0.93-2,2.194-2c0.737,0,1.299,0.266,1.668,0.524
		c0.086-0.104,0.227-0.261,0.262-0.542h0.352v2.965h-0.352c-0.105-1.053-0.579-2.299-1.844-2.299c-0.682,0-1.262,0.369-1.262,1.02
		c0,0.613,0.456,0.947,1.527,1.51l1.175,0.611c1.001,0.512,1.368,1.301,1.368,1.984
		C317.198,104.782,316.058,105.746,314.707,105.746z"/>
	<path fill="#003B3C" d="M327.366,105.746c-2.352,0-4.283-1.84-4.283-4.105c0-2.229,1.932-4.088,4.283-4.088
		c2.351,0,4.282,1.859,4.282,4.088C331.648,103.906,329.718,105.746,327.366,105.746z M327.366,98.219
		c-2.07,0-2.842,1.912-2.842,3.422c0,1.527,0.771,3.422,2.842,3.422c2.071,0,2.842-1.895,2.842-3.422
		C330.208,100.131,329.437,98.219,327.366,98.219z"/>
	<path fill="#003B3C" d="M337.479,105.098v0.354h-4.018v-0.354c1.175,0,1.385-0.299,1.385-2.053v-2.809
		c0-1.754-0.21-2.035-1.385-2.035V97.85h4.07h2.283l0.139,2.104h-0.368l-0.089-0.349c-0.209-0.811-0.419-1.125-2.035-1.125h-1.368
		v2.615h0.105c1.755,0,1.895-0.213,1.895-1.388h0.352v3.421h-0.352c0-1.156-0.14-1.387-1.895-1.387h-0.105v1.3
		C336.094,104.799,336.305,105.098,337.479,105.098z"/>
	<path fill="#003B3C" d="M346.805,103.748c-0.438,1.034-0.438,1.332,0.948,1.332v0.369h-3.316v-0.369
		c1.069,0,1.227-0.21,1.808-1.525l2.577-6.002h0.248l2.578,6.002c0.58,1.315,0.791,1.525,1.721,1.525v0.369h-3.931v-0.369
		c1.263,0,1.387-0.298,0.947-1.332l-0.349-0.809h-2.882L346.805,103.748z M348.595,99.605l-1.157,2.684h2.315L348.595,99.605z"/>
	<path fill="#003B3C" d="M354.216,98.201V97.85h4.018v0.353c-1.176,0-1.387,0.28-1.387,2.034v2.527c0,1.754,0.211,2.034,1.387,2.034
		h0.616c1.614,0,1.823-0.297,2.036-1.123l0.086-0.351h0.368l-0.122,2.124h-7.002v-0.353c1.174,0,1.387-0.3,1.387-2.054v-2.81
		C355.603,98.482,355.39,98.201,354.216,98.201z"/>
	<path fill="#003B3C" d="M361.993,98.201V97.85h4.02v0.353c-1.175,0-1.387,0.28-1.387,2.034v2.527c0,1.754,0.212,2.034,1.387,2.034
		h0.613c1.616,0,1.826-0.297,2.035-1.123l0.091-0.351h0.366l-0.121,2.124h-7.004v-0.353c1.178,0,1.387-0.3,1.387-2.054v-2.81
		C363.38,98.482,363.171,98.201,361.993,98.201z"/>
	<path fill="#003B3C" d="M375.478,103.748c-0.439,1.034-0.439,1.332,0.947,1.332v0.369h-3.318v-0.369
		c1.072,0,1.231-0.21,1.811-1.525l2.58-6.002h0.245l2.58,6.002c0.579,1.315,0.789,1.525,1.72,1.525v0.369h-3.932v-0.369
		c1.265,0,1.387-0.298,0.947-1.332l-0.352-0.809h-2.876L375.478,103.748z M377.269,99.605l-1.16,2.684h2.319L377.269,99.605z"/>
	<path fill="#003B3C" d="M382.889,105.098c1.176,0,1.387-0.299,1.387-2.053v-2.809c0-1.754-0.211-2.035-1.387-2.035V97.85h1.966
		h1.735c1.651,0,2.53,0.842,2.53,1.931c0,0.614-0.302,1.143-0.756,1.512c0.877,0.385,1.367,1.123,1.367,1.999
		c0,1.229-0.981,2.159-2.79,2.159h-2.087h-1.966L382.889,105.098L382.889,105.098z M386.521,98.482h-1.001v2.615h1.001
		c0.842,0,1.229-0.6,1.229-1.281C387.75,99.113,387.363,98.482,386.521,98.482z M386.924,101.799h-1.403v1.668
		c0,1.141,0.122,1.332,1.069,1.332h0.334c1.001,0,1.458-0.666,1.458-1.49C388.382,102.482,387.925,101.799,386.924,101.799z"/>
	<path fill="#003B3C" d="M395.967,105.746c-2.352,0-4.279-1.84-4.279-4.105c0-2.229,1.93-4.088,4.279-4.088
		c2.355,0,4.283,1.859,4.283,4.088C400.25,103.906,398.321,105.746,395.967,105.746z M395.967,98.219
		c-2.07,0-2.842,1.912-2.842,3.422c0,1.527,0.771,3.422,2.842,3.422c2.072,0,2.844-1.895,2.844-3.422
		C398.813,100.131,398.04,98.219,395.967,98.219z"/>
	<path fill="#003B3C" d="M407.899,99.745l-2.596,6.001h-0.229l-2.602-6.001c-0.561-1.333-0.789-1.544-1.699-1.544V97.85h3.932v0.353
		c-1.264,0-1.387,0.315-0.947,1.334l1.789,4.141l1.771-4.141c0.457-1.035,0.457-1.334-0.932-1.334V97.85h3.303v0.353
		C408.62,98.201,408.461,98.412,407.899,99.745z"/>
	<path fill="#003B3C" d="M416.77,103.676l0.088-0.351h0.35l-0.139,2.124h-6.564v-0.352c1.176,0,1.385-0.301,1.385-2.055v-2.811
		c0-1.754-0.209-2.033-1.385-2.033v-0.35h3.879h2.266l0.143,2.104h-0.369l-0.088-0.351c-0.193-0.809-0.422-1.123-2.02-1.123h-1.178
		v2.615h0.105c1.756,0,1.895-0.213,1.895-1.388h0.355v3.421h-0.355c0-1.156-0.139-1.387-1.895-1.387h-0.105v1.019
		c0,1.755,0.211,2.035,1.391,2.035h0.209C416.331,104.799,416.557,104.502,416.77,103.676z"/>
	<path fill="#003B3C" d="M429.727,105.449c-0.07-0.314-0.191-0.737-0.314-0.859c-0.527,0.648-1.477,1.156-2.316,1.156
		c-2.191,0-3.967-1.84-3.967-4.105c0-2.229,1.773-4.088,3.967-4.088c0.844,0,1.789,0.49,2.316,1.156
		c0.123-0.141,0.244-0.578,0.314-0.857h0.336v3.034h-0.354c-0.334-1.632-1.266-2.667-2.615-2.667c-1.965,0-2.545,1.949-2.545,3.422
		c0,1.491,0.58,3.422,2.545,3.422c1.352,0,2.281-1.035,2.615-2.668h0.354v3.057L429.727,105.449L429.727,105.449z"/>
	<path fill="#003B3C" d="M438.629,101.098v-0.861c0-1.754-0.211-2.033-1.387-2.033v-0.352h4.018v0.352
		c-1.156,0-1.385,0.279-1.385,2.033v2.811c0,1.754,0.229,2.055,1.385,2.055v0.352h-4.018V105.1c1.176,0,1.387-0.3,1.387-2.054v-1.3
		h-3.982v1.3c0,1.754,0.209,2.054,1.387,2.054v0.353h-4.02V105.1c1.176,0,1.387-0.3,1.387-2.054v-2.81
		c0-1.754-0.211-2.034-1.387-2.034v-0.351h4.02v0.351c-1.178,0-1.387,0.28-1.387,2.034v0.861H438.629L438.629,101.098z"/>
	<path fill="#003B3C" d="M444.514,103.748c-0.438,1.034-0.438,1.332,0.947,1.332v0.369h-3.314v-0.369
		c1.068,0,1.229-0.21,1.807-1.525l2.58-6.002h0.246l2.58,6.002c0.578,1.315,0.789,1.525,1.719,1.525v0.369h-3.932v-0.369
		c1.264,0,1.387-0.298,0.947-1.332l-0.352-0.809h-2.877L444.514,103.748z M446.305,99.605l-1.158,2.684h2.314L446.305,99.605z"/>
	<path fill="#003B3C" d="M457.331,103.467c0.703,0.824,1.508,1.508,2.352,1.631v0.354h-2.242l-2.391-3.266h-0.49v0.859
		c0,1.754,0.209,2.053,1.389,2.053v0.354h-4.021v-0.354c1.174,0,1.387-0.299,1.387-2.053v-2.809c0-1.754-0.213-2.035-1.387-2.035
		V97.85h3.631c1.812,0,2.812,0.933,2.812,2.176c0,1.072-0.811,1.949-2.123,2.125L457.331,103.467z M455.557,98.482h-0.998v3.053
		h0.998c0.984,0,1.441-0.684,1.441-1.51C456.999,99.184,456.542,98.482,455.557,98.482z"/>
	<path fill="#003B3C" d="M467.233,105.449c-0.07-0.314-0.193-0.737-0.314-0.859c-0.527,0.648-1.475,1.156-2.318,1.156
		c-2.189,0-3.965-1.84-3.965-4.105c0-2.229,1.771-4.088,3.965-4.088c0.846,0,1.791,0.49,2.318,1.156
		c0.121-0.141,0.244-0.578,0.314-0.857h0.334v3.034h-0.354c-0.334-1.632-1.264-2.667-2.613-2.667c-1.967,0-2.545,1.949-2.545,3.422
		c0,1.491,0.578,3.422,2.545,3.422c1.352,0,2.279-1.035,2.613-2.668h0.354v3.057L467.233,105.449L467.233,105.449z"/>
	<path fill="#003B3C" d="M473.924,104.958c1.23,0,2.143-0.702,2.143-2.229v-2.492c0-1.754-0.213-2.033-1.389-2.033v-0.352h3.58
		v0.352c-1.158,0-1.387,0.279-1.387,2.033v2.371c0,2.055-1.42,3.123-3.141,3.123c-1.723,0-3.125-1.068-3.125-3.123v-2.371
		c0-1.754-0.209-2.033-1.389-2.033v-0.352h4.021v0.352c-1.158,0-1.389,0.279-1.389,2.033v2.492
		C471.854,104.256,472.698,104.958,473.924,104.958z"/>
	<path fill="#003B3C" d="M481.229,98.534c-1.613,0-1.754,0.298-1.967,1.124l-0.086,0.351h-0.352l0.104-2.157h7.826l0.123,2.157
		h-0.369l-0.086-0.351c-0.211-0.826-0.424-1.124-2.037-1.124h-0.912v4.511c0,1.754,0.23,2.053,1.402,2.053v0.354h-4.035v-0.354
		c1.18,0,1.402-0.299,1.402-2.053v-4.511H481.229z"/>
	<path fill="#003B3C" d="M493.993,103.676l0.09-0.351h0.35l-0.141,2.124h-6.561v-0.352c1.176,0,1.387-0.301,1.387-2.055v-2.811
		c0-1.754-0.211-2.033-1.387-2.033v-0.35h3.877h2.266l0.141,2.104h-0.369l-0.088-0.351c-0.191-0.809-0.422-1.123-2.018-1.123h-1.176
		v2.615h0.104c1.756,0,1.896-0.213,1.896-1.388h0.352v3.421h-0.352c0-1.156-0.143-1.387-1.896-1.387h-0.104v1.019
		c0,1.755,0.209,2.035,1.387,2.035h0.211C493.555,104.799,493.782,104.502,493.993,103.676z"/>
	<path fill="#003B3C" d="M501.473,103.467c0.703,0.824,1.51,1.508,2.354,1.631v0.354h-2.246l-2.389-3.266h-0.49v0.859
		c0,1.754,0.211,2.053,1.387,2.053v0.354h-4.02v-0.354c1.176,0,1.387-0.299,1.387-2.053v-2.809c0-1.754-0.211-2.035-1.387-2.035
		V97.85h3.631c1.811,0,2.809,0.933,2.809,2.176c0,1.072-0.805,1.949-2.121,2.125L501.473,103.467z M499.7,98.482h-0.998v3.053h0.998
		c0.982,0,1.439-0.684,1.439-1.51C501.141,99.184,500.684,98.482,499.7,98.482z"/>
	<path fill="#003B3C" d="M504.584,105.449v-0.352c1.176,0,1.385-0.301,1.385-2.055v-2.811c0-1.754-0.209-2.033-1.385-2.033v-0.35
		h4.02V98.2c-1.176,0-1.387,0.28-1.387,2.034v2.81c0,1.754,0.211,2.054,1.387,2.054v0.353L504.584,105.449L504.584,105.449z"/>
	<path fill="#003B3C" d="M516.504,103.676l0.088-0.351h0.35l-0.139,2.124h-6.562v-0.352c1.174,0,1.385-0.301,1.385-2.055v-2.811
		c0-1.754-0.211-2.033-1.385-2.033v-0.35h3.877h2.264l0.145,2.104h-0.369l-0.088-0.351c-0.191-0.809-0.422-1.123-2.021-1.123h-1.172
		v2.615h0.104c1.756,0,1.895-0.213,1.895-1.388h0.355v3.421h-0.355c0-1.156-0.139-1.387-1.895-1.387h-0.104v1.019
		c0,1.755,0.209,2.035,1.387,2.035h0.209C516.065,104.799,516.292,104.502,516.504,103.676z"/>
	<path fill="#003B3C" d="M522.672,105.449v-0.352c1.174,0,1.383-0.301,1.383-2.055v-2.811c0-1.754-0.209-2.033-1.383-2.033v-0.35
		h4.018V98.2c-1.176,0-1.387,0.28-1.387,2.034v2.81c0,1.754,0.211,2.054,1.387,2.054v0.353L522.672,105.449L522.672,105.449z"/>
	<path fill="#003B3C" d="M529.973,98.534c-1.611,0-1.754,0.298-1.965,1.124l-0.088,0.351h-0.35l0.104-2.157h7.824l0.125,2.157
		h-0.369l-0.088-0.351c-0.213-0.826-0.422-1.124-2.035-1.124h-0.914v4.511c0,1.754,0.23,2.053,1.404,2.053v0.354h-4.037v-0.354
		c1.178,0,1.404-0.299,1.404-2.053v-4.511H529.973z"/>
	<path fill="#003B3C" d="M542.739,103.676l0.084-0.351h0.352l-0.137,2.124h-6.564v-0.352c1.178,0,1.389-0.301,1.389-2.055v-2.811
		c0-1.754-0.211-2.033-1.389-2.033v-0.35h3.877h2.268l0.141,2.104h-0.369l-0.088-0.351c-0.191-0.809-0.422-1.123-2.02-1.123h-1.176
		v2.615h0.105c1.754,0,1.895-0.213,1.895-1.388h0.354v3.421h-0.354c0-1.156-0.141-1.387-1.895-1.387h-0.105v1.019
		c0,1.755,0.209,2.035,1.389,2.035h0.209C542.299,104.799,542.526,104.502,542.739,103.676z"/>
	<path fill="#003B3C" d="M546.846,103.045c0,1.754,0.213,2.053,1.389,2.053v0.354h-3.422v-0.354c1.176,0,1.387-0.299,1.387-2.053
		v-2.809c0-1.754-0.211-2.035-1.387-2.035V97.85h2.633l2.615,5.86l2.596-5.86h2.459v0.353c-1.178,0-1.404,0.28-1.404,2.034v2.81
		c0,1.754,0.23,2.054,1.404,2.054v0.353h-4.021V105.1c1.178,0,1.391-0.3,1.391-2.054v-3.282l-2.65,5.983h-0.246l-2.738-6.211v3.51
		L546.846,103.045L546.846,103.045z"/>
	<path fill="#003B3C" d="M559.614,105.746c-0.914,0-1.65-0.439-1.965-0.648c-0.107,0.125-0.281,0.354-0.336,0.648h-0.314v-3.018
		h0.35c0.145,1.492,1.092,2.334,2.404,2.334c0.754,0,1.352-0.422,1.352-1.178c0-0.611-0.488-1.088-1.438-1.561l-1.193-0.615
		c-0.844-0.438-1.457-1.157-1.457-2.143c0-1.104,0.934-2,2.193-2c0.736,0,1.299,0.266,1.668,0.524
		c0.088-0.104,0.23-0.261,0.264-0.542h0.354v2.965h-0.354c-0.104-1.053-0.576-2.299-1.844-2.299c-0.684,0-1.264,0.369-1.264,1.02
		c0,0.613,0.457,0.947,1.525,1.51l1.18,0.611c0.998,0.512,1.367,1.301,1.367,1.984C562.104,104.782,560.963,105.746,559.614,105.746
		z"/>
</g>
<g>
	<path fill="#003B3C" d="M360.97,32.456h3.417v5.011c3.188,0.627,6.036,2.506,7.915,5.183l-4.328,3.701
		c-0.854-1.424-1.822-2.904-3.587-3.303v11.788c4.84,3.076,9.225,6.321,9.225,12.698c0,5.694-3.245,10.534-9.225,11.049v6.604
		h-3.417v-6.604c-3.93-0.397-7.175-3.246-9.226-6.437l4.727-3.588c0.74,1.992,2.278,3.931,4.499,4.558V59.732
		c-4.385-2.678-8.655-6.208-8.655-11.73c0-5.296,3.074-9.795,8.655-10.535L360.97,32.456L360.97,32.456z M360.97,43.047
		c-1.766,0.569-2.848,2.278-2.848,4.214c0,2.506,1.082,4.101,2.848,5.694V43.047z M364.387,73.115
		c2.335-0.911,3.188-2.678,3.188-5.297c0-2.789-1.31-4.213-3.188-5.922V73.115z"/>
	<path fill="#003B3C" d="M379.247,78.582v-5.523c8.77-12.812,13.55-19.874,13.55-25.91c0-3.246-1.252-4.67-3.19-4.67
		c-2.272,0-3.413,1.766-3.413,4.271v2.791h-6.72v-1.937c0-6.036,3.872-10.706,10.475-10.706c5.809,0,9.567,4.328,9.567,9.111
		c0,6.492-2.051,11.275-13.096,26.765h12.471v5.812L379.247,78.582L379.247,78.582z"/>
	<path fill="#003B3C" d="M412.67,66.682v3.303c0,2.223,1.252,3.586,3.131,3.586c2.223,0,3.475-1.31,3.475-5.01v-9.34
		c0-2.677-1.365-3.759-2.961-3.759c-2.164,0-3.188,1.424-3.814,3.132h-5.467c0.229-6.378,0.514-11.389,0.514-21.127h17.145
		l-0.23,5.809h-11.104l-0.398,8.884l0.113,0.114c1.768-2.107,3.246-2.393,5.41-2.393c5.408,0,7.518,3.93,7.518,10.821v5.692
		c0,8.655-2.73,12.756-9.564,12.756c-5.695,0-10.139-2.506-10.139-9.338v-3.134L412.67,66.682L412.67,66.682z"/>
</g>
<g>
	<path fill="#003B3C" d="M240.185,52.835c0.841-0.037,1.332-0.157,1.778-0.062c2.846,0.602,5.678,1.724,8.528,1.775
		c4.253,0.08,8.515-0.74,12.779-0.89c4.113-0.142,7.163,4.107,6.246,8.129c-1.044,4.573-5.683,5.401-10.854,4.084
		c-3.512-0.895-6.92-1.587-10.544-0.757c-2.544,0.584-5.154,0.892-7.98,1.362c0.851-3.026,2.762-4.693,5.612-5.345
		c4.346-0.991,8.635-0.931,12.927,0.481c1.614,0.533,3.4,0.771,5.1,0.732c0.722-0.017,1.81-0.978,2.016-1.713
		c0.176-0.619-0.511-2.014-1.109-2.22c-1.436-0.497-3.273-1.083-4.539-0.589c-3.602,1.412-7.172,1.108-10.857,0.918
		C245.234,58.531,242.41,56.691,240.185,52.835 M276.846,60.149c-1.483-0.793-2.471-3.136-4.842-1.384
		c0.855,0.501,1.685,0.986,2.742,1.607c-1.543,0.883-2.975,1.197-3.237-0.643c-1.111-7.75-7.041-9.143-13.703-7.963
		c-4.079,0.722-8.33,0.819-12.478,0.664c-2.124-0.08-4.204-1.333-6.899-1.599c1.015,2.274,2.028,4.552,3.22,7.232
		c-1-0.621-1.851-1.151-2.697-1.681c0.099-0.245,0.195-0.49,0.294-0.736c-2.757,0.095-3.354,2.21-3.841,4.36
		c-2.308,0.172-4.555,0.365-6.806,0.471c-0.24,0.011-0.502-0.497-0.758-0.763l0.027,0.006c-2.251-1.863-4.87,0.365-7.253-0.567
		c-0.195-0.077-0.934,1.231-1.415,1.897c0.688,0.355,1.604,1.188,2.033,0.989c2.572-1.204,4.101,0.544,6.123,1.975
		c-1.047-3.254,1.052-3.247,2.942-2.989c2.776,0.383,5.987-0.432,7.802,2.642c0.81-0.678,1.442-1.201,2.07-1.729
		c0.195,0.183,0.39,0.359,0.583,0.54c-0.886,1.844-1.772,3.688-2.909,6.054c1.201-0.181,2.125-0.118,2.858-0.462
		c4.516-2.119,9.048-2.057,13.793-0.741c2.673,0.741,5.519,1.085,8.3,1.197c4.083,0.163,6.907-2.137,8.511-6.463
		c2.026-0.028,4.642,1.354,5.463-2.005C276.765,60.057,276.846,60.149,276.846,60.149"/>
	<path fill="#003B3C" d="M294.676,68.458c-0.92-1.079-1.839-2.157-2.757-3.234c0.886-0.32,1.926-1.104,2.626-0.87
		C296.363,64.959,296.215,66.438,294.676,68.458 M297.661,68.716c-0.267-0.283-0.535-0.567-0.802-0.851
		c0.075-1.661,0.294-3.353,2.422-3.57c0.563-0.058,1.229,0.912,1.848,1.41C299.974,66.709,298.817,67.713,297.661,68.716
		 M307.337,63.981c-1.608,0.653-3.215,1.305-4.819,1.956c-0.266-0.254-0.537-0.508-0.801-0.761c0.666-1.025,1.109-2.5,2.052-2.969
		C305.084,61.558,306.718,61.77,307.337,63.981 M290.367,59.397c5.844-4.116,8.988-3.841,13.192,1.019
		C296.165,65.03,296.58,64.476,290.367,59.397 M277.998,59.729c0.879,0.812,1.638,1.858,2.663,2.396
		c4.535,2.377,9.057,4.82,13.776,6.771c1.523,0.63,3.791,0.232,5.459-0.396c4.47-1.679,8.827-3.682,13.174-5.676
		c1.317-0.604,2.454-1.604,3.838-2.529c-0.37-0.481-0.58-1.006-0.963-1.217c-5.779-3.147-11.571-6.276-17.391-9.343
		c-0.447-0.234-1.219-0.159-1.719,0.051c-6.031,2.532-12.065,5.054-18.019,7.757c-0.869,0.397-1.329,1.711-1.973,2.601
		c0.004,0.004-0.082-0.089-0.075-0.086c0.415-0.107,0.823-0.218,1.233-0.329c1.001-0.44,1.993-0.913,3.009-1.315
		c1.683-0.664,3.383-1.283,5.079-1.924c1.775-0.319,4.028,0.854,5.008-2.205c0.082-0.256,0.503-0.499,0.808-0.574
		c1.822-0.449,3.658-0.849,5.755-1.324c1.417,2.274,5.854,1.35,7.374,4.688c3.589-0.488,5.817,2.309,8.827,3.501
		c-1.079,0.896-2.102,1.526-3.207,1.921c-0.834,0.302-1.773,0.293-2.665,0.422c0.584-0.791,1.143-1.6,1.762-2.362
		c0.176-0.219,0.516-0.31,0.782-0.46c-0.006-0.279-0.013-0.561-0.019-0.84c-1.468-0.097-2.947-0.116-4.399-0.318
		c-1.131-0.159-2.659-0.195-3.25-0.913c-1.025-1.24-1.896-2.049-3.58-1.769c-0.426,0.07-0.92-0.472-1.417-0.606
		c-0.733-0.198-1.614-0.595-2.22-0.355c-1.556,0.614-2.97,1.569-4.481,2.306c-0.84,0.411-1.739,0.827-2.65,0.954
		c-2.51,0.354-5.044,0.557-8.193,0.884c2.309,1.711,6.072-0.959,6.031,3.798c0.591-0.823,0.821-1.426,1.07-1.438
		c1.122-0.052,2.325-0.144,3.344,0.222c0.447,0.161,0.916,1.547,0.686,2.082c-0.943,2.188-2.472,1.148-3.875,0.441
		C284.386,62.938,281.192,61.334,277.998,59.729"/>
	<path fill="#003B3C" d="M227.108,53.106c-0.139,1.91-0.229,3.154-0.321,4.421c2.245-1.257,1.741-3.284,1.117-5.058
		c-0.132-0.376-2.52-0.608-2.925-0.125c-1.77,2.139-4.105,2.787-6.581,3.527c-1.101,0.329-1.888,1.705-2.806,2.59h-4.584
		c-0.306-1.505-0.7-3.458-1.039-5.142c-2.344-0.971-4.705-1.949-7.082-2.934c-2.016,0.524-4.252,1.105-6.428,1.672
		c-0.575,2.173-1.217,4.617-1.862,7.056c1.069-2.398,2.856-2.016,4.805-1.166c0.107-0.188,0.218-0.374,0.326-0.562
		c-0.385-0.587-0.85-1.137-1.134-1.772c-0.313-0.699-0.456-1.472-0.673-2.211c0.803,0.228,1.681,0.325,2.378,0.731
		c0.535,0.312,0.837,1.019,1.692,2.144c0-1.393-0.183-2.165,0.051-2.775c0.229-0.591,0.89-1.015,1.358-1.513
		c0.302,0.526,0.755,1.021,0.874,1.586c0.151,0.727,0.038,1.51,0.038,2.298c1.388-0.711,2.629-1.35,3.873-1.988
		c0.247,0.314,0.489,0.623,0.732,0.936c-0.922,1.091-1.846,2.177-3.056,3.598c0.858,0.135,1.666,0.099,2.317,0.397
		c1.312,0.6,3.372,1.158,3.637,2.134c0.733,2.706,2.016,2.053,3.347,1.932c1.853,0.819,3.738,1.578,5.548,2.487
		c1.371,0.689,2.638,1.584,3.961,2.377c0.858,0.516,1.73,1.012,2.595,1.515c0.478-1.199,0.957-2.398,1.435-3.6
		c-0.242-0.09-0.482-0.181-0.722-0.271c-0.311,0.684-0.62,1.364-0.928,2.046c-0.821-0.437-2.137-0.69-2.368-1.335
		c-0.763-2.121-2.627-1.978-4.175-2.394c-1.76-0.476-3.669-0.826-3.466-3.145c0.191-2.203,1.512-3.431,3.93-3.248
		c1.057,0.08,2.071,0.256,2.47-1.507C223.657,54.843,225.476,54.243,227.108,53.106"/>
	<path fill="#003B3C" d="M188.765,57.13c-0.985-1.455-2.504-2.614-5.09-2.493c-1.131,0.054-2.291-1.643-3.535-2.382
		c-0.884-0.526-2.176-1.317-2.841-1.012c-0.685,0.312-0.828,1.805-1.208,2.783c0.206,0.095,0.416,0.191,0.622,0.288
		c0.365-0.548,0.731-1.096,1.196-1.792c0.268,0.161,0.71,0.269,0.785,0.497c0.857,2.578,2.92,2.97,5.261,3.285
		c3.084,0.412,3.872,1.47,3.348,4.072c-0.146,0.72-0.966,1.892-1.422,1.868c-3.054-0.168-4.436,2.413-6.58,3.705
		c-0.212,0.124-0.464,0.181-0.695,0.271c-1.145-2.678,0.987-5.764,3.913-5.728c0.605,0.007,1.344,0.315,1.785,0.064
		c0.475-0.271,0.942-1.053,0.9-1.571c-0.031-0.36-1.096-1.044-1.409-0.911c-2.709,1.169-4.597-0.086-6.675-2.346
		c-0.237,1.234-0.409,2.12-0.633,3.289c-2.076-0.299-4.277-0.616-6.638-0.956c-0.678,1.64-0.392,2.523,1.703,2.443
		c2.282-0.088,4.569-0.02,7.093-0.02c-0.669,1.894-1.421,3.383-1.671,4.952c-0.136,0.877,0.561,1.887,0.884,2.833
		c0.89-0.379,1.823-0.686,2.661-1.156c1.651-0.931,3.255-1.941,4.869-2.938c1.071-0.664,2.117-1.375,3.186-2.048
		c0.41-0.254,0.922-0.72,1.266-0.63c1.452,0.38,2.503,0.032,2.837-1.459c0.171-0.778,0.187-2.212-0.161-2.366
		C191.529,57.235,190.316,57.309,188.765,57.13"/>
	<path fill="#003B3C" d="M203.811,62.333c0,1.19,0.097,2.008-0.032,2.787c-0.093,0.544-0.491,1.038-0.753,1.555
		c-0.517-0.37-1.243-0.628-1.505-1.133c-0.454-0.87-0.618-1.89-0.906-2.846c-0.341-0.058-0.682-0.118-1.024-0.177
		c-0.486,1.421-0.973,2.844-1.332,3.887c1.935,0.681,3.31,1.162,4.855,1.708c1.741-0.821,3.896-1.838,6.475-3.052
		c0.291-1.015,0.73-2.553,1.23-4.296c-1.815,0.101-3.131,0.172-4.861,0.267c1.092,1.207,1.955,2.164,2.87,3.181
		C206.199,66.124,205.535,63.48,203.811,62.333"/>
	<path fill="#003B3C" d="M205.891,59.365c-1.375-1.09-2.251-2.339-3.18-2.382c-1.26-0.058-2.627,0.562-2.548,2.545
		c0.087,2.223,1.727,2.39,3.081,2.349C203.978,61.855,204.673,60.579,205.891,59.365"/>
	<path fill="#003B3C" d="M228.883,62.993c0.311,1.162,0.462,2.282,0.917,3.262c0.298,0.639,1.077,1.541,1.562,1.496
		c0.766-0.073,1.772-0.694,2.091-1.364c0.22-0.458-0.363-1.718-0.924-2.044C231.384,63.67,230.008,63.384,228.883,62.993"/>
	<path fill="#003B3C" d="M177.273,61.179c-1.89,0.596-3.287,0.941-4.597,1.496c-0.532,0.226-1.226,0.915-1.216,1.382
		c0.015,0.684,0.444,1.571,0.99,1.958c0.363,0.256,1.503,0.004,1.835-0.397C175.323,64.345,176.145,62.898,177.273,61.179"/>
	<path fill="#003B3C" d="M227.843,59.716c1.484-0.812,3.022-1.539,4.42-2.48c0.534-0.361,1.043-1.223,1.017-1.833
		c-0.029-0.649-0.582-1.49-1.151-1.816c-0.359-0.207-1.488,0.198-1.722,0.627c-0.961,1.778-1.711,3.663-2.537,5.509L227.843,59.716z
		"/>
	<path fill="#003B3C" d="M175.669,56.672c-1.914-1.356,0.412-4.617-2.993-4.423c-0.559,0.035-1.594,1.225-1.489,1.664
		C171.616,55.734,172.807,56.897,175.669,56.672"/>
	<path fill="#003B3C" d="M196.03,65.273c0.906-1.621,1.817-3.252,3.047-5.448c-1.365,0.324-3.471,0.505-3.507,0.89
		C195.409,62.351,195.862,64.046,196.03,65.273"/>
	<path fill="#003B3C" d="M265.135,63.975c-5.541-0.595-11.072-1.319-16.63-1.702c-1.663-0.113-3.396,0.727-5.035,1.437
		c5.117-1.369,10.09-0.826,15.115,0.473c2.08,0.539,4.322,0.436,6.495,0.625C265.097,64.529,265.116,64.252,265.135,63.975"/>
	<path fill="#003B3C" d="M253.891,56.683c-3.203-0.391-6.675-0.815-9.809-1.199C245.722,57.307,250.854,58.003,253.891,56.683"/>
	<path fill="#003B3C" d="M294.455,59.202c1.569,1.491,3.133,2.934,5.455,0H294.455z"/>
</g>
<g>
	<path fill="#003B3C" d="M534.628,52.835c-2.226,3.856-5.05,5.696-9.103,5.907c-3.686,0.19-7.256,0.494-10.857-0.918
		c-1.267-0.494-3.104,0.092-4.539,0.589c-0.598,0.206-1.285,1.601-1.109,2.22c0.206,0.735,1.293,1.696,2.016,1.713
		c1.7,0.039,3.486-0.199,5.1-0.732c4.293-1.412,8.582-1.473,12.928-0.481c2.85,0.651,4.761,2.318,5.611,5.345
		c-2.826-0.471-5.436-0.778-7.979-1.362c-3.624-0.83-7.032-0.138-10.544,0.757c-5.171,1.317-9.809,0.489-10.854-4.084
		c-0.918-4.021,2.133-8.271,6.246-8.129c4.264,0.15,8.525,0.97,12.778,0.89c2.851-0.052,5.683-1.174,8.528-1.775
		C533.297,52.678,533.788,52.799,534.628,52.835 M497.967,60.149c0,0,0.081-0.093,0.074-0.09c0.821,3.358,3.438,1.977,5.463,2.005
		c1.604,4.326,4.428,6.626,8.512,6.463c2.781-0.112,5.627-0.456,8.3-1.197c4.745-1.315,9.278-1.378,13.794,0.741
		c0.732,0.344,1.656,0.281,2.857,0.462c-1.137-2.366-2.021-4.21-2.908-6.054c0.193-0.181,0.389-0.357,0.584-0.54
		c0.628,0.527,1.26,1.051,2.07,1.729c1.814-3.073,5.025-2.259,7.801-2.642c1.891-0.258,3.99-0.265,2.943,2.989
		c2.021-1.431,3.55-3.179,6.122-1.975c0.429,0.199,1.345-0.634,2.033-0.989c-0.481-0.666-1.22-1.975-1.415-1.897
		c-2.383,0.933-5.002-1.296-7.254,0.567l0.027-0.006c-0.256,0.266-0.518,0.773-0.758,0.763c-2.251-0.105-4.498-0.299-6.807-0.471
		c-0.486-2.149-1.083-4.265-3.84-4.36c0.099,0.246,0.195,0.491,0.294,0.736c-0.847,0.529-1.696,1.06-2.697,1.681
		c1.192-2.68,2.205-4.958,3.22-7.232c-2.695,0.267-4.775,1.52-6.898,1.599c-4.148,0.155-8.399,0.058-12.479-0.664
		c-6.662-1.18-12.592,0.213-13.703,7.963c-0.262,1.84-1.693,1.525-3.236,0.643c1.057-0.621,1.887-1.106,2.742-1.607
		C500.438,57.014,499.45,59.356,497.967,60.149"/>
	<path fill="#003B3C" d="M480.137,68.458c-1.539-2.021-1.688-3.499,0.131-4.104c0.701-0.234,1.74,0.55,2.627,0.87
		C481.977,66.301,481.057,67.379,480.137,68.458 M477.152,68.716c-1.156-1.003-2.312-2.007-3.469-3.011
		c0.619-0.498,1.285-1.468,1.849-1.41c2.127,0.218,2.347,1.909,2.422,3.57C477.687,68.148,477.418,68.433,477.152,68.716
		 M467.476,63.981c0.619-2.212,2.253-2.424,3.567-1.773c0.943,0.469,1.387,1.943,2.053,2.969c-0.264,0.253-0.535,0.507-0.801,0.761
		C470.692,65.286,469.084,64.635,467.476,63.981 M484.446,59.397c-6.213,5.078-5.798,5.633-13.191,1.019
		C475.458,55.557,478.602,55.282,484.446,59.397 M496.815,59.729c-3.193,1.605-6.388,3.209-9.584,4.816
		c-1.402,0.707-2.932,1.747-3.875-0.441c-0.229-0.535,0.239-1.921,0.686-2.082c1.02-0.365,2.223-0.273,3.345-0.222
		c0.249,0.013,0.479,0.615,1.07,1.438c-0.041-4.757,3.722-2.087,6.03-3.798c-3.148-0.327-5.682-0.529-8.192-0.884
		c-0.911-0.127-1.81-0.543-2.649-0.954c-1.512-0.737-2.926-1.692-4.481-2.306c-0.606-0.239-1.487,0.158-2.22,0.355
		c-0.497,0.134-0.991,0.676-1.417,0.606c-1.685-0.281-2.556,0.528-3.58,1.769c-0.591,0.718-2.119,0.754-3.25,0.913
		c-1.452,0.202-2.931,0.222-4.399,0.318c-0.006,0.279-0.013,0.561-0.02,0.84c0.268,0.15,0.606,0.241,0.783,0.46
		c0.619,0.763,1.178,1.571,1.762,2.362c-0.892-0.129-1.831-0.12-2.665-0.422c-1.104-0.395-2.128-1.024-3.206-1.921
		c3.009-1.192,5.237-3.989,8.826-3.501c1.52-3.338,5.957-2.414,7.374-4.688c2.098,0.475,3.933,0.875,5.755,1.324
		c0.306,0.075,0.727,0.318,0.809,0.574c0.98,3.059,3.232,1.886,5.008,2.205c1.695,0.641,3.396,1.26,5.078,1.924
		c1.017,0.402,2.008,0.875,3.01,1.315c0.41,0.111,0.818,0.222,1.232,0.329c0.007-0.003-0.079,0.09-0.074,0.086
		c-0.645-0.89-1.105-2.203-1.974-2.601c-5.953-2.704-11.987-5.226-18.019-7.757c-0.5-0.21-1.272-0.286-1.719-0.051
		c-5.82,3.067-11.612,6.196-17.392,9.343c-0.383,0.211-0.593,0.735-0.963,1.217c1.384,0.926,2.521,1.926,3.839,2.529
		c4.348,1.994,8.703,3.997,13.174,5.676c1.668,0.628,3.936,1.025,5.459,0.396c4.72-1.951,9.242-4.395,13.776-6.771
		C495.177,61.587,495.936,60.541,496.815,59.729"/>
	<path fill="#003B3C" d="M547.706,53.106c0.139,1.91,0.229,3.154,0.32,4.421c-2.244-1.257-1.74-3.284-1.116-5.058
		c0.132-0.376,2.521-0.608,2.925-0.125c1.771,2.139,4.105,2.787,6.581,3.527c1.101,0.329,1.888,1.705,2.806,2.59h4.584
		c0.307-1.505,0.7-3.458,1.039-5.142c2.344-0.971,4.705-1.949,7.082-2.934c2.016,0.524,4.252,1.105,6.428,1.672
		c0.575,2.173,1.218,4.617,1.863,7.056c-1.07-2.398-2.857-2.016-4.805-1.166c-0.107-0.188-0.219-0.374-0.326-0.562
		c0.385-0.587,0.85-1.137,1.134-1.772c0.313-0.699,0.456-1.472,0.673-2.211c-0.803,0.228-1.681,0.325-2.378,0.731
		c-0.535,0.312-0.837,1.019-1.692,2.144c0-1.393,0.183-2.165-0.051-2.775c-0.229-0.591-0.89-1.015-1.358-1.513
		c-0.302,0.526-0.755,1.021-0.874,1.586c-0.15,0.727-0.037,1.51-0.037,2.298c-1.389-0.711-2.629-1.35-3.873-1.988
		c-0.247,0.314-0.488,0.623-0.732,0.936c0.922,1.091,1.846,2.177,3.057,3.598c-0.858,0.135-1.666,0.099-2.317,0.397
		c-1.312,0.6-3.372,1.158-3.637,2.134c-0.733,2.706-2.016,2.053-3.347,1.932c-1.854,0.819-3.738,1.578-5.549,2.487
		c-1.371,0.689-2.638,1.584-3.961,2.377c-0.858,0.516-1.73,1.012-2.595,1.515c-0.478-1.199-0.956-2.398-1.435-3.6
		c0.242-0.09,0.482-0.181,0.723-0.271c0.311,0.684,0.619,1.364,0.928,2.046c0.82-0.437,2.137-0.69,2.368-1.335
		c0.763-2.121,2.628-1.978,4.175-2.394c1.76-0.476,3.669-0.826,3.466-3.145c-0.191-2.203-1.513-3.431-3.93-3.248
		c-1.057,0.08-2.071,0.256-2.47-1.507C551.156,54.843,549.337,54.243,547.706,53.106"/>
	<path fill="#003B3C" d="M586.048,57.13c0.985-1.455,2.504-2.614,5.091-2.493c1.131,0.054,2.291-1.643,3.534-2.382
		c0.884-0.526,2.176-1.317,2.841-1.012c0.685,0.312,0.828,1.805,1.208,2.783c-0.206,0.095-0.416,0.191-0.622,0.288
		c-0.365-0.548-0.73-1.096-1.196-1.792c-0.268,0.161-0.71,0.269-0.785,0.497c-0.857,2.578-2.92,2.97-5.261,3.285
		c-3.084,0.412-3.872,1.47-3.348,4.072c0.145,0.72,0.966,1.892,1.422,1.868c3.054-0.168,4.436,2.413,6.579,3.705
		c0.212,0.124,0.464,0.181,0.695,0.271c1.145-2.678-0.987-5.764-3.913-5.728c-0.604,0.007-1.344,0.315-1.784,0.064
		c-0.476-0.271-0.942-1.053-0.9-1.571c0.03-0.36,1.096-1.044,1.409-0.911c2.709,1.169,4.597-0.086,6.675-2.346
		c0.237,1.234,0.409,2.12,0.633,3.289c2.076-0.299,4.276-0.616,6.638-0.956c0.678,1.64,0.393,2.523-1.703,2.443
		c-2.282-0.088-4.569-0.02-7.094-0.02c0.67,1.894,1.422,3.383,1.672,4.952c0.136,0.877-0.562,1.887-0.885,2.833
		c-0.89-0.379-1.822-0.686-2.66-1.156c-1.651-0.931-3.256-1.941-4.869-2.938c-1.072-0.664-2.117-1.375-3.187-2.048
		c-0.409-0.254-0.922-0.72-1.267-0.63c-1.451,0.38-2.503,0.032-2.836-1.459c-0.172-0.778-0.188-2.212,0.16-2.366
		C583.284,57.235,584.497,57.309,586.048,57.13"/>
	<path fill="#003B3C" d="M571.002,62.333c0,1.19-0.098,2.008,0.031,2.787c0.094,0.544,0.492,1.038,0.754,1.555
		c0.518-0.37,1.243-0.628,1.506-1.133c0.453-0.87,0.617-1.89,0.906-2.846c0.341-0.058,0.682-0.118,1.023-0.177
		c0.486,1.421,0.973,2.844,1.332,3.887c-1.936,0.681-3.311,1.162-4.855,1.708c-1.741-0.821-3.896-1.838-6.475-3.052
		c-0.291-1.015-0.73-2.553-1.23-4.296c1.814,0.101,3.131,0.172,4.861,0.267c-1.092,1.207-1.955,2.164-2.87,3.181
		C568.614,66.124,569.278,63.48,571.002,62.333"/>
	<path fill="#003B3C" d="M568.922,59.365c1.375-1.09,2.25-2.339,3.18-2.382c1.26-0.058,2.627,0.562,2.547,2.545
		c-0.087,2.223-1.727,2.39-3.08,2.349C570.835,61.855,570.14,60.579,568.922,59.365"/>
	<path fill="#003B3C" d="M545.93,62.993c-0.311,1.162-0.463,2.282-0.918,3.262c-0.298,0.639-1.076,1.541-1.562,1.496
		c-0.766-0.073-1.771-0.694-2.092-1.364c-0.22-0.458,0.363-1.718,0.925-2.044C543.429,63.67,544.805,63.384,545.93,62.993"/>
	<path fill="#003B3C" d="M597.54,61.179c1.891,0.596,3.287,0.941,4.598,1.496c0.532,0.226,1.227,0.915,1.217,1.382
		c-0.016,0.684-0.444,1.571-0.99,1.958c-0.363,0.256-1.503,0.004-1.835-0.397C599.49,64.345,598.668,62.898,597.54,61.179"/>
	<path fill="#003B3C" d="M546.97,59.716c-1.484-0.812-3.022-1.539-4.42-2.48c-0.534-0.361-1.044-1.223-1.017-1.833
		c0.029-0.649,0.582-1.49,1.15-1.816c0.359-0.207,1.488,0.198,1.723,0.627c0.961,1.778,1.711,3.663,2.537,5.509L546.97,59.716z"/>
	<path fill="#003B3C" d="M599.143,56.672c1.914-1.356-0.411-4.617,2.993-4.423c0.559,0.035,1.594,1.225,1.489,1.664
		C603.197,55.734,602.006,56.897,599.143,56.672"/>
	<path fill="#003B3C" d="M578.784,65.273c-0.906-1.621-1.817-3.252-3.048-5.448c1.364,0.324,3.471,0.505,3.507,0.89
		C579.405,62.351,578.951,64.046,578.784,65.273"/>
	<path fill="#003B3C" d="M509.678,63.975c5.54-0.595,11.072-1.319,16.63-1.702c1.663-0.113,3.396,0.727,5.035,1.437
		c-5.117-1.369-10.091-0.826-15.115,0.473c-2.08,0.539-4.321,0.436-6.495,0.625C509.716,64.529,509.697,64.252,509.678,63.975"/>
	<path fill="#003B3C" d="M520.922,56.683c3.202-0.391,6.675-0.815,9.809-1.199C529.09,57.307,523.959,58.003,520.922,56.683"/>
	<path fill="#003B3C" d="M480.358,59.202c-1.568,1.491-3.133,2.934-5.454,0H480.358z"/>
</g>
</svg>
