<?xml version="1.0" encoding="utf-8"?>
<!-- Generator: Adobe Illustrator 16.0.0, SVG Export Plug-In . SVG Version: 6.00 Build 0)  -->
<!DOCTYPE svg PUBLIC "-//W3C//DTD SVG 1.1//EN" "http://www.w3.org/Graphics/SVG/1.1/DTD/svg11.dtd">
<svg version="1.1" id="Layer_1" xmlns="http://www.w3.org/2000/svg" xmlns:xlink="http://www.w3.org/1999/xlink" x="0px" y="0px"
	 width="779.899px" height="111px" viewBox="0 0 779.899 111" enable-background="new 0 0 779.899 111" xml:space="preserve">
<line fill="none" stroke="#000000" stroke-width="0.5" stroke-linecap="round" x1="514.45" y1="102.477" x2="779.899" y2="102.477"/>
<line fill="none" stroke="#000000" stroke-width="0.5" stroke-linecap="round" x1="0" y1="102.477" x2="262.45" y2="102.477"/>
<g>
	<path d="M277.653,98.7c-1.656,0-1.8,0.306-2.017,1.151l-0.09,0.359h-0.36l0.108-2.214h8.03l0.126,2.214h-0.378l-0.09-0.359
		c-0.216-0.847-0.433-1.151-2.089-1.151h-0.937v4.627c0,1.801,0.234,2.106,1.44,2.106v0.359h-4.141v-0.359
		c1.206,0,1.44-0.307,1.44-2.106V98.7H277.653z"/>
	<path d="M289.858,103.76c0.72,0.846,1.548,1.549,2.413,1.674v0.36h-2.305l-2.449-3.349h-0.504v0.882
		c0,1.801,0.216,2.106,1.422,2.106v0.359h-4.123v-0.359c1.206,0,1.423-0.307,1.423-2.106v-2.882c0-1.801-0.217-2.088-1.423-2.088
		v-0.359h3.728c1.854,0,2.881,0.954,2.881,2.232c0,1.098-0.828,1.998-2.179,2.179L289.858,103.76z M288.04,98.646h-1.026v3.133
		h1.026c1.008,0,1.477-0.702,1.477-1.549C289.517,99.366,289.048,98.646,288.04,98.646z"/>
	<path d="M294.698,104.048c-0.45,1.062-0.45,1.368,0.973,1.368v0.378h-3.403v-0.378c1.099,0,1.261-0.216,1.854-1.566l2.647-6.158
		h0.252l2.646,6.158c0.595,1.352,0.811,1.566,1.765,1.566v0.378h-4.033v-0.378c1.296,0,1.423-0.307,0.973-1.368l-0.36-0.829h-2.953
		L294.698,104.048z M296.535,99.798l-1.188,2.755h2.377L296.535,99.798z"/>
	<path d="M302.294,105.434c1.206,0,1.423-0.306,1.423-2.105v-2.881c0-1.801-0.217-2.09-1.423-2.09v-0.358h3.817
		c3.061,0,4.394,1.765,4.394,3.89c0,2.143-1.333,3.906-4.394,3.906h-3.817V105.434z M306.165,98.646c-0.107,0-0.864,0-1.17,0v5.113
		c0,1.17,0.126,1.368,1.026,1.368h0.144c2.377,0,2.845-1.801,2.845-3.241C309.01,100.465,308.542,98.646,306.165,98.646z"/>
	<path d="M312.338,105.794v-0.36c1.206,0,1.423-0.306,1.423-2.105v-2.881c0-1.801-0.217-2.09-1.423-2.09v-0.358h4.123v0.358
		c-1.206,0-1.422,0.289-1.422,2.09v2.881c0,1.801,0.216,2.105,1.422,2.105v0.36H312.338z"/>
	<path d="M319.826,98.7c-1.656,0-1.801,0.306-2.018,1.151l-0.09,0.359h-0.359l0.107-2.214h8.03l0.126,2.214h-0.378l-0.09-0.359
		c-0.217-0.847-0.434-1.151-2.089-1.151h-0.938v4.627c0,1.801,0.234,2.106,1.44,2.106v0.359h-4.142v-0.359
		c1.206,0,1.44-0.307,1.44-2.106V98.7H319.826z"/>
	<path d="M326.485,105.794v-0.36c1.206,0,1.423-0.306,1.423-2.105v-2.881c0-1.801-0.217-2.09-1.423-2.09v-0.358h4.123v0.358
		c-1.206,0-1.423,0.289-1.423,2.09v2.881c0,1.801,0.217,2.105,1.423,2.105v0.36H326.485z"/>
	<path d="M336.873,106.1c-2.413,0-4.395-1.891-4.395-4.213c0-2.287,1.98-4.195,4.395-4.195c2.412,0,4.393,1.908,4.393,4.195
		C341.266,104.209,339.285,106.1,336.873,106.1z M336.873,98.376c-2.125,0-2.917,1.962-2.917,3.511c0,1.566,0.792,3.512,2.917,3.512
		c2.124,0,2.917-1.944,2.917-3.512C339.79,100.338,338.997,98.376,336.873,98.376z"/>
	<path d="M343.117,98.357v-0.359h2.215l4.789,5.689v-3.242c0-1.801-0.216-2.088-1.422-2.088v-0.359h3.511v0.359
		c-1.206,0-1.423,0.287-1.423,2.088v5.637h-0.342l-5.239-6.284v3.529c0,1.801,0.216,2.106,1.422,2.106v0.359h-3.511v-0.359
		c1.206,0,1.423-0.307,1.423-2.106v-2.882C344.54,98.646,344.323,98.357,343.117,98.357z"/>
	<path d="M355.071,104.048c-0.45,1.062-0.45,1.368,0.973,1.368v0.378h-3.403v-0.378c1.1,0,1.262-0.216,1.854-1.566l2.646-6.158
		h0.252l2.646,6.158c0.595,1.352,0.811,1.566,1.765,1.566v0.378h-4.032v-0.378c1.296,0,1.423-0.307,0.973-1.368l-0.36-0.829h-2.953
		L355.071,104.048z M356.908,99.798l-1.188,2.755h2.377L356.908,99.798z"/>
	<path d="M362.667,98.357v-0.359h4.123v0.359c-1.206,0-1.422,0.287-1.422,2.088v2.594c0,1.801,0.216,2.089,1.422,2.089h0.631
		c1.656,0,1.872-0.308,2.088-1.151l0.091-0.36h0.378l-0.126,2.179h-7.185v-0.359c1.206,0,1.423-0.307,1.423-2.106v-2.881
		C364.09,98.646,363.873,98.357,362.667,98.357z"/>
	<path d="M376.49,104.048c-0.45,1.062-0.45,1.368,0.973,1.368v0.378h-3.403v-0.378c1.1,0,1.262-0.216,1.854-1.566l2.646-6.158h0.252
		l2.646,6.158c0.595,1.352,0.811,1.566,1.765,1.566v0.378h-4.032v-0.378c1.297,0,1.423-0.307,0.973-1.368l-0.36-0.829h-2.953
		L376.49,104.048z M378.327,99.798l-1.188,2.755h2.377L378.327,99.798z"/>
	<path d="M390.754,105.794c-0.07-0.323-0.197-0.756-0.324-0.882c-0.541,0.666-1.513,1.188-2.377,1.188
		c-2.251,0-4.068-1.891-4.068-4.213c0-2.287,1.817-4.195,4.068-4.195c0.864,0,1.836,0.504,2.377,1.188
		c0.125-0.144,0.251-0.594,0.324-0.882h0.344v3.113h-0.361c-0.34-1.674-1.294-2.735-2.682-2.735c-2.017,0-2.61,1.998-2.61,3.511
		c0,1.53,0.595,3.512,2.61,3.512c1.388,0,2.342-1.062,2.682-2.736h0.361v3.133L390.754,105.794L390.754,105.794z"/>
	<path d="M400.061,105.794c-0.072-0.323-0.197-0.756-0.324-0.882c-0.541,0.666-1.512,1.188-2.377,1.188
		c-2.25,0-4.068-1.891-4.068-4.213c0-2.287,1.818-4.195,4.068-4.195c0.865,0,1.836,0.504,2.377,1.188
		c0.127-0.144,0.252-0.594,0.324-0.882h0.342v3.113h-0.359c-0.342-1.674-1.297-2.735-2.684-2.735c-2.016,0-2.611,1.998-2.611,3.511
		c0,1.53,0.596,3.512,2.611,3.512c1.387,0,2.342-1.062,2.684-2.736h0.359v3.133L400.061,105.794L400.061,105.794z"/>
	<path d="M406.991,106.1c-2.414,0-4.395-1.891-4.395-4.213c0-2.287,1.98-4.195,4.395-4.195c2.412,0,4.393,1.908,4.393,4.195
		C411.383,104.209,409.403,106.1,406.991,106.1z M406.991,98.376c-2.125,0-2.918,1.962-2.918,3.511c0,1.566,0.793,3.512,2.918,3.512
		c2.123,0,2.916-1.944,2.916-3.512C409.907,100.338,409.114,98.376,406.991,98.376z"/>
	<path d="M415.323,103.327c0,1.801,0.217,2.106,1.422,2.106v0.359h-3.51v-0.359c1.205,0,1.422-0.307,1.422-2.106v-2.882
		c0-1.801-0.217-2.088-1.422-2.088v-0.359h2.701l2.682,6.014l2.666-6.014h2.52v0.359c-1.205,0-1.438,0.287-1.438,2.088v2.882
		c0,1.801,0.232,2.106,1.438,2.106v0.359h-4.123v-0.359c1.207,0,1.422-0.307,1.422-2.106V99.96l-2.719,6.14h-0.252l-2.809-6.373
		V103.327L415.323,103.327z"/>
	<path d="M429.561,105.434v0.36h-4.123v-0.36c1.207,0,1.424-0.306,1.424-2.105v-2.881c0-1.801-0.217-2.09-1.424-2.09v-0.358h3.729
		c1.855,0,2.881,0.954,2.881,2.231c0,1.242-1.025,2.215-2.881,2.215h-1.027v0.883C428.139,105.128,428.356,105.434,429.561,105.434z
		 M429.167,98.646h-1.027v3.133h1.027c1.008,0,1.477-0.702,1.477-1.549C430.643,99.366,430.174,98.646,429.167,98.646z"/>
	<path d="M434.44,104.048c-0.449,1.062-0.449,1.368,0.973,1.368v0.378h-3.402v-0.378c1.1,0,1.262-0.216,1.855-1.566l2.646-6.158
		h0.252l2.646,6.158c0.594,1.352,0.811,1.566,1.764,1.566v0.378h-4.033v-0.378c1.299,0,1.426-0.307,0.975-1.368l-0.359-0.829h-2.953
		L434.44,104.048z M436.278,99.798l-1.189,2.755h2.377L436.278,99.798z"/>
	<path d="M442.036,98.357v-0.359h2.215l4.789,5.689v-3.242c0-1.801-0.215-2.088-1.422-2.088v-0.359h3.512v0.359
		c-1.207,0-1.422,0.287-1.422,2.088v5.637h-0.344l-5.238-6.284v3.529c0,1.801,0.215,2.106,1.422,2.106v0.359h-3.512v-0.359
		c1.207,0,1.424-0.307,1.424-2.106v-2.882C443.459,98.646,443.243,98.357,442.036,98.357z"/>
	<path d="M452.782,105.794v-0.36c1.207,0,1.424-0.306,1.424-2.105v-2.881c0-1.801-0.217-2.09-1.424-2.09v-0.358h4.123v0.358
		c-1.205,0-1.422,0.289-1.422,2.09v2.881c0,1.801,0.217,2.105,1.422,2.105v0.36H452.782z"/>
	<path d="M460.667,103.327c0,1.801,0.217,2.106,1.422,2.106v0.359h-3.51v-0.359c1.205,0,1.422-0.307,1.422-2.106v-2.882
		c0-1.801-0.217-2.088-1.422-2.088v-0.359h2.701l2.682,6.014l2.666-6.014h2.521v0.359c-1.205,0-1.439,0.287-1.439,2.088v2.882
		c0,1.801,0.234,2.106,1.439,2.106v0.359h-4.123v-0.359c1.207,0,1.422-0.307,1.422-2.106V99.96l-2.721,6.14h-0.252l-2.809-6.373
		V103.327L460.667,103.327z"/>
	<path d="M477.209,103.977l0.092-0.36h0.359l-0.146,2.179h-6.732v-0.359c1.207,0,1.424-0.307,1.424-2.106v-2.881
		c0-1.802-0.217-2.089-1.424-2.089V98h3.979h2.322l0.146,2.16h-0.381l-0.09-0.36c-0.195-0.827-0.432-1.151-2.068-1.151h-1.207v2.683
		h0.105c1.801,0,1.945-0.216,1.945-1.422h0.359v3.511h-0.359c0-1.188-0.145-1.422-1.945-1.422h-0.105v1.044
		c0,1.801,0.217,2.089,1.422,2.089h0.217C476.76,105.128,476.995,104.82,477.209,103.977z"/>
	<path d="M479.333,98.357v-0.359h2.215l4.789,5.689v-3.242c0-1.801-0.217-2.088-1.422-2.088v-0.359h3.51v0.359
		c-1.205,0-1.422,0.287-1.422,2.088v5.637h-0.342l-5.24-6.284v3.529c0,1.801,0.217,2.106,1.422,2.106v0.359h-3.51v-0.359
		c1.205,0,1.422-0.307,1.422-2.106v-2.882C480.754,98.646,480.538,98.357,479.333,98.357z"/>
	<path d="M491.77,98.7c-1.656,0-1.799,0.306-2.016,1.151l-0.09,0.359h-0.361l0.109-2.214h8.029l0.127,2.214h-0.379l-0.092-0.359
		c-0.215-0.847-0.432-1.151-2.088-1.151h-0.938v4.627c0,1.801,0.234,2.106,1.441,2.106v0.359h-4.141v-0.359
		c1.205,0,1.439-0.307,1.439-2.106V98.7H491.77z"/>
	<path d="M501.401,106.1c-0.936,0-1.693-0.449-2.018-0.666c-0.107,0.127-0.287,0.36-0.342,0.666h-0.324v-3.097h0.361
		c0.143,1.53,1.115,2.396,2.467,2.396c0.773,0,1.387-0.433,1.387-1.207c0-0.629-0.506-1.115-1.477-1.603l-1.225-0.63
		c-0.865-0.45-1.494-1.188-1.494-2.197c0-1.134,0.953-2.052,2.25-2.052c0.756,0,1.332,0.271,1.711,0.54
		c0.09-0.107,0.232-0.271,0.27-0.559h0.359v3.043h-0.359c-0.107-1.08-0.594-2.358-1.891-2.358c-0.703,0-1.297,0.378-1.297,1.044
		c0,0.63,0.469,0.973,1.564,1.549l1.207,0.631c1.025,0.521,1.404,1.332,1.404,2.033C503.958,105.109,502.788,106.1,501.401,106.1z"
		/>
</g>
<g>
	<path fill="#231F20" d="M214.591,32.487v-3.208c0-3.494-1.604-4.983-3.437-4.983c-2.864,0-3.779,1.489-3.779,4.582v20.96
		c0,3.095,0.916,4.583,3.779,4.583c2.577,0,3.437-1.488,3.437-4.181v-4.984h7.102v4.755c0,5.838-3.437,10.582-10.539,10.582
		c-7.445,0-10.881-4.744-10.881-10.582V28.707c0-5.842,3.437-10.596,10.881-10.596c7.102,0,10.539,5.154,10.539,11.341v3.035
		H214.591z"/>
</g>
<g>
	<path fill="#231F20" d="M219.889,78.144l0.17,0.084l-4.329-2.375l-0.805-1.229l-0.128-0.51v-1.824l1.443-2.209l0.508-0.298h1.826
		l1.485,1.061v1.061l-1.104,1.658v1.062l0.34,0.55l0.211,0.551l1.612,0.891l3.225,0.299l0.933-0.299
		c3.877-3.024,6.96-6.364,9.252-10.016c2.291-3.646,4.244-7.426,5.855-11.318c0.792-1.952,1.555-3.904,2.292-5.854
		c0.735-1.951,1.427-3.918,2.079-5.897c1.33-3.933,2.942-7.709,4.837-11.331l0.552-3.565l-1.741-1.272l-5.855-0.213l-1.571,0.213
		l-0.934,0.297l-1.061,0.211l-3.267,1.529l-3.564,3.818l-0.212,0.807l-0.297,3.267l0.297,0.68l1.952,2.037l1.528,0.34l1.062-0.34
		l1.23-1.782l-0.679-1.231l-0.381-0.467l0.891-1.824l0.381-0.298l0.553-0.212h0.721l1.782,1.062l0.51,0.975v0.553v1.443
		l-1.739,2.885l-1.826,0.679l-1.272,0.212h-2.208l-1.995-0.891l-1.612-1.613l-0.51-1.527l-0.211-3.564l0.211-0.764l0.297-0.679
		l2.759-3.777c1.697-1.216,3.395-2.064,5.093-2.546l1.824-0.551l1.061-0.127l1.951-0.34l20.411,0.466v1.104h-1.739l-1.656,0.212
		l-1.273,0.509c-2.603,2.292-4.258,4.796-4.965,7.512c-0.368,1.358-0.778,2.694-1.231,4.01s-0.948,2.596-1.484,3.84l4.03,0.551
		h4.499l6.153-0.212c1.215-2.856,2.572-5.615,4.073-8.274c1.5-2.659,3.494-5.333,5.983-8.021c1.358-1.215,2.589-2.149,3.692-2.801
		c1.046-0.593,2.22-1.188,3.523-1.782l1.824-0.17h2.503l2.886,1.188l0.381,1.315l0.298,0.425v1.57l-0.298,0.721l-1.442,1.826h-0.51
		l-0.806,0.17l-1.952-1.231l-0.382-0.51l0.934-1.527l0.891-0.68v-1.273l-2.164-0.807l-1.102,0.255l-3.014,1.824l-1.272,1.23
		c-4.047,5.659-7.03,11.344-8.955,17.06c-0.962,2.857-1.958,5.701-2.992,8.527c-1.033,2.831-2.115,5.652-3.246,8.476l0.296,1.019
		l1.527,1.061l4.328,0.51l-0.551,0.891h-17.908l-0.892-0.339l0.51-0.85h2.334l2.545-1.272l2.038-2.504l5.771-14.204l-14.683-0.169
		c-0.991,2.32-2.016,4.626-3.077,6.917c-1.062,2.292-2.142,4.55-3.246,6.776c-2.179,4.473-5.319,8.983-9.421,13.538
		c-1.472,1.525-2.901,2.687-4.286,3.478c-0.651,0.396-1.315,0.744-1.996,1.04c-0.678,0.297-1.356,0.559-2.036,0.786l-1.74,0.34
		l-4.031,0.212L219.889,78.144z"/>
</g>
<g>
	<path fill="#231F20" d="M310.825,73.901c1.833,0,2.635,0,4.067,0c0,0.688,0,0.343,0,0.914c-1.375,0-12.715,0.058-16.037,0.058
		c0-0.397,0-0.456,0-0.974c1.488,0,3.208,0,4.752,0c-0.629-1.831-3.036-9.22-4.008-11.683c-1.718,0-10.424,0-11.97,0
		c-1.146,3.378-3.437,10.137-3.895,11.683c1.546,0,4.124,0,5.669,0c0,0.345,0,0.576,0,0.974c-3.607,0-7.445,0-11.168,0
		c0-0.228,0-0.629,0-0.974c1.775,0,1.031-0.058,4.124-0.058c4.468-12.428,9.165-26.848,13.574-39.332c0.458,0,0.63,0,1.202,0
		C301.833,47.567,306.072,60.959,310.825,73.901z M287.974,61.244c3.379,0,8.762,0,11.282,0c-1.604-5.087-3.608-10.754-5.727-16.482
		C291.696,49.973,289.52,55.93,287.974,61.244z M304.868,73.901c0.974,0,1.719,0,2.578,0c-2.92-8.477-5.728-17.402-8.706-25.932
		c-1.031-2.807-2.062-6.186-3.093-8.992c-1.087,2.692-0.688,1.947-1.433,4.008C297.71,53.067,301.375,63.938,304.868,73.901z"/>
</g>
<g>
	<path fill="#231F20" d="M327.617,68.517h-7.101V27.177h9.965c7.961,0,12.027,3.379,12.027,12.199c0,6.644-2.577,9.335-4.983,10.426
		l6.014,18.715h-7.217l-5.04-17.115c-0.916,0.115-2.405,0.173-3.666,0.173V68.517L327.617,68.517z M327.617,45.734h2.52
		c3.838,0,5.27-1.432,5.27-6.357c0-4.926-1.432-6.357-5.27-6.357h-2.52V45.734z"/>
</g>
<g>
	<path fill="#231F20" d="M371.897,41.206c-0.858-1.202-2.462-2.119-4.236-2.119c-4.296,0-6.874,2.864-6.874,7.044
		s2.578,7.043,6.874,7.043c1.889,0,3.264-0.974,4.236-2.117l5.67,5.951c-2.691,2.743-6.643,3.717-9.907,3.717
		c-8.592,0-15.464-5.714-15.464-14.594c0-8.877,6.872-14.604,15.464-14.604c3.264,0,7.216,0.974,9.907,3.722L371.897,41.206z"/>
</g>
<g>
	<path fill="#231F20" d="M409.304,35.483v-1.031h10.654v1.031h-4.753v28.166c0,6.244-3.954,11.457-11.855,11.457
		c-15.406,0-15.008-11.169-15.008-11.169c0-3.036,0.059-26.851,0.059-28.454c-1.375,0-3.322,0-4.983,0c0-0.859,0-0.515,0-1.031
		c4.697,0,16.783,0,16.783,0v1.031c0,0-0.747,0-4.812,0c0,2.292,0,13.346,0,25.646c0,4.355-0.915,12.714,8.071,12.714
		c7.219,0,10.598-4.409,10.598-10.194V35.483H409.304z M389.258,64.166c0,5.097,5.325,9.162,9.337,9.622
		c-2.291-1.72-6.473-2.232-6.473-9.622c0-7.213,0-21.81,0-28.684c-1.091,0-1.831,0-2.806,0
		C389.317,36.285,389.258,53.125,389.258,64.166z"/>
</g>
<g>
	<path fill="#231F20" d="M434.056,33.363h-6.871v-6.186h20.846v6.186h-6.871v35.154h-7.104V33.363z"/>
</g>
<g>
	<path fill="#231F20" d="M457.545,23.74h27.55v8.246h-18.616v7.561h17.583v8.249h-17.583v8.247h19.647v8.235h-28.581V23.74z"/>
</g>
<g>
	<path fill="#231F20" d="M504.003,68.517h-7.102V27.177h9.966c7.96,0,12.026,3.379,12.026,12.199c0,6.644-2.573,9.335-4.981,10.426
		l6.014,18.715h-7.214l-5.04-17.115c-0.916,0.115-2.407,0.173-3.667,0.173v16.941H504.003z M504.003,45.734h2.52
		c3.838,0,5.272-1.432,5.272-6.357c0-4.926-1.435-6.357-5.272-6.357h-2.52V45.734z"/>
</g>
<g>
	<path fill="#231F20" d="M533.855,22.709c2.747,0,4.981,2.234,4.981,4.982c0,2.749-2.234,4.983-4.981,4.983
		s-4.981-2.234-4.981-4.983C528.874,24.943,531.106,22.709,533.855,22.709z M529.557,36.454h8.59v27.824h-8.59V36.454z"/>
</g>
<g>
	<path fill="#231F20" d="M549.692,74.995l0.048,0.086c-1.22-0.887-2.11-1.822-2.675-2.801c-0.563-0.978-0.965-1.915-1.201-2.806
		l-0.269-2.048v-3.605c0.418-1.57,1.011-2.968,1.781-4.182c0.419-0.626,0.887-1.266,1.405-1.935
		c0.518-0.665,1.105-1.367,1.762-2.107c0.828-0.679,1.614-1.214,2.361-1.6c0.356-0.178,0.712-0.356,1.068-0.534
		c0.357-0.179,0.713-0.373,1.07-0.58l-0.138-1.29l-0.396-1.247l-0.138-1.292c0-0.148-0.004-0.297-0.02-0.444
		c-0.019-0.149-0.021-0.298-0.021-0.446c0-2.67,1.186-5.282,3.565-7.834l1.2-0.934l4.68-2.047l1.022-0.312l1.071-0.223l1.74-0.311
		c0.562-0.029,1.163-0.059,1.801-0.088c0.641-0.031,1.435-0.045,2.383-0.045c1.427,0.059,2.855,0.386,4.282,0.979
		c0.978,0.239,1.96,0.817,2.938,1.737c1.012,0.951,1.619,1.797,1.826,2.541l0.312,2.85l-0.535,0.981l-1.558,2.315l-1.736,0.759
		l-2.633,0.311l-0.666-0.311l-2.185-1.472l-0.225-0.534v-1.511l1.069-1.604l0.492-0.178h0.444l1.827,0.668l0.805,0.803h1.604
		l0.355-0.223l0.845-2.004l-0.268-1.069l-0.933-1.471l-2.139-1.292c-0.832-0.356-1.648-0.535-2.452-0.535
		c-0.088,0-0.179,0.007-0.266,0.023c-0.092,0.015-0.179,0.022-0.269,0.022c-0.179,0-0.365,0.007-0.556,0.023
		c-0.195,0.015-0.411,0.021-0.646,0.021c-0.268,0-0.551-0.007-0.847-0.021c-0.298-0.016-0.595-0.038-0.891-0.068l-1.205,0.223
		l-1.023,0.312c-1.246,0.505-2.599,1.322-4.054,2.452c-1.487,1.158-2.602,2.45-3.343,3.875l-0.802,1.738l-0.535,2.541l0.222,1.604
		l1.338,0.178l3.833-0.178l0.846,0.178l0.758,0.357l1.426,1.247l0.312,0.443v1.069l-0.312,0.672l-1.426,1.865l-1.338,0.224
		c-0.297,0.028-0.579,0.054-0.846,0.065c-0.27,0.017-0.551,0.024-0.845,0.024c-0.298,0-0.609-0.009-0.938-0.024
		c-0.326-0.012-0.653-0.037-0.982-0.065c-1.188-0.178-2.346-0.872-3.472-2.088c-2.854,1.275-4.724,3.038-5.614,5.289
		c-0.891,2.229-1.34,4.294-1.34,6.195l0.133,2.092l0.403,1.07c0.179,0.625,0.492,1.293,0.937,2.006
		c0.414,0.653,1.021,1.337,1.827,2.051l1.736,0.979c0.742,0.299,1.528,0.477,2.362,0.534c0.386,0.029,0.771,0.047,1.159,0.047
		c0.386,0,0.771,0,1.158,0l1.825-0.311l0.893-0.27l3.074-1.203c1.07-0.683,2.123-1.573,3.162-2.672
		c0.533-0.564,1.027-1.115,1.47-1.648c0.448-0.536,0.862-1.054,1.248-1.559l1.115-0.314c-0.593,1.486-1.453,2.866-2.585,4.144
		c-1.188,1.309-2.404,2.378-3.65,3.207l-4.771,2.063l-1.334,0.303l-1.604,0.173h-3.831L549.692,74.995z M562.124,54.866l2.364,0.397
		l0.58-0.397l0.758-1.741l-2.408-1.294l-2.004,0.27l-1.248,0.58v0.754L562.124,54.866z"/>
</g>
</svg>
