<?xml version="1.0" encoding="utf-8"?>
<!-- Generator: Adobe Illustrator 16.0.0, SVG Export Plug-In . SVG Version: 6.00 Build 0)  -->
<!DOCTYPE svg PUBLIC "-//W3C//DTD SVG 1.1//EN" "http://www.w3.org/Graphics/SVG/1.1/DTD/svg11.dtd">
<svg version="1.1" id="Layer_1" xmlns="http://www.w3.org/2000/svg" xmlns:xlink="http://www.w3.org/1999/xlink" x="0px" y="0px"
	 width="299px" height="102px" viewBox="0 0 299 102" enable-background="new 0 0 299 102" xml:space="preserve">
<path fill="#003B3C" d="M32.563,10.208H0c-0.138,0-0.25-0.112-0.25-0.25s0.112-0.25,0.25-0.25h32.563c0.138,0,0.25,0.112,0.25,0.25
	S32.701,10.208,32.563,10.208z"/>
<path fill="#003B3C" d="M299,10.208h-34.369c-0.138,0-0.25-0.112-0.25-0.25s0.112-0.25,0.25-0.25H299c0.138,0,0.25,0.112,0.25,0.25
	S299.138,10.208,299,10.208z"/>
<g>
	<g>
		<path fill="#003B3C" d="M4.02,99.568v0.353H0v-0.353c1.177,0,1.388-0.299,1.388-2.053v-2.81c0-1.754-0.211-2.035-1.388-2.035
			V92.32h4.072h2.281l0.141,2.104H6.126l-0.089-0.349c-0.211-0.81-0.422-1.125-2.034-1.125h-1.37v2.614h0.105
			c1.754,0,1.896-0.211,1.896-1.387h0.353V97.6H4.634c0-1.158-0.142-1.388-1.896-1.388H2.633v1.3
			C2.633,99.27,2.845,99.568,4.02,99.568z"/>
		<path fill="#003B3C" d="M12.044,99.43c1.229,0,2.142-0.703,2.142-2.229v-2.492c0-1.754-0.211-2.034-1.387-2.034v-0.351h3.58v0.351
			c-1.159,0-1.389,0.28-1.389,2.034v2.371c0,2.054-1.42,3.123-3.141,3.123c-1.72,0-3.125-1.069-3.125-3.123v-2.371
			c0-1.754-0.209-2.034-1.385-2.034v-0.351h4.02v0.351c-1.158,0-1.388,0.28-1.388,2.034V97.2
			C9.973,98.727,10.816,99.43,12.044,99.43z"/>
		<path fill="#003B3C" d="M17.699,92.672V92.32h4.02v0.352c-1.175,0-1.386,0.281-1.386,2.035v2.527c0,1.754,0.211,2.033,1.386,2.033
			h0.614c1.614,0,1.825-0.297,2.036-1.123l0.089-0.351h0.366l-0.123,2.124h-7.002v-0.354c1.177,0,1.388-0.299,1.388-2.053v-2.809
			C19.087,92.953,18.876,92.672,17.699,92.672z"/>
		<path fill="#003B3C" d="M25.48,92.672V92.32h4.018v0.352c-1.176,0-1.385,0.281-1.385,2.035v2.527c0,1.754,0.209,2.033,1.385,2.033
			h0.613c1.617,0,1.826-0.297,2.037-1.123l0.088-0.351h0.369l-0.123,2.124H25.48v-0.354c1.174,0,1.387-0.299,1.387-2.053v-2.809
			C26.865,92.953,26.654,92.672,25.48,92.672z"/>
		<path fill="#003B3C" d="M40.242,100.217c-0.91,0-1.647-0.439-1.965-0.648c-0.104,0.125-0.28,0.354-0.332,0.648h-0.316v-3.018
			h0.352c0.141,1.492,1.088,2.334,2.403,2.334c0.755,0,1.353-0.422,1.353-1.178c0-0.611-0.49-1.088-1.439-1.561l-1.191-0.615
			c-0.844-0.438-1.457-1.156-1.457-2.142c0-1.104,0.93-2,2.193-2c0.736,0,1.298,0.265,1.666,0.524
			c0.089-0.104,0.229-0.262,0.264-0.543h0.352v2.965h-0.352c-0.104-1.053-0.58-2.299-1.844-2.299c-0.684,0-1.263,0.369-1.263,1.021
			c0,0.612,0.456,0.946,1.526,1.509l1.176,0.612c1.002,0.511,1.369,1.3,1.369,1.983C42.736,99.253,41.596,100.217,40.242,100.217z"
			/>
		<path fill="#003B3C" d="M50.604,98.146l0.088-0.352h0.35l-0.139,2.124h-6.564v-0.353c1.176,0,1.387-0.299,1.387-2.053v-2.811
			c0-1.754-0.211-2.034-1.387-2.034V92.32h3.879h2.264l0.142,2.104h-0.368l-0.089-0.35c-0.191-0.809-0.421-1.123-2.019-1.123h-1.176
			v2.615h0.105c1.754,0,1.895-0.213,1.895-1.389h0.352V97.6h-0.352c0-1.156-0.141-1.387-1.895-1.387h-0.105v1.02
			c0,1.754,0.21,2.035,1.387,2.035h0.211C50.163,99.27,50.392,98.973,50.604,98.146z"/>
		<path fill="#003B3C" d="M58.083,97.938c0.7,0.824,1.509,1.508,2.352,1.631v0.354H58.19l-2.388-3.265h-0.491v0.858
			c0,1.754,0.211,2.053,1.387,2.053v0.354h-4.021v-0.354c1.177,0,1.388-0.299,1.388-2.053v-2.809c0-1.754-0.211-2.035-1.388-2.035
			V92.32h3.634c1.809,0,2.809,0.932,2.809,2.176c0,1.072-0.807,1.949-2.123,2.125L58.083,97.938z M56.311,92.953h-1v3.053h1
			c0.981,0,1.438-0.684,1.438-1.51C57.749,93.654,57.292,92.953,56.311,92.953z"/>
		<path fill="#003B3C" d="M67.615,94.216l-2.598,6.001h-0.229l-2.596-6.001c-0.562-1.333-0.791-1.544-1.703-1.544V92.32h3.931v0.352
			c-1.265,0-1.386,0.316-0.947,1.334l1.79,4.141l1.771-4.141c0.457-1.035,0.457-1.334-0.93-1.334V92.32h3.299v0.352
			C68.336,92.672,68.178,92.883,67.615,94.216z"/>
		<path fill="#003B3C" d="M70.218,99.92v-0.352c1.177,0,1.388-0.301,1.388-2.055v-2.81c0-1.754-0.211-2.034-1.388-2.034v-0.35h4.021
			v0.351c-1.176,0-1.388,0.28-1.388,2.034v2.811c0,1.754,0.212,2.053,1.388,2.053v0.353L70.218,99.92L70.218,99.92z"/>
		<path fill="#003B3C" d="M75.871,92.672V92.32h2.158l4.668,5.545v-3.158c0-1.754-0.211-2.035-1.387-2.035V92.32h3.422v0.352
			c-1.175,0-1.385,0.281-1.385,2.035v5.492h-0.334l-5.107-6.123v3.438c0,1.754,0.211,2.055,1.388,2.055v0.352h-3.423v-0.352
			c1.176,0,1.387-0.301,1.387-2.055v-2.81C77.258,92.953,77.047,92.672,75.871,92.672z"/>
		<path fill="#003B3C" d="M90.221,100.217c-2.191,0-3.966-1.84-3.966-4.105c0-2.229,1.772-4.088,3.966-4.088
			c0.845,0,1.792,0.49,2.319,1.156c0.12-0.141,0.244-0.578,0.312-0.856h0.334v3.034h-0.352c-0.332-1.633-1.262-2.668-2.614-2.668
			c-1.964,0-2.579,1.949-2.579,3.422c0,1.492,0.615,3.423,2.579,3.423c0.879,0,2.229-0.543,2.229-1.49
			c0-0.703-0.647-1.071-1.511-1.071v-0.351h3.88v0.351c-1.177,0-1.387,0.299-1.387,2.055c0,0,0,0.334,0,0.525
			C92.327,99.551,91.241,100.217,90.221,100.217z"/>
		<path fill="#003B3C" d="M98.756,100.217c-0.913,0-1.65-0.439-1.966-0.648c-0.104,0.125-0.281,0.354-0.332,0.648h-0.317v-3.018
			h0.353c0.142,1.492,1.089,2.334,2.404,2.334c0.754,0,1.351-0.422,1.351-1.178c0-0.611-0.49-1.088-1.439-1.561l-1.19-0.615
			c-0.845-0.438-1.458-1.156-1.458-2.142c0-1.104,0.93-2,2.193-2c0.737,0,1.299,0.265,1.668,0.524
			c0.086-0.104,0.228-0.262,0.263-0.543h0.352v2.965h-0.352c-0.105-1.053-0.579-2.299-1.845-2.299c-0.682,0-1.262,0.369-1.262,1.021
			c0,0.612,0.456,0.946,1.527,1.509l1.175,0.612c1.001,0.511,1.368,1.3,1.368,1.983C101.247,99.253,100.106,100.217,98.756,100.217z
			"/>
		<path fill="#003B3C" d="M111.415,100.217c-2.353,0-4.283-1.84-4.283-4.105c0-2.229,1.932-4.088,4.283-4.088
			s4.282,1.859,4.282,4.088C115.697,98.377,113.767,100.217,111.415,100.217z M111.415,92.689c-2.07,0-2.842,1.912-2.842,3.422
			c0,1.527,0.771,3.422,2.842,3.422s2.842-1.895,2.842-3.422C114.257,94.602,113.486,92.689,111.415,92.689z"/>
		<path fill="#003B3C" d="M121.527,99.568v0.353h-4.018v-0.353c1.175,0,1.385-0.299,1.385-2.053v-2.81
			c0-1.754-0.21-2.035-1.385-2.035V92.32h4.07h2.283l0.139,2.104h-0.368l-0.089-0.349c-0.209-0.81-0.419-1.125-2.035-1.125h-1.368
			v2.614h0.105c1.755,0,1.895-0.211,1.895-1.387h0.353V97.6h-0.353c0-1.158-0.14-1.388-1.895-1.388h-0.105v1.3
			C120.143,99.27,120.354,99.568,121.527,99.568z"/>
		<path fill="#003B3C" d="M130.854,98.219c-0.438,1.034-0.438,1.332,0.948,1.332v0.369h-3.316v-0.369
			c1.069,0,1.228-0.21,1.809-1.525l2.577-6.002h0.248l2.578,6.002c0.579,1.315,0.791,1.525,1.721,1.525v0.369h-3.932v-0.369
			c1.264,0,1.388-0.298,0.947-1.332l-0.349-0.809h-2.882L130.854,98.219z M132.644,94.076l-1.157,2.684h2.315L132.644,94.076z"/>
		<path fill="#003B3C" d="M138.265,92.672V92.32h4.019v0.352c-1.177,0-1.388,0.281-1.388,2.035v2.527
			c0,1.754,0.211,2.033,1.388,2.033h0.615c1.614,0,1.823-0.297,2.036-1.123l0.086-0.351h0.368l-0.122,2.124h-7.002v-0.354
			c1.174,0,1.387-0.299,1.387-2.053v-2.809C139.651,92.953,139.438,92.672,138.265,92.672z"/>
		<path fill="#003B3C" d="M146.042,92.672V92.32h4.026v0.352c-1.174,0-1.387,0.281-1.387,2.035v2.527
			c0,1.754,0.213,2.033,1.387,2.033h0.613c1.614,0,1.825-0.297,2.034-1.123l0.091-0.351h0.366l-0.12,2.124h-7.012v-0.354
			c1.18,0,1.389-0.299,1.389-2.053v-2.809C147.431,92.953,147.222,92.672,146.042,92.672z"/>
		<path fill="#003B3C" d="M165.826,99.622c-0.07-0.313-0.191-0.737-0.314-0.858c-0.527,0.647-1.477,1.155-2.316,1.155
			c-2.192,0-3.967-1.84-3.967-4.104c0-2.229,1.773-4.088,3.967-4.088c0.843,0,1.789,0.489,2.316,1.155
			c0.123-0.141,0.244-0.577,0.314-0.856h0.336v3.033h-0.354c-0.334-1.632-1.267-2.666-2.615-2.666c-1.965,0-2.545,1.948-2.545,3.422
			c0,1.49,0.58,3.422,2.545,3.422c1.352,0,2.281-1.035,2.615-2.668h0.354v3.056L165.826,99.622L165.826,99.622z"/>
		<path fill="#003B3C" d="M174.729,95.564v-0.86c0-1.754-0.211-2.034-1.387-2.034v-0.352h4.018v0.352
			c-1.155,0-1.385,0.28-1.385,2.034v2.81c0,1.754,0.229,2.055,1.385,2.055v0.352h-4.018v-0.352c1.176,0,1.387-0.301,1.387-2.055
			v-1.3h-3.981v1.3c0,1.754,0.209,2.055,1.387,2.055v0.352h-4.021v-0.352c1.177,0,1.388-0.301,1.388-2.055v-2.81
			c0-1.754-0.211-2.034-1.388-2.034v-0.352h4.021v0.352c-1.178,0-1.387,0.28-1.387,2.034v0.86H174.729z"/>
		<path fill="#003B3C" d="M180.613,98.218c-0.438,1.034-0.438,1.332,0.947,1.332v0.369h-3.314V99.55c1.068,0,1.229-0.21,1.807-1.524
			l2.58-6.002h0.246l2.58,6.002c0.578,1.314,0.789,1.524,1.719,1.524v0.369h-3.932V99.55c1.264,0,1.387-0.298,0.947-1.332
			l-0.353-0.809h-2.877L180.613,98.218z M182.404,94.075l-1.158,2.684h2.314L182.404,94.075z"/>
		<path fill="#003B3C" d="M193.43,97.936c0.703,0.824,1.508,1.508,2.353,1.631v0.354h-2.244l-2.39-3.266h-0.489v0.859
			c0,1.754,0.209,2.053,1.387,2.053v0.354h-4.021v-0.354c1.175,0,1.386-0.299,1.386-2.053v-2.809c0-1.754-0.211-2.035-1.386-2.035
			v-0.352h3.631c1.812,0,2.812,0.932,2.812,2.176c0,1.072-0.809,1.949-2.123,2.125L193.43,97.936z M191.656,92.951h-0.998v3.053
			h0.998c0.984,0,1.441-0.684,1.441-1.51C193.098,93.652,192.641,92.951,191.656,92.951z"/>
		<path fill="#003B3C" d="M203.332,99.622c-0.07-0.313-0.193-0.737-0.314-0.858c-0.526,0.647-1.475,1.155-2.317,1.155
			c-2.191,0-3.966-1.84-3.966-4.104c0-2.229,1.771-4.088,3.966-4.088c0.844,0,1.791,0.489,2.317,1.155
			c0.121-0.141,0.244-0.577,0.314-0.856h0.334v3.033h-0.354c-0.334-1.632-1.265-2.666-2.613-2.666c-1.967,0-2.545,1.948-2.545,3.422
			c0,1.49,0.578,3.422,2.545,3.422c1.352,0,2.279-1.035,2.613-2.668h0.354v3.056L203.332,99.622L203.332,99.622z"/>
		<path fill="#003B3C" d="M210.023,99.146c1.229,0,2.143-0.703,2.143-2.229v-2.492c0-1.754-0.213-2.034-1.389-2.034V92.04h3.58
			v0.351c-1.158,0-1.387,0.28-1.387,2.034v2.371c0,2.054-1.421,3.123-3.142,3.123c-1.722,0-3.125-1.069-3.125-3.123v-2.371
			c0-1.754-0.209-2.034-1.388-2.034V92.04h4.021v0.351c-1.157,0-1.387,0.28-1.387,2.034v2.492
			C207.953,98.443,208.797,99.146,210.023,99.146z"/>
		<path fill="#003B3C" d="M217.328,93.003c-1.613,0-1.754,0.298-1.967,1.124l-0.086,0.352h-0.353l0.104-2.158h7.826l0.123,2.158
			h-0.369l-0.086-0.352c-0.211-0.826-0.424-1.124-2.037-1.124h-0.911v4.511c0,1.754,0.229,2.053,1.401,2.053v0.354h-4.035v-0.354
			c1.179,0,1.402-0.299,1.402-2.053v-4.511H217.328z"/>
		<path fill="#003B3C" d="M230.092,98.146l0.09-0.352h0.351l-0.142,2.124h-6.562v-0.353c1.176,0,1.387-0.299,1.387-2.053v-2.811
			c0-1.754-0.211-2.034-1.387-2.034v-0.351h3.877h2.267l0.141,2.104h-0.369l-0.088-0.35c-0.191-0.809-0.422-1.123-2.018-1.123
			h-1.177v2.615h0.104c1.756,0,1.896-0.213,1.896-1.389h0.353v3.422h-0.353c0-1.156-0.142-1.388-1.896-1.388h-0.104v1.019
			c0,1.756,0.209,2.035,1.388,2.035h0.211C229.654,99.27,229.881,98.973,230.092,98.146z"/>
		<path fill="#003B3C" d="M237.572,97.936c0.703,0.824,1.51,1.508,2.354,1.631v0.354h-2.246l-2.389-3.266h-0.49v0.859
			c0,1.754,0.211,2.053,1.387,2.053v0.354h-4.02v-0.354c1.176,0,1.387-0.299,1.387-2.053v-2.809c0-1.754-0.211-2.035-1.387-2.035
			v-0.352h3.631c1.811,0,2.809,0.932,2.809,2.176c0,1.072-0.805,1.949-2.121,2.125L237.572,97.936z M235.799,92.951h-0.998v3.053
			h0.998c0.982,0,1.439-0.684,1.439-1.51C237.24,93.652,236.783,92.951,235.799,92.951z"/>
		<path fill="#003B3C" d="M240.684,99.919v-0.353c1.176,0,1.385-0.299,1.385-2.053v-2.811c0-1.754-0.209-2.034-1.385-2.034v-0.351
			h4.021v0.351c-1.177,0-1.388,0.28-1.388,2.034v2.811c0,1.754,0.211,2.053,1.388,2.053v0.353H240.684z"/>
		<path fill="#003B3C" d="M252.604,98.146l0.088-0.352h0.351l-0.14,2.124h-6.562v-0.353c1.175,0,1.386-0.299,1.386-2.053v-2.811
			c0-1.754-0.211-2.034-1.386-2.034v-0.351h3.877h2.265l0.143,2.104h-0.369l-0.088-0.35c-0.191-0.809-0.422-1.123-2.021-1.123
			h-1.172v2.615h0.104c1.756,0,1.896-0.213,1.896-1.389h0.354v3.422h-0.354c0-1.156-0.14-1.388-1.896-1.388h-0.104v1.019
			c0,1.756,0.209,2.035,1.387,2.035h0.209C252.164,99.27,252.391,98.973,252.604,98.146z"/>
		<path fill="#003B3C" d="M258.771,99.919v-0.353c1.174,0,1.383-0.299,1.383-2.053v-2.811c0-1.754-0.209-2.034-1.383-2.034v-0.351
			h4.018v0.351c-1.176,0-1.387,0.28-1.387,2.034v2.811c0,1.754,0.211,2.053,1.387,2.053v0.353H258.771z"/>
		<path fill="#003B3C" d="M266.072,93.003c-1.611,0-1.754,0.298-1.965,1.124l-0.088,0.352h-0.351l0.104-2.158h7.824l0.125,2.158
			h-0.369l-0.088-0.352c-0.213-0.826-0.422-1.124-2.035-1.124h-0.914v4.511c0,1.754,0.23,2.053,1.404,2.053v0.354h-4.037v-0.354
			c1.178,0,1.404-0.299,1.404-2.053v-4.511H266.072z"/>
		<path fill="#003B3C" d="M278.838,98.146l0.084-0.352h0.352l-0.137,2.124h-6.563v-0.353c1.176,0,1.387-0.299,1.387-2.053v-2.811
			c0-1.754-0.211-2.034-1.387-2.034v-0.351h3.877h2.266l0.142,2.104h-0.369l-0.088-0.35c-0.191-0.809-0.422-1.123-2.021-1.123
			h-1.174v2.615h0.104c1.754,0,1.896-0.213,1.896-1.389h0.353v3.422h-0.353c0-1.156-0.142-1.388-1.896-1.388h-0.104v1.019
			c0,1.756,0.209,2.035,1.387,2.035h0.21C278.398,99.27,278.625,98.973,278.838,98.146z"/>
		<path fill="#003B3C" d="M282.945,97.218c0,1.755,0.213,2.054,1.389,2.054v0.353h-3.422v-0.353c1.176,0,1.387-0.299,1.387-2.054
			v-2.809c0-1.754-0.211-2.035-1.387-2.035v-0.353h2.633l2.615,5.86l2.596-5.86h2.459v0.353c-1.178,0-1.404,0.281-1.404,2.035v2.809
			c0,1.755,0.229,2.054,1.404,2.054v0.353h-4.021v-0.353c1.177,0,1.39-0.299,1.39-2.054v-3.282l-2.649,5.983h-0.246l-2.738-6.211
			v3.51H282.945z"/>
		<path fill="#003B3C" d="M295.713,99.919c-0.914,0-1.65-0.438-1.965-0.647c-0.107,0.125-0.281,0.353-0.336,0.647h-0.314V96.9h0.351
			c0.143,1.492,1.09,2.334,2.403,2.334c0.754,0,1.353-0.422,1.353-1.176c0-0.613-0.49-1.089-1.438-1.562l-1.192-0.615
			c-0.845-0.438-1.457-1.157-1.457-2.142c0-1.105,0.932-2,2.192-2c0.736,0,1.299,0.265,1.668,0.523
			c0.088-0.104,0.229-0.261,0.265-0.541h0.352v2.965h-0.352c-0.104-1.054-0.578-2.299-1.845-2.299c-0.684,0-1.264,0.368-1.264,1.02
			c0,0.613,0.457,0.947,1.525,1.509l1.18,0.612c0.998,0.511,1.367,1.3,1.367,1.984C298.203,98.955,297.062,99.919,295.713,99.919z"
			/>
	</g>
</g>
<g>
	<path fill="#003B3C" d="M46.67,6.682V5.33c0-1.473-0.678-2.101-1.449-2.101c-1.209,0-1.594,0.628-1.594,1.931v8.837
		c0,1.306,0.385,1.932,1.594,1.932c1.086,0,1.449-0.626,1.449-1.762v-2.101h2.993v2.004c0,2.463-1.448,4.467-4.442,4.467
		c-3.141,0-4.588-2.004-4.588-4.467V5.086c0-2.462,1.447-4.467,4.588-4.467c2.994,0,4.442,2.173,4.442,4.78v1.282L46.67,6.682
		L46.67,6.682z"/>
	<path fill="#003B3C" d="M53.91,18.294V0.859h2.996V7.96h3.187V0.859h2.996v17.435h-2.996V10.57h-3.187v7.725L53.91,18.294
		L53.91,18.294z"/>
	<path fill="#003B3C" d="M68.906,18.294h-2.897L69.22,0.859h3.719l3.211,17.435h-2.896l-0.53-3.862h-3.283L68.906,18.294z
		 M69.87,11.826h2.415l-1.186-7.487h-0.047L69.87,11.826z"/>
	<path fill="#003B3C" d="M82.087,18.294h-2.993V0.859h4.2c3.355,0,5.07,1.428,5.07,5.144c0,2.802-1.086,3.936-2.1,4.394l2.535,7.896
		h-3.044l-2.125-7.219c-0.388,0.047-1.014,0.073-1.545,0.073L82.087,18.294L82.087,18.294z M82.087,8.686h1.062
		c1.617,0,2.221-0.604,2.221-2.682c0-2.075-0.604-2.679-2.221-2.679h-1.062V8.686z"/>
	<path fill="#003B3C" d="M98.386,6.682V5.33c0-1.473-0.678-2.101-1.449-2.101c-1.209,0-1.595,0.628-1.595,1.931v8.837
		c0,1.306,0.386,1.932,1.595,1.932c1.084,0,1.449-0.626,1.449-1.762v-2.101h2.991v2.004c0,2.463-1.448,4.467-4.44,4.467
		c-3.142,0-4.59-2.004-4.59-4.467V5.086c0-2.462,1.448-4.467,4.59-4.467c2.992,0,4.44,2.173,4.44,4.78v1.282L98.386,6.682
		L98.386,6.682z"/>
	<path fill="#003B3C" d="M105.626,0.859h2.994V14.02c0,1.282,0.508,1.908,1.594,1.908c1.089,0,1.595-0.626,1.595-1.908V0.859h2.994
		V13.9c0,2.994-1.737,4.636-4.589,4.636c-2.85,0-4.588-1.642-4.588-4.636V0.859L105.626,0.859z"/>
	<path fill="#003B3C" d="M120.643,3.471h-2.896V0.859h8.79v2.61h-2.897v14.824h-2.995L120.643,3.471L120.643,3.471z"/>
	<path fill="#003B3C" d="M129.504,18.294V0.859h8.018v2.61H132.5V7.96h3.864v2.609H132.5v5.119h5.361v2.605L129.504,18.294
		L129.504,18.294z"/>
	<path fill="#003B3C" d="M144.427,18.294h-2.997V0.859h4.201c3.359,0,5.076,1.428,5.076,5.144c0,2.802-1.087,3.936-2.104,4.394
		l2.54,7.896h-3.045l-2.127-7.219c-0.387,0.047-1.015,0.073-1.543,0.073V18.294L144.427,18.294z M144.427,8.686h1.061
		c1.619,0,2.223-0.604,2.223-2.682c0-2.075-0.604-2.679-2.223-2.679h-1.061V8.686z"/>
	<path fill="#003B3C" d="M155.123,18.294V0.859h2.994v17.435H155.123z"/>
	<path fill="#003B3C" d="M162.611,18.294V0.859h8.016v2.61h-5.02V7.96h3.858v2.609h-3.858v5.119h5.358v2.605L162.611,18.294
		L162.611,18.294z"/>
	<path fill="#003B3C" d="M181.078,18.294V0.859h4.297c3.697,0,5.412,1.428,5.412,5.144c0,3.719-1.715,5.144-5.412,5.144h-1.301
		v7.146L181.078,18.294L181.078,18.294z M184.074,8.686h1.158c1.955,0,2.559-0.604,2.559-2.682c0-2.075-0.604-2.679-2.559-2.679
		h-1.158V8.686z"/>
	<path fill="#003B3C" d="M194.215,18.294V0.859h2.994v14.829h4.709v2.605L194.215,18.294L194.215,18.294z"/>
	<path fill="#003B3C" d="M206.695,18.294h-2.898l3.213-17.435h3.719l3.213,17.435h-2.897l-0.53-3.862h-3.283L206.695,18.294z
		 M207.662,11.826h2.412l-1.182-7.487h-0.05L207.662,11.826z"/>
	<path fill="#003B3C" d="M217.729,3.471h-2.896V0.859h8.791v2.61h-2.897v14.824h-2.994V3.471H217.729z"/>
	<path fill="#003B3C" d="M228.328,3.471h-2.896V0.859h8.791v2.61h-2.897v14.824h-2.994V3.471H228.328z"/>
	<path fill="#003B3C" d="M237.189,18.294V0.859h8.018v2.61h-5.021V7.96h3.861v2.609h-3.861v5.119h5.359v2.605L237.189,18.294
		L237.189,18.294z"/>
	<path fill="#003B3C" d="M252.111,18.294h-2.996V0.859h4.203c3.354,0,5.07,1.428,5.07,5.144c0,2.802-1.089,3.936-2.103,4.394
		l2.534,7.896h-3.043l-2.123-7.219c-0.387,0.047-1.016,0.073-1.547,0.073v7.147H252.111z M252.111,8.686h1.062
		c1.615,0,2.222-0.604,2.222-2.682c0-2.075-0.604-2.679-2.222-2.679h-1.062V8.686z"/>
</g>
<g>
	<path fill="#003B3C" d="M49.334,46.713c0.474-0.021,0.75-0.088,1.002-0.035c1.603,0.339,3.199,0.971,4.804,1
		c2.396,0.044,4.797-0.417,7.199-0.501c2.317-0.08,4.035,2.314,3.519,4.58c-0.588,2.576-3.201,3.042-6.114,2.3
		c-1.979-0.504-3.898-0.894-5.94-0.426c-1.433,0.329-2.903,0.502-4.496,0.768c0.479-1.705,1.556-2.645,3.162-3.011
		c2.448-0.558,4.865-0.524,7.282,0.271c0.909,0.301,1.916,0.435,2.874,0.413c0.407-0.01,1.019-0.551,1.135-0.965
		c0.099-0.349-0.288-1.134-0.625-1.25c-0.809-0.28-1.844-0.61-2.557-0.332c-2.029,0.795-4.041,0.625-6.117,0.517
		C52.179,49.922,50.588,48.886,49.334,46.713 M69.988,50.834c-0.835-0.447-1.393-1.767-2.728-0.78
		c0.482,0.282,0.95,0.556,1.545,0.906c-0.869,0.497-1.676,0.675-1.823-0.362c-0.626-4.366-3.966-5.15-7.72-4.486
		c-2.298,0.407-4.693,0.461-7.029,0.374c-1.196-0.045-2.368-0.75-3.887-0.901c0.572,1.281,1.143,2.564,1.814,4.074
		c-0.563-0.35-1.042-0.648-1.52-0.947c0.056-0.138,0.11-0.276,0.166-0.415c-1.554,0.054-1.89,1.245-2.164,2.456
		c-1.3,0.097-2.566,0.206-3.834,0.265c-0.135,0.006-0.283-0.28-0.427-0.429l0.015,0.003c-1.268-1.05-2.744,0.206-4.086-0.319
		c-0.11-0.043-0.526,0.693-0.797,1.069c0.388,0.2,0.903,0.669,1.145,0.557c1.449-0.678,2.31,0.307,3.449,1.112
		c-0.59-1.833,0.593-1.829,1.658-1.684c1.563,0.216,3.373-0.243,4.395,1.488c0.457-0.382,0.812-0.677,1.167-0.975
		c0.109,0.104,0.22,0.203,0.329,0.305c-0.5,1.039-0.999,2.077-1.639,3.41c0.677-0.102,1.197-0.066,1.61-0.26
		c2.543-1.194,5.097-1.159,7.771-0.418c1.506,0.418,3.109,0.611,4.676,0.675c2.3,0.092,3.891-1.204,4.794-3.641
		c1.142-0.017,2.615,0.762,3.078-1.13C69.941,50.782,69.988,50.834,69.988,50.834"/>
	<path fill="#003B3C" d="M80.032,55.515c-0.518-0.608-1.036-1.216-1.553-1.822c0.499-0.181,1.085-0.622,1.479-0.49
		C80.982,53.543,80.899,54.376,80.032,55.515 M81.713,55.66c-0.15-0.16-0.301-0.32-0.452-0.479c0.042-0.936,0.166-1.889,1.365-2.012
		c0.317-0.032,0.692,0.514,1.041,0.795C83.016,54.529,82.365,55.095,81.713,55.66 M87.165,52.992
		c-0.906,0.368-1.812,0.735-2.715,1.103c-0.15-0.144-0.303-0.286-0.451-0.429c0.375-0.578,0.625-1.408,1.156-1.673
		C85.896,51.627,86.815,51.746,87.165,52.992 M77.604,50.41c3.292-2.318,5.063-2.164,7.431,0.574
		C80.871,53.583,81.104,53.271,77.604,50.41 M70.636,50.597c0.496,0.458,0.923,1.047,1.5,1.351c2.555,1.339,5.102,2.715,7.761,3.814
		c0.858,0.354,2.136,0.131,3.075-0.223c2.519-0.946,4.973-2.074,7.422-3.198c0.742-0.34,1.382-0.903,2.162-1.424
		c-0.208-0.271-0.327-0.567-0.542-0.686c-3.255-1.773-6.519-3.536-9.797-5.263c-0.252-0.132-0.687-0.09-0.969,0.029
		c-3.397,1.426-6.797,2.847-10.15,4.37c-0.489,0.224-0.749,0.964-1.112,1.465c0.002,0.002-0.046-0.05-0.042-0.048
		c0.234-0.061,0.464-0.123,0.695-0.186c0.564-0.248,1.122-0.514,1.695-0.741c0.948-0.374,1.906-0.723,2.861-1.084
		c1-0.18,2.269,0.481,2.821-1.242c0.046-0.144,0.283-0.281,0.455-0.323c1.027-0.253,2.061-0.478,3.242-0.746
		c0.798,1.281,3.298,0.76,4.154,2.641c2.022-0.275,3.277,1.301,4.973,1.972c-0.608,0.505-1.185,0.86-1.807,1.083
		c-0.47,0.17-0.999,0.165-1.501,0.237c0.33-0.445,0.644-0.901,0.993-1.331c0.1-0.124,0.291-0.174,0.441-0.259
		c-0.003-0.157-0.007-0.316-0.011-0.473c-0.827-0.054-1.66-0.065-2.479-0.179c-0.637-0.09-1.498-0.11-1.831-0.515
		c-0.578-0.699-1.068-1.154-2.017-0.996c-0.24,0.04-0.518-0.266-0.798-0.341c-0.413-0.111-0.91-0.335-1.251-0.2
		c-0.876,0.346-1.673,0.884-2.524,1.299c-0.474,0.232-0.979,0.466-1.493,0.538c-1.414,0.2-2.841,0.313-4.615,0.498
		c1.3,0.964,3.42-0.541,3.397,2.14c0.333-0.464,0.462-0.804,0.603-0.811c0.632-0.029,1.31-0.081,1.884,0.125
		c0.251,0.091,0.516,0.871,0.386,1.173c-0.531,1.232-1.393,0.646-2.183,0.249C74.235,52.404,72.436,51.501,70.636,50.597"/>
	<path fill="#003B3C" d="M41.968,46.866c-0.078,1.076-0.129,1.776-0.181,2.491c1.265-0.708,0.981-1.85,0.629-2.85
		c-0.075-0.211-1.42-0.342-1.648-0.07c-0.997,1.205-2.312,1.57-3.708,1.987c-0.62,0.185-1.063,0.96-1.581,1.459h-2.583
		c-0.172-0.848-0.394-1.948-0.585-2.897c-1.32-0.547-2.65-1.098-3.989-1.652c-1.136,0.295-2.395,0.623-3.621,0.942
		c-0.324,1.224-0.686,2.601-1.049,3.975c0.603-1.352,1.609-1.136,2.707-0.657c0.061-0.105,0.123-0.21,0.184-0.316
		c-0.217-0.331-0.479-0.64-0.639-0.998c-0.176-0.394-0.257-0.829-0.379-1.246c0.452,0.128,0.947,0.183,1.339,0.412
		c0.302,0.175,0.472,0.574,0.954,1.208c0-0.785-0.103-1.22,0.028-1.563c0.129-0.333,0.501-0.572,0.766-0.853
		c0.17,0.296,0.425,0.575,0.492,0.893c0.085,0.41,0.021,0.851,0.021,1.295c0.782-0.401,1.481-0.761,2.182-1.12
		c0.139,0.177,0.275,0.351,0.413,0.527c-0.519,0.615-1.04,1.227-1.722,2.027c0.483,0.076,0.938,0.056,1.305,0.224
		c0.739,0.338,1.9,0.652,2.049,1.202c0.413,1.524,1.136,1.157,1.886,1.088c1.043,0.461,2.106,0.889,3.125,1.401
		c0.772,0.388,1.486,0.892,2.231,1.339c0.483,0.29,0.975,0.569,1.462,0.853c0.269-0.675,0.539-1.351,0.808-2.027
		c-0.136-0.051-0.272-0.102-0.407-0.152c-0.175,0.385-0.349,0.769-0.523,1.152c-0.462-0.246-1.204-0.389-1.334-0.752
		c-0.43-1.195-1.48-1.114-2.352-1.349c-0.992-0.268-2.067-0.465-1.953-1.771c0.108-1.241,0.852-1.933,2.214-1.83
		c0.595,0.045,1.167,0.144,1.391-0.849C40.024,47.845,41.048,47.507,41.968,46.866"/>
	<path fill="#003B3C" d="M20.367,49.133c-0.555-0.819-1.411-1.473-2.868-1.404c-0.637,0.03-1.291-0.926-1.991-1.342
		c-0.498-0.297-1.226-0.742-1.6-0.57c-0.386,0.175-0.466,1.017-0.681,1.568c0.116,0.053,0.234,0.108,0.351,0.162
		c0.206-0.309,0.412-0.618,0.674-1.01c0.151,0.091,0.4,0.151,0.442,0.28c0.483,1.452,1.645,1.673,2.964,1.851
		c1.737,0.232,2.181,0.828,1.886,2.294c-0.082,0.405-0.544,1.065-0.801,1.053c-1.72-0.095-2.499,1.359-3.707,2.087
		c-0.119,0.07-0.261,0.102-0.392,0.152c-0.645-1.509,0.556-3.247,2.204-3.227c0.341,0.004,0.757,0.178,1.005,0.036
		c0.268-0.152,0.531-0.593,0.507-0.885c-0.017-0.203-0.617-0.588-0.793-0.514c-1.526,0.659-2.59-0.048-3.761-1.321
		c-0.133,0.695-0.23,1.194-0.356,1.853c-1.169-0.168-2.409-0.347-3.739-0.539c-0.382,0.924-0.221,1.421,0.959,1.376
		c1.286-0.05,2.574-0.011,3.996-0.011c-0.377,1.066-0.801,1.905-0.941,2.79c-0.077,0.494,0.316,1.062,0.498,1.596
		c0.501-0.213,1.027-0.386,1.499-0.651c0.93-0.524,1.834-1.094,2.743-1.655c0.604-0.374,1.192-0.774,1.794-1.153
		c0.231-0.144,0.52-0.406,0.713-0.355c0.818,0.214,1.411,0.019,1.598-0.822c0.097-0.438,0.105-1.246-0.091-1.333
		C21.925,49.192,21.241,49.233,20.367,49.133"/>
	<path fill="#003B3C" d="M28.844,52.064c0,0.67,0.054,1.131-0.019,1.569c-0.052,0.307-0.276,0.585-0.424,0.876
		c-0.291-0.208-0.7-0.354-0.848-0.638c-0.255-0.49-0.348-1.064-0.51-1.604c-0.192-0.032-0.384-0.066-0.577-0.1
		c-0.273,0.801-0.548,1.603-0.75,2.189c1.09,0.384,1.865,0.655,2.735,0.962c0.98-0.462,2.194-1.035,3.647-1.719
		c0.164-0.571,0.411-1.438,0.693-2.42c-1.022,0.057-1.764,0.097-2.739,0.15c0.615,0.68,1.102,1.219,1.617,1.792
		C30.188,54.199,29.814,52.71,28.844,52.064"/>
	<path fill="#003B3C" d="M30.015,50.392c-0.774-0.614-1.268-1.317-1.791-1.342c-0.71-0.033-1.48,0.316-1.436,1.434
		c0.049,1.252,0.973,1.346,1.736,1.323C28.938,51.795,29.329,51.076,30.015,50.392"/>
	<path fill="#003B3C" d="M42.968,52.436c0.175,0.655,0.26,1.286,0.517,1.838c0.167,0.359,0.606,0.868,0.88,0.843
		c0.432-0.041,0.999-0.392,1.178-0.769c0.124-0.258-0.205-0.968-0.521-1.151C44.376,52.817,43.602,52.656,42.968,52.436"/>
	<path fill="#003B3C" d="M13.894,51.414c-1.065,0.335-1.852,0.531-2.59,0.843c-0.3,0.127-0.691,0.516-0.685,0.778
		c0.008,0.385,0.25,0.885,0.557,1.103c0.205,0.145,0.847,0.003,1.034-0.224C12.795,53.197,13.258,52.383,13.894,51.414"/>
	<path fill="#003B3C" d="M42.382,50.59c0.836-0.458,1.702-0.867,2.49-1.397c0.301-0.204,0.588-0.689,0.573-1.033
		c-0.016-0.366-0.328-0.839-0.648-1.023c-0.202-0.117-0.838,0.111-0.97,0.354c-0.542,1.001-0.964,2.063-1.429,3.103L42.382,50.59z"
		/>
	<path fill="#003B3C" d="M12.99,48.875c-1.078-0.764,0.232-2.601-1.686-2.492c-0.314,0.02-0.898,0.69-0.839,0.938
		C10.707,48.347,11.377,49.002,12.99,48.875"/>
	<path fill="#003B3C" d="M24.46,53.721c0.51-0.913,1.023-1.832,1.717-3.069c-0.769,0.183-1.955,0.284-1.976,0.501
		C24.11,52.074,24.366,53.029,24.46,53.721"/>
	<path fill="#003B3C" d="M63.39,52.988c-3.121-0.335-6.237-0.743-9.369-0.958c-0.937-0.064-1.913,0.409-2.836,0.809
		c2.883-0.771,5.685-0.465,8.515,0.267c1.172,0.304,2.435,0.245,3.659,0.352C63.369,53.301,63.379,53.145,63.39,52.988"/>
	<path fill="#003B3C" d="M57.056,48.881c-1.805-0.22-3.761-0.459-5.526-0.676C52.454,49.232,55.345,49.625,57.056,48.881"/>
	<path fill="#003B3C" d="M79.907,50.3c0.884,0.84,1.765,1.653,3.073,0H79.907z"/>
</g>
<g>
	<path fill="#003B3C" d="M250.823,46.713c-1.255,2.172-2.846,3.209-5.129,3.328c-2.076,0.107-4.087,0.278-6.116-0.517
		c-0.713-0.278-1.748,0.052-2.557,0.332c-0.337,0.116-0.725,0.902-0.625,1.25c0.116,0.415,0.728,0.956,1.135,0.965
		c0.959,0.021,1.964-0.112,2.873-0.413c2.419-0.795,4.835-0.829,7.283-0.271c1.605,0.367,2.683,1.306,3.161,3.011
		c-1.593-0.266-3.062-0.438-4.495-0.768c-2.042-0.468-3.962-0.078-5.94,0.426c-2.912,0.742-5.525,0.276-6.114-2.3
		c-0.517-2.266,1.201-4.66,3.519-4.58c2.402,0.084,4.803,0.546,7.199,0.501c1.605-0.029,3.201-0.662,4.804-1
		C250.072,46.625,250.349,46.693,250.823,46.713 M230.17,50.834c0,0,0.046-0.052,0.041-0.051c0.464,1.892,1.937,1.113,3.078,1.13
		c0.903,2.437,2.494,3.732,4.795,3.641c1.566-0.063,3.17-0.257,4.676-0.675c2.673-0.741,5.227-0.776,7.771,0.418
		c0.413,0.193,0.934,0.158,1.609,0.26c-0.64-1.333-1.139-2.371-1.638-3.41c0.108-0.102,0.219-0.201,0.329-0.305
		c0.354,0.298,0.709,0.593,1.166,0.975c1.022-1.731,2.831-1.272,4.395-1.488c1.065-0.146,2.248-0.149,1.658,1.684
		c1.139-0.806,2-1.791,3.449-1.112c0.241,0.112,0.757-0.357,1.146-0.557c-0.271-0.375-0.688-1.112-0.798-1.069
		c-1.342,0.525-2.817-0.73-4.086,0.319l0.015-0.003c-0.144,0.149-0.291,0.436-0.427,0.429c-1.268-0.059-2.534-0.168-3.834-0.265
		c-0.274-1.211-0.61-2.402-2.163-2.456c0.056,0.139,0.109,0.276,0.166,0.415c-0.478,0.298-0.956,0.597-1.52,0.947
		c0.671-1.51,1.242-2.793,1.813-4.074c-1.519,0.15-2.69,0.856-3.887,0.901c-2.337,0.087-4.731,0.033-7.029-0.374
		c-3.754-0.665-7.094,0.12-7.72,4.486c-0.147,1.037-0.954,0.859-1.823,0.362c0.595-0.35,1.062-0.624,1.545-0.906
		C231.562,49.067,231.005,50.387,230.17,50.834"/>
	<path fill="#003B3C" d="M220.125,55.515c-0.867-1.139-0.95-1.972,0.074-2.312c0.395-0.132,0.979,0.31,1.479,0.49
		C221.161,54.299,220.644,54.906,220.125,55.515 M218.444,55.66c-0.652-0.565-1.303-1.131-1.955-1.696
		c0.35-0.281,0.725-0.827,1.041-0.795c1.198,0.123,1.323,1.076,1.364,2.012C218.745,55.34,218.594,55.5,218.444,55.66
		 M212.993,52.992c0.349-1.246,1.269-1.365,2.009-0.999c0.531,0.265,0.781,1.095,1.156,1.673c-0.148,0.143-0.301,0.285-0.451,0.429
		C214.804,53.728,213.898,53.36,212.993,52.992 M222.553,50.41c-3.5,2.861-3.266,3.173-7.432,0.574
		C217.49,48.247,219.261,48.092,222.553,50.41 M229.521,50.597c-1.799,0.904-3.598,1.808-5.399,2.714
		c-0.79,0.397-1.651,0.983-2.183-0.249c-0.129-0.302,0.135-1.082,0.386-1.173c0.574-0.206,1.253-0.154,1.885-0.125
		c0.14,0.007,0.27,0.347,0.604,0.811c-0.023-2.68,2.096-1.176,3.396-2.14c-1.773-0.185-3.201-0.298-4.614-0.498
		c-0.515-0.071-1.021-0.306-1.493-0.538c-0.852-0.415-1.648-0.953-2.524-1.299c-0.342-0.135-0.839,0.089-1.251,0.2
		c-0.279,0.076-0.558,0.381-0.798,0.341c-0.949-0.158-1.44,0.297-2.017,0.996c-0.334,0.404-1.194,0.425-1.831,0.515
		c-0.818,0.114-1.651,0.125-2.479,0.179c-0.004,0.157-0.007,0.316-0.012,0.473c0.151,0.085,0.343,0.136,0.441,0.259
		c0.349,0.43,0.664,0.885,0.992,1.331c-0.501-0.072-1.03-0.067-1.5-0.237c-0.623-0.223-1.199-0.577-1.807-1.083
		c1.695-0.671,2.95-2.247,4.972-1.972c0.856-1.881,3.356-1.36,4.155-2.641c1.182,0.268,2.215,0.493,3.241,0.746
		c0.173,0.042,0.409,0.179,0.455,0.323c0.553,1.723,1.821,1.062,2.821,1.242c0.955,0.361,1.913,0.71,2.86,1.084
		c0.573,0.227,1.132,0.493,1.696,0.741c0.23,0.063,0.461,0.125,0.694,0.186c0.004-0.001-0.044,0.051-0.042,0.048
		c-0.363-0.501-0.623-1.241-1.111-1.465c-3.354-1.523-6.754-2.944-10.151-4.37c-0.281-0.119-0.716-0.161-0.969-0.029
		c-3.278,1.728-6.541,3.49-9.797,5.263c-0.215,0.119-0.334,0.414-0.542,0.686c0.779,0.521,1.419,1.084,2.162,1.424
		c2.449,1.124,4.902,2.252,7.421,3.198c0.94,0.354,2.218,0.577,3.076,0.223c2.659-1.1,5.206-2.476,7.761-3.814
		C228.599,51.644,229.025,51.055,229.521,50.597"/>
	<path fill="#003B3C" d="M258.189,46.866c0.078,1.076,0.129,1.776,0.181,2.491c-1.265-0.708-0.98-1.85-0.629-2.85
		c0.074-0.211,1.42-0.342,1.647-0.07c0.998,1.205,2.312,1.57,3.708,1.987c0.619,0.185,1.062,0.96,1.58,1.459h2.582
		c0.173-0.848,0.396-1.948,0.586-2.897c1.32-0.547,2.65-1.098,3.989-1.652c1.136,0.295,2.396,0.623,3.621,0.942
		c0.324,1.224,0.687,2.601,1.05,3.975c-0.604-1.352-1.609-1.136-2.707-0.657c-0.061-0.105-0.123-0.21-0.184-0.316
		c0.217-0.331,0.479-0.64,0.64-0.998c0.176-0.394,0.256-0.829,0.378-1.246c-0.452,0.128-0.946,0.183-1.339,0.412
		c-0.302,0.175-0.472,0.574-0.954,1.208c0-0.785,0.104-1.22-0.028-1.563c-0.129-0.333-0.501-0.572-0.765-0.853
		c-0.171,0.296-0.426,0.575-0.493,0.893c-0.085,0.41-0.021,0.851-0.021,1.295c-0.782-0.401-1.481-0.761-2.183-1.12
		c-0.138,0.177-0.274,0.351-0.412,0.527c0.52,0.615,1.04,1.227,1.722,2.027c-0.482,0.076-0.938,0.056-1.305,0.224
		c-0.739,0.338-1.9,0.652-2.049,1.202c-0.414,1.524-1.136,1.157-1.886,1.088c-1.044,0.461-2.106,0.889-3.126,1.401
		c-0.772,0.388-1.485,0.892-2.231,1.339c-0.483,0.29-0.975,0.569-1.461,0.853c-0.27-0.675-0.539-1.351-0.809-2.027
		c0.136-0.051,0.271-0.102,0.407-0.152c0.175,0.385,0.349,0.769,0.522,1.152c0.462-0.246,1.203-0.389,1.334-0.752
		c0.43-1.195,1.48-1.114,2.352-1.349c0.991-0.268,2.067-0.465,1.953-1.771c-0.107-1.241-0.853-1.933-2.214-1.83
		c-0.595,0.045-1.167,0.144-1.392-0.849C260.134,47.845,259.109,47.507,258.189,46.866"/>
	<path fill="#003B3C" d="M279.79,49.133c0.555-0.819,1.411-1.473,2.867-1.404c0.638,0.03,1.291-0.926,1.992-1.342
		c0.497-0.297,1.226-0.742,1.6-0.57c0.386,0.175,0.467,1.017,0.681,1.568c-0.116,0.053-0.234,0.108-0.351,0.162
		c-0.206-0.309-0.412-0.618-0.674-1.01c-0.15,0.091-0.4,0.151-0.442,0.28c-0.482,1.452-1.645,1.673-2.964,1.851
		c-1.737,0.232-2.181,0.828-1.886,2.294c0.081,0.405,0.545,1.065,0.801,1.053c1.721-0.095,2.499,1.359,3.707,2.087
		c0.119,0.07,0.261,0.102,0.392,0.152c0.645-1.509-0.557-3.247-2.205-3.227c-0.34,0.004-0.757,0.178-1.004,0.036
		c-0.269-0.152-0.532-0.593-0.508-0.885c0.017-0.203,0.617-0.588,0.793-0.514c1.526,0.659,2.591-0.048,3.762-1.321
		c0.133,0.695,0.229,1.194,0.355,1.853c1.17-0.168,2.409-0.347,3.739-0.539c0.382,0.924,0.222,1.421-0.96,1.376
		c-1.284-0.05-2.573-0.011-3.996-0.011c0.378,1.066,0.802,1.905,0.942,2.79c0.077,0.494-0.315,1.062-0.499,1.596
		c-0.5-0.213-1.026-0.386-1.498-0.651c-0.93-0.524-1.834-1.094-2.743-1.655c-0.604-0.374-1.192-0.774-1.795-1.153
		c-0.23-0.144-0.519-0.406-0.714-0.355c-0.817,0.214-1.409,0.019-1.598-0.822c-0.097-0.438-0.105-1.246,0.091-1.333
		C278.232,49.192,278.915,49.233,279.79,49.133"/>
	<path fill="#003B3C" d="M271.313,52.064c0,0.67-0.055,1.131,0.018,1.569c0.053,0.307,0.277,0.585,0.425,0.876
		c0.292-0.208,0.701-0.354,0.849-0.638c0.255-0.49,0.348-1.064,0.51-1.604c0.193-0.032,0.385-0.066,0.577-0.1
		c0.273,0.801,0.548,1.603,0.75,2.189c-1.09,0.384-1.864,0.655-2.735,0.962c-0.98-0.462-2.193-1.035-3.647-1.719
		c-0.163-0.571-0.411-1.438-0.692-2.42c1.021,0.057,1.764,0.097,2.738,0.15c-0.615,0.68-1.102,1.219-1.616,1.792
		C269.968,54.199,270.342,52.71,271.313,52.064"/>
	<path fill="#003B3C" d="M270.142,50.392c0.774-0.614,1.268-1.317,1.791-1.342c0.71-0.033,1.48,0.316,1.436,1.434
		c-0.049,1.252-0.973,1.346-1.735,1.323C271.22,51.795,270.828,51.076,270.142,50.392"/>
	<path fill="#003B3C" d="M257.189,52.436c-0.175,0.655-0.261,1.286-0.518,1.838c-0.167,0.359-0.606,0.868-0.88,0.843
		c-0.432-0.041-0.998-0.392-1.179-0.769c-0.123-0.258,0.205-0.968,0.521-1.151C255.781,52.817,256.556,52.656,257.189,52.436"/>
	<path fill="#003B3C" d="M286.263,51.414c1.065,0.335,1.853,0.531,2.591,0.843c0.3,0.127,0.69,0.516,0.686,0.778
		c-0.009,0.385-0.25,0.885-0.559,1.103c-0.204,0.145-0.846,0.003-1.033-0.224C287.362,53.197,286.899,52.383,286.263,51.414"/>
	<path fill="#003B3C" d="M257.775,50.59c-0.836-0.458-1.703-0.867-2.489-1.397c-0.302-0.204-0.589-0.689-0.573-1.033
		c0.017-0.366,0.327-0.839,0.647-1.023c0.203-0.117,0.839,0.111,0.971,0.354c0.541,1.001,0.964,2.063,1.43,3.103L257.775,50.59z"/>
	<path fill="#003B3C" d="M287.167,48.875c1.078-0.764-0.231-2.601,1.687-2.492c0.314,0.02,0.897,0.69,0.838,0.938
		C289.45,48.347,288.779,49.002,287.167,48.875"/>
	<path fill="#003B3C" d="M275.697,53.721c-0.511-0.913-1.023-1.832-1.717-3.069c0.769,0.183,1.955,0.284,1.976,0.501
		C276.047,52.074,275.792,53.029,275.697,53.721"/>
	<path fill="#003B3C" d="M236.767,52.988c3.122-0.335,6.238-0.743,9.369-0.958c0.937-0.064,1.912,0.409,2.837,0.809
		c-2.883-0.771-5.686-0.465-8.516,0.267c-1.172,0.304-2.435,0.245-3.659,0.352C236.789,53.301,236.778,53.145,236.767,52.988"/>
	<path fill="#003B3C" d="M243.102,48.881c1.804-0.22,3.761-0.459,5.525-0.676C247.702,49.232,244.812,49.625,243.102,48.881"/>
	<path fill="#003B3C" d="M220.249,50.3c-0.883,0.84-1.765,1.653-3.071,0H220.249z"/>
</g>
<g>
	<path fill="#003B3C" d="M123.24,30.576h3.417v5.011c3.188,0.627,6.036,2.506,7.915,5.183l-4.328,3.701
		c-0.854-1.424-1.822-2.904-3.587-3.303v11.788c4.84,3.075,9.225,6.32,9.225,12.697c0,5.695-3.245,10.535-9.225,11.049v6.605h-3.417
		v-6.605c-3.93-0.398-7.175-3.246-9.226-6.436l4.727-3.588c0.74,1.992,2.278,3.93,4.499,4.557V57.853
		c-4.385-2.677-8.655-6.207-8.655-11.729c0-5.296,3.074-9.795,8.655-10.535V30.576z M123.24,41.168
		c-1.766,0.569-2.848,2.278-2.848,4.214c0,2.506,1.082,4.101,2.848,5.694V41.168z M126.657,71.235
		c2.335-0.911,3.188-2.678,3.188-5.297c0-2.789-1.31-4.213-3.188-5.922V71.235z"/>
	<path fill="#003B3C" d="M141.518,76.702v-5.523c8.77-12.812,13.553-19.874,13.553-25.91c0-3.246-1.253-4.67-3.188-4.67
		c-2.276,0-3.417,1.766-3.417,4.271v2.791h-6.719v-1.937c0-6.036,3.872-10.706,10.479-10.706c5.808,0,9.565,4.328,9.565,9.111
		c0,6.492-2.051,11.274-13.099,26.765h12.474v5.811L141.518,76.702L141.518,76.702z"/>
	<path fill="#003B3C" d="M174.942,64.801v3.304c0,2.222,1.252,3.586,3.132,3.586c2.222,0,3.474-1.31,3.474-5.01v-9.34
		c0-2.677-1.365-3.759-2.961-3.759c-2.164,0-3.188,1.424-3.813,3.132h-5.467c0.228-6.378,0.513-11.389,0.513-21.127h17.143
		l-0.229,5.809h-11.104l-0.397,8.884l0.112,0.114c1.768-2.107,3.246-2.393,5.41-2.393c5.41,0,7.519,3.93,7.519,10.82v5.693
		c0,8.655-2.731,12.756-9.565,12.756c-5.695,0-10.138-2.506-10.138-9.338v-3.134L174.942,64.801L174.942,64.801z"/>
</g>
</svg>
