<?xml version="1.0" encoding="utf-8"?>
<!-- Generator: Adobe Illustrator 16.0.0, SVG Export Plug-In . SVG Version: 6.00 Build 0)  -->
<!DOCTYPE svg PUBLIC "-//W3C//DTD SVG 1.1//EN" "http://www.w3.org/Graphics/SVG/1.1/DTD/svg11.dtd">
<svg version="1.1" id="Layer_1" xmlns="http://www.w3.org/2000/svg" xmlns:xlink="http://www.w3.org/1999/xlink" x="0px" y="0px"
	 width="299px" height="102px" viewBox="0 0 299 102" enable-background="new 0 0 299 102" xml:space="preserve">
<line fill="none" stroke="#000000" stroke-width="0.5" stroke-linecap="round" x1="0" y1="9.958" x2="65.126" y2="9.958"/>
<line fill="none" stroke="#000000" stroke-width="0.5" stroke-linecap="round" x1="235.383" y1="9.958" x2="299" y2="9.958"/>
<g>
	<path d="M86.988,6.572V5.169c0-1.528-0.701-2.18-1.503-2.18c-1.253,0-1.653,0.651-1.653,2.005v9.17c0,1.353,0.4,2.004,1.653,2.004
		c1.128,0,1.503-0.651,1.503-1.828v-2.181h3.107v2.08c0,2.556-1.504,4.635-4.61,4.635c-3.257,0-4.761-2.079-4.761-4.635v-9.32
		c0-2.556,1.504-4.636,4.761-4.636c3.106,0,4.61,2.255,4.61,4.961v1.328H86.988z"/>
	<path d="M94.479,18.624V0.534h3.107V7.9h3.307V0.534H104v18.09h-3.107v-8.018h-3.307v8.018H94.479z"/>
	<path d="M108.26,18.624V0.534h8.318V3.24h-5.211V7.9h4.009v2.706h-4.009v5.312h5.562v2.706H108.26z"/>
	<path d="M120.636,18.624V0.534h8.318V3.24h-5.211V7.9h4.009v2.706h-4.009v5.312h5.562v2.706H120.636z"/>
	<path d="M138.676,4.994c-0.126-1.554-0.952-2.005-1.654-2.005c-1.002,0-1.553,0.651-1.553,1.779c0,3.082,6.313,4.56,6.313,9.471
		c0,2.981-2.004,4.635-4.911,4.635c-2.881,0-4.534-2.305-4.66-5.011l2.957-0.426c0.125,1.829,0.852,2.73,1.854,2.73
		c1.078,0,1.805-0.576,1.805-1.653c0-3.583-6.314-4.535-6.314-9.721c0-2.882,1.754-4.511,4.811-4.511
		c2.531,0,4.034,1.829,4.31,4.385L138.676,4.994z"/>
	<path d="M145.389,18.624V0.534h8.318V3.24h-5.211V7.9h4.009v2.706h-4.009v5.312h5.562v2.706H145.389z"/>
	<path d="M164.555,18.624V0.534h4.461c3.834,0,5.611,1.479,5.611,5.337s-1.777,5.337-5.611,5.337h-1.354v7.416H164.555z
		 M167.662,8.652h1.201c2.029,0,2.656-0.627,2.656-2.781c0-2.155-0.627-2.781-2.656-2.781h-1.201V8.652z"/>
	<path d="M178.186,18.624V0.534h3.106v15.384h4.886v2.706H178.186z"/>
	<path d="M191.139,18.624h-3.007l3.332-18.09h3.858l3.332,18.09h-3.006l-0.553-4.009h-3.406L191.139,18.624z M192.141,11.909h2.506
		l-1.229-7.768h-0.05L192.141,11.909z"/>
	<path d="M202.588,3.24h-3.007V0.534h9.12V3.24h-3.008v15.384h-3.105V3.24L202.588,3.24z"/>
	<path d="M211.782,18.624V0.534h8.317V3.24h-5.211V7.9h4.01v2.706h-4.01v5.312h5.562v2.706H211.782z"/>
</g>
<g>
	<path d="M121.925,30.577h3.417v5.011c3.188,0.627,6.036,2.506,7.915,5.183l-4.328,3.701c-0.854-1.424-1.822-2.904-3.587-3.303
		v11.788c4.84,3.075,9.225,6.32,9.225,12.697c0,5.695-3.245,10.535-9.225,11.049v6.605h-3.417v-6.605
		c-3.93-0.398-7.175-3.246-9.226-6.436l4.727-3.588c0.74,1.993,2.278,3.93,4.499,4.557V57.854c-4.385-2.677-8.655-6.207-8.655-11.73
		c0-5.296,3.074-9.795,8.655-10.535V30.577z M121.925,41.169c-1.766,0.569-2.848,2.278-2.848,4.214c0,2.506,1.082,4.101,2.848,5.694
		V41.169z M125.342,71.236c2.335-0.911,3.188-2.678,3.188-5.297c0-2.789-1.31-4.213-3.188-5.922V71.236z"/>
	<path d="M140.202,76.703V71.18c8.77-12.812,13.553-19.874,13.553-25.91c0-3.246-1.253-4.67-3.188-4.67
		c-2.277,0-3.417,1.766-3.417,4.271v2.791h-6.72v-1.937c0-6.036,3.872-10.706,10.479-10.706c5.808,0,9.565,4.328,9.565,9.111
		c0,6.492-2.05,11.274-13.098,26.765h12.473v5.81L140.202,76.703L140.202,76.703z"/>
	<path d="M173.627,64.802v3.304c0,2.221,1.252,3.586,3.132,3.586c2.222,0,3.474-1.31,3.474-5.01v-9.34
		c0-2.677-1.366-3.759-2.961-3.759c-2.164,0-3.188,1.424-3.814,3.132h-5.467c0.228-6.378,0.513-11.389,0.513-21.127h17.142
		l-0.229,5.809h-11.104l-0.398,8.884l0.113,0.114c1.767-2.107,3.246-2.393,5.41-2.393c5.41,0,7.518,3.93,7.518,10.82v5.693
		c0,8.656-2.732,12.756-9.566,12.756c-5.695,0-10.137-2.506-10.137-9.338v-3.133L173.627,64.802L173.627,64.802z"/>
</g>
<text transform="matrix(1 0 0 1 189.6855 76.7031)" font-family="'TradeGothic'" font-size="56.942"> </text>
<g>
	<text transform="matrix(1 0 0 1 76.8721 106.3135)" font-family="'MrsEavesXLSerifOT-Reg'" font-size="20.4991"> </text>
	<text transform="matrix(1 0 0 1 143.1064 106.3135)" font-family="'MrsEavesXLSerifOT-Reg'" font-size="20.4991"> </text>
	<text transform="matrix(1 0 0 1 165.9385 106.3135)" font-family="'MrsEavesXLSerifOT-Reg'" font-size="20.4991"> </text>
	<text transform="matrix(1 0 0 1 194.4268 106.3135)" font-family="'MrsEavesXLSerifOT-Reg'" font-size="20.4991"> </text>
	<path d="M38.152,52.768c-0.583,0.334-0.991,0.562-1.39,0.806c-0.178,0.106-0.332,0.253-0.492,0.387
		c-0.228,0.196-0.449,0.396-0.676,0.595c-0.17,0.15-0.354,0.277-0.508,0.439c-0.405,0.421-0.801,0.854-1.19,1.288
		c-0.117,0.135-0.241,0.284-0.299,0.446c-0.218,0.647-0.459,1.295-0.614,1.959c-0.147,0.639-0.174,1.303-0.305,1.948
		c-0.069,0.351,0.019,0.624,0.229,0.872c0.129,0.15,0.141,0.287,0.069,0.453c-0.034,0.082-0.078,0.166-0.086,0.255
		c-0.034,0.316,0.213,0.642,0.439,0.544c0.454-0.195,0.75,0.057,1.061,0.289c0.548,0.412,1.115,0.77,1.815,0.838
		c0.076,0.008,0.151,0.027,0.215,0.063c0.362,0.188,0.715,0.38,1.069,0.575c0.131,0.072,0.275,0.142,0.368,0.248
		c0.136,0.158,0.286,0.186,0.478,0.188c0.341,0.007,0.685,0.013,1.008,0.179c0.21,0.106,0.464,0.156,0.699,0.161
		c0.394,0.011,0.543-0.274,0.325-0.602c-0.116-0.173-0.293-0.308-0.414-0.478c-0.209-0.311-0.445-0.615-0.578-0.955
		c-0.191-0.502-0.348-1.031-0.44-1.56c-0.11-0.647-0.203-1.31,0-1.957c0.182-0.588,0.343-1.185,0.554-1.758
		c0.105-0.289,0.26-0.587,0.474-0.806c0.474-0.48,0.981-0.938,1.695-1.041c0.131-0.019,0.249-0.11,0.374-0.158
		c0.127-0.047,0.258-0.102,0.387-0.112c0.811-0.067,1.628-0.106,2.391,0.248c0.363,0.171,0.741,0.349,1.052,0.597
		c0.624,0.502,0.739,1.279,0.965,1.989c0.009,0.024,0.003,0.058,0.003,0.092c0,0.496-0.102,0.979-0.242,1.457
		c-0.158,0.548-0.503,0.937-0.96,1.255c-0.342,0.235-0.729,0.254-1.118,0.295c-0.443,0.049-0.702-0.067-0.862-0.453
		c-0.176-0.408-0.151-0.812,0.093-1.203c0.17-0.28,0.335-0.566,0.477-0.862c0.195-0.419,0.187-0.813-0.201-1.144
		c-0.124-0.104-0.219-0.244-0.327-0.367c-0.602-0.657-1.864-0.604-2.328,0.056c-0.153,0.22-0.378,0.39-0.543,0.604
		c-0.2,0.256-0.417,0.517-0.546,0.812c-0.335,0.765-0.456,1.556-0.072,2.351c0.04,0.078,0.045,0.174,0.072,0.262
		c0.129,0.414,0.231,0.84,0.556,1.164c0.079,0.08,0.123,0.207,0.155,0.318c0.124,0.403,0.309,0.747,0.691,0.967
		c0.1,0.055,0.168,0.166,0.262,0.24c0.489,0.416,0.862,1.033,1.635,0.979c0.548,0.26,1.138,0.224,1.721,0.26
		c0.71,0.041,1.368-0.039,1.933-0.556c0.27-0.246,0.614-0.463,0.962-0.571c0.639-0.2,1.036-0.688,1.405-1.149
		c0.429-0.527,0.843-1.098,1.103-1.746c0.099-0.248,0.264-0.488,0.292-0.746c0.06-0.553,0.081-1.11,0.073-1.666
		c-0.004-0.448-0.134-0.899-0.102-1.344c0.049-0.609-0.156-1.117-0.467-1.606c-0.279-0.443-0.57-0.884-0.859-1.32
		c-0.289-0.438-0.583-0.876-0.877-1.31c-0.042-0.06-0.117-0.094-0.177-0.139c-0.481-0.359-0.958-0.72-1.442-1.07
		c-0.551-0.396-1.12-0.745-1.796-0.875c-0.15-0.032-0.299-0.068-0.438-0.131c-0.886-0.39-1.832-0.334-2.751-0.293
		c-0.599,0.027-1.189,0.299-1.781,0.458C39.503,51.968,38.73,52.402,38.152,52.768 M23.908,62.438
		c-0.107,0.112-0.21,0.213-0.303,0.321c-0.225,0.269-0.467,0.501-0.826,0.587c-0.232,0.059-0.456,0.164-0.662,0.282
		c-0.463,0.267-0.93,0.492-1.477,0.515c-0.298,0.015-0.536,0.17-0.736,0.396c-0.196,0.223-0.416,0.436-0.645,0.628
		c-0.13,0.108-0.294,0.198-0.456,0.255c-0.25,0.096-0.398,0.248-0.466,0.508c-0.039,0.155-0.096,0.323-0.196,0.441
		c-0.252,0.289-0.382,0.641-0.558,0.973c-0.526,0.987-0.854,2.043-1.056,3.137c-0.049,0.258-0.219,0.406-0.433,0.48
		c-0.421,0.141-0.61,0.432-0.705,0.854c-0.064,0.287-0.215,0.559-0.34,0.826c-0.253,0.532-0.494,1.062-0.458,1.676
		c0.026,0.49-0.102,0.947-0.339,1.385c-0.146,0.271-0.222,0.589-0.366,0.869c-0.371,0.72-0.711,1.471-1.163,2.133
		c-0.316,0.462-0.529,1.016-1.007,1.367c-0.048,0.035-0.091,0.088-0.112,0.138c-0.263,0.614-0.82,0.942-1.287,1.36
		c-0.055,0.054-0.123,0.09-0.191,0.121c-0.762,0.356-1.538,0.684-2.278,1.078c-0.592,0.314-1.189,0.451-1.855,0.408
		c-0.404-0.023-0.813,0.01-1.214,0.062c-0.36,0.05-0.656-0.062-0.926-0.266c-0.458-0.346-0.975-0.592-1.503-0.811
		c-0.106-0.045-0.221-0.105-0.298-0.189c-0.454-0.48-0.903-0.967-1.335-1.465c-0.254-0.287-0.411-0.624-0.489-1.004
		c-0.045-0.221-0.117-0.438-0.183-0.65c-0.365-1.203-0.22-2.312,0.591-3.309c0.229-0.277,0.448-0.566,0.631-0.876
		c0.279-0.479,0.726-0.698,1.22-0.862c0.27-0.092,0.54-0.188,0.811-0.267c0.508-0.149,1.017-0.065,1.521-0.005
		c0.255,0.031,0.499,0.134,0.753,0.15c0.966,0.055,1.674,0.594,2.327,1.23c0.267,0.26,0.355,0.619,0.383,0.99
		c0.012,0.195,0.008,0.392,0.034,0.585c0.111,0.893-0.253,1.589-0.947,2.099c-0.285,0.207-0.64,0.342-0.979,0.441
		c-0.342,0.103-0.533-0.029-0.726-0.381c-0.182-0.334-0.187-0.517,0.098-0.758c0.464-0.395,0.481-0.879,0.352-1.396
		c-0.108-0.449-0.3-0.863-0.696-1.127c-0.18-0.121-0.402-0.193-0.615-0.258c-0.285-0.084-0.574-0.157-0.867-0.209
		c-0.315-0.055-0.581,0.117-0.846,0.255c-0.169,0.089-0.312,0.235-0.487,0.317c-0.732,0.348-1.024,1.01-1.182,1.719
		c-0.218,0.992,0.014,1.92,0.604,2.742c0.279,0.389,0.589,0.76,0.892,1.133c0.075,0.094,0.169,0.19,0.275,0.231
		c0.597,0.232,1.202,0.451,1.807,0.671c0.067,0.023,0.146,0.021,0.218,0.041c0.599,0.148,1.192,0.329,1.811,0.088
		c0.076-0.029,0.179-0.002,0.268,0.004c0.312,0.022,0.583-0.043,0.826-0.262c0.246-0.221,0.526-0.398,0.788-0.597
		c0.122-0.091,0.25-0.173,0.355-0.274c0.49-0.468,0.953-0.957,1.499-1.359c0.254-0.187,0.405-0.516,0.588-0.793
		c0.73-1.107,1.33-2.291,1.675-3.568c0.162-0.6,0.446-1.141,0.63-1.721c0.084-0.256,0.119-0.525,0.174-0.79
		c0.048-0.218,0.075-0.441,0.142-0.653c0.202-0.63,0.454-1.245,0.628-1.882c0.169-0.636,0.392-1.238,0.815-1.742
		c0.357-0.414,0.561-0.919,0.854-1.372c0.317-0.486,0.673-0.956,1.039-1.41c0.432-0.537,0.886-1.06,1.353-1.564
		c0.168-0.182,0.4-0.312,0.614-0.443c0.28-0.178,0.56-0.354,0.858-0.494c0.77-0.378,1.538-0.754,2.321-1.095
		c0.321-0.14,0.663-0.149,1.007,0.024c0.262,0.137,0.499,0.115,0.781-0.094c0.418-0.31,0.921-0.5,1.473-0.479
		c0.313,0.012,0.632,0.012,0.948,0.026c0.302,0.015,0.598,0.063,0.84,0.273c0.143,0.122,0.308,0.143,0.463,0.062
		c0.574-0.291,1.157-0.281,1.753-0.094c0.113,0.037,0.241,0.034,0.36,0.039c0.259,0.01,0.459,0.135,0.632,0.311
		c0.084,0.084,0.162,0.178,0.256,0.255c0.336,0.264,0.536,0.19,0.625-0.234c0.014-0.06,0.027-0.121,0.021-0.178
		c-0.072-0.472-0.15-0.944-0.221-1.416c-0.028-0.205-0.071-0.412-0.062-0.619c0.01-0.373-0.05-0.722-0.27-1.03
		c-0.007-0.012-0.018-0.022-0.024-0.035c-0.308-0.834-0.941-1.375-1.65-1.848c-0.414-0.279-0.895-0.33-1.365-0.4
		c-0.079-0.015-0.175,0.033-0.246,0.08c-0.103,0.062-0.191,0.146-0.285,0.221c-0.587,0.435-0.587,0.433-1.196,0.08
		c-0.184-0.109-0.289-0.26-0.289-0.475c0.007-0.482,0.39-0.996,0.855-1.152c0.719-0.242,1.452-0.385,2.213-0.324
		c0.135,0.014,0.268,0.046,0.397,0.084c0.749,0.229,1.49,0.477,2.028,1.102c0.085,0.096,0.196,0.168,0.338,0.282
		c0.081-0.153,0.134-0.255,0.185-0.353c0.2-0.379,0.407-0.742,0.897-0.795c0.284-0.031,0.406-0.219,0.436-0.513
		c-0.1-0.043-0.188-0.093-0.287-0.116c-0.491-0.115-0.719-0.457-0.621-0.953c0.014-0.062,0.021-0.123,0.048-0.174
		c0.225-0.414,0.322-0.863,0.428-1.32c0.196-0.829,0.428-1.656,0.485-2.517c0.009-0.134,0-0.284,0.063-0.392
		c0.187-0.33,0.161-0.657,0.082-1.004c-0.043-0.187-0.077-0.391-0.056-0.578c0.062-0.437,0.484-0.792,0.832-0.739
		c0.357,0.052,0.751,0.562,0.627,0.97c-0.218,0.715-0.212,1.445-0.315,2.165c-0.13,0.933-0.435,1.843-0.645,2.763
		c-0.055,0.248-0.072,0.508-0.055,0.763c0.019,0.296,0.205,0.388,0.46,0.233c0.101-0.062,0.203-0.141,0.266-0.237
		c0.399-0.604,1.027-0.961,1.561-1.412c0.775-0.647,1.714-0.99,2.619-1.386c0.206-0.089,0.406-0.198,0.62-0.262
		c0.258-0.077,0.523-0.107,0.783-0.171c0.333-0.084,0.664-0.178,0.997-0.271c0.084-0.025,0.168-0.094,0.248-0.092
		c0.811,0.051,1.562-0.271,2.349-0.339c0.658-0.06,1.317-0.104,1.98,0c0.196,0.032,0.411-0.012,0.611-0.053
		c0.238-0.05,0.463-0.096,0.705,0.014c0.236,0.112,0.498,0.082,0.676-0.103c0.248-0.252,0.565-0.346,0.872-0.438
		c1.108-0.34,2.046-0.92,2.834-1.77c0.368-0.398,0.719-0.787,0.91-1.317c0.139-0.392,0.387-0.744,0.585-1.118
		c0.144-0.271,0.204-0.56,0.166-0.867c-0.029-0.236-0.059-0.48-0.046-0.717c0.062-1.259-0.457-2.29-1.237-3.219
		c-0.058-0.07-0.136-0.125-0.178-0.205c-0.303-0.587-0.854-0.872-1.408-1.141c-0.22-0.106-0.491-0.127-0.741-0.161
		c-0.473-0.068-0.951-0.132-1.43-0.169c-0.367-0.029-0.691,0.066-0.994,0.321c-0.387,0.332-0.816,0.617-1.254,0.881
		c-0.642,0.392-0.899,0.979-1.05,1.687c-0.116,0.547-0.085,1.072,0,1.603c0.035,0.205,0.103,0.41,0.205,0.588
		c0.225,0.4,0.64,0.48,1.04,0.471c0.421-0.009,0.773-0.25,1.076-0.519c0.112-0.096,0.178-0.287,0.188-0.438
		c0.021-0.33-0.014-0.66-0.027-0.987c-0.005-0.153-0.024-0.301-0.013-0.451c0.017-0.212,0.138-0.351,0.347-0.419
		c0.398-0.137,0.781-0.1,1.107,0.169c0.548,0.45,0.905,0.992,0.837,1.75c-0.046,0.489-0.016,0.992-0.2,1.45
		c-0.207,0.505-0.496,0.929-1.074,1.129c-0.715,0.255-1.427,0.349-2.167,0.23c-0.183-0.03-0.378-0.109-0.522-0.226
		c-0.266-0.214-0.498-0.472-0.753-0.71c-0.05-0.051-0.105-0.109-0.175-0.135c-0.492-0.178-0.742-0.578-0.973-1.013
		c-0.4-0.754-0.587-1.546-0.422-2.395c0.094-0.48,0.2-0.952,0.524-1.366c0.294-0.373,0.506-0.815,0.743-1.231
		c0.268-0.472,0.609-0.833,1.145-1.029c0.359-0.132,0.676-0.382,1.013-0.573c0.13-0.075,0.256-0.178,0.392-0.191
		c0.983-0.103,1.974-0.234,2.955-0.021c0.41,0.091,0.805,0.25,1.205,0.378c0.03,0.007,0.061,0.021,0.079,0.043
		c0.623,0.583,1.304,1.118,1.851,1.765c0.432,0.515,0.886,1.074,0.9,1.821c0.005,0.132,0.074,0.264,0.133,0.382
		c0.289,0.597,0.303,1.218,0.195,1.854c-0.019,0.116-0.049,0.238-0.042,0.354c0.047,0.799-0.118,1.551-0.527,2.242
		c-0.014,0.025-0.036,0.053-0.038,0.08c-0.041,0.587-0.398,1.033-0.692,1.495c-0.369,0.578-0.782,1.134-1.404,1.489
		c-0.61,0.351-1.197,0.742-1.808,1.104c-0.257,0.153-0.528,0.285-0.809,0.396c-0.455,0.175-0.915,0.31-1.381,0.016
		c-0.062-0.036-0.149-0.084-0.208-0.07c-0.12,0.032-0.266,0.075-0.335,0.164c-0.035,0.052,0.028,0.246,0.103,0.303
		c0.424,0.325,0.869,0.627,1.31,0.94c0.096,0.07,0.2,0.133,0.289,0.215c0.291,0.252,0.455,0.303,0.744,0.074
		c0.312-0.253,0.562-0.13,0.812,0.038c1.302,0.862,2.562,1.782,3.931,2.543c0.57,0.315,1.135,0.448,1.768,0.269
		c0.188-0.047,0.388-0.043,0.583-0.039c0.285,0.011,0.5-0.123,0.668-0.322c0.296-0.348,0.491-0.771,0.561-1.206
		c0.053-0.345-0.057-0.713-0.102-1.07c-0.077-0.544,0.284-1.14,0.789-1.315c0.396-0.137,1.021,0.176,1.176,0.605
		c0.138,0.383,0.303,0.766,0.365,1.161c0.094,0.583,0.036,1.158-0.245,1.702c-0.267,0.521-0.626,0.945-1.05,1.337
		c-0.314,0.289-0.658,0.467-1.072,0.537c-0.191,0.032-0.38,0.084-0.566,0.146c-0.273,0.088-0.541,0.166-0.825,0.012
		c-0.098-0.055-0.235-0.041-0.356-0.037c-0.336,0.021-0.498,0.32-0.324,0.605c0.067,0.114,0.182,0.196,0.275,0.295
		c0.242,0.262,0.516,0.502,0.718,0.795c0.41,0.592,0.76,1.229,1.173,1.819c0.443,0.622,0.908,1.233,1.402,1.819
		c0.648,0.771,1.208,1.607,1.793,2.422c0.088,0.123,0.177,0.246,0.284,0.351c0.538,0.542,1.111,1.054,1.555,1.688
		c0.091,0.13,0.256,0.21,0.38,0.315c0.115,0.1,0.249,0.186,0.329,0.309c0.396,0.604,0.992,0.994,1.517,1.457
		c0.245,0.214,0.592,0.308,0.851,0.51c0.448,0.346,0.925,0.592,1.479,0.73c0.259,0.062,0.501,0.272,0.701,0.469
		c0.222,0.217,0.427,0.222,0.695,0.135c0.163-0.053,0.375-0.094,0.52-0.032c0.568,0.241,1.146,0.136,1.729,0.114
		c0.326-0.014,0.654,0.029,0.981,0.031c0.226,0.003,0.455,0.019,0.662-0.045c0.737-0.213,1.471-0.439,2.125-0.86
		c0.373-0.244,0.739-0.513,1.107-0.769c0.111-0.076,0.214-0.168,0.334-0.233c0.271-0.144,0.493-0.335,0.627-0.621
		c0.036-0.08,0.091-0.159,0.151-0.226c0.379-0.426,0.783-0.826,1.13-1.277c0.178-0.229,0.298-0.525,0.364-0.811
		c0.191-0.787,0.396-1.578,0.485-2.383c0.052-0.459,0.056-0.937-0.031-1.424c-0.143-0.82-0.507-1.539-0.851-2.27
		c-0.134-0.295-0.346-0.562-0.56-0.809c-0.48-0.539-0.961-1.082-1.652-1.367c-0.233-0.104-0.474-0.207-0.665-0.369
		c-0.296-0.246-0.641-0.254-0.983-0.262c-0.438-0.015-0.849-0.092-1.264-0.256c-0.195-0.074-0.449-0.062-0.664-0.025
		c-0.795,0.138-1.562,0.422-2.19,0.906c-0.61,0.467-1.198,1.022-1.585,1.703c-0.331,0.585-0.493,1.235-0.459,1.946
		c0.03,0.601,0.17,1.133,0.557,1.579c0.242,0.277,0.527,0.542,0.841,0.738c0.823,0.519,2.122-0.068,2.336-1.021
		c0.075-0.341-0.111-0.568-0.312-0.801c-0.2-0.241-0.413-0.477-0.578-0.742c-0.196-0.314-0.143-0.544,0.122-0.809
		c0.308-0.312,0.71-0.424,1.113-0.414c0.389,0.012,0.777,0.108,1.148,0.226c0.311,0.099,0.516,0.345,0.618,0.669
		c0.116,0.371,0.237,0.742,0.365,1.107c0.12,0.354,0.209,0.693-0.049,1.031c-0.068,0.092-0.093,0.221-0.12,0.338
		c-0.12,0.492-0.425,0.893-0.692,1.303c-0.317,0.482-0.789,0.84-1.381,0.931c-0.365,0.058-0.743,0.002-1.116-0.007
		c-0.574-0.012-1.143-0.05-1.65-0.369c-0.036-0.021-0.089-0.018-0.128-0.041c-0.33-0.23-0.648-0.484-0.988-0.695
		c-0.639-0.4-0.859-1.053-1.126-1.693c-0.343-0.812-0.316-1.637-0.173-2.477c0.033-0.191,0.026-0.391,0.062-0.578
		c0.089-0.43,0.312-0.781,0.601-1.099c0.159-0.178,0.321-0.36,0.453-0.56c0.578-0.86,1.377-1.467,2.288-1.926
		c0.3-0.15,0.674-0.16,0.988-0.287c0.543-0.215,1.114-0.215,1.676-0.297c0.058-0.007,0.122,0,0.178-0.016
		c0.565-0.16,1.096,0.021,1.638,0.137c0.159,0.036,0.324,0.072,0.485,0.106c0.368,0.077,0.737,0.155,1.017,0.44
		c0.021,0.02,0.046,0.039,0.072,0.054c0.82,0.294,1.358,1.028,2.153,1.375c0.213,0.093,0.356,0.354,0.524,0.546
		c0.323,0.369,0.627,0.765,0.97,1.119c0.306,0.316,0.517,0.632,0.482,1.106c-0.032,0.546,0.109,1.072,0.328,1.58
		c0.225,0.532,0.262,1.062,0.036,1.618c-0.095,0.239-0.134,0.53-0.104,0.788c0.049,0.442-0.085,0.842-0.222,1.231
		c-0.157,0.444-0.387,0.869-0.621,1.285c-0.233,0.416-0.501,0.814-0.768,1.213c-0.294,0.438-0.583,0.867-0.903,1.287
		c-0.514,0.672-1.18,1.151-1.975,1.438c-0.43,0.152-0.828,0.355-1.175,0.65c-0.227,0.191-0.493,0.254-0.782,0.306
		c-0.651,0.125-1.286,0.306-1.927,0.462c-0.103,0.023-0.209,0.072-0.307,0.061c-0.806-0.125-1.611,0.024-2.416-0.033
		c-0.476-0.033-0.876-0.189-1.14-0.619c-0.23-0.385-0.359-0.418-0.773-0.228c-0.339,0.159-0.645,0.164-0.961-0.089
		c-0.361-0.289-0.787-0.475-1.219-0.652c-0.823-0.347-1.543-0.865-2.202-1.476c-0.308-0.285-0.663-0.515-0.994-0.771
		c-0.106-0.084-0.233-0.149-0.317-0.25c-0.525-0.595-1.051-1.188-1.553-1.801c-0.637-0.775-1.26-1.566-1.873-2.365
		c-0.383-0.498-0.765-1.004-1.106-1.531c-0.553-0.854-1.074-1.729-1.604-2.6c-0.172-0.281-0.35-0.557-0.492-0.85
		c-0.409-0.84-1.059-1.5-1.646-2.193c-0.446-0.535-1.055-0.935-1.735-1.181c-0.072-0.024-0.143-0.045-0.218-0.056
		c-0.308-0.033-0.452,0.148-0.343,0.447c0.045,0.127,0.147,0.231,0.183,0.358c0.114,0.401,0.213,0.812,0.314,1.216
		c0.032,0.129,0.021,0.275,0.067,0.398c0.35,0.849,0.231,1.751,0.281,2.629c0.008,0.195-0.096,0.404-0.174,0.599
		c-0.161,0.405-0.352,0.798-0.502,1.2c-0.175,0.462-0.306,0.939-0.489,1.396c-0.083,0.205-0.271,0.359-0.373,0.561
		c-0.293,0.581-0.754,1.011-1.256,1.396c-0.499,0.383-1.037,0.715-1.571,1.049c-0.355,0.224-0.757,0.268-1.172,0.271
		c-0.247,0.006-0.495,0.075-0.741,0.143c-0.319,0.078-0.626,0.219-0.947,0.267c-0.831,0.125-1.673,0.129-2.508,0.06
		c-0.333-0.027-0.647-0.213-0.975-0.312c-0.154-0.048-0.318-0.091-0.476-0.089c-0.468,0.009-0.922-0.05-1.375-0.171
		c-0.372-0.098-0.77-0.109-1.156-0.141c-0.205-0.018-0.37-0.062-0.528-0.209c-0.273-0.252-0.573-0.402-0.983-0.271
		c-0.262,0.082-0.522-0.015-0.718-0.261c-0.104-0.131-0.285-0.252-0.445-0.271c-0.324-0.041-0.56-0.21-0.783-0.41
		c-0.225-0.205-0.471-0.281-0.78-0.283c-0.229-0.004-0.467-0.097-0.69-0.177c-0.361-0.132-0.521-0.021-0.478,0.354
		c0.021,0.164,0.071,0.326,0.116,0.484c0.129,0.446,0.266,0.894,0.396,1.34c0.138,0.479,0.352,0.922,0.623,1.346
		c0.188,0.289,0.331,0.605,0.468,0.924c0.187,0.447,0.415,0.857,0.765,1.211c0.28,0.287,0.513,0.626,0.737,0.961
		c0.501,0.727,1.069,1.37,1.846,1.823c0.447,0.262,0.843,0.612,1.34,0.812c0.671,0.262,1.304,0.608,1.973,0.866
		c0.523,0.2,1.082,0.315,1.624,0.472c0.678,0.199,1.347,0.431,2.032,0.602c0.484,0.119,0.982,0.211,1.498,0.115
		c0.367-0.072,0.748-0.062,1.122-0.092c0.18-0.016,0.354-0.043,0.532-0.072c0.37-0.062,0.744-0.115,1.106-0.199
		c0.31-0.071,0.604-0.186,0.909-0.266c0.288-0.076,0.577-0.153,0.871-0.192c0.401-0.048,0.73-0.246,1.07-0.446
		c0.897-0.535,1.603-1.311,2.452-1.9c0.062-0.043,0.136-0.082,0.172-0.144c0.258-0.46,0.523-0.913,0.754-1.384
		c0.224-0.465,0.128-0.977,0.104-1.469c-0.014-0.27-0.074-0.539-0.144-0.799c-0.098-0.367-0.298-0.655-0.704-0.74
		c-0.206-0.043-0.411-0.084-0.621-0.133c-0.854-0.192-1.24-1.102-0.799-1.854c0.212-0.355,0.536-0.572,0.906-0.713
		c0.126-0.046,0.311-0.036,0.433,0.02c0.323,0.155,0.631,0.346,0.938,0.529c0.129,0.077,0.244,0.171,0.36,0.271
		c0.1,0.086,0.228,0.173,0.271,0.289c0.303,0.795,0.735,1.555,0.688,2.451c-0.002,0.075-0.005,0.152,0.021,0.224
		c0.303,0.817,0.04,1.577-0.275,2.309c-0.187,0.437-0.463,0.847-0.753,1.226c-0.396,0.512-0.854,0.97-1.263,1.463
		c-0.539,0.654-1.255,1.07-1.953,1.51c-0.406,0.25-0.858,0.428-1.285,0.65c-0.294,0.15-0.588,0.312-0.865,0.484
		c-0.305,0.186-0.604,0.335-0.977,0.278c-0.111-0.021-0.236,0.016-0.354,0.028c-0.327,0.041-0.654,0.084-0.981,0.131
		c-0.117,0.016-0.242,0.023-0.352,0.072c-0.469,0.209-0.938,0.207-1.414,0.019c-0.068-0.025-0.147-0.017-0.223-0.019
		c-0.419-0.015-0.841-0.01-1.257-0.051c-0.198-0.021-0.389-0.132-0.583-0.199c-0.265-0.095-0.532-0.193-0.803-0.268
		c-0.245-0.064-0.494-0.134-0.745-0.15c-0.51-0.033-0.955-0.23-1.393-0.476c-0.604-0.335-1.203-0.683-1.84-0.94
		c-0.434-0.173-0.839-0.387-1.259-0.58c-0.307-0.141-0.657-0.187-0.994-0.271c-0.434-0.112-0.867-0.239-1.31-0.319
		c-0.414-0.074-0.81,0.075-1.162,0.273c-0.182,0.104-0.354,0.301-0.431,0.496c-0.191,0.472-0.352,0.955-0.476,1.445
		c-0.103,0.388-0.374,0.616-0.672,0.812c-0.239,0.156-0.52,0.072-0.659-0.186c-0.204-0.381-0.387-0.775-0.365-1.233
		c0.029-0.522,0-1.04,0.134-1.562c0.096-0.388,0.314-0.607,0.623-0.771c0.289-0.154,0.604-0.263,0.909-0.38
		c0.256-0.1,0.51-0.188,0.79-0.113c0.056,0.014,0.121,0,0.182-0.012c0.201-0.049,0.436-0.057,0.513-0.301
		c0.084-0.243-0.062-0.428-0.185-0.612c-0.043-0.06-0.1-0.113-0.151-0.168c-0.394-0.408-0.839-0.779-0.97-1.373
		c-0.009-0.039-0.042-0.079-0.064-0.116c-0.734-1.076-1.264-2.256-1.802-3.431c-0.059-0.125-0.104-0.252-0.134-0.382
		c-0.139-0.603-0.24-1.209-0.404-1.799c-0.121-0.434-0.294-0.85-0.485-1.254c-0.138-0.287-0.242-0.304-0.556-0.234
		c-0.084,0.019-0.174,0.041-0.261,0.062c-0.385,0.079-0.759,0.132-1.146-0.043c-0.239-0.108-0.523-0.108-0.788-0.169
		c-0.294-0.066-0.583-0.146-0.782-0.4c-0.155-0.195-0.319-0.285-0.582-0.129c-0.405,0.235-0.862,0.213-1.317,0.172
		c-0.168-0.019-0.352,0.025-0.523,0.061c-0.178,0.034-0.351,0.096-0.528,0.125c-0.316,0.048-0.635,0.075-0.843-0.26
		C24.12,62.555,24.024,62.52,23.908,62.438"/>
	<path d="M25.349,49.049c0.441-0.348,0.795-0.621,1.14-0.91c0.098-0.082,0.17-0.207,0.22-0.325c0.118-0.278,0.229-0.554,0.314-0.843
		c0.036-0.127,0.06-0.303,0.009-0.421c-0.242-0.58-0.534-1.136-0.947-1.625c-0.276-0.328-0.668-0.431-1.042-0.458
		c-0.323-0.027-0.612,0.191-0.836,0.46c-0.228,0.28-0.48,0.539-0.723,0.804c-0.037,0.045-0.088,0.084-0.136,0.116
		c-0.463,0.277-0.987,0.027-1.006-0.526c-0.026-0.742,0.08-1.498,0.526-2.11c0.506-0.689,1.235-1.061,2.116-0.936
		c0.47,0.066,0.942,0.196,1.389,0.371c1.067,0.419,1.726,1.204,1.952,2.343c0.005,0.027,0.005,0.062,0.014,0.089
		c0.231,0.592,0.061,1.138-0.17,1.688c-0.07,0.176-0.093,0.378-0.106,0.569c-0.053,0.795-0.394,1.438-1.001,1.942
		c-0.268,0.216-0.531,0.438-0.812,0.64c-0.358,0.257-0.763,0.418-1.204,0.484c-0.072,0.012-0.15,0.027-0.213,0.062
		c-0.565,0.303-1.15,0.226-1.757,0.182c-0.996-0.07-1.891-0.466-2.828-0.717c-0.099-0.029-0.198-0.082-0.272-0.154
		c-0.272-0.258-0.529-0.523-0.796-0.788c-0.204-0.212-0.374-0.2-0.461,0.084c-0.087,0.278-0.104,0.588-0.113,0.882
		c-0.005,0.282,0.017,0.568,0.071,0.847c0.075,0.4-0.052,0.719-0.263,1.053c-0.2,0.312-0.322,0.674-0.489,1.008
		c-0.233,0.476-0.464,0.955-1.059,1.088c-0.109,0.023-0.227,0.099-0.296,0.185c-0.336,0.427-0.808,0.622-1.301,0.759
		c-0.438,0.113-0.886,0.188-1.331,0.25c-0.649,0.084-1.34-0.502-1.361-1.156c-0.01-0.349,0.21-0.609,0.461-0.789
		c0.211-0.152,0.494-0.213,0.752-0.285c0.067-0.021,0.187,0.029,0.242,0.087c0.472,0.479,1.079,0.371,1.652,0.387
		c0.119,0.005,0.294-0.112,0.363-0.223c0.378-0.632,0.77-1.25,1.005-1.955c0.413-1.238,0.518-2.478,0.184-3.75
		c-0.099-0.373-0.119-0.771-0.137-1.158c-0.021-0.467-0.03-0.934,0.009-1.394c0.042-0.51,0.141-1.015,0.518-1.409
		c0.112-0.113,0.099-0.236,0.052-0.375c-0.104-0.314-0.176-0.64-0.089-0.972c0.1-0.383,0.416-0.658,0.756-0.665
		c0.328-0.005,0.515,0.157,0.519,0.489c0.005,0.46-0.058,0.913-0.405,1.254c-0.272,0.271-0.32,0.569-0.19,0.906
		c0.108,0.289,0.155,0.578,0.116,0.886c-0.017,0.098,0.018,0.205,0.042,0.305c0.069,0.308,0.138,0.615,0.213,0.918
		c0.106,0.426,0.31,0.812,0.612,1.12c0.538,0.548,1.181,0.963,1.877,1.29c0.189,0.089,0.365,0.21,0.542,0.316
		c0.845,0.52,1.78,0.526,2.714,0.41C24.744,49.329,25.087,49.143,25.349,49.049"/>
	<path d="M28.984,70.52c0.2,0.405,0.415,0.803,0.606,1.209c0.186,0.398,0.098,0.832,0.101,1.246c0.002,0.284,0.03,0.549,0.093,0.828
		c0.081,0.364,0.072,0.819-0.086,1.146c-0.303,0.626-0.644,1.241-1.105,1.792c-0.369,0.445-0.752,0.855-1.237,1.156
		c-0.805,0.496-1.619,0.992-2.534,1.242c-1.325,0.363-2.63,0.149-3.916-0.217c-0.191-0.057-0.36-0.199-0.523-0.324
		c-0.415-0.324-0.824-0.649-1.231-0.984c-0.175-0.139-0.336-0.295-0.505-0.445c-0.099-0.091-0.181-0.214-0.299-0.27
		c-0.516-0.265-0.812-0.739-1.179-1.155c-0.533-0.599-0.763-1.313-0.961-2.062c-0.053-0.197-0.15-0.39-0.269-0.563
		c-0.209-0.313-0.233-0.646-0.121-0.99c0.048-0.137,0.128-0.276,0.23-0.378c0.25-0.246,0.498-0.195,0.638,0.13
		c0.062,0.138,0.085,0.287,0.127,0.433c0.224,0.819,0.614,1.554,1.093,2.254c0.553,0.819,1.252,1.498,1.951,2.179
		c0.043,0.044,0.084,0.094,0.137,0.116c0.721,0.328,1.37,0.855,2.167,0.965c0.869,0.121,1.757,0.273,2.629-0.062
		c0.308-0.121,0.636-0.179,0.947-0.287c0.722-0.258,1.311-0.691,1.811-1.274c0.646-0.746,0.816-1.659,1.012-2.572
		c0.012-0.057,0.025-0.12,0.016-0.178c-0.089-0.503-0.142-1.015-0.284-1.502c-0.103-0.337-0.298-0.658-0.506-0.949
		c-0.245-0.337-0.546-0.638-0.833-0.946c-0.076-0.082-0.183-0.172-0.291-0.195c-0.776-0.172-1.555-0.301-2.325,0.018
		c-0.229,0.094-0.425,0.229-0.521,0.475c-0.027,0.067-0.058,0.142-0.109,0.197c-0.303,0.335-0.286,0.725-0.224,1.143
		c0.131,0.877,0.347,0.897,1.082,1.197c0.435,0.178,0.755,0.422,0.74,0.783c-0.025,0.417-0.203,0.764-0.715,0.936
		c-0.632,0.22-1.236,0.092-1.785-0.207c-0.312-0.17-0.535-0.512-0.786-0.791c-0.529-0.596-0.646-1.349-0.734-2.092
		c-0.051-0.439,0.164-0.844,0.44-1.195c0.054-0.068,0.124-0.133,0.165-0.215c0.435-0.85,1.229-1.23,2.068-1.479
		c0.504-0.148,1.055-0.229,1.602-0.107c0.2,0.043,0.419,0.015,0.627,0.01c0.235-0.004,0.44,0.066,0.618,0.228
		c0.279,0.261,0.614,0.425,0.983,0.533c0.449,0.13,0.703,0.494,0.956,0.849c0.088,0.127,0.152,0.26,0.228,0.393
		C28.976,70.523,28.979,70.521,28.984,70.52"/>
	<path d="M18.85,34.48c0.141,0.421,0.429,0.686,0.788,0.906c0.209,0.132,0.369,0.348,0.551,0.519
		c0.089,0.082,0.165,0.212,0.266,0.23c0.451,0.093,0.911,0.152,1.363,0.231c0.458,0.082,0.911,0.164,1.363,0.27
		c0.122,0.027,0.233,0.134,0.336,0.221c0.178,0.168,0.191,0.279,0.018,0.46c-0.228,0.236-0.44,0.493-0.792,0.562
		c-0.133,0.023-0.257,0.085-0.389,0.118c-0.656,0.183-1.154,0.552-1.497,1.15c-0.103,0.173-0.268,0.318-0.425,0.459
		c-0.141,0.128-0.327,0.169-0.505,0.075c-0.191-0.095-0.285-0.266-0.289-0.478c-0.005-0.267,0.089-0.494,0.294-0.679
		c0.211-0.191,0.424-0.382,0.605-0.603c0.173-0.212,0.149-0.326-0.072-0.485c-0.191-0.134-0.411-0.243-0.632-0.342
		c-0.256-0.111-0.536-0.175-0.783-0.303c-0.177-0.098-0.352-0.238-0.476-0.4c-0.334-0.439-0.654-0.895-0.956-1.358
		c-0.139-0.21-0.255-0.446-0.318-0.692c-0.203-0.737-0.345-1.489-0.277-2.261c0.011-0.123,0.057-0.266,0.133-0.368
		c0.583-0.788,1.306-1.443,2.062-2.061c0.327-0.271,0.729-0.291,1.117-0.28c0.327,0.014,0.653,0.071,0.972,0.148
		c0.721,0.168,1.063,0.756,1.361,1.343c0.216,0.424,0.337,0.881,0.271,1.394c-0.052,0.396-0.267,0.616-0.561,0.806
		c-0.19,0.123-0.387,0.072-0.527-0.098c-0.201-0.241-0.385-0.494-0.576-0.745c-0.019-0.022-0.026-0.059-0.049-0.074
		c-0.393-0.308-0.816-0.604-1.341-0.511c-0.492,0.089-0.891,0.344-1.008,0.901c-0.059,0.285-0.234,0.526-0.289,0.831
		c-0.069,0.374-0.069,0.677,0.178,0.966C18.804,34.381,18.825,34.439,18.85,34.48"/>
	<path d="M34.197,39.358c-0.057,0.246-0.062,0.46-0.155,0.633c-0.139,0.253-0.12,0.48-0.014,0.733
		c0.188,0.453,0.265,0.915,0.126,1.402c-0.107,0.38-0.263,0.558-0.54,0.585c-0.289,0.029-0.524-0.137-0.678-0.489
		c-0.178-0.398-0.313-0.817-0.525-1.195c-0.289-0.519-0.62-1.018-0.956-1.512c-0.096-0.144-0.256-0.245-0.398-0.351
		c-0.565-0.419-1.239-0.585-1.888-0.806c-0.328-0.113-0.644-0.234-0.897-0.491c-0.159-0.162-0.373-0.234-0.613-0.244
		c-0.583-0.029-1.172-0.045-1.743-0.147c-0.452-0.08-0.886-0.267-1.319-0.436c-0.166-0.061-0.314-0.2-0.259-0.421
		c0.052-0.212,0.179-0.339,0.403-0.366c0.822-0.103,1.641-0.159,2.455,0.05c0.116,0.032,0.223,0.089,0.332,0.144
		c0.284,0.146,0.558,0.284,0.9,0.187c0.106-0.031,0.249-0.014,0.354,0.03c0.425,0.187,0.843,0.387,1.262,0.587
		c0.308,0.147,0.618,0.298,0.921,0.457c0.155,0.087,0.324,0.171,0.44,0.294c0.48,0.51,1.083,0.852,1.673,1.207
		c0.133,0.077,0.315,0.077,0.48,0.098C33.744,39.329,33.936,39.338,34.197,39.358"/>
	<path d="M34.345,38.999c-0.534-0.564-0.461-1.097-0.111-1.618c0.342-0.515,0.765-0.956,1.299-1.286
		c0.289-0.18,0.597-0.287,0.935-0.289c0.414,0,0.805-0.103,1.24,0.011c0.681,0.176,1.128,0.599,1.531,1.106
		c0.155,0.198,0.284,0.428,0.382,0.663c0.081,0.204,0.136,0.432,0.136,0.653c0.005,0.653-0.62,1.151-1.252,1.006
		c-0.089-0.021-0.16-0.121-0.232-0.193c-0.302-0.308-0.58-0.649-0.905-0.925c-0.368-0.307-0.793-0.346-1.261-0.182
		c-0.466,0.159-0.867,0.405-1.241,0.71C34.705,38.78,34.522,38.879,34.345,38.999"/>
	<path d="M33.771,45.837c-0.231-0.4,0.022-0.951,0.405-1.028c0.217-0.043,0.36,0.034,0.413,0.234
		c0.058,0.216,0.106,0.441,0.113,0.662c0.01,0.337-0.279,0.523-0.585,0.38C33.973,46.02,33.854,45.896,33.771,45.837"/>
	<path d="M14.246,52.491c-0.054-0.013-0.192-0.017-0.276-0.089c-0.105-0.08,0.06-0.446,0.238-0.494
		c0.092-0.024,0.237,0.014,0.307,0.08C14.637,52.104,14.528,52.336,14.246,52.491"/>
	<path d="M260.702,52.768c0.586,0.334,0.996,0.562,1.394,0.806c0.178,0.106,0.33,0.253,0.49,0.387
		c0.229,0.196,0.45,0.396,0.678,0.595c0.168,0.15,0.354,0.277,0.508,0.439c0.402,0.421,0.799,0.854,1.188,1.288
		c0.119,0.135,0.243,0.284,0.299,0.446c0.222,0.647,0.46,1.295,0.615,1.959c0.147,0.639,0.177,1.303,0.306,1.948
		c0.071,0.351-0.019,0.624-0.229,0.872c-0.131,0.15-0.141,0.287-0.069,0.453c0.033,0.082,0.078,0.166,0.087,0.255
		c0.034,0.316-0.213,0.642-0.439,0.544c-0.455-0.195-0.75,0.057-1.062,0.289c-0.548,0.412-1.114,0.77-1.813,0.838
		c-0.076,0.008-0.151,0.027-0.219,0.063c-0.356,0.188-0.711,0.38-1.065,0.575c-0.132,0.072-0.274,0.142-0.371,0.248
		c-0.134,0.158-0.283,0.186-0.478,0.188c-0.34,0.007-0.683,0.013-1.008,0.179c-0.207,0.106-0.462,0.156-0.697,0.161
		c-0.396,0.011-0.543-0.274-0.324-0.602c0.115-0.173,0.293-0.308,0.41-0.478c0.209-0.311,0.447-0.615,0.58-0.955
		c0.192-0.502,0.349-1.031,0.441-1.56c0.11-0.647,0.201-1.31,0-1.957c-0.184-0.588-0.343-1.185-0.555-1.758
		c-0.104-0.289-0.264-0.587-0.475-0.806c-0.475-0.48-0.979-0.938-1.695-1.041c-0.131-0.019-0.247-0.11-0.375-0.158
		c-0.124-0.047-0.252-0.102-0.387-0.112c-0.811-0.067-1.625-0.106-2.39,0.248c-0.364,0.171-0.739,0.349-1.052,0.597
		c-0.625,0.502-0.739,1.279-0.967,1.989c-0.008,0.024-0.002,0.058-0.002,0.092c0,0.496,0.104,0.979,0.24,1.457
		c0.16,0.548,0.506,0.937,0.963,1.255c0.34,0.235,0.729,0.254,1.117,0.295c0.444,0.049,0.705-0.067,0.862-0.453
		c0.177-0.408,0.151-0.812-0.094-1.203c-0.168-0.28-0.333-0.566-0.476-0.862c-0.199-0.419-0.188-0.813,0.197-1.144
		c0.127-0.104,0.223-0.244,0.331-0.367c0.601-0.657,1.866-0.604,2.326,0.056c0.153,0.22,0.377,0.39,0.543,0.604
		c0.198,0.256,0.421,0.517,0.548,0.812c0.333,0.765,0.456,1.556,0.071,2.351c-0.041,0.078-0.046,0.174-0.071,0.262
		c-0.129,0.414-0.23,0.84-0.557,1.164c-0.08,0.08-0.122,0.207-0.157,0.318c-0.123,0.403-0.308,0.747-0.688,0.967
		c-0.102,0.055-0.17,0.166-0.262,0.24c-0.492,0.416-0.863,1.033-1.635,0.979c-0.551,0.26-1.139,0.224-1.723,0.26
		c-0.707,0.041-1.365-0.039-1.931-0.556c-0.271-0.246-0.614-0.463-0.963-0.571c-0.639-0.2-1.034-0.688-1.405-1.149
		c-0.43-0.527-0.844-1.098-1.104-1.746c-0.098-0.248-0.262-0.488-0.291-0.746c-0.062-0.553-0.08-1.11-0.073-1.666
		c0.005-0.448,0.134-0.899,0.101-1.344c-0.047-0.609,0.158-1.117,0.468-1.606c0.278-0.443,0.571-0.884,0.86-1.32
		c0.289-0.438,0.58-0.876,0.877-1.31c0.041-0.06,0.117-0.094,0.176-0.139c0.479-0.359,0.959-0.72,1.445-1.07
		c0.547-0.396,1.115-0.745,1.797-0.875c0.146-0.032,0.299-0.068,0.434-0.131c0.888-0.39,1.832-0.334,2.753-0.293
		c0.597,0.027,1.188,0.299,1.781,0.458C259.354,51.968,260.126,52.402,260.702,52.768 M274.947,62.438
		c0.104,0.112,0.213,0.213,0.304,0.321c0.226,0.269,0.465,0.501,0.827,0.587c0.232,0.059,0.454,0.164,0.66,0.282
		c0.463,0.267,0.931,0.492,1.478,0.515c0.298,0.015,0.534,0.17,0.736,0.396c0.198,0.223,0.417,0.436,0.646,0.628
		c0.131,0.108,0.295,0.198,0.456,0.255c0.248,0.096,0.397,0.248,0.466,0.508c0.037,0.155,0.096,0.323,0.194,0.441
		c0.254,0.289,0.384,0.641,0.56,0.973c0.528,0.987,0.854,2.043,1.057,3.137c0.049,0.258,0.218,0.406,0.434,0.48
		c0.42,0.141,0.609,0.432,0.702,0.854c0.065,0.287,0.214,0.559,0.343,0.826c0.252,0.532,0.492,1.062,0.459,1.676
		c-0.027,0.49,0.101,0.947,0.336,1.385c0.148,0.271,0.224,0.589,0.366,0.869c0.372,0.72,0.708,1.471,1.164,2.133
		c0.317,0.462,0.529,1.016,1.005,1.367c0.047,0.035,0.092,0.088,0.114,0.138c0.263,0.614,0.822,0.942,1.287,1.36
		c0.054,0.054,0.123,0.09,0.19,0.121c0.762,0.356,1.537,0.684,2.277,1.078c0.592,0.314,1.189,0.451,1.855,0.408
		c0.402-0.023,0.812,0.01,1.214,0.062c0.36,0.05,0.657-0.062,0.926-0.266c0.461-0.346,0.976-0.592,1.503-0.811
		c0.109-0.045,0.223-0.105,0.301-0.189c0.45-0.48,0.901-0.967,1.336-1.465c0.25-0.287,0.408-0.624,0.486-1.004
		c0.045-0.221,0.117-0.438,0.184-0.65c0.362-1.203,0.219-2.312-0.593-3.309c-0.229-0.277-0.448-0.566-0.63-0.876
		c-0.279-0.479-0.729-0.698-1.222-0.862c-0.269-0.092-0.538-0.188-0.81-0.267c-0.508-0.149-1.017-0.065-1.523-0.005
		c-0.251,0.031-0.496,0.134-0.748,0.15c-0.971,0.055-1.676,0.594-2.328,1.23c-0.268,0.26-0.357,0.619-0.383,0.99
		c-0.014,0.195-0.01,0.392-0.033,0.585c-0.111,0.893,0.25,1.589,0.947,2.099c0.283,0.207,0.637,0.342,0.977,0.441
		c0.346,0.103,0.536-0.029,0.729-0.381c0.184-0.334,0.188-0.517-0.098-0.758c-0.464-0.395-0.48-0.879-0.354-1.396
		c0.108-0.449,0.3-0.863,0.694-1.127c0.183-0.121,0.403-0.193,0.617-0.258c0.285-0.084,0.574-0.157,0.867-0.209
		c0.314-0.055,0.581,0.117,0.846,0.255c0.172,0.089,0.312,0.235,0.486,0.317c0.73,0.348,1.025,1.01,1.18,1.719
		c0.221,0.992-0.012,1.92-0.602,2.742c-0.28,0.389-0.589,0.76-0.893,1.133c-0.076,0.094-0.168,0.19-0.273,0.231
		c-0.6,0.232-1.202,0.451-1.805,0.671c-0.069,0.023-0.149,0.021-0.223,0.041c-0.598,0.148-1.189,0.329-1.81,0.088
		c-0.078-0.029-0.181-0.002-0.271,0.004c-0.309,0.022-0.58-0.043-0.822-0.262c-0.246-0.221-0.526-0.398-0.791-0.597
		c-0.12-0.091-0.247-0.173-0.354-0.274c-0.487-0.468-0.948-0.957-1.499-1.359c-0.254-0.187-0.402-0.516-0.585-0.793
		c-0.731-1.107-1.329-2.291-1.677-3.568c-0.165-0.6-0.447-1.141-0.631-1.721c-0.081-0.256-0.119-0.525-0.172-0.79
		c-0.051-0.218-0.075-0.441-0.144-0.653c-0.202-0.63-0.454-1.245-0.627-1.882c-0.166-0.636-0.392-1.238-0.815-1.742
		c-0.356-0.414-0.562-0.919-0.854-1.372c-0.317-0.486-0.672-0.956-1.038-1.41c-0.434-0.537-0.884-1.06-1.354-1.564
		c-0.168-0.182-0.399-0.312-0.613-0.443c-0.28-0.178-0.562-0.354-0.857-0.494c-0.771-0.378-1.539-0.754-2.322-1.095
		c-0.32-0.14-0.663-0.149-1.006,0.024c-0.263,0.137-0.5,0.115-0.783-0.094c-0.42-0.31-0.922-0.5-1.473-0.479
		c-0.312,0.012-0.629,0.012-0.947,0.026c-0.303,0.015-0.598,0.063-0.838,0.273c-0.146,0.122-0.31,0.143-0.465,0.062
		c-0.574-0.291-1.156-0.281-1.754-0.094c-0.113,0.037-0.236,0.034-0.359,0.039c-0.256,0.01-0.456,0.135-0.633,0.311
		c-0.084,0.084-0.162,0.178-0.254,0.255c-0.336,0.264-0.537,0.19-0.627-0.234c-0.013-0.06-0.025-0.121-0.02-0.178
		c0.07-0.472,0.148-0.944,0.22-1.416c0.029-0.205,0.069-0.412,0.062-0.619c-0.012-0.373,0.052-0.722,0.271-1.03
		c0.007-0.012,0.019-0.022,0.021-0.035c0.309-0.834,0.943-1.375,1.656-1.848c0.411-0.279,0.893-0.33,1.362-0.4
		c0.079-0.015,0.175,0.033,0.247,0.08c0.104,0.062,0.189,0.146,0.285,0.221c0.585,0.435,0.585,0.433,1.193,0.08
		c0.186-0.109,0.289-0.26,0.287-0.475c-0.005-0.482-0.387-0.996-0.854-1.152c-0.717-0.242-1.45-0.385-2.211-0.324
		c-0.133,0.014-0.27,0.046-0.398,0.084c-0.75,0.229-1.488,0.477-2.029,1.102c-0.082,0.096-0.195,0.168-0.336,0.282
		c-0.082-0.153-0.135-0.255-0.187-0.353c-0.199-0.379-0.406-0.742-0.897-0.795c-0.281-0.031-0.404-0.219-0.434-0.513
		c0.1-0.043,0.188-0.093,0.286-0.116c0.492-0.115,0.719-0.457,0.621-0.953c-0.015-0.062-0.021-0.123-0.048-0.174
		c-0.225-0.414-0.321-0.863-0.43-1.32c-0.195-0.829-0.427-1.656-0.483-2.517c-0.009-0.134-0.003-0.284-0.062-0.392
		c-0.186-0.33-0.164-0.657-0.082-1.004c0.041-0.187,0.078-0.391,0.053-0.578c-0.061-0.437-0.481-0.792-0.83-0.739
		c-0.357,0.052-0.75,0.562-0.627,0.97c0.216,0.715,0.211,1.445,0.312,2.165c0.135,0.933,0.438,1.843,0.646,2.763
		c0.059,0.248,0.072,0.508,0.059,0.763c-0.021,0.296-0.21,0.388-0.464,0.233c-0.101-0.062-0.2-0.141-0.265-0.237
		c-0.399-0.604-1.027-0.961-1.562-1.412c-0.776-0.647-1.711-0.99-2.618-1.386c-0.207-0.089-0.406-0.198-0.621-0.262
		c-0.255-0.077-0.521-0.107-0.781-0.171c-0.332-0.084-0.666-0.178-0.996-0.271c-0.086-0.025-0.17-0.094-0.25-0.092
		c-0.808,0.051-1.562-0.271-2.351-0.339c-0.657-0.06-1.317-0.104-1.979,0c-0.194,0.032-0.409-0.012-0.609-0.053
		c-0.24-0.05-0.464-0.096-0.704,0.014c-0.237,0.112-0.499,0.082-0.678-0.103c-0.247-0.252-0.567-0.346-0.874-0.438
		c-1.105-0.34-2.045-0.92-2.834-1.77c-0.367-0.398-0.717-0.787-0.907-1.317c-0.141-0.392-0.388-0.744-0.583-1.118
		c-0.146-0.271-0.205-0.56-0.169-0.867c0.029-0.236,0.06-0.48,0.047-0.717c-0.062-1.259,0.455-2.29,1.234-3.219
		c0.06-0.07,0.138-0.125,0.179-0.205c0.301-0.587,0.854-0.872,1.41-1.141c0.221-0.106,0.488-0.127,0.738-0.161
		c0.476-0.068,0.953-0.132,1.432-0.169c0.366-0.029,0.689,0.066,0.991,0.321c0.39,0.332,0.819,0.617,1.258,0.881
		c0.642,0.392,0.897,0.979,1.05,1.687c0.116,0.547,0.086,1.072,0,1.603c-0.035,0.205-0.103,0.41-0.203,0.588
		c-0.229,0.4-0.643,0.48-1.041,0.471c-0.422-0.009-0.771-0.25-1.08-0.519c-0.108-0.096-0.178-0.287-0.187-0.438
		c-0.019-0.33,0.015-0.66,0.028-0.987c0.005-0.153,0.023-0.301,0.014-0.451c-0.016-0.212-0.139-0.351-0.348-0.419
		c-0.397-0.137-0.78-0.1-1.109,0.169c-0.543,0.45-0.902,0.992-0.834,1.75c0.044,0.489,0.016,0.992,0.202,1.45
		c0.205,0.505,0.493,0.929,1.071,1.129c0.717,0.255,1.426,0.349,2.166,0.23c0.183-0.03,0.379-0.109,0.521-0.226
		c0.268-0.214,0.502-0.472,0.751-0.71c0.054-0.051,0.108-0.109,0.179-0.135c0.488-0.178,0.742-0.578,0.971-1.013
		c0.4-0.754,0.589-1.546,0.425-2.395c-0.095-0.48-0.2-0.952-0.526-1.366c-0.292-0.373-0.504-0.815-0.738-1.231
		c-0.271-0.472-0.612-0.833-1.146-1.029c-0.357-0.132-0.68-0.382-1.014-0.573c-0.129-0.075-0.258-0.178-0.391-0.191
		c-0.988-0.103-1.975-0.234-2.957-0.021c-0.41,0.091-0.804,0.25-1.203,0.378c-0.033,0.007-0.062,0.021-0.082,0.043
		c-0.621,0.583-1.303,1.118-1.851,1.765c-0.433,0.515-0.884,1.074-0.899,1.821c-0.004,0.132-0.072,0.264-0.129,0.382
		c-0.291,0.597-0.306,1.218-0.197,1.854c0.02,0.116,0.049,0.238,0.041,0.354c-0.047,0.799,0.117,1.551,0.527,2.242
		c0.014,0.025,0.035,0.053,0.037,0.08c0.04,0.587,0.398,1.033,0.692,1.495c0.368,0.578,0.78,1.134,1.405,1.489
		c0.609,0.351,1.197,0.742,1.807,1.104c0.258,0.153,0.531,0.285,0.809,0.396c0.452,0.175,0.914,0.31,1.383,0.016
		c0.062-0.036,0.148-0.084,0.207-0.07c0.121,0.032,0.267,0.075,0.336,0.164c0.035,0.052-0.027,0.246-0.104,0.303
		c-0.427,0.325-0.869,0.627-1.311,0.94c-0.096,0.07-0.199,0.133-0.289,0.215c-0.291,0.252-0.457,0.303-0.745,0.074
		c-0.312-0.253-0.56-0.13-0.812,0.038c-1.302,0.862-2.562,1.782-3.931,2.543c-0.569,0.315-1.135,0.448-1.771,0.269
		c-0.183-0.047-0.388-0.043-0.582-0.039c-0.282,0.011-0.5-0.123-0.668-0.322c-0.293-0.348-0.489-0.771-0.56-1.206
		c-0.053-0.345,0.056-0.713,0.103-1.07c0.074-0.544-0.283-1.14-0.789-1.315c-0.396-0.137-1.022,0.176-1.176,0.605
		c-0.142,0.383-0.301,0.766-0.365,1.161c-0.094,0.583-0.035,1.158,0.242,1.702c0.267,0.521,0.629,0.945,1.055,1.337
		c0.312,0.289,0.654,0.467,1.068,0.537c0.191,0.032,0.381,0.084,0.568,0.146c0.275,0.088,0.541,0.166,0.825,0.012
		c0.098-0.055,0.235-0.041,0.353-0.037c0.338,0.021,0.504,0.32,0.33,0.605c-0.068,0.114-0.186,0.196-0.277,0.295
		c-0.244,0.262-0.52,0.502-0.719,0.795c-0.408,0.592-0.759,1.229-1.173,1.819c-0.442,0.622-0.907,1.233-1.401,1.819
		c-0.648,0.771-1.209,1.607-1.795,2.422c-0.086,0.123-0.178,0.246-0.281,0.351c-0.538,0.542-1.109,1.054-1.555,1.688
		c-0.092,0.13-0.257,0.21-0.381,0.315c-0.113,0.1-0.25,0.186-0.33,0.309c-0.396,0.604-0.99,0.994-1.519,1.457
		c-0.242,0.214-0.591,0.308-0.851,0.51c-0.444,0.346-0.922,0.592-1.478,0.73c-0.258,0.062-0.5,0.272-0.703,0.469
		c-0.221,0.217-0.424,0.222-0.694,0.135c-0.16-0.053-0.373-0.094-0.515-0.032c-0.569,0.241-1.151,0.136-1.733,0.114
		c-0.324-0.014-0.65,0.029-0.979,0.031c-0.224,0.003-0.456,0.019-0.664-0.045c-0.737-0.213-1.47-0.439-2.121-0.86
		c-0.376-0.244-0.741-0.513-1.108-0.769c-0.112-0.076-0.215-0.168-0.332-0.233c-0.273-0.144-0.496-0.335-0.631-0.621
		c-0.035-0.08-0.092-0.159-0.149-0.226c-0.379-0.426-0.783-0.826-1.134-1.277c-0.174-0.229-0.295-0.525-0.362-0.811
		c-0.19-0.787-0.397-1.578-0.485-2.383c-0.05-0.459-0.055-0.937,0.033-1.424c0.143-0.82,0.506-1.539,0.85-2.27
		c0.136-0.295,0.345-0.562,0.562-0.809c0.479-0.539,0.958-1.082,1.65-1.367c0.232-0.104,0.474-0.207,0.664-0.369
		c0.297-0.246,0.642-0.254,0.98-0.262c0.439-0.015,0.852-0.092,1.266-0.256c0.196-0.074,0.447-0.062,0.666-0.025
		c0.793,0.138,1.562,0.422,2.188,0.906c0.611,0.467,1.195,1.022,1.586,1.703c0.332,0.585,0.494,1.235,0.458,1.946
		c-0.028,0.601-0.167,1.133-0.554,1.579c-0.245,0.277-0.529,0.542-0.84,0.738c-0.826,0.519-2.129-0.068-2.338-1.021
		c-0.076-0.341,0.109-0.568,0.309-0.801c0.201-0.241,0.416-0.477,0.578-0.742c0.195-0.314,0.146-0.544-0.12-0.809
		c-0.308-0.312-0.709-0.424-1.116-0.414c-0.385,0.012-0.773,0.108-1.146,0.226c-0.312,0.099-0.517,0.345-0.619,0.669
		c-0.113,0.371-0.236,0.742-0.363,1.107c-0.12,0.354-0.207,0.693,0.047,1.031c0.07,0.092,0.094,0.221,0.122,0.338
		c0.12,0.492,0.426,0.893,0.692,1.303c0.315,0.482,0.787,0.84,1.381,0.931c0.361,0.058,0.742,0.002,1.117-0.007
		c0.572-0.012,1.141-0.05,1.649-0.369c0.035-0.021,0.091-0.018,0.126-0.041c0.331-0.23,0.65-0.484,0.99-0.695
		c0.639-0.4,0.855-1.053,1.126-1.693c0.343-0.812,0.315-1.637,0.173-2.477c-0.033-0.191-0.025-0.391-0.064-0.578
		c-0.084-0.43-0.309-0.781-0.598-1.099c-0.162-0.178-0.32-0.36-0.457-0.56c-0.574-0.86-1.375-1.467-2.283-1.926
		c-0.302-0.15-0.674-0.16-0.99-0.287c-0.543-0.215-1.114-0.215-1.674-0.297c-0.06-0.007-0.123,0-0.181-0.016
		c-0.563-0.16-1.096,0.021-1.636,0.137c-0.163,0.036-0.322,0.072-0.484,0.106c-0.369,0.077-0.738,0.155-1.02,0.44
		c-0.021,0.02-0.044,0.039-0.072,0.054c-0.82,0.294-1.357,1.028-2.15,1.375c-0.213,0.093-0.356,0.354-0.525,0.546
		c-0.322,0.369-0.626,0.765-0.969,1.119c-0.307,0.316-0.516,0.632-0.484,1.106c0.034,0.546-0.107,1.072-0.324,1.58
		c-0.227,0.532-0.264,1.062-0.039,1.618c0.096,0.239,0.135,0.53,0.104,0.788c-0.049,0.442,0.085,0.842,0.223,1.231
		c0.155,0.444,0.389,0.869,0.62,1.285c0.235,0.416,0.501,0.814,0.769,1.213c0.291,0.438,0.582,0.867,0.902,1.287
		c0.516,0.672,1.18,1.151,1.979,1.438c0.427,0.152,0.824,0.355,1.172,0.65c0.226,0.191,0.494,0.254,0.783,0.306
		c0.648,0.125,1.285,0.306,1.927,0.462c0.104,0.023,0.21,0.072,0.309,0.061c0.804-0.125,1.61,0.024,2.414-0.033
		c0.476-0.033,0.874-0.189,1.138-0.619c0.233-0.385,0.361-0.418,0.771-0.228c0.343,0.159,0.646,0.164,0.964-0.089
		c0.362-0.289,0.787-0.475,1.22-0.652c0.822-0.347,1.547-0.865,2.198-1.476c0.312-0.285,0.664-0.515,0.998-0.771
		c0.106-0.084,0.229-0.149,0.317-0.25c0.523-0.595,1.05-1.188,1.552-1.801c0.637-0.775,1.259-1.566,1.871-2.365
		c0.385-0.498,0.766-1.004,1.106-1.531c0.555-0.854,1.075-1.729,1.606-2.6c0.172-0.281,0.353-0.557,0.491-0.85
		c0.408-0.84,1.057-1.5,1.645-2.193c0.447-0.535,1.059-0.935,1.736-1.181c0.068-0.024,0.143-0.045,0.219-0.056
		c0.307-0.033,0.451,0.148,0.346,0.447c-0.047,0.127-0.149,0.231-0.186,0.358c-0.116,0.401-0.216,0.812-0.316,1.216
		c-0.029,0.129-0.021,0.275-0.065,0.398c-0.349,0.849-0.231,1.751-0.28,2.629c-0.01,0.195,0.096,0.404,0.174,0.599
		c0.159,0.405,0.35,0.798,0.502,1.2c0.174,0.462,0.305,0.939,0.489,1.396c0.083,0.205,0.271,0.359,0.372,0.561
		c0.294,0.581,0.754,1.011,1.257,1.396c0.498,0.383,1.036,0.715,1.57,1.049c0.354,0.224,0.756,0.268,1.172,0.271
		c0.246,0.006,0.496,0.075,0.739,0.143c0.32,0.078,0.625,0.219,0.949,0.267c0.832,0.125,1.674,0.129,2.508,0.06
		c0.332-0.027,0.647-0.213,0.976-0.312c0.153-0.048,0.317-0.091,0.476-0.089c0.471,0.009,0.918-0.05,1.375-0.171
		c0.371-0.098,0.771-0.109,1.156-0.141c0.202-0.018,0.37-0.062,0.526-0.209c0.274-0.252,0.575-0.402,0.983-0.271
		c0.264,0.082,0.521-0.015,0.719-0.261c0.104-0.131,0.285-0.252,0.441-0.271c0.328-0.041,0.562-0.21,0.785-0.41
		c0.227-0.205,0.475-0.281,0.781-0.283c0.229-0.004,0.467-0.097,0.689-0.177c0.361-0.132,0.524-0.021,0.479,0.354
		c-0.021,0.164-0.07,0.326-0.116,0.484c-0.129,0.446-0.267,0.894-0.396,1.34c-0.141,0.479-0.353,0.922-0.625,1.346
		c-0.188,0.289-0.329,0.605-0.465,0.924c-0.189,0.447-0.416,0.857-0.766,1.211c-0.281,0.287-0.513,0.626-0.74,0.961
		c-0.498,0.727-1.065,1.37-1.843,1.823c-0.448,0.262-0.843,0.612-1.342,0.812c-0.669,0.262-1.304,0.608-1.974,0.866
		c-0.521,0.2-1.08,0.315-1.623,0.472c-0.676,0.199-1.346,0.431-2.028,0.602c-0.487,0.119-0.985,0.211-1.501,0.115
		c-0.366-0.072-0.748-0.062-1.121-0.092c-0.18-0.016-0.357-0.043-0.536-0.072c-0.366-0.062-0.737-0.115-1.103-0.199
		c-0.309-0.071-0.605-0.186-0.911-0.266c-0.287-0.076-0.576-0.153-0.869-0.192c-0.401-0.048-0.733-0.246-1.069-0.446
		c-0.897-0.535-1.604-1.311-2.453-1.9c-0.062-0.043-0.138-0.082-0.172-0.144c-0.258-0.46-0.525-0.913-0.754-1.384
		c-0.226-0.465-0.13-0.977-0.104-1.469c0.014-0.27,0.072-0.539,0.143-0.799c0.098-0.367,0.299-0.655,0.705-0.74
		c0.206-0.043,0.411-0.084,0.618-0.133c0.854-0.192,1.245-1.102,0.8-1.854c-0.208-0.355-0.536-0.572-0.904-0.713
		c-0.127-0.046-0.312-0.036-0.434,0.02c-0.323,0.155-0.63,0.346-0.938,0.529c-0.127,0.077-0.246,0.171-0.359,0.271
		c-0.1,0.086-0.229,0.173-0.271,0.289c-0.303,0.795-0.733,1.555-0.688,2.451c0.002,0.075,0.004,0.152-0.02,0.224
		c-0.302,0.817-0.041,1.577,0.274,2.309c0.188,0.437,0.463,0.847,0.755,1.226c0.393,0.512,0.852,0.97,1.262,1.463
		c0.539,0.654,1.254,1.07,1.953,1.51c0.405,0.25,0.859,0.428,1.284,0.65c0.293,0.15,0.585,0.312,0.865,0.484
		c0.303,0.186,0.604,0.335,0.974,0.278c0.116-0.021,0.238,0.016,0.355,0.028c0.33,0.041,0.654,0.084,0.982,0.131
		c0.116,0.016,0.241,0.023,0.348,0.072c0.473,0.209,0.94,0.207,1.416,0.019c0.068-0.025,0.149-0.017,0.227-0.019
		c0.416-0.015,0.837-0.01,1.255-0.051c0.197-0.021,0.39-0.132,0.582-0.199c0.267-0.095,0.529-0.193,0.802-0.268
		c0.246-0.064,0.498-0.134,0.746-0.15c0.514-0.033,0.953-0.23,1.394-0.476c0.603-0.335,1.204-0.683,1.84-0.94
		c0.435-0.173,0.838-0.387,1.259-0.58c0.307-0.141,0.658-0.187,0.994-0.271c0.436-0.112,0.867-0.239,1.311-0.319
		c0.414-0.074,0.811,0.075,1.162,0.273c0.182,0.104,0.354,0.301,0.434,0.496c0.191,0.472,0.347,0.955,0.477,1.445
		c0.1,0.388,0.373,0.616,0.669,0.812c0.238,0.156,0.519,0.072,0.658-0.186c0.204-0.381,0.39-0.775,0.362-1.233
		c-0.026-0.522,0-1.04-0.131-1.562c-0.097-0.388-0.313-0.607-0.621-0.771c-0.291-0.154-0.606-0.263-0.912-0.38
		c-0.256-0.1-0.51-0.188-0.79-0.113c-0.054,0.014-0.121,0-0.181-0.012c-0.201-0.049-0.436-0.057-0.516-0.301
		c-0.083-0.243,0.064-0.428,0.188-0.612c0.043-0.06,0.099-0.113,0.151-0.168c0.394-0.408,0.839-0.779,0.97-1.373
		c0.01-0.039,0.039-0.079,0.065-0.116c0.731-1.076,1.263-2.256,1.802-3.431c0.055-0.125,0.104-0.252,0.133-0.382
		c0.138-0.603,0.239-1.209,0.401-1.799c0.123-0.434,0.293-0.85,0.489-1.254c0.137-0.287,0.24-0.304,0.552-0.234
		c0.087,0.019,0.177,0.041,0.263,0.062c0.385,0.079,0.76,0.132,1.146-0.043c0.24-0.108,0.523-0.108,0.785-0.169
		c0.296-0.066,0.585-0.146,0.787-0.4c0.154-0.195,0.317-0.285,0.58-0.129c0.406,0.235,0.86,0.213,1.316,0.172
		c0.171-0.019,0.35,0.025,0.521,0.061c0.179,0.034,0.354,0.096,0.529,0.125c0.316,0.048,0.633,0.075,0.844-0.26
		C274.736,62.555,274.833,62.52,274.947,62.438"/>
	<path d="M273.505,49.049c-0.437-0.348-0.791-0.621-1.136-0.91c-0.098-0.082-0.172-0.207-0.221-0.325
		c-0.117-0.278-0.228-0.554-0.312-0.843c-0.041-0.127-0.062-0.303-0.011-0.421c0.241-0.58,0.532-1.136,0.946-1.625
		c0.276-0.328,0.668-0.431,1.039-0.458c0.326-0.027,0.615,0.191,0.84,0.46c0.227,0.28,0.478,0.539,0.723,0.804
		c0.037,0.045,0.086,0.084,0.135,0.116c0.465,0.277,0.988,0.027,1.006-0.526c0.027-0.742-0.08-1.498-0.527-2.11
		c-0.504-0.689-1.233-1.061-2.114-0.936c-0.47,0.066-0.942,0.196-1.386,0.371c-1.07,0.419-1.729,1.204-1.956,2.343
		c-0.003,0.027-0.003,0.062-0.013,0.089c-0.233,0.592-0.061,1.138,0.168,1.688c0.072,0.176,0.097,0.378,0.109,0.569
		c0.051,0.795,0.393,1.438,0.998,1.942c0.268,0.216,0.531,0.438,0.812,0.64c0.359,0.257,0.763,0.418,1.201,0.484
		c0.074,0.012,0.152,0.027,0.219,0.062c0.562,0.303,1.146,0.226,1.754,0.182c0.996-0.07,1.892-0.466,2.828-0.717
		c0.099-0.029,0.199-0.082,0.272-0.154c0.271-0.258,0.529-0.523,0.793-0.788c0.207-0.212,0.378-0.2,0.464,0.084
		c0.086,0.278,0.104,0.588,0.113,0.882c0.003,0.282-0.02,0.568-0.068,0.847c-0.078,0.4,0.049,0.719,0.26,1.053
		c0.199,0.312,0.322,0.674,0.488,1.008c0.234,0.476,0.461,0.955,1.061,1.088c0.109,0.023,0.227,0.099,0.296,0.185
		c0.336,0.427,0.808,0.622,1.303,0.759c0.435,0.113,0.884,0.188,1.331,0.25c0.645,0.084,1.336-0.502,1.358-1.156
		c0.011-0.349-0.21-0.609-0.462-0.789c-0.211-0.152-0.492-0.213-0.752-0.285c-0.067-0.021-0.187,0.029-0.239,0.087
		c-0.472,0.479-1.08,0.371-1.653,0.387c-0.121,0.005-0.294-0.112-0.363-0.223c-0.379-0.632-0.77-1.25-1.004-1.955
		c-0.416-1.238-0.521-2.478-0.185-3.75c0.099-0.373,0.118-0.771,0.137-1.158c0.021-0.467,0.026-0.934-0.009-1.394
		c-0.04-0.51-0.141-1.015-0.518-1.409c-0.112-0.113-0.099-0.236-0.053-0.375c0.104-0.314,0.176-0.64,0.09-0.972
		c-0.102-0.383-0.414-0.658-0.758-0.665c-0.326-0.005-0.514,0.157-0.516,0.489c-0.005,0.46,0.056,0.913,0.4,1.254
		c0.274,0.271,0.321,0.569,0.192,0.906c-0.108,0.289-0.155,0.578-0.112,0.886c0.014,0.098-0.023,0.205-0.045,0.305
		c-0.068,0.308-0.139,0.615-0.215,0.918c-0.107,0.426-0.309,0.812-0.609,1.12c-0.539,0.548-1.184,0.963-1.879,1.29
		c-0.188,0.089-0.365,0.21-0.543,0.316c-0.846,0.52-1.778,0.526-2.713,0.41C274.115,49.329,273.771,49.143,273.505,49.049"/>
	<path d="M269.873,70.52c-0.203,0.405-0.416,0.803-0.607,1.209c-0.185,0.398-0.099,0.832-0.1,1.246
		c-0.002,0.284-0.032,0.549-0.096,0.828c-0.078,0.364-0.069,0.819,0.089,1.146c0.302,0.626,0.646,1.241,1.103,1.792
		c0.371,0.445,0.754,0.855,1.241,1.156c0.804,0.496,1.617,0.992,2.533,1.242c1.323,0.363,2.629,0.149,3.918-0.217
		c0.187-0.057,0.356-0.199,0.521-0.324c0.416-0.324,0.827-0.649,1.232-0.984c0.175-0.139,0.338-0.295,0.502-0.445
		c0.1-0.091,0.184-0.214,0.298-0.27c0.521-0.265,0.815-0.739,1.183-1.155c0.531-0.599,0.763-1.313,0.961-2.062
		c0.053-0.197,0.152-0.39,0.27-0.563c0.208-0.313,0.232-0.646,0.119-0.99c-0.044-0.137-0.126-0.276-0.229-0.378
		c-0.252-0.246-0.502-0.195-0.64,0.13c-0.062,0.138-0.084,0.287-0.124,0.433c-0.229,0.819-0.617,1.554-1.095,2.254
		c-0.556,0.819-1.252,1.498-1.951,2.179c-0.044,0.044-0.084,0.094-0.138,0.116c-0.723,0.328-1.37,0.855-2.166,0.965
		c-0.87,0.121-1.758,0.273-2.627-0.062c-0.311-0.121-0.639-0.179-0.95-0.287c-0.722-0.258-1.312-0.691-1.813-1.274
		c-0.64-0.746-0.812-1.659-1.009-2.572c-0.012-0.057-0.024-0.12-0.014-0.178c0.087-0.503,0.141-1.015,0.284-1.502
		c0.102-0.337,0.297-0.658,0.502-0.949c0.248-0.337,0.549-0.638,0.834-0.946c0.08-0.082,0.186-0.172,0.293-0.195
		c0.775-0.172,1.555-0.301,2.324,0.018c0.229,0.094,0.426,0.229,0.521,0.475c0.026,0.067,0.058,0.142,0.108,0.197
		c0.303,0.335,0.287,0.725,0.226,1.143c-0.132,0.877-0.347,0.897-1.084,1.197c-0.435,0.178-0.753,0.422-0.737,0.783
		c0.021,0.417,0.199,0.764,0.715,0.936c0.631,0.22,1.237,0.092,1.78-0.207c0.315-0.17,0.538-0.512,0.79-0.791
		c0.526-0.596,0.646-1.349,0.73-2.092c0.055-0.439-0.161-0.844-0.438-1.195c-0.057-0.068-0.126-0.133-0.165-0.215
		c-0.435-0.85-1.229-1.23-2.067-1.479c-0.506-0.148-1.057-0.229-1.604-0.107c-0.2,0.043-0.417,0.015-0.626,0.01
		c-0.238-0.004-0.439,0.066-0.618,0.228c-0.282,0.261-0.612,0.425-0.983,0.533c-0.447,0.13-0.701,0.494-0.955,0.849
		c-0.088,0.127-0.154,0.26-0.229,0.393C269.88,70.523,269.878,70.521,269.873,70.52"/>
	<path d="M280.007,34.48c-0.141,0.421-0.428,0.686-0.786,0.906c-0.211,0.132-0.371,0.348-0.553,0.519
		c-0.087,0.082-0.164,0.212-0.266,0.23c-0.45,0.093-0.911,0.152-1.364,0.231c-0.454,0.082-0.911,0.164-1.361,0.27
		c-0.122,0.027-0.233,0.134-0.335,0.221c-0.178,0.168-0.193,0.279-0.021,0.46c0.229,0.236,0.443,0.493,0.798,0.562
		c0.131,0.023,0.255,0.085,0.387,0.118c0.655,0.183,1.154,0.552,1.499,1.15c0.104,0.173,0.264,0.318,0.422,0.459
		c0.141,0.128,0.325,0.169,0.506,0.075c0.188-0.095,0.284-0.266,0.287-0.478c0.004-0.267-0.087-0.494-0.292-0.679
		c-0.212-0.191-0.425-0.382-0.604-0.603c-0.174-0.212-0.153-0.326,0.072-0.485c0.192-0.134,0.41-0.243,0.629-0.342
		c0.259-0.111,0.537-0.175,0.787-0.303c0.176-0.098,0.349-0.238,0.474-0.4c0.334-0.439,0.653-0.895,0.959-1.358
		c0.135-0.21,0.249-0.446,0.315-0.692c0.201-0.737,0.346-1.489,0.277-2.261c-0.011-0.123-0.061-0.266-0.135-0.368
		c-0.583-0.788-1.305-1.443-2.061-2.061c-0.33-0.271-0.729-0.291-1.117-0.28c-0.324,0.014-0.654,0.071-0.973,0.148
		c-0.72,0.168-1.062,0.756-1.363,1.343c-0.213,0.424-0.336,0.881-0.269,1.394c0.051,0.396,0.267,0.616,0.562,0.806
		c0.188,0.123,0.386,0.072,0.524-0.098c0.2-0.241,0.386-0.494,0.576-0.745c0.019-0.022,0.024-0.059,0.049-0.074
		c0.394-0.308,0.817-0.604,1.343-0.511c0.49,0.089,0.889,0.344,1.004,0.901c0.062,0.285,0.235,0.526,0.291,0.831
		c0.07,0.374,0.07,0.677-0.175,0.966C280.055,34.381,280.031,34.439,280.007,34.48"/>
	<path d="M264.659,39.358c0.058,0.246,0.063,0.46,0.157,0.633c0.136,0.253,0.117,0.48,0.015,0.733
		c-0.188,0.453-0.269,0.915-0.13,1.402c0.111,0.38,0.263,0.558,0.54,0.585c0.288,0.029,0.524-0.137,0.679-0.489
		c0.18-0.398,0.316-0.817,0.523-1.195c0.291-0.519,0.623-1.018,0.959-1.512c0.095-0.144,0.255-0.245,0.396-0.351
		c0.564-0.419,1.239-0.585,1.889-0.806c0.326-0.113,0.646-0.234,0.896-0.491c0.161-0.162,0.372-0.234,0.615-0.244
		c0.582-0.029,1.172-0.045,1.742-0.147c0.453-0.08,0.889-0.267,1.319-0.436c0.166-0.061,0.312-0.2,0.257-0.421
		c-0.051-0.212-0.177-0.339-0.4-0.366c-0.823-0.103-1.645-0.159-2.456,0.05c-0.117,0.032-0.226,0.089-0.331,0.144
		c-0.285,0.146-0.562,0.284-0.9,0.187c-0.106-0.031-0.248-0.014-0.354,0.03c-0.424,0.187-0.844,0.387-1.26,0.587
		c-0.312,0.147-0.621,0.298-0.922,0.457c-0.158,0.087-0.324,0.171-0.442,0.294c-0.479,0.51-1.082,0.852-1.671,1.207
		c-0.135,0.077-0.315,0.077-0.479,0.098C265.113,39.329,264.922,39.338,264.659,39.358"/>
	<path d="M264.512,38.999c0.534-0.564,0.461-1.097,0.112-1.618c-0.343-0.515-0.767-0.956-1.299-1.286
		c-0.289-0.18-0.599-0.287-0.935-0.289c-0.414,0-0.81-0.103-1.242,0.011c-0.682,0.176-1.127,0.599-1.529,1.106
		c-0.156,0.198-0.284,0.428-0.381,0.663c-0.082,0.204-0.139,0.432-0.139,0.653c-0.004,0.653,0.623,1.151,1.254,1.006
		c0.086-0.021,0.158-0.121,0.229-0.193c0.303-0.308,0.581-0.649,0.907-0.925c0.367-0.307,0.795-0.346,1.262-0.182
		c0.465,0.159,0.865,0.405,1.241,0.71C264.152,38.78,264.332,38.879,264.512,38.999"/>
	<path d="M265.086,45.837c0.229-0.4-0.021-0.951-0.404-1.028c-0.219-0.043-0.359,0.034-0.416,0.234
		c-0.057,0.216-0.104,0.441-0.11,0.662c-0.009,0.337,0.28,0.523,0.584,0.38C264.884,46.02,265.004,45.896,265.086,45.837"/>
	<path d="M284.611,52.491c0.054-0.013,0.19-0.017,0.274-0.089c0.104-0.08-0.061-0.446-0.237-0.494
		c-0.092-0.024-0.237,0.014-0.308,0.08C284.221,52.104,284.329,52.336,284.611,52.491"/>
</g>
<rect x="-8.267" y="93.285" fill="none" width="316" height="24"/>
<g enable-background="new    ">
	<path d="M55.193,99.897v0.32h-3.666v-0.32c1.072,0,1.265-0.271,1.265-1.873v-2.561c0-1.601-0.192-1.856-1.265-1.856v-0.32h3.713
		h2.081l0.128,1.921h-0.336l-0.08-0.32c-0.192-0.736-0.384-1.024-1.857-1.024h-1.249v2.385h0.096c1.601,0,1.729-0.192,1.729-1.265
		h0.32v3.121h-0.32c0-1.056-0.128-1.264-1.729-1.264h-0.096v1.184C53.928,99.626,54.12,99.897,55.193,99.897z"/>
	<path d="M62.505,99.77c1.121,0,1.953-0.641,1.953-2.033v-2.272c0-1.601-0.192-1.856-1.264-1.856v-0.32h3.265v0.32
		c-1.057,0-1.265,0.256-1.265,1.856v2.161c0,1.872-1.296,2.849-2.865,2.849c-1.568,0-2.849-0.977-2.849-2.849v-2.161
		c0-1.601-0.192-1.856-1.264-1.856v-0.32h3.666v0.32c-1.057,0-1.265,0.256-1.265,1.856v2.272
		C60.616,99.129,61.384,99.77,62.505,99.77z"/>
	<path d="M67.655,93.607v-0.32h3.666v0.32c-1.073,0-1.265,0.256-1.265,1.856v2.305c0,1.601,0.192,1.857,1.265,1.857h0.56
		c1.473,0,1.665-0.272,1.857-1.024l0.08-0.32h0.336l-0.112,1.937h-6.387v-0.32c1.072,0,1.265-0.271,1.265-1.873v-2.561
		C68.92,93.863,68.728,93.607,67.655,93.607z"/>
	<path d="M74.743,93.607v-0.32h3.666v0.32c-1.073,0-1.265,0.256-1.265,1.856v2.305c0,1.601,0.192,1.857,1.265,1.857h0.56
		c1.473,0,1.665-0.272,1.857-1.024l0.08-0.32h0.336l-0.112,1.937h-6.387v-0.32c1.072,0,1.265-0.271,1.265-1.873v-2.561
		C76.008,93.863,75.815,93.607,74.743,93.607z"/>
	<path d="M88.2,100.49c-0.833,0-1.505-0.4-1.793-0.593c-0.096,0.112-0.256,0.32-0.304,0.593h-0.288v-2.754h0.32
		c0.128,1.361,0.992,2.129,2.193,2.129c0.688,0,1.232-0.384,1.232-1.072c0-0.56-0.448-0.992-1.312-1.425l-1.088-0.56
		c-0.768-0.4-1.329-1.057-1.329-1.953c0-1.008,0.849-1.824,2.001-1.824c0.672,0,1.185,0.239,1.521,0.479
		c0.08-0.096,0.208-0.24,0.24-0.496h0.32v2.705h-0.32c-0.096-0.96-0.528-2.097-1.681-2.097c-0.625,0-1.152,0.336-1.152,0.929
		c0,0.56,0.416,0.864,1.392,1.376l1.073,0.561c0.912,0.464,1.249,1.185,1.249,1.809C90.473,99.609,89.432,100.49,88.2,100.49z"/>
	<path d="M97.641,98.602l0.08-0.32h0.32l-0.128,1.937h-5.986v-0.32c1.072,0,1.265-0.271,1.265-1.873v-2.561
		c0-1.601-0.192-1.856-1.265-1.856v-0.32h3.538h2.064l0.128,1.921h-0.336l-0.08-0.32c-0.176-0.736-0.384-1.024-1.841-1.024h-1.072
		v2.385h0.096c1.601,0,1.729-0.192,1.729-1.265h0.32v3.121h-0.32c0-1.056-0.128-1.264-1.729-1.264h-0.096v0.928
		c0,1.601,0.192,1.857,1.265,1.857h0.192C97.241,99.626,97.449,99.354,97.641,98.602z"/>
	<path d="M104.457,98.409c0.64,0.752,1.376,1.376,2.145,1.488v0.32h-2.049l-2.177-2.978h-0.448v0.784
		c0,1.602,0.192,1.873,1.265,1.873v0.32h-3.666v-0.32c1.072,0,1.265-0.271,1.265-1.873v-2.561c0-1.601-0.192-1.856-1.265-1.856
		v-0.32h3.313c1.648,0,2.561,0.849,2.561,1.984c0,0.977-0.736,1.777-1.937,1.938L104.457,98.409z M102.84,93.863h-0.913v2.785h0.913
		c0.896,0,1.312-0.624,1.312-1.377C104.152,94.504,103.736,93.863,102.84,93.863z"/>
	<path d="M113.145,95.016l-2.369,5.475h-0.208l-2.369-5.475c-0.512-1.217-0.72-1.408-1.552-1.408v-0.32h3.585v0.32
		c-1.153,0-1.265,0.288-0.864,1.216L111,98.602l1.617-3.778c0.416-0.944,0.416-1.216-0.848-1.216v-0.32h3.009v0.32
		C113.801,93.607,113.657,93.799,113.145,95.016z"/>
	<path d="M115.51,100.218v-0.32c1.072,0,1.265-0.271,1.265-1.873v-2.561c0-1.601-0.192-1.856-1.265-1.856v-0.32h3.666v0.32
		c-1.072,0-1.265,0.256-1.265,1.856v2.561c0,1.602,0.192,1.873,1.265,1.873v0.32H115.51z"/>
	<path d="M120.662,93.607v-0.32h1.969l4.258,5.058v-2.881c0-1.601-0.192-1.856-1.265-1.856v-0.32h3.121v0.32
		c-1.072,0-1.265,0.256-1.265,1.856v5.01h-0.304l-4.658-5.586v3.137c0,1.602,0.192,1.873,1.264,1.873v0.32h-3.121v-0.32
		c1.072,0,1.265-0.271,1.265-1.873v-2.561C121.927,93.863,121.734,93.607,120.662,93.607z"/>
	<path d="M133.742,100.49c-2.001,0-3.618-1.681-3.618-3.746c0-2.032,1.617-3.729,3.618-3.729c0.768,0,1.632,0.448,2.112,1.057
		c0.112-0.128,0.225-0.528,0.288-0.784h0.305v2.769h-0.32c-0.305-1.488-1.152-2.433-2.385-2.433c-1.793,0-2.354,1.776-2.354,3.121
		c0,1.36,0.561,3.121,2.354,3.121c0.8,0,2.032-0.496,2.032-1.36c0-0.64-0.592-0.977-1.376-0.977v-0.319h3.537v0.319
		c-1.072,0-1.265,0.272-1.265,1.873c0,0,0,0.305,0,0.48C135.662,99.882,134.67,100.49,133.742,100.49z"/>
	<path d="M141.517,100.49c-0.832,0-1.504-0.4-1.792-0.593c-0.097,0.112-0.257,0.32-0.305,0.593h-0.288v-2.754h0.32
		c0.128,1.361,0.992,2.129,2.193,2.129c0.688,0,1.232-0.384,1.232-1.072c0-0.56-0.448-0.992-1.312-1.425l-1.089-0.56
		c-0.769-0.4-1.328-1.057-1.328-1.953c0-1.008,0.848-1.824,2-1.824c0.673,0,1.185,0.239,1.521,0.479
		c0.08-0.096,0.208-0.24,0.239-0.496h0.32v2.705h-0.32c-0.096-0.96-0.527-2.097-1.681-2.097c-0.624,0-1.152,0.336-1.152,0.929
		c0,0.56,0.416,0.864,1.393,1.376l1.072,0.561c0.913,0.464,1.249,1.185,1.249,1.809C143.79,99.609,142.75,100.49,141.517,100.49z"/>
	<path d="M153.054,100.49c-2.146,0-3.906-1.681-3.906-3.746c0-2.032,1.761-3.729,3.906-3.729c2.145,0,3.905,1.697,3.905,3.729
		C156.959,98.81,155.198,100.49,153.054,100.49z M153.054,93.623c-1.89,0-2.594,1.745-2.594,3.121c0,1.393,0.704,3.121,2.594,3.121
		c1.889,0,2.593-1.729,2.593-3.121C155.646,95.368,154.942,93.623,153.054,93.623z"/>
	<path d="M162.269,99.897v0.32h-3.665v-0.32c1.072,0,1.265-0.271,1.265-1.873v-2.561c0-1.601-0.192-1.856-1.265-1.856v-0.32h3.714
		h2.08l0.128,1.921h-0.336l-0.08-0.32c-0.191-0.736-0.384-1.024-1.856-1.024h-1.248v2.385h0.096c1.601,0,1.729-0.192,1.729-1.265
		h0.32v3.121h-0.32c0-1.056-0.128-1.264-1.729-1.264h-0.096v1.184C161.005,99.626,161.196,99.897,162.269,99.897z"/>
	<path d="M170.764,98.665c-0.4,0.944-0.4,1.217,0.864,1.217v0.336h-3.025v-0.336c0.977,0,1.121-0.192,1.648-1.393l2.354-5.475h0.224
		l2.354,5.475c0.528,1.2,0.72,1.393,1.568,1.393v0.336h-3.586v-0.336c1.153,0,1.265-0.272,0.865-1.217l-0.32-0.736h-2.625
		L170.764,98.665z M172.396,94.888l-1.057,2.449h2.113L172.396,94.888z"/>
	<path d="M177.516,93.607v-0.32h3.665v0.32c-1.072,0-1.264,0.256-1.264,1.856v2.305c0,1.601,0.191,1.857,1.264,1.857h0.561
		c1.473,0,1.665-0.272,1.856-1.024l0.08-0.32h0.337l-0.112,1.937h-6.387v-0.32c1.072,0,1.265-0.271,1.265-1.873v-2.561
		C178.78,93.863,178.588,93.607,177.516,93.607z"/>
	<path d="M184.604,93.607v-0.32h3.665v0.32c-1.072,0-1.264,0.256-1.264,1.856v2.305c0,1.601,0.191,1.857,1.264,1.857h0.561
		c1.473,0,1.665-0.272,1.856-1.024l0.08-0.32h0.337l-0.112,1.937h-6.387v-0.32c1.072,0,1.265-0.271,1.265-1.873v-2.561
		C185.868,93.863,185.676,93.607,184.604,93.607z"/>
	<path d="M201.613,100.218c-0.063-0.288-0.176-0.672-0.288-0.784c-0.48,0.592-1.345,1.057-2.112,1.057
		c-2.001,0-3.618-1.681-3.618-3.746c0-2.032,1.617-3.729,3.618-3.729c0.768,0,1.632,0.448,2.112,1.057
		c0.112-0.128,0.225-0.528,0.288-0.784h0.305v2.769h-0.32c-0.305-1.488-1.152-2.433-2.385-2.433c-1.793,0-2.321,1.776-2.321,3.121
		c0,1.36,0.528,3.121,2.321,3.121c1.232,0,2.08-0.944,2.385-2.433h0.32v2.785H201.613z"/>
	<path d="M209.726,96.248v-0.784c0-1.601-0.191-1.856-1.265-1.856v-0.32h3.666v0.32c-1.057,0-1.265,0.256-1.265,1.856v2.561
		c0,1.602,0.208,1.873,1.265,1.873v0.32h-3.666v-0.32c1.073,0,1.265-0.271,1.265-1.873v-1.184h-3.633v1.184
		c0,1.602,0.191,1.873,1.264,1.873v0.32h-3.665v-0.32c1.072,0,1.265-0.271,1.265-1.873v-2.561c0-1.601-0.192-1.856-1.265-1.856
		v-0.32h3.665v0.32c-1.072,0-1.264,0.256-1.264,1.856v0.784H209.726z"/>
	<path d="M219.325,98.602l0.08-0.32h0.32l-0.128,1.937h-5.986v-0.32c1.072,0,1.265-0.271,1.265-1.873v-2.561
		c0-1.601-0.192-1.856-1.265-1.856v-0.32h3.537h2.065l0.128,1.921h-0.336l-0.08-0.32c-0.177-0.736-0.385-1.024-1.841-1.024h-1.072
		v2.385h0.096c1.601,0,1.729-0.192,1.729-1.265h0.32v3.121h-0.32c0-1.056-0.128-1.264-1.729-1.264h-0.096v0.928
		c0,1.601,0.191,1.857,1.264,1.857h0.192C218.926,99.626,219.134,99.354,219.325,98.602z"/>
	<path d="M226.925,98.602l0.08-0.32h0.32l-0.128,1.937h-5.986v-0.32c1.072,0,1.265-0.271,1.265-1.873v-2.561
		c0-1.601-0.192-1.856-1.265-1.856v-0.32h3.537h2.065l0.128,1.921h-0.336l-0.08-0.32c-0.177-0.736-0.385-1.024-1.841-1.024h-1.072
		v2.385h0.096c1.601,0,1.729-0.192,1.729-1.265h0.32v3.121h-0.32c0-1.056-0.128-1.264-1.729-1.264h-0.096v0.928
		c0,1.601,0.191,1.857,1.264,1.857h0.192C226.525,99.626,226.733,99.354,226.925,98.602z"/>
	<path d="M231.451,100.49c-0.832,0-1.504-0.4-1.792-0.593c-0.097,0.112-0.257,0.32-0.305,0.593h-0.288v-2.754h0.32
		c0.128,1.361,0.992,2.129,2.193,2.129c0.688,0,1.232-0.384,1.232-1.072c0-0.56-0.448-0.992-1.312-1.425l-1.089-0.56
		c-0.769-0.4-1.328-1.057-1.328-1.953c0-1.008,0.848-1.824,2-1.824c0.673,0,1.185,0.239,1.521,0.479
		c0.079-0.096,0.208-0.24,0.239-0.496h0.32v2.705h-0.32c-0.096-0.96-0.527-2.097-1.681-2.097c-0.624,0-1.152,0.336-1.152,0.929
		c0,0.56,0.416,0.864,1.393,1.376l1.072,0.561c0.913,0.464,1.249,1.185,1.249,1.809C233.725,99.609,232.684,100.49,231.451,100.49z"
		/>
	<path d="M240.893,98.602l0.08-0.32h0.32l-0.128,1.937h-5.986v-0.32c1.072,0,1.265-0.271,1.265-1.873v-2.561
		c0-1.601-0.192-1.856-1.265-1.856v-0.32h3.537h2.065l0.128,1.921h-0.336l-0.08-0.32c-0.177-0.736-0.385-1.024-1.841-1.024h-1.072
		v2.385h0.096c1.601,0,1.729-0.192,1.729-1.265h0.32v3.121h-0.32c0-1.056-0.128-1.264-1.729-1.264h-0.096v0.928
		c0,1.601,0.191,1.857,1.264,1.857h0.192C240.493,99.626,240.701,99.354,240.893,98.602z"/>
	<path d="M245.419,100.49c-0.832,0-1.504-0.4-1.792-0.593c-0.097,0.112-0.257,0.32-0.305,0.593h-0.288v-2.754h0.32
		c0.128,1.361,0.992,2.129,2.193,2.129c0.688,0,1.232-0.384,1.232-1.072c0-0.56-0.448-0.992-1.312-1.425l-1.089-0.56
		c-0.769-0.4-1.328-1.057-1.328-1.953c0-1.008,0.848-1.824,2-1.824c0.673,0,1.185,0.239,1.521,0.479
		c0.08-0.096,0.208-0.24,0.239-0.496h0.32v2.705h-0.32c-0.096-0.96-0.527-2.097-1.681-2.097c-0.624,0-1.152,0.336-1.152,0.929
		c0,0.56,0.416,0.864,1.393,1.376l1.072,0.561c0.913,0.464,1.249,1.185,1.249,1.809C247.692,99.609,246.652,100.49,245.419,100.49z"
		/>
</g>
</svg>
