<?xml version="1.0" encoding="utf-8"?>
<!-- Generator: Adobe Illustrator 16.0.0, SVG Export Plug-In . SVG Version: 6.00 Build 0)  -->
<!DOCTYPE svg PUBLIC "-//W3C//DTD SVG 1.1//EN" "http://www.w3.org/Graphics/SVG/1.1/DTD/svg11.dtd">
<svg version="1.1" id="Layer_1" xmlns="http://www.w3.org/2000/svg" xmlns:xlink="http://www.w3.org/1999/xlink" x="0px" y="0px"
	 width="206.988px" height="46.803px" viewBox="0 0 206.988 46.803" enable-background="new 0 0 206.988 46.803"
	 xml:space="preserve">
<g>
	<path fill="#033B3C" d="M24.05,13.648c-1.488-1.776-3.648-2.784-6.433-2.784c-5.665,0-9.841,4.608-9.841,10.945
		c0,6.337,4.176,10.946,9.601,10.946c3.024,0,5.472-1.346,7.008-3.648l6.241,4.656c-2.832,4.031-7.633,5.904-12.289,5.904
		C7.729,39.667,0,32.707,0,21.809C0,10.912,7.729,3.952,18.338,3.952c3.792,0,8.593,1.296,11.473,4.992L24.05,13.648z"/>
	<path fill="#033B3C" d="M50.306,4.049c6.816,0,11.664,4.896,11.664,11.665c0,6.768-4.848,11.665-11.664,11.665
		c-6.817,0-11.666-4.896-11.666-11.665C38.64,8.945,43.488,4.049,50.306,4.049z M50.306,24.787c5.424,0,8.784-4.081,8.784-9.073
		c0-4.992-3.36-9.072-8.784-9.072c-5.425,0-8.785,4.08-8.785,9.072C41.521,20.706,44.881,24.787,50.306,24.787z"/>
	<path fill="#033B3C" d="M72.24,46.802V12.144h5.521l7.248,19.827h0.097V12.144h5.376v34.659h-5.184l-7.586-21.648h-0.096v21.648
		H72.24z"/>
	<path fill="#033B3C" d="M128.546,6.481h-1.008l-0.24-0.961c-0.672-2.544-1.151-3.648-5.568-3.648h-6.288v20.307
		c0,4.799,0.624,5.615,4.608,5.615v1.008h-13.01v-1.008c3.984,0,4.608-0.816,4.608-5.615V1.872h-6.288
		c-4.416,0-4.896,1.104-5.568,3.648l-0.24,0.961h-1.008L98.976,0h29.139L128.546,6.481z"/>
	<path fill="#033B3C" d="M140.064,38.802h-5.761l6.385-34.659h7.393l6.385,34.659h-5.761l-1.057-7.68h-6.528L140.064,38.802z
		 M141.984,25.937h4.8l-2.352-14.881h-0.096L141.984,25.937z"/>
	<path fill="#033B3C" d="M174.148,39.253c-7.68,0-13.08-4.41-13.08-12.449c0-8.011,6.21-12.42,13.08-12.42
		c2.729,0,5.76,0.96,7.859,2.311l1.29-1.381h0.271v8.161h-0.391c-0.75-4.501-4.17-8.43-9.029-8.43c-5.76,0-8.729,6.75-8.729,11.76
		c0,4.979,2.939,11.758,8.729,11.758c4.8,0,8.279-3.449,9.119-8.068h0.42v7.83h-0.329l-1.261-1.381
		C179.818,38.472,176.908,39.253,174.148,39.253z"/>
	<path fill="#033B3C" d="M195.275,9.328h-5.761V4.144h17.474v5.185h-5.761v29.474h-5.952V9.328z"/>
</g>
</svg>
