<?xml version="1.0" encoding="utf-8"?>
<!-- Generator: Adobe Illustrator 16.0.0, SVG Export Plug-In . SVG Version: 6.00 Build 0)  -->
<!DOCTYPE svg PUBLIC "-//W3C//DTD SVG 1.1//EN" "http://www.w3.org/Graphics/SVG/1.1/DTD/svg11.dtd">
<svg version="1.1" id="Layer_1" xmlns="http://www.w3.org/2000/svg" xmlns:xlink="http://www.w3.org/1999/xlink" x="0px" y="0px"
	 width="785px" height="66.5px" viewBox="0 0 785 66.5" enable-background="new 0 0 785 66.5" xml:space="preserve">
<g>
	<path fill="#003B3B" d="M291.732,34.762c0,18.379-14.393,18.933-20.206,19.099c-5.093,0-10.352,0-15.224,0
		c0-0.222-0.055-0.72-0.055-0.997c1.771,0,3.487,0,4.705,0c0-2.934,0-35.541,0-37.09c-1.328,0-3.044,0-4.65,0
		c0-0.831,0-0.498,0-0.997c4.54,0,10.131,0,14.449,0c3.211,0,5.702,0.111,7.695,0.333C283.649,15.774,291.732,20.812,291.732,34.762
		z M262.004,52.864c0.664,0,1.938,0,2.768,0c0-11.902,0-25.41,0-37.09c-1.107,0-1.827,0-2.768,0
		C262.004,16.937,262.004,51.923,262.004,52.864z M267.872,52.864c2.879,0,6.754,0.333,9.411-0.498
		c8.083-2.491,7.142-14.726,7.142-19.209c0-1.771,1.107-12.788-5.536-16.386c-2.104-1.163-7.031-0.997-11.017-0.997
		C267.872,17.988,267.872,40.962,267.872,52.864z M285.144,33.434c0,7.861,0.277,13.12-4.041,17.825
		c7.806-4.982,7.252-11.847,7.252-17.161c0-5.204-0.886-13.341-6.754-16.829C285.919,22.528,285.144,29.171,285.144,33.434z"/>
</g>
<g>
	<path fill="#003B3B" d="M323.397,34.708c-2.602,3.875-6.532,5.48-11.072,5.48c-7.806,0-12.954-5.591-12.954-13.507
		c0-7.64,5.314-13.397,12.788-13.397c7.861,0,12.013,6.034,12.013,11.958v2.325h-21.479c0,2.768,1.938,9.632,9.688,9.632
		c3.377,0,6.92-1.771,8.581-4.539L323.397,34.708z M320.851,24.578c0-4.54-3.931-8.304-8.857-8.304c-7.252,0-9.3,6.976-9.3,8.304
		H320.851z"/>
</g>
<g>
	<path fill="#003B3B" d="M345.594,26.182c-0.443-2.38-1.55-3.709-3.543-3.709c-1.605,0-2.713,0.831-2.713,2.38
		c0,4.65,11.625,6.532,11.625,15.39c0,5.314-3.654,8.027-8.691,8.027c-5.425,0-8.525-3.1-9.466-8.304l5.425-1.495
		c0.388,2.491,1.273,4.706,4.097,4.706c1.605,0,2.768-0.941,2.768-2.602c0-5.148-11.625-7.086-11.625-15.224
		c0-4.705,3.653-7.972,8.304-7.972c4.872,0,8.138,3.267,9.079,7.917L345.594,26.182z"/>
</g>
<g>
	<path fill="#003B3B" d="M383.459,15.386c0,0.056,0.886,0,0.886,0.166c0,3.156,0.056,6.533,0.056,9.633
		c0,0.166-0.554,0.055-0.72,0.055c-1.273-2.159-2.934-4.872-4.982-6.864c-1.716-1.716-3.709-2.824-5.646-2.824
		c-2.546,0-4.871,1.107-6.422,3.377c-1.052,1.384-1.052,4.042-0.664,5.924c1.55,3.709,4.65,4.096,8.304,4.65
		c3.765,0.498,8.304,0.831,10.906,5.591c1.882,3.321,2.158,7.972,0.554,11.293c-1.661,3.931-5.592,6.92-9.577,7.308
		c-3.82,0.332-6.92,0.166-9.633-2.104c-1.55,0.11-4.595,2.657-4.595,1.605c0-3.488,0-6.976,0-10.519c0-0.332,0.941-0.166,1.218-0.11
		c2.657,4.373,5.536,10.961,11.681,10.462c3.487-0.332,6.478-1.882,7.75-5.148c0.997-2.491,0.443-5.868-0.83-8.027
		c-5.038-5.702-13.896-1.273-18.435-9.521c-2.048-3.709-0.941-8.747,1.605-11.958c1.771-2.159,5.646-3.709,9.135-3.709
		c3.487-0.055,6.255,2.048,6.919,1.993C382.187,16.604,382.241,15.608,383.459,15.386z M362.977,46.609c0,1.661,0,3.709,0,5.314
		c0,0.554,1.716-0.665,2.547-1.218c0,0-0.775-1.052-1.219-1.716C363.807,48.159,362.977,46.609,362.977,46.609z M363.253,27.178
		c0.886,5.591,5.592,7.584,10.187,8.193c3.709,0.498,5.536,0.775,8.027,2.823c2.768,2.546,2.934,7.086,1.826,10.352
		c1.938-2.27,1.993-6.034,1.439-8.968c-2.657-9.632-14.56-4.263-19.597-11.016c-1.55-2.104-1.163-7.418,0.886-10.297
		C363.862,20.646,362.755,23.69,363.253,27.178z M376.982,15.829c0.664,0.665,2.27,1.993,3.155,3.045
		c1.273,1.495,2.215,2.934,2.215,2.934c0-1.716-0.056-2.934-0.111-4.208c-0.055-1.052-0.83-0.166-1.328-0.166
		C380.359,17.435,379.529,16.826,376.982,15.829z"/>
</g>
<g>
	<path fill="#003B3B" d="M400.954,4.426h26.627v7.972H409.59v7.308h16.995v7.972H409.59v7.972h18.988v7.972h-27.624V4.426z"/>
</g>
<g>
	<path fill="#003B3B" d="M492.151,64.203l-0.043-0.086c-4.478,0-9.372-1.794-14.683-5.382c-5.281-3.56-9.501-8.023-12.658-13.391
		c-1.092-1.923-1.995-3.746-2.713-5.468c-0.373-0.889-0.746-1.765-1.119-2.626c-0.373-0.861-0.761-1.722-1.163-2.583l-0.215-1.292
		l-0.172-0.689l-0.302-1.033l-0.517-1.507l-3.229-0.818l-5.037,13.046l-0.216,2.497l0.216,0.517l1.291,0.732l2.239,0.302
		l0.732,0.387l-0.518,0.861h-2.152l-13.348,0.172l-1.507,0.215l0.517-1.249h0.99l1.249-0.129l1.507-0.56l2.282-2.023
		c1.004-2.354,1.973-4.7,2.906-7.04c0.932-2.339,1.829-4.671,2.69-6.997s1.723-4.65,2.584-6.975c0.86-2.325,1.736-4.635,2.626-6.932
		l0.775-3.057l-0.302-0.689l-1.722-1.292l-3.531-0.215l-1.722,0.215l-0.99,0.344l-4.564,2.024l-4.004,3.875l-0.216,2.842
		l0.216,0.775l1.507,1.206h2.023l1.766,0.517l0.258,0.431v0.861l-1.55,2.153l-0.99,0.301l-1.723,0.215l-0.731-0.215l-2.282-1.593
		l-0.732-1.722l-0.258-0.947v-2.799c0.517-2.009,1.822-3.86,3.918-5.554c2.124-1.722,3.976-2.798,5.555-3.229l1.507-0.345
		l0.731-0.387l0.99-0.129l1.508-0.388l1.808-0.172l2.239-0.215c0.804-0.057,1.607-0.086,2.411-0.086s1.607,0,2.411,0
		c0.89,0,1.772,0,2.648,0c0.875,0,1.743,0.029,2.604,0.086c3.358,0.172,6.76,1.55,10.205,4.133l1.464,1.55l0.774,1.292l0.216,1.249
		l0.301,1.464c0,0.115,0.007,0.23,0.021,0.345c0.015,0.115,0.021,0.23,0.021,0.344c0,0.661-0.071,1.321-0.215,1.981
		c-0.144,0.661-0.345,1.363-0.603,2.109c-0.661,1.694-1.838,3.201-3.531,4.521l-4.004,1.723l-0.99,0.215l-1.206,0.302l-1.593,0.215
		l-0.215,1.421c0.975,3.33,2.296,6.731,3.961,10.204c1.607,3.33,4.047,6.697,7.319,10.104c3.789,4.064,7.606,6.984,11.453,8.759
		c2.812,1.202,5.654,1.804,8.525,1.804l2.497-1.077h0.517l1.507-2.023v-1.722l-0.99-1.464l0.99-1.765l0.474-0.344l0.517-0.172h1.292
		l2.282,1.421l0.172,1.033l0.216,1.464l-0.216,0.904c-0.488,1.09-1.263,2.038-2.325,2.842c-1.062,0.81-2.023,1.348-2.885,1.615
		l-1.291,0.266l-0.732,0.267l-1.98,0.264H492.151z M459.429,28.595h0.043h1.938l2.195-0.172l4.048-1.55l2.54-2.713
		c1.263-1.952,1.895-4.004,1.895-6.157c0-0.287-0.015-0.596-0.043-0.926c-0.029-0.33-0.072-0.653-0.129-0.969l-0.302-0.947
		l-0.731-1.722l-3.531-2.583h-3.229l-1.938,0.99c-1.607,2.612-2.827,5.268-3.659,7.965c-0.833,2.699-1.78,5.44-2.842,8.224
		L459.429,28.595z"/>
</g>
<g>
	<path fill="#003B3B" d="M524.045,2.377c-0.055,3.488,0.332,8.691,0.332,12.234c-0.442,0-1.162,0.111-1.162-0.111
		c0-2.048-1.993-5.702-4.097-7.861c-2.381-2.436-4.484-3.266-5.646-3.266c-1.329,0-1.273,0-2.104,0c0,5.48,0,31.555,0,37.09
		c4.097,0,4.982,0,4.982,0v0.997c0,0-11.294,0.055-16.387,0.055c0-0.221,0-0.83,0-1.052c1.605,0,3.155,0,4.54,0
		c0-1.55,0-36.537,0-37.09c-0.499,0-5.038,0-7.973,3.432c-2.49,2.934-3.376,4.484-4.041,7.861h-0.774c0,0,0.498-11.348,0.498-12.29
		C499.078,2.377,520.447,2.377,524.045,2.377z M492.988,3.429l-0.498,5.757c0,0,1.218-1.771,1.993-2.823
		c1.107-1.439,3.599-2.878,3.599-2.878L492.988,3.429z M505.556,3.374c0,8.027,0,25.41,0,37.09c0.83,0,2.214,0,2.878,0
		c0-12.179,0-36.26,0-37.09C507.548,3.374,505.942,3.374,505.556,3.374z M519.728,5.976c0.83,0.719,1.826,2.657,2.436,3.21
		c0-0.941-0.388-4.539-0.388-5.591c-1.938,0-4.152-0.056-4.982-0.056C517.291,3.982,519.174,5.311,519.728,5.976z"/>
</g>
<g>
	<line fill="none" stroke="#003B3B" stroke-miterlimit="10" x1="8.938" y1="31.529" x2="228.212" y2="31.529"/>
	<circle fill="none" stroke="#003B3B" stroke-miterlimit="10" cx="5.825" cy="31.528" r="3.112"/>
</g>
<g>
	<line fill="none" stroke="#003B3B" stroke-miterlimit="10" x1="775.774" y1="31.529" x2="556.5" y2="31.529"/>
	<circle fill="none" stroke="#003B3B" stroke-miterlimit="10" cx="778.888" cy="31.528" r="3.112"/>
</g>
</svg>
