<?xml version="1.0" encoding="utf-8"?>
<!-- Generator: Adobe Illustrator 16.0.0, SVG Export Plug-In . SVG Version: 6.00 Build 0)  -->
<!DOCTYPE svg PUBLIC "-//W3C//DTD SVG 1.1//EN" "http://www.w3.org/Graphics/SVG/1.1/DTD/svg11.dtd">
<svg version="1.1" id="Layer_1" xmlns="http://www.w3.org/2000/svg" xmlns:xlink="http://www.w3.org/1999/xlink" x="0px" y="0px"
	 width="799.333px" height="50.605px" viewBox="0 0 799.333 50.605" enable-background="new 0 0 799.333 50.605"
	 xml:space="preserve">
<g>
	<g>
		<path fill="#52463F" d="M231.967,32.537c-2.206,3.287-5.539,4.648-9.388,4.648c-6.62,0-10.985-4.744-10.985-11.456
			c0-6.478,4.507-11.36,10.844-11.36c6.666,0,10.187,5.119,10.187,10.142v1.972h-18.213c0,2.348,1.643,8.167,8.214,8.167
			c2.863,0,5.868-1.501,7.277-3.849L231.967,32.537z M229.808,23.947c0-3.852-3.333-7.042-7.511-7.042
			c-6.149,0-7.886,5.915-7.886,7.042H229.808z"/>
	</g>
	<g>
		<path fill="#52463F" d="M245.74,39.957l-0.035,0.069l-3.2-0.833c-0.626-0.232-1.183-0.58-1.669-1.043
			c-0.439-0.42-0.869-0.906-1.286-1.462l-0.626-1.46l-0.139-0.626c0-0.163-0.013-0.313-0.034-0.452
			c-0.023-0.141-0.035-0.291-0.035-0.451c0-0.998,0.243-2.052,0.729-3.164c0.673-1.506,1.773-2.679,3.304-3.512l1.217-0.627
			l0.765-0.139l0.418-0.174l1.043-0.14h2.018l0.938,0.313l2.018,1.599l0.208,0.767l0.07,0.693v1.182l-0.07,0.42l-1.704,2.119
			l-0.834,0.312l-0.903,0.07h-0.904l-0.418-0.07l-1.043-0.939l-0.139-0.276v-0.905l0.903-1.286l0.278-0.173l0.312-0.141h0.243
			l1.045,0.732l0.625,0.137l0.417-0.137l0.592-0.592l0.139-1.077l-0.313-0.696l-0.139-0.279l-1.008-0.693l-1.601-0.313l-1.043,0.067
			l-0.626,0.246l-1.459,0.693l-0.767,0.593c-0.347,0.347-0.659,0.693-0.938,1.042c-0.14,0.164-0.278,0.342-0.418,0.539
			c-0.139,0.196-0.267,0.411-0.382,0.645l-0.278,0.939l-0.175,2.745l0.175,0.626l0.557,1.146c0.439,0.649,0.996,1.206,1.669,1.669
			c0.672,0.466,1.239,0.743,1.703,0.836c1.021,0.323,1.889,0.499,2.608,0.521c0.37,0.023,0.747,0.041,1.129,0.055
			c0.383,0.01,0.771,0.015,1.166,0.015l1.321-0.138l0.591-0.139c1.529-0.233,3.071-1.184,4.624-2.852
			c1.576-1.693,2.4-3.269,2.469-4.73l0.14-2.536l-0.14-1.149l-0.138-0.52l-0.209-0.627c-0.487-1.809-1.334-3.58-2.538-5.32
			c-1.229-1.785-2.099-3.594-2.608-5.424l-0.139-2.435l0.312-0.835c0.255-0.811,0.812-1.576,1.669-2.293
			c0.858-0.72,1.623-1.173,2.296-1.356l0.765-0.069l0.696-0.141c0.255,0,0.498-0.013,0.729-0.035
			c0.231-0.021,0.463-0.034,0.696-0.034c0.37,0,0.747,0.013,1.129,0.034c0.383,0.022,0.76,0.059,1.131,0.105
			c1.229,0.14,2.48,0.833,3.755,2.086l0.835,1.912l0.14,1.772l-0.14,0.419l-0.105,0.451l-1.216,1.599l-0.975,0.489l-1.391,0.137
			l-0.417-0.137l-1.46-1.219l-0.174-0.244v-1.076l0.592-1.045l0.729-0.311l0.451-0.106l0.904,0.557v0.313l0.765,0.452l0.383-0.14
			l0.452-0.766v-1.459c-0.068-0.44-0.347-0.916-0.835-1.426c-0.51-0.533-0.973-0.917-1.391-1.146
			c-0.603-0.233-1.182-0.35-1.737-0.35c-0.395,0-0.701,0-0.923,0c-0.22,0-0.423-0.021-0.608-0.068l-0.694,0.138
			c-0.72,0.187-1.484,0.673-2.296,1.462l-0.765,1.356l-0.174,0.833l0.174,1.079l0.139,0.59c0.533,1.346,1.171,2.599,1.912,3.755
			c0.788,1.252,1.449,2.481,1.982,3.688v0.383l0.975,2.119l0.173,0.557l0.14,0.593l0.139,0.763l-0.139,4.521
			c-0.325,1.112-0.882,2.225-1.669,3.338c-0.812,1.137-1.785,2.099-2.921,2.885c-0.743,0.49-1.473,0.883-2.19,1.184
			c-0.325,0.139-0.661,0.279-1.008,0.418c-0.349,0.138-0.708,0.291-1.079,0.451l-0.73,0.14l-0.765,0.104l-0.695,0.21l-1.217,0.104
			l-3.513,0.209L245.74,39.957z"/>
	</g>
	<g>
		<path fill="#52463F" d="M286.409,47.945c0,0,0,0.518,0,0.846c-4.318,0-9.529,0-13.707,0c0-0.189-0.048-0.611-0.048-0.846
			c1.502,0,2.958,0,3.99,0c0-2.487,0-30.137,0-31.451c-1.127,0-2.581,0-3.942,0c0-0.704,0-0.422,0-0.844c3.85,0,9.858,0,9.858,0
			s3.473,0.047,7.182,0.047c3.755,0,9.951,1.547,9.951,8.92c0,6.945-7.511,8.166-12.298,8.166c-1.784,0-2.958,0-4.835,0v15.258
			L286.409,47.945z M277.584,47.945c0.562,0,1.644,0,2.301,0c0-10.092,0-21.545,0-31.451c-0.893,0-1.55,0-2.301,0
			C277.584,17.48,277.584,47.148,277.584,47.945z M289.836,16.494c-2.582,0-3.942,0-7.275,0c0,1.879,0,15.725,0,15.725
			s2.394,0,5.772,0c4.742,0,5.963-5.49,5.963-7.602C294.296,21.517,293.122,16.494,289.836,16.494z M294.953,24.521
			c-0.047,3.146-0.752,4.836-3.24,7.275c4.179-1.221,5.399-3.004,5.587-7.18c0.188-4.93-2.91-7.605-5.821-8.405
			C293.826,17.48,294.999,21.095,294.953,24.521z"/>
	</g>
	<g>
		<path fill="#52463F" d="M308.566,43.58h-5.821V9.686h8.169c6.524,0,9.857,2.771,9.857,9.999c0,5.447-2.113,7.651-4.085,8.544
			l4.93,15.352h-5.915l-4.13-14.037c-0.752,0.094-1.973,0.141-3.005,0.141V43.58z M308.566,24.896h2.065
			c3.146,0,4.318-1.172,4.318-5.212c0-4.036-1.173-5.209-4.318-5.209h-2.065V24.896z"/>
	</g>
	<g>
		<path fill="#52463F" d="M330.581,3.395h22.579v6.762h-15.256v6.195h14.411v6.762h-14.411v6.76h16.101v6.758h-23.424V3.395z"/>
	</g>
	<g>
		<path fill="#52463F" d="M379.637,16.166c0,0.046,0.75,0,0.75,0.142c0,2.676,0.047,5.538,0.047,8.167
			c0,0.143-0.469,0.047-0.609,0.047c-1.081-1.83-2.488-4.131-4.226-5.82c-1.455-1.457-3.145-2.394-4.787-2.394
			c-2.16,0-4.132,0.937-5.446,2.862c-0.892,1.174-0.892,3.428-0.562,5.022c1.314,3.146,3.942,3.476,7.041,3.944
			c3.191,0.421,7.041,0.703,9.247,4.74c1.597,2.818,1.831,6.762,0.47,9.576c-1.408,3.334-4.741,5.869-8.122,6.198
			c-3.238,0.279-5.867,0.14-8.168-1.786c-1.312,0.096-3.896,2.254-3.896,1.361c0-2.957,0-5.912,0-8.917
			c0-0.282,0.798-0.142,1.032-0.096c2.254,3.708,4.694,9.295,9.906,8.873c2.956-0.282,5.492-1.597,6.571-4.365
			c0.845-2.114,0.375-4.976-0.704-6.808c-4.272-4.834-11.783-1.08-15.632-8.074c-1.736-3.145-0.799-7.416,1.361-10.139
			c1.502-1.832,4.788-3.146,7.746-3.146c2.956-0.047,5.305,1.738,5.867,1.689C378.556,17.197,378.603,16.354,379.637,16.166z
			 M362.267,42.643c0,1.408,0,3.145,0,4.506c0,0.468,1.455-0.564,2.159-1.033c0,0-0.656-0.893-1.032-1.454
			C362.972,43.957,362.267,42.643,362.267,42.643z M362.502,26.164c0.75,4.74,4.74,6.431,8.638,6.948
			c3.145,0.421,4.694,0.657,6.806,2.394c2.347,2.16,2.488,6.008,1.55,8.779c1.644-1.925,1.69-5.117,1.221-7.604
			c-2.253-8.169-12.347-3.615-16.618-9.342c-1.313-1.786-0.985-6.29,0.751-8.731C363.019,20.627,362.079,23.207,362.502,26.164z
			 M374.144,16.541c0.563,0.563,1.925,1.689,2.676,2.582c1.079,1.268,1.878,2.489,1.878,2.489c0-1.456-0.047-2.489-0.095-3.568
			c-0.047-0.893-0.704-0.142-1.126-0.142C377.007,17.902,376.304,17.387,374.144,16.541z"/>
	</g>
	<g>
		<path fill="#52463F" d="M402.921,25.318c-0.377-2.02-1.315-3.145-3.005-3.145c-1.362,0-2.301,0.704-2.301,2.019
			c0,3.944,9.858,5.54,9.858,13.05c0,4.508-3.099,6.806-7.37,6.806c-4.601,0-7.229-2.626-8.026-7.042l4.6-1.265
			c0.328,2.112,1.08,3.987,3.474,3.987c1.361,0,2.347-0.797,2.347-2.205c0-4.365-9.857-6.008-9.857-12.909
			c0-3.99,3.099-6.759,7.041-6.759c4.131,0,6.9,2.769,7.698,6.712L402.921,25.318z"/>
	</g>
	<g>
		<path fill="#52463F" d="M432.116,6.027c10.377,0,17.933,6.805,17.933,17.461s-7.556,17.465-17.933,17.465
			c-10.371,0-17.93-6.809-17.93-17.465S421.745,6.027,432.116,6.027z M432.116,34.191c6.244,0,10.33-4.506,10.33-10.703
			c0-6.195-4.086-10.703-10.33-10.703c-6.241,0-10.325,4.508-10.325,10.703C421.791,29.686,425.875,34.191,432.116,34.191z"/>
	</g>
	<g>
		<path fill="#52463F" d="M475.398,6.213h8.638c6.241,0,9.013,3.193,9.013,8.967c0,2.91-1.222,5.962-4.039,7.09
			c2.96,1.314,4.696,3.662,4.696,8.027c0,5.584-2.486,9.811-9.106,9.811h-9.201V6.213z M481.221,20.109h2.111
			c2.205,0,3.897-1.502,3.897-4.319c0-3.144-1.222-4.787-3.805-4.787h-2.204V20.109z M481.221,35.319h2.438
			c3.1,0,4.229-1.786,4.229-5.212c0-3.473-1.314-5.211-4.79-5.211h-1.876V35.319z"/>
	</g>
	<g>
		<path fill="#52463F" d="M510.839,15.555h6.056l14.46,33.236h-8.265l-2.862-7.041H507.32l-2.771,7.041h-8.074L510.839,15.555z
			 M513.654,25.225l-4.036,10.328h8.12L513.654,25.225z"/>
	</g>
	<g>
		<path fill="#52463F" d="M579.675,50.605l-0.036-0.072c-3.797,0-7.947-1.522-12.449-4.565c-4.482-3.017-8.059-6.804-10.734-11.354
			c-0.926-1.631-1.692-3.178-2.303-4.637c-0.315-0.754-0.632-1.496-0.947-2.229c-0.315-0.73-0.646-1.459-0.988-2.189l-0.182-1.095
			l-0.145-0.585l-0.256-0.877l-0.438-1.278l-2.738-0.693l-4.274,11.062l-0.182,2.119l0.182,0.438l1.097,0.62l1.899,0.257
			l0.621,0.329l-0.439,0.729h-1.827l-11.316,0.146l-1.278,0.184l0.438-1.059h0.841l1.059-0.111l1.278-0.475l1.936-1.715
			c0.852-1.995,1.672-3.984,2.464-5.97s1.553-3.962,2.282-5.934s1.459-3.944,2.189-5.915c0.729-1.97,1.475-3.929,2.228-5.877
			l0.657-2.594l-0.256-0.584l-1.46-1.095l-2.993-0.181l-1.463,0.181l-0.838,0.292l-3.871,1.716l-3.396,3.286l-0.181,2.41
			l0.181,0.656l1.278,1.022h1.716l1.498,0.44l0.218,0.364v0.729l-1.314,1.824l-0.839,0.257l-1.459,0.184l-0.621-0.184l-1.936-1.351
			l-0.621-1.46l-0.218-0.805v-2.373c0.435-1.702,1.542-3.273,3.323-4.71c1.801-1.459,3.369-2.373,4.709-2.737l1.278-0.292
			l0.618-0.329l0.842-0.108l1.278-0.328l1.531-0.148l1.899-0.182c0.681-0.049,1.361-0.074,2.045-0.074c0.681,0,1.361,0,2.044,0
			c0.756,0,1.501,0,2.246,0c0.74,0,1.478,0.025,2.21,0.074c2.847,0.146,5.729,1.315,8.65,3.504l1.242,1.314l0.657,1.096l0.184,1.061
			l0.254,1.24c0,0.098,0.005,0.195,0.021,0.291c0.011,0.1,0.016,0.197,0.016,0.293c0,0.559-0.062,1.121-0.181,1.68
			c-0.124,0.559-0.293,1.156-0.513,1.788c-0.559,1.437-1.558,2.714-2.991,3.835l-3.397,1.459l-0.842,0.184l-1.02,0.257l-1.351,0.181
			l-0.184,1.206c0.825,2.823,1.948,5.708,3.359,8.653c1.363,2.823,3.434,5.678,6.207,8.568c3.212,3.446,6.449,5.92,9.71,7.426
			c2.386,1.02,4.797,1.529,7.229,1.529l2.117-0.913h0.439l1.278-1.716v-1.459l-0.841-1.242l0.841-1.496l0.401-0.292l0.438-0.147
			h1.097l1.936,1.205l0.145,0.878l0.182,1.239l-0.182,0.769c-0.413,0.924-1.07,1.726-1.972,2.409
			c-0.9,0.686-1.718,1.145-2.447,1.369l-1.093,0.225l-0.621,0.226l-1.682,0.226H579.675z M551.927,20.409h0.036h1.644l1.86-0.146
			l3.432-1.314l2.155-2.3c1.071-1.653,1.606-3.396,1.606-5.22c0-0.243-0.013-0.508-0.036-0.787c-0.025-0.279-0.062-0.553-0.108-0.82
			l-0.256-0.805l-0.621-1.459l-2.994-2.191h-2.738l-1.643,0.841c-1.364,2.215-2.399,4.466-3.103,6.754
			c-0.709,2.288-1.512,4.614-2.412,6.974L551.927,20.409z"/>
	</g>
</g>
<g>
	<line fill="none" stroke="#52463F" stroke-miterlimit="10" x1="13.446" y1="24.311" x2="166.333" y2="24.311"/>
	<circle fill="none" stroke="#52463F" stroke-miterlimit="10" cx="10.333" cy="24.311" r="3.113"/>
</g>
<g>
	<line fill="none" stroke="#52463F" stroke-miterlimit="10" x1="634.333" y1="24.311" x2="790.333" y2="24.311"/>
	<circle fill="none" stroke="#52463F" stroke-miterlimit="10" cx="793.878" cy="24.311" r="3.113"/>
</g>
</svg>
