<?xml version="1.0" encoding="utf-8"?>
<!-- Generator: Adobe Illustrator 16.0.0, SVG Export Plug-In . SVG Version: 6.00 Build 0)  -->
<!DOCTYPE svg PUBLIC "-//W3C//DTD SVG 1.1//EN" "http://www.w3.org/Graphics/SVG/1.1/DTD/svg11.dtd">
<svg version="1.1" id="Layer_1" xmlns="http://www.w3.org/2000/svg" xmlns:xlink="http://www.w3.org/1999/xlink" x="0px" y="0px"
	 width="41.728px" height="20.563px" viewBox="1.302 1.053 41.728 20.563" enable-background="new 1.302 1.053 41.728 20.563"
	 xml:space="preserve">
<path fill="#AAC0B9" d="M20.729,1.053H2.437c-0.627,0-1.135,0.508-1.135,1.135V20.48c0,0.627,0.508,1.136,1.135,1.136h9.848v-7.963
	h-2.68v-3.104h2.68V8.26c0-2.656,1.622-4.102,3.99-4.102c1.136,0,2.111,0.084,2.396,0.123v2.775l-1.644,0.001
	c-1.289,0-1.537,0.612-1.537,1.511v1.981h3.072l-0.4,3.104H15.49v7.963h5.238c0.627,0,1.135-0.509,1.135-1.136V2.188
	C21.863,1.561,21.355,1.053,20.729,1.053z"/>
<path fill="#ED1C24" d="M41.895,1.053H23.604c-0.627,0-1.136,0.508-1.136,1.135V20.48c0,0.627,0.509,1.136,1.136,1.136h9.848v-7.963
	h-2.68v-3.104h2.68V8.26c0-2.656,1.622-4.102,3.99-4.102c1.136,0,2.111,0.084,2.396,0.123v2.775l-1.644,0.001
	c-1.289,0-1.537,0.612-1.537,1.511v1.981h3.072l-0.4,3.104h-2.672v7.963h5.238c0.627,0,1.135-0.509,1.135-1.136V2.188
	C43.029,1.561,42.521,1.053,41.895,1.053z"/>
</svg>
