<?xml version="1.0" encoding="utf-8"?>
<!-- Generator: Adobe Illustrator 16.0.0, SVG Export Plug-In . SVG Version: 6.00 Build 0)  -->
<!DOCTYPE svg PUBLIC "-//W3C//DTD SVG 1.1//EN" "http://www.w3.org/Graphics/SVG/1.1/DTD/svg11.dtd">
<svg version="1.1" id="Layer_1" xmlns="http://www.w3.org/2000/svg" xmlns:xlink="http://www.w3.org/1999/xlink" x="0px" y="0px"
	 width="202.301px" height="60.172px" viewBox="0 0 202.301 60.172" enable-background="new 0 0 202.301 60.172"
	 xml:space="preserve">
<g>
	<path fill="#AAC0B9" d="M8.718,59.425v0.047H7.566L3.39,57.457l-1.008-1.008l-0.576-1.152L1.518,54.72v-1.871l0.288-0.912
		l1.392-1.68l0.576-0.289h1.632l1.392,1.104l0.336,0.625l-0.912,3.6l0.336,0.816l0.24,0.527l1.344,1.152l4.224,0.24l2.592-1.008
		c0.736-0.416,1.456-1.072,2.16-1.969c0.704-0.928,1.264-1.68,1.68-2.256c1.76-3.809,3.248-7.535,4.464-11.184
		c-0.641,0.16-1.312,0.4-2.016,0.719c-0.353,0.162-0.712,0.33-1.08,0.506c-0.368,0.176-0.728,0.328-1.08,0.455l-1.44,0.24
		l-2.16,0.287l-5.376-0.287c-1.856-0.447-3.632-1.52-5.328-3.217c-1.728-1.727-2.816-3.439-3.264-5.135l-0.576-1.633l-0.336-1.439
		c-0.064-0.385-0.096-0.775-0.096-1.176s0-0.809,0-1.225c0-4.225,1.04-8.656,3.12-13.296c2.496-5.631,6.736-10.239,12.72-13.823
		l4.176-1.776l1.008-0.24l1.44-0.336l1.2-0.24h7.2l7.248,3.312l0.624-0.336l0.816-0.816h0.816l-4.416,13.729l-0.96-0.576
		l0.384-4.176l-0.384-2.208L35.31,7.776l-0.288-1.008l-1.728-2.592l-2.448-2.208l-0.912-0.288l-4.608-0.288l-1.152,0.288
		c-2.112,0.479-4.08,1.487-5.904,3.023c-0.896,0.769-1.752,1.584-2.568,2.448s-1.577,1.793-2.28,2.784
		c-0.704,0.992-1.344,2-1.92,3.023c-0.576,1.025-1.104,2.064-1.584,3.12c-0.928,2.049-1.568,3.921-1.92,5.616
		c-0.608,1.889-1.008,3.68-1.2,5.375c-0.192,1.633-0.288,3.281-0.288,4.945l0.24,2.016l0.336,1.057
		c0.16,1.023,0.512,1.902,1.056,2.639c0.288,0.385,0.624,0.793,1.008,1.225c0.384,0.432,0.8,0.889,1.248,1.367l1.968,1.201
		L15.918,42l1.776-0.238l1.104-0.24l1.728-0.912l1.632-1.344l3.552-4.705l0.384-0.959l0.576-3.84l-0.336-0.816l-2.016-1.344
		l-2.784-0.434l0.624-1.344l16.704,0.336c0,0.545-0.192,0.881-0.576,1.008l-1.824,0.434l-1.152,0.432
		c-2.72,3.84-4.528,7.84-5.424,12c-0.896,4.16-2.752,8.256-5.568,12.287l-2.784,2.881c-0.768,0.576-1.68,1.248-2.736,2.016
		c-1.024,0.736-2.032,1.184-3.024,1.344l-2.016,0.576l-2.16,0.289l-2.256,0.287L8.718,59.425z"/>
	<path fill="#AAC0B9" d="M50.478,53.681h-5.76l6.384-34.66h7.392l6.385,34.66h-5.76L58.062,46h-6.528L50.478,53.681z M52.398,40.816
		h4.8l-2.352-14.883H54.75L52.398,40.816z"/>
	<path fill="#AAC0B9" d="M68.477,32.671c3.984,0,4.561-0.814,4.561-5.615V11.454c0-4.8-0.576-5.568-4.561-5.568V4.878h12.961v1.008
		c-3.984,0-4.56,0.769-4.56,5.568v14.881c0,4.801,0.575,5.568,4.56,5.568h5.762c4.367,0,4.896-1.104,5.52-3.648l0.24-0.959h1.008
		l-0.384,6.385H68.477V32.671z"/>
	<path fill="#AAC0B9" d="M98.045,43.681V9.021h5.953v29.474h9.359v5.186H98.045z"/>
	<path fill="#AAC0B9" d="M138.75,19.504c-2.256,3.36-5.664,4.753-9.602,4.753c-6.768,0-11.232-4.849-11.232-11.713
		c0-6.625,4.607-11.617,11.09-11.617c6.816,0,10.416,5.232,10.416,10.368v2.017h-18.625c0,2.4,1.68,8.353,8.4,8.353
		c2.928,0,6-1.536,7.439-3.937L138.75,19.504z M136.541,10.72c0-3.937-3.408-7.201-7.68-7.201c-6.289,0-8.064,6.049-8.064,7.201
		H136.541z"/>
	<path fill="#AAC0B9" d="M152.045,53.681h-5.953v-34.66h8.354c6.672,0,10.08,2.832,10.08,10.224c0,5.568-2.16,7.826-4.176,8.738
		l5.041,15.697h-6.049l-4.225-14.354c-0.768,0.096-2.016,0.145-3.072,0.145V53.681z M152.045,34.576h2.113
		c3.215,0,4.416-1.201,4.416-5.33c0-4.127-1.201-5.328-4.416-5.328h-2.113V34.576z"/>
	<path fill="#AAC0B9" d="M178.156,43.009h5.328V29.232l-10.799-19.055h-4.369V9.505h14.688v0.672h-4.799l9.6,16.895l9.072-16.895
		h-4.848V9.505h10.271v0.672h-4.656l-9.359,17.52v15.312h5.328v0.672h-15.457V43.009z"/>
</g>
</svg>
