<?xml version="1.0" encoding="utf-8"?>
<!-- Generator: Adobe Illustrator 17.1.0, SVG Export Plug-In . SVG Version: 6.00 Build 0)  -->
<!DOCTYPE svg PUBLIC "-//W3C//DTD SVG 1.1//EN" "http://www.w3.org/Graphics/SVG/1.1/DTD/svg11.dtd">
<svg version="1.1" id="Layer_1" xmlns="http://www.w3.org/2000/svg" xmlns:xlink="http://www.w3.org/1999/xlink" x="0px" y="0px"
	 viewBox="0 0 792 110" enable-background="new 0 0 792 110" xml:space="preserve">
<rect y="-735.1" fill="none" width="792" height="240.7"/>
<text transform="matrix(1 0 0 1 0 -625.5645)"><tspan x="0" y="0" font-family="'BauerBodoniBT-Titling'" font-size="120" letter-spacing="-71">H</tspan><tspan x="34.1" y="55" font-family="'CaslonInitials'" font-size="99">A</tspan><tspan x="198" y="20" font-family="'TradeGothic-BoldCondTwenty'" font-size="102">P</tspan><tspan x="249" y="0" font-family="'EngraversMT'" font-size="116" letter-spacing="-17">P</tspan><tspan x="329.6" y="40" font-family="'TradeGothic-BoldCondTwenty'" font-size="80">Y</tspan><tspan x="365.1" y="0" font-family="'MyriadPro-Regular'" font-size="120" letter-spacing="41"> </tspan><tspan x="431.9" y="44" font-family="'CaslonInitials'" font-size="120" letter-spacing="-27">H</tspan><tspan x="587.3" y="14" font-family="'Avenir-Light'" font-size="101">o</tspan><tspan x="647.3" y="-8" font-family="'CaslonOpenFace'" font-size="91">U</tspan><tspan x="724.8" y="60" font-family="'TradeGothic-BoldCondTwenty'" font-size="120">R</tspan></text>
<g id="G7oQAa_4_">
	<g>
		<path fill-rule="evenodd" clip-rule="evenodd" fill="#003B3B" d="M20.7,29.9c-0.4-1-1.1-1.4-2-1.4c-1,0-1.6,0.5-1.8,1.4
			c-0.1,0.3-0.3,0.5-0.5,1c-0.5-1.5-1.2-2.4-2.7-2.5c-1.8,0-1.6,1.8-2.7,2.5c-1-0.8-1-2.5-2.7-2.5c-1.7,0-1.9,1.7-2.9,2.7
			c-0.3-0.6-0.6-1-0.8-1.4c-0.5-1.1-1.5-1.5-2.5-1.2C1.4,28.6,1,29.4,0.6,30c-0.2,0.2-0.4,0.4-0.6,0.7c0,0,0,0,0,0
			c0,0.3,0.1,0.7,0.1,1c0.7-0.5,1-1.5,1.6-2.3c0.3,0.6,0.5,1,0.7,1.4c0.5,0.9,1.2,1.4,2.2,1.4c1-0.1,1.5-0.6,1.7-1.6
			c0.1-0.4,0.5-0.7,0.7-1c0.3,0.3,0.7,0.5,0.9,0.9c0.4,1.1,1.2,1.7,2.3,1.7c1.1,0,1.6-0.8,2-1.7c0.1-0.3,0.5-0.6,0.7-0.8
			c0.2,0.3,0.6,0.6,0.7,0.9c0.3,0.9,0.8,1.6,1.8,1.6c1,0,1.6-0.6,1.9-1.5c0.1-0.3,0.4-0.6,0.7-0.9c0.3,0.3,0.6,0.6,0.8,0.9
			c0.4,0.9,1.1,1.5,2.1,1.6c0.9,0.1,1.4-0.3,1.6-1.4C21.1,31.5,20.9,30.6,20.7,29.9z M8.5,29.5l0.3-0.2c0.4,0.5,0.7,1,1.2,1.7
			C8.6,30.7,8.4,30.5,8.5,29.5z M14,29.4c0.1-0.1,0.2-0.2,0.3-0.3c0.4,0.5,0.8,1,1.3,1.7C14.4,30.9,14.2,30.8,14,29.4z"/>
		<path fill-rule="evenodd" clip-rule="evenodd" fill="#003B3B" d="M38.9,30.4c-0.1-0.3-0.2-0.7-0.3-1c1.8-1.6,3.3-1.3,4.3,0.8
			c0.1,0.2,0.4,0.6,0.6,0.5c0.3-0.1,0.6-0.3,0.8-0.6c0.5-0.9,0.7-1.9,2.2-1.8c1,0.1,1.6,0.5,2,1.3c0.2,0.3,0.3,0.6,0.6,1.1
			c0.8-1.1,0.7-2.7,2.6-2.4c1.7,0.2,1.6,1.9,2.7,2.5c0.9-1,1-2.5,2.8-2.6c1.8,0,2,1.4,2.7,2.7c0.4-0.5,0.6-0.7,0.8-1.1
			c0.4-0.9,0.9-1.7,2.1-1.7c1.3,0,2.1,0.6,2.4,1.9c0,0.1,0.1,0.2,0.1,0.3c0,0.1,0.1,0.1,0.4,0.2c0.2-0.3,0.5-0.7,0.6-1
			c0.3-0.9,0.8-1.4,1.7-1.4c0.9,0.1,1.8,0.4,2.1,1.5c0.1,0.3,0.6,0.5,0.9,0.7c0.2,0.1,0.5,0.2,0.5,0.3c0,0.2-0.1,0.6-0.3,0.7
			c-1,0.8-2.6,0.3-3.3-1c-0.2-0.3-0.5-0.6-0.7-0.9c-0.3,0.3-0.5,0.6-0.8,0.8c-0.6,0.5-1.2,1.1-1.9,1.3c-0.9,0.2-1.4-0.6-1.8-1.3
			c-0.2-0.3-0.5-0.7-0.7-1c-0.3,0.3-0.8,0.6-0.9,1c-0.4,1-1.1,1.3-2.1,1.3c-1,0-1.6-0.4-1.9-1.3c-0.2-0.4-0.5-0.7-0.8-1
			c-0.3,0.3-0.8,0.6-1,1c-0.4,0.8-0.7,1.5-1.8,1.5c-1.1,0-1.8-0.6-2.2-1.6c-0.1-0.3-0.5-0.5-0.7-0.7c-0.2,0.2-0.5,0.4-0.6,0.6
			c-0.5,0.8-0.9,1.6-2.1,1.5c-1-0.1-1.5-0.7-1.8-1.6c-0.1-0.3-0.4-0.5-0.7-0.9c-0.4,0.6-0.6,1.1-1,1.5c-1.2,1.6-2.9,1.4-3.8-0.3
			c-0.2-0.4-0.5-0.7-0.8-1.1C39.6,29.7,39.2,30.1,38.9,30.4L38.9,30.4z"/>
		<path fill-rule="evenodd" clip-rule="evenodd" fill="#003B3B" d="M116.8,30.5c-0.4,0.4-0.7,1-1.1,1.1c-0.7,0.1-1.5-0.2-2.2-0.3
			c-0.1,0-0.1-0.2-0.2-0.3c-1.2-1.7-1.2-1.7-2.4,0c-0.8,1.2-2.4,0.9-3.2-0.6c-0.2-0.4-0.4-0.7-0.7-1c-0.3,0.3-0.7,0.6-0.9,1
			c-0.5,0.9-0.9,1.9-2.2,0.9c-0.1-0.1-0.4,0.1-0.6,0.1c-1.5,0.6-2.4,0.2-3-1.3c-0.1-0.3-0.5-0.6-0.8-0.7c-0.2,0-0.7,0.3-0.8,0.6
			c-0.2,1-0.8,1.7-1.6,1.6c-0.7-0.1-1.4-0.9-2-1.4c-0.3-0.2-0.4-0.6-0.7-0.8c-0.3,0.3-0.6,0.6-0.8,0.9c-0.4,0.8-0.9,1.5-2,1.4
			c-1-0.1-1.8-0.5-2.1-1.5c-0.3-1-0.9-0.8-1.6-0.5c-0.1-1.2,2-2,2.9-1.1c0.6,0.6,0.9,1.4,1.5,2.2c1.1-0.8,0.9-2.5,2.7-2.5
			c1.7,0,1.9,1.2,2.7,2.3c0.9-0.8,1-2.6,2.6-2.2c1.1,0.3,2,1.3,3,2.1c0.1,0,0.3-0.3,0.7-0.5c0,0,0.1,0,0.1,0c0.4,0.6,0.8,0.9,1.3,0
			c0.4-0.8,0.8-1.6,1.9-1.7c1.3,0,2.1,0.4,2.5,1.7c0,0.1,0.1,0.2,0.2,0.3c0,0.1,0.1,0.1,0.3,0.2c0.1-0.1,0.3-0.3,0.4-0.5
			c0.4-0.8,0.6-1.7,1.7-1.7c1.1,0,1.9,0.4,2.3,1.5c0.3,0.7,0.8,1.1,1.6,0.3C116.7,30.2,116.8,30.4,116.8,30.5z M101.9,31
			c0.2-0.2,0.3-0.3,0.5-0.5c-0.4-0.4-0.8-0.8-1.1-1.2c-0.1,0.2-0.4,0.5-0.4,0.6C101.2,30.3,101.6,30.6,101.9,31z"/>
		<path fill-rule="evenodd" clip-rule="evenodd" fill="#003B3B" d="M72.9,29.4c-0.4,0.3-0.7,0.5-1,0.7c-0.1,0-0.2-0.1-0.3-0.1
			c0.1-0.4,0.2-0.8,0.4-1.1c0.9-1.1,2.8-0.8,3.4,0.5c0.1,0.2,0.2,0.5,0.3,0.7c0.4,0.7,0.9,0.8,1.3,0c0.5-1.2,1.3-1.9,2.7-1.5
			c0.5,0.1,1,0.5,1.4,0.9c0.3,0.3,0.4,0.8,0.8,1.5c0.3-0.6,0.4-1,0.7-1.2c0.5-0.5,1-1.1,1.6-1.2c0.8-0.2,1.6,0.1,2.1,1
			c0.3,0.7,0.6,1.7,1.8,0.8c0.1,0.1,0.1,0.2,0.2,0.3c-0.4,0.4-0.7,1-1.1,1.1c-0.7,0.1-1.5-0.1-2.2-0.3c-0.3-0.1-0.3-0.6-0.6-0.9
			c-0.3-0.3-0.6-0.7-0.9-0.7c-0.2,0-0.6,0.4-0.7,0.8c-0.4,0.7-0.7,1.3-1.6,1.3c-1,0-1.5-0.7-1.9-1.4c-0.2-0.3-0.4-0.6-0.6-0.9
			c-0.3,0.3-0.7,0.5-0.8,0.8c-0.4,1.1-1.2,1.6-2.4,1.5c-1.2-0.1-1.6-0.8-1.9-1.7C73.2,29.8,73.1,29.7,72.9,29.4z"/>
		<path fill-rule="evenodd" clip-rule="evenodd" fill="#003B3B" d="M126.8,30.7c0.3-0.4,0.6-0.6,0.6-0.8c0.1-1,0.9-1.5,1.6-1.4
			c0.8,0.1,1.6,0.6,2.2,1.2c0.5,0.4,0.7,1.3,1.6,0.7c0,1-1.2,1.8-2.1,1.3c-0.6-0.3-1-1-1.5-1.6c-0.2-0.2-0.5-0.6-0.7-0.6
			c-0.3,0-0.8,0.3-0.8,0.5c-0.2,1-0.8,1.8-1.7,1.7c-0.8-0.1-1.4-1-2-1.6c-0.2-0.2-0.4-0.4-0.5-0.7c-0.2,0.2-0.6,0.4-0.7,0.7
			c-0.5,1-1.1,2-2.4,1.6c-0.6-0.2-1.3-0.6-1.6-1.1c-0.5-0.8-0.7-1.6-1.8-0.8c0-1.3,1.8-2,2.9-1.3c0.4,0.3,0.5,0.8,0.8,1.1
			c0.3,0.4,0.5,0.7,0.8,1.2c1-0.9,0.9-2.4,2.6-2.5C125.7,28.3,126.1,29.5,126.8,30.7z M130.7,31c0.2-0.2,0.3-0.3,0.5-0.5
			c-0.4-0.4-0.7-0.8-1.1-1.2c-0.1,0.2-0.4,0.5-0.4,0.6C130,30.3,130.4,30.6,130.7,31z"/>
		<path fill-rule="evenodd" clip-rule="evenodd" fill="#003B3B" d="M38.9,30.4c0,1.1-0.8,1.5-1.6,1.7c-0.9,0.2-1.7-0.2-2.1-1
			c-0.2-0.3-0.3-0.7-0.4-1c-0.1-0.2-0.3-0.4-0.5-0.4c-0.2,0-0.4,0.2-0.5,0.4c-0.1,0.2-0.2,0.5-0.3,0.8c-0.4,0.8-1,1.4-1.9,1.2
			c-0.7-0.2-1.2-0.9-1.8-1.4c-0.3-0.3-0.5-0.7-0.8-1.3c-0.3,0.6-0.6,0.9-0.7,1.2c-0.4,1-1.1,1.5-2.2,1.4c-0.9,0-1.4-0.3-1.8-1.1
			c-0.3-0.9-0.8-1.5-1.8-0.6c-0.3-1.6,2.2-2.4,3.3-1.2c0.5,0.6,0.8,1.4,1.3,2.3c0.3-0.6,0.6-1,0.8-1.4c0.3-1,1-1.4,2-1.4
			c1.1,0,1.7,0.5,2.2,1.4c0.2,0.3,0.4,0.6,0.5,0.8c0.2-0.3,0.6-0.5,0.7-0.9c0.3-0.9,0.9-1.3,1.9-1.3c1,0,1.5,0.5,1.8,1.4
			c0.1,0.4,0.4,0.7,0.7,1.2C38.2,30.8,38.5,30.6,38.9,30.4L38.9,30.4z M26.5,30.9c-0.6-0.6-1-1-1.5-1.4c0,0-0.3,0.3-0.4,0.4
			c0.4,0.4,0.9,0.8,1.3,1.2C25.9,31.2,26,31.1,26.5,30.9z M31.3,31.2c0.2-0.1,0.3-0.3,0.5-0.4c-0.4-0.5-0.8-1.1-1.2-1.6
			c-0.1,0.1-0.3,0.2-0.4,0.3C30.5,30.1,30.9,30.6,31.3,31.2z"/>
	</g>
</g>
<g id="G7oQAa_1_">
	<g>
		<path fill-rule="evenodd" clip-rule="evenodd" fill="#003B3B" d="M679.8,29.9c-0.4-1-1.1-1.4-2-1.4c-1,0-1.6,0.5-1.8,1.4
			c-0.1,0.3-0.3,0.5-0.5,1c-0.5-1.5-1.2-2.4-2.7-2.5c-1.8,0-1.6,1.8-2.7,2.5c-1-0.8-1-2.5-2.7-2.5c-1.7,0-1.9,1.7-2.9,2.7
			c-0.3-0.6-0.6-1-0.8-1.4c-0.5-1.1-1.5-1.5-2.5-1.2c-0.5,0.1-0.9,0.9-1.4,1.4c-0.2,0.2-0.4,0.4-0.6,0.7c0,0,0,0,0,0
			c0,0.3,0.1,0.7,0.1,1c0.7-0.5,1-1.5,1.6-2.3c0.3,0.6,0.5,1,0.7,1.4c0.5,0.9,1.2,1.4,2.2,1.4c1-0.1,1.5-0.6,1.7-1.6
			c0.1-0.4,0.5-0.7,0.7-1c0.3,0.3,0.7,0.5,0.9,0.9c0.4,1.1,1.2,1.7,2.3,1.7c1.1,0,1.6-0.8,2-1.7c0.1-0.3,0.5-0.6,0.7-0.8
			c0.2,0.3,0.6,0.6,0.7,0.9c0.3,0.9,0.8,1.6,1.8,1.6c1,0,1.6-0.6,1.9-1.5c0.1-0.3,0.4-0.6,0.7-0.9c0.3,0.3,0.6,0.6,0.8,0.9
			c0.4,0.9,1.1,1.5,2.1,1.6c0.9,0.1,1.4-0.3,1.6-1.4C680.2,31.5,680.1,30.6,679.8,29.9z M667.6,29.5l0.3-0.2c0.4,0.5,0.7,1,1.2,1.7
			C667.8,30.7,667.6,30.5,667.6,29.5z M673.1,29.4c0.1-0.1,0.2-0.2,0.3-0.3c0.4,0.5,0.8,1,1.3,1.7C673.5,30.9,673.4,30.8,673.1,29.4
			z"/>
		<path fill-rule="evenodd" clip-rule="evenodd" fill="#003B3B" d="M698,30.4c-0.1-0.3-0.2-0.7-0.3-1c1.8-1.6,3.3-1.3,4.3,0.8
			c0.1,0.2,0.4,0.6,0.6,0.5c0.3-0.1,0.6-0.3,0.8-0.6c0.5-0.9,0.7-1.9,2.2-1.8c1,0.1,1.6,0.5,2,1.3c0.2,0.3,0.3,0.6,0.6,1.1
			c0.8-1.1,0.7-2.7,2.6-2.4c1.7,0.2,1.6,1.9,2.7,2.5c0.9-1,1-2.5,2.8-2.6c1.8,0,2,1.4,2.7,2.7c0.4-0.5,0.6-0.7,0.8-1.1
			c0.4-0.9,0.9-1.7,2.1-1.7c1.3,0,2.1,0.6,2.4,1.9c0,0.1,0.1,0.2,0.1,0.3c0,0.1,0.1,0.1,0.4,0.2c0.2-0.3,0.5-0.7,0.6-1
			c0.3-0.9,0.8-1.4,1.7-1.4c0.9,0.1,1.8,0.4,2.1,1.5c0.1,0.3,0.6,0.5,0.9,0.7c0.2,0.1,0.5,0.2,0.5,0.3c0,0.2-0.1,0.6-0.3,0.7
			c-1,0.8-2.6,0.3-3.3-1c-0.2-0.3-0.5-0.6-0.7-0.9c-0.3,0.3-0.5,0.6-0.8,0.8c-0.6,0.5-1.2,1.1-1.9,1.3c-0.9,0.2-1.4-0.6-1.8-1.3
			c-0.2-0.3-0.5-0.7-0.7-1c-0.3,0.3-0.8,0.6-0.9,1c-0.4,1-1.1,1.3-2.1,1.3c-1,0-1.6-0.4-1.9-1.3c-0.2-0.4-0.5-0.7-0.8-1
			c-0.3,0.3-0.8,0.6-1,1c-0.4,0.8-0.7,1.5-1.8,1.5c-1.1,0-1.8-0.6-2.2-1.6c-0.1-0.3-0.5-0.5-0.7-0.7c-0.2,0.2-0.5,0.4-0.6,0.6
			c-0.5,0.8-0.9,1.6-2.1,1.5c-1-0.1-1.5-0.7-1.8-1.6c-0.1-0.3-0.4-0.5-0.7-0.9c-0.4,0.6-0.6,1.1-1,1.5c-1.2,1.6-2.9,1.4-3.8-0.3
			c-0.2-0.4-0.5-0.7-0.8-1.1C698.7,29.7,698.3,30.1,698,30.4L698,30.4z"/>
		<path fill-rule="evenodd" clip-rule="evenodd" fill="#003B3B" d="M776,30.5c-0.4,0.4-0.7,1-1.1,1.1c-0.7,0.1-1.5-0.2-2.2-0.3
			c-0.1,0-0.1-0.2-0.2-0.3c-1.2-1.7-1.2-1.7-2.4,0c-0.8,1.2-2.4,0.9-3.2-0.6c-0.2-0.4-0.4-0.7-0.7-1c-0.3,0.3-0.7,0.6-0.9,1
			c-0.5,0.9-0.9,1.9-2.2,0.9c-0.1-0.1-0.4,0.1-0.6,0.1c-1.5,0.6-2.4,0.2-3-1.3c-0.1-0.3-0.5-0.6-0.8-0.7c-0.2,0-0.7,0.3-0.8,0.6
			c-0.2,1-0.8,1.7-1.6,1.6c-0.7-0.1-1.4-0.9-2-1.4c-0.3-0.2-0.4-0.6-0.7-0.8c-0.3,0.3-0.6,0.6-0.8,0.9c-0.4,0.8-0.9,1.5-2,1.4
			c-1-0.1-1.8-0.5-2.1-1.5c-0.3-1-0.9-0.8-1.6-0.5c-0.1-1.2,2-2,2.9-1.1c0.6,0.6,0.9,1.4,1.5,2.2c1.1-0.8,0.9-2.5,2.7-2.5
			c1.7,0,1.9,1.2,2.7,2.3c0.9-0.8,1-2.6,2.6-2.2c1.1,0.3,2,1.3,3,2.1c0.1,0,0.3-0.3,0.7-0.5c0,0,0.1,0,0.1,0c0.4,0.6,0.8,0.9,1.3,0
			c0.4-0.8,0.8-1.6,1.9-1.7c1.3,0,2.1,0.4,2.5,1.7c0,0.1,0.1,0.2,0.2,0.3c0,0.1,0.1,0.1,0.3,0.2c0.1-0.1,0.3-0.3,0.4-0.5
			c0.4-0.8,0.6-1.7,1.7-1.7c1.1,0,1.9,0.4,2.3,1.5c0.3,0.7,0.8,1.1,1.6,0.3C775.8,30.2,775.9,30.4,776,30.5z M761.1,31
			c0.2-0.2,0.3-0.3,0.5-0.5c-0.4-0.4-0.8-0.8-1.1-1.2c-0.1,0.2-0.4,0.5-0.4,0.6C760.3,30.3,760.7,30.6,761.1,31z"/>
		<path fill-rule="evenodd" clip-rule="evenodd" fill="#003B3B" d="M732,29.4c-0.4,0.3-0.7,0.5-1,0.7c-0.1,0-0.2-0.1-0.3-0.1
			c0.1-0.4,0.2-0.8,0.4-1.1c0.9-1.1,2.8-0.8,3.4,0.5c0.1,0.2,0.2,0.5,0.3,0.7c0.4,0.7,0.9,0.8,1.3,0c0.5-1.2,1.3-1.9,2.7-1.5
			c0.5,0.1,1,0.5,1.4,0.9c0.3,0.3,0.4,0.8,0.8,1.5c0.3-0.6,0.4-1,0.7-1.2c0.5-0.5,1-1.1,1.6-1.2c0.8-0.2,1.6,0.1,2.1,1
			c0.3,0.7,0.6,1.7,1.8,0.8c0.1,0.1,0.1,0.2,0.2,0.3c-0.4,0.4-0.7,1-1.1,1.1c-0.7,0.1-1.5-0.1-2.2-0.3c-0.3-0.1-0.3-0.6-0.6-0.9
			c-0.3-0.3-0.6-0.7-0.9-0.7c-0.2,0-0.6,0.4-0.7,0.8c-0.4,0.7-0.7,1.3-1.6,1.3c-1,0-1.5-0.7-1.9-1.4c-0.2-0.3-0.4-0.6-0.6-0.9
			c-0.3,0.3-0.7,0.5-0.8,0.8c-0.4,1.1-1.2,1.6-2.4,1.5c-1.2-0.1-1.6-0.8-1.9-1.7C732.3,29.8,732.2,29.7,732,29.4z"/>
		<path fill-rule="evenodd" clip-rule="evenodd" fill="#003B3B" d="M785.9,30.7c0.3-0.4,0.6-0.6,0.6-0.8c0.1-1,0.9-1.5,1.6-1.4
			c0.8,0.1,1.6,0.6,2.2,1.2c0.5,0.4,0.7,1.3,1.6,0.7c0,1-1.2,1.8-2.1,1.3c-0.6-0.3-1-1-1.5-1.6c-0.2-0.2-0.5-0.6-0.7-0.6
			c-0.3,0-0.8,0.3-0.8,0.5c-0.2,1-0.8,1.8-1.7,1.7c-0.8-0.1-1.4-1-2-1.6c-0.2-0.2-0.4-0.4-0.5-0.7c-0.2,0.2-0.6,0.4-0.7,0.7
			c-0.5,1-1.1,2-2.4,1.6c-0.6-0.2-1.3-0.6-1.6-1.1c-0.5-0.8-0.7-1.6-1.8-0.8c0-1.3,1.8-2,2.9-1.3c0.4,0.3,0.5,0.8,0.8,1.1
			c0.3,0.4,0.5,0.7,0.8,1.2c1-0.9,0.9-2.4,2.6-2.5C784.9,28.3,785.2,29.5,785.9,30.7z M789.9,31c0.2-0.2,0.3-0.3,0.5-0.5
			c-0.4-0.4-0.7-0.8-1.1-1.2c-0.1,0.2-0.4,0.5-0.4,0.6C789.1,30.3,789.5,30.6,789.9,31z"/>
		<path fill-rule="evenodd" clip-rule="evenodd" fill="#003B3B" d="M698,30.4c0,1.1-0.8,1.5-1.6,1.7c-0.9,0.2-1.7-0.2-2.1-1
			c-0.2-0.3-0.3-0.7-0.4-1c-0.1-0.2-0.3-0.4-0.5-0.4c-0.2,0-0.4,0.2-0.5,0.4c-0.1,0.2-0.2,0.5-0.3,0.8c-0.4,0.8-1,1.4-1.9,1.2
			c-0.7-0.2-1.2-0.9-1.8-1.4c-0.3-0.3-0.5-0.7-0.8-1.3c-0.3,0.6-0.6,0.9-0.7,1.2c-0.4,1-1.1,1.5-2.2,1.4c-0.9,0-1.4-0.3-1.8-1.1
			c-0.3-0.9-0.8-1.5-1.8-0.6c-0.3-1.6,2.2-2.4,3.3-1.2c0.5,0.6,0.8,1.4,1.3,2.3c0.3-0.6,0.6-1,0.8-1.4c0.3-1,1-1.4,2-1.4
			c1.1,0,1.7,0.5,2.2,1.4c0.2,0.3,0.4,0.6,0.5,0.8c0.2-0.3,0.6-0.5,0.7-0.9c0.3-0.9,0.9-1.3,1.9-1.3c1,0,1.5,0.5,1.8,1.4
			c0.1,0.4,0.4,0.7,0.7,1.2C697.3,30.8,697.7,30.6,698,30.4L698,30.4z M685.6,30.9c-0.6-0.6-1-1-1.5-1.4c0,0-0.3,0.3-0.4,0.4
			c0.4,0.4,0.9,0.8,1.3,1.2C685,31.2,685.1,31.1,685.6,30.9z M690.4,31.2c0.2-0.1,0.3-0.3,0.5-0.4c-0.4-0.5-0.8-1.1-1.2-1.6
			c-0.1,0.1-0.3,0.2-0.4,0.3C689.6,30.1,690,30.6,690.4,31.2z"/>
	</g>
</g>
<g>
	<path fill="#003B3B" d="M213.4,30.5c-0.5,0-2,0.1-4.5,0.1c-0.9,0-2.1-0.1-3.3-0.1c-2.7,0-6-0.1-9.8-0.1c-1,0-2,0-3.1,0.1
		c0,0.7,0,1.2,0,1.4c0,0.1,0,0.4,0,0.9c0,0.1,0,0.5,0,1.2c0,0.2-0.1,0.9-0.1,2.2c0,1-0.1,2-0.1,3.1c0,0.7,0.1,1.6,0.1,2.8
		c0,0.3,0,1.6,0,3.7c0,0.2,0,0.7,0,1.6c0,6.4,0,7.7,5.5,7.7c0.6,0,1.2-0.1,2-0.1v0.9c-5.9-0.1-9.9-0.1-11.9-0.1c-2.1,0-5.8,0-11,0.1
		v-0.9c0.5,0,1,0.1,1.5,0.1c5,0,5-1.6,5-8.1c0-1,0-2,0-3c0-0.4,0.1-2,0.1-4.7c0-1.1-0.1-2-0.1-2.8c0-1.7,0-3.1,0-4.4
		c0-1.2,0.1-2.2,0.1-3.1c0-0.3-0.1-1.6-0.1-3.7c0-1.3,0.1-2.6,0.1-3.9c0-0.4,0-1.4,0-2.8c0-0.3,0-0.9,0-1.5c0-0.6-0.1-1.5-0.1-2.8
		c0-0.1,0-0.7,0-1.8c0-5.3-0.3-6.4-5.4-6.4c-0.3,0-0.7,0-1,0V4.6c2.6,0.1,5,0.1,7.1,0.1c1.4,0,2.7,0,3.9,0c1.3,0,2.7,0,4.2,0
		c2.3,0,4.9,0,7.7-0.1v1.1c-0.6,0-1.2,0-1.7,0c-4.6,0-5.6,0.7-5.6,5.2c0,0.7,0,1.4,0,2.5c0,0.5-0.1,1.2-0.1,2c0,0.7,0.1,1.2,0.1,1.5
		c0,0.7-0.1,2.2-0.1,4.6c0,0.6,0.1,2.2,0.1,4.7c0,0.4-0.1,1.4-0.1,3.2c1.1-0.1,2.1-0.1,3.1-0.1c3.8,0,7.2,0.2,10.1,0.2
		c0.5,0,1.9,0.1,4.2,0.1c0.5,0,2.1-0.1,5-0.1c0-0.6,0-1.2,0-1.8c0-1.1,0-2,0-2.6c0-1.2,0.1-2.6,0.1-3.9c0-1.7-0.1-3.1-0.1-4.2
		c0-0.5,0.1-1.3,0.1-2.1c0-0.5-0.1-1.6-0.1-3.5c0-4.8-0.7-5.6-5.7-5.6c-0.5,0-1,0-1.6,0V4.6c2.8,0.1,5.4,0.1,7.7,0.1
		c1.5,0,2.9,0,4.2,0c1.2,0,2.4,0,3.9,0c2.1,0,4.5,0,7.1-0.1v1.1c-0.5,0-0.9,0-1.4,0c-4.7,0-5.1,1.3-5.1,6.5c0,0.9,0,1.9,0,3
		c0,0.6-0.1,1.2-0.1,1.8c0,0.7,0.1,1.3,0.1,1.6c0,0.4-0.1,1.4-0.1,3.1c0,0.5,0.1,2,0.1,4.5c0,0.3,0,1.2,0,2.5c0,0.9,0,2,0,3
		c0,2.5,0,4.1,0,4.8S224,38.1,224,39c0,1.1,0.1,1.9,0.1,2.5c0,0.9-0.1,2-0.1,3.5c0,0.7,0,1.5,0,2.2c0,6.2,0.2,7.6,5.2,7.6
		c0.4,0,0.9,0,1.4,0v0.9c-5.3-0.1-8.9-0.1-11-0.1c-2,0-6,0-11.9,0.1v-0.9c0.7,0,1.3,0,1.8,0c5.3,0,5.6-1,5.6-6.4
		c0-0.4,0.1-1.4,0.1-2.8c0-0.3,0-1.4,0-3.3c0-0.8,0.1-1.8,0.1-3.2c0-0.7-0.1-1.8-0.1-3.4c0-0.9-0.1-2.2-0.1-3.8c0-0.1,0-0.6,0-1.4
		C214.5,30.4,213.9,30.5,213.4,30.5z"/>
	<path fill="#003B3B" d="M202.3,85.5l-0.1,0.2c-2.1-1-3.9-2.5-5.5-4.5c-1.6-2-2.6-3.8-3.2-5.4l-0.3-2.2v-3.7l0.3-1l0.4-1l3-4l2.6-1
		l1.7-0.4h2.5l1,0.4l3.2,2.3l1,2.6l0.4,2.7l-2.2,3.2l-0.7,0.3h-1.4l-2-1.3l0.3-1.6l0.4-2.7l-0.4-0.7l-1.8-1.6h-3.1l-0.5,0.2
		l-0.7,0.5l-2.1,2.9l-0.3,3.7l0.3,1.3l1.7,3.6c2.3,3.1,4.8,4.8,7.7,5.4c1.4,0.3,2.8,0.5,4.1,0.6c1.4,0.1,2.7,0.2,4.1,0.2l2.2-0.3
		l1.3-0.4c4.5-1.8,8.6-4.6,12.1-8.4c3.5-3.7,6.9-7.8,10.2-12.1c1.6-2.2,3.3-4.3,5-6.4c1.7-2.1,3.4-4.3,5.2-6.4
		c3.5-4.2,7.5-7.8,12.1-10.8c1.3-1,2.6-1.8,4-2.2c0.6-0.2,1.3-0.4,1.9-0.7c0.6-0.2,1.2-0.5,1.8-0.7l1.7-0.3c1.7-0.1,3.5-0.3,5.5-0.3
		c2.1,0,3.9,0.3,5.6,1v1.6l-4.5-0.4l-1.4,0.7l-2.6,2.4c-1.5,3.3-2.9,6.5-4.2,9.7s-2.6,6.3-3.9,9.5c-1.3,3.1-2.5,6.3-3.8,9.4
		c-1.2,3.1-2.5,6.3-3.8,9.5l-0.7,4.4l0.3,0.6l0.9,1.1l4.6,0.6l-0.9,1.5l-22.4-0.3l2-1.2l1.9-0.3l3.4-1.7c2.2-2.8,3.8-5.6,4.7-8.4
		c0.9-2.9,2.1-5.8,3.5-8.7l0.7-2.6l-4.9-0.3h-6.9l-6.5,9.2l-6.3,6.6c-0.8,0.7-1.7,1.5-2.6,2.2c-0.9,0.7-1.9,1.4-2.9,2.1
		c-1.9,1.3-3.8,2.4-5.7,3.1l-1.6,0.2l-1.4,0.3l-3.1,0.4h-3.8L202.3,85.5z M250.6,61.6L250.6,61.6h5l1.3-0.6
		c1.9-3.7,3.4-7.3,4.7-10.9c1.3-3.7,3.3-7.5,6-11.5l-2.2,1c-4,2-7.9,5.2-11.6,9.6c-1.9,2.2-3.6,4.3-5.1,6.4c-1.5,2.1-2.9,4.1-4.2,6
		H250.6z"/>
	<path fill="#003B3B" d="M289.4,67V25.4h10.3c8.8,0,12.9,3.4,12.9,12.3c0,8.9-4.1,12.3-12.9,12.3h-3.1V67H289.4z M296.6,44.1h2.8
		c4.7,0,6.1-1.4,6.1-6.4s-1.4-6.4-6.1-6.4h-2.8V44.1z"/>
	<path fill="#003B3B" d="M316.3,11H343c1.6,0,3.3,0.1,5.2,0.2c1.9,0.1,3.6,0.2,5.1,0.4c1.5,0.2,2.7,0.3,3.7,0.6
		c3.5,0.7,6.2,2.1,8.1,4c1.9,1.9,2.8,4.3,2.8,7.2c0,2-0.4,3.7-1.3,5.2c-0.9,1.5-2.2,2.8-4,3.9c-1.7,1.1-3.9,1.9-6.4,2.4
		c-2.5,0.6-5.4,0.8-8.5,0.8h-12.3v10.6c0,5.5,2.7,8.2,8.1,8.2h2.2v1.2h-29.5v-1.2h1.6c5.4,0,8.1-2.7,8.1-8.2v-26
		c0-5.4-2.7-8.1-8.1-8.1h-1.5V11z M335.4,12.2v22.3h8.9c4.4,0,7.7-0.9,9.8-2.7s3.2-4.6,3.2-8.5c0-4.5-1.5-7.6-4.4-9.3
		c-1-0.6-2.3-1.1-3.7-1.3c-1.4-0.3-3.2-0.4-5.2-0.4H335.4z"/>
	<path fill="#003B3B" d="M373.1,78.3h-5.6V64.7l-6.8-19.1h5.7l3.9,12.4h0.1l3.8-12.4h5.7l-6.8,19.1V78.3z"/>
	<path fill="#003B3B" d="M402.3,102.7l0.3,0.1l-6.9-3.8l-1.3-2l-0.2-0.8v-2.9l2.3-3.5l0.8-0.5h2.9l2.4,1.7v1.7l-1.8,2.6v1.7l0.5,0.9
		l0.3,0.9l2.6,1.4l5.2,0.5l1.5-0.5c6.2-4.8,11.1-10.2,14.8-16c3.7-5.8,6.8-11.9,9.4-18.1c1.3-3.1,2.5-6.2,3.7-9.4
		c1.2-3.1,2.3-6.3,3.3-9.4c2.1-6.3,4.7-12.3,7.7-18.1l0.9-5.7l-2.8-2l-9.4-0.3l-2.5,0.3l-1.5,0.5l-1.7,0.3l-5.2,2.4l-5.7,6.1
		l-0.3,1.3l-0.5,5.2l0.5,1.1l3.1,3.3l2.4,0.5l1.7-0.5l2-2.8l-1.1-2l-0.6-0.7l1.4-2.9l0.6-0.5l0.9-0.3h1.2l2.8,1.7l0.8,1.6v0.9v2.3
		l-2.8,4.6l-2.9,1.1l-2,0.3h-3.5l-3.2-1.4l-2.6-2.6l-0.8-2.4l-0.3-5.7l0.3-1.2l0.5-1.1l4.4-6c2.7-1.9,5.4-3.3,8.1-4.1l2.9-0.9
		l1.7-0.2l3.1-0.5l32.6,0.7v1.8h-2.8l-2.6,0.3l-2,0.8c-4.2,3.7-6.8,7.7-7.9,12c-0.6,2.2-1.2,4.3-2,6.4c-0.7,2.1-1.5,4.1-2.4,6.1
		l6.4,0.9h7.2l9.8-0.3c1.9-4.6,4.1-9,6.5-13.2c2.4-4.2,5.6-8.5,9.6-12.8c2.2-1.9,4.1-3.4,5.9-4.5c1.7-0.9,3.5-1.9,5.6-2.8l2.9-0.3h4
		l4.6,1.9l0.6,2.1l0.5,0.7v2.5l-0.5,1.2l-2.3,2.9h-0.8l-1.3,0.3l-3.1-2l-0.6-0.8l1.5-2.4l1.4-1.1v-2l-3.5-1.3l-1.8,0.4l-4.8,2.9
		l-2,2c-6.5,9-11.2,18.1-14.3,27.3c-1.5,4.6-3.1,9.1-4.8,13.6c-1.7,4.5-3.4,9-5.2,13.6l0.5,1.6l2.4,1.7l6.9,0.8l-0.9,1.4h-28.6
		l-1.4-0.5l0.8-1.4h3.7l4.1-2l3.3-4l9.2-22.7l-23.5-0.3c-1.6,3.7-3.2,7.4-4.9,11.1c-1.7,3.7-3.4,7.3-5.2,10.8
		c-3.5,7.1-8.5,14.4-15.1,21.6c-2.4,2.4-4.6,4.3-6.8,5.6c-1,0.6-2.1,1.2-3.2,1.7c-1.1,0.5-2.2,0.9-3.3,1.3l-2.8,0.5l-6.4,0.3
		L402.3,102.7z"/>
	<path fill="#003B3B" d="M522.9,36.6c8.1,0,13.9,5.8,13.9,13.9s-5.8,13.9-13.9,13.9S509,58.5,509,50.4S514.8,36.6,522.9,36.6z
		 M522.9,61.2c6.4,0,10.4-4.9,10.4-10.8s-4-10.8-10.4-10.8c-6.4,0-10.4,4.9-10.4,10.8S516.4,61.2,522.9,61.2z"/>
	<path fill="#003B3B" d="M558.6,15v0.7c-1.2,0-2.3,0-3,0.2c-0.6,0.2-2.3,1.4-2.3,3.3v21.2c0,5.1,5.6,9.4,10.6,9.4
		c7,0,11.5-5.9,11.5-14V22.6c0-1.4-3.1-5.8-5.9-6.6c-0.7-0.2-2.1-0.3-2.9-0.3V15H583v0.7c-0.5,0-1.3,0.2-2,0.5
		c-2.5,0.9-4.8,5.4-4.8,6.5v13.6c0,9.3-5.6,15.3-14.9,15.3c-7.4,0-14.2-5.3-14.2-14.3V18.5c0-1-1.6-2.4-2.8-2.7
		c-0.6-0.2-1.4-0.2-2.1-0.2V15H558.6z M545.7,15.7v0.1l3,2.1v0.5l-0.9,0.4v18.7c0,7.9,6.3,12.8,12,13.4v-0.1c-1-0.5-2.1-0.9-3-1.5
		c-4.9-3-5.9-6.3-5.9-10.3V17.9c0.9-0.7,1.7-1.4,2.7-2.1v-0.1H545.7z M571.2,15.7v0.1c1.9,1,3.6,2.9,4.6,5.1h0.1
		c0.4-2.1,1.2-3.9,1.9-5.2H571.2z"/>
	<path fill="#003B3B" d="M596.1,89.6h-8.4v-49h11.8c9.4,0,14.2,4,14.2,14.4c0,7.9-3.1,11.1-5.9,12.3l7.1,22.2h-8.5l-6-20.3
		c-1.1,0.1-2.8,0.2-4.3,0.2V89.6z M596.1,62.6h3c4.5,0,6.2-1.7,6.2-7.5c0-5.8-1.7-7.5-6.2-7.5h-3V62.6z"/>
</g>
</svg>
