<?xml version="1.0" encoding="utf-8"?>
<!-- Generator: Adobe Illustrator 16.0.0, SVG Export Plug-In . SVG Version: 6.00 Build 0)  -->
<!DOCTYPE svg PUBLIC "-//W3C//DTD SVG 1.1//EN" "http://www.w3.org/Graphics/SVG/1.1/DTD/svg11.dtd">
<svg version="1.1" id="Layer_1" xmlns="http://www.w3.org/2000/svg" xmlns:xlink="http://www.w3.org/1999/xlink" x="0px" y="0px"
	 width="42.097px" height="20.474px" viewBox="1.302 1.053 42.097 20.474" enable-background="new 1.302 1.053 42.097 20.474"
	 xml:space="preserve">
<path fill="#003B3B" d="M19.414,9.713H17.63c0.132,0.504,0.207,1.031,0.207,1.575c0,3.48-2.819,6.3-6.299,6.3
	c-3.479,0-6.299-2.819-6.299-6.3c0-0.544,0.076-1.071,0.206-1.575H3.664v8.663c0,0.436,0.353,0.787,0.788,0.787h14.174
	c0.437,0,0.789-0.353,0.789-0.787L19.414,9.713L19.414,9.713z M19.414,4.202c0-0.435-0.354-0.787-0.789-0.787h-2.361
	c-0.436,0-0.787,0.353-0.787,0.787v2.363c0,0.435,0.353,0.787,0.787,0.787h2.361c0.436,0,0.789-0.352,0.789-0.787V4.202z
	 M11.538,7.352c-2.174,0-3.937,1.763-3.937,3.937c0,2.174,1.763,3.938,3.937,3.938c2.175,0,3.938-1.764,3.938-3.938
	C15.477,9.114,13.713,7.352,11.538,7.352 M19.414,21.527H3.664c-1.304,0-2.362-1.06-2.362-2.364V3.415
	c0-1.304,1.058-2.362,2.362-2.362h15.75c1.304,0,2.359,1.058,2.359,2.362v15.748C21.773,20.467,20.718,21.527,19.414,21.527"/>
<path fill="#ED1C24" d="M41.039,9.713h-1.784c0.132,0.504,0.207,1.031,0.207,1.575c0,3.48-2.819,6.3-6.299,6.3s-6.3-2.819-6.3-6.3
	c0-0.544,0.076-1.071,0.207-1.575h-1.781v8.663c0,0.436,0.354,0.787,0.788,0.787h14.174c0.437,0,0.789-0.353,0.789-0.787
	L41.039,9.713L41.039,9.713z M41.039,4.202c0-0.435-0.354-0.787-0.789-0.787h-2.361c-0.436,0-0.787,0.353-0.787,0.787v2.363
	c0,0.435,0.353,0.787,0.787,0.787h2.361c0.436,0,0.789-0.352,0.789-0.787V4.202z M33.163,7.352c-2.175,0-3.937,1.763-3.937,3.937
	c0,2.174,1.762,3.938,3.937,3.938s3.938-1.764,3.938-3.938C37.102,9.114,35.338,7.352,33.163,7.352 M41.039,21.527h-15.75
	c-1.305,0-2.362-1.06-2.362-2.364V3.415c0-1.304,1.058-2.362,2.362-2.362h15.75c1.304,0,2.359,1.058,2.359,2.362v15.748
	C43.398,20.467,42.343,21.527,41.039,21.527"/>
</svg>
