<?xml version="1.0" encoding="utf-8"?>
<!-- Generator: Adobe Illustrator 16.0.0, SVG Export Plug-In . SVG Version: 6.00 Build 0)  -->
<!DOCTYPE svg PUBLIC "-//W3C//DTD SVG 1.1//EN" "http://www.w3.org/Graphics/SVG/1.1/DTD/svg11.dtd">
<svg version="1.1" id="Layer_1" xmlns="http://www.w3.org/2000/svg" xmlns:xlink="http://www.w3.org/1999/xlink" x="0px" y="0px"
	 width="334.353px" height="284.5px" viewBox="0 0 334.353 284.5" enable-background="new 0 0 334.353 284.5" xml:space="preserve">
<g>
	<g>
		<path fill="#FFFFFF" d="M28.02,101.343V2.953h27.858c23.947,0,35.058,9.231,35.058,33.332c0,24.104-11.11,33.335-35.058,33.335
			h-8.447v31.723H28.02z M47.431,53.656h7.511c12.675,0,16.584-3.912,16.584-17.371c0-13.458-3.909-17.373-16.584-17.373h-7.511
			V53.656z"/>
		<path fill="#FFFFFF" d="M105.561,113.488c-0.685,4.878-0.393,4.292-0.393,6.143c0,3.513,1.757,4.587,7.317,4.587l-1.27,2.83
			l-2.149,0.099l-10.434-0.198l-11.218,0.198h-2.438l1.168-2.827c7.612,0,10.341-4.297,11.417-11.125l2.341-14.825H82.246
			l-9.95,12.583c-7.12,8.974-17.362,22.14-32.673,22.14c-12.001,0-20.683-5.654-20.683-17.752c0-5.852,2.341-9.164,6.733-9.164
			c3.509,0,5.751,2.242,5.751,5.75c0,2.928-1.849,5.076-4.192,5.076c-0.876,0-1.373-0.198-3.028-1.172
			c-0.485-0.394-0.876-0.49-1.267-0.49c-0.679,0-1.166,0.589-1.166,1.562c0,7.316,6.435,12.388,16.191,12.388
			c13.851,0,21.653-9.949,29.353-19.41l40.001-49.259l7.021-4.096L105.561,113.488z M86.051,93.587h14.534l3.606-22.529
			L86.051,93.587z"/>
		<path fill="#FFFFFF" d="M160.875,51.186c-2.277-2.793-5.279-4.242-9.001-4.242c-2.586,0-5.693,1.138-5.693,4.139
			c0,7.449,26.181,1.136,26.181,20.283c0,12.83-12.414,16.555-23.179,16.555c-7.038,0-14.795-1.758-19.761-6.828l9.412-10.455
			c2.905,3.52,6.312,5.487,10.968,5.487c3.522,0,7.042-0.932,7.042-3.621c0-8.076-26.183-1.243-26.183-20.384
			c0-11.797,10.558-16.974,21.112-16.974c6.617,0,13.967,1.658,18.62,6.622L160.875,51.186z"/>
		<path fill="#FFFFFF" d="M209.001,51.145v-4.847c0-5.284-2.425-7.532-5.197-7.532c-4.33,0-5.714,2.248-5.714,6.926v31.681
			c0,4.68,1.384,6.933,5.714,6.933c3.897,0,5.197-2.253,5.197-6.32v-7.537h10.729v7.186c0,8.83-5.19,16.016-15.927,16.016
			c-11.254,0-16.454-7.186-16.454-16.016v-32.2c0-8.834,5.2-16.016,16.454-16.016c10.736,0,15.927,7.788,15.927,17.139v4.587
			H209.001z"/>
		<path fill="#FFFFFF" d="M289.053,83.073h8.181v38.56h19.537v7.402h-27.718V83.073z"/>
		<g>
			<path fill="#FFFFFF" d="M219.406,110.623c7.271,0,7.611-1.388,10.301-7.537l18.695-43.282h1.993l18.786,43.282
				c2.683,6.149,3.028,7.537,10.215,7.537v1.817H254.98v-1.817c7.187,0,8.836-1.817,6.755-6.576l-4.155-9.525h-20.348l-4.067,9.525
				c-1.987,4.668-0.432,6.576,6.757,6.576v1.817h-20.516V110.623z M256.11,91.232l-8.655-20.604l-8.745,20.604H256.11z"/>
		</g>
	</g>
	<g>
		<path fill="#FFFFFF" d="M74.81,189.428h-4.935c0.126-1.688,0.262-3.634,0.262-5.061c0-10.647-3.771-15.459-13.251-15.459
			c-13.114,0-21.295,7.015-21.295,19.222c0,8.961,5.975,13.896,14.544,20.516c10.388,8.055,18.18,17.662,18.18,31.815
			c0,25.322-18.833,41.816-43.632,41.816c-11.95,0-22.334-6.886-22.334-19.608c0-13.376,8.569-25.713,25.71-25.713
			c7.532,0,11.948,4.029,11.948,11.946c0,4.415-1.948,14.677-7.921,14.677c-3.636,0-5.975-1.945-5.975-5.846
			c0-5.846,7.923-5.971,7.923-10c0-2.598-1.042-6.103-7.792-6.103c-7.534,0-14.024,7.662-14.024,18.182
			c0,8.437,4.804,16.619,17.525,16.619c10.782,0,29.482-7.792,29.482-28.179c0-13.376-11.557-24.801-21.684-32.588
			c-7.798-5.977-14.546-11.951-14.546-23.252c0-15.188,13.374-29.732,37.658-29.732c4.544,0,11.421,1.945,13.507,3.634l2.856-2.724
			c0,0,2.599,0,3.632,0.386L74.81,189.428z"/>
		<path fill="#FFFFFF" d="M97.655,225.093H84.939L99.03,148.63h16.307l14.084,76.463h-12.708l-2.328-16.945H99.983L97.655,225.093z
			 M101.886,196.709h10.59l-5.191-32.83h-0.21L101.886,196.709z"/>
		<path fill="#FFFFFF" d="M146.711,204.079c0-2.251-0.516-3.547-2.166-3.547c-0.695,0-1.643,0.433-2.253,0.433
			c-1.121,0-1.469-1.21-1.469-2.078c0-1.121,0.348-2.165,1.643-2.165c1.213,0,2.513,0.605,4.33,0.605
			c3.548,0,7.618-0.605,13.768-0.605c10.212,0,17.657,4.588,17.657,12.898c0,6.925-5.021,9.266-7.357,10.648
			c3.03,0.782,11.166,3.549,11.166,12.813c0,9.522-9.264,15.149-21.466,15.149c-4.073,0-7.967-0.344-11.951-0.344
			c-2.856,0-4.156,0.344-5.537,0.344c-1.559,0-2.253-0.433-2.253-1.73c0-1.816,0.515-2.079,3.118-2.079
			c1.383,0,2.769-0.868,2.769-4.849V204.079z M153.809,239.921c0,3.896,2.511,4.85,5.629,4.85c10.384,0,15.321-4.417,15.321-11.688
			c0-8.917-7.794-11.082-11.254-11.082c-4.677,0-5.019,0-5.107-1.207v-0.867c0-1.389,0.43-1.389,5.107-1.389
			c4.239,0,7.444-3.113,7.444-8.917c0-4.936-2.856-9.779-9.606-9.779c-7.013,0-7.535,1.038-7.535,5.192V239.921z"/>
		<path fill="#FFFFFF" d="M190.464,272.252h12.013v-74.018h-12.013v-1.513h34.843v1.513h-12.011v74.018h12.011v1.513h-34.843
			V272.252z"/>
		<path fill="#FFFFFF" d="M234.195,148.63h10.84l22.27,34.148l0.126,0.128h-0.126l0.126-0.128V148.63h8.181v45.965h-10.386
			l-22.721-35.253h-0.127v35.253h-8.183V148.63z"/>
		<path fill="#FFFFFF" d="M331.103,168.767c-2.176-3.483-6.568-5.378-10.66-6.015l0.007-0.002c-0.026-0.004-0.051-0.005-0.077-0.009
			c-0.367-0.056-0.73-0.101-1.091-0.137l0.005-0.001c-0.011-0.002-0.021-0.002-0.031-0.003c-0.403-0.041-0.802-0.071-1.191-0.086
			c-0.104-0.005-0.21-0.003-0.316-0.005c-0.402-0.012-0.8-0.016-1.194-0.012c-3.78,0.001-6.658,0.707-7.629,0.982
			c-1.282,0.315-2.381,0.66-3.244,0.966c-0.049,0.018-0.099,0.034-0.146,0.052c-1.255,0.45-1.975,0.798-1.975,0.798l-0.003,0.014
			c-2.133,0.97-4.119,2.233-5.832,3.895c-2.544,2.468-4.383,5.781-4.881,9.312c0,0-0.035,0.215-0.066,0.604
			c-0.005,0.053-0.008,0.105-0.012,0.158c-0.018,0.239-0.031,0.532-0.037,0.872c-0.001,0.047-0.007,0.094-0.007,0.141
			c0,0.021,0.003,0.04,0.003,0.06c-0.011,1.425,0.138,3.591,0.83,6.162l-0.003,0.001c0,0,0.007,0.022,0.021,0.063
			c0.068,0.251,0.135,0.501,0.214,0.759c-0.53,0.313-1.065,0.602-1.596,0.863c-3.066,1.514-5.779,3.765-7.913,6.432
			c-4.059,5.07-6.376,12.548-3.794,18.813c0.417,1.014,0.891,2.049,1.479,2.993c0.965,1.414,3.351,4.051,8.673,6.276
			c5.114,2.008,12.382,2.68,20.571-3.145l0.01-0.005c1.744-1.158,3.438-2.628,5.098-4.406c0.013-0.012,0.025-0.023,0.038-0.037
			h-0.002c0.107-0.116,0.215-0.229,0.321-0.346c1.4-1.578,2.517-3.269,3.366-5.064c0.081-0.121,0.139-0.257,0.139-0.412
			c0-0.42-0.341-0.759-0.76-0.759c-0.112,0-0.213,0.031-0.307,0.076v-0.006c-0.042,0.01-0.097,0.047-0.16,0.102
			c-0.008,0.007-0.016,0.014-0.022,0.021c-0.407,0.367-1.129,1.43-1.129,1.43v0.001c-0.49,0.67-0.98,1.448-1.235,1.742
			c-4.26,4.912-10.425,9.471-17.273,8.866c-9.448-0.835-14.332-10.523-11.468-19.05c0.824-2.455,1.94-4.843,3.562-6.878
			c0.365-0.459,3.229-3.432,4.878-4.399c1.546,1.399,3.896,2.724,7.406,3.101l-0.007-0.009c0.658,0.114,1.319,0.186,1.973,0.188
			c1.451,0.006,3.11-0.145,4.354-0.963c1.25-0.823,2.21-2.189,2.303-3.71c0.089-1.457-0.573-2.559-1.584-3.313
			c-2.767-2.464-9.828-1.358-9.828-1.358c-1.814-3.368,0.45-8.61,0.466-8.649c0.082-0.163,0.165-0.325,0.251-0.484
			c1.103-2.023,2.714-3.857,4.833-5.513c1.547-1.197,3.013-2.155,4.4-2.882c4.254-2.231,10.828-2.129,15.088,0.148
			c1.135,0.605,2.26,1.575,2.964,2.663c0.282,0.482,0.623,1.304,0.471,2.269c-0.705,3.238-3.671,3.192-3.671,3.192
			c-0.62-1.376-2.001-2.336-3.607-2.336c-2.186,0-3.957,1.772-3.957,3.957c0,1.202,0.538,2.277,1.384,3.005
			c0,0,0.112,0.106,0.33,0.254c0.022,0.016,0.046,0.031,0.069,0.047c0.029,0.019,0.063,0.038,0.096,0.059
			c0.215,0.132,0.441,0.244,0.68,0.334c1.148,0.469,3.176,0.842,6.253-0.137c0,0,4.259-1.384,5.215-6.113
			C332.467,172.047,332.034,170.258,331.103,168.767z M307.163,186.084c0.88,0.276,1.634,0.651,2.048,1.042
			c0.624,0.589,0.615,1.429,0.276,2.162c-0.954,1.779-3.181,1.023-3.593,0.865c-1.848-0.971-3.129-2.413-3.965-3.7
			C301.93,186.453,304.597,185.51,307.163,186.084z"/>
	</g>
	<path fill="#FFFFFF" d="M172.356,106.272c-21.128,0-38.315,17.189-38.315,38.319c0,21.127,17.187,38.312,38.315,38.312
		c21.127,0,38.321-17.186,38.321-38.312C210.678,123.461,193.483,106.272,172.356,106.272z M188.301,159.148
		c-0.491,1.154-1.12,2.248-1.845,3.236c-2.253,3.07-5.616,5.434-9.349,6.322c-6.19,1.474-14.252,0.153-18.457-5.03
		c-1.244-1.53-2.368-3.685-2.809-5.616l-0.028-0.113c-0.333-1.485-0.681-3.019-0.543-4.625c0.273-3.026,0.947-5.298,2.135-7.164
		c1.559-2.458,3.615-4.446,6.108-5.912c0.749-0.438,1.51-0.874,2.321-1.336c-0.462-0.274-0.891-0.535-1.31-0.848
		c-4.21-3.158-5.445-9.097-2.253-13.389c3.784-5.087,10.665-6.316,15.83-2.613c1.416,1.021,2.24,2.185,2.466,3.478
		c0.365,2.165,0.36,5.981-3.808,7.259c-2.57,0.788-7.541-1.691-4.57-4.697c1.089-1.103,2.828-1.122,3.779,0
		c0.193,0.227,0.494,0.411,0.812,0.597c0.244,0.139,0.47,0.217,0.661,0.217c0.12,0,0.466,0,0.806-0.64
		c0.586-1.109,0.268-2.521-0.768-3.351c-1.393-1.129-3.109-1.851-5.242-2.202c-1.363-0.216-2.721,0.042-4.263,0.825
		c-3.167,1.633-4.407,5.77-3.548,9.031c0.554,2.103,2.184,3.121,3.935,4.052c0.564,0.296,1.148,0.554,1.729,0.813
		c0.385,0.167,0.767,0.342,1.149,0.52c0.561,0.268,0.657,0.661,0.672,0.866c0.009,0.215-0.062,0.625-0.636,0.959
		c-0.29,0.167-0.595,0.314-0.904,0.456l-0.317,0.156c-0.367,0.174-0.739,0.352-1.11,0.525c-2.368,1.112-4.778,2.294-6.214,4.59
		c-3.201,5.115-4.207,13.732,1.3,17.673c5.393,3.86,14.307,5.103,18.433-1.154c2.449-3.713,3.42-8.423,1.283-12.538
		c-2.935-5.651-11.955-3.934-14.098,1.436c-0.539,1.351-0.616,2.436-0.251,3.426c0.332,0.884,1.05,1.396,2.255,1.625
		c0.438,0.088,0.833-0.111,1.095-0.514c0.082-0.127,0.112-0.393,0.08-0.577c-0.191-0.859-0.34-1.868,0.315-2.861
		c0.691-1.035,2.539-1.825,3.746-1.537c1.383,0.328,2.156,1.243,2.433,2.874c0.756,4.444-3.133,6.649-6.98,6.501
		c-1.537-0.059-3.029-0.677-4.134-1.753c-2.002-1.951-2.107-4.934-1.368-7.479c0.403-1.39,1.112-2.876,2.032-4.004
		c0.994-1.221,2.369-2.148,4.098-2.757c2.062-0.728,4.212-0.9,6.295-1.062c0,0,0.953-0.082,0.967-0.083
		c1.639-0.143,3.787-1.574,4.34-3.168c0.321-0.925-0.059-1.87-0.795-2.493c-0.593-0.502-2.391-0.992-2.939-0.078
		c-0.127,0.211-0.105,0.521,0.061,0.879c0.063,0.134,0.133,0.261,0.21,0.393c0.124,0.217,0.245,0.439,0.331,0.677
		c0.242,0.667,0.158,1.343-0.234,1.902c-0.514,0.735-1.522,1.164-2.515,1.031c-0.908-0.111-1.674-0.55-2.165-1.234
		c-0.478-0.67-0.646-1.523-0.467-2.402c0.166-0.824,0.316-1.572,0.669-2.229c0.479-0.886,1.288-1.617,2.409-2.169
		c3.018-1.489,7.424-0.598,8.359,2.971c0.146,0.571,0.291,1.244,0.271,1.899c-0.071,2.108-1.08,3.764-2.998,4.924
		c-0.357,0.217-0.714,0.438-1.074,0.666l-0.118,0.06c0.172,0.134,0.331,0.267,0.492,0.394c0.747,0.592,1.447,1.152,2.104,1.797
		c0.812,0.777,1.731,1.668,2.255,2.74C189.959,152.419,189.639,156.009,188.301,159.148z"/>
</g>
</svg>
