<?xml version="1.0" encoding="utf-8"?>
<!-- Generator: Adobe Illustrator 16.0.0, SVG Export Plug-In . SVG Version: 6.00 Build 0)  -->
<!DOCTYPE svg PUBLIC "-//W3C//DTD SVG 1.1//EN" "http://www.w3.org/Graphics/SVG/1.1/DTD/svg11.dtd">
<svg version="1.1" id="Layer_1" xmlns="http://www.w3.org/2000/svg" xmlns:xlink="http://www.w3.org/1999/xlink" x="0px" y="0px"
	 width="655.333px" height="122.308px" viewBox="0 0 655.333 122.308" enable-background="new 0 0 655.333 122.308"
	 xml:space="preserve">
<g>
	<g>
		<path d="M193.792-635.324v-98.39h27.858c23.947,0,35.058,9.231,35.058,33.332c0,24.104-11.11,33.335-35.058,33.335h-8.447v31.723
			H193.792z M213.203-683.011h7.511c12.675,0,16.584-3.912,16.584-17.371c0-13.458-3.909-17.373-16.584-17.373h-7.511V-683.011z"/>
		<path d="M271.333-623.179c-0.685,4.878-0.393,4.292-0.393,6.143c0,3.513,1.757,4.587,7.317,4.587l-1.27,2.83l-2.149,0.099
			l-10.434-0.198l-11.218,0.198h-2.438l1.168-2.827c7.612,0,10.341-4.297,11.417-11.125l2.341-14.825h-17.658l-9.95,12.583
			c-7.12,8.974-17.362,22.14-32.673,22.14c-12.001,0-20.683-5.654-20.683-17.752c0-5.852,2.341-9.164,6.733-9.164
			c3.509,0,5.751,2.242,5.751,5.75c0,2.928-1.849,5.076-4.192,5.076c-0.876,0-1.373-0.198-3.028-1.172
			c-0.485-0.394-0.876-0.49-1.267-0.49c-0.679,0-1.166,0.589-1.166,1.562c0,7.316,6.435,12.388,16.191,12.388
			c13.851,0,21.653-9.949,29.353-19.41l40.001-49.259l7.021-4.096L271.333-623.179z M251.823-643.08h14.534l3.606-22.529
			L251.823-643.08z"/>
		<path d="M326.647-685.481c-2.277-2.793-5.279-4.242-9.001-4.242c-2.586,0-5.693,1.138-5.693,4.139
			c0,7.449,26.181,1.136,26.181,20.283c0,12.83-12.414,16.555-23.179,16.555c-7.038,0-14.795-1.758-19.761-6.828l9.412-10.455
			c2.905,3.52,6.312,5.487,10.968,5.487c3.522,0,7.042-0.932,7.042-3.621c0-8.076-26.183-1.243-26.183-20.384
			c0-11.797,10.558-16.974,21.112-16.974c6.617,0,13.967,1.658,18.62,6.622L326.647-685.481z"/>
		<path d="M374.773-685.522v-4.847c0-5.284-2.425-7.532-5.197-7.532c-4.33,0-5.714,2.248-5.714,6.926v31.681
			c0,4.68,1.384,6.933,5.714,6.933c3.897,0,5.197-2.253,5.197-6.32v-7.537h10.729v7.186c0,8.83-5.19,16.016-15.927,16.016
			c-11.254,0-16.454-7.186-16.454-16.016v-32.2c0-8.834,5.2-16.016,16.454-16.016c10.736,0,15.927,7.788,15.927,17.139v4.587
			H374.773z"/>
		<path d="M454.825-653.594h8.181v38.56h19.537v7.402h-27.718V-653.594z"/>
		<g>
			<path d="M385.178-626.044c7.271,0,7.611-1.388,10.301-7.537l18.695-43.282h1.993l18.786,43.282
				c2.683,6.149,3.028,7.537,10.215,7.537v1.817h-24.416v-1.817c7.187,0,8.836-1.817,6.755-6.576l-4.155-9.525h-20.348l-4.067,9.525
				c-1.987,4.668-0.432,6.576,6.757,6.576v1.817h-20.516V-626.044z M421.882-645.435l-8.655-20.604l-8.745,20.604H421.882z"/>
		</g>
	</g>
	<g>
		<path d="M240.582-547.239h-4.935c0.126-1.688,0.262-3.634,0.262-5.061c0-10.647-3.771-15.459-13.251-15.459
			c-13.114,0-21.295,7.015-21.295,19.222c0,8.961,5.975,13.896,14.544,20.516c10.388,8.055,18.18,17.662,18.18,31.815
			c0,25.322-18.833,41.816-43.632,41.816c-11.95,0-22.334-6.886-22.334-19.608c0-13.376,8.569-25.713,25.71-25.713
			c7.532,0,11.948,4.029,11.948,11.946c0,4.415-1.948,14.677-7.921,14.677c-3.636,0-5.975-1.945-5.975-5.846
			c0-5.846,7.923-5.971,7.923-10c0-2.598-1.042-6.103-7.792-6.103c-7.534,0-14.024,7.662-14.024,18.182
			c0,8.437,4.804,16.619,17.525,16.619c10.782,0,29.482-7.792,29.482-28.179c0-13.376-11.557-24.801-21.684-32.588
			c-7.798-5.977-14.546-11.951-14.546-23.252c0-15.188,13.374-29.732,37.658-29.732c4.544,0,11.421,1.945,13.507,3.634l2.856-2.724
			c0,0,2.599,0,3.632,0.386L240.582-547.239z"/>
		<path d="M263.427-511.574h-12.716l14.091-76.463h16.307l14.084,76.463h-12.708l-2.328-16.945h-14.403L263.427-511.574z
			 M267.658-539.958h10.59l-5.191-32.83h-0.21L267.658-539.958z"/>
		<path d="M312.483-532.588c0-2.251-0.516-3.547-2.166-3.547c-0.695,0-1.643,0.433-2.253,0.433c-1.121,0-1.469-1.21-1.469-2.078
			c0-1.121,0.348-2.165,1.643-2.165c1.213,0,2.513,0.605,4.33,0.605c3.548,0,7.618-0.605,13.767-0.605
			c10.212,0,17.658,4.588,17.658,12.898c0,6.925-5.021,9.266-7.357,10.648c3.03,0.782,11.166,3.549,11.166,12.813
			c0,9.522-9.264,15.149-21.466,15.149c-4.072,0-7.966-0.344-11.95-0.344c-2.856,0-4.156,0.344-5.537,0.344
			c-1.559,0-2.253-0.433-2.253-1.73c0-1.816,0.515-2.079,3.118-2.079c1.383,0,2.769-0.868,2.769-4.849V-532.588z M319.581-496.746
			c0,3.896,2.511,4.85,5.629,4.85c10.384,0,15.321-4.417,15.321-11.688c0-8.917-7.794-11.082-11.254-11.082
			c-4.677,0-5.019,0-5.107-1.207v-0.867c0-1.389,0.43-1.389,5.107-1.389c4.239,0,7.444-3.113,7.444-8.917
			c0-4.936-2.856-9.779-9.606-9.779c-7.013,0-7.535,1.038-7.535,5.192V-496.746z"/>
		<path d="M356.236-464.415h12.013v-74.018h-12.013v-1.513h34.843v1.513h-12.011v74.018h12.011v1.513h-34.843V-464.415z"/>
		<path d="M399.967-588.037h10.84l22.27,34.148l0.126,0.128h-0.126l0.126-0.128v-34.148h8.181v45.965h-10.386l-22.721-35.253h-0.127
			v35.253h-8.183V-588.037z"/>
		<path d="M496.875-567.9c-2.176-3.483-6.568-5.378-10.66-6.015l0.007-0.002c-0.026-0.004-0.051-0.005-0.077-0.009
			c-0.367-0.056-0.73-0.101-1.091-0.137l0.005-0.001c-0.011-0.002-0.021-0.002-0.031-0.003c-0.403-0.041-0.802-0.071-1.191-0.086
			c-0.104-0.005-0.21-0.003-0.316-0.005c-0.402-0.012-0.8-0.016-1.194-0.012c-3.78,0.001-6.658,0.707-7.629,0.982
			c-1.282,0.315-2.381,0.66-3.244,0.966c-0.049,0.018-0.099,0.034-0.146,0.052c-1.255,0.45-1.975,0.798-1.975,0.798l-0.003,0.014
			c-2.133,0.97-4.119,2.233-5.832,3.895c-2.544,2.468-4.383,5.781-4.881,9.312c0,0-0.035,0.215-0.066,0.604
			c-0.005,0.053-0.008,0.105-0.012,0.158c-0.018,0.239-0.031,0.532-0.037,0.872c-0.001,0.047-0.007,0.094-0.007,0.141
			c0,0.021,0.003,0.04,0.003,0.06c-0.011,1.425,0.138,3.591,0.83,6.162l-0.003,0.001c0,0,0.007,0.022,0.021,0.063
			c0.068,0.251,0.135,0.501,0.214,0.759c-0.53,0.313-1.065,0.602-1.596,0.863c-3.066,1.514-5.779,3.765-7.913,6.432
			c-4.059,5.07-6.376,12.548-3.794,18.813c0.417,1.014,0.891,2.049,1.479,2.993c0.965,1.414,3.351,4.051,8.673,6.276
			c5.114,2.008,12.382,2.68,20.571-3.145l0.01-0.005c1.744-1.158,3.438-2.628,5.098-4.406c0.013-0.012,0.025-0.023,0.038-0.037
			h-0.002c0.107-0.116,0.215-0.229,0.321-0.346c1.4-1.578,2.517-3.269,3.366-5.064c0.081-0.121,0.139-0.257,0.139-0.412
			c0-0.42-0.341-0.759-0.76-0.759c-0.112,0-0.213,0.031-0.307,0.076v-0.006c-0.042,0.01-0.097,0.047-0.16,0.102
			c-0.008,0.007-0.016,0.014-0.022,0.021c-0.407,0.367-1.129,1.43-1.129,1.43v0.001c-0.49,0.67-0.98,1.448-1.235,1.742
			c-4.26,4.912-10.425,9.471-17.273,8.866c-9.448-0.835-14.332-10.523-11.468-19.05c0.824-2.455,1.94-4.843,3.562-6.878
			c0.365-0.459,3.229-3.432,4.878-4.399c1.546,1.399,3.896,2.724,7.406,3.101l-0.007-0.009c0.658,0.114,1.319,0.186,1.973,0.188
			c1.451,0.006,3.11-0.145,4.354-0.963c1.25-0.823,2.21-2.189,2.303-3.71c0.089-1.457-0.573-2.559-1.584-3.313
			c-2.767-2.464-9.828-1.358-9.828-1.358c-1.814-3.368,0.45-8.61,0.466-8.649c0.082-0.163,0.165-0.325,0.251-0.484
			c1.103-2.023,2.714-3.857,4.833-5.513c1.547-1.197,3.013-2.155,4.4-2.882c4.254-2.231,10.828-2.129,15.088,0.148
			c1.135,0.605,2.26,1.575,2.964,2.663c0.282,0.482,0.623,1.304,0.471,2.269c-0.705,3.238-3.671,3.192-3.671,3.192
			c-0.62-1.376-2.001-2.336-3.607-2.336c-2.186,0-3.957,1.772-3.957,3.957c0,1.202,0.538,2.277,1.384,3.005
			c0,0,0.112,0.106,0.33,0.254c0.022,0.016,0.046,0.031,0.069,0.047c0.029,0.019,0.063,0.038,0.096,0.059
			c0.215,0.132,0.441,0.244,0.68,0.334c1.148,0.469,3.176,0.842,6.253-0.137c0,0,4.259-1.384,5.215-6.113
			C498.239-564.62,497.806-566.409,496.875-567.9z M472.935-550.583c0.88,0.276,1.634,0.651,2.048,1.042
			c0.624,0.589,0.615,1.429,0.276,2.162c-0.954,1.779-3.181,1.023-3.593,0.865c-1.848-0.971-3.129-2.413-3.965-3.7
			C467.702-550.214,470.369-551.157,472.935-550.583z"/>
	</g>
	<path d="M338.128-630.395c-21.128,0-38.315,17.189-38.315,38.319c0,21.127,17.187,38.312,38.315,38.312
		c21.127,0,38.321-17.186,38.321-38.312C376.45-613.206,359.255-630.395,338.128-630.395z M354.073-577.519
		c-0.491,1.154-1.12,2.248-1.845,3.236c-2.253,3.07-5.616,5.434-9.349,6.322c-6.19,1.474-14.252,0.153-18.457-5.03
		c-1.244-1.53-2.368-3.685-2.809-5.616l-0.028-0.113c-0.333-1.485-0.681-3.019-0.543-4.625c0.273-3.026,0.947-5.298,2.135-7.164
		c1.559-2.458,3.614-4.446,6.108-5.912c0.75-0.438,1.51-0.874,2.321-1.336c-0.462-0.274-0.891-0.535-1.31-0.848
		c-4.21-3.158-5.445-9.097-2.253-13.389c3.785-5.087,10.666-6.316,15.831-2.613c1.416,1.021,2.24,2.185,2.466,3.478
		c0.365,2.165,0.36,5.981-3.808,7.259c-2.57,0.788-7.541-1.691-4.57-4.697c1.089-1.103,2.828-1.122,3.779,0
		c0.193,0.227,0.494,0.411,0.812,0.597c0.244,0.139,0.47,0.217,0.661,0.217c0.12,0,0.466,0,0.806-0.64
		c0.586-1.109,0.268-2.521-0.768-3.351c-1.393-1.129-3.109-1.851-5.242-2.202c-1.363-0.216-2.721,0.042-4.263,0.825
		c-3.167,1.633-4.407,5.77-3.548,9.031c0.554,2.103,2.184,3.121,3.935,4.052c0.564,0.296,1.148,0.554,1.729,0.813
		c0.385,0.167,0.767,0.342,1.149,0.52c0.561,0.268,0.657,0.661,0.672,0.866c0.009,0.215-0.062,0.625-0.636,0.959
		c-0.29,0.167-0.595,0.314-0.904,0.456l-0.317,0.156c-0.367,0.174-0.739,0.352-1.11,0.525c-2.368,1.112-4.778,2.294-6.213,4.59
		c-3.202,5.115-4.207,13.732,1.299,17.673c5.393,3.86,14.307,5.103,18.433-1.154c2.449-3.713,3.42-8.423,1.283-12.538
		c-2.935-5.651-11.955-3.934-14.098,1.436c-0.539,1.351-0.616,2.436-0.251,3.426c0.332,0.884,1.05,1.396,2.255,1.625
		c0.438,0.088,0.833-0.111,1.095-0.514c0.082-0.127,0.112-0.393,0.08-0.577c-0.191-0.859-0.34-1.868,0.315-2.861
		c0.691-1.035,2.539-1.825,3.746-1.537c1.383,0.328,2.156,1.243,2.433,2.874c0.756,4.444-3.133,6.649-6.98,6.501
		c-1.537-0.059-3.029-0.677-4.134-1.753c-2.002-1.951-2.107-4.934-1.368-7.479c0.403-1.39,1.112-2.876,2.032-4.004
		c0.994-1.221,2.369-2.148,4.098-2.757c2.062-0.728,4.212-0.9,6.295-1.062c0,0,0.953-0.082,0.967-0.083
		c1.639-0.143,3.787-1.574,4.34-3.168c0.321-0.925-0.059-1.87-0.795-2.493c-0.593-0.502-2.391-0.992-2.939-0.078
		c-0.127,0.211-0.105,0.521,0.061,0.879c0.063,0.134,0.133,0.261,0.21,0.393c0.124,0.217,0.245,0.439,0.331,0.677
		c0.242,0.667,0.158,1.343-0.234,1.902c-0.514,0.735-1.522,1.164-2.515,1.031c-0.908-0.111-1.674-0.55-2.165-1.234
		c-0.478-0.67-0.646-1.523-0.467-2.402c0.166-0.824,0.316-1.572,0.669-2.229c0.479-0.886,1.288-1.617,2.409-2.169
		c3.018-1.489,7.424-0.598,8.359,2.971c0.146,0.571,0.291,1.244,0.271,1.899c-0.071,2.108-1.08,3.764-2.998,4.924
		c-0.357,0.217-0.714,0.438-1.074,0.666l-0.118,0.06c0.172,0.134,0.331,0.267,0.492,0.394c0.747,0.592,1.447,1.152,2.104,1.797
		c0.812,0.777,1.731,1.668,2.255,2.74C355.731-584.248,355.411-580.658,354.073-577.519z"/>
</g>
<g>
	<g>
		<path fill="#FFFFFF" d="M19.748,91.647V5.43h24.409c20.981,0,30.718,8.089,30.718,29.209s-9.737,29.21-30.718,29.21h-7.401v27.799
			H19.748z M36.755,49.861h6.579c11.109,0,14.535-3.43,14.535-15.223s-3.426-15.222-14.535-15.222h-6.579V49.861z"/>
		<path fill="#FFFFFF" d="M81.415,102.005c-0.599,4.274-0.342,3.76-0.342,5.383c0,3.077,1.537,4.019,6.41,4.019l-1.111,2.479
			l-1.883,0.086l-9.144-0.173l-9.829,0.173H63.38l1.026-2.479c6.667,0,9.059-3.762,10-9.743l2.053-12.994H60.986l-8.719,11.028
			c-6.241,7.863-15.213,19.4-28.632,19.4c-10.512,0-18.12-4.957-18.12-15.555c0-5.13,2.052-8.034,5.898-8.034
			c3.076,0,5.043,1.966,5.043,5.043c0,2.564-1.624,4.444-3.676,4.444c-0.769,0-1.197-0.173-2.651-1.024
			c-0.426-0.343-0.769-0.429-1.111-0.429c-0.599,0-1.023,0.512-1.023,1.367c0,6.41,5.64,10.854,14.187,10.854
			c12.139,0,18.975-8.719,25.725-17.009l35.046-43.163l6.154-3.59L81.415,102.005z M64.32,84.567h12.734l3.164-19.744L64.32,84.567z
			"/>
		<path fill="#FFFFFF" d="M124.175,46.766c-1.995-2.448-4.628-3.717-7.89-3.717c-2.266,0-4.988,0.997-4.988,3.627
			c0,6.527,22.941,0.997,22.941,17.771c0,11.243-10.881,14.509-20.311,14.509c-6.164,0-12.964-1.543-17.318-5.984l8.25-9.16
			c2.543,3.083,5.531,4.809,9.612,4.809c3.083,0,6.168-0.818,6.168-3.177c0-7.07-22.941-1.086-22.941-17.86
			c0-10.336,9.249-14.87,18.497-14.87c5.803,0,12.239,1.451,16.318,5.803L124.175,46.766z"/>
		<path fill="#FFFFFF" d="M164.111,60.688v-4.246c0-4.63-2.124-6.603-4.552-6.603c-3.79,0-5.006,1.973-5.006,6.071v27.762
			c0,4.099,1.216,6.071,5.006,6.071c3.417,0,4.552-1.973,4.552-5.537v-6.602h9.407V83.9c0,7.737-4.552,14.033-13.959,14.033
			c-9.861,0-14.414-6.296-14.414-14.033V55.682c0-7.737,4.553-14.033,14.414-14.033c9.407,0,13.959,6.826,13.959,15.018v4.021
			H164.111z"/>
		<path fill="#FFFFFF" d="M240.311,49.654h7.169v33.789h17.12v6.484h-24.29V49.654z"/>
		<g>
			<path fill="#FFFFFF" d="M180.49,73.688c6.373,0,6.676-1.213,9.027-6.599l16.386-37.929h1.747l16.46,37.929
				c2.352,5.386,2.654,6.599,8.95,6.599v1.596h-21.392v-1.596c6.296,0,7.738-1.593,5.917-5.762l-3.64-8.346h-17.829l-3.564,8.346
				c-1.744,4.096-0.38,5.762,5.917,5.762v1.596H180.49V73.688z M212.656,56.697l-7.586-18.056l-7.66,18.056H212.656z"/>
		</g>
	</g>
	<g>
		<path fill="#FFFFFF" d="M437.354,25.734h-4.324c0.111-1.479,0.229-3.185,0.229-4.435c0-9.333-3.303-13.543-11.607-13.543
			c-11.494,0-18.66,6.145-18.66,16.842c0,7.852,5.234,12.173,12.743,17.979c9.104,7.052,15.929,15.475,15.929,27.876
			c0,22.188-16.5,36.639-38.23,36.639c-10.47,0-19.571-6.031-19.571-17.183c0-11.719,7.51-22.527,22.527-22.527
			c6.603,0,10.47,3.528,10.47,10.47c0,3.867-1.707,12.857-6.94,12.857c-3.187,0-5.235-1.707-5.235-5.123
			c0-5.121,6.944-5.231,6.944-8.76c0-2.277-0.912-5.349-6.83-5.349c-6.599,0-12.287,6.713-12.287,15.929
			c0,7.398,4.21,14.564,15.36,14.564c9.444,0,25.829-6.826,25.829-24.69c0-11.719-10.125-21.731-19.002-28.559
			c-6.827-5.234-12.743-10.469-12.743-20.37c0-13.312,11.719-26.055,32.996-26.055c3.981,0,10.013,1.707,11.836,3.186l2.504-2.39
			c0,0,2.274,0,3.185,0.34L437.354,25.734z"/>
		<path fill="#FFFFFF" d="M453.386,96.903h-11.138l12.346-66.999h14.287l12.343,66.999h-11.136l-2.04-14.849h-12.621L453.386,96.903
			z M457.097,72.033h9.281l-4.55-28.768h-0.184L457.097,72.033z"/>
		<path fill="#FFFFFF" d="M492.292,33.099c0-1.972-0.457-3.111-1.898-3.111c-0.607,0-1.441,0.38-1.972,0.38
			c-0.984,0-1.29-1.062-1.29-1.82c0-0.985,0.306-1.896,1.441-1.896c1.062,0,2.2,0.53,3.793,0.53c3.107,0,6.676-0.53,12.062-0.53
			c8.95,0,15.475,4.021,15.475,11.302c0,6.068-4.401,8.117-6.447,9.33c2.654,0.683,9.784,3.111,9.784,11.229
			c0,8.343-8.117,13.274-18.812,13.274c-3.568,0-6.981-0.302-10.469-0.302c-2.504,0-3.64,0.302-4.855,0.302
			c-1.367,0-1.972-0.38-1.972-1.519c0-1.592,0.453-1.82,2.731-1.82c1.213,0,2.429-0.757,2.429-4.247V33.099z M498.51,64.503
			c0,3.413,2.199,4.249,4.929,4.249c9.103,0,13.426-3.87,13.426-10.24c0-7.814-6.827-9.709-9.86-9.709c-4.096,0-4.398,0-4.476-1.062
			v-0.759c0-1.213,0.38-1.213,4.476-1.213c3.719,0,6.524-2.731,6.524-7.815c0-4.323-2.503-8.57-8.42-8.57
			c-6.145,0-6.599,0.91-6.599,4.549V64.503z"/>
		<path fill="#FFFFFF" d="M528.118,104.212h10.524V39.357h-10.524v-1.326h30.53v1.326h-10.524v64.854h10.524v1.327h-30.53V104.212z"
			/>
		<path fill="#FFFFFF" d="M567.232,25.531h9.497l19.512,29.919l0.114,0.114h-0.114l0.114-0.114V25.531h7.167v40.273h-9.102
			l-19.907-30.888h-0.114v30.888h-7.167V25.531z"/>
		<path fill="#FFFFFF" d="M650.799,54.397c-2.176-3.483-6.568-5.378-10.66-6.015l0.007-0.002c-0.026-0.004-0.051-0.005-0.077-0.009
			c-0.367-0.056-0.73-0.101-1.091-0.137l0.005-0.001c-0.011-0.002-0.021-0.002-0.031-0.003c-0.403-0.041-0.802-0.071-1.191-0.086
			c-0.104-0.005-0.21-0.003-0.316-0.005c-0.402-0.012-0.8-0.016-1.194-0.012c-3.78,0.001-6.658,0.707-7.629,0.982
			c-1.282,0.315-2.381,0.66-3.244,0.966c-0.049,0.018-0.099,0.034-0.146,0.052c-1.255,0.45-1.975,0.798-1.975,0.798l-0.003,0.014
			c-2.133,0.97-4.119,2.233-5.832,3.895c-2.544,2.468-4.383,5.781-4.881,9.312c0,0-0.035,0.215-0.066,0.604
			c-0.005,0.053-0.008,0.105-0.012,0.158c-0.018,0.239-0.031,0.532-0.037,0.872c-0.001,0.047-0.007,0.094-0.007,0.141
			c0,0.021,0.003,0.04,0.003,0.06c-0.011,1.425,0.138,3.591,0.83,6.162l-0.003,0.001c0,0,0.007,0.022,0.021,0.063
			c0.068,0.251,0.135,0.501,0.214,0.759c-0.53,0.313-1.065,0.602-1.596,0.863c-3.066,1.514-5.779,3.765-7.913,6.432
			c-4.059,5.07-6.376,12.548-3.794,18.813c0.417,1.014,0.891,2.049,1.479,2.993c0.965,1.414,3.351,4.051,8.673,6.276
			c5.114,2.008,12.382,2.68,20.571-3.145l0.01-0.005c1.744-1.158,3.438-2.628,5.098-4.406c0.013-0.012,0.025-0.023,0.038-0.037
			h-0.002c0.107-0.116,0.215-0.229,0.321-0.346c1.4-1.578,2.517-3.269,3.366-5.064c0.081-0.121,0.139-0.257,0.139-0.412
			c0-0.42-0.341-0.759-0.76-0.759c-0.112,0-0.213,0.031-0.307,0.076v-0.006c-0.042,0.01-0.097,0.047-0.16,0.102
			c-0.008,0.007-0.016,0.014-0.022,0.021c-0.407,0.367-1.129,1.43-1.129,1.43v0.001c-0.49,0.67-0.98,1.448-1.235,1.742
			c-4.26,4.912-10.425,9.471-17.273,8.866c-9.448-0.835-14.332-10.523-11.468-19.05c0.824-2.455,1.94-4.843,3.562-6.878
			c0.365-0.459,3.229-3.432,4.878-4.399c1.546,1.399,3.896,2.724,7.406,3.101l-0.007-0.009c0.658,0.114,1.319,0.186,1.973,0.188
			c1.451,0.006,3.11-0.145,4.354-0.963c1.25-0.823,2.21-2.189,2.303-3.71c0.089-1.457-0.573-2.559-1.584-3.313
			c-2.767-2.464-9.828-1.358-9.828-1.358c-1.814-3.368,0.45-8.61,0.466-8.649c0.082-0.163,0.165-0.325,0.251-0.484
			c1.103-2.023,2.714-3.857,4.833-5.513c1.547-1.197,3.013-2.155,4.4-2.882c4.254-2.231,10.828-2.129,15.088,0.148
			c1.135,0.605,2.26,1.575,2.964,2.663c0.282,0.482,0.623,1.304,0.471,2.269c-0.705,3.238-3.671,3.192-3.671,3.192
			c-0.62-1.376-2.001-2.336-3.607-2.336c-2.186,0-3.957,1.772-3.957,3.957c0,1.202,0.538,2.277,1.384,3.005
			c0,0,0.112,0.106,0.33,0.254c0.022,0.016,0.046,0.031,0.069,0.047c0.029,0.019,0.063,0.038,0.096,0.059
			c0.215,0.132,0.441,0.244,0.68,0.334c1.148,0.469,3.176,0.842,6.253-0.137c0,0,4.259-1.384,5.215-6.113
			C652.164,57.678,651.731,55.889,650.799,54.397z M626.86,71.715c0.88,0.276,1.634,0.651,2.048,1.042
			c0.624,0.589,0.615,1.429,0.276,2.162c-0.954,1.779-3.181,1.023-3.593,0.865c-1.848-0.971-3.129-2.413-3.965-3.7
			C621.626,72.084,624.293,71.141,626.86,71.715z"/>
	</g>
	<path fill="#FFFFFF" d="M321.129,22.879c-17.544,0-31.815,14.273-31.815,31.818c0,17.544,14.271,31.813,31.815,31.813
		c17.543,0,31.821-14.27,31.821-31.813C352.95,37.152,338.672,22.879,321.129,22.879z M334.369,66.785
		c-0.408,0.959-0.931,1.867-1.532,2.688c-1.871,2.549-4.664,4.512-7.762,5.25c-5.141,1.223-11.834,0.127-15.326-4.178
		c-1.033-1.271-1.966-3.06-2.333-4.663l-0.023-0.095c-0.276-1.233-0.565-2.507-0.451-3.841c0.227-2.512,0.786-4.398,1.773-5.948
		c1.294-2.042,3.001-3.692,5.072-4.909c0.622-0.364,1.253-0.725,1.927-1.109c-0.383-0.229-0.74-0.444-1.087-0.704
		c-3.496-2.623-4.521-7.555-1.871-11.117c3.143-4.225,8.856-5.245,13.145-2.171c1.176,0.848,1.86,1.814,2.048,2.888
		c0.303,1.799,0.299,4.968-3.162,6.028c-2.134,0.654-6.262-1.404-3.795-3.9c0.904-0.915,2.348-0.932,3.138,0
		c0.161,0.188,0.41,0.341,0.674,0.495c0.204,0.115,0.391,0.182,0.549,0.182c0.1,0,0.387,0,0.669-0.532
		c0.487-0.922,0.222-2.094-0.637-2.783c-1.157-0.938-2.582-1.535-4.353-1.827c-1.132-0.181-2.26,0.035-3.54,0.685
		c-2.629,1.354-3.66,4.79-2.946,7.499c0.46,1.745,1.813,2.591,3.267,3.363c0.469,0.246,0.954,0.46,1.436,0.676
		c0.319,0.138,0.636,0.284,0.954,0.432c0.465,0.223,0.545,0.548,0.558,0.719c0.008,0.179-0.052,0.52-0.528,0.797
		c-0.241,0.139-0.494,0.261-0.75,0.379l-0.264,0.129c-0.305,0.145-0.614,0.291-0.922,0.437c-1.967,0.924-3.968,1.904-5.16,3.812
		c-2.659,4.246-3.493,11.402,1.079,14.674c4.478,3.205,11.88,4.236,15.306-0.958c2.034-3.083,2.84-6.994,1.065-10.411
		c-2.437-4.692-9.927-3.267-11.706,1.191c-0.448,1.122-0.512,2.023-0.208,2.845c0.276,0.734,0.872,1.159,1.873,1.35
		c0.363,0.073,0.692-0.093,0.909-0.426c0.068-0.106,0.093-0.327,0.066-0.48c-0.159-0.713-0.282-1.551,0.262-2.375
		c0.574-0.86,2.108-1.516,3.11-1.276c1.148,0.272,1.791,1.032,2.02,2.387c0.628,3.689-2.601,5.521-5.796,5.397
		c-1.276-0.048-2.516-0.562-3.433-1.456c-1.663-1.62-1.75-4.096-1.136-6.21c0.335-1.154,0.923-2.388,1.688-3.324
		c0.826-1.014,1.967-1.784,3.403-2.29c1.711-0.604,3.497-0.748,5.227-0.883c0,0,0.792-0.067,0.803-0.068
		c1.36-0.119,3.145-1.307,3.604-2.63c0.267-0.769-0.049-1.554-0.66-2.07c-0.492-0.418-1.985-0.824-2.441-0.065
		c-0.105,0.175-0.087,0.433,0.05,0.73c0.053,0.11,0.11,0.217,0.175,0.326c0.103,0.181,0.203,0.364,0.274,0.562
		c0.201,0.554,0.131,1.116-0.194,1.58c-0.427,0.609-1.265,0.966-2.088,0.855c-0.754-0.093-1.39-0.457-1.797-1.025
		c-0.397-0.556-0.537-1.264-0.388-1.994c0.138-0.685,0.263-1.306,0.555-1.852c0.397-0.736,1.069-1.343,2-1.801
		c2.506-1.237,6.165-0.497,6.941,2.467c0.12,0.474,0.241,1.032,0.225,1.577c-0.06,1.75-0.897,3.124-2.489,4.088
		c-0.297,0.18-0.593,0.364-0.892,0.553l-0.098,0.05c0.143,0.11,0.275,0.222,0.409,0.326c0.621,0.492,1.202,0.957,1.748,1.492
		c0.674,0.646,1.438,1.386,1.872,2.275C335.746,61.197,335.479,64.179,334.369,66.785z"/>
</g>
</svg>
