<?xml version="1.0" encoding="utf-8"?>
<!-- Generator: Adobe Illustrator 16.0.0, SVG Export Plug-In . SVG Version: 6.00 Build 0)  -->
<!DOCTYPE svg PUBLIC "-//W3C//DTD SVG 1.1//EN" "http://www.w3.org/Graphics/SVG/1.1/DTD/svg11.dtd">
<svg version="1.1" id="Layer_1" xmlns="http://www.w3.org/2000/svg" xmlns:xlink="http://www.w3.org/1999/xlink" x="0px" y="0px"
	 width="118.364px" height="48.456px" viewBox="0 0 118.364 48.456" enable-background="new 0 0 118.364 48.456"
	 xml:space="preserve">
<g>
	<path fill="#033B3C" d="M24.194,7.977v34.66h-5.185V15.562h-0.096l-5.376,27.075h-2.88L5.28,15.562H5.184v27.075H0V7.977h7.824
		l4.225,20.258h0.096l4.224-20.258H24.194z"/>
	<path fill="#033B3C" d="M37.248,32.268c0.384,4.512,3.792,8.064,8.257,8.064c3.36,0,5.952-1.871,7.201-3.889l2.448,2.018
		c-2.64,3.359-5.952,4.752-9.648,4.752c-6.673,0-11.617-5.041-11.617-11.809c0-6.77,4.944-11.811,11.329-11.811
		c6.816,0.048,10.753,5.088,10.753,11.234v1.439H37.248z M52.513,29.676c0-4.273-2.736-7.202-7.296-7.202
		c-4.128,0-7.873,3.505-7.873,7.202H52.513z"/>
	<path fill="#033B3C" d="M64.079,33.965h5.328V1.132h-5.328V0.46h10.272l16.224,26.159h0.096V1.132h-5.327V0.46H96.72v0.672h-5.328
		v34.177h-0.96L70.224,3.1h-0.097v30.865h5.328v0.672H64.079V33.965z"/>
	<path fill="#033B3C" d="M104.687,21.647h4.463v19.619c0,1.906,0.756,2.844,2.376,2.844s2.376-0.938,2.376-2.844V21.647h4.463
		v19.439c0,4.463-2.592,6.91-6.839,6.91c-4.248,0-6.839-2.447-6.839-6.91V21.647z"/>
</g>
</svg>
