<?xml version="1.0" encoding="utf-8"?>
<!-- Generator: Adobe Illustrator 17.1.0, SVG Export Plug-In . SVG Version: 6.00 Build 0)  -->
<!DOCTYPE svg PUBLIC "-//W3C//DTD SVG 1.1//EN" "http://www.w3.org/Graphics/SVG/1.1/DTD/svg11.dtd">
<svg version="1.1" id="Layer_1" xmlns="http://www.w3.org/2000/svg" xmlns:xlink="http://www.w3.org/1999/xlink" x="0px" y="0px"
	 viewBox="0 0 186.2 285.5" enable-background="new 0 0 186.2 285.5" xml:space="preserve">
<g>
	<path d="M55.1,9.8l-1.1-1.1h-1.4V8.2h9.2c1.9,0,5.6,0.3,5.6,3c0,2.7-3.6,3.2-5.7,3.2h-3.3v3.9l1,1h1.9v0.4h-8.8v-0.4H54l1-1.1V9.8z
		 M58.3,14h2.3c3.1,0,3.3-1.6,3.3-2.8c0-2.6-1.9-2.6-2.5-2.6h-2.1l-0.9,0.9V14z"/>
	<path d="M72.6,9.5l-0.9-0.9h-2.3V8.2h9.4v0.4h-2l-1,0.9v8.9l1,0.9h3.3l2.9-5.5h0.4v5.9h-14v-0.4h2.4l0.7-0.9V9.5z"/>
	<path d="M96.5,18.6l-1-2.4H90l-0.7,1.2l0.9,1.9h0.9v0.4h-4.9v-0.4c0.8-0.2,1.6-0.7,2.1-1.6L94,7.9h1.2l4.4,10.2
		c0.5,1.2,1.9,1.2,2.4,1.2v0.4h-7.8v-0.4h1.8L96.5,18.6z M95.3,15.7l-2-4.6c0,0-0.1-0.1-0.2-0.1s-0.1,0-0.2,0.1l-2.6,4.6H95.3z"/>
	<path d="M108.4,8.6h-2.4l-2.5,3.5h-0.3V8.2h13.7v3.9h-0.3l-2.5-3.5h-2.4v9.5l1.1,1.2h1.8v0.4h-9.1v-0.4h1.8l1.1-1.2V8.6z"/>
	<path d="M120.6,15.8h0.4c0.9,1.7,2.1,3.9,6.1,3.9c2.2,0,3.9-0.7,3.9-2.1c0-1.6-3.1-1.7-4.9-1.9c-3.2-0.4-5.8-1.1-5.8-4
		c0-1.7,1.3-3.7,5.2-3.7c2.4,0,4.1,0.8,4.8,1.1l1.3-1.1h0.3v3.7h-0.3c-0.8-1.4-2.3-3.3-6.1-3.3c-1.5,0-3.5,0.3-3.5,1.9
		c0,1.4,1.9,1.7,5,2c2.5,0.2,5.5,0.6,5.5,4c0,2.8-2.8,3.8-5.8,3.8c-2.7,0-3.8-0.7-4.4-1.2L121,20h-0.4V15.8z"/>
</g>
<text transform="matrix(1 0 0 1 134.8096 19.7499)" font-family="'EngraversLTStd-BoldFace'" font-size="22"> </text>
<g>
	<path d="M50.7,32L50,31.3h-1.3V31H55c3.1,0,5.4,1.2,5.4,4.3c0,2.6-2,4.4-4.8,4.4h-6.9v-0.3H50l0.7-0.9V32z M53.1,38.6l0.7,0.8h1.7
		c2.3,0,2.4-2.3,2.4-4.1c0-1.8-0.3-4.1-2.6-4.1h-1.5L53.1,32V38.6z"/>
	<path d="M73.8,37.1c0,2-1.4,2.8-4.1,2.8c-2,0-5-0.4-5-2.8v-5.1L64,31.3h-1.3V31h6.6v0.3h-1.4l-0.7,0.8v5.7c0,0.8,0.6,1.9,2.9,1.9
		c1.1,0,3.4-0.2,3.4-2.4v-4.4l-1.4-1.6h-1.1V31h5.5v0.3h-1.1l-1.4,1.6V37.1z"/>
	<path d="M86.6,31h6.6v0.3H92l-0.9,0.8v4.6c0,3.1-3,3.3-4,3.3c-1.7,0-3.3-0.9-3.3-2.4c0-0.7,0.3-1.5,1.4-1.5c0.7,0,1.2,0.6,1.2,1.3
		c0,0.9-0.7,1.3-1.4,1.4c0,0,0,0,0,0.1S85,39,85,39c0.3,0.4,1.2,0.6,1.7,0.6c1.2,0,1.9-0.5,1.9-2.4v-5.2l-0.9-0.8h-1.2V31z"/>
	<path d="M107.8,35.4c0,2.8-2.9,4.6-6.2,4.6s-6.2-1.8-6.2-4.6c0-2.8,2.9-4.6,6.2-4.6S107.8,32.6,107.8,35.4z M98,35.4
		c0,2.1,0.4,4.3,3.6,4.3s3.6-2.1,3.6-4.3c0-2.2-0.4-4.3-3.6-4.3S98,33.2,98,35.4z"/>
	<path d="M121.3,37.1c0,2-1.4,2.8-4.1,2.8c-2,0-5-0.4-5-2.8v-5.1l-0.8-0.8h-1.3V31h6.6v0.3h-1.4l-0.7,0.8v5.7c0,0.8,0.6,1.9,2.9,1.9
		c1.1,0,3.4-0.2,3.4-2.4v-4.4l-1.4-1.6h-1.1V31h5.5v0.3h-1.1l-1.4,1.6V37.1z"/>
	<path d="M127.4,32.1l-0.9-0.8h-1.4V31h7.7c1.6,0,3.9,0.3,3.9,2.1c0,1.5-2.1,1.8-3.2,1.9c-0.9,0.1-1,0.1-1,0.3
		c0,0.4,0.8,0.6,2.3,0.6l0.7,2.5c0.2,0.7,0.7,0.9,0.9,0.9h0.6v0.3h-3.6l-1.1-3.5c-0.1-0.4-0.6-0.9-1.5-0.9h-1.2v3.5l0.8,0.7h1.2v0.3
		h-6.6v-0.3h1.5l0.8-0.8V32.1z M129.7,35c2.5,0,4.5,0,4.5-1.9c0-0.9-0.3-1.8-2-1.8h-1.6l-0.9,0.7V35z"/>
</g>
<g>
	<polygon fill="none" stroke="#000000" stroke-width="2" points="10.1,51.3 10.1,283.5 10.1,284.5 11.1,284.5 174.9,284.5 
		175.9,284.5 175.9,283.5 175.9,51.3 175.9,50.3 174.9,50.3 11.1,50.3 10.1,50.3 	"/>
</g>
<rect x="12.7" y="52.9" fill="none" stroke="#000000" stroke-width="0.668" width="160.4" height="228.9"/>
<g>
	<defs>
		<rect id="SVGID_1_" width="186.2" height="285.5"/>
	</defs>
	<clipPath id="SVGID_2_">
		<use xlink:href="#SVGID_1_"  overflow="visible"/>
	</clipPath>
	<path clip-path="url(#SVGID_2_)" d="M25.5,28.5c0.1,0,0.3,0,0.4,0c0.2-0.1,0.4-0.2,0.6-0.3c0.4-0.2,0.7-0.6,0.8-1
		c0.2-0.6,0-1.4-0.7-1.9c0,0-0.1-0.1-0.1-0.1c-0.2-0.1-0.2-0.3,0-0.4c0.1-0.1,0.1-0.1,0.2-0.2c0.2-0.2,0.4-0.4,0.5-0.6
		c0.2-0.5,0.1-0.9,0-1.4c-0.2-0.4-0.5-0.7-0.9-0.8c-0.3-0.1-0.6-0.2-0.9-0.1c-0.2,0-0.4,0.1-0.7,0.2c-0.2,0.1-0.3,0-0.4-0.2
		c0-0.1,0-0.2,0-0.3c0-0.2,0-0.5-0.2-0.7c-0.2-0.4-0.5-0.7-0.9-0.9c-0.7-0.3-1.4-0.1-1.9,0.4c-0.4,0.3-0.6,0.9-0.6,1.4
		c0,0.1,0,0.2,0,0.2c0,0.1-0.2,0.1-0.3,0.1c-0.2-0.2-0.5-0.3-0.8-0.4c-0.4-0.1-0.8,0-1.1,0.2c-0.2,0.1-0.4,0.3-0.5,0.4
		c-0.4,0.4-0.5,0.8-0.4,1.3c0,0.2,0.1,0.4,0.2,0.7c0.1,0.2,0.3,0.4,0.5,0.5c0.1,0,0.2,0.1,0.2,0.2c0.1,0.1,0.1,0.2,0,0.4
		c0,0-0.1,0.1-0.1,0.1c-0.4,0.3-0.7,0.7-0.7,1.3c0,0.4,0,0.7,0.2,1.1c0.1,0.1,0.2,0.3,0.3,0.4c0.2,0.2,0.5,0.3,0.7,0.4
		c0.5,0.1,1,0.2,1.5-0.2c0,0,0.1-0.1,0.1-0.1c0.2,0,0.3,0.1,0.3,0.3c0,0.3,0,0.6,0.1,0.9c0.1,0.2,0.2,0.3,0.3,0.5
		c0.1,0.1,0.1,0.1,0.2,0.2c0.1,0.2,0.3,0.3,0.6,0.3c0.3,0.1,0.5,0.1,0.8,0c0.2,0,0.4-0.1,0.6-0.2c0.1-0.1,0.2-0.2,0.3-0.3
		c0.4-0.3,0.6-0.7,0.6-1.2c0,0,0-0.1,0-0.1c0-0.2,0.2-0.3,0.3-0.2C25,28.4,25.2,28.5,25.5,28.5 M19.4,21.1c0.3,0,0.6,0,0.8,0.2
		c0.1,0.1,0.2,0,0.2-0.1c0-0.2,0.1-0.4,0.1-0.6c0.1-0.2,0.2-0.4,0.4-0.6c0.2-0.2,0.4-0.4,0.7-0.5c0.3-0.1,0.5-0.2,0.8-0.2
		c0.3,0,0.6,0,0.9,0.2c0.2,0.1,0.4,0.2,0.5,0.4c0.3,0.2,0.5,0.5,0.6,0.9c0,0.1,0,0.1,0,0.2c0,0.1,0,0.1,0,0.2c0,0.3,0.1,0.3,0.4,0.2
		c0,0,0.1,0,0.1,0c0.5,0,1,0,1.5,0.2c0.3,0.2,0.6,0.4,0.8,0.7c0.1,0.2,0.2,0.4,0.2,0.6c0.1,0.3,0.1,0.6,0,1
		c-0.1,0.3-0.2,0.6-0.4,0.8c-0.1,0.1-0.2,0.2-0.3,0.3c-0.1,0.1-0.1,0.2,0,0.3c0.1,0.1,0.3,0.2,0.4,0.4c0.2,0.3,0.4,0.6,0.4,1
		c0,0.2,0,0.4,0,0.6c0,0.4-0.2,0.7-0.4,0.9c-0.2,0.2-0.3,0.4-0.5,0.5c-0.3,0.2-0.7,0.4-1.2,0.3c-0.2,0-0.5-0.1-0.7-0.1
		c-0.1,0-0.2,0-0.2,0.1c-0.1,0.5-0.3,0.9-0.7,1.3c-0.3,0.3-0.8,0.5-1.2,0.6c-0.4,0-0.7,0-1.1-0.1c-0.3-0.1-0.6-0.3-0.7-0.6
		c-0.1-0.1-0.2-0.3-0.2-0.4c-0.1-0.2-0.1-0.3-0.2-0.5c0-0.3-0.2-0.4-0.4-0.3c-0.5,0.2-1,0.1-1.5-0.1c-0.5-0.2-0.9-0.5-1.1-1
		c-0.3-0.5-0.2-1-0.1-1.4c0.1-0.4,0.3-0.8,0.7-1c0.1-0.1,0.1-0.2,0-0.3c-0.1-0.1-0.2-0.1-0.3-0.2c-0.2-0.1-0.2-0.4-0.4-0.6
		c-0.2-0.4-0.2-0.8-0.2-1.2c0.1-0.5,0.3-0.9,0.7-1.1c0.3-0.2,0.6-0.4,0.9-0.5C19,21.1,19.2,21.1,19.4,21.1"/>
	<path clip-path="url(#SVGID_2_)" d="M30,9.6c0,0.1-0.1,0.2-0.2,0.3c-0.2,0.2-0.5,0.4-0.7,0.6c-0.3,0.3-0.5,0.6-0.7,0.9
		c-0.2,0.2-0.3,0.5-0.4,0.7c-0.2,0.3-0.3,0.6-0.5,0.9c-0.1,0.2-0.3,0.4-0.3,0.7c0,0.2-0.2,0.3-0.2,0.5c-0.1,0.3-0.1,0.5-0.2,0.8
		c0,0.1,0,0.3-0.1,0.4c-0.1,0.2-0.1,0.4-0.1,0.7c0,0.1,0,0.1,0,0.2c0,0.2-0.1,0.4-0.1,0.6c0,0.6-0.1,1.1-0.1,1.7c0,0.4,0,0.8,0,1.1
		c0,0.1,0,0.1,0,0.2c0,0.1-0.1,0.1-0.2,0.1c-0.1,0-0.1-0.1-0.1-0.2c0,0,0-0.1,0-0.1c0-0.1,0-0.1,0-0.2c-0.1-0.4,0-0.7,0-1.1
		c0-0.5,0-1.1,0.1-1.6c0-0.5,0.1-1,0.2-1.5c0.1-0.5,0.3-1,0.4-1.5c0.2-0.5,0.3-1,0.5-1.4c0.2-0.4,0.3-0.7,0.5-1.1
		c0.1-0.2,0.2-0.4,0.4-0.6c0.2-0.3,0.4-0.6,0.7-0.8C29,9.7,29,9.6,29.1,9.5c0.2-0.2,0.4-0.3,0.7-0.2C29.9,9.3,30,9.4,30,9.6"/>
	<path clip-path="url(#SVGID_2_)" d="M26,32.3c0-0.5,0-1.1,0-1.6c0-0.2,0-0.4,0-0.5c0,0,0-0.1,0-0.1c0-0.1,0.1-0.1,0.2-0.1
		c0.1,0,0.1,0.1,0.1,0.2c0,0.7,0,1.3,0,2c0,0.3,0,0.6,0,0.9c0.1,0.6,0.1,1.1,0.2,1.7c0,0.3,0.1,0.5,0.2,0.8c0.1,0.2,0.2,0.5,0.3,0.7
		c0.1,0.2,0.1,0.3,0.2,0.5c0.1,0.2,0.2,0.3,0.2,0.5c0.1,0.4,0.4,0.6,0.6,0.9c0,0,0.1,0.1,0.1,0.1c0.1,0.1,0.2,0.3,0.3,0.4
		c0.2,0.3,0.4,0.5,0.6,0.8c0.1,0.2,0.3,0.3,0.4,0.4c0.1,0.1,0.1,0.1,0.2,0.1c0.1,0.1,0.2,0.1,0.3,0.2c0.2,0.2,0.1,0.5-0.2,0.6
		c-0.2,0.1-0.5,0-0.6-0.2c-0.2-0.2-0.4-0.5-0.6-0.7c-0.1-0.1-0.1-0.2-0.2-0.3c-0.2-0.3-0.5-0.6-0.7-1c-0.2-0.4-0.4-0.8-0.6-1.1
		c-0.2-0.3-0.3-0.6-0.4-1c-0.1-0.2-0.1-0.5-0.2-0.7c0-0.1-0.1-0.2-0.1-0.3c0,0,0-0.1,0-0.1c-0.1-0.6-0.2-1.3-0.3-1.9
		C26,32.9,26,32.6,26,32.3C26,32.3,26,32.3,26,32.3"/>
	<path clip-path="url(#SVGID_2_)" d="M22.5,13.1c0-0.4,0.1-0.9,0.1-1.3c0.1-0.4,0.1-0.9,0.2-1.3c0.1-0.3,0.2-0.6,0.3-0.8
		c0.1-0.2,0.3-0.3,0.5-0.2c0.2,0.1,0.2,0.3,0.2,0.5c-0.1,0.3-0.2,0.6-0.3,1c-0.1,0.3-0.2,0.7-0.2,1c-0.2,0.7-0.1,1.4-0.1,2.1
		c0,0.4,0,0.8,0.1,1.3c0,0.2,0,0.4,0.1,0.6c0.1,0.5,0.3,1,0.4,1.5c0,0.1,0.1,0.2,0.1,0.3c0.1,0.3,0.2,0.5,0.3,0.8c0,0.1,0,0.1,0,0.2
		c0,0-0.1,0.1-0.1,0.1c-0.1,0-0.1,0-0.2-0.1c0,0,0-0.1-0.1-0.2c0-0.1-0.1-0.2-0.1-0.2c0,0,0,0,0-0.1c-0.1-0.2-0.1-0.4-0.2-0.6
		c0-0.1-0.1-0.2-0.1-0.3c-0.1-0.2-0.2-0.5-0.2-0.7c-0.1-0.4-0.2-0.8-0.3-1.3c0-0.4-0.1-0.7-0.2-1.1C22.5,13.8,22.5,13.5,22.5,13.1"
		/>
	<path clip-path="url(#SVGID_2_)" d="M22.6,37.5c0-0.1,0-0.1,0-0.2c0-0.2,0-0.3,0-0.5c-0.1-0.3-0.1-0.7,0-1c0.1-0.4,0.1-0.8,0.2-1.1
		c0.1-0.3,0.1-0.5,0.1-0.8c0-0.1,0-0.2,0.1-0.3c0-0.1,0.1-0.2,0.1-0.3c0.1-0.2,0.2-0.5,0.2-0.7c0,0,0,0,0,0c0.1-0.2,0.1-0.4,0.2-0.6
		c0-0.1,0.1-0.2,0.2-0.3c0,0,0.1,0,0.1,0c0,0,0.1,0.1,0,0.2c-0.1,0.2-0.1,0.3-0.2,0.5c-0.1,0.2-0.2,0.5-0.3,0.7
		c-0.1,0.4-0.2,0.7-0.3,1.1c-0.2,0.6-0.2,1.2-0.2,1.9c0,0.8,0,1.5,0.2,2.3c0.1,0.3,0.2,0.5,0.3,0.8c0.2,0.4,0.3,0.9,0.5,1.3
		c0,0,0,0,0,0c0.1,0.2,0,0.3-0.1,0.4c-0.1,0.1-0.3,0.1-0.4,0c-0.1-0.1-0.2-0.3-0.3-0.5c-0.1-0.2-0.2-0.5-0.3-0.8
		c-0.1-0.3-0.1-0.6-0.2-0.9c0-0.1-0.1-0.2-0.1-0.3C22.7,37.9,22.7,37.7,22.6,37.5L22.6,37.5z"/>
	<path clip-path="url(#SVGID_2_)" d="M18,13c0,0.5,0.1,0.9,0.3,1.4c0.1,0.3,0.2,0.7,0.4,1c0.1,0.2,0.3,0.5,0.4,0.7
		c0.1,0.1,0.1,0.2,0.1,0.3c0.2,0.3,0.5,0.6,0.7,0.9c0.3,0.3,0.5,0.5,0.8,0.8c0.2,0.2,0.4,0.3,0.5,0.4c0,0,0.1,0.1,0.1,0.1
		c0.1,0.1,0.1,0.2,0,0.2c-0.1,0.1-0.1,0.1-0.2,0c-0.2-0.1-0.5-0.3-0.6-0.5c-0.4-0.3-0.7-0.7-1-1c-0.2-0.2-0.3-0.5-0.5-0.7
		c-0.1-0.2-0.2-0.3-0.4-0.4c-0.2-0.2-0.3-0.5-0.4-0.8c0,0,0-0.1,0-0.1c-0.4-0.3-0.5-0.8-0.7-1.2c0,0,0,0,0-0.1
		c-0.1-0.4-0.1-0.8-0.2-1.2c0-0.1,0-0.2,0-0.3c0-0.1,0-0.3,0.1-0.4c0.1-0.1,0.2-0.2,0.3-0.1c0.1,0,0.2,0.1,0.2,0.3
		C18.1,12.6,18,12.8,18,13"/>
	<path clip-path="url(#SVGID_2_)" d="M17.6,37.2c0-0.5,0.1-0.9,0.3-1.4c0.2-0.5,0.3-0.9,0.5-1.3c0.1-0.2,0.2-0.3,0.3-0.5
		c0.3-0.4,0.7-0.9,1.1-1.3c0.4-0.5,0.9-0.9,1.4-1.3c0.2-0.2,0.4-0.3,0.6-0.4c0,0,0.1,0,0.1,0c0,0,0.1,0.1,0.1,0.1
		c0,0.1-0.1,0.2-0.1,0.2c-0.2,0.2-0.4,0.3-0.7,0.4c-0.1,0.1-0.2,0.2-0.3,0.3c-0.3,0.3-0.6,0.5-0.9,0.8c-0.4,0.4-0.7,0.8-0.9,1.3
		c-0.2,0.4-0.4,0.8-0.6,1.3c-0.1,0.2-0.2,0.4-0.3,0.7c0,0.1,0,0.1,0,0.2c0,0.2,0,0.4,0,0.6c0,0.2,0,0.5,0,0.7c0,0.2-0.1,0.3-0.2,0.4
		c-0.1,0-0.3-0.1-0.3-0.3C17.7,37.5,17.6,37.3,17.6,37.2"/>
	<path clip-path="url(#SVGID_2_)" d="M13.6,16c0.1,0,0.2,0.1,0.2,0.2c0.1,0.2,0.1,0.5,0.2,0.7c0.2,0.4,0.4,0.9,0.8,1.2
		c0.2,0.2,0.4,0.4,0.6,0.6c0.3,0.3,0.6,0.4,0.9,0.6c0.6,0.3,1.2,0.6,1.8,0.9c0.2,0.1,0.4,0.1,0.5,0.1c0.2,0,0.3,0.1,0.4,0.2
		c0,0.1,0.1,0.2,0,0.2c-0.1,0-0.2,0.1-0.2,0c-0.3-0.1-0.5-0.2-0.8-0.3c-0.1,0-0.2-0.1-0.3-0.1c-0.4-0.2-0.7-0.3-1.1-0.5
		c-0.4-0.2-0.7-0.5-1.1-0.7c-0.3-0.1-0.5-0.3-0.8-0.5c-0.4-0.3-0.7-0.7-1-1.1c-0.2-0.3-0.4-0.7-0.4-1.1C13.2,16.2,13.4,16,13.6,16"
		/>
	<path clip-path="url(#SVGID_2_)" d="M10,24.6c0.6,0,1.2,0.1,1.8,0.1c0.4,0,0.8,0,1.3,0c0.5,0,1.1,0,1.6,0c0.1,0,0.1,0,0.2,0
		c0.1,0,0.2,0,0.2,0c0.1,0,0.1,0.1,0.1,0.2c0,0.1-0.1,0.2-0.2,0.2c-0.2,0-0.3,0-0.5,0c-0.7,0-1.4,0-2.1,0.1
		c-0.7,0.1-1.4,0.1-2.1,0.1c-0.3,0-0.7,0-1,0c-0.2,0-0.3,0-0.4-0.2c-0.1-0.1-0.1-0.2,0-0.3c0.1-0.1,0.2-0.1,0.2-0.2
		C9.5,24.7,9.7,24.6,10,24.6C10,24.6,10,24.6,10,24.6"/>
	<path clip-path="url(#SVGID_2_)" d="M13.6,34c0.1-0.2,0.1-0.4,0.2-0.6c0.2-0.3,0.4-0.6,0.5-0.9c0.2-0.4,0.5-0.6,0.7-0.9
		c0.3-0.3,0.6-0.6,0.9-0.9c0.2-0.2,0.4-0.3,0.6-0.5c0.5-0.3,0.9-0.6,1.4-0.9c0.2-0.1,0.3-0.2,0.5-0.3c0.1,0,0.2-0.1,0.2-0.1
		c0.1,0,0.2,0,0.2,0.1c0,0.1,0,0.1-0.1,0.2c-0.1,0.1-0.2,0.1-0.3,0.2c-0.2,0.1-0.5,0.3-0.8,0.4c-0.1,0.1-0.3,0.1-0.4,0.2
		c-0.2,0.1-0.4,0.2-0.5,0.3c-0.3,0.2-0.6,0.5-0.9,0.7c-0.2,0.1-0.3,0.3-0.4,0.5c-0.2,0.4-0.5,0.7-0.7,1.1c-0.2,0.3-0.3,0.6-0.5,0.9
		c-0.1,0.2-0.1,0.4-0.2,0.6c-0.1,0.1-0.1,0.2-0.2,0.3c-0.1,0.1-0.2,0-0.2,0C13.7,34.2,13.7,34.1,13.6,34"/>
	<path clip-path="url(#SVGID_2_)" d="M16.4,23c-0.5-0.1-1-0.2-1.5-0.3c-0.4-0.1-0.8-0.2-1.2-0.4c-0.4-0.2-0.8-0.3-1.1-0.5
		c-0.3-0.1-0.5-0.3-0.8-0.4c-0.3-0.2-0.6-0.5-0.9-0.8c-0.2-0.2-0.2-0.4-0.2-0.6c0-0.1,0.1-0.2,0.1-0.2c0.1,0,0.2,0,0.3,0.1
		c0.1,0,0.1,0.1,0.2,0.2c0.1,0.1,0.2,0.3,0.3,0.4c0,0,0.1,0.1,0.1,0.1c0.2,0.2,0.3,0.4,0.6,0.5c0.3,0.2,0.6,0.4,1,0.6
		c0.2,0.1,0.4,0.2,0.6,0.3c0.4,0.2,0.8,0.2,1.2,0.3c0.2,0,0.3,0.1,0.5,0.1c0.3,0.1,0.6,0.1,0.9,0.1c0.1,0,0.2,0,0.2,0
		c0.1,0,0.2,0.1,0.1,0.2c0,0.1-0.1,0.2-0.2,0.2C16.5,22.9,16.5,22.9,16.4,23C16.4,22.9,16.4,23,16.4,23"/>
	<path clip-path="url(#SVGID_2_)" d="M28.4,18C28.5,18,28.5,18,28.4,18c0.1-0.1,0.2-0.1,0.3-0.2c0.1-0.1,0.3-0.2,0.5-0.3
		c0.2-0.1,0.4-0.1,0.6-0.2c0.2-0.1,0.4-0.1,0.5-0.3c0.1-0.1,0-0.3-0.1-0.3c-0.2,0-0.4,0-0.5,0.1c-0.2,0.1-0.3,0.2-0.5,0.3
		c-0.2,0.2-0.4,0.4-0.6,0.6C28.5,17.8,28.5,17.9,28.4,18 M30.2,16.3c0.3,0,0.5,0.3,0.5,0.6c0,0.3-0.2,0.6-0.5,0.7
		c-0.1,0.1-0.3,0.1-0.5,0.1c-0.1,0-0.2,0.1-0.3,0.1c-0.1,0-0.3,0.1-0.4,0.1c-0.3,0.1-0.5,0.3-0.7,0.5c-0.2,0.2-0.4,0.4-0.5,0.6
		c-0.2,0.4-0.3,0.8-0.4,1.2c0,0.1-0.1,0.2-0.1,0.2c-0.1,0.1-0.2,0-0.2-0.1c0-0.1,0-0.2,0-0.4c0-0.1,0-0.2,0.1-0.3
		c0.1-0.2,0.1-0.4,0.2-0.7c0.1-0.3,0.3-0.6,0.4-0.9c0-0.1,0.1-0.2,0.2-0.3c0.2-0.2,0.3-0.5,0.5-0.7c0,0,0,0,0.1-0.1
		c0.1-0.3,0.4-0.4,0.6-0.6C29.5,16.4,29.9,16.4,30.2,16.3"/>
	<path clip-path="url(#SVGID_2_)" d="M30,33.3c0,0,0.1,0,0.1,0c0.2,0,0.3-0.1,0.4-0.3c0.1-0.1-0.1-0.1-0.1-0.2c0,0,0,0,0,0
		c0-0.1-0.1-0.2-0.2-0.2c-0.2,0-0.3,0-0.5,0c-0.3,0-0.5-0.1-0.7-0.3c0,0-0.1-0.1-0.1-0.1c-0.1,0-0.1,0-0.1,0.1
		c0,0.1,0.1,0.2,0.1,0.2c0.2,0.2,0.4,0.5,0.7,0.7C29.6,33.2,29.8,33.2,30,33.3 M30.1,32.2c0.4,0,0.6,0.2,0.7,0.5
		c0.1,0.3-0.2,0.7-0.4,0.7c-0.3,0.1-0.5,0.1-0.8,0c-0.3-0.1-0.6-0.3-0.8-0.5c-0.1-0.2-0.3-0.4-0.4-0.6c-0.1-0.1-0.1-0.2-0.2-0.3
		c-0.3-0.4-0.4-0.8-0.6-1.3c-0.1-0.4-0.2-0.8-0.3-1.2c0-0.1,0-0.2,0-0.3c0,0,0.1-0.1,0.2-0.1c0,0,0.1,0.1,0.1,0.1
		c0.1,0.3,0.1,0.6,0.1,0.9c0,0.1,0.1,0.2,0.1,0.3c0.1,0.2,0.2,0.4,0.3,0.6c0.2,0.3,0.4,0.6,0.7,0.8c0.2,0.1,0.4,0.2,0.7,0.2
		C29.8,32.2,29.9,32.2,30.1,32.2"/>
	<path clip-path="url(#SVGID_2_)" d="M10.7,29.8c0-0.2,0.2-0.4,0.3-0.5c0.4-0.4,0.9-0.7,1.3-1.1c0.1-0.1,0.3-0.1,0.4-0.2
		c0.2-0.1,0.4-0.2,0.5-0.3c0.1-0.1,0.2-0.1,0.3-0.1c0.3-0.1,0.6-0.3,1-0.4c0.5-0.2,1.1-0.3,1.6-0.5c0.1,0,0.2,0,0.3,0
		c0.1,0,0.1,0.1,0.1,0.1c0,0.1,0,0.1-0.1,0.2c0,0-0.1,0-0.1,0.1c-0.3,0.1-0.6,0.1-0.9,0.2c-0.1,0-0.2,0.1-0.3,0.1
		c-0.1,0-0.2,0-0.2,0.1c0,0,0,0-0.1,0c-0.2,0.1-0.4,0.2-0.6,0.2c-0.1,0.1-0.3,0.1-0.4,0.2c-0.3,0.1-0.6,0.3-0.8,0.5
		c-0.3,0.2-0.5,0.3-0.8,0.5c-0.1,0.1-0.3,0.2-0.4,0.3c-0.1,0.1-0.3,0.3-0.4,0.4c-0.1,0.1-0.2,0.3-0.3,0.4c-0.1,0.1-0.2,0.1-0.2,0.1
		C10.8,30.1,10.7,30,10.7,29.8"/>
	<path clip-path="url(#SVGID_2_)" d="M30.9,24.9c0.1-0.2-0.1-0.4-0.2-0.5C30.6,24.1,30.3,24,30,24c-0.3-0.1-0.7,0.1-0.9,0.4
		c-0.2,0.3-0.3,0.6-0.2,0.9c0,0.1,0.1,0.2,0.2,0.3c0.2,0.3,0.4,0.4,0.8,0.5C30.3,26.1,31,25.4,30.9,24.9 M31.2,24.9
		c0,0.3-0.1,0.6-0.3,0.8c-0.1,0.1-0.1,0.2-0.2,0.3c-0.1,0.1-0.2,0.2-0.4,0.2c-0.1,0-0.3,0.1-0.4,0.1c-0.3,0-0.6-0.1-0.8-0.3
		c-0.3-0.3-0.5-0.6-0.5-1.1c0,0,0-0.1,0-0.1c0.1-0.3,0.2-0.7,0.5-0.9c0.3-0.3,0.7-0.3,1.1-0.2C30.7,23.8,31.2,24.3,31.2,24.9"/>
	<path clip-path="url(#SVGID_2_)" d="M23.8,25.1c0-0.5-0.1-0.7-0.4-1c-0.2-0.2-0.5-0.4-0.9-0.3c-0.1,0-0.1,0-0.2,0
		c-0.1,0-0.2,0-0.2,0.1c-0.1,0-0.2,0.1-0.3,0.2c-0.3,0.2-0.5,0.5-0.5,0.9c0,0.1,0,0.1,0,0.2c0,0.3,0.1,0.5,0.3,0.7
		c0.1,0.1,0.3,0.2,0.4,0.3c0.1,0,0.2,0.1,0.3,0.1c0.3,0.1,0.5,0,0.8-0.1c0.1-0.1,0.2-0.2,0.3-0.2C23.6,25.6,23.8,25.4,23.8,25.1
		 M24.1,25c0,0.3-0.1,0.6-0.3,0.9c-0.3,0.4-0.7,0.6-1.2,0.7c-0.6,0.1-1.2-0.3-1.5-0.8c-0.2-0.3-0.2-0.6-0.2-0.9
		c0.1-0.5,0.4-0.9,0.8-1.2c0.3-0.2,0.6-0.2,1-0.1c0.4,0,0.7,0.2,0.9,0.5c0.1,0.2,0.3,0.3,0.3,0.5C24.1,24.6,24.1,24.8,24.1,25"/>
	<path clip-path="url(#SVGID_2_)" d="M160.2,28.5c-0.1,0-0.3,0-0.4,0c-0.2-0.1-0.4-0.2-0.6-0.3c-0.4-0.2-0.7-0.6-0.8-1
		c-0.2-0.6,0-1.4,0.7-1.9c0,0,0.1-0.1,0.1-0.1c0.2-0.1,0.2-0.3,0-0.4c-0.1-0.1-0.1-0.1-0.2-0.2c-0.2-0.2-0.4-0.4-0.5-0.6
		c-0.2-0.5-0.1-0.9,0-1.4c0.2-0.4,0.5-0.7,0.9-0.8c0.3-0.1,0.6-0.2,0.9-0.1c0.2,0,0.4,0.1,0.7,0.2c0.2,0.1,0.3,0,0.4-0.2
		c0-0.1,0-0.2,0-0.3c0-0.2,0-0.5,0.2-0.7c0.2-0.4,0.5-0.7,0.9-0.9c0.7-0.3,1.4-0.1,1.9,0.4c0.4,0.3,0.6,0.9,0.6,1.4
		c0,0.1,0,0.2,0,0.2c0.1,0.1,0.2,0.1,0.3,0.1c0.2-0.2,0.5-0.3,0.8-0.4c0.4-0.1,0.8,0,1.1,0.2c0.2,0.1,0.4,0.3,0.5,0.4
		c0.4,0.4,0.5,0.8,0.4,1.3c0,0.2-0.1,0.4-0.2,0.7c-0.1,0.2-0.3,0.4-0.5,0.5c-0.1,0-0.2,0.1-0.2,0.2c-0.1,0.1-0.1,0.2,0,0.4
		c0,0,0.1,0.1,0.1,0.1c0.4,0.3,0.7,0.7,0.7,1.3c0,0.4,0,0.7-0.2,1.1c-0.1,0.1-0.2,0.3-0.3,0.4c-0.2,0.2-0.5,0.3-0.7,0.4
		c-0.5,0.1-1,0.2-1.5-0.2c0,0-0.1-0.1-0.1-0.1c-0.2,0-0.3,0.1-0.3,0.3c0,0.3,0,0.6-0.1,0.9c-0.1,0.2-0.2,0.3-0.3,0.5
		c-0.1,0.1-0.1,0.1-0.2,0.2c-0.1,0.2-0.3,0.3-0.6,0.3c-0.3,0.1-0.5,0.1-0.8,0c-0.2,0-0.4-0.1-0.6-0.2c-0.1-0.1-0.2-0.2-0.3-0.3
		c-0.4-0.3-0.6-0.7-0.6-1.2c0,0,0-0.1,0-0.1c0-0.2-0.2-0.3-0.3-0.2C160.8,28.4,160.5,28.5,160.2,28.5 M166.4,21.1
		c-0.3,0-0.6,0-0.8,0.2c-0.1,0.1-0.2,0-0.2-0.1c0-0.2-0.1-0.4-0.1-0.6c-0.1-0.2-0.2-0.4-0.4-0.6c-0.2-0.2-0.4-0.4-0.7-0.5
		c-0.3-0.1-0.5-0.2-0.8-0.2c-0.3,0-0.6,0-0.9,0.2c-0.2,0.1-0.4,0.2-0.5,0.4c-0.3,0.2-0.5,0.5-0.6,0.9c0,0.1,0,0.1,0,0.2
		c0,0.1,0,0.1,0,0.2c0,0.3-0.1,0.3-0.4,0.2c0,0-0.1,0-0.1,0c-0.5,0-1,0-1.5,0.2c-0.3,0.2-0.6,0.4-0.8,0.7c-0.1,0.2-0.2,0.4-0.2,0.6
		c-0.1,0.3-0.1,0.6,0,1c0.1,0.3,0.2,0.6,0.4,0.8c0.1,0.1,0.2,0.2,0.3,0.3c0.1,0.1,0.1,0.2,0,0.3c-0.1,0.1-0.3,0.2-0.4,0.4
		c-0.2,0.3-0.4,0.6-0.4,1c0,0.2,0,0.4,0,0.6c0,0.4,0.2,0.7,0.4,0.9c0.2,0.2,0.3,0.4,0.5,0.5c0.3,0.2,0.7,0.4,1.2,0.3
		c0.2,0,0.5-0.1,0.7-0.1c0.1,0,0.2,0,0.2,0.1c0.1,0.5,0.3,0.9,0.7,1.3c0.3,0.3,0.8,0.5,1.2,0.6c0.4,0,0.7,0,1.1-0.1
		c0.3-0.1,0.6-0.3,0.7-0.6c0.1-0.1,0.2-0.3,0.2-0.4c0.1-0.2,0.1-0.3,0.2-0.5c0-0.3,0.2-0.4,0.4-0.3c0.5,0.2,1,0.1,1.5-0.1
		c0.5-0.2,0.9-0.5,1.1-1c0.3-0.5,0.2-1,0.1-1.4c-0.1-0.4-0.3-0.8-0.7-1c-0.1-0.1-0.1-0.2,0-0.3c0.1-0.1,0.2-0.1,0.3-0.2
		c0.2-0.1,0.2-0.4,0.4-0.6c0.2-0.4,0.2-0.8,0.2-1.2c-0.1-0.5-0.3-0.9-0.7-1.1c-0.3-0.2-0.6-0.4-0.9-0.5
		C166.7,21.1,166.6,21.1,166.4,21.1"/>
	<path clip-path="url(#SVGID_2_)" d="M155.8,9.6c0,0.1,0.1,0.2,0.2,0.3c0.2,0.2,0.5,0.4,0.7,0.6c0.3,0.3,0.5,0.6,0.7,0.9
		c0.2,0.2,0.3,0.5,0.4,0.7c0.2,0.3,0.3,0.6,0.5,0.9c0.1,0.2,0.3,0.4,0.3,0.7c0,0.2,0.2,0.3,0.2,0.5c0.1,0.3,0.1,0.5,0.2,0.8
		c0,0.1,0,0.3,0.1,0.4c0.1,0.2,0.1,0.4,0.1,0.7c0,0.1,0,0.1,0,0.2c0,0.2,0.1,0.4,0.1,0.6c0,0.6,0.1,1.1,0.1,1.7c0,0.4,0,0.8,0,1.1
		c0,0.1,0,0.1,0,0.2c0,0.1,0.1,0.1,0.2,0.1c0.1,0,0.1-0.1,0.1-0.2c0,0,0-0.1,0-0.1c0-0.1,0-0.1,0-0.2c0.1-0.4,0-0.7,0-1.1
		c0-0.5,0-1.1-0.1-1.6c0-0.5-0.1-1-0.2-1.5c-0.1-0.5-0.3-1-0.4-1.5c-0.2-0.5-0.3-1-0.5-1.4c-0.2-0.4-0.3-0.7-0.5-1.1
		c-0.1-0.2-0.2-0.4-0.4-0.6c-0.2-0.3-0.4-0.6-0.7-0.8c-0.1-0.1-0.2-0.2-0.3-0.3c-0.2-0.2-0.4-0.3-0.7-0.2
		C155.9,9.3,155.8,9.4,155.8,9.6"/>
	<path clip-path="url(#SVGID_2_)" d="M159.8,32.3c0-0.5,0-1.1,0-1.6c0-0.2,0-0.4,0-0.5c0,0,0-0.1,0-0.1c0-0.1-0.1-0.1-0.2-0.1
		c-0.1,0-0.1,0.1-0.1,0.2c0,0.7,0,1.3,0,2c0,0.3,0,0.6,0,0.9c-0.1,0.6-0.1,1.1-0.2,1.7c0,0.3-0.1,0.5-0.2,0.8
		c-0.1,0.2-0.2,0.5-0.3,0.7c-0.1,0.2-0.1,0.3-0.2,0.5c-0.1,0.2-0.2,0.3-0.2,0.5c-0.1,0.4-0.4,0.6-0.6,0.9c0,0-0.1,0.1-0.1,0.1
		c-0.1,0.1-0.2,0.3-0.3,0.4c-0.2,0.3-0.4,0.5-0.6,0.8c-0.1,0.2-0.3,0.3-0.4,0.4c-0.1,0.1-0.1,0.1-0.2,0.1c-0.1,0.1-0.2,0.1-0.3,0.2
		c-0.2,0.2-0.1,0.5,0.2,0.6c0.2,0.1,0.4,0,0.6-0.2c0.2-0.2,0.4-0.5,0.6-0.7c0.1-0.1,0.1-0.2,0.2-0.3c0.2-0.3,0.5-0.6,0.7-1
		c0.2-0.4,0.4-0.8,0.6-1.1c0.2-0.3,0.3-0.6,0.4-1c0.1-0.2,0.1-0.5,0.2-0.7c0-0.1,0.1-0.2,0.1-0.3c0,0,0-0.1,0-0.1
		c0.1-0.6,0.2-1.3,0.3-1.9C159.8,32.9,159.7,32.6,159.8,32.3C159.7,32.3,159.8,32.3,159.8,32.3"/>
	<path clip-path="url(#SVGID_2_)" d="M163.3,13.1c0-0.4-0.1-0.9-0.1-1.3c-0.1-0.4-0.1-0.9-0.2-1.3c-0.1-0.3-0.2-0.6-0.3-0.8
		c-0.1-0.2-0.3-0.3-0.5-0.2c-0.2,0.1-0.2,0.3-0.2,0.5c0.1,0.3,0.2,0.6,0.3,1c0.1,0.3,0.2,0.7,0.2,1c0.2,0.7,0.1,1.4,0.1,2.1
		c0,0.4,0,0.8-0.1,1.3c0,0.2,0,0.4-0.1,0.6c-0.1,0.5-0.3,1-0.4,1.5c0,0.1-0.1,0.2-0.1,0.3c-0.1,0.3-0.2,0.5-0.3,0.8
		c0,0.1,0,0.1,0,0.2c0,0,0.1,0.1,0.1,0.1c0.1,0,0.1,0,0.2-0.1c0,0,0-0.1,0.1-0.2c0-0.1,0.1-0.2,0.1-0.2c0,0,0,0,0-0.1
		c0.1-0.2,0.1-0.4,0.2-0.6c0-0.1,0.1-0.2,0.1-0.3c0.1-0.2,0.2-0.5,0.2-0.7c0.1-0.4,0.2-0.8,0.3-1.3c0-0.4,0.1-0.7,0.2-1.1
		C163.2,13.8,163.2,13.5,163.3,13.1"/>
	<path clip-path="url(#SVGID_2_)" d="M163.1,37.5c0-0.1,0-0.1,0-0.2c0-0.2,0-0.3,0-0.5c0.1-0.3,0.1-0.7,0-1
		c-0.1-0.4-0.1-0.8-0.2-1.1c-0.1-0.3-0.1-0.5-0.1-0.8c0-0.1,0-0.2-0.1-0.3c0-0.1-0.1-0.2-0.1-0.3c-0.1-0.2-0.2-0.5-0.2-0.7
		c0,0,0,0,0,0c-0.1-0.2-0.1-0.4-0.2-0.6c0-0.1-0.1-0.2-0.2-0.3c0,0-0.1,0-0.1,0c0,0-0.1,0.1,0,0.2c0.1,0.2,0.1,0.3,0.2,0.5
		c0.1,0.2,0.2,0.5,0.3,0.7c0.1,0.4,0.2,0.7,0.3,1.1c0.2,0.6,0.2,1.2,0.2,1.9c0,0.8,0,1.5-0.2,2.3c-0.1,0.3-0.2,0.5-0.3,0.8
		c-0.2,0.4-0.3,0.9-0.5,1.3c0,0,0,0,0,0c-0.1,0.2,0,0.3,0.1,0.4c0.1,0.1,0.3,0.1,0.4,0c0.1-0.1,0.2-0.3,0.3-0.5
		c0.1-0.2,0.2-0.5,0.3-0.8c0.1-0.3,0.1-0.6,0.2-0.9c0-0.1,0.1-0.2,0.1-0.3C163.1,37.9,163.1,37.7,163.1,37.5L163.1,37.5z"/>
	<path clip-path="url(#SVGID_2_)" d="M167.7,13c0,0.5-0.1,0.9-0.3,1.4c-0.1,0.3-0.2,0.7-0.4,1c-0.1,0.2-0.3,0.5-0.4,0.7
		c-0.1,0.1-0.1,0.2-0.1,0.3c-0.2,0.3-0.5,0.6-0.7,0.9c-0.3,0.3-0.5,0.5-0.8,0.8c-0.2,0.2-0.4,0.3-0.5,0.4c0,0-0.1,0.1-0.1,0.1
		c-0.1,0.1-0.1,0.2,0,0.2c0.1,0.1,0.1,0.1,0.2,0c0.2-0.1,0.5-0.3,0.6-0.5c0.4-0.3,0.7-0.7,1-1c0.2-0.2,0.3-0.5,0.5-0.7
		c0.1-0.2,0.2-0.3,0.4-0.4c0.2-0.2,0.3-0.5,0.4-0.8c0,0,0-0.1,0-0.1c0.4-0.3,0.5-0.8,0.7-1.2c0,0,0,0,0-0.1c0.1-0.4,0.1-0.8,0.2-1.2
		c0-0.1,0-0.2,0-0.3c0-0.1,0-0.3-0.1-0.4c-0.1-0.1-0.2-0.2-0.3-0.1c-0.1,0-0.2,0.1-0.2,0.3C167.7,12.6,167.7,12.8,167.7,13"/>
	<path clip-path="url(#SVGID_2_)" d="M168.1,37.2c0-0.5-0.1-0.9-0.3-1.4c-0.2-0.5-0.3-0.9-0.5-1.3c-0.1-0.2-0.2-0.3-0.3-0.5
		c-0.3-0.4-0.7-0.9-1.1-1.3c-0.4-0.5-0.9-0.9-1.4-1.3c-0.2-0.2-0.4-0.3-0.6-0.4c0,0-0.1,0-0.1,0c0,0-0.1,0.1-0.1,0.1
		c0,0.1,0.1,0.2,0.1,0.2c0.2,0.2,0.4,0.3,0.7,0.4c0.1,0.1,0.2,0.2,0.3,0.3c0.3,0.3,0.6,0.5,0.9,0.8c0.4,0.4,0.7,0.8,0.9,1.3
		c0.2,0.4,0.4,0.8,0.6,1.3c0.1,0.2,0.2,0.4,0.3,0.7c0,0.1,0,0.1,0,0.2c0,0.2,0,0.4,0,0.6c0,0.2,0,0.5,0,0.7c0,0.2,0.1,0.3,0.2,0.4
		c0.1,0,0.3-0.1,0.3-0.3C168.1,37.5,168.1,37.3,168.1,37.2"/>
	<path clip-path="url(#SVGID_2_)" d="M172.1,16c-0.1,0-0.2,0.1-0.2,0.2c-0.1,0.2-0.1,0.5-0.2,0.7c-0.2,0.4-0.4,0.9-0.8,1.2
		c-0.2,0.2-0.4,0.4-0.6,0.6c-0.3,0.3-0.6,0.4-0.9,0.6c-0.6,0.3-1.2,0.6-1.8,0.9c-0.2,0.1-0.4,0.1-0.5,0.1c-0.2,0-0.3,0.1-0.4,0.2
		c0,0.1-0.1,0.2,0,0.2c0.1,0,0.2,0.1,0.2,0c0.3-0.1,0.5-0.2,0.8-0.3c0.1,0,0.2-0.1,0.3-0.1c0.4-0.2,0.7-0.3,1.1-0.5
		c0.4-0.2,0.7-0.5,1.1-0.7c0.3-0.1,0.5-0.3,0.8-0.5c0.4-0.3,0.7-0.7,1-1.1c0.2-0.3,0.4-0.7,0.4-1.1C172.6,16.2,172.4,16,172.1,16"/>
	<path clip-path="url(#SVGID_2_)" d="M175.8,24.6c-0.6,0-1.2,0.1-1.8,0.1c-0.4,0-0.8,0-1.3,0c-0.5,0-1.1,0-1.6,0c-0.1,0-0.1,0-0.2,0
		c-0.1,0-0.2,0-0.2,0c-0.1,0-0.1,0.1-0.1,0.2c0,0.1,0.1,0.2,0.2,0.2c0.2,0,0.3,0,0.5,0c0.7,0,1.4,0,2.1,0.1c0.7,0.1,1.4,0.1,2.1,0.1
		c0.3,0,0.6,0,1,0c0.2,0,0.3,0,0.4-0.2c0.1-0.1,0.1-0.2,0-0.3c-0.1-0.1-0.2-0.1-0.2-0.2C176.3,24.7,176,24.6,175.8,24.6
		C175.8,24.6,175.8,24.6,175.8,24.6"/>
	<path clip-path="url(#SVGID_2_)" d="M172.2,34c-0.1-0.2-0.1-0.4-0.2-0.6c-0.2-0.3-0.4-0.6-0.5-0.9c-0.2-0.4-0.5-0.6-0.7-0.9
		c-0.3-0.3-0.6-0.6-0.9-0.9c-0.2-0.2-0.4-0.3-0.6-0.5c-0.5-0.3-0.9-0.6-1.4-0.9c-0.2-0.1-0.3-0.2-0.5-0.3c-0.1,0-0.2-0.1-0.2-0.1
		c-0.1,0-0.2,0-0.2,0.1c0,0.1,0,0.1,0.1,0.2c0.1,0.1,0.2,0.1,0.3,0.2c0.2,0.1,0.5,0.3,0.8,0.4c0.1,0.1,0.3,0.1,0.4,0.2
		c0.2,0.1,0.4,0.2,0.5,0.3c0.3,0.2,0.6,0.5,0.9,0.7c0.2,0.1,0.3,0.3,0.4,0.5c0.2,0.4,0.5,0.7,0.7,1.1c0.2,0.3,0.3,0.6,0.5,0.9
		c0.1,0.2,0.1,0.4,0.2,0.6c0.1,0.1,0.1,0.2,0.2,0.3c0.1,0.1,0.2,0,0.2,0C172.1,34.2,172.1,34.1,172.2,34"/>
	<path clip-path="url(#SVGID_2_)" d="M169.4,23c0.5-0.1,1-0.2,1.5-0.3c0.4-0.1,0.8-0.2,1.2-0.4c0.4-0.2,0.8-0.3,1.1-0.5
		c0.3-0.1,0.5-0.3,0.8-0.4c0.3-0.2,0.6-0.5,0.9-0.8c0.2-0.2,0.2-0.4,0.2-0.6c0-0.1-0.1-0.2-0.1-0.2c-0.1,0-0.2,0-0.3,0.1
		c-0.1,0-0.1,0.1-0.2,0.2c-0.1,0.1-0.2,0.3-0.3,0.4c0,0-0.1,0.1-0.1,0.1c-0.2,0.2-0.3,0.4-0.6,0.5c-0.3,0.2-0.6,0.4-1,0.6
		c-0.2,0.1-0.4,0.2-0.6,0.3c-0.4,0.2-0.8,0.2-1.2,0.3c-0.2,0-0.3,0.1-0.5,0.1c-0.3,0.1-0.6,0.1-0.9,0.1c-0.1,0-0.2,0-0.2,0
		c-0.1,0-0.2,0.1-0.1,0.2c0,0.1,0.1,0.2,0.2,0.2C169.2,22.9,169.3,22.9,169.4,23C169.4,22.9,169.4,23,169.4,23"/>
	<path clip-path="url(#SVGID_2_)" d="M157.3,18C157.3,18,157.3,18,157.3,18c-0.1-0.1-0.2-0.1-0.3-0.2c-0.1-0.1-0.3-0.2-0.5-0.3
		c-0.2-0.1-0.4-0.1-0.6-0.2c-0.2-0.1-0.4-0.1-0.5-0.3c-0.1-0.1,0-0.3,0.1-0.3c0.2,0,0.4,0,0.5,0.1c0.2,0.1,0.3,0.2,0.5,0.3
		c0.2,0.2,0.4,0.4,0.6,0.6C157.3,17.8,157.3,17.9,157.3,18 M155.6,16.3c-0.3,0-0.5,0.3-0.5,0.6c0,0.3,0.2,0.6,0.5,0.7
		c0.1,0.1,0.3,0.1,0.5,0.1c0.1,0,0.2,0.1,0.3,0.1c0.1,0,0.3,0.1,0.4,0.1c0.3,0.1,0.5,0.3,0.7,0.5c0.2,0.2,0.4,0.4,0.5,0.6
		c0.2,0.4,0.3,0.8,0.4,1.2c0,0.1,0.1,0.2,0.1,0.2c0.1,0.1,0.2,0,0.2-0.1c0-0.1,0-0.2,0-0.4c0-0.1,0-0.2-0.1-0.3
		c-0.1-0.2-0.1-0.4-0.2-0.7c-0.1-0.3-0.3-0.6-0.4-0.9c0-0.1-0.1-0.2-0.2-0.3c-0.2-0.2-0.3-0.5-0.5-0.7c0,0,0,0-0.1-0.1
		c-0.1-0.3-0.4-0.4-0.6-0.6C156.2,16.4,155.9,16.4,155.6,16.3"/>
	<path clip-path="url(#SVGID_2_)" d="M155.8,33.3c0,0-0.1,0-0.1,0c-0.2,0-0.3-0.1-0.4-0.3c-0.1-0.1,0.1-0.1,0.1-0.2c0,0,0,0,0,0
		c0-0.1,0.1-0.2,0.2-0.2c0.2,0,0.3,0,0.5,0c0.3,0,0.5-0.1,0.7-0.3c0,0,0.1-0.1,0.1-0.1c0.1,0,0.1,0,0.1,0.1c0,0.1-0.1,0.2-0.1,0.2
		c-0.2,0.2-0.4,0.5-0.7,0.7C156.1,33.2,156,33.2,155.8,33.3 M155.7,32.2c-0.4,0-0.6,0.2-0.7,0.5c-0.1,0.3,0.2,0.7,0.4,0.7
		c0.3,0.1,0.5,0.1,0.8,0c0.3-0.1,0.6-0.3,0.8-0.5c0.1-0.2,0.3-0.4,0.4-0.6c0.1-0.1,0.1-0.2,0.2-0.3c0.3-0.4,0.4-0.8,0.6-1.3
		c0.1-0.4,0.2-0.8,0.3-1.2c0-0.1,0-0.2,0-0.3c0,0-0.1-0.1-0.2-0.1c0,0-0.1,0.1-0.1,0.1c-0.1,0.3-0.1,0.6-0.1,0.9
		c0,0.1-0.1,0.2-0.1,0.3c-0.1,0.2-0.2,0.4-0.3,0.6c-0.2,0.3-0.4,0.6-0.7,0.8c-0.2,0.1-0.4,0.2-0.7,0.2
		C156,32.2,155.8,32.2,155.7,32.2"/>
	<path clip-path="url(#SVGID_2_)" d="M175.1,29.8c0-0.2-0.2-0.4-0.3-0.5c-0.4-0.4-0.9-0.7-1.3-1.1c-0.1-0.1-0.3-0.1-0.4-0.2
		c-0.2-0.1-0.4-0.2-0.5-0.3c-0.1-0.1-0.2-0.1-0.3-0.1c-0.3-0.1-0.6-0.3-1-0.4c-0.5-0.2-1.1-0.3-1.6-0.5c-0.1,0-0.2,0-0.3,0
		c-0.1,0-0.1,0.1-0.1,0.1c0,0.1,0,0.1,0.1,0.2c0,0,0.1,0,0.1,0.1c0.3,0.1,0.6,0.1,0.9,0.2c0.1,0,0.2,0.1,0.3,0.1
		c0.1,0,0.2,0,0.2,0.1c0,0,0,0,0.1,0c0.2,0.1,0.4,0.2,0.6,0.2c0.1,0.1,0.3,0.1,0.4,0.2c0.3,0.1,0.6,0.3,0.8,0.5
		c0.3,0.2,0.5,0.3,0.8,0.5c0.1,0.1,0.3,0.2,0.4,0.3c0.2,0.1,0.3,0.3,0.4,0.4c0.1,0.1,0.2,0.3,0.3,0.4c0.1,0.1,0.2,0.1,0.2,0.1
		C175,30.1,175.1,30,175.1,29.8"/>
	<path clip-path="url(#SVGID_2_)" d="M154.9,24.9c-0.1-0.2,0.1-0.4,0.2-0.5c0.1-0.2,0.4-0.3,0.7-0.4c0.3-0.1,0.7,0.1,0.9,0.4
		c0.2,0.3,0.3,0.6,0.2,0.9c0,0.1-0.1,0.2-0.2,0.3c-0.2,0.3-0.4,0.4-0.8,0.5C155.4,26.1,154.8,25.4,154.9,24.9 M154.6,24.9
		c0,0.3,0.1,0.6,0.3,0.8c0.1,0.1,0.1,0.2,0.2,0.3c0.1,0.1,0.2,0.2,0.4,0.2c0.1,0,0.3,0.1,0.4,0.1c0.3,0,0.6-0.1,0.8-0.3
		c0.3-0.3,0.5-0.6,0.5-1.1c0,0,0-0.1,0-0.1c-0.1-0.3-0.2-0.7-0.5-0.9c-0.3-0.3-0.7-0.3-1.1-0.2C155,23.8,154.5,24.3,154.6,24.9"/>
	<path clip-path="url(#SVGID_2_)" d="M162,25.1c0-0.5,0.1-0.7,0.4-1c0.2-0.2,0.5-0.4,0.9-0.3c0.1,0,0.1,0,0.2,0c0.1,0,0.2,0,0.2,0.1
		c0.1,0,0.2,0.1,0.3,0.2c0.3,0.2,0.5,0.5,0.5,0.9c0,0.1,0,0.1,0,0.2c0,0.3-0.1,0.5-0.3,0.7c-0.1,0.1-0.3,0.2-0.4,0.3
		c-0.1,0-0.2,0.1-0.3,0.1c-0.3,0.1-0.5,0-0.8-0.1c-0.1-0.1-0.2-0.2-0.3-0.2C162.2,25.6,161.9,25.4,162,25.1 M161.6,25
		c0,0.3,0.1,0.6,0.3,0.9c0.3,0.4,0.7,0.6,1.2,0.7c0.6,0.1,1.2-0.3,1.5-0.8c0.2-0.3,0.2-0.6,0.2-0.9c-0.1-0.5-0.4-0.9-0.8-1.2
		c-0.3-0.2-0.6-0.2-1-0.1c-0.4,0-0.7,0.2-0.9,0.5c-0.1,0.2-0.3,0.3-0.3,0.5C161.7,24.6,161.7,24.8,161.6,25"/>
</g>
<line fill="none" stroke="#000000" stroke-width="0.5" x1="41.1" y1="24.9" x2="142.1" y2="24.9"/>
<g>
	<g>
		<path d="M74.1,71.4c0,0.9,0.1,1.1,0.9,1.1v0.3h-2.1v-0.3c0.7,0,0.9-0.2,0.9-1.1v-2.8c0-0.9-0.1-1.1-0.9-1.1v-0.3h1.8l1.7,3.9
			l1.7-3.9h1.8v0.3c-0.8,0-0.9,0.2-0.9,1.1v2.8c0,0.9,0.1,1.1,0.9,1.1v0.3H77v-0.3c0.7,0,0.9-0.2,0.9-1.1v-2.6l-1.8,4.1h-0.2
			l-1.8-4.1V71.4z"/>
		<path d="M84.2,72.8c-1.6,0-3-1.3-3-2.9s1.4-2.9,3-2.9c1.7,0,3,1.3,3,2.9S85.9,72.8,84.2,72.8z M84.2,67.6c-1.3,0-1.8,1.3-1.8,2.4
			c0,1.1,0.5,2.4,1.8,2.4c1.3,0,1.8-1.3,1.8-2.4C86,68.9,85.5,67.6,84.2,67.6z"/>
		<path d="M93.5,68.6c0-0.9-0.1-1.1-0.9-1.1v-0.3h2.1v0.3c-0.8,0-0.9,0.2-0.9,1.1v4.2h-0.2l-3.7-4.4v3c0,0.9,0.1,1.1,0.9,1.1v0.3
			h-2.1v-0.3c0.7,0,0.9-0.2,0.9-1.1v-2.8c0-0.9-0.1-1.1-0.9-1.1v-0.3h1.8l3,3.6V68.6z"/>
		<path d="M95.8,72.4c0.7,0,0.9-0.2,0.9-1.1v-2.8c0-0.9-0.1-1.1-0.9-1.1v-0.3h3c2.1,0,3,1.2,3,2.7s-0.9,2.7-3,2.7h-3V72.4z
			 M97.8,71.3c0,0.9,0.1,1,0.9,1h0.1c1.5,0,1.8-1.3,1.8-2.3c0-1-0.3-2.3-1.8-2.3c-0.1,0-1,0-1,0V71.3z"/>
		<path d="M103.5,71.7c-0.2,0.5-0.1,0.7,0.7,0.7v0.3H102v-0.3c0.6,0,0.8-0.2,1.1-0.8l2-4.5h0.2l2,4.5c0.3,0.6,0.4,0.8,1.1,0.8v0.3
			h-3v-0.3c0.8,0,0.9-0.2,0.7-0.7l-0.4-0.9h-1.8L103.5,71.7z M104.8,68.8l-0.7,1.6h1.4L104.8,68.8z"/>
		<path d="M112.7,68.3l-1.3,1.9v1.1c0,0.9,0.1,1.1,0.9,1.1v0.3h-2.8v-0.3c0.7,0,0.9-0.2,0.9-1.1v-1.1l-1.3-2
			c-0.4-0.6-0.7-0.8-1.3-0.8v-0.3h3.1v0.3c-0.6,0-0.8,0.2-0.5,0.7l1,1.5l1-1.5c0.3-0.5,0.2-0.7-0.5-0.7v-0.3h2.2v0.3
			C113.2,67.5,113.1,67.7,112.7,68.3z"/>
	</g>
	<g>
		<path d="M49.3,78.5v-0.2h2.3v0.2c-0.7,0-0.8,0.2-0.8,1.2v1.4c0,1,0.1,1.2,0.8,1.2h0.3c0.9,0,1-0.2,1.2-0.6l0-0.2h0.2l-0.1,1.2h-4
			v-0.2c0.7,0,0.8-0.2,0.8-1.2v-1.6C50.1,78.7,50,78.5,49.3,78.5z"/>
		<path d="M56.8,82.8c-1.3,0-2.4-1-2.4-2.3c0-1.3,1.1-2.3,2.4-2.3s2.4,1.1,2.4,2.3C59.2,81.8,58.1,82.8,56.8,82.8z M56.8,78.6
			c-1.2,0-1.6,1.1-1.6,1.9c0,0.9,0.4,1.9,1.6,1.9s1.6-1.1,1.6-1.9C58.4,79.6,58,78.6,56.8,78.6z"/>
		<path d="M60.8,82.5c0.7,0,0.8-0.2,0.8-1.2v-1.6c0-1-0.1-1.2-0.8-1.2v-0.2h1.1h1c0.9,0,1.4,0.5,1.4,1.1c0,0.3-0.2,0.7-0.4,0.9
			c0.5,0.2,0.8,0.6,0.8,1.1c0,0.7-0.6,1.2-1.6,1.2h-1.2h-1.1V82.5z M62.8,78.7h-0.6v1.5h0.6c0.5,0,0.7-0.3,0.7-0.7
			C63.5,79.1,63.3,78.7,62.8,78.7z M63.1,80.6h-0.8v1c0,0.6,0.1,0.8,0.6,0.8h0.2c0.6,0,0.8-0.4,0.8-0.8S63.6,80.6,63.1,80.6z"/>
		<path d="M67.8,82.8c-0.5,0-0.9-0.2-1.1-0.4c-0.1,0.1-0.2,0.2-0.2,0.4h-0.2v-1.7h0.2c0.1,0.8,0.6,1.3,1.4,1.3
			c0.4,0,0.8-0.2,0.8-0.7c0-0.3-0.3-0.6-0.8-0.9l-0.7-0.3c-0.5-0.2-0.8-0.7-0.8-1.2c0-0.6,0.5-1.1,1.2-1.1c0.4,0,0.7,0.1,0.9,0.3
			c0-0.1,0.1-0.2,0.1-0.3h0.2v1.7h-0.2c-0.1-0.6-0.3-1.3-1-1.3c-0.4,0-0.7,0.2-0.7,0.6c0,0.3,0.3,0.5,0.9,0.9l0.7,0.3
			c0.6,0.3,0.8,0.7,0.8,1.1C69.2,82.3,68.6,82.8,67.8,82.8z"/>
		<path d="M71.6,78.7c-0.9,0-1,0.2-1.1,0.6l0,0.2h-0.2l0.1-1.2h4.5l0.1,1.2h-0.2l-0.1-0.2c-0.1-0.5-0.2-0.6-1.2-0.6h-0.5v2.6
			c0,1,0.1,1.2,0.8,1.2v0.2h-2.3v-0.2c0.7,0,0.8-0.2,0.8-1.2v-2.6H71.6z"/>
		<path d="M79.3,81.7l0-0.2h0.2l-0.1,1.2h-3.7v-0.2c0.7,0,0.8-0.2,0.8-1.2v-1.6c0-1-0.1-1.2-0.8-1.2v-0.2H78h1.3l0.1,1.2h-0.2
			l-0.1-0.2c-0.1-0.5-0.2-0.6-1.1-0.6h-0.7v1.5h0.1c1,0,1.1-0.1,1.1-0.8h0.2v1.9h-0.2c0-0.7-0.1-0.8-1.1-0.8h-0.1v0.6
			c0,1,0.1,1.2,0.8,1.2h0.1C79.1,82.3,79.2,82.1,79.3,81.7z"/>
		<path d="M84.1,81.5c0.4,0.5,0.9,0.9,1.3,0.9v0.2h-1.3l-1.4-1.9h-0.3v0.5c0,1,0.1,1.2,0.8,1.2v0.2H81v-0.2c0.7,0,0.8-0.2,0.8-1.2
			v-1.6c0-1-0.1-1.2-0.8-1.2v-0.2h2.1c1,0,1.6,0.5,1.6,1.2c0,0.6-0.5,1.1-1.2,1.2L84.1,81.5z M83.1,78.7h-0.6v1.7h0.6
			c0.6,0,0.8-0.4,0.8-0.9C83.9,79.1,83.7,78.7,83.1,78.7z"/>
		<path d="M91.5,82.5v0.2h-2.3v-0.2c0.7,0,0.8-0.2,0.8-1.2v-1.6c0-1-0.1-1.2-0.8-1.2v-0.2h2.1c1,0,1.6,0.5,1.6,1.2
			c0,0.7-0.6,1.2-1.6,1.2h-0.6v0.5C90.7,82.3,90.8,82.5,91.5,82.5z M91.3,78.7h-0.6v1.7h0.6c0.6,0,0.8-0.4,0.8-0.9
			C92.1,79.1,91.8,78.7,91.3,78.7z"/>
		<path d="M96.6,82.8c-1.3,0-2.4-1-2.4-2.3c0-1.3,1.1-2.3,2.4-2.3c1.3,0,2.4,1.1,2.4,2.3C99,81.8,97.9,82.8,96.6,82.8z M96.6,78.6
			c-1.2,0-1.6,1.1-1.6,1.9c0,0.9,0.4,1.9,1.6,1.9c1.2,0,1.6-1.1,1.6-1.9C98.2,79.6,97.8,78.6,96.6,78.6z"/>
		<path d="M101.5,78.7c-0.9,0-1,0.2-1.1,0.6l0,0.2h-0.2l0.1-1.2h4.5l0.1,1.2h-0.2l-0.1-0.2c-0.1-0.5-0.2-0.6-1.2-0.6h-0.5v2.6
			c0,1,0.1,1.2,0.8,1.2v0.2h-2.3v-0.2c0.7,0,0.8-0.2,0.8-1.2v-2.6H101.5z"/>
		<path d="M110.8,82.5v0.2h-2.3v-0.2c0.7,0,0.8-0.2,0.8-1.2v-1.6c0-1-0.1-1.2-0.8-1.2v-0.2h2.1c1,0,1.6,0.5,1.6,1.2
			c0,0.7-0.6,1.2-1.6,1.2H110v0.5C110,82.3,110.1,82.5,110.8,82.5z M110.6,78.7H110v1.7h0.6c0.6,0,0.8-0.4,0.8-0.9
			C111.4,79.1,111.2,78.7,110.6,78.7z"/>
		<path d="M113.4,82.7v-0.2c0.7,0,0.8-0.2,0.8-1.2v-1.6c0-1-0.1-1.2-0.8-1.2v-0.2h2.3v0.2c-0.7,0-0.8,0.2-0.8,1.2v1.6
			c0,1,0.1,1.2,0.8,1.2v0.2H113.4z"/>
		<path d="M120.6,81.7l0-0.2h0.2l-0.1,1.2h-3.7v-0.2c0.7,0,0.8-0.2,0.8-1.2v-1.6c0-1-0.1-1.2-0.8-1.2v-0.2h2.2h1.3l0.1,1.2h-0.2
			l0-0.2c-0.1-0.5-0.2-0.6-1.1-0.6h-0.7v1.5h0.1c1,0,1.1-0.1,1.1-0.8h0.2v1.9h-0.2c0-0.7-0.1-0.8-1.1-0.8h-0.1v0.6
			c0,1,0.1,1.2,0.8,1.2h0.1C120.4,82.3,120.5,82.1,120.6,81.7z"/>
		<path d="M128.2,82.4l1.8-1.6c0.4-0.3,0.6-0.8,0.6-1.1c0-0.7-0.4-1.1-1-1.1c-0.6,0-1.2,0.7-0.7,1.5l-0.3,0.3c-1-0.7-0.5-2.2,1-2.2
			c0.9,0,1.7,0.5,1.7,1.3c0,0.8-0.8,1.4-0.8,1.4l-1.3,1.2h2.3l-0.1,0.6h-3.1V82.4z"/>
		<path d="M135,82.8c-0.9,0-1.6-0.6-1.6-1.2c0-0.7,0.6-1,1.1-1.3c-0.4-0.3-0.9-0.6-0.9-1c0-0.6,0.7-1.1,1.4-1.1c0.8,0,1.4,0.4,1.4,1
			c0,0.5-0.5,0.8-1,1c0.6,0.3,1.2,0.6,1.2,1.3C136.7,82.3,135.9,82.8,135,82.8z M134.8,80.5c-0.4,0.2-0.8,0.5-0.8,1.1
			c0,0.5,0.4,0.9,1,0.9c0.6,0,1-0.4,1-0.8C136,81.1,135.4,80.8,134.8,80.5z M135,78.5c-0.4,0-0.7,0.3-0.7,0.6c0,0.4,0.5,0.7,0.9,0.9
			c0.3-0.2,0.6-0.5,0.6-0.9C135.8,78.8,135.5,78.5,135,78.5z"/>
	</g>
	<g>
		<path d="M77.5,98.3h-0.3l0-0.2c-0.1-0.5-0.2-0.7-1-0.7h-0.9v3.7c0,0.9,0.1,1.1,0.9,1.1v0.3h-2.8v-0.3c0.7,0,0.9-0.2,0.9-1.1v-3.7
			h-0.9c-0.8,0-0.9,0.2-1,0.7l0,0.2h-0.3l0.1-1.3h5.5L77.5,98.3z"/>
		<path d="M82.1,97.3v-0.3h2.2v0.3c-0.7,0-0.9,0.2-0.9,1.1v2.1c0,1.4-1,2.2-2.2,2.2c-1.2,0-2.2-0.7-2.2-2.2v-2.1
			c0-0.9-0.1-1.1-0.9-1.1v-0.3h2.9v0.3c-0.8,0-0.9,0.2-0.9,1.1v2c0,1.2,0.6,1.7,1.4,1.7s1.3-0.5,1.3-1.7v-2
			C83,97.5,82.9,97.3,82.1,97.3z"/>
		<path d="M85.4,102.2c0.7,0,0.9-0.2,0.9-1.1v-2.8c0-0.9-0.1-1.1-0.9-1.1v-0.3H90l0.1,1.3h-0.3l0-0.2c-0.1-0.5-0.2-0.7-1-0.7h-1.4
			v1.9h0.5c0.9,0,1-0.1,1-0.9h0.3v2.1h-0.3c0-0.8-0.1-0.9-1-0.9h-0.5v1.2c0,0.9,0.1,1.1,0.9,1.1h0.8c0.8,0,0.9-0.2,1-0.7l0-0.2h0.3
			l-0.1,1.3h-4.9V102.2z"/>
		<path d="M92,102.6h-0.3v-2H92c0.2,1,0.9,1.6,1.7,1.6c0.5,0,0.9-0.3,0.9-0.9c0-0.3-0.2-0.7-0.7-0.9L93,100
			c-0.8-0.4-1.2-0.8-1.2-1.7c0-0.7,0.7-1.4,1.6-1.4c0.5,0,0.8,0.2,1.1,0.4c0.1-0.1,0.2-0.2,0.3-0.4H95v2h-0.3
			c-0.1-0.7-0.4-1.5-1.3-1.5c-0.4,0-0.7,0.3-0.7,0.7c0,0.3,0.2,0.7,0.7,0.9l0.9,0.4c0.6,0.3,1.2,0.9,1.2,1.6c0,1-0.9,1.6-1.8,1.6
			c-0.7,0-1.1-0.4-1.4-0.4C92.1,102.3,92,102.4,92,102.6z"/>
		<path d="M96.6,102.2c0.7,0,0.9-0.2,0.9-1.1v-2.8c0-0.9-0.1-1.1-0.9-1.1v-0.3h3c2.1,0,3,1.2,3,2.7s-0.9,2.7-3,2.7h-3V102.2z
			 M98.5,101.1c0,0.9,0.1,1,0.9,1h0.1c1.5,0,1.8-1.3,1.8-2.3c0-1-0.3-2.3-1.8-2.3c-0.1,0-1,0-1,0V101.1z"/>
		<path d="M104.2,101.5c-0.2,0.5-0.1,0.7,0.7,0.7v0.3h-2.2v-0.3c0.6,0,0.8-0.2,1.1-0.8l2-4.5h0.2l2,4.5c0.3,0.6,0.4,0.8,1.1,0.8v0.3
			h-3v-0.3c0.8,0,0.9-0.2,0.7-0.7l-0.4-0.9h-1.8L104.2,101.5z M105.5,98.6l-0.7,1.6h1.4L105.5,98.6z"/>
		<path d="M113.4,98.1l-1.3,1.9v1.1c0,0.9,0.1,1.1,0.9,1.1v0.3h-2.8v-0.3c0.7,0,0.9-0.2,0.9-1.1v-1.1l-1.3-2
			c-0.4-0.6-0.7-0.8-1.3-0.8v-0.3h3.1v0.3c-0.6,0-0.8,0.2-0.5,0.7l1,1.5l1-1.5c0.3-0.5,0.2-0.7-0.5-0.7v-0.3h2.2v0.3
			C113.9,97.3,113.8,97.5,113.4,98.1z"/>
	</g>
	<g>
		<path d="M52.7,112.3c0.7,0,0.8-0.2,0.8-1.2v-1.6c0-1-0.1-1.2-0.8-1.2v-0.2h1.1h1c0.9,0,1.4,0.5,1.4,1.1c0,0.4-0.2,0.7-0.4,0.9
			c0.5,0.2,0.8,0.6,0.8,1.1c0,0.7-0.6,1.2-1.6,1.2h-1.2h-1.1V112.3z M54.8,108.5h-0.6v1.5h0.6c0.5,0,0.7-0.3,0.7-0.7
			C55.5,108.9,55.3,108.5,54.8,108.5z M55,110.4h-0.8v1c0,0.6,0.1,0.8,0.6,0.8H55c0.6,0,0.8-0.4,0.8-0.8S55.6,110.4,55,110.4z"/>
		<path d="M60.7,112.6c-1.3,0-2.4-1-2.4-2.3c0-1.3,1.1-2.3,2.4-2.3s2.4,1.1,2.4,2.3C63.1,111.6,62,112.6,60.7,112.6z M60.7,108.4
			c-1.2,0-1.6,1.1-1.6,1.9c0,0.9,0.4,1.9,1.6,1.9s1.6-1.1,1.6-1.9C62.3,109.4,61.9,108.4,60.7,108.4z"/>
		<path d="M67,112.2c0.7,0,1.2-0.4,1.2-1.3v-1.4c0-1-0.1-1.2-0.8-1.2v-0.2h2v0.2c-0.7,0-0.8,0.2-0.8,1.2v1.3c0,1.2-0.8,1.8-1.8,1.8
			s-1.8-0.6-1.8-1.8v-1.3c0-1-0.1-1.2-0.8-1.2v-0.2h2.3v0.2c-0.7,0-0.8,0.2-0.8,1.2v1.4C65.8,111.8,66.3,112.2,67,112.2z"/>
		<path d="M70.7,112.5v-0.2c0.7,0,0.8-0.2,0.8-1.2v-1.6c0-1-0.1-1.2-0.8-1.2v-0.2H73v0.2c-0.7,0-0.8,0.2-0.8,1.2v1.6
			c0,1,0.1,1.2,0.8,1.2v0.2H70.7z"/>
		<path d="M74.4,108.3v-0.2h2.3v0.2c-0.7,0-0.8,0.2-0.8,1.2v1.4c0,1,0.1,1.2,0.8,1.2h0.3c0.9,0,1-0.2,1.2-0.6l0-0.2h0.2l-0.1,1.2h-4
			v-0.2c0.7,0,0.8-0.2,0.8-1.2v-1.6C75.2,108.5,75.1,108.3,74.4,108.3z"/>
		<path d="M79.4,108.3v-0.2h2.3v0.2c-0.7,0-0.8,0.2-0.8,1.2v1.4c0,1,0.1,1.2,0.8,1.2H82c0.9,0,1-0.2,1.2-0.6l0-0.2h0.2l-0.1,1.2h-4
			v-0.2c0.7,0,0.8-0.2,0.8-1.2v-1.6C80.1,108.5,80,108.3,79.4,108.3z"/>
		<path d="M85.2,111.5c-0.2,0.6-0.2,0.8,0.5,0.8v0.2h-1.9v-0.2c0.6,0,0.7-0.1,1-0.9l1.5-3.4h0.1l1.5,3.4c0.3,0.7,0.4,0.9,1,0.9v0.2
			h-2.2v-0.2c0.7,0,0.8-0.2,0.5-0.8L87,111h-1.6L85.2,111.5z M86.2,109.1l-0.7,1.5h1.3L86.2,109.1z"/>
		<path d="M89.9,112.3c0.7,0,0.8-0.2,0.8-1.2v-1.6c0-1-0.1-1.2-0.8-1.2v-0.2H91h1c0.9,0,1.4,0.5,1.4,1.1c0,0.4-0.2,0.7-0.4,0.9
			c0.5,0.2,0.8,0.6,0.8,1.1c0,0.7-0.6,1.2-1.6,1.2H91h-1.1V112.3z M92,108.5h-0.6v1.5H92c0.5,0,0.7-0.3,0.7-0.7
			C92.7,108.9,92.5,108.5,92,108.5z M92.2,110.4h-0.8v1c0,0.6,0.1,0.8,0.6,0.8h0.2c0.6,0,0.8-0.4,0.8-0.8S92.8,110.4,92.2,110.4z"/>
		<path d="M96.2,111.5c-0.2,0.6-0.2,0.8,0.5,0.8v0.2h-1.9v-0.2c0.6,0,0.7-0.1,1-0.9l1.5-3.4h0.1l1.5,3.4c0.3,0.7,0.4,0.9,1,0.9v0.2
			h-2.2v-0.2c0.7,0,0.8-0.2,0.5-0.8l-0.2-0.5h-1.6L96.2,111.5z M97.3,109.1l-0.7,1.5h1.3L97.3,109.1z"/>
		<path d="M101,112.5v-0.2c0.7,0,0.8-0.2,0.8-1.2v-1.6c0-1-0.1-1.2-0.8-1.2v-0.2h2.3v0.2c-0.7,0-0.8,0.2-0.8,1.2v1.6
			c0,1,0.1,1.2,0.8,1.2v0.2H101z"/>
		<path d="M106.3,112.6c-0.5,0-0.9-0.2-1.1-0.4c-0.1,0.1-0.2,0.2-0.2,0.4h-0.2v-1.7h0.2c0.1,0.8,0.6,1.3,1.4,1.3
			c0.4,0,0.8-0.2,0.8-0.7c0-0.3-0.3-0.6-0.8-0.9l-0.7-0.3c-0.5-0.2-0.8-0.7-0.8-1.2c0-0.6,0.5-1.1,1.2-1.1c0.4,0,0.7,0.1,1,0.3
			c0-0.1,0.1-0.2,0.1-0.3h0.2v1.7h-0.2c-0.1-0.6-0.3-1.3-1-1.3c-0.4,0-0.7,0.2-0.7,0.6c0,0.3,0.3,0.5,0.9,0.9l0.7,0.3
			c0.6,0.3,0.8,0.7,0.8,1.1C107.8,112.1,107.1,112.6,106.3,112.6z"/>
		<path d="M110.8,112.6c-0.5,0-0.9-0.2-1.1-0.4c-0.1,0.1-0.2,0.2-0.2,0.4h-0.2v-1.7h0.2c0.1,0.8,0.6,1.3,1.4,1.3
			c0.4,0,0.8-0.2,0.8-0.7c0-0.3-0.3-0.6-0.8-0.9l-0.7-0.3c-0.5-0.2-0.8-0.7-0.8-1.2c0-0.6,0.5-1.1,1.2-1.1c0.4,0,0.7,0.1,0.9,0.3
			c0.1-0.1,0.1-0.2,0.2-0.3h0.2v1.7h-0.2c-0.1-0.6-0.3-1.3-1-1.3c-0.4,0-0.7,0.2-0.7,0.6c0,0.3,0.3,0.5,0.9,0.9l0.7,0.3
			c0.6,0.3,0.8,0.7,0.8,1.1C112.2,112.1,111.6,112.6,110.8,112.6z"/>
		<path d="M117.2,111.5l0-0.2h0.2l-0.1,1.2h-3.7v-0.2c0.7,0,0.8-0.2,0.8-1.2v-1.6c0-1-0.1-1.2-0.8-1.2v-0.2h2.2h1.3l0.1,1.2H117
			l-0.1-0.2c-0.1-0.5-0.2-0.6-1.1-0.6h-0.7v1.5h0.1c1,0,1.1-0.1,1.1-0.8h0.2v1.9h-0.2c0-0.7-0.1-0.8-1.1-0.8h-0.1v0.6
			c0,1,0.1,1.2,0.8,1.2h0.1C117,112.1,117.1,111.9,117.2,111.5z"/>
		<path d="M124.8,112.2l1.8-1.6c0.4-0.3,0.6-0.8,0.6-1.1c0-0.7-0.4-1.1-1-1.1c-0.6,0-1.2,0.7-0.7,1.5l-0.3,0.3c-1-0.7-0.5-2.2,1-2.2
			c0.9,0,1.7,0.5,1.7,1.3c0,0.8-0.8,1.4-0.8,1.4l-1.3,1.2h2.3l-0.1,0.6h-3.1V112.2z"/>
		<path d="M133,112.3v0.2h-2.3v-0.2c0.7,0,0.8-0.2,0.8-1.1h-1.9V111l2.4-3.1h0.3v3c0.5,0,0.7-0.1,0.8-0.8l0.1-0.2h0.2l-0.1,1.3h-1
			C132.2,112.1,132.4,112.3,133,112.3z M131.5,109l-1.4,1.8h1.4V109z"/>
	</g>
	<g>
		<path d="M70.9,127.9l-1.5,4.5h-0.2l-1.1-3.5l-1.1,3.5h-0.2l-1.4-4.5c-0.2-0.6-0.3-0.8-1.1-0.8v-0.3h2.8v0.3
			c-0.7,0-0.9,0.2-0.7,0.7l0.8,2.5l1.1-3.5h0.2l1.1,3.5l0.8-2.5c0.2-0.5,0-0.7-0.6-0.7v-0.3H72v0.3
			C71.2,127.1,71.1,127.3,70.9,127.9z"/>
		<path d="M72.3,132c0.7,0,0.9-0.2,0.9-1.1v-2.8c0-0.9-0.1-1.1-0.9-1.1v-0.3h4.6l0.1,1.3h-0.3l0-0.2c-0.1-0.5-0.2-0.7-1-0.7h-1.4
			v1.9h0.5c0.9,0,1-0.1,1-0.9h0.3v2.1h-0.3c0-0.8-0.1-0.9-1-0.9h-0.5v1.2c0,0.9,0.1,1.1,0.9,1.1h0.8c0.8,0,0.9-0.2,1-0.7l0-0.2h0.3
			l-0.1,1.3h-4.9V132z"/>
		<path d="M78.5,132c0.7,0,0.9-0.2,0.9-1.1v-2.8c0-0.9-0.1-1.1-0.9-1.1v-0.3h3c2.1,0,3,1.2,3,2.7s-0.9,2.7-3,2.7h-3V132z
			 M80.5,130.9c0,0.9,0.1,1,0.9,1h0.1c1.5,0,1.8-1.3,1.8-2.3c0-1-0.3-2.3-1.8-2.3c-0.1,0-1,0-1,0V130.9z"/>
		<path d="M90.2,128.2c0-0.9-0.1-1.1-0.9-1.1v-0.3h2.1v0.3c-0.8,0-0.9,0.2-0.9,1.1v4.2h-0.2l-3.7-4.4v3c0,0.9,0.1,1.1,0.9,1.1v0.3
			h-2.1V132c0.7,0,0.9-0.2,0.9-1.1v-2.8c0-0.9-0.1-1.1-0.9-1.1v-0.3h1.8l3,3.6V128.2z"/>
		<path d="M92.6,132c0.7,0,0.9-0.2,0.9-1.1v-2.8c0-0.9-0.1-1.1-0.9-1.1v-0.3h4.6l0.1,1.3H97l0-0.2c-0.1-0.5-0.2-0.7-1-0.7h-1.4v1.9
			H95c0.9,0,1-0.1,1-0.9h0.3v2.1h-0.3c0-0.8-0.1-0.9-1-0.9h-0.5v1.2c0,0.9,0.1,1.1,0.9,1.1h0.8c0.8,0,0.9-0.2,1-0.7l0-0.2h0.3
			l-0.1,1.3h-4.9V132z"/>
		<path d="M99.1,132.4h-0.3v-2h0.3c0.2,1,0.9,1.6,1.7,1.6c0.5,0,0.9-0.3,0.9-0.9c0-0.3-0.2-0.7-0.7-0.9l-0.9-0.5
			c-0.8-0.4-1.2-0.8-1.2-1.7c0-0.7,0.7-1.4,1.6-1.4c0.5,0,0.8,0.2,1.1,0.4c0.1-0.1,0.2-0.2,0.3-0.4h0.3v2h-0.3
			c-0.1-0.7-0.4-1.5-1.3-1.5c-0.4,0-0.7,0.3-0.7,0.7c0,0.3,0.2,0.7,0.7,0.9l0.9,0.4c0.6,0.3,1.2,0.9,1.2,1.6c0,1-0.9,1.6-1.8,1.6
			c-0.7,0-1.1-0.4-1.4-0.4C99.3,132.1,99.2,132.2,99.1,132.4z"/>
		<path d="M103.7,132c0.7,0,0.9-0.2,0.9-1.1v-2.8c0-0.9-0.1-1.1-0.9-1.1v-0.3h3c2.1,0,3,1.2,3,2.7s-0.9,2.7-3,2.7h-3V132z
			 M105.7,130.9c0,0.9,0.1,1,0.9,1h0.1c1.5,0,1.8-1.3,1.8-2.3c0-1-0.3-2.3-1.8-2.3c-0.1,0-1,0-1,0V130.9z"/>
		<path d="M111.4,131.3c-0.2,0.5-0.1,0.7,0.7,0.7v0.3h-2.2V132c0.6,0,0.8-0.2,1.1-0.8l2-4.5h0.2l2,4.5c0.3,0.6,0.4,0.8,1.1,0.8v0.3
			h-3V132c0.8,0,0.9-0.2,0.7-0.7l-0.4-0.9h-1.8L111.4,131.3z M112.6,128.4l-0.7,1.6h1.4L112.6,128.4z"/>
		<path d="M120.5,127.9l-1.3,1.9v1.1c0,0.9,0.1,1.1,0.9,1.1v0.3h-2.8V132c0.7,0,0.9-0.2,0.9-1.1v-1.1l-1.3-2
			c-0.4-0.6-0.7-0.8-1.3-0.8v-0.3h3.1v0.3c-0.6,0-0.8,0.2-0.5,0.7l1,1.5l1-1.5c0.3-0.5,0.2-0.7-0.5-0.7v-0.3h2.2v0.3
			C121.1,127.1,120.9,127.3,120.5,127.9z"/>
	</g>
	<g>
		<path d="M41.7,142.1c0.7,0,0.8-0.2,0.8-1.2v-1.6c0-1-0.1-1.2-0.8-1.2v-0.2h1.1h1c0.9,0,1.4,0.5,1.4,1.1c0,0.4-0.2,0.7-0.4,0.9
			c0.5,0.2,0.8,0.6,0.8,1.1c0,0.7-0.6,1.2-1.6,1.2h-1.2h-1.1V142.1z M43.7,138.3h-0.6v1.5h0.6c0.5,0,0.7-0.3,0.7-0.7
			C44.4,138.7,44.2,138.3,43.7,138.3z M44,140.2h-0.8v1c0,0.6,0.1,0.8,0.6,0.8H44c0.6,0,0.8-0.4,0.8-0.8S44.5,140.2,44,140.2z"/>
		<path d="M50.6,141.3l0-0.2h0.2l-0.1,1.2h-3.7v-0.2c0.7,0,0.8-0.2,0.8-1.2v-1.6c0-1-0.1-1.2-0.8-1.2v-0.2h2.2h1.3l0.1,1.2h-0.2
			l-0.1-0.2c-0.1-0.5-0.2-0.6-1.1-0.6h-0.7v1.5h0.1c1,0,1.1-0.1,1.1-0.8h0.2v1.9h-0.2c0-0.7-0.1-0.8-1.1-0.8h-0.1v0.6
			c0,1,0.1,1.2,0.8,1.2h0.1C50.4,141.9,50.5,141.7,50.6,141.3z"/>
		<path d="M55.9,141.3l0-0.2h0.2l-0.1,1.2h-3.7v-0.2c0.7,0,0.8-0.2,0.8-1.2v-1.6c0-1-0.1-1.2-0.8-1.2v-0.2h2.2h1.3l0.1,1.2h-0.2
			l-0.1-0.2c-0.1-0.5-0.2-0.6-1.1-0.6h-0.7v1.5h0.1c1,0,1.1-0.1,1.1-0.8h0.2v1.9h-0.2c0-0.7-0.1-0.8-1.1-0.8h-0.1v0.6
			c0,1,0.1,1.2,0.8,1.2h0.1C55.6,141.9,55.8,141.7,55.9,141.3z"/>
		<path d="M59.8,142.1v0.2h-2.3v-0.2c0.7,0,0.8-0.2,0.8-1.2v-1.6c0-1-0.1-1.2-0.8-1.2v-0.2h2.3h1.3l0.1,1.2H61l0-0.2
			c-0.1-0.5-0.2-0.6-1.2-0.6h-0.8v1.5h0.1c1,0,1.1-0.1,1.1-0.8h0.2v1.9h-0.2c0-0.7-0.1-0.8-1.1-0.8h-0.1v0.7
			C59.1,141.9,59.2,142.1,59.8,142.1z"/>
		<path d="M65.2,142.1c0.7,0,0.8-0.2,0.8-1.2v-1.6c0-1-0.1-1.2-0.8-1.2v-0.2h1.1h1c0.9,0,1.4,0.5,1.4,1.1c0,0.4-0.2,0.7-0.4,0.9
			c0.5,0.2,0.8,0.6,0.8,1.1c0,0.7-0.6,1.2-1.6,1.2h-1.2h-1.1V142.1z M67.3,138.3h-0.6v1.5h0.6c0.5,0,0.7-0.3,0.7-0.7
			C68,138.7,67.8,138.3,67.3,138.3z M67.5,140.2h-0.8v1c0,0.6,0.1,0.8,0.6,0.8h0.2c0.6,0,0.8-0.4,0.8-0.8S68.1,140.2,67.5,140.2z"/>
		<path d="M73.2,142.4c-1.3,0-2.4-1-2.4-2.3c0-1.3,1.1-2.3,2.4-2.3s2.4,1.1,2.4,2.3C75.6,141.4,74.5,142.4,73.2,142.4z M73.2,138.2
			c-1.2,0-1.6,1.1-1.6,1.9c0,0.9,0.4,1.9,1.6,1.9s1.6-1.1,1.6-1.9C74.8,139.2,74.4,138.2,73.2,138.2z"/>
		<path d="M79.5,142c0.7,0,1.2-0.4,1.2-1.3v-1.4c0-1-0.1-1.2-0.8-1.2v-0.2h2v0.2c-0.7,0-0.8,0.2-0.8,1.2v1.3c0,1.2-0.8,1.8-1.8,1.8
			s-1.8-0.6-1.8-1.8v-1.3c0-1-0.1-1.2-0.8-1.2v-0.2h2.3v0.2c-0.7,0-0.8,0.2-0.8,1.2v1.4C78.3,141.6,78.8,142,79.5,142z"/>
		<path d="M86.3,141.1c0.4,0.5,0.9,0.9,1.3,0.9v0.2h-1.3l-1.4-1.9h-0.3v0.5c0,1,0.1,1.2,0.8,1.2v0.2h-2.3v-0.2
			c0.7,0,0.8-0.2,0.8-1.2v-1.6c0-1-0.1-1.2-0.8-1.2v-0.2h2.1c1,0,1.6,0.5,1.6,1.2c0,0.6-0.5,1.1-1.2,1.2L86.3,141.1z M85.3,138.3
			h-0.6v1.7h0.6c0.6,0,0.8-0.4,0.8-0.9C86.1,138.7,85.8,138.3,85.3,138.3z"/>
		<path d="M90.9,142.4c-1.2,0-2.3-1-2.3-2.3c0-1.3,1-2.3,2.3-2.3c0.5,0,1,0.3,1.3,0.7c0.1-0.1,0.1-0.3,0.2-0.5h0.2v1.7h-0.2
			c-0.2-0.9-0.7-1.5-1.5-1.5c-1.1,0-1.5,1.1-1.5,1.9c0,0.8,0.3,1.9,1.5,1.9c0.5,0,1.3-0.3,1.3-0.8c0-0.4-0.4-0.6-0.9-0.6v-0.2h2.2
			v0.2c-0.7,0-0.8,0.2-0.8,1.2c0,0,0,0.2,0,0.3C92.1,142.1,91.5,142.4,90.9,142.4z"/>
		<path d="M97.2,142c0.7,0,1.2-0.4,1.2-1.3v-1.4c0-1-0.1-1.2-0.8-1.2v-0.2h2v0.2c-0.7,0-0.8,0.2-0.8,1.2v1.3c0,1.2-0.8,1.8-1.8,1.8
			s-1.8-0.6-1.8-1.8v-1.3c0-1-0.1-1.2-0.8-1.2v-0.2h2.3v0.2c-0.7,0-0.8,0.2-0.8,1.2v1.4C96,141.6,96.5,142,97.2,142z"/>
		<path d="M100.9,142.3v-0.2c0.7,0,0.8-0.2,0.8-1.2v-1.6c0-1-0.1-1.2-0.8-1.2v-0.2h2.3v0.2c-0.7,0-0.8,0.2-0.8,1.2v1.6
			c0,1,0.1,1.2,0.8,1.2v0.2H100.9z"/>
		<path d="M107,142.4c-1.2,0-2.3-1-2.3-2.3c0-1.3,1-2.3,2.3-2.3c0.5,0,1,0.3,1.3,0.7c0.1-0.1,0.1-0.3,0.2-0.5h0.2v1.7h-0.2
			c-0.2-0.9-0.7-1.5-1.5-1.5c-1.1,0-1.5,1.1-1.5,1.9c0,0.8,0.3,1.9,1.5,1.9c0.5,0,1.3-0.3,1.3-0.8c0-0.4-0.4-0.6-0.9-0.6v-0.2h2.2
			v0.2c-0.7,0-0.8,0.2-0.8,1.2c0,0,0,0.2,0,0.3C108.2,142.1,107.5,142.4,107,142.4z"/>
		<path d="M110.7,138.1v-0.2h1.2l2.7,3.2v-1.8c0-1-0.1-1.2-0.8-1.2v-0.2h1.9v0.2c-0.7,0-0.8,0.2-0.8,1.2v3.1h-0.2l-2.9-3.5v2
			c0,1,0.1,1.2,0.8,1.2v0.2h-1.9v-0.2c0.7,0,0.8-0.2,0.8-1.2v-1.6C111.5,138.3,111.3,138.1,110.7,138.1z"/>
		<path d="M119.5,142.4c-1.3,0-2.4-1-2.4-2.3c0-1.3,1.1-2.3,2.4-2.3s2.4,1.1,2.4,2.3C122,141.4,120.9,142.4,119.5,142.4z
			 M119.5,138.2c-1.2,0-1.6,1.1-1.6,1.9c0,0.9,0.4,1.9,1.6,1.9s1.6-1.1,1.6-1.9C121.1,139.2,120.7,138.2,119.5,138.2z"/>
		<path d="M123.5,138.1v-0.2h1.2l2.7,3.2v-1.8c0-1-0.1-1.2-0.8-1.2v-0.2h1.9v0.2c-0.7,0-0.8,0.2-0.8,1.2v3.1h-0.2l-2.9-3.5v2
			c0,1,0.1,1.2,0.8,1.2v0.2h-1.9v-0.2c0.7,0,0.8-0.2,0.8-1.2v-1.6C124.3,138.3,124.2,138.1,123.5,138.1z"/>
		<path d="M137.3,140.3c-0.1,0.1-0.2,0.2-0.3,0.2c-0.1,0-0.2-0.1-0.2-0.2c0-0.1,0-0.1,0.1-0.2l1.3-1.5h-1.2c-0.4,0-0.8,0.1-0.9,0.6
			l-0.1,0.2h-0.2l0.2-1.3h2.9v0.3l-1.2,1.3c0.7,0.2,1.2,0.8,1.2,1.4c0,0.8-0.7,1.5-1.7,1.5c-1,0-1.5-0.6-1.5-0.9
			c0-0.1,0.1-0.2,0.3-0.2c0.3,0,0.3,0.7,1.2,0.7c0.7,0,1-0.5,1-1c0-0.5-0.3-1-0.9-1C137.5,140,137.4,140.1,137.3,140.3z"/>
		<path d="M142.7,142.4c-0.9,0-1.7-1-1.7-2.3c0-1.3,0.8-2.3,1.7-2.3c1,0,1.7,1,1.7,2.3C144.4,141.4,143.6,142.4,142.7,142.4z
			 M142.7,138.1c-0.7,0-1,0.9-1,2c0,1.1,0.3,2,1,2c0.7,0,1-0.9,1-2C143.7,139,143.3,138.1,142.7,138.1z"/>
	</g>
	<g>
		<path d="M73.4,159.7h-0.3l0-0.2c-0.1-0.5-0.2-0.7-1-0.7h-0.9v3.7c0,0.9,0.1,1.1,0.9,1.1v0.3h-2.8v-0.3c0.7,0,0.9-0.2,0.9-1.1v-3.7
			h-0.9c-0.8,0-0.9,0.2-1,0.7l0,0.2h-0.3l0.1-1.3h5.5L73.4,159.7z"/>
		<path d="M76.2,162.6c0,0.9,0.1,1.1,0.9,1.1v0.3h-2.8v-0.3c0.7,0,0.9-0.2,0.9-1.1v-2.8c0-0.9-0.1-1.1-0.9-1.1v-0.3h2.8v0.3
			c-0.7,0-0.9,0.2-0.9,1.1v1H79v-1c0-0.9-0.1-1.1-0.9-1.1v-0.3H81v0.3c-0.7,0-0.9,0.2-0.9,1.1v2.8c0,0.9,0.1,1.1,0.9,1.1v0.3h-2.9
			v-0.3c0.8,0,0.9-0.2,0.9-1.1v-1.4h-2.8V162.6z"/>
		<path d="M85.9,158.7v-0.3h2.2v0.3c-0.7,0-0.9,0.2-0.9,1.1v2.1c0,1.4-1,2.2-2.2,2.2c-1.2,0-2.2-0.7-2.2-2.2v-2.1
			c0-0.9-0.1-1.1-0.9-1.1v-0.3h2.9v0.3c-0.8,0-0.9,0.2-0.9,1.1v2c0,1.2,0.6,1.7,1.4,1.7s1.3-0.5,1.3-1.7v-2
			C86.8,158.9,86.7,158.7,85.9,158.7z"/>
		<path d="M93.3,162.5c0.8,0.9,1.1,1.1,1.7,1.2v0.3h-2l-1.6-2.4h-0.3v1.1c0,0.9,0.1,1.1,0.9,1.1v0.3h-2.8v-0.3
			c0.7,0,0.9-0.2,0.9-1.1v-2.8c0-0.9-0.1-1.1-0.9-1.1v-0.3h3c1.1,0,1.8,0.7,1.8,1.5c0,0.8-0.6,1.4-1.6,1.5L93.3,162.5z M92.8,160
			c0-0.6-0.4-1.1-1.2-1.1h-0.5v2.2h0.5C92.4,161.1,92.8,160.6,92.8,160z"/>
		<path d="M96.1,164h-0.3v-2h0.3c0.2,1,0.9,1.6,1.7,1.6c0.5,0,0.9-0.3,0.9-0.9c0-0.3-0.2-0.7-0.7-0.9l-0.9-0.5
			c-0.8-0.4-1.2-0.8-1.2-1.7c0-0.7,0.7-1.4,1.6-1.4c0.5,0,0.8,0.2,1.1,0.4c0.1-0.1,0.2-0.2,0.3-0.4h0.3v2h-0.3
			c-0.1-0.7-0.4-1.5-1.3-1.5c-0.4,0-0.7,0.3-0.7,0.7c0,0.3,0.2,0.7,0.7,0.9l0.9,0.4c0.6,0.3,1.2,0.9,1.2,1.6c0,1-0.9,1.6-1.8,1.6
			c-0.7,0-1.1-0.4-1.4-0.4C96.2,163.7,96.1,163.8,96.1,164z"/>
		<path d="M100.6,163.6c0.7,0,0.9-0.2,0.9-1.1v-2.8c0-0.9-0.1-1.1-0.9-1.1v-0.3h3c2.1,0,3,1.2,3,2.7s-0.9,2.7-3,2.7h-3V163.6z
			 M102.6,162.5c0,0.9,0.1,1,0.9,1h0.1c1.5,0,1.8-1.3,1.8-2.3c0-1-0.3-2.3-1.8-2.3c-0.1,0-1,0-1,0V162.5z"/>
		<path d="M108.3,162.9c-0.2,0.5-0.1,0.7,0.7,0.7v0.3h-2.2v-0.3c0.6,0,0.8-0.2,1.1-0.8l2-4.5h0.2l2,4.5c0.3,0.6,0.4,0.8,1.1,0.8v0.3
			h-3v-0.3c0.8,0,0.9-0.2,0.7-0.7l-0.4-0.9h-1.8L108.3,162.9z M109.6,160l-0.7,1.6h1.4L109.6,160z"/>
		<path d="M117.5,159.5l-1.3,1.9v1.1c0,0.9,0.1,1.1,0.9,1.1v0.3h-2.8v-0.3c0.7,0,0.9-0.2,0.9-1.1v-1.1l-1.3-2
			c-0.4-0.6-0.7-0.8-1.3-0.8v-0.3h3.1v0.3c-0.6,0-0.8,0.2-0.5,0.7l1,1.5l1-1.5c0.3-0.5,0.2-0.7-0.5-0.7v-0.3h2.2v0.3
			C118,158.7,117.9,158.9,117.5,159.5z"/>
	</g>
	<g>
		<path d="M49.7,173.7c0.7,0,0.8-0.2,0.8-1.2v-1.6c0-1-0.1-1.2-0.8-1.2v-0.2h2.1c1.7,0,2.4,1,2.4,2.2c0,1.2-0.7,2.2-2.4,2.2h-2.1
			V173.7z M51.9,169.9c-0.1,0-0.5,0-0.6,0v2.8c0,0.6,0.1,0.8,0.6,0.8h0.1c1.3,0,1.6-1,1.6-1.8C53.4,170.9,53.2,169.9,51.9,169.9z"/>
		<path d="M58.3,173.6c0.7,0,1.2-0.4,1.2-1.3v-1.4c0-1-0.1-1.2-0.8-1.2v-0.2h2v0.2c-0.7,0-0.8,0.2-0.8,1.2v1.3
			c0,1.2-0.8,1.8-1.8,1.8s-1.8-0.6-1.8-1.8v-1.3c0-1-0.1-1.2-0.8-1.2v-0.2h2.3v0.2c-0.7,0-0.8,0.2-0.8,1.2v1.4
			C57.1,173.2,57.6,173.6,58.3,173.6z"/>
		<path d="M65.7,173.9c0-0.2-0.1-0.4-0.2-0.5c-0.3,0.4-0.8,0.7-1.3,0.7c-1.2,0-2.3-1-2.3-2.3c0-1.3,1-2.3,2.3-2.3
			c0.5,0,1,0.3,1.3,0.7c0.1-0.1,0.1-0.3,0.2-0.5h0.2v1.7h-0.2c-0.2-0.9-0.7-1.5-1.5-1.5c-1.1,0-1.4,1.1-1.4,1.9
			c0,0.8,0.3,1.9,1.4,1.9c0.8,0,1.3-0.6,1.5-1.5h0.2v1.7H65.7z"/>
		<path d="M69,172v0.5c0,1,0.1,1.2,0.8,1.2v0.2h-2.3v-0.2c0.7,0,0.8-0.2,0.8-1.2v-1.6c0-1-0.1-1.2-0.8-1.2v-0.2h2.3v0.2
			c-0.7,0-0.8,0.2-0.8,1.2v0.6l1.2-1c0.7-0.6,0.7-0.8,0.1-0.8v-0.2h1.9v0.2c-0.5,0-0.8,0.2-1.6,0.9l-0.9,0.7l1.6,1.4
			c0.8,0.7,1.1,0.9,1.4,0.9v0.2h-2.3v-0.2c0.5,0,0.6-0.2,0-0.8l-1.2-1.1L69,172z"/>
		<path d="M80.4,173.9c0-0.2-0.1-0.4-0.2-0.5c-0.3,0.4-0.8,0.7-1.3,0.7c-1.2,0-2.3-1-2.3-2.3c0-1.3,1-2.3,2.3-2.3
			c0.5,0,1,0.3,1.3,0.7c0.1-0.1,0.1-0.3,0.2-0.5h0.2v1.7h-0.2c-0.2-0.9-0.7-1.5-1.5-1.5c-1.1,0-1.4,1.1-1.4,1.9
			c0,0.8,0.3,1.9,1.4,1.9c0.8,0,1.3-0.6,1.5-1.5h0.2v1.7H80.4z"/>
		<path d="M83.2,172.9c-0.2,0.6-0.2,0.8,0.5,0.8v0.2h-1.9v-0.2c0.6,0,0.7-0.1,1-0.9l1.5-3.4h0.1l1.5,3.4c0.3,0.7,0.4,0.9,1,0.9v0.2
			h-2.2v-0.2c0.7,0,0.8-0.2,0.5-0.8l-0.2-0.5h-1.6L83.2,172.9z M84.2,170.5l-0.7,1.5h1.3L84.2,170.5z"/>
		<path d="M89.5,174c-0.5,0-0.9-0.2-1.1-0.4c-0.1,0.1-0.2,0.2-0.2,0.4H88v-1.7h0.2c0.1,0.8,0.6,1.3,1.4,1.3c0.4,0,0.8-0.2,0.8-0.7
			c0-0.3-0.3-0.6-0.8-0.9l-0.7-0.3c-0.5-0.2-0.8-0.7-0.8-1.2c0-0.6,0.5-1.1,1.2-1.1c0.4,0,0.7,0.1,0.9,0.3c0-0.1,0.1-0.2,0.1-0.3
			h0.2v1.7h-0.2c-0.1-0.6-0.3-1.3-1-1.3c-0.4,0-0.7,0.2-0.7,0.6c0,0.3,0.3,0.5,0.9,0.9l0.7,0.3c0.6,0.3,0.8,0.7,0.8,1.1
			C90.9,173.5,90.3,174,89.5,174z"/>
		<path d="M94,174c-0.5,0-0.9-0.2-1.1-0.4c-0.1,0.1-0.2,0.2-0.2,0.4h-0.2v-1.7h0.2c0.1,0.8,0.6,1.3,1.4,1.3c0.4,0,0.8-0.2,0.8-0.7
			c0-0.3-0.3-0.6-0.8-0.9l-0.7-0.3c-0.5-0.2-0.8-0.7-0.8-1.2c0-0.6,0.5-1.1,1.2-1.1c0.4,0,0.7,0.1,0.9,0.3c0-0.1,0.1-0.2,0.1-0.3
			h0.2v1.7h-0.2c-0.1-0.6-0.3-1.3-1-1.3c-0.4,0-0.7,0.2-0.7,0.6c0,0.3,0.3,0.5,0.9,0.9l0.7,0.3c0.6,0.3,0.8,0.7,0.8,1.1
			C95.4,173.5,94.8,174,94,174z"/>
		<path d="M99.4,174c-1.3,0-2.4-1-2.4-2.3c0-1.3,1.1-2.3,2.4-2.3s2.4,1.1,2.4,2.3C101.8,173,100.7,174,99.4,174z M99.4,169.8
			c-1.2,0-1.6,1.1-1.6,1.9c0,0.9,0.4,1.9,1.6,1.9s1.6-1.1,1.6-1.9C101,170.8,100.6,169.8,99.4,169.8z"/>
		<path d="M105.7,173.6c0.7,0,1.2-0.4,1.2-1.3v-1.4c0-1-0.1-1.2-0.8-1.2v-0.2h2v0.2c-0.7,0-0.8,0.2-0.8,1.2v1.3
			c0,1.2-0.8,1.8-1.8,1.8s-1.8-0.6-1.8-1.8v-1.3c0-1-0.1-1.2-0.8-1.2v-0.2h2.3v0.2c-0.7,0-0.8,0.2-0.8,1.2v1.4
			C104.5,173.2,105,173.6,105.7,173.6z"/>
		<path d="M109.4,169.7v-0.2h2.3v0.2c-0.7,0-0.8,0.2-0.8,1.2v1.4c0,1,0.1,1.2,0.8,1.2h0.3c0.9,0,1-0.2,1.2-0.6l0.1-0.2h0.2l-0.1,1.2
			h-4v-0.2c0.7,0,0.8-0.2,0.8-1.2v-1.6C110.2,169.9,110.1,169.7,109.4,169.7z"/>
		<path d="M117.9,172.9l0-0.2h0.2l-0.1,1.2h-3.7v-0.2c0.7,0,0.8-0.2,0.8-1.2v-1.6c0-1-0.1-1.2-0.8-1.2v-0.2h2.2h1.3l0.1,1.2h-0.2
			l0-0.2c-0.1-0.5-0.2-0.6-1.1-0.6h-0.7v1.5h0.1c1,0,1.1-0.1,1.1-0.8h0.2v1.9H117c0-0.7-0.1-0.8-1.1-0.8h-0.1v0.6
			c0,1,0.1,1.2,0.8,1.2h0.1C117.7,173.5,117.8,173.3,117.9,172.9z"/>
		<path d="M120.5,169.9c-0.9,0-1,0.2-1.1,0.6l0,0.2h-0.2l0.1-1.2h4.5l0.1,1.2h-0.2l-0.1-0.2c-0.1-0.5-0.2-0.6-1.2-0.6h-0.5v2.6
			c0,1,0.1,1.2,0.8,1.2v0.2h-2.3v-0.2c0.7,0,0.8-0.2,0.8-1.2v-2.6H120.5z"/>
		<path d="M127.8,173.6l1.8-1.6c0.4-0.3,0.6-0.8,0.6-1.1c0-0.7-0.4-1.1-1-1.1c-0.6,0-1.2,0.7-0.7,1.5l-0.3,0.3c-1-0.7-0.5-2.2,1-2.2
			c0.9,0,1.7,0.5,1.7,1.3c0,0.8-0.8,1.4-0.8,1.4l-1.3,1.2h2.3l-0.1,0.6h-3.1V173.6z"/>
		<path d="M136,173.7v0.2h-2.3v-0.2c0.7,0,0.8-0.2,0.8-1.1h-1.9v-0.2l2.4-3.1h0.3v3c0.4,0,0.7-0.1,0.8-0.8l0-0.2h0.2l-0.1,1.3h-1
			C135.2,173.5,135.4,173.7,136,173.7z M134.5,170.4l-1.4,1.8h1.4V170.4z"/>
	</g>
	<g>
		<path d="M78.2,192.4h0.5c0.9,0,1-0.1,1-0.9H80v2.1h-0.3c0-0.8-0.1-0.9-1-0.9h-0.5v1.3c0,0.9,0.1,1.1,0.9,1.1v0.3h-2.8v-0.3
			c0.7,0,0.9-0.2,0.9-1.1v-2.8c0-0.9-0.1-1.1-0.9-1.1v-0.3H81l0.1,1.3h-0.3l0-0.2c-0.1-0.5-0.2-0.7-1-0.7h-1.5V192.4z"/>
		<path d="M86.1,194.1c0.8,0.9,1.1,1.1,1.7,1.2v0.3h-2l-1.6-2.4H84v1.1c0,0.9,0.1,1.1,0.9,1.1v0.3H82v-0.3c0.7,0,0.9-0.2,0.9-1.1
			v-2.8c0-0.9-0.1-1.1-0.9-1.1v-0.3h3c1.1,0,1.8,0.7,1.8,1.5c0,0.8-0.6,1.4-1.6,1.5L86.1,194.1z M85.6,191.6c0-0.6-0.4-1.1-1.2-1.1
			H84v2.2h0.5C85.2,192.7,85.6,192.2,85.6,191.6z"/>
		<path d="M88.5,195.5v-0.3c0.7,0,0.9-0.2,0.9-1.1v-2.8c0-0.9-0.1-1.1-0.9-1.1v-0.3h2.8v0.3c-0.7,0-0.9,0.2-0.9,1.1v2.8
			c0,0.9,0.1,1.1,0.9,1.1v0.3H88.5z"/>
		<path d="M92.5,195.2c0.7,0,0.9-0.2,0.9-1.1v-2.8c0-0.9-0.1-1.1-0.9-1.1v-0.3h3c2.1,0,3,1.2,3,2.7s-0.9,2.7-3,2.7h-3V195.2z
			 M94.5,194.1c0,0.9,0.1,1,0.9,1h0.1c1.5,0,1.8-1.3,1.8-2.3c0-1-0.3-2.3-1.8-2.3c-0.1,0-1,0-1,0V194.1z"/>
		<path d="M100.2,194.5c-0.2,0.5-0.1,0.7,0.7,0.7v0.3h-2.2v-0.3c0.6,0,0.8-0.2,1.1-0.8l2-4.5h0.2l2,4.5c0.3,0.6,0.4,0.8,1.1,0.8v0.3
			h-3v-0.3c0.8,0,0.9-0.2,0.7-0.7l-0.4-0.9h-1.8L100.2,194.5z M101.4,191.6l-0.7,1.6h1.4L101.4,191.6z"/>
		<path d="M109.3,191.1l-1.3,1.9v1.1c0,0.9,0.1,1.1,0.9,1.1v0.3h-2.8v-0.3c0.7,0,0.9-0.2,0.9-1.1v-1.1l-1.3-2
			c-0.4-0.6-0.7-0.8-1.3-0.8v-0.3h3.1v0.3c-0.6,0-0.8,0.2-0.5,0.7l1,1.5l1-1.5c0.3-0.5,0.2-0.7-0.5-0.7v-0.3h2.2v0.3
			C109.9,190.3,109.7,190.5,109.3,191.1z"/>
	</g>
	<g>
		<path d="M59.6,205.3c0.7,0,0.8-0.2,0.8-1.2v-1.6c0-1-0.1-1.2-0.8-1.2v-0.2h2.1c1.7,0,2.4,1,2.4,2.2c0,1.2-0.7,2.2-2.4,2.2h-2.1
			V205.3z M61.7,201.5c-0.1,0-0.5,0-0.6,0v2.8c0,0.6,0.1,0.8,0.6,0.8h0.1c1.3,0,1.6-1,1.6-1.8C63.3,202.5,63,201.5,61.7,201.5z"/>
		<path d="M68.2,205.6c-1.3,0-2.4-1-2.4-2.3c0-1.3,1.1-2.3,2.4-2.3s2.4,1.1,2.4,2.3C70.6,204.6,69.5,205.6,68.2,205.6z M68.2,201.4
			c-1.2,0-1.6,1.1-1.6,1.9c0,0.9,0.4,1.9,1.6,1.9s1.6-1.1,1.6-1.9C69.8,202.4,69.4,201.4,68.2,201.4z"/>
		<path d="M75.5,202.2l-1.5,3.4h-0.1l-1.5-3.4c-0.3-0.8-0.4-0.9-1-0.9v-0.2h2.2v0.2c-0.7,0-0.8,0.2-0.5,0.8l1,2.4l1-2.4
			c0.3-0.6,0.3-0.8-0.5-0.8v-0.2h1.9v0.2C75.9,201.3,75.8,201.5,75.5,202.2z"/>
		<path d="M81,204.5l0-0.2h0.2l-0.1,1.2h-3.7v-0.2c0.7,0,0.8-0.2,0.8-1.2v-1.6c0-1-0.1-1.2-0.8-1.2v-0.2h2.2H81l0.1,1.2h-0.2
			l-0.1-0.2c-0.1-0.5-0.2-0.6-1.1-0.6H79v1.5H79c1,0,1.1-0.1,1.1-0.8h0.2v1.9h-0.2c0-0.7-0.1-0.8-1.1-0.8H79v0.6
			c0,1,0.1,1.2,0.8,1.2h0.1C80.8,205.1,80.9,204.9,81,204.5z"/>
		<path d="M85.8,204.3c0.4,0.5,0.9,0.9,1.3,0.9v0.2h-1.3l-1.4-1.9h-0.3v0.5c0,1,0.1,1.2,0.8,1.2v0.2h-2.3v-0.2
			c0.7,0,0.8-0.2,0.8-1.2v-1.6c0-1-0.1-1.2-0.8-1.2v-0.2h2.1c1,0,1.6,0.5,1.6,1.2c0,0.6-0.5,1.1-1.2,1.2L85.8,204.3z M84.8,201.5
			h-0.6v1.7h0.6c0.6,0,0.8-0.4,0.8-0.9C85.6,201.9,85.3,201.5,84.8,201.5z"/>
		<path d="M92.5,205.6c-0.5,0-0.9-0.2-1.1-0.4c-0.1,0.1-0.2,0.2-0.2,0.4H91v-1.7h0.2c0.1,0.8,0.6,1.3,1.4,1.3c0.4,0,0.8-0.2,0.8-0.7
			c0-0.3-0.3-0.6-0.8-0.9l-0.7-0.3c-0.5-0.2-0.8-0.7-0.8-1.2c0-0.6,0.5-1.1,1.2-1.1c0.4,0,0.7,0.1,0.9,0.3c0-0.1,0.1-0.2,0.1-0.3
			h0.2v1.7h-0.2c-0.1-0.6-0.3-1.3-1-1.3c-0.4,0-0.7,0.2-0.7,0.6c0,0.3,0.3,0.5,0.9,0.9l0.7,0.3c0.6,0.3,0.8,0.7,0.8,1.1
			C94,205.1,93.3,205.6,92.5,205.6z"/>
		<path d="M97.9,205.6c-1.3,0-2.4-1-2.4-2.3c0-1.3,1.1-2.3,2.4-2.3s2.4,1.1,2.4,2.3C100.4,204.6,99.3,205.6,97.9,205.6z M97.9,201.4
			c-1.2,0-1.6,1.1-1.6,1.9c0,0.9,0.4,1.9,1.6,1.9s1.6-1.1,1.6-1.9C99.5,202.4,99.1,201.4,97.9,201.4z"/>
		<path d="M101.9,201.3v-0.2h2.3v0.2c-0.7,0-0.8,0.2-0.8,1.2v1.4c0,1,0.1,1.2,0.8,1.2h0.3c0.9,0,1-0.2,1.2-0.6l0.1-0.2h0.2l-0.1,1.2
			h-4v-0.2c0.7,0,0.8-0.2,0.8-1.2v-1.6C102.7,201.5,102.6,201.3,101.9,201.3z"/>
		<path d="M110.4,204.5l0-0.2h0.2l-0.1,1.2h-3.7v-0.2c0.7,0,0.8-0.2,0.8-1.2v-1.6c0-1-0.1-1.2-0.8-1.2v-0.2h2.2h1.3l0.1,1.2h-0.2
			l0-0.2c-0.1-0.5-0.2-0.6-1.2-0.6h-0.7v1.5h0.1c1,0,1.1-0.1,1.1-0.8h0.2v1.9h-0.2c0-0.7-0.1-0.8-1.1-0.8h-0.1v0.6
			c0,1,0.1,1.2,0.8,1.2h0.1C110.1,205.1,110.3,204.9,110.4,204.5z"/>
		<path d="M119.4,205.6c-0.9,0-1.4-0.5-1.4-0.9c0-0.1,0.1-0.2,0.3-0.2c0.3,0,0.2,0.7,1.2,0.7c0.7,0,1.1-0.5,1.1-1.1
			c0-0.6-0.3-1.1-1-1.1c-0.4,0-0.8,0.2-1,0.7h-0.4l0.2-2.5h2.6l-0.1,0.6h-2.1l-0.1,1.1c0.2-0.2,0.6-0.3,1-0.3c0.9,0,1.6,0.7,1.6,1.6
			C121.2,204.9,120.4,205.6,119.4,205.6z"/>
		<path d="M124.8,205.6c-0.9,0-1.7-1-1.7-2.3c0-1.3,0.8-2.3,1.7-2.3c1,0,1.7,1,1.7,2.3C126.5,204.6,125.7,205.6,124.8,205.6z
			 M124.8,201.3c-0.7,0-1,0.9-1,2c0,1.1,0.3,2,1,2c0.7,0,1-0.9,1-2C125.8,202.2,125.4,201.3,124.8,201.3z"/>
	</g>
	<g>
		<path d="M69.6,225.4h-0.3v-2h0.3c0.2,1,0.9,1.6,1.7,1.6c0.5,0,0.9-0.3,0.9-0.9c0-0.3-0.2-0.7-0.7-0.9l-0.9-0.5
			c-0.8-0.4-1.2-0.8-1.2-1.7c0-0.7,0.7-1.4,1.6-1.4c0.5,0,0.8,0.2,1.1,0.4c0.1-0.1,0.2-0.2,0.3-0.4h0.3v2h-0.3
			c-0.1-0.7-0.4-1.5-1.3-1.5c-0.4,0-0.7,0.3-0.7,0.7c0,0.3,0.2,0.7,0.7,0.9l0.9,0.4c0.6,0.3,1.2,0.9,1.2,1.6c0,1-0.9,1.6-1.8,1.6
			c-0.7,0-1.1-0.4-1.4-0.4C69.7,225.1,69.6,225.2,69.6,225.4z"/>
		<path d="M74.9,224.3c-0.2,0.5-0.1,0.7,0.7,0.7v0.3h-2.2V225c0.6,0,0.8-0.2,1.1-0.8l2-4.5h0.2l2,4.5c0.3,0.6,0.4,0.8,1.1,0.8v0.3
			h-3V225c0.8,0,0.9-0.2,0.7-0.7l-0.4-0.9h-1.8L74.9,224.3z M76.2,221.4l-0.7,1.6h1.4L76.2,221.4z"/>
		<path d="M85,221.1h-0.3l0-0.2c-0.1-0.5-0.2-0.7-1-0.7h-0.9v3.7c0,0.9,0.1,1.1,0.9,1.1v0.3h-2.8V225c0.7,0,0.9-0.2,0.9-1.1v-3.7
			h-0.9c-0.8,0-0.9,0.2-1,0.7l0,0.2h-0.3l0.1-1.3H85L85,221.1z"/>
		<path d="M89.7,220.1v-0.3h2.2v0.3c-0.7,0-0.9,0.2-0.9,1.1v2.1c0,1.4-1,2.2-2.2,2.2c-1.2,0-2.2-0.7-2.2-2.2v-2.1
			c0-0.9-0.1-1.1-0.9-1.1v-0.3h2.9v0.3c-0.8,0-0.9,0.2-0.9,1.1v2c0,1.2,0.6,1.7,1.4,1.7s1.3-0.5,1.3-1.7v-2
			C90.6,220.3,90.4,220.1,89.7,220.1z"/>
		<path d="M97.1,223.9c0.8,0.9,1.1,1.1,1.7,1.2v0.3h-2l-1.6-2.4h-0.3v1.1c0,0.9,0.1,1.1,0.9,1.1v0.3H93V225c0.7,0,0.9-0.2,0.9-1.1
			v-2.8c0-0.9-0.1-1.1-0.9-1.1v-0.3h3c1.1,0,1.8,0.7,1.8,1.5c0,0.8-0.6,1.4-1.6,1.5L97.1,223.9z M96.6,221.4c0-0.6-0.4-1.1-1.2-1.1
			h-0.5v2.2h0.5C96.2,222.5,96.6,222,96.6,221.4z"/>
		<path d="M99.5,225c0.7,0,0.9-0.2,0.9-1.1v-2.8c0-0.9-0.1-1.1-0.9-1.1v-0.3h3c2.1,0,3,1.2,3,2.7s-0.9,2.7-3,2.7h-3V225z
			 M101.5,223.9c0,0.9,0.1,1,0.9,1h0.1c1.5,0,1.8-1.3,1.8-2.3c0-1-0.3-2.3-1.8-2.3c-0.1,0-1,0-1,0V223.9z"/>
		<path d="M107.2,224.3c-0.2,0.5-0.1,0.7,0.7,0.7v0.3h-2.2V225c0.6,0,0.8-0.2,1.1-0.8l2-4.5h0.2l2,4.5c0.3,0.6,0.4,0.8,1.1,0.8v0.3
			h-3V225c0.8,0,0.9-0.2,0.7-0.7l-0.4-0.9h-1.8L107.2,224.3z M108.4,221.4l-0.7,1.6h1.4L108.4,221.4z"/>
		<path d="M116.3,220.9l-1.3,1.9v1.1c0,0.9,0.1,1.1,0.9,1.1v0.3h-2.8V225c0.7,0,0.9-0.2,0.9-1.1v-1.1l-1.3-2
			c-0.4-0.6-0.7-0.8-1.3-0.8v-0.3h3.1v0.3c-0.6,0-0.8,0.2-0.5,0.7l1,1.5l1-1.5c0.3-0.5,0.2-0.7-0.5-0.7v-0.3h2.2v0.3
			C116.9,220.1,116.7,220.3,116.3,220.9z"/>
	</g>
	<g>
		<path d="M43.1,234.3l0-0.2h0.2l-0.1,1.2h-3.7v-0.2c0.7,0,0.8-0.2,0.8-1.2v-1.6c0-1-0.1-1.2-0.8-1.2v-0.2h2.2H43l0.1,1.2h-0.2
			l-0.1-0.2c-0.1-0.5-0.2-0.6-1.1-0.6H41v1.5H41c1,0,1.1-0.1,1.1-0.8h0.2v1.9h-0.2c0-0.7-0.1-0.8-1.1-0.8H41v0.6
			c0,1,0.1,1.2,0.8,1.2h0.1C42.8,234.9,42.9,234.7,43.1,234.3z"/>
		<path d="M46.4,235.4c-0.5,0-0.9-0.2-1.1-0.4c-0.1,0.1-0.2,0.2-0.2,0.4h-0.2v-1.7h0.2c0.1,0.8,0.6,1.3,1.4,1.3
			c0.4,0,0.8-0.2,0.8-0.7c0-0.3-0.3-0.6-0.8-0.9l-0.7-0.3c-0.5-0.2-0.8-0.7-0.8-1.2c0-0.6,0.5-1.1,1.2-1.1c0.4,0,0.7,0.1,0.9,0.3
			c0-0.1,0.1-0.2,0.1-0.3h0.2v1.7h-0.2c-0.1-0.6-0.3-1.3-1-1.3c-0.4,0-0.7,0.2-0.7,0.6c0,0.3,0.3,0.5,0.9,0.9l0.7,0.3
			c0.6,0.3,0.8,0.7,0.8,1.1C47.8,234.9,47.2,235.4,46.4,235.4z"/>
		<path d="M53.1,235.3c0-0.2-0.1-0.4-0.2-0.5c-0.3,0.4-0.8,0.7-1.3,0.7c-1.2,0-2.3-1-2.3-2.3c0-1.3,1-2.3,2.3-2.3
			c0.5,0,1,0.3,1.3,0.7c0.1-0.1,0.1-0.3,0.2-0.5h0.2v1.7h-0.2c-0.2-0.9-0.7-1.5-1.5-1.5c-1.1,0-1.4,1.1-1.4,1.9
			c0,0.8,0.3,1.9,1.4,1.9c0.8,0,1.3-0.6,1.5-1.5h0.2v1.7H53.1z"/>
		<path d="M55.8,234.3c-0.2,0.6-0.2,0.8,0.5,0.8v0.2h-1.9v-0.2c0.6,0,0.7-0.1,1-0.9l1.5-3.4h0.1l1.5,3.4c0.3,0.7,0.4,0.9,1,0.9v0.2
			h-2.2v-0.2c0.7,0,0.8-0.2,0.5-0.8l-0.2-0.5H56L55.8,234.3z M56.8,231.9l-0.7,1.5h1.3L56.8,231.9z"/>
		<path d="M63.6,234.1c0.4,0.5,0.9,0.9,1.3,0.9v0.2h-1.3l-1.4-1.9H62v0.5c0,1,0.1,1.2,0.8,1.2v0.2h-2.3v-0.2c0.7,0,0.8-0.2,0.8-1.2
			v-1.6c0-1-0.1-1.2-0.8-1.2v-0.2h2.1c1,0,1.6,0.5,1.6,1.2c0,0.6-0.5,1.1-1.2,1.2L63.6,234.1z M62.6,231.3H62v1.7h0.6
			c0.6,0,0.8-0.4,0.8-0.9C63.4,231.7,63.2,231.3,62.6,231.3z"/>
		<path d="M68.2,235.4c-1.2,0-2.3-1-2.3-2.3c0-1.3,1-2.3,2.3-2.3c0.5,0,1,0.3,1.3,0.7c0.1-0.1,0.1-0.3,0.2-0.5h0.2v1.7h-0.2
			c-0.2-0.9-0.7-1.5-1.5-1.5c-1.1,0-1.5,1.1-1.5,1.9c0,0.8,0.3,1.9,1.5,1.9c0.5,0,1.3-0.3,1.3-0.8c0-0.4-0.4-0.6-0.9-0.6v-0.2h2.2
			v0.2c-0.7,0-0.8,0.2-0.8,1.2c0,0,0,0.2,0,0.3C69.4,235.1,68.8,235.4,68.2,235.4z"/>
		<path d="M74.5,235.4c-1.3,0-2.4-1-2.4-2.3c0-1.3,1.1-2.3,2.4-2.3s2.4,1.1,2.4,2.3C76.9,234.4,75.8,235.4,74.5,235.4z M74.5,231.2
			c-1.2,0-1.6,1.1-1.6,1.9c0,0.9,0.4,1.9,1.6,1.9s1.6-1.1,1.6-1.9C76.1,232.2,75.7,231.2,74.5,231.2z"/>
		<path d="M79.4,231.3c-0.9,0-1,0.2-1.1,0.6l0,0.2H78l0.1-1.2h4.5l0.1,1.2h-0.2l-0.1-0.2c-0.1-0.5-0.2-0.6-1.2-0.6h-0.5v2.6
			c0,1,0.1,1.2,0.8,1.2v0.2h-2.3v-0.2c0.7,0,0.8-0.2,0.8-1.2v-2.6H79.4z"/>
		<path d="M88.4,235.4c-0.6,0-1.7-0.4-1.7-2.1c0-1.2,0.6-2.6,1.8-2.6c0.8,0,1.4,0.6,1,0.8c-0.3,0.2-0.4-0.5-1-0.5
			c-0.7,0-1,0.9-1.1,1.8c0.2-0.2,0.5-0.3,0.9-0.3c0.8,0,1.6,0.6,1.6,1.4C89.9,234.8,89.2,235.4,88.4,235.4z M88.3,233
			c-0.4,0-0.8,0.2-0.9,0.5c0,1,0.5,1.6,1,1.6c0.6,0,0.8-0.6,0.8-1C89.2,233.6,88.9,233,88.3,233z"/>
		<path d="M97,235.4c-1.3,0-2.4-1-2.4-2.3c0-1.3,1.1-2.3,2.4-2.3c1.3,0,2.4,1.1,2.4,2.3C99.4,234.4,98.3,235.4,97,235.4z M97,231.2
			c-1.2,0-1.6,1.1-1.6,1.9c0,0.9,0.4,1.9,1.6,1.9c1.2,0,1.6-1.1,1.6-1.9C98.6,232.2,98.2,231.2,97,231.2z"/>
		<path d="M104,234.1c0.4,0.5,0.9,0.9,1.3,0.9v0.2h-1.3l-1.4-1.9h-0.3v0.5c0,1,0.1,1.2,0.8,1.2v0.2H101v-0.2c0.7,0,0.8-0.2,0.8-1.2
			v-1.6c0-1-0.1-1.2-0.8-1.2v-0.2h2.1c1,0,1.6,0.5,1.6,1.2c0,0.6-0.5,1.1-1.2,1.2L104,234.1z M103,231.3h-0.6v1.7h0.6
			c0.6,0,0.8-0.4,0.8-0.9C103.9,231.7,103.6,231.3,103,231.3z"/>
		<path d="M109.9,235.3v-0.2c0.7,0,0.8-0.2,0.8-1.2v-1.5c0-1-0.2-1.1-1-1.1v-0.2l1.7-0.3v3.1c0,1,0.1,1.2,0.8,1.2v0.2H109.9z"/>
		<path d="M114.6,235l1.8-1.6c0.4-0.3,0.6-0.8,0.6-1.1c0-0.7-0.4-1.1-1-1.1c-0.6,0-1.2,0.7-0.7,1.5L115,233c-1-0.7-0.5-2.2,1-2.2
			c0.9,0,1.7,0.5,1.7,1.3c0,0.8-0.8,1.4-0.8,1.4l-1.3,1.2h2.3l-0.1,0.6h-3.1V235z"/>
		<path d="M125.9,235.3v-0.2c0.7,0,0.8-0.2,0.8-1.2v-1.5c0-1-0.2-1.1-1-1.1v-0.2l1.7-0.3v3.1c0,1,0.1,1.2,0.8,1.2v0.2H125.9z"/>
		<path d="M130.6,235l1.8-1.6c0.4-0.3,0.6-0.8,0.6-1.1c0-0.7-0.4-1.1-1-1.1c-0.6,0-1.2,0.7-0.7,1.5L131,233c-1-0.7-0.5-2.2,1-2.2
			c0.9,0,1.7,0.5,1.7,1.3c0,0.8-0.8,1.4-0.8,1.4l-1.3,1.2h2.3l-0.1,0.6h-3.1V235z"/>
		<path d="M134.2,235.5l-0.4-0.2l3.8-6.2l0.4,0.2L134.2,235.5z"/>
		<path d="M138,235l1.8-1.6c0.4-0.3,0.6-0.8,0.6-1.1c0-0.7-0.4-1.1-1-1.1c-0.6,0-1.2,0.7-0.7,1.5l-0.3,0.3c-1-0.7-0.5-2.2,1-2.2
			c0.9,0,1.7,0.5,1.7,1.3c0,0.8-0.8,1.4-0.8,1.4l-1.3,1.2h2.3l-0.1,0.6H138V235z"/>
		<path d="M143.2,235l1.8-1.6c0.4-0.3,0.6-0.8,0.6-1.1c0-0.7-0.4-1.1-1-1.1c-0.6,0-1.2,0.7-0.7,1.5l-0.3,0.3c-1-0.7-0.5-2.2,1-2.2
			c0.9,0,1.7,0.5,1.7,1.3c0,0.8-0.8,1.4-0.8,1.4l-1.3,1.2h2.3l-0.1,0.6h-3.1V235z"/>
	</g>
	<g>
		<path d="M75.2,255.2h-0.3v-2h0.3c0.2,1,0.9,1.6,1.7,1.6c0.5,0,0.9-0.3,0.9-0.9c0-0.3-0.2-0.7-0.7-0.9l-0.9-0.5
			c-0.8-0.4-1.2-0.8-1.2-1.7c0-0.7,0.7-1.4,1.6-1.4c0.5,0,0.8,0.2,1.1,0.4c0.1-0.1,0.2-0.2,0.3-0.4h0.3v2h-0.3
			c-0.1-0.7-0.4-1.5-1.3-1.5c-0.4,0-0.7,0.3-0.7,0.7c0,0.3,0.2,0.7,0.7,0.9l0.9,0.4c0.6,0.3,1.2,0.9,1.2,1.6c0,1-0.9,1.6-1.8,1.6
			c-0.7,0-1.1-0.4-1.4-0.4C75.3,254.9,75.2,255,75.2,255.2z"/>
		<path d="M83.5,249.9v-0.3h2.2v0.3c-0.7,0-0.9,0.2-0.9,1.1v2.1c0,1.4-1,2.2-2.2,2.2c-1.2,0-2.2-0.7-2.2-2.2V251
			c0-0.9-0.1-1.1-0.9-1.1v-0.3h2.9v0.3c-0.8,0-0.9,0.2-0.9,1.1v2c0,1.2,0.6,1.7,1.4,1.7s1.3-0.5,1.3-1.7v-2
			C84.4,250.1,84.3,249.9,83.5,249.9z"/>
		<path d="M91.5,251c0-0.9-0.1-1.1-0.9-1.1v-0.3h2.1v0.3c-0.8,0-0.9,0.2-0.9,1.1v4.2h-0.2l-3.7-4.4v3c0,0.9,0.1,1.1,0.9,1.1v0.3
			h-2.1v-0.3c0.7,0,0.9-0.2,0.9-1.1V251c0-0.9-0.1-1.1-0.9-1.1v-0.3h1.8l3,3.6V251z"/>
		<path d="M93.9,254.8c0.7,0,0.9-0.2,0.9-1.1V251c0-0.9-0.1-1.1-0.9-1.1v-0.3h3c2.1,0,3,1.2,3,2.7s-0.9,2.7-3,2.7h-3V254.8z
			 M95.8,253.7c0,0.9,0.1,1,0.9,1h0.1c1.5,0,1.8-1.3,1.8-2.3c0-1-0.3-2.3-1.8-2.3c-0.1,0-1,0-1,0V253.7z"/>
		<path d="M101.5,254.1c-0.2,0.5-0.1,0.7,0.7,0.7v0.3H100v-0.3c0.6,0,0.8-0.2,1.1-0.8l2-4.5h0.2l2,4.5c0.3,0.6,0.4,0.8,1.1,0.8v0.3
			h-3v-0.3c0.8,0,0.9-0.2,0.7-0.7l-0.4-0.9h-1.8L101.5,254.1z M102.8,251.2l-0.7,1.6h1.4L102.8,251.2z"/>
		<path d="M110.7,250.7l-1.3,1.9v1.1c0,0.9,0.1,1.1,0.9,1.1v0.3h-2.8v-0.3c0.7,0,0.9-0.2,0.9-1.1v-1.1l-1.3-2
			c-0.4-0.6-0.7-0.8-1.3-0.8v-0.3h3.1v0.3c-0.6,0-0.8,0.2-0.5,0.7l1,1.5l1-1.5c0.3-0.5,0.2-0.7-0.5-0.7v-0.3h2.2v0.3
			C111.2,249.9,111.1,250.1,110.7,250.7z"/>
	</g>
	<g>
		<path d="M30.4,264.9v0.2h-2.3v-0.2c0.7,0,0.8-0.2,0.8-1.2v-1.6c0-1-0.1-1.2-0.8-1.2v-0.2h2.1c1,0,1.6,0.5,1.6,1.2
			c0,0.7-0.6,1.2-1.6,1.2h-0.6v0.5C29.6,264.7,29.8,264.9,30.4,264.9z M30.2,261.1h-0.6v1.7h0.6c0.6,0,0.8-0.4,0.8-0.9
			C31,261.5,30.8,261.1,30.2,261.1z"/>
		<path d="M35.8,263.9c0.4,0.5,0.9,0.9,1.3,0.9v0.2h-1.3l-1.4-1.9h-0.3v0.5c0,1,0.1,1.2,0.8,1.2v0.2h-2.3v-0.2
			c0.7,0,0.8-0.2,0.8-1.2v-1.6c0-1-0.1-1.2-0.8-1.2v-0.2h2.1c1,0,1.6,0.5,1.6,1.2c0,0.6-0.5,1.1-1.2,1.2L35.8,263.9z M34.8,261.1
			h-0.6v1.7h0.6c0.6,0,0.8-0.4,0.8-0.9C35.6,261.5,35.4,261.1,34.8,261.1z"/>
		<path d="M40.5,265.2c-1.3,0-2.4-1-2.4-2.3c0-1.3,1.1-2.3,2.4-2.3s2.4,1.1,2.4,2.3C42.9,264.2,41.8,265.2,40.5,265.2z M40.5,261
			c-1.2,0-1.6,1.1-1.6,1.9c0,0.9,0.4,1.9,1.6,1.9s1.6-1.1,1.6-1.9C42.1,262,41.6,261,40.5,261z"/>
		<path d="M47.5,261.8l-1.5,3.4h-0.1l-1.5-3.4c-0.3-0.8-0.4-0.9-1-0.9v-0.2h2.2v0.2c-0.7,0-0.8,0.2-0.5,0.8l1,2.4l1-2.4
			c0.3-0.6,0.3-0.8-0.5-0.8v-0.2h1.9v0.2C48,260.9,47.9,261.1,47.5,261.8z"/>
		<path d="M52.9,264.1l0-0.2h0.2l-0.1,1.2h-3.7v-0.2c0.7,0,0.8-0.2,0.8-1.2v-1.6c0-1-0.1-1.2-0.8-1.2v-0.2h2.2h1.3l0.1,1.2h-0.2
			l-0.1-0.2c-0.1-0.5-0.2-0.6-1.1-0.6h-0.7v1.5h0.1c1,0,1.1-0.1,1.1-0.8h0.2v1.9H52c0-0.7-0.1-0.8-1.1-0.8h-0.1v0.6
			c0,1,0.1,1.2,0.8,1.2h0.1C52.6,264.7,52.8,264.5,52.9,264.1z"/>
		<path d="M54.4,260.9v-0.2h1.2l2.7,3.2v-1.8c0-1-0.1-1.2-0.8-1.2v-0.2h1.9v0.2c-0.7,0-0.8,0.2-0.8,1.2v3.1h-0.2l-2.9-3.5v2
			c0,1,0.1,1.2,0.8,1.2v0.2h-1.9v-0.2c0.7,0,0.8-0.2,0.8-1.2v-1.6C55.2,261.1,55.1,260.9,54.4,260.9z"/>
		<path d="M60.8,262.9c0-1.3,1-2.3,2.3-2.3c0.5,0,1,0.3,1.3,0.7c0.1-0.1,0.1-0.3,0.2-0.5h0.2v1.7h-0.2c-0.2-0.9-0.7-1.5-1.5-1.5
			c-1.1,0-1.4,1.1-1.4,1.9c0,0.8,0.3,1.9,1.4,1.9c0.8,0,1.3-0.6,1.5-1.5h0.2v1.7h-0.2c0-0.2-0.1-0.4-0.2-0.5
			c-0.3,0.4-0.8,0.7-1.3,0.7l-0.4,0.4c0.3,0,0.8,0.2,0.8,0.8c0,0.7-1.1,1-1.5,1v-0.3c0.2-0.1,0.9-0.3,0.9-0.8c0-0.3-0.5-0.5-1-0.3
			V266l0.8-0.8C61.6,265,60.8,264,60.8,262.9z"/>
		<path d="M67,264.1c-0.2,0.6-0.2,0.8,0.5,0.8v0.2h-1.9v-0.2c0.6,0,0.7-0.1,1-0.9l1.5-3.4h0.1l1.5,3.4c0.3,0.7,0.4,0.9,1,0.9v0.2
			h-2.2v-0.2c0.7,0,0.8-0.2,0.5-0.8l-0.2-0.5h-1.6L67,264.1z M68.1,261.7l-0.7,1.5h1.3L68.1,261.7z"/>
		<path d="M71.6,260.9v-0.2h2.3v0.2c-0.7,0-0.8,0.2-0.8,1.2v1.4c0,1,0.1,1.2,0.8,1.2h0.3c0.9,0,1-0.2,1.2-0.6l0-0.2h0.2l-0.1,1.2h-4
			v-0.2c0.7,0,0.8-0.2,0.8-1.2v-1.6C72.3,261.1,72.2,260.9,71.6,260.9z"/>
		<path d="M81.2,264.9v0.2h-2.3v-0.2c0.7,0,0.8-0.2,0.8-1.2v-1.6c0-1-0.1-1.2-0.8-1.2v-0.2h2.3h1.3l0.1,1.2h-0.2l0-0.2
			c-0.1-0.5-0.2-0.6-1.2-0.6h-0.8v1.5h0.1c1,0,1.1-0.1,1.1-0.8h0.2v1.9h-0.2c0-0.7-0.1-0.8-1.1-0.8h-0.1v0.7
			C80.4,264.7,80.5,264.9,81.2,264.9z"/>
		<path d="M86.6,263.9c0.4,0.5,0.9,0.9,1.3,0.9v0.2h-1.3l-1.4-1.9h-0.3v0.5c0,1,0.1,1.2,0.8,1.2v0.2h-2.3v-0.2
			c0.7,0,0.8-0.2,0.8-1.2v-1.6c0-1-0.1-1.2-0.8-1.2v-0.2h2.1c1,0,1.6,0.5,1.6,1.2c0,0.6-0.5,1.1-1.2,1.2L86.6,263.9z M85.6,261.1
			h-0.6v1.7h0.6c0.6,0,0.8-0.4,0.8-0.9C86.4,261.5,86.2,261.1,85.6,261.1z"/>
		<path d="M88.7,265.1v-0.2c0.7,0,0.8-0.2,0.8-1.2v-1.6c0-1-0.1-1.2-0.8-1.2v-0.2H91v0.2c-0.7,0-0.8,0.2-0.8,1.2v1.6
			c0,1,0.1,1.2,0.8,1.2v0.2H88.7z"/>
		<path d="M95.8,264.1l0-0.2H96l-0.1,1.2h-3.7v-0.2c0.7,0,0.8-0.2,0.8-1.2v-1.6c0-1-0.1-1.2-0.8-1.2v-0.2h2.2h1.3l0.1,1.2h-0.2
			l-0.1-0.2c-0.1-0.5-0.2-0.6-1.1-0.6h-0.7v1.5h0.1c1,0,1.1-0.1,1.1-0.8h0.2v1.9h-0.2c0-0.7-0.1-0.8-1.1-0.8h-0.1v0.6
			c0,1,0.1,1.2,0.8,1.2h0.1C95.5,264.7,95.7,264.5,95.8,264.1z"/>
		<path d="M97.3,264.9c0.7,0,0.8-0.2,0.8-1.2v-1.6c0-1-0.1-1.2-0.8-1.2v-0.2h2.1c1.7,0,2.4,1,2.4,2.2c0,1.2-0.7,2.2-2.4,2.2h-2.1
			V264.9z M99.4,261.1c-0.1,0-0.5,0-0.6,0v2.8c0,0.6,0.1,0.8,0.6,0.8h0.1c1.3,0,1.6-1,1.6-1.8C101,262.1,100.7,261.1,99.4,261.1z"/>
		<path d="M109.6,265.1c0-0.2-0.1-0.4-0.2-0.5c-0.3,0.4-0.8,0.7-1.3,0.7c-1.2,0-2.3-1-2.3-2.3c0-1.3,1-2.3,2.3-2.3
			c0.5,0,1,0.3,1.3,0.7c0.1-0.1,0.1-0.3,0.2-0.5h0.2v1.7h-0.2c-0.2-0.9-0.7-1.5-1.5-1.5c-1.1,0-1.4,1.1-1.4,1.9
			c0,0.8,0.3,1.9,1.4,1.9c0.8,0,1.3-0.6,1.5-1.5h0.2v1.7H109.6z"/>
		<path d="M115,262.6v-0.5c0-1-0.1-1.2-0.8-1.2v-0.2h2.3v0.2c-0.7,0-0.8,0.2-0.8,1.2v1.6c0,1,0.1,1.2,0.8,1.2v0.2h-2.3v-0.2
			c0.7,0,0.8-0.2,0.8-1.2V263h-2.3v0.7c0,1,0.1,1.2,0.8,1.2v0.2h-2.3v-0.2c0.7,0,0.8-0.2,0.8-1.2v-1.6c0-1-0.1-1.2-0.8-1.2v-0.2h2.3
			v0.2c-0.7,0-0.8,0.2-0.8,1.2v0.5H115z"/>
		<path d="M117.7,265.1v-0.2c0.7,0,0.8-0.2,0.8-1.2v-1.6c0-1-0.1-1.2-0.8-1.2v-0.2h2.3v0.2c-0.7,0-0.8,0.2-0.8,1.2v1.6
			c0,1,0.1,1.2,0.8,1.2v0.2H117.7z"/>
		<path d="M125.1,265.1c0-0.2-0.1-0.4-0.2-0.5c-0.3,0.4-0.8,0.7-1.3,0.7c-1.2,0-2.3-1-2.3-2.3c0-1.3,1-2.3,2.3-2.3
			c0.5,0,1,0.3,1.3,0.7c0.1-0.1,0.1-0.3,0.2-0.5h0.2v1.7h-0.2c-0.2-0.9-0.7-1.5-1.5-1.5c-1.1,0-1.4,1.1-1.4,1.9
			c0,0.8,0.3,1.9,1.4,1.9c0.8,0,1.3-0.6,1.5-1.5h0.2v1.7H125.1z"/>
		<path d="M128.2,263.2v0.5c0,1,0.1,1.2,0.8,1.2v0.2h-2.3v-0.2c0.7,0,0.8-0.2,0.8-1.2v-1.6c0-1-0.1-1.2-0.8-1.2v-0.2h2.3v0.2
			c-0.7,0-0.8,0.2-0.8,1.2v0.6l1.2-1c0.7-0.6,0.7-0.8,0.1-0.8v-0.2h1.9v0.2c-0.5,0-0.8,0.2-1.6,0.9l-0.9,0.7l1.6,1.4
			c0.8,0.7,1.1,0.9,1.4,0.9v0.2h-2.3v-0.2c0.5,0,0.6-0.2,0-0.8l-1.2-1.1L128.2,263.2z"/>
		<path d="M136.3,264.1l0-0.2h0.2l-0.1,1.2h-3.7v-0.2c0.7,0,0.8-0.2,0.8-1.2v-1.6c0-1-0.1-1.2-0.8-1.2v-0.2h2.2h1.3l0.1,1.2h-0.2
			l-0.1-0.2c-0.1-0.5-0.2-0.6-1.1-0.6h-0.7v1.5h0.1c1,0,1.1-0.1,1.1-0.8h0.2v1.9h-0.2c0-0.7-0.1-0.8-1.1-0.8h-0.1v0.6
			c0,1,0.1,1.2,0.8,1.2h0.1C136,264.7,136.2,264.5,136.3,264.1z"/>
		<path d="M137.8,260.9v-0.2h1.2l2.7,3.2v-1.8c0-1-0.1-1.2-0.8-1.2v-0.2h1.9v0.2c-0.7,0-0.8,0.2-0.8,1.2v3.1h-0.2l-2.9-3.5v2
			c0,1,0.1,1.2,0.8,1.2v0.2h-1.9v-0.2c0.7,0,0.8-0.2,0.8-1.2v-1.6C138.6,261.1,138.4,260.9,137.8,260.9z"/>
		<path d="M150,265.1v-0.2c0.7,0,0.8-0.2,0.8-1.2v-1.5c0-1-0.2-1.1-1-1.1v-0.2l1.7-0.3v3.1c0,1,0.1,1.2,0.8,1.2v0.2H150z"/>
		<path d="M156.1,265.2c-0.9,0-1.6-0.6-1.6-1.2c0-0.7,0.6-1,1.1-1.3c-0.4-0.3-0.9-0.6-0.9-1c0-0.6,0.7-1.1,1.4-1.1
			c0.8,0,1.4,0.4,1.4,1c0,0.5-0.5,0.8-1,1c0.6,0.3,1.2,0.6,1.2,1.3C157.8,264.7,157,265.2,156.1,265.2z M155.9,262.9
			c-0.4,0.2-0.8,0.5-0.8,1.1c0,0.5,0.4,0.9,1,0.9c0.6,0,1-0.4,1-0.8C157.1,263.5,156.5,263.2,155.9,262.9z M156.1,260.9
			c-0.4,0-0.7,0.3-0.7,0.6c0,0.4,0.5,0.7,0.9,0.9c0.3-0.2,0.6-0.5,0.6-0.9C156.9,261.2,156.6,260.9,156.1,260.9z"/>
	</g>
</g>
</svg>
