<?xml version="1.0" encoding="utf-8"?>
<!-- Generator: Adobe Illustrator 17.1.0, SVG Export Plug-In . SVG Version: 6.00 Build 0)  -->
<!DOCTYPE svg PUBLIC "-//W3C//DTD SVG 1.1//EN" "http://www.w3.org/Graphics/SVG/1.1/DTD/svg11.dtd">
<svg version="1.1" id="Layer_1" xmlns="http://www.w3.org/2000/svg" xmlns:xlink="http://www.w3.org/1999/xlink" x="0px" y="0px"
	 viewBox="0 0 792 1224" enable-background="new 0 0 792 1224" xml:space="preserve">
<g>
	<path d="M234.4,46.5l-4.7-4.7h-6v-2.1h39.1c8.1,0,23.8,1.3,23.8,12.8s-15.3,13.6-24.2,13.6h-14v16.6l4.3,4.3h8.1v1.7h-37.4v-1.7
		h6.4l4.3-4.7V46.5H234.4z M248,64.4h9.8c13.2,0,14-6.8,14-11.9c0-11.1-8.1-11.1-10.6-11.1h-8.9l-3.8,3.8v19.1H248z"/>
	<path d="M308.8,45.2l-3.8-3.8h-9.8v-1.7h40v1.7h-8.5l-4.3,3.8v37.9l4.3,3.8h14L353,63.5h1.7v25.1h-59.5v-1.7h10.2l3-3.8V45.2H308.8
		z"/>
	<path d="M410.5,83.9l-4.3-10.2h-23.4l-3,5.1l3.8,8.1h3.8v1.7h-20.8v-1.7c3.4-0.9,6.8-3,8.9-6.8l24.2-41.7h5.1l18.7,43.4
		c2.1,5.1,8.1,5.1,10.2,5.1v1.7h-33.2v-1.7h7.7L410.5,83.9z M405.4,71.6L396.9,52c0,0-0.4-0.4-0.9-0.4s-0.4,0-0.9,0.4l-11.1,19.6
		C384.1,71.6,405.4,71.6,405.4,71.6z"/>
	<path d="M461.1,41.4h-10.2l-10.6,14.9H439V39.7h58.3v16.6H496l-10.6-14.9h-10.2v40.4l4.7,5.1h7.7v1.7h-38.7v-1.7h7.7l4.7-5.1
		L461.1,41.4L461.1,41.4z"/>
	<path d="M513,72h1.7c3.8,7.2,8.9,16.6,25.9,16.6c9.4,0,16.6-3,16.6-8.9c0-6.8-13.2-7.2-20.8-8.1c-13.6-1.7-24.7-4.7-24.7-17
		c0-7.2,5.5-15.7,22.1-15.7c10.2,0,17.4,3.4,20.4,4.7l5.5-4.7h1.3v15.7h-1.3c-3.4-6-9.8-14-25.9-14c-6.4,0-14.9,1.3-14.9,8.1
		c0,6,8.1,7.2,21.3,8.5c10.6,0.9,23.4,2.6,23.4,17c0,11.9-11.9,16.2-24.7,16.2c-11.5,0-16.2-3-18.7-5.1l-5.5,4.7H513V72z"/>
</g>
<text transform="matrix(1 0 0 1 573.4105 88.8204)" font-family="'EngraversLTStd-BoldFace'" font-size="93.5768"> </text>
<g>
	<path d="M215.7,140.9l-3-3h-5.5v-1.3h26.8c13.2,0,23,5.1,23,18.3c0,11.1-8.5,18.7-20.4,18.7h-29.3v-1.3h5.5l3-3.8V140.9z
		 M225.9,169l3,3.4h7.2c9.8,0,10.2-9.8,10.2-17.4s-1.3-17.4-11.1-17.4h-6.4l-3,3.4V169z"/>
	<path d="M313.9,162.6c0,8.5-6,11.9-17.4,11.9c-8.5,0-21.3-1.7-21.3-11.9v-21.7l-3-3h-5.5v-1.3h28.1v1.3h-6l-3,3.4v24.2
		c0,3.4,2.6,8.1,12.3,8.1c4.7,0,14.5-0.9,14.5-10.2v-18.7l-6-6.8H302v-1.3h23.4v1.3h-4.7l-6,6.8v17.9H313.9z"/>
	<path d="M368.4,136.7h28.1v1.3h-5.1l-3.8,3.4v19.6c0,13.2-12.8,14-17,14c-7.2,0-14-3.8-14-10.2c0-3,1.3-6.4,6-6.4
		c3,0,5.1,2.6,5.1,5.5c0,3.8-3,5.5-6,6c0,0,0,0,0,0.4s0,0.4,0,0.4c1.3,1.7,5.1,2.6,7.2,2.6c5.1,0,8.1-2.1,8.1-10.2v-22.1l-3.8-3.4
		h-5.1v-0.9H368.4z"/>
	<path d="M458.5,155.4c0,11.9-12.3,19.6-26.4,19.6s-26.4-7.7-26.4-19.6c0-11.9,12.3-19.6,26.4-19.6S458.5,143.5,458.5,155.4z
		 M416.8,155.4c0,8.9,1.7,18.3,15.3,18.3c13.6,0,15.3-8.9,15.3-18.3c0-9.4-1.7-18.3-15.3-18.3C418.5,137.1,416.8,146,416.8,155.4z"
		/>
	<path d="M515.9,162.6c0,8.5-6,11.9-17.4,11.9c-8.5,0-21.3-1.7-21.3-11.9v-21.7l-3.4-3.4h-5.5v-0.9h28.1v1.3h-6l-3,3.4v24.2
		c0,3.4,2.6,8.1,12.3,8.1c4.7,0,14.5-0.9,14.5-10.2v-18.7l-6-6.8h-4.7v-1.3H527v1.3h-4.7l-6,6.8v17.9H515.9z"/>
	<path d="M541.9,141.4l-3.8-3.4h-6v-1.3h32.8c6.8,0,16.6,1.3,16.6,8.9c0,6.4-8.9,7.7-13.6,8.1c-3.8,0.4-4.3,0.4-4.3,1.3
		c0,1.7,3.4,2.6,9.8,2.6l3,10.6c0.9,3,3,3.8,3.8,3.8h2.6v1.3h-15.3l-4.7-14.9c-0.4-1.7-2.6-3.8-6.4-3.8h-5.1v14.9l3.4,3h5.1v1.3
		h-28.1v-1.3h6.4l3.4-3.4v-27.6H541.9z M551.7,153.7c10.6,0,19.1,0,19.1-8.1c0-3.8-1.3-7.7-8.5-7.7h-6.8l-3.8,3V153.7z"/>
</g>
<g>
	<polygon fill="none" stroke="#000000" stroke-width="2" points="43,223 43,1210.7 43,1214.9 47.2,1214.9 743.9,1214.9 
		748.2,1214.9 748.2,1210.7 748.2,223 748.2,218.8 743.9,218.8 47.2,218.8 43,218.8 	"/>
</g>
<rect x="54" y="229.8" fill="none" stroke="#000000" stroke-width="0.668" width="682.3" height="973.6"/>
<g>
	<g>
		<defs>
			<rect id="SVGID_1_" y="4.8" width="792" height="1214.4"/>
		</defs>
		<clipPath id="SVGID_2_">
			<use xlink:href="#SVGID_1_"  overflow="visible"/>
		</clipPath>
		<path clip-path="url(#SVGID_2_)" d="M108.5,126c0.4,0,1.3,0,1.7,0c0.9-0.4,1.7-0.9,2.6-1.3c1.7-0.9,3-2.6,3.4-4.3
			c0.9-2.6,0-6-3-8.1l-0.4-0.4c-0.9-0.4-0.9-1.3,0-1.7c0.4-0.4,0.4-0.4,0.9-0.9c0.9-0.9,1.7-1.7,2.1-2.6c0.9-2.1,0.4-3.8,0-6
			c-0.9-1.7-2.1-3-3.8-3.4c-1.3-0.4-2.6-0.9-3.8-0.4c-0.9,0-1.7,0.4-3,0.9c-0.9,0.4-1.3,0-1.7-0.9c0-0.4,0-0.9,0-1.3
			c0-0.9,0-2.1-0.9-3c-0.9-1.7-2.1-3-3.8-3.8c-3-1.3-6-0.4-8.1,1.7c-1.7,1.3-2.6,3.8-2.6,6c0,0.4,0,0.9,0,0.9c0,0.4-0.9,0.4-1.3,0.4
			c-0.9-0.9-2.1-1.3-3.4-1.7c-1.7-0.4-3.4,0-4.7,0.9c-0.9,0.4-1.7,1.3-2.1,1.7c-1.7,1.7-2.1,3.4-1.7,5.5c0,0.9,0.4,1.7,0.9,3
			c0.4,0.9,1.3,1.7,2.1,2.1c0.4,0,0.9,0.4,0.9,0.9c0.4,0.4,0.4,0.9,0,1.7l-0.4,0.4c-1.7,1.3-3,3-3,5.5c0,1.7,0,3,0.9,4.7
			c0.4,0.4,0.9,1.3,1.3,1.7c0.9,0.9,2.1,1.3,3,1.7c2.1,0.4,4.3,0.9,6.4-0.9l0.4-0.4c0.9,0,1.3,0.4,1.3,1.3c0,1.3,0,2.6,0.4,3.8
			c0.4,0.9,0.9,1.3,1.3,2.1c0.4,0.4,0.4,0.4,0.9,0.9c0.4,0.9,1.3,1.3,2.6,1.3c1.3,0.4,2.1,0.4,3.4,0c0.9,0,1.7-0.4,2.6-0.9
			c0.4-0.4,0.9-0.9,1.3-1.3c1.7-1.3,2.6-3,2.6-5.1v-0.4c0-0.9,0.9-1.3,1.3-0.9C106.3,125.6,107.2,126,108.5,126 M82.5,94.6
			c1.3,0,2.6,0,3.4,0.9c0.4,0.4,0.9,0,0.9-0.4c0-0.9,0.4-1.7,0.4-2.6c0.4-0.9,0.9-1.7,1.7-2.6c0.9-0.9,1.7-1.7,3-2.1
			c1.3-0.4,2.1-0.9,3.4-0.9c1.3,0,2.6,0,3.8,0.9c0.9,0.4,1.7,0.9,2.1,1.7c1.3,0.9,2.1,2.1,2.6,3.8c0,0.4,0,0.4,0,0.9
			c0,0.4,0,0.4,0,0.9c0,1.3,0.4,1.3,1.7,0.9h0.4c2.1,0,4.3,0,6.4,0.9c1.3,0.9,2.6,1.7,3.4,3c0.4,0.9,0.9,1.7,0.9,2.6
			c0.4,1.3,0.4,2.6,0,4.3c-0.4,1.3-0.9,2.6-1.7,3.4c-0.4,0.4-0.9,0.9-1.3,1.3c-0.4,0.4-0.4,0.9,0,1.3c0.4,0.4,1.3,0.9,1.7,1.7
			c0.9,1.3,1.7,2.6,1.7,4.3c0,0.9,0,1.7,0,2.6c0,1.7-0.9,3-1.7,3.8c-0.9,0.9-1.3,1.7-2.1,2.1c-1.3,0.9-3,1.7-5.1,1.3
			c-0.9,0-2.1-0.4-3-0.4c-0.4,0-0.9,0-0.9,0.4c-0.4,2.1-1.3,3.8-3,5.5c-1.3,1.3-3.4,2.1-5.1,2.6c-1.7,0-3,0-4.7-0.4
			c-1.3-0.4-2.6-1.3-3-2.6c-0.4-0.4-0.9-1.3-0.9-1.7c-0.4-0.9-0.4-1.3-0.9-2.1c0-1.3-0.9-1.7-1.7-1.3c-2.1,0.9-4.3,0.4-6.4-0.4
			c-2.1-0.9-3.8-2.1-4.7-4.3c-1.3-2.1-0.9-4.3-0.4-6c0.4-1.7,1.3-3.4,3-4.3c0.4-0.4,0.4-0.9,0-1.3s-0.9-0.4-1.3-0.9
			c-0.9-0.4-0.9-1.7-1.7-2.6c-0.9-1.7-0.9-3.4-0.9-5.1c0.4-2.1,1.3-3.8,3-4.7c1.3-0.9,2.6-1.7,3.8-2.1
			C80.8,94.6,81.7,94.6,82.5,94.6"/>
	</g>
	<g>
		<defs>
			<rect id="SVGID_3_" y="4.8" width="792" height="1214.4"/>
		</defs>
		<clipPath id="SVGID_4_">
			<use xlink:href="#SVGID_3_"  overflow="visible"/>
		</clipPath>
		<path clip-path="url(#SVGID_4_)" d="M127.6,45.6c0,0.4-0.4,0.9-0.9,1.3c-0.9,0.9-2.1,1.7-3,2.6c-1.3,1.3-2.1,2.6-3,3.8
			c-0.9,0.9-1.3,2.1-1.7,3c-0.9,1.3-1.3,2.6-2.1,3.8c-0.4,0.9-1.3,1.7-1.3,3c0,0.9-0.9,1.3-0.9,2.1c-0.4,1.3-0.4,2.1-0.9,3.4
			c0,0.4,0,1.3-0.4,1.7c-0.4,0.9-0.4,1.7-0.4,3c0,0.4,0,0.4,0,0.9c0,0.9-0.4,1.7-0.4,2.6c0,2.6-0.4,4.7-0.4,7.2c0,1.7,0,3.4,0,4.7
			c0,0.4,0,0.4,0,0.9c0,0.4-0.4,0.4-0.9,0.4c-0.4,0-0.4-0.4-0.4-0.9v-0.4c0-0.4,0-0.4,0-0.9c-0.4-1.7,0-3,0-4.7c0-2.1,0-4.7,0.4-6.8
			c0-2.1,0.4-4.3,0.9-6.4c0.4-2.1,1.3-4.3,1.7-6.4c0.9-2.1,1.3-4.3,2.1-6s1.3-3,2.1-4.7c0.4-0.9,0.9-1.7,1.7-2.6
			c0.9-1.3,1.7-2.6,3-3.4c0.4-0.9,0.4-1.3,0.9-1.7c0.9-0.9,1.7-1.3,3-0.9C127.2,44.4,127.6,44.8,127.6,45.6"/>
	</g>
	<g>
		<defs>
			<rect id="SVGID_5_" y="4.8" width="792" height="1214.4"/>
		</defs>
		<clipPath id="SVGID_6_">
			<use xlink:href="#SVGID_5_"  overflow="visible"/>
		</clipPath>
		<path clip-path="url(#SVGID_6_)" d="M110.6,142.2c0-2.1,0-4.7,0-6.8c0-0.9,0-1.7,0-2.1v-0.4c0-0.4,0.4-0.4,0.9-0.4
			c0.4,0,0.4,0.4,0.4,0.9c0,3,0,5.5,0,8.5c0,1.3,0,2.6,0,3.8c0.4,2.6,0.4,4.7,0.9,7.2c0,1.3,0.4,2.1,0.9,3.4c0.4,0.9,0.9,2.1,1.3,3
			c0.4,0.9,0.4,1.3,0.9,2.1c0.4,0.9,0.9,1.3,0.9,2.1c0.4,1.7,1.7,2.6,2.6,3.8l0.4,0.4c0.4,0.4,0.9,1.3,1.3,1.7
			c0.9,1.3,1.7,2.1,2.6,3.4c0.4,0.9,1.3,1.3,1.7,1.7c0.4,0.4,0.4,0.4,0.9,0.4c0.4,0.4,0.9,0.4,1.3,0.9c0.9,0.9,0.4,2.1-0.9,2.6
			c-0.9,0.4-2.1,0-2.6-0.9c-0.9-0.9-1.7-2.1-2.6-3c-0.4-0.4-0.4-0.9-0.9-1.3c-0.9-1.3-2.1-2.6-3-4.3c-0.9-1.7-1.7-3.4-2.6-4.7
			s-1.3-2.6-1.7-4.3c-0.4-0.9-0.4-2.1-0.9-3c0-0.4-0.4-0.9-0.4-1.3v-0.4c-0.4-2.6-0.9-5.5-1.3-8.1
			C110.6,144.8,110.6,143.5,110.6,142.2L110.6,142.2"/>
	</g>
	<g>
		<defs>
			<rect id="SVGID_7_" y="4.8" width="792" height="1214.4"/>
		</defs>
		<clipPath id="SVGID_8_">
			<use xlink:href="#SVGID_7_"  overflow="visible"/>
		</clipPath>
		<path clip-path="url(#SVGID_8_)" d="M95.7,60.5c0-1.7,0.4-3.8,0.4-5.5c0.4-1.7,0.4-3.8,0.9-5.5c0.4-1.3,0.9-2.6,1.3-3.4
			s1.3-1.3,2.1-0.9s0.9,1.3,0.9,2.1c-0.4,1.3-0.9,2.6-1.3,4.3c-0.4,1.3-0.9,3-0.9,4.3c-0.9,3-0.4,6-0.4,8.9c0,1.7,0,3.4,0.4,5.5
			c0,0.9,0,1.7,0.4,2.6c0.4,2.1,1.3,4.3,1.7,6.4c0,0.4,0.4,0.9,0.4,1.3c0.4,1.3,0.9,2.1,1.3,3.4c0,0.4,0,0.4,0,0.9l-0.4,0.4
			c-0.4,0-0.4,0-0.9-0.4c0,0,0-0.4-0.4-0.9c0-0.4-0.4-0.9-0.4-0.9s0,0,0-0.4c-0.4-0.9-0.4-1.7-0.9-2.6c0-0.4-0.4-0.9-0.4-1.3
			c-0.4-0.9-0.9-2.1-0.9-3c-0.4-1.7-0.9-3.4-1.3-5.5c0-1.7-0.4-3-0.9-4.7C95.7,63.5,95.7,62.2,95.7,60.5"/>
	</g>
	<g>
		<defs>
			<rect id="SVGID_9_" y="4.8" width="792" height="1214.4"/>
		</defs>
		<clipPath id="SVGID_10_">
			<use xlink:href="#SVGID_9_"  overflow="visible"/>
		</clipPath>
		<path clip-path="url(#SVGID_10_)" d="M96.1,164.3c0-0.4,0-0.4,0-0.9c0-0.9,0-1.3,0-2.1c-0.4-1.3-0.4-3,0-4.3
			c0.4-1.7,0.4-3.4,0.9-4.7c0.4-1.3,0.4-2.1,0.4-3.4c0-0.4,0-0.9,0.4-1.3c0-0.4,0.4-0.9,0.4-1.3c0.4-0.9,0.9-2.1,0.9-3l0,0
			c0.4-0.9,0.4-1.7,0.9-2.6c0-0.4,0.4-0.9,0.9-1.3h0.4c0,0,0.4,0.4,0,0.9c-0.4,0.9-0.4,1.3-0.9,2.1c-0.4,0.9-0.9,2.1-1.3,3
			c-0.4,1.7-0.9,3-1.3,4.7c-0.9,2.6-0.9,5.1-0.9,8.1c0,3.4,0,6.4,0.9,9.8c0.4,1.3,0.9,2.1,1.3,3.4c0.9,1.7,1.3,3.8,2.1,5.5l0,0
			c0.4,0.9,0,1.3-0.4,1.7c-0.4,0.4-1.3,0.4-1.7,0c-0.4-0.4-0.9-1.3-1.3-2.1c-0.4-0.9-0.9-2.1-1.3-3.4s-0.4-2.6-0.9-3.8
			c0-0.4-0.4-0.9-0.4-1.3C96.6,166,96.6,165.2,96.1,164.3L96.1,164.3z"/>
	</g>
	<g>
		<defs>
			<rect id="SVGID_11_" y="4.8" width="792" height="1214.4"/>
		</defs>
		<clipPath id="SVGID_12_">
			<use xlink:href="#SVGID_11_"  overflow="visible"/>
		</clipPath>
		<path clip-path="url(#SVGID_12_)" d="M76.6,60.1c0,2.1,0.4,3.8,1.3,6c0.4,1.3,0.9,3,1.7,4.3c0.4,0.9,1.3,2.1,1.7,3
			c0.4,0.4,0.4,0.9,0.4,1.3c0.9,1.3,2.1,2.6,3,3.8c1.3,1.3,2.1,2.1,3.4,3.4c0.9,0.9,1.7,1.3,2.1,1.7l0.4,0.4c0.4,0.4,0.4,0.9,0,0.9
			c-0.4,0.4-0.4,0.4-0.9,0c-0.9-0.4-2.1-1.3-2.6-2.1c-1.7-1.3-3-3-4.3-4.3c-0.9-0.9-1.3-2.1-2.1-3c-0.4-0.9-0.9-1.3-1.7-1.7
			c-0.9-0.9-1.3-2.1-1.7-3.4v-0.4c-1.7-1.3-2.1-3.4-3-5.1c0,0,0,0,0-0.4C74,62.7,74,61,73.6,59.3c0-0.4,0-0.9,0-1.3s0-1.3,0.4-1.7
			c0.4-0.4,0.9-0.9,1.3-0.4c0.4,0,0.9,0.4,0.9,1.3C77,58.4,76.6,59.3,76.6,60.1"/>
	</g>
	<g>
		<defs>
			<rect id="SVGID_13_" y="4.8" width="792" height="1214.4"/>
		</defs>
		<clipPath id="SVGID_14_">
			<use xlink:href="#SVGID_13_"  overflow="visible"/>
		</clipPath>
		<path clip-path="url(#SVGID_14_)" d="M74.9,163c0-2.1,0.4-3.8,1.3-6c0.9-2.1,1.3-3.8,2.1-5.5c0.4-0.9,0.9-1.3,1.3-2.1
			c1.3-1.7,3-3.8,4.7-5.5c1.7-2.1,3.8-3.8,6-5.5c0.9-0.9,1.7-1.3,2.6-1.7h0.4l0.4,0.4c0,0.4-0.4,0.9-0.4,0.9c-0.9,0.9-1.7,1.3-3,1.7
			c-0.4,0.4-0.9,0.9-1.3,1.3c-1.3,1.3-2.6,2.1-3.8,3.4c-1.7,1.7-3,3.4-3.8,5.5c-0.9,1.7-1.7,3.4-2.6,5.5c-0.4,0.9-0.9,1.7-1.3,3
			c0,0.4,0,0.4,0,0.9c0,0.9,0,1.7,0,2.6s0,2.1,0,3c0,0.9-0.4,1.3-0.9,1.7c-0.4,0-1.3-0.4-1.3-1.3C75.3,164.3,74.9,163.5,74.9,163"/>
	</g>
	<g>
		<defs>
			<rect id="SVGID_15_" y="4.8" width="792" height="1214.4"/>
		</defs>
		<clipPath id="SVGID_16_">
			<use xlink:href="#SVGID_15_"  overflow="visible"/>
		</clipPath>
		<path clip-path="url(#SVGID_16_)" d="M57.8,72.9c0.4,0,0.9,0.4,0.9,0.9c0.4,0.9,0.4,2.1,0.9,3c0.9,1.7,1.7,3.8,3.4,5.1
			c0.9,0.9,1.7,1.7,2.6,2.6c1.3,1.3,2.6,1.7,3.8,2.6c2.6,1.3,5.1,2.6,7.7,3.8c0.9,0.4,1.7,0.4,2.1,0.4c0.9,0,1.3,0.4,1.7,0.9
			c0,0.4,0.4,0.9,0,0.9c-0.4,0-0.9,0.4-0.9,0c-1.3-0.4-2.1-0.9-3.4-1.3c-0.4,0-0.9-0.4-1.3-0.4c-1.7-0.9-3-1.3-4.7-2.1
			c-1.7-0.9-3-2.1-4.7-3c-1.3-0.4-2.1-1.3-3.4-2.1c-1.7-1.3-3-3-4.3-4.7c-0.9-1.3-1.7-3-1.7-4.7C56.1,73.7,57,72.9,57.8,72.9"/>
	</g>
	<g>
		<defs>
			<rect id="SVGID_17_" y="4.8" width="792" height="1214.4"/>
		</defs>
		<clipPath id="SVGID_18_">
			<use xlink:href="#SVGID_17_"  overflow="visible"/>
		</clipPath>
		<path clip-path="url(#SVGID_18_)" d="M42.5,109.5c2.6,0,5.1,0.4,7.7,0.4c1.7,0,3.4,0,5.5,0c2.1,0,4.7,0,6.8,0c0.4,0,0.4,0,0.9,0
			c0.4,0,0.9,0,0.9,0c0.4,0,0.4,0.4,0.4,0.9c0,0.4-0.4,0.9-0.9,0.9c-0.9,0-1.3,0-2.1,0c-3,0-6,0-8.9,0.4c-3,0.4-6,0.4-8.9,0.4
			c-1.3,0-3,0-4.3,0c-0.9,0-1.3,0-1.7-0.9c-0.4-0.4-0.4-0.9,0-1.3c0.4-0.4,0.9-0.4,0.9-0.9C40.4,109.9,41.3,109.5,42.5,109.5
			L42.5,109.5"/>
	</g>
	<g>
		<defs>
			<rect id="SVGID_19_" y="4.8" width="792" height="1214.4"/>
		</defs>
		<clipPath id="SVGID_20_">
			<use xlink:href="#SVGID_19_"  overflow="visible"/>
		</clipPath>
		<path clip-path="url(#SVGID_20_)" d="M57.8,149.4c0.4-0.9,0.4-1.7,0.9-2.6c0.9-1.3,1.7-2.6,2.1-3.8c0.9-1.7,2.1-2.6,3-3.8
			c1.3-1.3,2.6-2.6,3.8-3.8c0.9-0.9,1.7-1.3,2.6-2.1c2.1-1.3,3.8-2.6,6-3.8c0.9-0.4,1.3-0.9,2.1-1.3c0.4,0,0.9-0.4,0.9-0.4
			c0.4,0,0.9,0,0.9,0.4c0,0.4,0,0.4-0.4,0.9s-0.9,0.4-1.3,0.9c-0.9,0.4-2.1,1.3-3.4,1.7c-0.4,0.4-1.3,0.4-1.7,0.9
			c-0.9,0.4-1.7,0.9-2.1,1.3c-1.3,0.9-2.6,2.1-3.8,3c-0.9,0.4-1.3,1.3-1.7,2.1c-0.9,1.7-2.1,3-3,4.7c-0.9,1.3-1.3,2.6-2.1,3.8
			c-0.4,0.9-0.4,1.7-0.9,2.6c-0.4,0.4-0.4,0.9-0.9,1.3c-0.4,0.4-0.9,0-0.9,0C58.3,150.3,58.3,149.9,57.8,149.4"/>
	</g>
	<g>
		<defs>
			<rect id="SVGID_21_" y="4.8" width="792" height="1214.4"/>
		</defs>
		<clipPath id="SVGID_22_">
			<use xlink:href="#SVGID_21_"  overflow="visible"/>
		</clipPath>
		<path clip-path="url(#SVGID_22_)" d="M69.8,102.6c-2.1-0.4-4.3-0.9-6.4-1.3c-1.7-0.4-3.4-0.9-5.1-1.7c-1.7-0.9-3.4-1.3-4.7-2.1
			c-1.3-0.4-2.1-1.3-3.4-1.7c-1.3-0.9-2.6-2.1-3.8-3.4c-0.9-0.9-0.9-1.7-0.9-2.6c0-0.4,0.4-0.9,0.4-0.9c0.4,0,0.9,0,1.3,0.4
			c0.4,0,0.4,0.4,0.9,0.9c0.4,0.4,0.9,1.3,1.3,1.7l0.4,0.4c0.9,0.9,1.3,1.7,2.6,2.1c1.3,0.9,2.6,1.7,4.3,2.6
			c0.9,0.4,1.7,0.9,2.6,1.3c1.7,0.9,3.4,0.9,5.1,1.3c0.9,0,1.3,0.4,2.1,0.4c1.3,0.4,2.6,0.4,3.8,0.4c0.4,0,0.9,0,0.9,0
			c0.4,0,0.9,0.4,0.4,0.9c0,0.4-0.4,0.9-0.9,0.9C70.2,102.2,70.2,102.2,69.8,102.6C69.8,102.2,69.8,102.6,69.8,102.6"/>
	</g>
	<g>
		<defs>
			<rect id="SVGID_23_" y="4.8" width="792" height="1214.4"/>
		</defs>
		<clipPath id="SVGID_24_">
			<use xlink:href="#SVGID_23_"  overflow="visible"/>
		</clipPath>
		<path clip-path="url(#SVGID_24_)" d="M120.8,81.4C121.2,81.4,121.2,81.4,120.8,81.4c0.4-0.4,0.9-0.4,1.3-0.9s1.3-0.9,2.1-1.3
			c0.9-0.4,1.7-0.4,2.6-0.9c0.9-0.4,1.7-0.4,2.1-1.3c0.4-0.4,0-1.3-0.4-1.3c-0.9,0-1.7,0-2.1,0.4c-0.9,0.4-1.3,0.9-2.1,1.3
			c-0.9,0.9-1.7,1.7-2.6,2.6C121.2,80.5,121.2,81,120.8,81.4 M128.5,74.1c1.3,0,2.1,1.3,2.1,2.6c0,1.3-0.9,2.6-2.1,3
			c-0.4,0.4-1.3,0.4-2.1,0.4c-0.4,0-0.9,0.4-1.3,0.4c-0.4,0-1.3,0.4-1.7,0.4c-1.3,0.4-2.1,1.3-3,2.1c-0.9,0.9-1.7,1.7-2.1,2.6
			c-0.9,1.7-1.3,3.4-1.7,5.1c0,0.4-0.4,0.9-0.4,0.9c-0.4,0.4-0.9,0-0.9-0.4s0-0.9,0-1.7c0-0.4,0-0.9,0.4-1.3c0.4-0.9,0.4-1.7,0.9-3
			c0.4-1.3,1.3-2.6,1.7-3.8c0-0.4,0.4-0.9,0.9-1.3c0.9-0.9,1.3-2.1,2.1-3c0,0,0,0,0.4-0.4c0.4-1.3,1.7-1.7,2.6-2.6
			C125.5,74.6,127.2,74.6,128.5,74.1"/>
	</g>
	<g>
		<defs>
			<rect id="SVGID_25_" y="4.8" width="792" height="1214.4"/>
		</defs>
		<clipPath id="SVGID_26_">
			<use xlink:href="#SVGID_25_"  overflow="visible"/>
		</clipPath>
		<path clip-path="url(#SVGID_26_)" d="M127.6,146.5h0.4c0.9,0,1.3-0.4,1.7-1.3c0.4-0.4-0.4-0.4-0.4-0.9l0,0c0-0.4-0.4-0.9-0.9-0.9
			c-0.9,0-1.3,0-2.1,0c-1.3,0-2.1-0.4-3-1.3l-0.4-0.4c-0.4,0-0.4,0-0.4,0.4s0.4,0.9,0.4,0.9c0.9,0.9,1.7,2.1,3,3
			C125.9,146,126.8,146,127.6,146.5 M128,141.8c1.7,0,2.6,0.9,3,2.1s-0.9,3-1.7,3c-1.3,0.4-2.1,0.4-3.4,0c-1.3-0.4-2.6-1.3-3.4-2.1
			c-0.4-0.9-1.3-1.7-1.7-2.6c-0.4-0.4-0.4-0.9-0.9-1.3c-1.3-1.7-1.7-3.4-2.6-5.5c-0.4-1.7-0.9-3.4-1.3-5.1c0-0.4,0-0.9,0-1.3
			c0,0,0.4-0.4,0.9-0.4l0.4,0.4c0.4,1.3,0.4,2.6,0.4,3.8c0,0.4,0.4,0.9,0.4,1.3c0.4,0.9,0.9,1.7,1.3,2.6c0.9,1.3,1.7,2.6,3,3.4
			c0.9,0.4,1.7,0.9,3,0.9C126.8,141.8,127.2,141.8,128,141.8"/>
	</g>
	<g>
		<defs>
			<rect id="SVGID_27_" y="4.8" width="792" height="1214.4"/>
		</defs>
		<clipPath id="SVGID_28_">
			<use xlink:href="#SVGID_27_"  overflow="visible"/>
		</clipPath>
		<path clip-path="url(#SVGID_28_)" d="M45.5,131.6c0-0.9,0.9-1.7,1.3-2.1c1.7-1.7,3.8-3,5.5-4.7c0.4-0.4,1.3-0.4,1.7-0.9
			c0.9-0.4,1.7-0.9,2.1-1.3c0.4-0.4,0.9-0.4,1.3-0.4c1.3-0.4,2.6-1.3,4.3-1.7c2.1-0.9,4.7-1.3,6.8-2.1c0.4,0,0.9,0,1.3,0
			c0.4,0,0.4,0.4,0.4,0.4c0,0.4,0,0.4-0.4,0.9c0,0-0.4,0-0.4,0.4c-1.3,0.4-2.6,0.4-3.8,0.9c-0.4,0-0.9,0.4-1.3,0.4
			c-0.4,0-0.9,0-0.9,0.4c0,0,0,0-0.4,0c-0.9,0.4-1.7,0.9-2.6,0.9c-0.4,0.4-1.3,0.4-1.7,0.9c-1.3,0.4-2.6,1.3-3.4,2.1
			c-1.3,0.9-2.1,1.3-3.4,2.1c-0.4,0.4-1.3,0.9-1.7,1.3c-0.4,0.4-1.3,1.3-1.7,1.7c-0.4,0.4-0.9,1.3-1.3,1.7c-0.4,0.4-0.9,0.4-0.9,0.4
			C45.9,132.8,45.5,132.4,45.5,131.6"/>
	</g>
	<g>
		<defs>
			<rect id="SVGID_29_" y="4.8" width="792" height="1214.4"/>
		</defs>
		<clipPath id="SVGID_30_">
			<use xlink:href="#SVGID_29_"  overflow="visible"/>
		</clipPath>
		<path clip-path="url(#SVGID_30_)" d="M131.4,110.7c0.4-0.9-0.4-1.7-0.9-2.1c-0.4-1.3-1.7-1.7-3-1.7c-1.3-0.4-3,0.4-3.8,1.7
			c-0.9,1.3-1.3,2.6-0.9,3.8c0,0.4,0.4,0.9,0.9,1.3c0.9,1.3,1.7,1.7,3.4,2.1C128.9,115.8,131.9,112.9,131.4,110.7 M132.7,110.7
			c0,1.3-0.4,2.6-1.3,3.4c-0.4,0.4-0.4,0.9-0.9,1.3c-0.4,0.4-0.9,0.9-1.7,0.9c-0.4,0-1.3,0.4-1.7,0.4c-1.3,0-2.6-0.4-3.4-1.3
			c-1.3-1.3-2.1-2.6-2.1-4.7v-0.4c0.4-1.3,0.9-3,2.1-3.8c1.3-1.3,3-1.3,4.7-0.9C130.6,106,132.7,108.2,132.7,110.7"/>
	</g>
	<g>
		<defs>
			<rect id="SVGID_31_" y="4.8" width="792" height="1214.4"/>
		</defs>
		<clipPath id="SVGID_32_">
			<use xlink:href="#SVGID_31_"  overflow="visible"/>
		</clipPath>
		<path clip-path="url(#SVGID_32_)" d="M101.2,111.6c0-2.1-0.4-3-1.7-4.3c-0.9-0.9-2.1-1.7-3.8-1.3c-0.4,0-0.4,0-0.9,0
			s-0.9,0-0.9,0.4c-0.4,0-0.9,0.4-1.3,0.9c-1.3,0.9-2.1,2.1-2.1,3.8c0,0.4,0,0.4,0,0.9c0,1.3,0.4,2.1,1.3,3c0.4,0.4,1.3,0.9,1.7,1.3
			c0.4,0,0.9,0.4,1.3,0.4c1.3,0.4,2.1,0,3.4-0.4c0.4-0.4,0.9-0.9,1.3-0.9C100.4,113.7,101.2,112.9,101.2,111.6 M102.5,111.2
			c0,1.3-0.4,2.6-1.3,3.8c-1.3,1.7-3,2.6-5.1,3c-2.6,0.4-5.1-1.3-6.4-3.4c-0.9-1.3-0.9-2.6-0.9-3.8c0.4-2.1,1.7-3.8,3.4-5.1
			c1.3-0.9,2.6-0.9,4.3-0.4c1.7,0,3,0.9,3.8,2.1c0.4,0.9,1.3,1.3,1.3,2.1C102.5,109.5,102.5,110.3,102.5,111.2"/>
	</g>
	<g>
		<defs>
			<rect id="SVGID_33_" y="4.8" width="792" height="1214.4"/>
		</defs>
		<clipPath id="SVGID_34_">
			<use xlink:href="#SVGID_33_"  overflow="visible"/>
		</clipPath>
		<path clip-path="url(#SVGID_34_)" d="M681.4,126c-0.4,0-1.3,0-1.7,0c-0.9-0.4-1.7-0.9-2.6-1.3c-1.7-0.9-3-2.6-3.4-4.3
			c-0.9-2.6,0-6,3-8.1l0.4-0.4c0.9-0.4,0.9-1.3,0-1.7c-0.4-0.4-0.4-0.4-0.9-0.9c-0.9-0.9-1.7-1.7-2.1-2.6c-0.9-2.1-0.4-3.8,0-6
			c0.9-1.7,2.1-3,3.8-3.4c1.3-0.4,2.6-0.9,3.8-0.4c0.9,0,1.7,0.4,3,0.9c0.9,0.4,1.3,0,1.7-0.9c0-0.4,0-0.9,0-1.3c0-0.9,0-2.1,0.9-3
			c0.9-1.7,2.1-3,3.8-3.8c3-1.3,6-0.4,8.1,1.7c1.7,1.3,2.6,3.8,2.6,6c0,0.4,0,0.9,0,0.9c0.4,0.4,0.9,0.4,1.3,0.4
			c0.9-0.9,2.1-1.3,3.4-1.7c1.7-0.4,3.4,0,4.7,0.9c0.9,0.4,1.7,1.3,2.1,1.7c1.7,1.7,2.1,3.4,1.7,5.5c0,0.9-0.4,1.7-0.9,3
			c-0.4,0.9-1.3,1.7-2.1,2.1c-0.4,0-0.9,0.4-0.9,0.9c-0.4,0.4-0.4,0.9,0,1.7l0.4,0.4c1.7,1.3,3,3,3,5.5c0,1.7,0,3-0.9,4.7
			c-0.4,0.4-0.9,1.3-1.3,1.7c-0.9,0.9-2.1,1.3-3,1.7c-2.1,0.4-4.3,0.9-6.4-0.9l-0.4-0.4c-0.9,0-1.3,0.4-1.3,1.3c0,1.3,0,2.6-0.4,3.8
			c-0.4,0.9-0.9,1.3-1.3,2.1c-0.4,0.4-0.4,0.4-0.9,0.9c-0.4,0.9-1.3,1.3-2.6,1.3c-1.3,0.4-2.1,0.4-3.4,0c-0.9,0-1.7-0.4-2.6-0.9
			c-0.4-0.4-0.9-0.9-1.3-1.3c-1.7-1.3-2.6-3-2.6-5.1v-0.4c0-0.9-0.9-1.3-1.3-0.9C684,125.6,682.7,126,681.4,126 M707.8,94.6
			c-1.3,0-2.6,0-3.4,0.9c-0.4,0.4-0.9,0-0.9-0.4c0-0.9-0.4-1.7-0.4-2.6c-0.4-0.9-0.9-1.7-1.7-2.6s-1.7-1.7-3-2.1
			c-1.3-0.4-2.1-0.9-3.4-0.9s-2.6,0-3.8,0.9c-0.9,0.4-1.7,0.9-2.1,1.7c-1.3,0.9-2.1,2.1-2.6,3.8c0,0.4,0,0.4,0,0.9
			c0,0.4,0,0.4,0,0.9c0,1.3-0.4,1.3-1.7,0.9h-0.4c-2.1,0-4.3,0-6.4,0.9c-1.3,0.9-2.6,1.7-3.4,3c-0.4,0.9-0.9,1.7-0.9,2.6
			c-0.4,1.3-0.4,2.6,0,4.3c0.4,1.3,0.9,2.6,1.7,3.4c0.4,0.4,0.9,0.9,1.3,1.3c0.4,0.4,0.4,0.9,0,1.3c-0.4,0.4-1.3,0.9-1.7,1.7
			c-0.9,1.3-1.7,2.6-1.7,4.3c0,0.9,0,1.7,0,2.6c0,1.7,0.9,3,1.7,3.8c0.9,0.9,1.3,1.7,2.1,2.1c1.3,0.9,3,1.7,5.1,1.3
			c0.9,0,2.1-0.4,3-0.4c0.4,0,0.9,0,0.9,0.4c0.4,2.1,1.3,3.8,3,5.5c1.3,1.3,3.4,2.1,5.1,2.6c1.7,0,3,0,4.7-0.4
			c1.3-0.4,2.6-1.3,3-2.6c0.4-0.4,0.9-1.3,0.9-1.7c0.4-0.9,0.4-1.3,0.9-2.1c0-1.3,0.9-1.7,1.7-1.3c2.1,0.9,4.3,0.4,6.4-0.4
			c2.1-0.9,3.8-2.1,4.7-4.3c1.3-2.1,0.9-4.3,0.4-6c-0.4-1.7-1.3-3.4-3-4.3c-0.4-0.4-0.4-0.9,0-1.3s0.9-0.4,1.3-0.9
			c0.9-0.4,0.9-1.7,1.7-2.6c0.9-1.7,0.9-3.4,0.9-5.1c-0.4-2.1-1.3-3.8-3-4.7c-1.3-0.9-2.6-1.7-3.8-2.1
			C709.1,94.6,708.6,94.6,707.8,94.6"/>
	</g>
	<g>
		<defs>
			<rect id="SVGID_35_" y="4.8" width="792" height="1214.4"/>
		</defs>
		<clipPath id="SVGID_36_">
			<use xlink:href="#SVGID_35_"  overflow="visible"/>
		</clipPath>
		<path clip-path="url(#SVGID_36_)" d="M662.7,45.6c0,0.4,0.4,0.9,0.9,1.3c0.9,0.9,2.1,1.7,3,2.6c1.3,1.3,2.1,2.6,3,3.8
			c0.9,0.9,1.3,2.1,1.7,3c0.9,1.3,1.3,2.6,2.1,3.8c0.4,0.9,1.3,1.7,1.3,3c0,0.9,0.9,1.3,0.9,2.1c0.4,1.3,0.4,2.1,0.9,3.4
			c0,0.4,0,1.3,0.4,1.7c0.4,0.9,0.4,1.7,0.4,3c0,0.4,0,0.4,0,0.9c0,0.9,0.4,1.7,0.4,2.6c0,2.6,0.4,4.7,0.4,7.2c0,1.7,0,3.4,0,4.7
			c0,0.4,0,0.4,0,0.9c0,0.4,0.4,0.4,0.9,0.4c0.4,0,0.4-0.4,0.4-0.9v-0.4c0-0.4,0-0.4,0-0.9c0.4-1.7,0-3,0-4.7c0-2.1,0-4.7-0.4-6.8
			c0-2.1-0.4-4.3-0.9-6.4s-1.3-4.3-1.7-6.4c-0.9-2.1-1.3-4.3-2.1-6c-0.9-1.7-1.3-3-2.1-4.7c-0.4-0.9-0.9-1.7-1.7-2.6
			c-0.9-1.3-1.7-2.6-3-3.4c-0.4-0.4-0.9-0.9-1.3-1.3c-0.9-0.9-1.7-1.3-3-0.9C663.1,44.4,662.7,44.8,662.7,45.6"/>
	</g>
	<g>
		<defs>
			<rect id="SVGID_37_" y="4.8" width="792" height="1214.4"/>
		</defs>
		<clipPath id="SVGID_38_">
			<use xlink:href="#SVGID_37_"  overflow="visible"/>
		</clipPath>
		<path clip-path="url(#SVGID_38_)" d="M679.7,142.2c0-2.1,0-4.7,0-6.8c0-0.9,0-1.7,0-2.1v-0.4c0-0.4-0.4-0.4-0.9-0.4
			c-0.4,0-0.4,0.4-0.4,0.9c0,3,0,5.5,0,8.5c0,1.3,0,2.6,0,3.8c-0.4,2.6-0.4,4.7-0.9,7.2c0,1.3-0.4,2.1-0.9,3.4
			c-0.4,0.9-0.9,2.1-1.3,3c-0.4,0.9-0.4,1.3-0.9,2.1c-0.4,0.9-0.9,1.3-0.9,2.1c-0.4,1.7-1.7,2.6-2.6,3.8l-0.4,0.4
			c-0.4,0.4-0.9,1.3-1.3,1.7c-0.9,1.3-1.7,2.1-2.6,3.4c-0.4,0.9-1.3,1.3-1.7,1.7c-0.4,0.4-0.4,0.4-0.9,0.4c-0.4,0.4-0.9,0.4-1.3,0.9
			c-0.9,0.9-0.4,2.1,0.9,2.6c0.9,0.4,1.7,0,2.6-0.9c0.9-0.9,1.7-2.1,2.6-3c0.4-0.4,0.4-0.9,0.9-1.3c0.9-1.3,2.1-2.6,3-4.3
			c0.9-1.7,1.7-3.4,2.6-4.7s1.3-2.6,1.7-4.3c0.4-0.9,0.4-2.1,0.9-3c0-0.4,0.4-0.9,0.4-1.3v-0.4c0.4-2.6,0.9-5.5,1.3-8.1
			C679.7,144.8,679.3,143.5,679.7,142.2C679.3,142.2,679.7,142.2,679.7,142.2"/>
	</g>
	<g>
		<defs>
			<rect id="SVGID_39_" y="4.8" width="792" height="1214.4"/>
		</defs>
		<clipPath id="SVGID_40_">
			<use xlink:href="#SVGID_39_"  overflow="visible"/>
		</clipPath>
		<path clip-path="url(#SVGID_40_)" d="M694.6,60.5c0-1.7-0.4-3.8-0.4-5.5c-0.4-1.7-0.4-3.8-0.9-5.5c-0.4-1.3-0.9-2.6-1.3-3.4
			s-1.3-1.3-2.1-0.9c-0.9,0.4-0.9,1.3-0.9,2.1c0.4,1.3,0.9,2.6,1.3,4.3c0.4,1.3,0.9,3,0.9,4.3c0.9,3,0.4,6,0.4,8.9
			c0,1.7,0,3.4-0.4,5.5c0,0.9,0,1.7-0.4,2.6c-0.4,2.1-1.3,4.3-1.7,6.4c0,0.4-0.4,0.9-0.4,1.3c-0.4,1.3-0.9,2.1-1.3,3.4
			c0,0.4,0,0.4,0,0.9l0.4,0.4c0.4,0,0.4,0,0.9-0.4c0,0,0-0.4,0.4-0.9c0-0.4,0.4-0.9,0.4-0.9s0,0,0-0.4c0.4-0.9,0.4-1.7,0.9-2.6
			c0-0.4,0.4-0.9,0.4-1.3c0.4-0.9,0.9-2.1,0.9-3c0.4-1.7,0.9-3.4,1.3-5.5c0-1.7,0.4-3,0.9-4.7C694.2,63.5,694.2,62.2,694.6,60.5"/>
	</g>
	<g>
		<defs>
			<rect id="SVGID_41_" y="4.8" width="792" height="1214.4"/>
		</defs>
		<clipPath id="SVGID_42_">
			<use xlink:href="#SVGID_41_"  overflow="visible"/>
		</clipPath>
		<path clip-path="url(#SVGID_42_)" d="M693.7,164.3c0-0.4,0-0.4,0-0.9c0-0.9,0-1.3,0-2.1c0.4-1.3,0.4-3,0-4.3
			c-0.4-1.7-0.4-3.4-0.9-4.7c-0.4-1.3-0.4-2.1-0.4-3.4c0-0.4,0-0.9-0.4-1.3c0-0.4-0.4-0.9-0.4-1.3c-0.4-0.9-0.9-2.1-0.9-3l0,0
			c-0.4-0.9-0.4-1.7-0.9-2.6c0-0.4-0.4-0.9-0.9-1.3h-0.4c0,0-0.4,0.4,0,0.9c0.4,0.9,0.4,1.3,0.9,2.1c0.4,0.9,0.9,2.1,1.3,3
			c0.4,1.7,0.9,3,1.3,4.7c0.9,2.6,0.9,5.1,0.9,8.1c0,3.4,0,6.4-0.9,9.8c-0.4,1.3-0.9,2.1-1.3,3.4c-0.9,1.7-1.3,3.8-2.1,5.5l0,0
			c-0.4,0.9,0,1.3,0.4,1.7c0.4,0.4,1.3,0.4,1.7,0c0.4-0.4,0.9-1.3,1.3-2.1c0.4-0.9,0.9-2.1,1.3-3.4c0.4-1.3,0.4-2.6,0.9-3.8
			c0-0.4,0.4-0.9,0.4-1.3C693.7,166,693.7,165.2,693.7,164.3L693.7,164.3z"/>
	</g>
	<g>
		<defs>
			<rect id="SVGID_43_" y="4.8" width="792" height="1214.4"/>
		</defs>
		<clipPath id="SVGID_44_">
			<use xlink:href="#SVGID_43_"  overflow="visible"/>
		</clipPath>
		<path clip-path="url(#SVGID_44_)" d="M713.3,60.1c0,2.1-0.4,3.8-1.3,6c-0.4,1.3-0.9,3-1.7,4.3c-0.4,0.9-1.3,2.1-1.7,3
			c-0.4,0.4-0.4,0.9-0.4,1.3c-0.9,1.3-2.1,2.6-3,3.8c-1.3,1.3-2.1,2.1-3.4,3.4c-0.9,0.9-1.7,1.3-2.1,1.7l-0.4,0.4
			c-0.4,0.4-0.4,0.9,0,0.9c0.4,0.4,0.4,0.4,0.9,0c0.9-0.4,2.1-1.3,2.6-2.1c1.7-1.3,3-3,4.3-4.3c0.9-0.9,1.3-2.1,2.1-3
			c0.4-0.9,0.9-1.3,1.7-1.7c0.9-0.9,1.3-2.1,1.7-3.4v-0.4c1.7-1.3,2.1-3.4,3-5.1c0,0,0,0,0-0.4c0.4-1.7,0.4-3.4,0.9-5.1
			c0-0.4,0-0.9,0-1.3s0-1.3-0.4-1.7c-0.4-0.4-0.9-0.9-1.3-0.4c-0.4,0-0.9,0.4-0.9,1.3C713.3,58.4,713.3,59.3,713.3,60.1"/>
	</g>
	<g>
		<defs>
			<rect id="SVGID_45_" y="4.8" width="792" height="1214.4"/>
		</defs>
		<clipPath id="SVGID_46_">
			<use xlink:href="#SVGID_45_"  overflow="visible"/>
		</clipPath>
		<path clip-path="url(#SVGID_46_)" d="M715,163c0-2.1-0.4-3.8-1.3-6c-0.9-2.1-1.3-3.8-2.1-5.5c-0.4-0.9-0.9-1.3-1.3-2.1
			c-1.3-1.7-3-3.8-4.7-5.5c-1.7-2.1-3.8-3.8-6-5.5c-0.9-0.9-1.7-1.3-2.6-1.7h-0.4l-0.4,0.4c0,0.4,0.4,0.9,0.4,0.9
			c0.9,0.9,1.7,1.3,3,1.7c0.4,0.4,0.9,0.9,1.3,1.3c1.3,1.3,2.6,2.1,3.8,3.4c1.7,1.7,3,3.4,3.8,5.5c0.9,1.7,1.7,3.4,2.6,5.5
			c0.4,0.9,0.9,1.7,1.3,3c0,0.4,0,0.4,0,0.9c0,0.9,0,1.7,0,2.6s0,2.1,0,3c0,0.9,0.4,1.3,0.9,1.7c0.4,0,1.3-0.4,1.3-1.3
			C715,164.3,715,163.5,715,163"/>
	</g>
	<g>
		<defs>
			<rect id="SVGID_47_" y="4.8" width="792" height="1214.4"/>
		</defs>
		<clipPath id="SVGID_48_">
			<use xlink:href="#SVGID_47_"  overflow="visible"/>
		</clipPath>
		<path clip-path="url(#SVGID_48_)" d="M732,72.9c-0.4,0-0.9,0.4-0.9,0.9c-0.4,0.9-0.4,2.1-0.9,3c-0.9,1.7-1.7,3.8-3.4,5.1
			c-0.9,0.9-1.7,1.7-2.6,2.6c-1.3,1.3-2.6,1.7-3.8,2.6c-2.6,1.3-5.1,2.6-7.7,3.8c-0.9,0.4-1.7,0.4-2.1,0.4c-0.9,0-1.3,0.4-1.7,0.9
			c0,0.4-0.4,0.9,0,0.9c0.4,0,0.9,0.4,0.9,0c1.3-0.4,2.1-0.9,3.4-1.3c0.4,0,0.9-0.4,1.3-0.4c1.7-0.9,3-1.3,4.7-2.1s3-2.1,4.7-3
			c1.3-0.4,2.1-1.3,3.4-2.1c1.7-1.3,3-3,4.3-4.7c0.9-1.3,1.7-3,1.7-4.7C734.2,73.7,733.3,72.9,732,72.9"/>
	</g>
	<g>
		<defs>
			<rect id="SVGID_49_" y="4.8" width="792" height="1214.4"/>
		</defs>
		<clipPath id="SVGID_50_">
			<use xlink:href="#SVGID_49_"  overflow="visible"/>
		</clipPath>
		<path clip-path="url(#SVGID_50_)" d="M747.8,109.5c-2.6,0-5.1,0.4-7.7,0.4c-1.7,0-3.4,0-5.5,0c-2.1,0-4.7,0-6.8,0
			c-0.4,0-0.4,0-0.9,0c-0.4,0-0.9,0-0.9,0c-0.4,0-0.4,0.4-0.4,0.9c0,0.4,0.4,0.9,0.9,0.9c0.9,0,1.3,0,2.1,0c3,0,6,0,8.9,0.4
			c3,0.4,6,0.4,8.9,0.4c1.3,0,2.6,0,4.3,0c0.9,0,1.3,0,1.7-0.9c0.4-0.4,0.4-0.9,0-1.3c-0.4-0.4-0.9-0.4-0.9-0.9
			C749.9,109.9,748.6,109.5,747.8,109.5L747.8,109.5"/>
	</g>
	<g>
		<defs>
			<rect id="SVGID_51_" y="4.8" width="792" height="1214.4"/>
		</defs>
		<clipPath id="SVGID_52_">
			<use xlink:href="#SVGID_51_"  overflow="visible"/>
		</clipPath>
		<path clip-path="url(#SVGID_52_)" d="M732.5,149.4c-0.4-0.9-0.4-1.7-0.9-2.6c-0.9-1.3-1.7-2.6-2.1-3.8c-0.9-1.7-2.1-2.6-3-3.8
			c-1.3-1.3-2.6-2.6-3.8-3.8c-0.9-0.9-1.7-1.3-2.6-2.1c-2.1-1.3-3.8-2.6-6-3.8c-0.9-0.4-1.3-0.9-2.1-1.3c-0.4,0-0.9-0.4-0.9-0.4
			c-0.4,0-0.9,0-0.9,0.4c0,0.4,0,0.4,0.4,0.9s0.9,0.4,1.3,0.9c0.9,0.4,2.1,1.3,3.4,1.7c0.4,0.4,1.3,0.4,1.7,0.9
			c0.9,0.4,1.7,0.9,2.1,1.3c1.3,0.9,2.6,2.1,3.8,3c0.9,0.4,1.3,1.3,1.7,2.1c0.9,1.7,2.1,3,3,4.7c0.9,1.3,1.3,2.6,2.1,3.8
			c0.4,0.9,0.4,1.7,0.9,2.6c0.4,0.4,0.4,0.9,0.9,1.3c0.4,0.4,0.9,0,0.9,0C732,150.3,732,149.9,732.5,149.4"/>
	</g>
	<g>
		<defs>
			<rect id="SVGID_53_" y="4.8" width="792" height="1214.4"/>
		</defs>
		<clipPath id="SVGID_54_">
			<use xlink:href="#SVGID_53_"  overflow="visible"/>
		</clipPath>
		<path clip-path="url(#SVGID_54_)" d="M720.5,102.6c2.1-0.4,4.3-0.9,6.4-1.3c1.7-0.4,3.4-0.9,5.1-1.7c1.7-0.9,3.4-1.3,4.7-2.1
			c1.3-0.4,2.1-1.3,3.4-1.7c1.3-0.9,2.6-2.1,3.8-3.4c0.9-0.9,0.9-1.7,0.9-2.6c0-0.4-0.4-0.9-0.4-0.9c-0.4,0-0.9,0-1.3,0.4
			c-0.4,0-0.4,0.4-0.9,0.9c-0.4,0.4-0.9,1.3-1.3,1.7l-0.4,0.4c-0.9,0.9-1.3,1.7-2.6,2.1c-1.3,0.9-2.6,1.7-4.3,2.6
			c-0.9,0.4-1.7,0.9-2.6,1.3c-1.7,0.9-3.4,0.9-5.1,1.3c-0.9,0-1.3,0.4-2.1,0.4c-1.3,0.4-2.6,0.4-3.8,0.4c-0.4,0-0.9,0-0.9,0
			c-0.4,0-0.9,0.4-0.4,0.9c0,0.4,0.4,0.9,0.9,0.9C719.7,102.2,720.1,102.2,720.5,102.6C720.5,102.2,720.5,102.6,720.5,102.6"/>
	</g>
	<g>
		<defs>
			<rect id="SVGID_55_" y="4.8" width="792" height="1214.4"/>
		</defs>
		<clipPath id="SVGID_56_">
			<use xlink:href="#SVGID_55_"  overflow="visible"/>
		</clipPath>
		<path clip-path="url(#SVGID_56_)" d="M669.1,81.4L669.1,81.4c-0.4-0.4-0.9-0.4-1.3-0.9c-0.4-0.4-1.3-0.9-2.1-1.3s-1.7-0.4-2.6-0.9
			c-0.9-0.4-1.7-0.4-2.1-1.3c-0.4-0.4,0-1.3,0.4-1.3c0.9,0,1.7,0,2.1,0.4c0.9,0.4,1.3,0.9,2.1,1.3c0.9,0.9,1.7,1.7,2.6,2.6
			C669.1,80.5,669.1,81,669.1,81.4 M661.8,74.1c-1.3,0-2.1,1.3-2.1,2.6c0,1.3,0.9,2.6,2.1,3c0.4,0.4,1.3,0.4,2.1,0.4
			c0.4,0,0.9,0.4,1.3,0.4c0.4,0,1.3,0.4,1.7,0.4c1.3,0.4,2.1,1.3,3,2.1c0.9,0.9,1.7,1.7,2.1,2.6c0.9,1.7,1.3,3.4,1.7,5.1
			c0,0.4,0.4,0.9,0.4,0.9c0.4,0.4,0.9,0,0.9-0.4s0-0.9,0-1.7c0-0.4,0-0.9-0.4-1.3c-0.4-0.9-0.4-1.7-0.9-3c-0.4-1.3-1.3-2.6-1.7-3.8
			c0-0.4-0.4-0.9-0.9-1.3c-0.9-0.9-1.3-2.1-2.1-3c0,0,0,0-0.4-0.4c-0.4-1.3-1.7-1.7-2.6-2.6C664.4,74.6,663.1,74.6,661.8,74.1"/>
	</g>
	<g>
		<defs>
			<rect id="SVGID_57_" y="4.8" width="792" height="1214.4"/>
		</defs>
		<clipPath id="SVGID_58_">
			<use xlink:href="#SVGID_57_"  overflow="visible"/>
		</clipPath>
		<path clip-path="url(#SVGID_58_)" d="M662.7,146.5h-0.4c-0.9,0-1.3-0.4-1.7-1.3c-0.4-0.4,0.4-0.4,0.4-0.9l0,0
			c0-0.4,0.4-0.9,0.9-0.9c0.9,0,1.3,0,2.1,0c1.3,0,2.1-0.4,3-1.3l0.4-0.4c0.4,0,0.4,0,0.4,0.4s-0.4,0.9-0.4,0.9
			c-0.9,0.9-1.7,2.1-3,3C664,146,663.5,146,662.7,146.5 M662.3,141.8c-1.7,0-2.6,0.9-3,2.1s0.9,3,1.7,3c1.3,0.4,2.1,0.4,3.4,0
			s2.6-1.3,3.4-2.1c0.4-0.9,1.3-1.7,1.7-2.6c0.4-0.4,0.4-0.9,0.9-1.3c1.3-1.7,1.7-3.4,2.6-5.5c0.4-1.7,0.9-3.4,1.3-5.1
			c0-0.4,0-0.9,0-1.3c0,0-0.4-0.4-0.9-0.4l-0.4,0.4c-0.4,1.3-0.4,2.6-0.4,3.8c0,0.4-0.4,0.9-0.4,1.3c-0.4,0.9-0.9,1.7-1.3,2.6
			c-0.9,1.3-1.7,2.6-3,3.4c-0.9,0.4-1.7,0.9-3,0.9C663.5,141.8,662.7,141.8,662.3,141.8"/>
	</g>
	<g>
		<defs>
			<rect id="SVGID_59_" y="4.8" width="792" height="1214.4"/>
		</defs>
		<clipPath id="SVGID_60_">
			<use xlink:href="#SVGID_59_"  overflow="visible"/>
		</clipPath>
		<path clip-path="url(#SVGID_60_)" d="M744.8,131.6c0-0.9-0.9-1.7-1.3-2.1c-1.7-1.7-3.8-3-5.5-4.7c-0.4-0.4-1.3-0.4-1.7-0.9
			c-0.9-0.4-1.7-0.9-2.1-1.3c-0.4-0.4-0.9-0.4-1.3-0.4c-1.3-0.4-2.6-1.3-4.3-1.7c-2.1-0.9-4.7-1.3-6.8-2.1c-0.4,0-0.9,0-1.3,0
			c-0.4,0-0.4,0.4-0.4,0.4c0,0.4,0,0.4,0.4,0.9c0,0,0.4,0,0.4,0.4c1.3,0.4,2.6,0.4,3.8,0.9c0.4,0,0.9,0.4,1.3,0.4
			c0.4,0,0.9,0,0.9,0.4c0,0,0,0,0.4,0c0.9,0.4,1.7,0.9,2.6,0.9c0.4,0.4,1.3,0.4,1.7,0.9c1.3,0.4,2.6,1.3,3.4,2.1
			c1.3,0.9,2.1,1.3,3.4,2.1c0.4,0.4,1.3,0.9,1.7,1.3c0.9,0.4,1.3,1.3,1.7,1.7c0.4,0.4,0.9,1.3,1.3,1.7c0.4,0.4,0.9,0.4,0.9,0.4
			C744.4,132.8,744.8,132.4,744.8,131.6"/>
	</g>
	<g>
		<defs>
			<rect id="SVGID_61_" y="4.8" width="792" height="1214.4"/>
		</defs>
		<clipPath id="SVGID_62_">
			<use xlink:href="#SVGID_61_"  overflow="visible"/>
		</clipPath>
		<path clip-path="url(#SVGID_62_)" d="M658.9,110.7c-0.4-0.9,0.4-1.7,0.9-2.1c0.4-0.9,1.7-1.3,3-1.7c1.3-0.4,3,0.4,3.8,1.7
			c0.9,1.3,1.3,2.6,0.9,3.8c0,0.4-0.4,0.9-0.9,1.3c-0.9,1.3-1.7,1.7-3.4,2.1C661,115.8,658.4,112.9,658.9,110.7 M657.6,110.7
			c0,1.3,0.4,2.6,1.3,3.4c0.4,0.4,0.4,0.9,0.9,1.3s0.9,0.9,1.7,0.9c0.4,0,1.3,0.4,1.7,0.4c1.3,0,2.6-0.4,3.4-1.3
			c1.3-1.3,2.1-2.6,2.1-4.7v-0.4c-0.4-1.3-0.9-3-2.1-3.8c-1.3-1.3-3-1.3-4.7-0.9C659.3,106,657.2,108.2,657.6,110.7"/>
	</g>
	<g>
		<defs>
			<rect id="SVGID_63_" y="4.8" width="792" height="1214.4"/>
		</defs>
		<clipPath id="SVGID_64_">
			<use xlink:href="#SVGID_63_"  overflow="visible"/>
		</clipPath>
		<path clip-path="url(#SVGID_64_)" d="M689.1,111.6c0-2.1,0.4-3,1.7-4.3c0.9-0.9,2.1-1.7,3.8-1.3c0.4,0,0.4,0,0.9,0
			c0.4,0,0.9,0,0.9,0.4c0.4,0,0.9,0.4,1.3,0.9c1.3,0.9,2.1,2.1,2.1,3.8c0,0.4,0,0.4,0,0.9c0,1.3-0.4,2.1-1.3,3
			c-0.4,0.4-1.3,0.9-1.7,1.3c-0.4,0-0.9,0.4-1.3,0.4c-1.3,0.4-2.1,0-3.4-0.4c-0.4-0.4-0.9-0.9-1.3-0.9
			C689.9,113.7,688.6,112.9,689.1,111.6 M687.4,111.2c0,1.3,0.4,2.6,1.3,3.8c1.3,1.7,3,2.6,5.1,3c2.6,0.4,5.1-1.3,6.4-3.4
			c0.9-1.3,0.9-2.6,0.9-3.8c-0.4-2.1-1.7-3.8-3.4-5.1c-1.3-0.9-2.6-0.9-4.3-0.4c-1.7,0-3,0.9-3.8,2.1c-0.4,0.9-1.3,1.3-1.3,2.1
			C687.8,109.5,687.8,110.3,687.4,111.2"/>
	</g>
</g>
<line fill="none" stroke="#000000" stroke-width="0.5" x1="174.8" y1="110.7" x2="604.4" y2="110.7"/>
<g>
	<g>
		<path fill="#231F20" d="M312.1,310c0,3.9,0.5,4.6,3.7,4.6v1.1h-9.2v-1.1c3.2,0,3.7-0.7,3.7-4.6v-12c0-3.9-0.5-4.6-3.7-4.6v-1.1
			h7.8l7.5,16.8l7.3-16.8h7.6v1.1c-3.3,0-3.7,0.7-3.7,4.6v12c0,3.9,0.5,4.6,3.7,4.6v1.1h-12.1v-1.1c3.2,0,3.7-0.7,3.7-4.6v-11.2
			l-7.6,17.6h-0.9l-7.8-17.6V310z"/>
		<path fill="#231F20" d="M355.9,316.3c-7.1,0-13-5.6-13-12.3c0-6.8,5.8-12.3,13-12.3c7.2,0,13,5.6,13,12.3
			C368.9,310.7,363.1,316.3,355.9,316.3z M355.9,293.5c-5.5,0-7.7,5.8-7.7,10.5c0,4.7,2.3,10.5,7.7,10.5c5.5,0,7.7-5.8,7.7-10.5
			C363.7,299.3,361.4,293.5,355.9,293.5z"/>
		<path fill="#231F20" d="M395.8,298c0-3.9-0.5-4.6-3.7-4.6v-1.1h9.2v1.1c-3.3,0-3.7,0.7-3.7,4.6v18.3h-1l-16.1-19.2V310
			c0,3.9,0.5,4.6,3.7,4.6v1.1H375v-1.1c3.2,0,3.7-0.7,3.7-4.6v-12c0-3.9-0.5-4.6-3.7-4.6v-1.1h7.8l13,15.5V298z"/>
		<path fill="#231F20" d="M406.1,314.5c3.2,0,3.7-0.7,3.7-4.6v-12c0-3.9-0.5-4.6-3.7-4.6v-1.1h12.8c9,0,13,5.3,13,11.7
			c0,6.4-3.9,11.7-13,11.7h-12.8V314.5z M414.7,309.5c0,3.8,0.5,4.4,3.7,4.4h0.4c6.3,0,7.6-5.5,7.6-9.9c0-4.4-1.3-9.9-7.6-9.9
			c-0.4,0-4.1,0-4.1,0V309.5z"/>
		<path fill="#231F20" d="M439.3,311.6c-0.9,2.1-0.3,3,2.9,3v1.1h-9.4v-1.1c2.7,0,3.6-0.7,4.8-3.4l8.4-19.5h0.8l8.5,19.5
			c1.1,2.5,1.6,3.4,4.7,3.4v1.1h-12.8v-1.1c3.4,0,3.8-0.9,2.9-3l-1.6-3.7h-7.7L439.3,311.6z M444.8,299l-3.1,7.1h6.2L444.8,299z"/>
		<path fill="#231F20" d="M478.9,296.8l-5.6,8.4v4.7c0,3.9,0.5,4.6,3.7,4.6v1.1h-12.1v-1.1c3.2,0,3.7-0.7,3.7-4.6v-4.6l-5.6-8.5
			c-1.8-2.8-2.9-3.4-5.6-3.4v-1.1h13.2v1.1c-2.7,0-3.5,0.9-2.1,3l4.4,6.6l4.4-6.6c1.4-2.1,1-3-2.1-3v-1.1h9.4v1.1
			C481.3,293.4,480.5,294.3,478.9,296.8z"/>
	</g>
	<g>
		<path fill="#231F20" d="M206.7,341v-0.9h9.9v0.9c-2.9,0-3.4,0.7-3.4,5v6.2c0,4.3,0.5,5,3.4,5h1.5c4,0,4.5-0.7,5-2.8l0.2-0.9h0.9
			l-0.3,5.2h-17.2V358c2.9,0,3.4-0.7,3.4-5.1V346C210.2,341.7,209.6,341,206.7,341z"/>
		<path fill="#231F20" d="M239.1,359.6c-5.8,0-10.5-4.5-10.5-10.1c0-5.5,4.8-10.1,10.5-10.1s10.5,4.6,10.5,10.1
			C249.6,355.1,244.9,359.6,239.1,359.6z M239.1,341.1c-5.1,0-7,4.7-7,8.4c0,3.8,1.9,8.4,7,8.4s7-4.7,7-8.4
			C246.1,345.8,244.2,341.1,239.1,341.1z"/>
		<path fill="#231F20" d="M256.2,358c2.9,0,3.4-0.7,3.4-5.1V346c0-4.3-0.5-5-3.4-5v-0.9h4.8h4.3c4.1,0,6.2,2.1,6.2,4.7
			c0,1.5-0.7,2.8-1.9,3.7c2.2,1,3.4,2.8,3.4,4.9c0,3-2.4,5.3-6.9,5.3h-5.1h-4.8V358z M265.2,341.7h-2.5v6.4h2.5c2.1,0,3-1.5,3-3.2
			C268.2,343.3,267.3,341.7,265.2,341.7z M266.2,349.9h-3.5v4.1c0,2.8,0.3,3.3,2.6,3.3h0.8c2.5,0,3.6-1.6,3.6-3.7
			C269.8,351.6,268.6,349.9,266.2,349.9z"/>
		<path fill="#231F20" d="M286.7,359.6c-2.2,0-4.1-1.1-4.8-1.6c-0.3,0.3-0.7,0.9-0.8,1.6h-0.8v-7.4h0.9c0.3,3.7,2.7,5.7,5.9,5.7
			c1.9,0,3.3-1,3.3-2.9c0-1.5-1.2-2.7-3.5-3.8l-2.9-1.5c-2.1-1.1-3.6-2.8-3.6-5.3c0-2.7,2.3-4.9,5.4-4.9c1.8,0,3.2,0.6,4.1,1.3
			c0.2-0.3,0.6-0.7,0.6-1.3h0.9v7.3h-0.9c-0.3-2.6-1.4-5.7-4.5-5.7c-1.7,0-3.1,0.9-3.1,2.5c0,1.5,1.1,2.3,3.8,3.7l2.9,1.5
			c2.5,1.3,3.4,3.2,3.4,4.9C292.8,357.2,290,359.6,286.7,359.6z"/>
		<path fill="#231F20" d="M303,341.8c-4,0-4.3,0.7-4.8,2.8l-0.2,0.9h-0.9l0.3-5.3h19.3l0.3,5.3H316l-0.2-0.9c-0.5-2-1-2.8-5-2.8
			h-2.2v11.1c0,4.3,0.6,5.1,3.5,5.1v0.9h-9.9V358c2.9,0,3.5-0.7,3.5-5.1v-11.1H303z"/>
		<path fill="#231F20" d="M336.6,354.5l0.2-0.9h0.9l-0.3,5.2h-16.2V358c2.9,0,3.4-0.7,3.4-5.1V346c0-4.3-0.5-5-3.4-5v-0.9h9.5h5.6
			l0.3,5.2h-0.9l-0.2-0.9c-0.5-2-1-2.8-5-2.8h-2.9v6.4h0.3c4.3,0,4.7-0.5,4.7-3.4h0.9v8.4h-0.9c0-2.8-0.3-3.4-4.7-3.4h-0.3v2.5
			c0,4.3,0.5,5,3.4,5h0.5C335.5,357.3,336.1,356.5,336.6,354.5z"/>
		<path fill="#231F20" d="M357.2,354c1.7,2,3.7,3.7,5.8,4v0.9h-5.5l-5.9-8h-1.2v2.1c0,4.3,0.5,5.1,3.4,5.1v0.9h-9.9V358
			c2.9,0,3.4-0.7,3.4-5.1V346c0-4.3-0.5-5-3.4-5v-0.9h8.9c4.4,0,6.9,2.3,6.9,5.4c0,2.6-2,4.8-5.2,5.2L357.2,354z M352.8,341.7h-2.5
			v7.5h2.5c2.4,0,3.5-1.7,3.5-3.7C356.3,343.4,355.2,341.7,352.8,341.7z"/>
		<path fill="#231F20" d="M389.1,358v0.9h-9.9V358c2.9,0,3.4-0.7,3.4-5.1V346c0-4.3-0.5-5-3.4-5v-0.9h8.9c4.4,0,6.9,2.3,6.9,5.4
			c0,3-2.5,5.3-6.9,5.3h-2.5v2.1C385.7,357.3,386.2,358,389.1,358z M388.2,341.7h-2.5v7.5h2.5c2.4,0,3.5-1.7,3.5-3.7
			C391.7,343.4,390.6,341.7,388.2,341.7z"/>
		<path fill="#231F20" d="M411.1,359.6c-5.8,0-10.5-4.5-10.5-10.1c0-5.5,4.8-10.1,10.5-10.1s10.5,4.6,10.5,10.1
			C421.7,355.1,416.9,359.6,411.1,359.6z M411.1,341.1c-5.1,0-7,4.7-7,8.4c0,3.8,1.9,8.4,7,8.4s7-4.7,7-8.4
			C418.1,345.8,416.2,341.1,411.1,341.1z"/>
		<path fill="#231F20" d="M432.3,341.8c-4,0-4.3,0.7-4.8,2.8l-0.2,0.9h-0.9l0.3-5.3h19.3l0.3,5.3h-0.9l-0.2-0.9c-0.5-2-1-2.8-5-2.8
			h-2.2v11.1c0,4.3,0.6,5.1,3.5,5.1v0.9h-9.9V358c2.9,0,3.5-0.7,3.5-5.1v-11.1H432.3z"/>
		<path fill="#231F20" d="M472.6,358v0.9h-9.9V358c2.9,0,3.4-0.7,3.4-5.1V346c0-4.3-0.5-5-3.4-5v-0.9h8.9c4.4,0,6.9,2.3,6.9,5.4
			c0,3-2.5,5.3-6.9,5.3h-2.5v2.1C469.2,357.3,469.7,358,472.6,358z M471.7,341.7h-2.5v7.5h2.5c2.4,0,3.5-1.7,3.5-3.7
			C475.2,343.4,474.1,341.7,471.7,341.7z"/>
		<path fill="#231F20" d="M483.6,358.9V358c2.9,0,3.4-0.7,3.4-5.1V346c0-4.3-0.5-5-3.4-5v-0.9h9.9v0.9c-2.9,0-3.4,0.7-3.4,5v6.9
			c0,4.3,0.5,5.1,3.4,5.1v0.9H483.6z"/>
		<path fill="#231F20" d="M515.1,354.5l0.2-0.9h0.9l-0.3,5.2h-16.2V358c2.9,0,3.4-0.7,3.4-5.1V346c0-4.3-0.5-5-3.4-5v-0.9h9.5h5.6
			l0.3,5.2h-0.9l-0.2-0.9c-0.5-2-1-2.8-5-2.8h-2.9v6.4h0.3c4.3,0,4.7-0.5,4.7-3.4h0.9v8.4h-0.9c0-2.8-0.3-3.4-4.7-3.4h-0.3v2.5
			c0,4.3,0.5,5,3.4,5h0.5C514,357.3,514.6,356.5,515.1,354.5z"/>
		<path fill="#231F20" d="M547.9,357.8l7.9-7.1c1.6-1.5,2.6-3.3,2.6-4.9c0-3.2-1.9-4.6-4.5-4.6c-2.5,0-5.3,2.9-2.9,6.5l-1.3,1.3
			c-4.5-3.1-2.2-9.6,4.5-9.6c3.7,0,7.2,2.2,7.2,5.8c0,3.5-3.5,6-3.5,6l-5.8,5.1h9.8l-0.5,2.5h-13.6V357.8z"/>
		<path fill="#231F20" d="M577.3,359.6c-3.8,0-7.1-2.6-7.1-5.4c0-3,2.4-4.5,4.8-5.4c-1.8-1.1-3.8-2.5-3.8-4.5c0-2.8,2.9-4.8,6.1-4.8
			c3.2,0,6.2,1.9,6.2,4.4c0,2.1-2.2,3.5-4.2,4.4c2.5,1.2,5.2,2.6,5.2,5.7C584.4,357.1,581.2,359.6,577.3,359.6z M576.3,349.5
			c-1.7,1-3.2,2.2-3.2,4.7c0,2.1,1.6,3.8,4.2,3.8c2.7,0,4.3-1.6,4.3-3.6C581.5,352,578.7,350.7,576.3,349.5z M577.3,341
			c-1.9,0-3.2,1.2-3.2,2.7c0,1.7,2.1,2.9,3.8,3.8c1.4-0.7,2.8-2,2.8-3.8C580.6,342.2,579.2,341,577.3,341z"/>
	</g>
	<g>
		<path fill="#231F20" d="M327.4,426.6h-1.1l-0.2-0.8c-0.5-2.1-0.9-3-4.5-3h-3.9v15.9c0,3.9,0.5,4.6,3.7,4.6v1.1h-12.3v-1.1
			c3.2,0,3.7-0.7,3.7-4.6v-15.9h-3.9c-3.5,0-4,0.9-4.5,3l-0.2,0.8H303l0.4-5.5h23.7L327.4,426.6z"/>
		<path fill="#231F20" d="M347.4,422.2v-1.1h9.5v1.1c-3.2,0-3.7,0.7-3.7,4.6v9c0,6.1-4.2,9.3-9.4,9.3c-5.2,0-9.3-3.2-9.3-9.3v-9
			c0-3.9-0.5-4.6-3.7-4.6v-1.1h12.3v1.1c-3.3,0-3.7,0.7-3.7,4.6v8.6c0,5,2.7,7.4,6,7.4s5.7-2.3,5.7-7.4v-8.6
			C351.2,422.9,350.7,422.2,347.4,422.2z"/>
		<path fill="#231F20" d="M361.6,443.3c3.2,0,3.7-0.7,3.7-4.6v-12c0-3.9-0.5-4.6-3.7-4.6v-1.1h20l0.3,5.5h-1.1l-0.2-0.8
			c-0.5-2.1-0.9-3-4.5-3h-6v8.4h2.1c3.9,0,4.5-0.5,4.5-3.7h1.1v9.2h-1.1c0-3.3-0.6-3.7-4.5-3.7h-2.1v5.2c0,3.9,0.5,4.6,3.7,4.6h3.5
			c3.6,0,4-0.9,4.5-3l0.2-0.8h1.1l-0.3,5.5h-21.3V443.3z"/>
		<path fill="#231F20" d="M390,445.1h-1.1v-8.6h1.1c0.8,4.2,4,6.8,7.2,6.8c2.3,0,3.9-1.3,3.9-3.9c0-1.4-1.1-3-2.9-3.9l-3.7-1.9
			c-3.3-1.7-5.3-3.5-5.3-7.4c0-3.2,3-5.8,6.8-5.8c2.3,0,3.6,0.7,4.7,1.6c0.5-0.4,0.9-1,1.1-1.8h1.1v8.6h-1.1
			c-0.3-3.1-1.5-6.7-5.6-6.7c-1.6,0-3.2,1.2-3.2,3.1c0,1.2,1,2.9,3.1,4l3.7,1.9c2.8,1.4,5,3.8,5,6.9c0,4.2-3.7,7.1-7.7,7.1
			c-3,0-4.8-1.6-6.1-1.8C390.7,443.7,390.2,444.3,390,445.1z"/>
		<path fill="#231F20" d="M409.8,443.3c3.2,0,3.7-0.7,3.7-4.6v-12c0-3.9-0.5-4.6-3.7-4.6v-1.1h12.8c9,0,13,5.3,13,11.7
			c0,6.4-3.9,11.7-13,11.7h-12.8V443.3z M418.3,438.3c0,3.8,0.5,4.4,3.7,4.4h0.4c6.3,0,7.6-5.5,7.6-9.9c0-4.4-1.3-9.9-7.6-9.9
			c-0.3,0-4.1,0-4.1,0V438.3z"/>
		<path fill="#231F20" d="M442.9,440.4c-0.9,2.1-0.3,3,2.9,3v1.1h-9.4v-1.1c2.7,0,3.6-0.7,4.8-3.4l8.4-19.5h0.8l8.5,19.5
			c1.1,2.5,1.6,3.4,4.7,3.4v1.1H451v-1.1c3.4,0,3.8-0.9,2.9-3l-1.6-3.7h-7.7L442.9,440.4z M448.4,427.8l-3.1,7.1h6.2L448.4,427.8z"
			/>
		<path fill="#231F20" d="M482.5,425.7l-5.6,8.4v4.7c0,3.9,0.5,4.6,3.7,4.6v1.1h-12.1v-1.1c3.2,0,3.7-0.7,3.7-4.6v-4.6l-5.6-8.5
			c-1.8-2.8-2.9-3.4-5.6-3.4v-1.1h13.2v1.1c-2.7,0-3.5,0.9-2.1,3l4.4,6.6l4.4-6.6c1.4-2.1,1-3-2.1-3v-1.1h9.4v1.1
			C484.9,422.2,484.1,423.1,482.5,425.7z"/>
	</g>
	<g>
		<path fill="#231F20" d="M221.4,486.8c2.9,0,3.4-0.7,3.4-5.1v-6.9c0-4.3-0.5-5-3.4-5V469h4.8h4.3c4.1,0,6.2,2.1,6.2,4.7
			c0,1.5-0.7,2.8-1.9,3.7c2.2,1,3.4,2.8,3.4,4.9c0,3-2.4,5.3-6.9,5.3h-5.1h-4.8V486.8z M230.3,470.5h-2.5v6.4h2.5c2.1,0,3-1.5,3-3.2
			C233.3,472.1,232.4,470.5,230.3,470.5z M231.3,478.7h-3.5v4.1c0,2.8,0.3,3.3,2.6,3.3h0.8c2.5,0,3.6-1.6,3.6-3.7
			C234.9,480.4,233.8,478.7,231.3,478.7z"/>
		<path fill="#231F20" d="M255.7,488.4c-5.8,0-10.5-4.5-10.5-10.1c0-5.5,4.8-10.1,10.5-10.1s10.5,4.6,10.5,10.1
			C266.3,483.9,261.5,488.4,255.7,488.4z M255.7,469.9c-5.1,0-7,4.7-7,8.4c0,3.8,1.9,8.4,7,8.4s7-4.7,7-8.4
			C262.7,474.6,260.8,469.9,255.7,469.9z"/>
		<path fill="#231F20" d="M283,486.5c3,0,5.3-1.7,5.3-5.5v-6.1c0-4.3-0.5-5-3.4-5V469h8.8v0.9c-2.9,0-3.4,0.7-3.4,5v5.8
			c0,5.1-3.5,7.7-7.7,7.7s-7.7-2.6-7.7-7.7v-5.8c0-4.3-0.5-5-3.4-5V469h9.9v0.9c-2.9,0-3.4,0.7-3.4,5v6.1
			C277.9,484.7,280,486.5,283,486.5z"/>
		<path fill="#231F20" d="M299.1,487.7v-0.9c2.9,0,3.4-0.7,3.4-5.1v-6.9c0-4.3-0.5-5-3.4-5V469h9.9v0.9c-2.9,0-3.4,0.7-3.4,5v6.9
			c0,4.3,0.5,5.1,3.4,5.1v0.9H299.1z"/>
		<path fill="#231F20" d="M315.2,469.8V469h9.9v0.9c-2.9,0-3.4,0.7-3.4,5v6.2c0,4.3,0.5,5,3.4,5h1.5c4,0,4.5-0.7,5-2.8l0.2-0.9h0.9
			l-0.3,5.2h-17.2v-0.9c2.9,0,3.4-0.7,3.4-5.1v-6.9C318.6,470.5,318.1,469.8,315.2,469.8z"/>
		<path fill="#231F20" d="M336.5,469.8V469h9.9v0.9c-2.9,0-3.4,0.7-3.4,5v6.2c0,4.3,0.5,5,3.4,5h1.5c4,0,4.5-0.7,5-2.8l0.2-0.9h0.9
			l-0.3,5.2h-17.2v-0.9c2.9,0,3.4-0.7,3.4-5.1v-6.9C339.9,470.5,339.4,469.8,336.5,469.8z"/>
		<path fill="#231F20" d="M361.8,483.5c-1.1,2.5-1.1,3.3,2.3,3.3v0.9h-8.2v-0.9c2.6,0,3-0.5,4.5-3.8l6.4-14.8h0.6l6.4,14.8
			c1.4,3.2,1.9,3.8,4.2,3.8v0.9h-9.7v-0.9c3.1,0,3.4-0.7,2.3-3.3l-0.9-2h-7.1L361.8,483.5z M366.2,473.3l-2.9,6.6h5.7L366.2,473.3z"
			/>
		<path fill="#231F20" d="M382.2,486.8c2.9,0,3.4-0.7,3.4-5.1v-6.9c0-4.3-0.5-5-3.4-5V469h4.8h4.3c4.1,0,6.2,2.1,6.2,4.7
			c0,1.5-0.7,2.8-1.9,3.7c2.2,1,3.4,2.8,3.4,4.9c0,3-2.4,5.3-6.9,5.3H387h-4.8V486.8z M391.1,470.5h-2.5v6.4h2.5c2.1,0,3-1.5,3-3.2
			C394.1,472.1,393.2,470.5,391.1,470.5z M392.1,478.7h-3.5v4.1c0,2.8,0.3,3.3,2.6,3.3h0.8c2.5,0,3.6-1.6,3.6-3.7
			C395.7,480.4,394.6,478.7,392.1,478.7z"/>
		<path fill="#231F20" d="M409.5,483.5c-1.1,2.5-1.1,3.3,2.3,3.3v0.9h-8.2v-0.9c2.6,0,3-0.5,4.5-3.8l6.4-14.8h0.6l6.4,14.8
			c1.4,3.2,1.9,3.8,4.2,3.8v0.9H416v-0.9c3.1,0,3.4-0.7,2.3-3.3l-0.9-2h-7.1L409.5,483.5z M413.9,473.3l-2.9,6.6h5.7L413.9,473.3z"
			/>
		<path fill="#231F20" d="M429.9,487.7v-0.9c2.9,0,3.4-0.7,3.4-5.1v-6.9c0-4.3-0.5-5-3.4-5V469h9.9v0.9c-2.9,0-3.4,0.7-3.4,5v6.9
			c0,4.3,0.5,5.1,3.4,5.1v0.9H429.9z"/>
		<path fill="#231F20" d="M453.1,488.4c-2.2,0-4.1-1.1-4.8-1.6c-0.3,0.3-0.7,0.9-0.8,1.6h-0.8V481h0.9c0.3,3.7,2.7,5.7,5.9,5.7
			c1.9,0,3.3-1,3.3-2.9c0-1.5-1.2-2.7-3.5-3.8l-2.9-1.5c-2.1-1.1-3.6-2.8-3.6-5.3c0-2.7,2.3-4.9,5.4-4.9c1.8,0,3.2,0.6,4.1,1.3
			c0.2-0.3,0.6-0.7,0.6-1.3h0.9v7.3h-0.9c-0.3-2.6-1.4-5.7-4.5-5.7c-1.7,0-3.1,0.9-3.1,2.5c0,1.5,1.1,2.3,3.8,3.7l2.9,1.5
			c2.5,1.3,3.4,3.2,3.4,4.9C459.2,486,456.4,488.4,453.1,488.4z"/>
		<path fill="#231F20" d="M472.5,488.4c-2.2,0-4.1-1.1-4.8-1.6c-0.3,0.3-0.7,0.9-0.8,1.6H466V481h0.9c0.3,3.7,2.7,5.7,5.9,5.7
			c1.9,0,3.3-1,3.3-2.9c0-1.5-1.2-2.7-3.5-3.8l-2.9-1.5c-2.1-1.1-3.6-2.8-3.6-5.3c0-2.7,2.3-4.9,5.4-4.9c1.8,0,3.2,0.6,4.1,1.3
			c0.2-0.3,0.6-0.7,0.7-1.3h0.9v7.3h-0.9c-0.3-2.6-1.4-5.7-4.5-5.7c-1.7,0-3.1,0.9-3.1,2.5c0,1.5,1.1,2.3,3.8,3.7l2.9,1.5
			c2.5,1.3,3.4,3.2,3.4,4.9C478.6,486,475.8,488.4,472.5,488.4z"/>
		<path fill="#231F20" d="M500.1,483.3l0.2-0.9h0.9l-0.3,5.2h-16.2v-0.9c2.9,0,3.4-0.7,3.4-5.1v-6.9c0-4.3-0.5-5-3.4-5V469h9.5h5.6
			l0.3,5.2h-0.9l-0.2-0.9c-0.5-2-1-2.8-5-2.8h-2.9v6.4h0.3c4.3,0,4.7-0.5,4.7-3.4h0.9v8.4h-0.9c0-2.8-0.3-3.4-4.7-3.4h-0.3v2.5
			c0,4.3,0.5,5,3.4,5h0.5C499,486.1,499.6,485.3,500.1,483.3z"/>
		<path fill="#231F20" d="M532.9,486.6l7.9-7.1c1.6-1.5,2.6-3.3,2.6-4.9c0-3.2-1.9-4.6-4.5-4.6c-2.5,0-5.3,2.9-2.9,6.5l-1.3,1.3
			c-4.5-3.1-2.2-9.6,4.5-9.6c3.7,0,7.2,2.2,7.2,5.8c0,3.5-3.5,6-3.5,6l-5.8,5.1h9.9l-0.5,2.5h-13.6V486.6z"/>
		<path fill="#231F20" d="M568.5,486.8v0.9h-9.9v-0.9c2.9,0,3.5-0.7,3.5-4.6h-8.4v-0.9l10.3-13.6h1.1v12.9c1.9,0,2.9-0.5,3.6-3.3
			l0.2-0.9h0.9l-0.4,5.7h-4.3C565.1,486,565.6,486.8,568.5,486.8z M562.1,472.6l-6,7.9h6V472.6z"/>
	</g>
	<g>
		<path fill="#231F20" d="M299.8,554.5l-6.3,19.5h-0.9l-4.9-15.1l-4.8,15.1h-0.9l-6.3-19.5c-0.9-2.7-1.4-3.4-4.7-3.4v-1.1h12.3v1.1
			c-3.2,0-3.8,0.7-3,3l3.5,10.9l4.7-15h0.9l4.9,15.1l3.5-11c0.7-2.1,0.1-3-2.7-3v-1.1h9.1v1.1C301.1,551,300.6,551.8,299.8,554.5z"
			/>
		<path fill="#231F20" d="M305.8,572.1c3.2,0,3.7-0.7,3.7-4.6v-12c0-3.9-0.5-4.6-3.7-4.6v-1.1h20l0.3,5.5H325l-0.2-0.8
			c-0.5-2.1-0.9-3-4.5-3h-6v8.4h2.1c3.9,0,4.5-0.5,4.5-3.7h1.1v9.2H321c0-3.3-0.6-3.7-4.5-3.7h-2.1v5.2c0,3.9,0.5,4.6,3.7,4.6h3.5
			c3.6,0,4-0.9,4.5-3l0.2-0.8h1.1l-0.3,5.5h-21.3V572.1z"/>
		<path fill="#231F20" d="M332.7,572.1c3.2,0,3.7-0.7,3.7-4.6v-12c0-3.9-0.5-4.6-3.7-4.6v-1.1h12.8c9,0,13,5.3,13,11.7
			c0,6.4-3.9,11.7-13,11.7h-12.8V572.1z M341.3,567.1c0,3.8,0.5,4.4,3.7,4.4h0.4c6.3,0,7.6-5.5,7.6-9.9c0-4.4-1.3-9.9-7.6-9.9
			c-0.4,0-4.1,0-4.1,0V567.1z"/>
		<path fill="#231F20" d="M383.1,555.6c0-3.9-0.5-4.6-3.7-4.6v-1.1h9.2v1.1c-3.3,0-3.7,0.7-3.7,4.6v18.3h-1l-16.1-19.2v12.9
			c0,3.9,0.5,4.6,3.7,4.6v1.1h-9.2v-1.1c3.2,0,3.7-0.7,3.7-4.6v-12c0-3.9-0.5-4.6-3.7-4.6v-1.1h7.8l13,15.5V555.6z"/>
		<path fill="#231F20" d="M393.4,572.1c3.2,0,3.7-0.7,3.7-4.6v-12c0-3.9-0.5-4.6-3.7-4.6v-1.1h20l0.3,5.5h-1.1l-0.2-0.8
			c-0.5-2.1-0.9-3-4.5-3h-6v8.4h2.1c3.9,0,4.5-0.5,4.5-3.7h1.1v9.2h-1.1c0-3.3-0.6-3.7-4.5-3.7H402v5.2c0,3.9,0.5,4.6,3.7,4.6h3.5
			c3.6,0,4-0.9,4.5-3l0.2-0.8h1.1l-0.3,5.5h-21.3V572.1z"/>
		<path fill="#231F20" d="M421.9,573.9h-1.1v-8.6h1.1c0.8,4.2,4,6.8,7.2,6.8c2.3,0,3.9-1.3,3.9-3.9c0-1.4-1-3-2.9-3.9l-3.7-1.9
			c-3.3-1.7-5.3-3.5-5.3-7.4c0-3.2,3-5.8,6.8-5.8c2.3,0,3.6,0.7,4.7,1.6c0.5-0.4,0.9-1,1.1-1.8h1.1v8.6h-1.1
			c-0.3-3.1-1.5-6.7-5.6-6.7c-1.6,0-3.1,1.2-3.1,3.1c0,1.2,1,2.9,3.1,4l3.7,1.9c2.8,1.4,5,3.8,5,6.9c0,4.2-3.7,7.1-7.7,7.1
			c-3,0-4.8-1.6-6.1-1.8C422.5,572.5,422.1,573.1,421.9,573.9z"/>
		<path fill="#231F20" d="M441.6,572.1c3.2,0,3.7-0.7,3.7-4.6v-12c0-3.9-0.5-4.6-3.7-4.6v-1.1h12.8c9,0,13,5.3,13,11.7
			c0,6.4-3.9,11.7-13,11.7h-12.8V572.1z M450.2,567.1c0,3.8,0.5,4.4,3.7,4.4h0.4c6.3,0,7.6-5.5,7.6-9.9c0-4.4-1.3-9.9-7.6-9.9
			c-0.4,0-4.1,0-4.1,0V567.1z"/>
		<path fill="#231F20" d="M474.9,569.2c-0.9,2.1-0.3,3,2.9,3v1.1h-9.4v-1.1c2.7,0,3.6-0.7,4.8-3.4l8.4-19.5h0.8l8.5,19.5
			c1.1,2.5,1.6,3.4,4.7,3.4v1.1h-12.8v-1.1c3.4,0,3.8-0.9,2.9-3l-1.6-3.7h-7.7L474.9,569.2z M480.3,556.6l-3.1,7.1h6.2L480.3,556.6z
			"/>
		<path fill="#231F20" d="M514.4,554.5l-5.6,8.4v4.7c0,3.9,0.5,4.6,3.7,4.6v1.1h-12.1v-1.1c3.2,0,3.7-0.7,3.7-4.6V563l-5.6-8.5
			c-1.8-2.8-2.9-3.4-5.6-3.4v-1.1h13.2v1.1c-2.7,0-3.5,0.9-2.1,3l4.4,6.6l4.4-6.6c1.4-2.1,1-3-2.1-3v-1.1h9.4v1.1
			C516.8,551,516.1,551.9,514.4,554.5z"/>
	</g>
	<g>
		<path fill="#231F20" d="M244.2,598.7v-0.9h9.9v0.9c-2.9,0-3.4,0.7-3.4,5v6.2c0,4.3,0.5,5,3.4,5h1.5c4,0,4.5-0.7,5-2.8l0.2-0.9h0.9
			l-0.3,5.2h-17.2v-0.9c2.9,0,3.4-0.7,3.4-5.1v-6.9C247.7,599.3,247.1,598.7,244.2,598.7z"/>
		<path fill="#231F20" d="M269.5,612.3c-1.1,2.5-1.1,3.3,2.3,3.3v0.9h-8.2v-0.9c2.6,0,3-0.5,4.5-3.8l6.4-14.8h0.6l6.4,14.8
			c1.4,3.2,1.9,3.8,4.2,3.8v0.9H276v-0.9c3.1,0,3.4-0.7,2.3-3.3l-0.9-2h-7.1L269.5,612.3z M273.9,602.1l-2.8,6.6h5.7L273.9,602.1z"
			/>
		<path fill="#231F20" d="M294.9,610.6c0,4.3,0.5,5.1,3.4,5.1v0.9h-8.4v-0.9c2.9,0,3.4-0.7,3.4-5.1v-6.9c0-4.3-0.5-5-3.4-5v-0.9h6.5
			l6.4,14.4l6.4-14.4h6v0.9c-2.9,0-3.5,0.7-3.5,5v6.9c0,4.3,0.6,5.1,3.5,5.1v0.9h-9.9v-0.9c2.9,0,3.4-0.7,3.4-5.1v-8.1l-6.5,14.7
			h-0.6l-6.7-15.3V610.6z"/>
		<path fill="#231F20" d="M321.4,615.6c2.9,0,3.4-0.7,3.4-5.1v-6.9c0-4.3-0.5-5-3.4-5v-0.9h4.8h4.3c4.1,0,6.2,2.1,6.2,4.7
			c0,1.5-0.7,2.8-1.9,3.7c2.2,1,3.4,2.8,3.4,4.9c0,3-2.4,5.3-6.9,5.3h-5.1h-4.8V615.6z M330.3,599.3h-2.5v6.4h2.5c2.1,0,3-1.5,3-3.2
			C333.4,600.9,332.4,599.3,330.3,599.3z M331.3,607.5h-3.5v4.1c0,2.8,0.3,3.3,2.6,3.3h0.8c2.5,0,3.6-1.6,3.6-3.7
			C334.9,609.2,333.8,607.5,331.3,607.5z"/>
		<path fill="#231F20" d="M364.1,617.2c-2.2,0-4.1-1.1-4.8-1.6c-0.3,0.3-0.7,0.9-0.8,1.6h-0.8v-7.4h0.9c0.3,3.7,2.7,5.7,5.9,5.7
			c1.9,0,3.3-1,3.3-2.9c0-1.5-1.2-2.7-3.5-3.8l-2.9-1.5c-2.1-1.1-3.6-2.8-3.6-5.3c0-2.7,2.3-4.9,5.4-4.9c1.8,0,3.2,0.6,4.1,1.3
			c0.2-0.3,0.6-0.7,0.6-1.3h0.9v7.3h-0.9c-0.3-2.6-1.4-5.7-4.5-5.7c-1.7,0-3.1,0.9-3.1,2.5c0,1.5,1.1,2.3,3.8,3.7l2.9,1.5
			c2.5,1.3,3.4,3.2,3.4,4.9C370.2,614.9,367.4,617.2,364.1,617.2z"/>
		<path fill="#231F20" d="M392.6,605.8v-2.1c0-4.3-0.5-5-3.4-5v-0.9h9.9v0.9c-2.9,0-3.4,0.7-3.4,5v6.9c0,4.3,0.6,5.1,3.4,5.1v0.9
			h-9.9v-0.9c2.9,0,3.4-0.7,3.4-5.1v-3.2h-9.8v3.2c0,4.3,0.5,5.1,3.4,5.1v0.9h-9.9v-0.9c2.9,0,3.4-0.7,3.4-5.1v-6.9
			c0-4.3-0.5-5-3.4-5v-0.9h9.9v0.9c-2.9,0-3.4,0.7-3.4,5v2.1H392.6z"/>
		<path fill="#231F20" d="M409.3,612.3c-1.1,2.5-1.1,3.3,2.3,3.3v0.9h-8.2v-0.9c2.6,0,3-0.5,4.5-3.8l6.4-14.8h0.6l6.4,14.8
			c1.4,3.2,1.9,3.8,4.2,3.8v0.9h-9.7v-0.9c3.1,0,3.4-0.7,2.3-3.3l-0.9-2h-7.1L409.3,612.3z M413.7,602.1l-2.8,6.6h5.7L413.7,602.1z"
			/>
		<path fill="#231F20" d="M429.7,598.7v-0.9h5.3l11.5,13.7v-7.8c0-4.3-0.5-5-3.4-5v-0.9h8.4v0.9c-2.9,0-3.4,0.7-3.4,5v13.5h-0.8
			l-12.6-15.1v8.5c0,4.3,0.5,5.1,3.4,5.1v0.9h-8.4v-0.9c2.9,0,3.4-0.7,3.4-5.1v-6.9C433.1,599.3,432.6,598.7,429.7,598.7z"/>
		<path fill="#231F20" d="M464.1,608.4v2.2c0,4.3,0.5,5.1,3.4,5.1v0.9h-9.9v-0.9c2.9,0,3.4-0.7,3.4-5.1v-6.9c0-4.3-0.5-5-3.4-5v-0.9
			h9.9v0.9c-2.9,0-3.4,0.7-3.4,5v2.8l5.3-4.5c3.1-2.7,2.9-3.3,0.5-3.3v-0.9h8.1v0.9c-2.2,0-3.5,0.7-7,3.8l-3.7,3.2l7,6.2
			c3.5,3.1,4.7,3.8,6.2,3.8v0.9h-10.2v-0.9c2.4,0,2.8-0.7,0.1-3.3l-5.2-4.9L464.1,608.4z"/>
		<path fill="#231F20" d="M516.3,607.8c-0.4,0.6-0.8,0.9-1.2,0.9c-0.5,0-0.9-0.3-0.9-0.8c0-0.3,0.1-0.6,0.4-1l5.8-6.6h-5.2
			c-1.9,0-3.5,0.5-4,2.4l-0.2,0.9h-0.9l1-5.8h12.7v1.2l-5,5.7c3.1,0.9,5.4,3.5,5.4,6.2c0,3.4-3.2,6.3-7.4,6.3
			c-4.1,0-6.5-2.5-6.5-3.8c0-0.5,0.4-1,1.2-1c1.5,0,1.3,3,5.4,3c3,0,4.4-2.1,4.4-4.5c0-2.2-1.4-4.2-3.7-4.5
			C517.1,606.6,516.8,607,516.3,607.8z"/>
		<path fill="#231F20" d="M545.7,615.6v0.9h-9.9v-0.9c2.9,0,3.5-0.7,3.5-4.6h-8.4v-0.9l10.3-13.6h1.1v12.9c1.9,0,2.9-0.5,3.6-3.3
			l0.2-0.9h0.9l-0.4,5.7h-4.3C542.2,614.9,542.8,615.6,545.7,615.6z M539.2,601.5l-6,7.9h6V601.5z"/>
	</g>
	<g>
		<path fill="#231F20" d="M309.6,684.2h-1.1l-0.2-0.8c-0.5-2.1-0.9-3-4.5-3h-3.9v15.9c0,3.9,0.5,4.6,3.7,4.6v1.1h-12.3V701
			c3.2,0,3.7-0.7,3.7-4.6v-15.9h-3.9c-3.5,0-4,0.9-4.5,3l-0.2,0.8h-1.2l0.3-5.5h23.7L309.6,684.2z"/>
		<path fill="#231F20" d="M321.9,696.4c0,3.9,0.5,4.6,3.7,4.6v1.1h-12.3V701c3.2,0,3.7-0.7,3.7-4.6v-12c0-3.9-0.5-4.6-3.7-4.6v-1.1
			h12.3v1.1c-3.2,0-3.7,0.7-3.7,4.6v4.4h11.9v-4.4c0-3.9-0.5-4.6-3.7-4.6v-1.1h12.3v1.1c-3.2,0-3.7,0.7-3.7,4.6v12
			c0,3.9,0.5,4.6,3.7,4.6v1.1h-12.3V701c3.3,0,3.7-0.7,3.7-4.6v-5.8h-11.9V696.4z"/>
		<path fill="#231F20" d="M363.7,679.9v-1.1h9.5v1.1c-3.2,0-3.7,0.7-3.7,4.6v9c0,6.1-4.2,9.3-9.4,9.3c-5.2,0-9.3-3.2-9.3-9.3v-9
			c0-3.9-0.5-4.6-3.7-4.6v-1.1h12.3v1.1c-3.3,0-3.7,0.7-3.7,4.6v8.6c0,5,2.7,7.4,6,7.4s5.7-2.3,5.7-7.4v-8.6
			C367.4,680.5,366.9,679.9,363.7,679.9z"/>
		<path fill="#231F20" d="M395.6,696c3.4,3.8,4.9,4.7,7.3,5v1.1h-8.4l-6.9-10.2h-1.1v4.6c0,3.9,0.5,4.6,3.7,4.6v1.1h-12.3V701
			c3.2,0,3.7-0.7,3.7-4.6v-12c0-3.9-0.5-4.6-3.7-4.6v-1.1h13c4.8,0,7.9,3,7.9,6.6c0,3.4-2.6,6.1-6.9,6.5L395.6,696z M393.5,685.3
			c0-2.6-1.6-4.8-5-4.8h-2.1v9.6h2.1C391.9,690.1,393.5,688,393.5,685.3z"/>
		<path fill="#231F20" d="M407.7,702.7h-1.1v-8.6h1.1c0.8,4.2,4,6.8,7.2,6.8c2.3,0,3.9-1.3,3.9-3.9c0-1.4-1-3-2.9-3.9l-3.7-1.9
			c-3.3-1.7-5.3-3.5-5.3-7.4c0-3.2,3-5.8,6.8-5.8c2.3,0,3.6,0.7,4.7,1.6c0.5-0.4,0.9-1,1.1-1.8h1.1v8.6h-1.1
			c-0.3-3.1-1.5-6.7-5.6-6.7c-1.6,0-3.2,1.2-3.2,3.1c0,1.2,1,2.9,3.1,4l3.7,1.9c2.8,1.4,5,3.8,5,6.9c0,4.2-3.7,7.1-7.7,7.1
			c-3,0-4.8-1.6-6.1-1.8C408.3,701.3,407.9,701.9,407.7,702.7z"/>
		<path fill="#231F20" d="M427.4,701c3.2,0,3.7-0.7,3.7-4.6v-12c0-3.9-0.5-4.6-3.7-4.6v-1.1h12.8c9,0,13,5.3,13,11.7
			s-3.9,11.7-13,11.7h-12.8V701z M436,695.9c0,3.8,0.5,4.4,3.7,4.4h0.4c6.3,0,7.6-5.5,7.6-9.9c0-4.4-1.3-9.9-7.6-9.9
			c-0.4,0-4.1,0-4.1,0V695.9z"/>
		<path fill="#231F20" d="M460.7,698c-0.9,2.1-0.3,3,2.9,3v1.1h-9.4V701c2.7,0,3.6-0.7,4.8-3.4l8.4-19.5h0.8l8.5,19.5
			c1.1,2.5,1.6,3.4,4.7,3.4v1.1h-12.8V701c3.4,0,3.8-0.9,2.9-3l-1.6-3.7h-7.7L460.7,698z M466.1,685.4l-3.1,7.1h6.2L466.1,685.4z"/>
		<path fill="#231F20" d="M500.2,683.3l-5.6,8.4v4.7c0,3.9,0.5,4.6,3.7,4.6v1.1h-12.1V701c3.2,0,3.7-0.7,3.7-4.6v-4.6l-5.6-8.5
			c-1.8-2.8-2.9-3.4-5.6-3.4v-1.1h13.2v1.1c-2.7,0-3.5,0.9-2.1,3l4.4,6.6l4.4-6.6c1.4-2.1,1-3-2.1-3v-1.1h9.4v1.1
			C502.6,679.9,501.9,680.8,500.2,683.3z"/>
	</g>
	<g>
		<path fill="#231F20" d="M208.4,744.4c2.9,0,3.4-0.7,3.4-5.1v-6.9c0-4.3-0.5-5-3.4-5v-0.9h9.2c7.3,0,10.5,4.2,10.5,9.3
			c0,5.1-3.2,9.4-10.5,9.4h-9.2V744.4z M217.7,728.2c-0.3,0-2.1,0-2.8,0v12.3c0,2.8,0.3,3.3,2.5,3.3h0.3c5.7,0,6.8-4.3,6.8-7.8
			C224.5,732.5,223.4,728.2,217.7,728.2z"/>
		<path fill="#231F20" d="M245.5,744.1c3,0,5.3-1.7,5.3-5.5v-6.1c0-4.3-0.5-5-3.4-5v-0.9h8.8v0.9c-2.9,0-3.4,0.7-3.4,5v5.8
			c0,5.1-3.5,7.7-7.7,7.7s-7.7-2.6-7.7-7.7v-5.8c0-4.3-0.5-5-3.4-5v-0.9h9.9v0.9c-2.9,0-3.4,0.7-3.4,5v6.1
			C240.4,742.4,242.5,744.1,245.5,744.1z"/>
		<path fill="#231F20" d="M277.6,745.3c-0.2-0.8-0.5-1.8-0.8-2.1c-1.3,1.6-3.6,2.8-5.7,2.8c-5.4,0-9.8-4.5-9.8-10.1
			c0-5.5,4.4-10.1,9.8-10.1c2.1,0,4.4,1.2,5.7,2.8c0.3-0.3,0.6-1.4,0.8-2.1h0.8v7.5h-0.9c-0.8-4-3.1-6.6-6.4-6.6
			c-4.8,0-6.3,4.8-6.3,8.4c0,3.7,1.4,8.4,6.3,8.4c3.3,0,5.6-2.5,6.4-6.6h0.9v7.5H277.6z"/>
		<path fill="#231F20" d="M291.8,737.2v2.2c0,4.3,0.5,5.1,3.4,5.1v0.9h-9.9v-0.9c2.9,0,3.4-0.7,3.4-5.1v-6.9c0-4.3-0.5-5-3.4-5v-0.9
			h9.9v0.9c-2.9,0-3.4,0.7-3.4,5v2.8l5.3-4.5c3.1-2.7,2.9-3.3,0.5-3.3v-0.9h8.1v0.9c-2.2,0-3.5,0.7-7,3.8l-3.7,3.2l7,6.2
			c3.5,3.1,4.7,3.8,6.2,3.8v0.9h-10.2v-0.9c2.4,0,2.8-0.7,0.1-3.3l-5.2-4.9L291.8,737.2z"/>
		<path fill="#231F20" d="M341.1,745.3c-0.2-0.8-0.5-1.8-0.8-2.1c-1.3,1.6-3.6,2.8-5.7,2.8c-5.4,0-9.8-4.5-9.8-10.1
			c0-5.5,4.4-10.1,9.8-10.1c2.1,0,4.4,1.2,5.7,2.8c0.3-0.3,0.6-1.4,0.8-2.1h0.8v7.5h-0.9c-0.8-4-3.1-6.6-6.4-6.6
			c-4.8,0-6.3,4.8-6.3,8.4c0,3.7,1.4,8.4,6.3,8.4c3.3,0,5.6-2.5,6.4-6.6h0.9v7.5H341.1z"/>
		<path fill="#231F20" d="M352.9,741.1c-1.1,2.5-1.1,3.3,2.3,3.3v0.9h-8.2v-0.9c2.6,0,3-0.5,4.5-3.8l6.4-14.8h0.6l6.4,14.8
			c1.4,3.2,1.9,3.8,4.2,3.8v0.9h-9.7v-0.9c3.1,0,3.4-0.7,2.3-3.3l-0.9-2h-7.1L352.9,741.1z M357.3,730.9l-2.9,6.6h5.7L357.3,730.9z"
			/>
		<path fill="#231F20" d="M380.4,746c-2.2,0-4.1-1.1-4.8-1.6c-0.3,0.3-0.7,0.9-0.8,1.6H374v-7.4h0.9c0.3,3.7,2.7,5.7,5.9,5.7
			c1.9,0,3.3-1,3.3-2.9c0-1.5-1.2-2.7-3.5-3.8l-2.9-1.5c-2.1-1.1-3.6-2.8-3.6-5.3c0-2.7,2.3-4.9,5.4-4.9c1.8,0,3.2,0.6,4.1,1.3
			c0.2-0.3,0.6-0.7,0.6-1.3h0.9v7.3h-0.9c-0.3-2.6-1.4-5.7-4.5-5.7c-1.7,0-3.1,0.9-3.1,2.5c0,1.5,1.1,2.3,3.8,3.7l2.9,1.5
			c2.5,1.3,3.4,3.2,3.4,4.9C386.6,743.7,383.8,746,380.4,746z"/>
		<path fill="#231F20" d="M399.8,746c-2.2,0-4.1-1.1-4.8-1.6c-0.3,0.3-0.7,0.9-0.8,1.6h-0.8v-7.4h0.9c0.3,3.7,2.7,5.7,5.9,5.7
			c1.9,0,3.3-1,3.3-2.9c0-1.5-1.2-2.7-3.5-3.8l-2.9-1.5c-2.1-1.1-3.6-2.8-3.6-5.3c0-2.7,2.3-4.9,5.4-4.9c1.8,0,3.2,0.6,4.1,1.3
			c0.2-0.3,0.6-0.7,0.6-1.3h0.9v7.3h-0.9c-0.3-2.6-1.4-5.7-4.5-5.7c-1.7,0-3.1,0.9-3.1,2.5c0,1.5,1.1,2.3,3.8,3.7l2.9,1.5
			c2.5,1.3,3.4,3.2,3.4,4.9C405.9,743.7,403.1,746,399.8,746z"/>
		<path fill="#231F20" d="M423.1,746c-5.8,0-10.5-4.5-10.5-10.1c0-5.5,4.8-10.1,10.5-10.1c5.8,0,10.5,4.6,10.5,10.1
			C433.6,741.5,428.9,746,423.1,746z M423.1,727.5c-5.1,0-7,4.7-7,8.4c0,3.8,1.9,8.4,7,8.4c5.1,0,7-4.7,7-8.4
			C430.1,732.2,428.2,727.5,423.1,727.5z"/>
		<path fill="#231F20" d="M450.3,744.1c3,0,5.3-1.7,5.3-5.5v-6.1c0-4.3-0.5-5-3.4-5v-0.9h8.8v0.9c-2.8,0-3.4,0.7-3.4,5v5.8
			c0,5.1-3.5,7.7-7.7,7.7s-7.7-2.6-7.7-7.7v-5.8c0-4.3-0.5-5-3.4-5v-0.9h9.9v0.9c-2.9,0-3.4,0.7-3.4,5v6.1
			C445.2,742.4,447.3,744.1,450.3,744.1z"/>
		<path fill="#231F20" d="M466.4,727.5v-0.9h9.9v0.9c-2.9,0-3.4,0.7-3.4,5v6.2c0,4.3,0.5,5,3.4,5h1.5c4,0,4.5-0.7,5-2.8l0.2-0.9h0.9
			l-0.3,5.2h-17.2v-0.9c2.9,0,3.4-0.7,3.4-5.1v-6.9C469.8,728.2,469.3,727.5,466.4,727.5z"/>
		<path fill="#231F20" d="M503.2,740.9l0.2-0.9h0.9l-0.3,5.2h-16.2v-0.9c2.9,0,3.4-0.7,3.4-5.1v-6.9c0-4.3-0.5-5-3.4-5v-0.9h9.5h5.6
			l0.3,5.2h-0.9l-0.2-0.9c-0.5-2-1-2.8-5-2.8h-2.9v6.4h0.3c4.3,0,4.7-0.5,4.7-3.4h0.9v8.4h-0.9c0-2.8-0.3-3.4-4.7-3.4h-0.3v2.5
			c0,4.3,0.5,5,3.4,5h0.5C502.1,743.7,502.6,743,503.2,740.9z"/>
		<path fill="#231F20" d="M514.5,728.3c-4,0-4.3,0.7-4.8,2.8l-0.2,0.9h-0.9l0.3-5.3h19.3l0.3,5.3h-0.9l-0.2-0.9c-0.5-2-1-2.8-5-2.8
			H520v11.1c0,4.3,0.6,5.1,3.5,5.1v0.9h-9.9v-0.9c2.9,0,3.5-0.7,3.5-5.1v-11.1H514.5z"/>
		<path fill="#231F20" d="M545.9,744.3l7.9-7.1c1.6-1.5,2.6-3.3,2.6-4.9c0-3.2-1.9-4.6-4.5-4.6c-2.5,0-5.3,2.9-2.9,6.5l-1.3,1.3
			c-4.5-3.1-2.2-9.6,4.5-9.6c3.7,0,7.2,2.2,7.2,5.8c0,3.5-3.5,6-3.5,6l-5.8,5.1h9.8l-0.5,2.5h-13.6V744.3z"/>
		<path fill="#231F20" d="M581.5,744.4v0.9h-9.9v-0.9c2.9,0,3.5-0.7,3.5-4.6h-8.4v-0.9l10.3-13.6h1.1v12.9c1.9,0,2.9-0.5,3.6-3.3
			l0.2-0.9h0.9l-0.4,5.7h-4.3C578.1,743.7,578.6,744.4,581.5,744.4z M575,730.3l-6,7.9h6V730.3z"/>
	</g>
	<g>
		<path fill="#231F20" d="M329.7,817.7h2.1c3.9,0,4.5-0.5,4.5-3.7h1.1v9.2h-1.1c0-3.3-0.6-3.7-4.5-3.7h-2.1v5.8
			c0,3.9,0.5,4.6,3.7,4.6v1.1h-12.3v-1.1c3.2,0,3.7-0.7,3.7-4.6v-12c0-3.9-0.5-4.6-3.7-4.6v-1.1h20.7l0.4,5.5H341l-0.2-0.8
			c-0.5-2.1-0.9-3-4.5-3h-6.6V817.7z"/>
		<path fill="#231F20" d="M363.9,824.8c3.4,3.8,4.9,4.7,7.3,5v1.1h-8.4l-6.9-10.2h-1.1v4.6c0,3.9,0.5,4.6,3.7,4.6v1.1h-12.3v-1.1
			c3.2,0,3.7-0.7,3.7-4.6v-12c0-3.9-0.5-4.6-3.7-4.6v-1.1h13c4.8,0,7.9,3,7.9,6.6c0,3.4-2.6,6.1-6.9,6.5L363.9,824.8z M361.8,814.1
			c0-2.6-1.6-4.8-5-4.8h-2.1v9.6h2.1C360.2,818.9,361.8,816.8,361.8,814.1z"/>
		<path fill="#231F20" d="M374.5,830.9v-1.1c3.2,0,3.7-0.7,3.7-4.6v-12c0-3.9-0.5-4.6-3.7-4.6v-1.1h12.3v1.1c-3.2,0-3.7,0.7-3.7,4.6
			v12c0,3.9,0.5,4.6,3.7,4.6v1.1H374.5z"/>
		<path fill="#231F20" d="M391.6,829.8c3.2,0,3.7-0.7,3.7-4.6v-12c0-3.9-0.5-4.6-3.7-4.6v-1.1h12.8c9,0,13,5.3,13,11.7
			c0,6.4-3.9,11.7-13,11.7h-12.8V829.8z M400.2,824.7c0,3.8,0.5,4.4,3.7,4.4h0.4c6.3,0,7.6-5.5,7.6-9.9c0-4.4-1.3-9.9-7.6-9.9
			c-0.4,0-4.1,0-4.1,0V824.7z"/>
		<path fill="#231F20" d="M424.8,826.8c-0.9,2.1-0.3,3,2.9,3v1.1h-9.4v-1.1c2.7,0,3.6-0.7,4.8-3.4l8.4-19.5h0.8l8.5,19.5
			c1.1,2.5,1.6,3.4,4.7,3.4v1.1h-12.8v-1.1c3.4,0,3.8-0.9,2.9-3l-1.6-3.7h-7.7L424.8,826.8z M430.3,814.2l-3.1,7.1h6.2L430.3,814.2z
			"/>
		<path fill="#231F20" d="M464.4,812.1l-5.6,8.4v4.7c0,3.9,0.5,4.6,3.7,4.6v1.1h-12.1v-1.1c3.2,0,3.7-0.7,3.7-4.6v-4.6l-5.6-8.5
			c-1.8-2.8-2.9-3.4-5.6-3.4v-1.1h13.2v1.1c-2.7,0-3.5,0.9-2.1,3l4.4,6.6l4.4-6.6c1.4-2.1,1-3-2.1-3v-1.1h9.4v1.1
			C466.8,808.7,466,809.6,464.4,812.1z"/>
	</g>
	<g>
		<path fill="#231F20" d="M250.9,873.3c2.9,0,3.4-0.7,3.4-5.1v-6.9c0-4.3-0.5-5-3.4-5v-0.9h9.2c7.3,0,10.5,4.2,10.5,9.3
			c0,5.1-3.2,9.4-10.5,9.4h-9.2V873.3z M260.2,857c-0.3,0-2.1,0-2.8,0v12.3c0,2.8,0.3,3.3,2.5,3.3h0.3c5.7,0,6.8-4.3,6.8-7.8
			C267.1,861.3,265.9,857,260.2,857z"/>
		<path fill="#231F20" d="M288.2,874.9c-5.8,0-10.5-4.5-10.5-10.1c0-5.5,4.8-10.1,10.5-10.1s10.5,4.6,10.5,10.1
			C298.8,870.3,294,874.9,288.2,874.9z M288.2,856.3c-5.1,0-7,4.7-7,8.4c0,3.8,1.9,8.4,7,8.4s7-4.7,7-8.4
			C295.2,861,293.3,856.3,288.2,856.3z"/>
		<path fill="#231F20" d="M319.8,860.1l-6.4,14.8h-0.6l-6.4-14.8c-1.4-3.3-1.9-3.8-4.2-3.8v-0.9h9.7v0.9c-3.1,0-3.4,0.8-2.3,3.3
			l4.4,10.2l4.4-10.2c1.1-2.5,1.1-3.3-2.3-3.3v-0.9h8.1v0.9C321.5,856.3,321.1,856.8,319.8,860.1z"/>
		<path fill="#231F20" d="M343.7,869.8l0.2-0.9h0.9l-0.3,5.2h-16.2v-0.9c2.9,0,3.4-0.7,3.4-5.1v-6.9c0-4.3-0.5-5-3.4-5v-0.9h9.5h5.6
			l0.3,5.2h-0.9l-0.2-0.9c-0.5-2-1-2.8-5-2.8h-2.9v6.4h0.3c4.3,0,4.7-0.5,4.7-3.4h0.9v8.4h-0.9c0-2.8-0.3-3.4-4.7-3.4h-0.3v2.5
			c0,4.3,0.5,5,3.4,5h0.5C342.7,872.5,343.2,871.8,343.7,869.8z"/>
		<path fill="#231F20" d="M364.3,869.2c1.7,2,3.7,3.7,5.8,4v0.9h-5.5l-5.9-8h-1.2v2.1c0,4.3,0.5,5.1,3.4,5.1v0.9H351v-0.9
			c2.9,0,3.4-0.7,3.4-5.1v-6.9c0-4.3-0.5-5-3.4-5v-0.9h8.9c4.4,0,6.9,2.3,6.9,5.4c0,2.6-2,4.8-5.2,5.2L364.3,869.2z M360,857h-2.5
			v7.5h2.5c2.4,0,3.5-1.7,3.5-3.7C363.5,858.7,362.4,857,360,857z"/>
		<path fill="#231F20" d="M393.5,874.9c-2.2,0-4.1-1.1-4.8-1.6c-0.3,0.3-0.7,0.9-0.8,1.6h-0.8v-7.4h0.9c0.3,3.7,2.7,5.7,5.9,5.7
			c1.9,0,3.3-1,3.3-2.9c0-1.5-1.2-2.7-3.5-3.8l-2.9-1.5c-2.1-1.1-3.6-2.8-3.6-5.3c0-2.7,2.3-4.9,5.4-4.9c1.8,0,3.2,0.6,4.1,1.3
			c0.2-0.3,0.6-0.7,0.6-1.3h0.9v7.3h-0.9c-0.3-2.6-1.4-5.7-4.5-5.7c-1.7,0-3.1,0.9-3.1,2.5c0,1.5,1.1,2.3,3.8,3.7l2.9,1.5
			c2.5,1.3,3.4,3.2,3.4,4.9C399.6,872.5,396.8,874.9,393.5,874.9z"/>
		<path fill="#231F20" d="M416.8,874.9c-5.8,0-10.5-4.5-10.5-10.1c0-5.5,4.8-10.1,10.5-10.1c5.8,0,10.5,4.6,10.5,10.1
			C427.3,870.3,422.5,874.9,416.8,874.9z M416.8,856.3c-5.1,0-7,4.7-7,8.4c0,3.8,1.9,8.4,7,8.4c5.1,0,7-4.7,7-8.4
			C423.8,861,421.8,856.3,416.8,856.3z"/>
		<path fill="#231F20" d="M433.9,856.3v-0.9h9.9v0.9c-2.9,0-3.4,0.7-3.4,5v6.2c0,4.3,0.5,5,3.4,5h1.5c4,0,4.5-0.7,5-2.8l0.2-0.9h0.9
			l-0.3,5.2h-17.2v-0.9c2.9,0,3.4-0.7,3.4-5.1v-6.9C437.3,857,436.8,856.3,433.9,856.3z"/>
		<path fill="#231F20" d="M470.7,869.8l0.2-0.9h0.9l-0.3,5.2h-16.2v-0.9c2.9,0,3.4-0.7,3.4-5.1v-6.9c0-4.3-0.5-5-3.4-5v-0.9h9.5h5.6
			l0.3,5.2h-0.9l-0.2-0.9c-0.5-2-1-2.8-5-2.8h-2.9v6.4h0.3c4.3,0,4.7-0.5,4.7-3.4h0.9v8.4h-0.9c0-2.8-0.3-3.4-4.7-3.4h-0.3v2.5
			c0,4.3,0.5,5,3.4,5h0.5C469.6,872.5,470.1,871.8,470.7,869.8z"/>
		<path fill="#231F20" d="M509.7,874.9c-4.1,0-6.2-2.4-6.2-3.8c0-0.6,0.4-1,1.2-1c1.5,0,0.9,3,5,3c3,0,4.7-2.2,4.7-4.9
			c0-2.7-1.3-5-4.4-5c-1.8,0-3.7,1.1-4.1,3.2h-1.7l1.1-10.9h11.2l-0.4,2.5h-9.3l-0.5,5c1-0.9,2.6-1.5,4.1-1.5c4.1,0,7,3,7,6.7
			C517.5,871.8,514,874.9,509.7,874.9z"/>
		<path fill="#231F20" d="M532.8,874.9c-4.1,0-7.3-4.5-7.3-10.1c0-5.5,3.3-10.1,7.3-10.1c4.1,0,7.4,4.5,7.4,10.1
			C540.2,870.3,536.9,874.9,532.8,874.9z M532.8,856.3c-2.9,0-4.2,3.8-4.2,8.5c0,4.7,1.3,8.5,4.2,8.5c2.9,0,4.3-3.8,4.3-8.5
			C537.1,860,535.8,856.3,532.8,856.3z"/>
	</g>
	<g>
		<path fill="#231F20" d="M292.2,960.4h-1.1v-8.6h1.1c0.8,4.2,4,6.8,7.2,6.8c2.3,0,3.9-1.3,3.9-3.9c0-1.4-1.1-3-2.9-3.9l-3.7-1.9
			c-3.3-1.7-5.3-3.5-5.3-7.4c0-3.2,3-5.8,6.8-5.8c2.3,0,3.6,0.7,4.7,1.6c0.5-0.4,0.9-1,1.1-1.8h1.1v8.6h-1.1
			c-0.3-3.1-1.5-6.7-5.6-6.7c-1.6,0-3.2,1.2-3.2,3.1c0,1.2,1,2.9,3.1,4l3.7,1.9c2.8,1.4,5,3.8,5,6.9c0,4.2-3.7,7.1-7.7,7.1
			c-3,0-4.8-1.6-6.1-1.8C292.9,958.9,292.4,959.5,292.2,960.4z"/>
		<path fill="#231F20" d="M315.5,955.6c-0.9,2.1-0.3,3,2.9,3v1.1H309v-1.1c2.7,0,3.6-0.7,4.8-3.4l8.4-19.5h0.8l8.5,19.5
			c1.1,2.5,1.6,3.4,4.7,3.4v1.1h-12.8v-1.1c3.4,0,3.8-0.9,2.9-3l-1.6-3.7h-7.7L315.5,955.6z M321,943l-3.1,7.1h6.2L321,943z"/>
		<path fill="#231F20" d="M359.1,941.8H358l-0.2-0.8c-0.5-2.1-0.9-3-4.5-3h-3.9V954c0,3.9,0.5,4.6,3.7,4.6v1.1h-12.3v-1.1
			c3.2,0,3.7-0.7,3.7-4.6v-15.9h-3.9c-3.5,0-4,0.9-4.5,3l-0.2,0.8h-1.2l0.3-5.5h23.7L359.1,941.8z"/>
		<path fill="#231F20" d="M379.3,937.5v-1.1h9.5v1.1c-3.2,0-3.7,0.7-3.7,4.6v9c0,6.1-4.2,9.3-9.4,9.3c-5.2,0-9.3-3.2-9.3-9.3v-9
			c0-3.9-0.5-4.6-3.7-4.6v-1.1H375v1.1c-3.3,0-3.7,0.7-3.7,4.6v8.6c0,5,2.7,7.4,6,7.4c3.3,0,5.7-2.3,5.7-7.4V942
			C383,938.1,382.5,937.5,379.3,937.5z"/>
		<path fill="#231F20" d="M411.2,953.6c3.4,3.8,4.9,4.7,7.3,5v1.1H410l-6.9-10.2h-1.1v4.6c0,3.9,0.5,4.6,3.7,4.6v1.1h-12.3v-1.1
			c3.2,0,3.7-0.7,3.7-4.6v-12c0-3.9-0.5-4.6-3.7-4.6v-1.1h13c4.8,0,7.9,3,7.9,6.6c0,3.4-2.7,6.1-6.9,6.5L411.2,953.6z M409.1,942.9
			c0-2.6-1.6-4.8-5-4.8h-2.1v9.6h2.1C407.5,947.7,409.1,945.6,409.1,942.9z"/>
		<path fill="#231F20" d="M421.7,958.6c3.2,0,3.7-0.7,3.7-4.6v-12c0-3.9-0.5-4.6-3.7-4.6v-1.1h12.8c9,0,13,5.3,13,11.7
			c0,6.4-3.9,11.7-13,11.7h-12.8V958.6z M430.2,953.6c0,3.8,0.5,4.4,3.7,4.4h0.4c6.3,0,7.6-5.5,7.6-9.9c0-4.4-1.3-9.9-7.6-9.9
			c-0.4,0-4.1,0-4.1,0V953.6z"/>
		<path fill="#231F20" d="M454.9,955.6c-0.9,2.1-0.3,3,2.9,3v1.1h-9.4v-1.1c2.7,0,3.6-0.7,4.8-3.4l8.4-19.5h0.8l8.5,19.5
			c1.1,2.5,1.6,3.4,4.7,3.4v1.1h-12.8v-1.1c3.4,0,3.8-0.9,2.9-3l-1.6-3.7h-7.7L454.9,955.6z M460.3,943l-3.1,7.1h6.2L460.3,943z"/>
		<path fill="#231F20" d="M494.4,940.9l-5.6,8.4v4.7c0,3.9,0.5,4.6,3.7,4.6v1.1h-12.1v-1.1c3.2,0,3.7-0.7,3.7-4.6v-4.6l-5.6-8.5
			c-1.8-2.8-2.9-3.4-5.6-3.4v-1.1h13.2v1.1c-2.7,0-3.5,0.9-2.1,3l4.4,6.6l4.4-6.6c1.4-2.1,1-3-2.1-3v-1.1h9.4v1.1
			C496.8,937.5,496.1,938.4,494.4,940.9z"/>
	</g>
	<g>
		<path fill="#231F20" d="M173.6,1002.1c2.9,0,3.4-0.7,3.4-5.1v-6.9c0-4.3-0.5-5-3.4-5v-0.9h4.8h4.3c4.1,0,6.2,2.1,6.2,4.7
			c0,1.5-0.7,2.8-1.9,3.7c2.2,1,3.4,2.8,3.4,4.9c0,3-2.4,5.3-6.9,5.3h-5.1h-4.8V1002.1z M182.5,985.8h-2.5v6.4h2.5
			c2.1,0,3-1.5,3-3.2C185.5,987.3,184.6,985.8,182.5,985.8z M183.5,993.9h-3.5v4.1c0,2.8,0.3,3.3,2.6,3.3h0.8c2.5,0,3.6-1.6,3.6-3.7
			C187.1,995.6,186,993.9,183.5,993.9z"/>
		<path fill="#231F20" d="M212.3,998.6l0.2-0.9h0.9l-0.3,5.2h-16.2v-0.9c2.9,0,3.4-0.7,3.4-5.1v-6.9c0-4.3-0.5-5-3.4-5v-0.9h9.5h5.6
			l0.3,5.2h-0.9l-0.2-0.9c-0.5-2-1-2.8-5-2.8h-2.9v6.4h0.3c4.3,0,4.7-0.5,4.7-3.4h0.9v8.4h-0.9c0-2.8-0.3-3.4-4.7-3.4h-0.3v2.5
			c0,4.3,0.5,5,3.4,5h0.5C211.3,1001.3,211.8,1000.6,212.3,998.6z"/>
		<path fill="#231F20" d="M235,998.6l0.2-0.9h0.9l-0.3,5.2h-16.2v-0.9c2.9,0,3.4-0.7,3.4-5.1v-6.9c0-4.3-0.5-5-3.4-5v-0.9h9.5h5.6
			l0.3,5.2h-0.9l-0.2-0.9c-0.5-2-1-2.8-5-2.8h-2.9v6.4h0.3c4.3,0,4.7-0.5,4.7-3.4h0.9v8.4H231c0-2.8-0.3-3.4-4.7-3.4h-0.3v2.5
			c0,4.3,0.5,5,3.4,5h0.5C234,1001.3,234.5,1000.6,235,998.6z"/>
		<path fill="#231F20" d="M252.2,1002.1v0.9h-9.9v-0.9c2.9,0,3.4-0.7,3.4-5.1v-6.9c0-4.3-0.5-5-3.4-5v-0.9h10h5.6l0.3,5.2h-0.9
			l-0.2-0.9c-0.5-2-1-2.8-5-2.8h-3.4v6.4h0.3c4.3,0,4.7-0.5,4.7-3.4h0.9v8.4h-0.9c0-2.8-0.3-3.4-4.7-3.4h-0.3v3.2
			C248.8,1001.3,249.3,1002.1,252.2,1002.1z"/>
		<path fill="#231F20" d="M275.5,1002.1c2.9,0,3.4-0.7,3.4-5.1v-6.9c0-4.3-0.5-5-3.4-5v-0.9h4.8h4.3c4.1,0,6.2,2.1,6.2,4.7
			c0,1.5-0.7,2.8-1.9,3.7c2.2,1,3.4,2.8,3.4,4.9c0,3-2.4,5.3-6.9,5.3h-5.1h-4.8V1002.1z M284.4,985.8H282v6.4h2.5c2.1,0,3-1.5,3-3.2
			C287.5,987.3,286.5,985.8,284.4,985.8z M285.4,993.9H282v4.1c0,2.8,0.3,3.3,2.6,3.3h0.8c2.5,0,3.6-1.6,3.6-3.7
			C289,995.6,287.9,993.9,285.4,993.9z"/>
		<path fill="#231F20" d="M309.9,1003.7c-5.8,0-10.5-4.5-10.5-10.1c0-5.5,4.8-10.1,10.5-10.1s10.5,4.6,10.5,10.1
			C320.4,999.1,315.6,1003.7,309.9,1003.7z M309.9,985.1c-5.1,0-7,4.7-7,8.4c0,3.8,1.9,8.4,7,8.4s7-4.7,7-8.4
			C316.9,989.8,315,985.1,309.9,985.1z"/>
		<path fill="#231F20" d="M337.1,1001.7c3,0,5.3-1.7,5.3-5.5v-6.1c0-4.3-0.5-5-3.4-5v-0.9h8.8v0.9c-2.9,0-3.4,0.7-3.4,5v5.8
			c0,5.1-3.5,7.7-7.7,7.7s-7.7-2.6-7.7-7.7v-5.8c0-4.3-0.5-5-3.4-5v-0.9h9.9v0.9c-2.9,0-3.4,0.7-3.4,5v6.1
			C332,1000,334.1,1001.7,337.1,1001.7z"/>
		<path fill="#231F20" d="M366.5,998.1c1.7,2,3.7,3.7,5.8,4v0.9h-5.5l-5.9-8h-1.2v2.1c0,4.3,0.5,5.1,3.4,5.1v0.9h-9.9v-0.9
			c2.9,0,3.4-0.7,3.4-5.1v-6.9c0-4.3-0.5-5-3.4-5v-0.9h8.9c4.4,0,6.9,2.3,6.9,5.4c0,2.6-2,4.8-5.2,5.2L366.5,998.1z M362.2,985.8
			h-2.5v7.5h2.5c2.4,0,3.5-1.7,3.5-3.7C365.7,987.5,364.6,985.8,362.2,985.8z"/>
		<path fill="#231F20" d="M386.6,1003.7c-5.4,0-9.8-4.5-9.8-10.1c0-5.5,4.4-10.1,9.8-10.1c2.1,0,4.4,1.2,5.7,2.8
			c0.3-0.3,0.6-1.4,0.8-2.1h0.8v7.5H393c-0.8-4-3.1-6.6-6.4-6.6c-4.8,0-6.4,4.8-6.4,8.4c0,3.7,1.5,8.4,6.4,8.4
			c2.2,0,5.5-1.3,5.5-3.7c0-1.7-1.6-2.6-3.7-2.6v-0.9h9.5v0.9c-2.9,0-3.4,0.7-3.4,5.1c0,0,0,0.8,0,1.3
			C391.8,1002,389.1,1003.7,386.6,1003.7z"/>
		<path fill="#231F20" d="M413.5,1001.7c3,0,5.3-1.7,5.3-5.5v-6.1c0-4.3-0.5-5-3.4-5v-0.9h8.8v0.9c-2.9,0-3.4,0.7-3.4,5v5.8
			c0,5.1-3.5,7.7-7.7,7.7s-7.7-2.6-7.7-7.7v-5.8c0-4.3-0.5-5-3.4-5v-0.9h9.9v0.9c-2.9,0-3.4,0.7-3.4,5v6.1
			C408.4,1000,410.4,1001.7,413.5,1001.7z"/>
		<path fill="#231F20" d="M429.6,1002.9v-0.9c2.9,0,3.4-0.7,3.4-5.1v-6.9c0-4.3-0.5-5-3.4-5v-0.9h9.9v0.9c-2.9,0-3.4,0.7-3.4,5v6.9
			c0,4.3,0.5,5.1,3.4,5.1v0.9H429.6z"/>
		<path fill="#231F20" d="M455.9,1003.7c-5.4,0-9.8-4.5-9.8-10.1c0-5.5,4.4-10.1,9.8-10.1c2.1,0,4.4,1.2,5.7,2.8
			c0.3-0.3,0.6-1.4,0.8-2.1h0.8v7.5h-0.9c-0.8-4-3.1-6.6-6.4-6.6c-4.8,0-6.4,4.8-6.4,8.4c0,3.7,1.5,8.4,6.4,8.4
			c2.2,0,5.5-1.3,5.5-3.7c0-1.7-1.6-2.6-3.7-2.6v-0.9h9.5v0.9c-2.9,0-3.4,0.7-3.4,5.1c0,0,0,0.8,0,1.3
			C461.1,1002,458.4,1003.7,455.9,1003.7z"/>
		<path fill="#231F20" d="M471.9,985.1v-0.9h5.3l11.5,13.7v-7.8c0-4.3-0.5-5-3.4-5v-0.9h8.4v0.9c-2.9,0-3.4,0.7-3.4,5v13.5h-0.8
			l-12.6-15.1v8.5c0,4.3,0.5,5.1,3.4,5.1v0.9h-8.4v-0.9c2.9,0,3.4-0.7,3.4-5.1v-6.9C475.3,985.8,474.8,985.1,471.9,985.1z"/>
		<path fill="#231F20" d="M510.2,1003.7c-5.8,0-10.5-4.5-10.5-10.1c0-5.5,4.7-10.1,10.5-10.1c5.8,0,10.5,4.6,10.5,10.1
			C520.7,999.1,516,1003.7,510.2,1003.7z M510.2,985.1c-5.1,0-7,4.7-7,8.4c0,3.8,1.9,8.4,7,8.4s7-4.7,7-8.4
			C517.2,989.8,515.3,985.1,510.2,985.1z"/>
		<path fill="#231F20" d="M527.3,985.1v-0.9h5.3l11.5,13.7v-7.8c0-4.3-0.5-5-3.4-5v-0.9h8.4v0.9c-2.9,0-3.4,0.7-3.4,5v13.5h-0.8
			l-12.6-15.1v8.5c0,4.3,0.5,5.1,3.4,5.1v0.9h-8.4v-0.9c2.9,0,3.4-0.7,3.4-5.1v-6.9C530.7,985.8,530.2,985.1,527.3,985.1z"/>
		<path fill="#231F20" d="M587.2,994.2c-0.4,0.6-0.8,0.9-1.2,0.9c-0.5,0-0.9-0.3-0.9-0.8c0-0.3,0.1-0.6,0.4-1l5.8-6.6H586
			c-1.9,0-3.5,0.5-4,2.4l-0.2,0.9h-0.9l1-5.8h12.7v1.2l-5,5.7c3.1,0.9,5.4,3.5,5.4,6.2c0,3.4-3.2,6.3-7.4,6.3
			c-4.1,0-6.5-2.5-6.5-3.8c0-0.5,0.4-1,1.2-1c1.5,0,1.3,3,5.4,3c3,0,4.4-2.1,4.4-4.5c0-2.2-1.4-4.2-3.7-4.5
			C587.9,993.1,587.6,993.4,587.2,994.2z"/>
		<path fill="#231F20" d="M610.2,1003.7c-4.1,0-7.3-4.5-7.3-10.1c0-5.5,3.3-10.1,7.3-10.1c4.1,0,7.4,4.5,7.4,10.1
			C617.6,999.1,614.3,1003.7,610.2,1003.7z M610.2,985.1c-2.9,0-4.2,3.8-4.2,8.5c0,4.7,1.3,8.5,4.2,8.5c2.9,0,4.3-3.8,4.3-8.5
			C614.5,988.8,613.1,985.1,610.2,985.1z"/>
	</g>
	<g>
		<path fill="#231F20" d="M316.6,1089.2h-1.1v-8.6h1.1c0.8,4.2,4,6.8,7.2,6.8c2.3,0,3.9-1.3,3.9-3.9c0-1.4-1.1-3-2.9-3.9l-3.7-1.9
			c-3.3-1.7-5.3-3.5-5.3-7.4c0-3.2,3-5.8,6.8-5.8c2.3,0,3.6,0.7,4.7,1.6c0.5-0.4,0.9-1,1.1-1.8h1.1v8.6h-1.1
			c-0.3-3.1-1.5-6.7-5.6-6.7c-1.6,0-3.2,1.2-3.2,3.1c0,1.2,1,2.9,3.1,4l3.7,1.9c2.8,1.4,5,3.8,5,6.9c0,4.2-3.7,7.1-7.7,7.1
			c-3,0-4.8-1.6-6.1-1.8C317.3,1087.7,316.8,1088.3,316.6,1089.2z"/>
		<path fill="#231F20" d="M352.7,1066.3v-1.1h9.5v1.1c-3.2,0-3.7,0.7-3.7,4.6v9c0,6.1-4.2,9.3-9.4,9.3c-5.2,0-9.3-3.2-9.3-9.3v-9
			c0-3.9-0.5-4.6-3.7-4.6v-1.1h12.3v1.1c-3.3,0-3.7,0.7-3.7,4.6v8.6c0,5,2.7,7.4,6,7.4s5.7-2.3,5.7-7.4v-8.6
			C356.4,1067,356,1066.3,352.7,1066.3z"/>
		<path fill="#231F20" d="M387,1070.9c0-3.9-0.5-4.6-3.7-4.6v-1.1h9.2v1.1c-3.3,0-3.7,0.7-3.7,4.6v18.3h-1l-16.1-19.2v12.9
			c0,3.9,0.5,4.6,3.7,4.6v1.1h-9.2v-1.1c3.2,0,3.7-0.7,3.7-4.6v-12c0-3.9-0.5-4.6-3.7-4.6v-1.1h7.8l13,15.5V1070.9z"/>
		<path fill="#231F20" d="M397.3,1087.4c3.2,0,3.7-0.7,3.7-4.6v-12c0-3.9-0.5-4.6-3.7-4.6v-1.1h12.8c9,0,13,5.3,13,11.7
			c0,6.4-3.9,11.7-13,11.7h-12.8V1087.4z M405.8,1082.4c0,3.8,0.5,4.4,3.7,4.4h0.4c6.3,0,7.6-5.5,7.6-9.9c0-4.4-1.3-9.9-7.6-9.9
			c-0.4,0-4.1,0-4.1,0V1082.4z"/>
		<path fill="#231F20" d="M430.5,1084.4c-0.9,2.1-0.3,3,2.9,3v1.1H424v-1.1c2.7,0,3.6-0.7,4.8-3.4l8.4-19.5h0.8l8.5,19.5
			c1.1,2.5,1.6,3.4,4.7,3.4v1.1h-12.8v-1.1c3.4,0,3.8-0.9,2.9-3l-1.6-3.7h-7.7L430.5,1084.4z M436,1071.9l-3.1,7.1h6.2L436,1071.9z"
			/>
		<path fill="#231F20" d="M470.1,1069.7l-5.6,8.4v4.7c0,3.9,0.5,4.6,3.7,4.6v1.1h-12.1v-1.1c3.2,0,3.7-0.7,3.7-4.6v-4.6l-5.6-8.5
			c-1.8-2.8-2.9-3.4-5.6-3.4v-1.1h13.2v1.1c-2.7,0-3.5,0.9-2.1,3l4.4,6.6l4.4-6.6c1.4-2.1,1-3-2.1-3v-1.1h9.4v1.1
			C472.4,1066.3,471.7,1067.2,470.1,1069.7z"/>
	</g>
	<g>
		<path fill="#231F20" d="M125.2,1130.9v0.9h-9.9v-0.9c2.9,0,3.4-0.7,3.4-5.1v-6.9c0-4.3-0.5-5-3.4-5v-0.9h8.9
			c4.4,0,6.9,2.3,6.9,5.4c0,3-2.5,5.3-6.9,5.3h-2.5v2.1C121.8,1130.1,122.3,1130.9,125.2,1130.9z M124.3,1114.6h-2.5v7.5h2.5
			c2.4,0,3.5-1.7,3.5-3.7C127.8,1116.3,126.7,1114.6,124.3,1114.6z"/>
		<path fill="#231F20" d="M148.6,1126.9c1.7,2,3.7,3.7,5.8,4v0.9h-5.5l-5.9-8h-1.2v2.1c0,4.3,0.5,5.1,3.4,5.1v0.9h-9.9v-0.9
			c2.9,0,3.4-0.7,3.4-5.1v-6.9c0-4.3-0.5-5-3.4-5v-0.9h8.9c4.4,0,6.9,2.3,6.9,5.4c0,2.6-2,4.8-5.2,5.2L148.6,1126.9z M144.3,1114.6
			h-2.5v7.5h2.5c2.4,0,3.5-1.7,3.5-3.7C147.8,1116.3,146.7,1114.6,144.3,1114.6z"/>
		<path fill="#231F20" d="M168.6,1132.5c-5.8,0-10.5-4.5-10.5-10.1c0-5.5,4.8-10.1,10.5-10.1s10.5,4.6,10.5,10.1
			C179.1,1127.9,174.4,1132.5,168.6,1132.5z M168.6,1113.9c-5.1,0-7,4.7-7,8.4c0,3.8,1.9,8.4,7,8.4s7-4.7,7-8.4
			C175.6,1118.7,173.7,1113.9,168.6,1113.9z"/>
		<path fill="#231F20" d="M199.3,1117.7l-6.4,14.8h-0.6l-6.4-14.8c-1.4-3.3-1.9-3.8-4.2-3.8v-0.9h9.7v0.9c-3.1,0-3.4,0.8-2.3,3.3
			l4.4,10.2l4.4-10.2c1.1-2.5,1.1-3.3-2.3-3.3v-0.9h8.1v0.9C201.1,1113.9,200.7,1114.4,199.3,1117.7z"/>
		<path fill="#231F20" d="M222.4,1127.4l0.2-0.9h0.9l-0.3,5.2H207v-0.9c2.9,0,3.4-0.7,3.4-5.1v-6.9c0-4.3-0.5-5-3.4-5v-0.9h9.5h5.6
			l0.3,5.2h-0.9l-0.2-0.9c-0.5-2-1-2.8-5-2.8h-2.9v6.4h0.3c4.3,0,4.7-0.5,4.7-3.4h0.9v8.4h-0.9c0-2.8-0.3-3.4-4.7-3.4h-0.3v2.5
			c0,4.3,0.5,5,3.4,5h0.5C221.3,1130.1,221.9,1129.4,222.4,1127.4z"/>
		<path fill="#231F20" d="M228.8,1113.9v-0.9h5.3l11.5,13.7v-7.8c0-4.3-0.5-5-3.4-5v-0.9h8.4v0.9c-2.9,0-3.4,0.7-3.4,5v13.5h-0.8
			l-12.6-15.1v8.5c0,4.3,0.5,5.1,3.4,5.1v0.9h-8.4v-0.9c2.9,0,3.4-0.7,3.4-5.1v-6.9C232.2,1114.6,231.7,1113.9,228.8,1113.9z"/>
		<path fill="#231F20" d="M256.4,1122.4c0-5.5,4.4-10.1,9.8-10.1c2.1,0,4.4,1.2,5.7,2.8c0.3-0.3,0.6-1.4,0.8-2.1h0.8v7.5h-0.9
			c-0.8-4-3.1-6.6-6.4-6.6c-4.8,0-6.3,4.8-6.3,8.4c0,3.7,1.4,8.4,6.3,8.4c3.3,0,5.6-2.5,6.4-6.6h0.9v7.5h-0.8
			c-0.2-0.8-0.5-1.8-0.8-2.1c-1.3,1.6-3.6,2.8-5.7,2.8l-1.7,1.8c1.5,0.1,3.6,1.1,3.6,3.4c0,3.2-5,4.2-6.4,4.4v-1.2
			c1.1-0.3,3.7-1.2,3.7-3.2c0-1.5-2.3-2.1-4.4-1.4v-0.6l3.4-3.3C259.8,1131.4,256.4,1127.3,256.4,1122.4z"/>
		<path fill="#231F20" d="M283.5,1127.6c-1.1,2.5-1.1,3.3,2.3,3.3v0.9h-8.2v-0.9c2.6,0,3-0.5,4.5-3.8l6.4-14.8h0.6l6.4,14.8
			c1.4,3.2,1.9,3.8,4.2,3.8v0.9H290v-0.9c3.1,0,3.4-0.7,2.3-3.3l-0.9-2h-7.1L283.5,1127.6z M287.9,1117.4l-2.8,6.6h5.7L287.9,1117.4
			z"/>
		<path fill="#231F20" d="M303,1113.9v-0.9h9.9v0.9c-2.9,0-3.4,0.7-3.4,5v6.2c0,4.3,0.5,5,3.4,5h1.5c4,0,4.5-0.7,5-2.8l0.2-0.9h0.9
			l-0.3,5.2H303v-0.9c2.9,0,3.4-0.7,3.4-5.1v-6.9C306.4,1114.6,305.9,1113.9,303,1113.9z"/>
		<path fill="#231F20" d="M344.7,1130.9v0.9h-9.9v-0.9c2.9,0,3.4-0.7,3.4-5.1v-6.9c0-4.3-0.5-5-3.4-5v-0.9h10h5.6l0.3,5.2h-0.9
			l-0.2-0.9c-0.5-2-1-2.8-5-2.8h-3.4v6.4h0.3c4.3,0,4.7-0.5,4.7-3.4h0.9v8.4h-0.9c0-2.8-0.3-3.4-4.7-3.4h-0.3v3.2
			C341.3,1130.1,341.8,1130.9,344.7,1130.9z"/>
		<path fill="#231F20" d="M368.2,1126.9c1.7,2,3.7,3.7,5.8,4v0.9h-5.5l-5.9-8h-1.2v2.1c0,4.3,0.5,5.1,3.4,5.1v0.9h-9.9v-0.9
			c2.9,0,3.4-0.7,3.4-5.1v-6.9c0-4.3-0.5-5-3.4-5v-0.9h8.9c4.4,0,6.9,2.3,6.9,5.4c0,2.6-2,4.8-5.2,5.2L368.2,1126.9z M363.8,1114.6
			h-2.5v7.5h2.5c2.4,0,3.5-1.7,3.5-3.7C367.4,1116.3,366.3,1114.6,363.8,1114.6z"/>
		<path fill="#231F20" d="M377.2,1131.7v-0.9c2.9,0,3.4-0.7,3.4-5.1v-6.9c0-4.3-0.5-5-3.4-5v-0.9h9.9v0.9c-2.9,0-3.4,0.7-3.4,5v6.9
			c0,4.3,0.5,5.1,3.4,5.1v0.9H377.2z"/>
		<path fill="#231F20" d="M407.8,1127.4l0.2-0.9h0.9l-0.3,5.2h-16.2v-0.9c2.9,0,3.4-0.7,3.4-5.1v-6.9c0-4.3-0.5-5-3.4-5v-0.9h9.5
			h5.6l0.3,5.2h-0.9l-0.2-0.9c-0.5-2-1-2.8-5-2.8h-2.9v6.4h0.3c4.3,0,4.7-0.5,4.7-3.4h0.9v8.4h-0.9c0-2.8-0.3-3.4-4.7-3.4h-0.3v2.5
			c0,4.3,0.5,5,3.4,5h0.5C406.7,1130.1,407.3,1129.4,407.8,1127.4z"/>
		<path fill="#231F20" d="M414.2,1130.9c2.9,0,3.4-0.7,3.4-5.1v-6.9c0-4.3-0.5-5-3.4-5v-0.9h9.2c7.3,0,10.5,4.2,10.5,9.3
			c0,5.1-3.2,9.4-10.5,9.4h-9.2V1130.9z M423.5,1114.6c-0.3,0-2.1,0-2.8,0v12.3c0,2.8,0.3,3.3,2.5,3.3h0.3c5.7,0,6.8-4.3,6.8-7.8
			C430.3,1119,429.2,1114.6,423.5,1114.6z"/>
		<path fill="#231F20" d="M467.7,1131.7c-0.2-0.8-0.5-1.8-0.8-2.1c-1.3,1.6-3.6,2.8-5.7,2.8c-5.4,0-9.8-4.5-9.8-10.1
			c0-5.5,4.4-10.1,9.8-10.1c2.1,0,4.4,1.2,5.7,2.8c0.3-0.3,0.6-1.4,0.8-2.1h0.8v7.5h-0.9c-0.8-4-3.1-6.6-6.4-6.6
			c-4.8,0-6.3,4.8-6.3,8.4c0,3.7,1.4,8.4,6.3,8.4c3.3,0,5.6-2.5,6.4-6.6h0.9v7.5H467.7z"/>
		<path fill="#231F20" d="M490.9,1121v-2.1c0-4.3-0.5-5-3.4-5v-0.9h9.9v0.9c-2.8,0-3.4,0.7-3.4,5v6.9c0,4.3,0.6,5.1,3.4,5.1v0.9
			h-9.9v-0.9c2.9,0,3.4-0.7,3.4-5.1v-3.2h-9.8v3.2c0,4.3,0.5,5.1,3.4,5.1v0.9h-9.9v-0.9c2.9,0,3.4-0.7,3.4-5.1v-6.9
			c0-4.3-0.5-5-3.4-5v-0.9h9.9v0.9c-2.9,0-3.4,0.7-3.4,5v2.1H490.9z"/>
		<path fill="#231F20" d="M502.6,1131.7v-0.9c2.9,0,3.4-0.7,3.4-5.1v-6.9c0-4.3-0.5-5-3.4-5v-0.9h9.9v0.9c-2.9,0-3.4,0.7-3.4,5v6.9
			c0,4.3,0.5,5.1,3.4,5.1v0.9H502.6z"/>
		<path fill="#231F20" d="M534.6,1131.7c-0.2-0.8-0.5-1.8-0.8-2.1c-1.3,1.6-3.6,2.8-5.7,2.8c-5.4,0-9.8-4.5-9.8-10.1
			c0-5.5,4.4-10.1,9.8-10.1c2.1,0,4.4,1.2,5.7,2.8c0.3-0.3,0.6-1.4,0.8-2.1h0.8v7.5h-0.9c-0.8-4-3.1-6.6-6.4-6.6
			c-4.8,0-6.3,4.8-6.3,8.4c0,3.7,1.4,8.4,6.3,8.4c3.3,0,5.6-2.5,6.4-6.6h0.9v7.5H534.6z"/>
		<path fill="#231F20" d="M548,1123.6v2.2c0,4.3,0.5,5.1,3.4,5.1v0.9h-9.9v-0.9c2.9,0,3.4-0.7,3.4-5.1v-6.9c0-4.3-0.5-5-3.4-5v-0.9
			h9.9v0.9c-2.9,0-3.4,0.7-3.4,5v2.8l5.3-4.5c3.1-2.7,2.9-3.3,0.5-3.3v-0.9h8.1v0.9c-2.2,0-3.5,0.7-7,3.8l-3.7,3.2l7,6.2
			c3.5,3.1,4.7,3.8,6.2,3.8v0.9h-10.1v-0.9c2.4,0,2.8-0.7,0.1-3.3l-5.2-4.9L548,1123.6z"/>
		<path fill="#231F20" d="M582.9,1127.4l0.2-0.9h0.9l-0.3,5.2h-16.2v-0.9c2.9,0,3.4-0.7,3.4-5.1v-6.9c0-4.3-0.5-5-3.4-5v-0.9h9.5
			h5.6l0.3,5.2H582l-0.2-0.9c-0.5-2-1-2.8-5-2.8h-2.9v6.4h0.3c4.3,0,4.7-0.5,4.7-3.4h0.9v8.4h-0.9c0-2.8-0.3-3.4-4.7-3.4h-0.3v2.5
			c0,4.3,0.5,5,3.4,5h0.5C581.8,1130.1,582.3,1129.4,582.9,1127.4z"/>
		<path fill="#231F20" d="M589.3,1113.9v-0.9h5.3l11.5,13.7v-7.8c0-4.3-0.5-5-3.4-5v-0.9h8.4v0.9c-2.9,0-3.4,0.7-3.4,5v13.5h-0.8
			l-12.6-15.1v8.5c0,4.3,0.5,5.1,3.4,5.1v0.9h-8.4v-0.9c2.9,0,3.4-0.7,3.4-5.1v-6.9C592.7,1114.6,592.2,1113.9,589.3,1113.9z"/>
		<path fill="#231F20" d="M642.2,1131.7v-0.9c2.9,0,3.5-0.7,3.5-5.1v-6.6c0-4.3-1-4.8-4.1-4.7v-0.9l7.2-1.4v13.6
			c0,4.3,0.6,5.1,3.5,5.1v0.9H642.2z"/>
		<path fill="#231F20" d="M668.7,1132.5c-3.8,0-7.1-2.6-7.1-5.4c0-3,2.4-4.5,4.8-5.4c-1.8-1.1-3.8-2.5-3.8-4.5
			c0-2.8,2.9-4.8,6.1-4.8c3.2,0,6.2,1.9,6.2,4.4c0,2.1-2.2,3.5-4.2,4.4c2.5,1.2,5.2,2.6,5.2,5.7
			C675.8,1130,672.6,1132.5,668.7,1132.5z M667.7,1122.4c-1.7,1-3.2,2.2-3.2,4.7c0,2.1,1.6,3.8,4.2,3.8c2.7,0,4.3-1.6,4.3-3.6
			C672.9,1124.9,670.1,1123.6,667.7,1122.4z M668.7,1113.9c-1.9,0-3.2,1.2-3.2,2.7c0,1.7,2.1,2.9,3.8,3.8c1.4-0.7,2.8-2,2.8-3.8
			C672,1115.1,670.6,1113.9,668.7,1113.9z"/>
	</g>
</g>
</svg>
