<?xml version="1.0" encoding="utf-8"?>
<!-- Generator: Adobe Illustrator 17.1.0, SVG Export Plug-In . SVG Version: 6.00 Build 0)  -->
<!DOCTYPE svg PUBLIC "-//W3C//DTD SVG 1.1//EN" "http://www.w3.org/Graphics/SVG/1.1/DTD/svg11.dtd">
<svg version="1.1" id="Layer_1" xmlns="http://www.w3.org/2000/svg" xmlns:xlink="http://www.w3.org/1999/xlink" x="0px" y="0px"
	 viewBox="-77 -1.8 337.9 55.8" enable-background="new -77 -1.8 337.9 55.8" xml:space="preserve">
<g>
	<path fill="#033B3C" d="M-77,3h13.2c7,0,12.8,2.4,12.8,10.3c0,4.8-2.5,8.4-7.3,9.3l8.6,14.4h-9l-7.1-13.6h-3.7V37H-77V3z
		 M-69.5,17.1h4.4c2.7,0,6.3-0.1,6.3-3.8c0-3.4-3.1-3.9-5.8-3.9h-4.9V17.1z"/>
	<path fill="#033B3C" d="M-21.1,20.8c-2.3,3.4-5.7,4.8-9.6,4.8c-6.8,0-11.2-4.8-11.2-11.7c0-6.6,4.6-11.6,11.1-11.6
		c6.8,0,10.4,5.2,10.4,10.4v2H-39c0,2.4,1.7,8.4,8.4,8.4c2.9,0,6-1.5,7.4-3.9L-21.1,20.8z M-23.3,12c0-3.9-3.4-7.2-7.7-7.2
		c-6.3,0-8.1,6-8.1,7.2H-23.3z"/>
	<path fill="#033B3C" d="M0.7,18.9c-0.2-3-1.8-3.8-3.2-3.8c-1.9,0-3,1.2-3,3.4c0,5.9,12.1,8.7,12.1,18.1c0,5.7-3.8,8.9-9.4,8.9
		c-5.5,0-8.7-4.4-8.9-9.6l5.7-0.8c0.2,3.5,1.6,5.2,3.6,5.2c2.1,0,3.5-1.1,3.5-3.2c0-6.9-12.1-8.7-12.1-18.6c0-5.5,3.4-8.6,9.2-8.6
		c4.8,0,7.7,3.5,8.3,8.4L0.7,18.9z"/>
	<path fill="#033B3C" d="M14.9,26c4,0,4.6-0.8,4.6-5.6V4.8c0-4.8-0.6-5.6-4.6-5.6v-1h21.9l0.4,6.3h-1l-0.2-1C35.3,1.1,34.8,0,30.4,0
		h-7.1v10.9h2.4c4.8,0,5.6-0.6,5.6-4.6h1v11h-1c0-4-0.8-4.6-5.6-4.6h-2.4v7c0,4.8,0.6,5.6,4.6,5.6H32c4.4,0,4.9-1.1,5.6-3.6l0.2-1h1
		L38.4,27H14.9V26z"/>
	<path fill="#033B3C" d="M54.7,37h-6V2.3h8.4c6.7,0,10.1,2.8,10.1,10.2c0,5.6-2.2,7.8-4.2,8.7l5,15.7h-6l-4.2-14.4
		c-0.8,0.1-2,0.1-3.1,0.1V37z M54.7,17.9h2.1c3.2,0,4.4-1.2,4.4-5.3S60,7.2,56.8,7.2h-2.1V17.9z"/>
	<path fill="#033B3C" d="M77.3,17.1c-1-2.6-1.5-3.8-3.7-3.8V13h9.9v0.4c-2.9,0-2.9,1.2-1.9,3.8l6,15l5.4-15c1-2.7-0.6-3.8-2.9-3.8
		V13h7.6v0.4c-1.6,0-2.7,1.1-3.7,3.8l-7.4,20.2h-1.3L77.3,17.1z"/>
	<path fill="#033B3C" d="M106.1,37h-5.8l6.4-34.7h7.4l6.4,34.7h-5.8l-1.1-7.7h-6.5L106.1,37z M108,24.1h4.8l-2.4-14.9h-0.1L108,24.1
		z"/>
	<path fill="#033B3C" d="M134.6,51.1h5.3V18.3h-2.8c-0.6,0-1.4,0.1-2.2,0.2c-0.8,0.1-1.6,0.4-2.4,0.9c-0.8,0.5-1.6,1.3-2.4,2.4
		s-1.4,2.6-1.9,4.6h-0.5v-8.8h29.2v8.8h-0.5c-0.5-2-1.2-3.5-1.9-4.6c-0.8-1.1-1.5-1.9-2.4-2.4c-0.8-0.5-1.6-0.8-2.4-0.9
		c-0.8-0.1-1.5-0.2-2.2-0.2h-2.8v32.8h5.3v0.7h-15.5V51.1z"/>
	<path fill="#033B3C" d="M169.3,3.9c1.2,0,2.2,1,2.2,2.2c0,1.2-1,2.2-2.2,2.2s-2.2-1-2.2-2.2C167.1,4.8,168.1,3.9,169.3,3.9z
		 M167.9,14.8h2.9V37h-2.9V14.8z"/>
	<path fill="#033B3C" d="M194.1,2.2c6.8,0,11.7,4.9,11.7,11.7s-4.8,11.7-11.7,11.7c-6.8,0-11.7-4.9-11.7-11.7S187.3,2.2,194.1,2.2z
		 M194.1,23c5.4,0,8.8-4.1,8.8-9.1c0-5-3.4-9.1-8.8-9.1c-5.4,0-8.8,4.1-8.8,9.1C185.3,18.9,188.7,23,194.1,23z"/>
	<path fill="#033B3C" d="M216,54V19.4h5.5l7.2,19.8h0.1V19.4h5.4V54h-5.2l-7.6-21.6h-0.1V54H216z"/>
	<path fill="#033B3C" d="M257.3,8.5c-0.5-0.9-1.1-1.7-1.9-2.2c-0.8-0.5-1.8-0.8-2.9-0.8c-0.5,0-1.1,0.1-1.7,0.2
		c-0.6,0.1-1.1,0.3-1.5,0.6c-0.4,0.3-0.8,0.6-1.1,1c-0.3,0.4-0.4,0.9-0.4,1.5c0,1.1,0.4,1.8,1.1,2.3c0.7,0.5,1.8,0.9,3.3,1.2
		l3.2,0.8c1.6,0.4,2.9,1.1,3.9,2.1c1,1.1,1.6,2.4,1.6,4c0,1.2-0.2,2.3-0.7,3.1c-0.5,0.9-1.2,1.6-2,2.2c-0.8,0.6-1.8,1-2.8,1.2
		c-1.1,0.3-2.1,0.4-3.2,0.4c-1.7,0-3.3-0.3-4.8-1c-1.5-0.7-2.8-1.8-3.8-3.4l2.7-1.9c0.6,1,1.4,1.8,2.4,2.4c1,0.6,2.1,0.9,3.5,0.9
		c0.6,0,1.3-0.1,1.9-0.2c0.6-0.1,1.2-0.4,1.7-0.7c0.5-0.3,0.9-0.7,1.2-1.2c0.3-0.5,0.5-1,0.5-1.7c0-1.1-0.4-1.9-1.2-2.4
		c-0.8-0.5-1.8-0.9-3-1.2l-3.1-0.7c-0.4-0.1-0.9-0.3-1.6-0.5c-0.7-0.2-1.3-0.6-1.9-1c-0.6-0.4-1.2-1-1.6-1.8
		c-0.4-0.7-0.7-1.6-0.7-2.7c0-1.2,0.2-2.2,0.7-3c0.5-0.9,1.1-1.6,1.9-2.1c0.8-0.5,1.7-1,2.7-1.2c1-0.3,2-0.4,3.1-0.4
		c1.6,0,3,0.3,4.4,0.9c1.3,0.6,2.4,1.6,3.1,3.1L257.3,8.5z"/>
</g>
</svg>
