<?xml version="1.0" encoding="utf-8"?>
<!-- Generator: Adobe Illustrator 16.0.0, SVG Export Plug-In . SVG Version: 6.00 Build 0)  -->
<!DOCTYPE svg PUBLIC "-//W3C//DTD SVG 1.1//EN" "http://www.w3.org/Graphics/SVG/1.1/DTD/svg11.dtd">
<svg version="1.1" id="Layer_1" xmlns="http://www.w3.org/2000/svg" xmlns:xlink="http://www.w3.org/1999/xlink" x="0px" y="0px"
	 width="543.001px" height="269px" viewBox="0 0 543.001 269" enable-background="new 0 0 543.001 269" xml:space="preserve">
<g>
	<g>
		<path fill="#A9C0B9" d="M203.66,51.335l-0.025-0.017c0.67-1.115,0.393-2.562-0.705-3.317c-1.055-0.727-2.662-0.325-3.525,0.638
			l-0.02-0.012c0,0-6.25,7.71-22.277,8.018c-11.295-0.158-20.963-6.476-25.295-15.516c-1.244-2.276-3.074-1.179-6.459,0.641
			c-3.565,1.916-8.473,3.555-8.473,3.555l0,0c-21.688,7.089-59.289,23.581-58.727,52.683c0.559,29.15,25.673,37.858,43.106,44.781
			c1.559,0.621,3.222,1.286,4.927,1.961l-21.764,31.165l-0.026,0.034l-1.191,1.705c-0.746-0.069-1.191-0.104-1.191-0.104
			c-36.9,0-49.379,19.068-46.166,30.504c0.32,1.018,3.268,8.61,16.108,8.125c2.983-0.242,5.706-0.847,8.118-1.717
			c9.703-3.926,18.246-15.58,18.246-15.58l1.375-1.939c0.28,0.125,0.547,0.244,0.81,0.382c1.376,0.76,4.417,2.465,7.644,4.462
			c0.1,0.061,0.204,0.104,0.292,0.158c0.017,0,0.033,0,0.033,0.015c0.258,0.177,0.542,0.372,0.81,0.562
			c1.104,0.711,2.174,1.443,3.154,2.226l-0.014,0.005c1.23,0.917,2.485,1.887,3.752,2.921c0.029,0.021,0.059,0.042,0.07,0.056
			c1.267,1.027,2.534,2.121,3.847,3.285c0.018,0.016,0.042,0.03,0.06,0.055c4.242,3.882,8.151,7.896,11.107,10.894
			c1.361,1.371,5.047,5.095,7.499,1.873c32.082-41.94,57.23-31.924,57.502-58.604c0.217-21.157-21.326-35.022-43.66-46.738
			l7.709-11.424l0,0c0,0,5.105-7.607,7.291-4.021h0.019c-0.188,0.899-0.312,1.816-0.312,2.768c0,7.542,5.922,13.653,13.229,13.653
			c7.297,0,13.232-7.019,13.232-13.653c0-4.269-2.422-12.827-11.148-15.354c-14.696-2.855-24.836,9.229-27.62,13.049l-0.796,1.14
			l0,0l-7.527,10.781c-13.521-6.882-26.646-13.157-34.714-19.92c-16.472-13.81-3.811-28.38,4.666-34.458l0,0
			c0,0,4.177-2.52,5.711-1.303c0.646,0.392,2.576,2.195,3.338,3.112l0.013-0.007c6.114,8.443,17.557,15.743,31.106,15.743
			c0.004,0-0.013,0.018-0.013,0.018C190.715,78.608,203.66,51.335,203.66,51.335z M90.399,196.16c0,0.003-9.02,12.105-20.719,12.232
			c-10.769-0.886-6.121-13.359,4.08-15.537c2.33-0.5,4.357-0.715,6.224-0.836c0.767-0.006,1.584,0.027,2.459,0.071
			c0.033,0,0.075,0.002,0.125,0.002c0.846,0.062,1.75,0.149,2.675,0.284c0.046,0.005,0.109,0.025,0.154,0.025
			c1.955,0.273,4.086,0.725,6.41,1.438c0.013,0,0.195,0.037,0.195,0.037L90.399,196.16z M167.184,166.4
			c1.025,1.099,3.646,4.377,3.738,9.23c-0.107,1.733-0.341,3.383-0.746,4.818c0,0.027,0,0.041-0.017,0.062
			c-1.751,6.174-5.485,9.658-5.485,9.658c-8.226,8.217-4.867,5.742-22.172-2.592c-10.13-4.889-22.263-7.479-30.601-8.793
			l21.109-31.258C146.004,152.938,160.453,159.671,167.184,166.4z"/>
		<path fill="#A9C0B9" d="M134.563,1.285c-73.455,0-133.217,59.76-133.217,133.211c0,73.457,59.762,133.218,133.217,133.218
			c73.455,0,133.216-59.761,133.216-133.218C267.779,61.045,208.02,1.285,134.563,1.285z M134.563,257.412
			c-67.774,0-122.913-55.141-122.913-122.916c0-67.77,55.139-122.909,122.913-122.909c67.778,0,122.923,55.14,122.923,122.909
			C257.486,202.271,202.342,257.412,134.563,257.412z"/>
	</g>
</g>
<g>
	<g>
		<path fill="#ED1C24" d="M477.407,51.335l-0.025-0.017c0.67-1.115,0.393-2.562-0.705-3.317c-1.055-0.727-2.662-0.325-3.525,0.638
			l-0.02-0.012c0,0-6.25,7.71-22.277,8.018c-11.295-0.158-20.963-6.476-25.295-15.516c-1.244-2.276-3.074-1.179-6.459,0.641
			c-3.565,1.916-8.473,3.555-8.473,3.555l0,0c-21.688,7.089-59.289,23.581-58.727,52.683c0.559,29.15,25.673,37.858,43.105,44.781
			c1.559,0.621,3.223,1.286,4.928,1.961l-21.765,31.165l-0.026,0.034l-1.19,1.705c-0.746-0.069-1.19-0.104-1.19-0.104
			c-36.9,0-49.379,19.068-46.166,30.504c0.319,1.018,3.268,8.61,16.107,8.125c2.982-0.242,5.706-0.847,8.118-1.717
			c9.702-3.926,18.245-15.58,18.245-15.58l1.375-1.939c0.281,0.125,0.548,0.244,0.811,0.382c1.376,0.76,4.417,2.465,7.645,4.462
			c0.1,0.061,0.203,0.104,0.291,0.158c0.018,0,0.033,0,0.033,0.015c0.258,0.177,0.543,0.372,0.811,0.562
			c1.104,0.711,2.174,1.443,3.154,2.226l-0.015,0.005c1.229,0.917,2.485,1.887,3.752,2.921c0.029,0.021,0.06,0.042,0.07,0.056
			c1.267,1.027,2.534,2.121,3.847,3.285c0.018,0.016,0.043,0.03,0.061,0.055c4.242,3.882,8.15,7.896,11.107,10.894
			c1.36,1.371,5.047,5.095,7.498,1.873c32.082-41.94,57.23-31.924,57.502-58.604c0.217-21.157-21.326-35.022-43.66-46.738
			l7.709-11.424l0,0c0,0,5.105-7.607,7.291-4.021h0.019c-0.188,0.899-0.312,1.816-0.312,2.768c0,7.542,5.922,13.653,13.229,13.653
			c7.297,0,13.232-7.019,13.232-13.653c0-4.269-2.422-12.827-11.148-15.354c-14.696-2.855-24.836,9.229-27.62,13.049l-0.796,1.14
			l0,0l-7.527,10.781c-13.521-6.882-26.646-13.157-34.714-19.92c-16.472-13.81-3.812-28.38,4.666-34.458l0,0
			c0,0,4.177-2.52,5.711-1.303c0.646,0.392,2.576,2.195,3.339,3.112l0.012-0.007c6.115,8.443,17.558,15.743,31.106,15.743
			c0.004,0-0.013,0.018-0.013,0.018C464.462,78.608,477.407,51.335,477.407,51.335z M364.146,196.16
			c0,0.003-9.02,12.105-20.719,12.232c-10.769-0.886-6.121-13.359,4.08-15.537c2.33-0.5,4.357-0.715,6.225-0.836
			c0.767-0.006,1.584,0.027,2.459,0.071c0.033,0,0.074,0.002,0.125,0.002c0.846,0.062,1.75,0.149,2.675,0.284
			c0.046,0.005,0.108,0.025,0.153,0.025c1.955,0.273,4.086,0.725,6.41,1.438c0.014,0,0.195,0.037,0.195,0.037L364.146,196.16z
			 M440.931,166.4c1.025,1.099,3.646,4.377,3.738,9.23c-0.107,1.733-0.341,3.383-0.746,4.818c0,0.027,0,0.041-0.017,0.062
			c-1.751,6.174-5.485,9.658-5.485,9.658c-8.226,8.217-4.867,5.742-22.172-2.592c-10.13-4.889-22.263-7.479-30.602-8.793
			l21.109-31.258C419.751,152.938,434.2,159.671,440.931,166.4z"/>
		<path fill="#ED1C24" d="M408.31,1.285c-73.455,0-133.217,59.76-133.217,133.211c0,73.457,59.762,133.218,133.217,133.218
			s133.217-59.761,133.217-133.218C541.526,61.045,481.767,1.285,408.31,1.285z M408.31,257.412
			c-67.773,0-122.912-55.141-122.912-122.916c0-67.77,55.139-122.909,122.912-122.909c67.778,0,122.924,55.14,122.924,122.909
			C531.233,202.271,476.089,257.412,408.31,257.412z"/>
	</g>
</g>
</svg>
