<?xml version="1.0" encoding="utf-8"?>
<!-- Generator: Adobe Illustrator 17.1.0, SVG Export Plug-In . SVG Version: 6.00 Build 0)  -->
<!DOCTYPE svg PUBLIC "-//W3C//DTD SVG 1.1//EN" "http://www.w3.org/Graphics/SVG/1.1/DTD/svg11.dtd">
<svg version="1.1" id="Layer_1" xmlns="http://www.w3.org/2000/svg" xmlns:xlink="http://www.w3.org/1999/xlink" x="0px" y="0px"
	 viewBox="0 0 299 270.9" enable-background="new 0 0 299 270.9" xml:space="preserve">
<g>
	<g>
		<path fill="#231F20" d="M19.6,69.6l-0.1,0.2l-7.1-1.8c-1.4-0.5-2.6-1.3-3.7-2.3c-1-0.9-1.9-2-2.8-3.2l-1.4-3.2l-0.3-1.4
			c0-0.4,0-0.7-0.1-1c-0.1-0.3-0.1-0.6-0.1-1c0-2.2,0.5-4.5,1.6-7c1.5-3.3,3.9-5.9,7.3-7.8l2.7-1.4l1.7-0.3l0.9-0.4l2.3-0.3H25
			l2.1,0.7l4.5,3.5l0.5,1.7l0.2,1.5v2.6L32,49.6l-3.8,4.7L26.4,55l-2,0.2h-2L21.5,55l-2.3-2.1l-0.3-0.6v-2l2-2.8l0.6-0.4l0.7-0.3
			h0.5l2.3,1.6l1.4,0.3l0.9-0.3l1.3-1.3l0.3-2.4l-0.7-1.5L28,42.5L25.7,41l-3.5-0.7l-2.3,0.2L18.5,41l-3.2,1.5l-1.7,1.3
			c-0.8,0.8-1.5,1.5-2.1,2.3c-0.3,0.4-0.6,0.8-0.9,1.2c-0.3,0.4-0.6,0.9-0.8,1.4l-0.6,2.1l-0.4,6.1l0.4,1.4l1.2,2.5
			c1,1.4,2.2,2.7,3.7,3.7c1.5,1,2.7,1.6,3.8,1.8c2.3,0.7,4.2,1.1,5.8,1.2c0.8,0.1,1.7,0.1,2.5,0.1c0.8,0,1.7,0,2.6,0l2.9-0.3
			l1.3-0.3c3.4-0.5,6.8-2.6,10.2-6.3c3.5-3.7,5.3-7.2,5.5-10.4l0.3-5.6l-0.3-2.5L48.2,41l-0.5-1.4c-1.1-4-2.9-7.9-5.6-11.7
			c-2.7-3.9-4.6-7.9-5.8-12l-0.3-5.4l0.7-1.8c0.6-1.8,1.8-3.5,3.7-5.1c1.9-1.6,3.6-2.6,5.1-3l1.7-0.2l1.5-0.3c0.6,0,1.1,0,1.6-0.1
			c0.5,0,1-0.1,1.5-0.1c0.8,0,1.7,0,2.5,0.1c0.8,0.1,1.7,0.1,2.5,0.2c2.7,0.3,5.5,1.8,8.3,4.6L67,9.1l0.3,3.9L67,14l-0.2,1l-2.7,3.5
			L62,19.6l-3.1,0.3L58,19.6l-3.2-2.7l-0.4-0.5V14l1.3-2.3l1.6-0.7l1-0.2l2,1.2v0.7l1.7,1l0.8-0.3l1-1.7V8.4c-0.2-1-0.8-2-1.8-3.1
			c-1.1-1.2-2.2-2-3.1-2.5C57.6,2.3,56.3,2,55.1,2c-0.9,0-1.5,0-2,0c-0.5,0-0.9-0.1-1.3-0.2l-1.5,0.3c-1.6,0.4-3.3,1.5-5.1,3.2
			l-1.7,3L43,10.2l0.4,2.4l0.3,1.3c1.2,3,2.6,5.7,4.2,8.3c1.7,2.8,3.2,5.5,4.4,8.1v0.8l2.1,4.7l0.4,1.2l0.3,1.3l0.3,1.7l-0.3,10
			c-0.7,2.5-1.9,4.9-3.7,7.4c-1.8,2.5-3.9,4.6-6.4,6.4c-1.6,1.1-3.3,1.9-4.8,2.6c-0.7,0.3-1.5,0.6-2.2,0.9c-0.8,0.3-1.6,0.6-2.4,1
			l-1.6,0.3l-1.7,0.2l-1.5,0.5L28,69.6L20.3,70L19.6,69.6z"/>
	</g>
	<g>
		<path fill="#231F20" d="M81.2,58v-0.8c1.6-0.4,2.2-1.3,2.2-3.1V24.6h-1.9v-0.8h7.9l2.6,19.6h0.3l2.7-19.6h7.9v0.8h-1.7v32.6h1.8
			V58h-9.2v-0.8h1.9V26.7h-0.2L91.2,58h-2.4l-4.2-31.3h-0.3v27.6c0,1.9,1,2.7,2.4,2.9V58H81.2z"/>
	</g>
	<g>
		<path fill="#231F20" d="M136.1,36.4c0,8-4.9,12.2-10.8,12.2c-6.1,0-10.4-4.8-10.4-11.8c0-7.4,4.6-12.2,10.8-12.2
			C132,24.6,136.1,29.5,136.1,36.4z M118.1,36.7c0,5,2.7,9.4,7.4,9.4c4.8,0,7.4-4.4,7.4-9.6c0-4.6-2.4-9.4-7.4-9.4
			C120.5,27,118.1,31.6,118.1,36.7z"/>
	</g>
	<g>
		<path fill="#231F20" d="M154.8,13.5c1.5-0.3,3.7-0.5,5.8-0.5c3.2,0,5.3,0.6,6.7,1.9c1.2,1,1.8,2.6,1.8,4.4c0,3.1-1.9,5.1-4.4,5.9
			v0.1c1.8,0.6,2.9,2.3,3.4,4.7c0.8,3.2,1.3,5.5,1.8,6.4h-3.1c-0.4-0.7-0.9-2.7-1.6-5.5c-0.7-3.2-1.9-4.4-4.7-4.5h-2.8v10.1h-3V13.5
			z M157.8,24.1h3.1c3.2,0,5.2-1.8,5.2-4.4c0-3-2.2-4.3-5.3-4.3c-1.4,0-2.5,0.1-3,0.3V24.1z"/>
	</g>
	<g>
		<path fill="#231F20" d="M193.6,26c9.7,0,11.6,0.4,13.8,3c1.4,1.6,2,3.6,2,5.7c0,8.7-7.7,11.8-14.4,11.8c-10.2,0-13.6-4.4-13.6-7.4
			c0-5,4.7-6.9,8.3-7.8v-0.2c-3.6-0.5-7.7-1-7.7-6.1c0-3.9,4.4-5,7.1-5.5v-0.1c-3.2-1.6-5.3-4-5.3-8c0-4.5,3.2-9.8,10.2-9.8
			c4.1,0,7,1.3,8.9,4.1c0.7-1.6,2.2-4,4.5-4c1.3,0,2.8,0.6,2.8,2.4c0,1.4-0.8,2.7-2.3,2.7c-1.2,0-1.9-2.1-2.4-2.1
			c-0.7,0-1.6,1-1.6,1.7c0,0.8,1,2.6,1,4.6c0,6.7-5.7,8.7-7.2,8.9c-7,0.9-13.5,1-13.5,4.5c0,0.8,0.8,1.5,1.8,1.5H193.6z M194.4,44.9
			c12,0,12.5-6.7,12.5-7.9c0-4.2-1.3-6.2-10.3-6.2c-8.4,0-10.7,5.7-10.7,8.1C186,43.5,190.7,44.9,194.4,44.9z M189.3,11.6
			c0,3.2,0.6,7.4,4.5,7.4c5.2,0,5.5-3.7,5.5-8.1c0-3.5-0.6-7.8-4.8-7.8C191,3.1,189.3,4.8,189.3,11.6z"/>
	</g>
	<g>
		<path fill="#231F20" d="M232.3,29l-3.1,9.3h-4l10.1-29.7h4.6l10.1,29.7H246l-3.2-9.3H232.3z M242.1,26l-2.9-8.6
			c-0.7-1.9-1.1-3.7-1.5-5.4h-0.1c-0.4,1.8-0.9,3.6-1.5,5.4l-2.9,8.6H242.1z"/>
	</g>
	<g>
		<path fill="#231F20" d="M270.5,40.4l0.8-0.1c1.3,4.5,5.4,11.6,10.7,11.6c4.7,0,7.9-3.1,7.9-8.2c0-8.5-17.8-5.4-17.8-16.3
			c0-5.7,5.3-8.9,10.5-8.9c1.8,0,3.7,0.3,5.5,0.3c1.1,0,2.2-0.1,3.4-0.3c0.1,2.7,0.6,6.6,1,9.3l-0.7,0.2c-1.8-3.7-4.5-8.9-9.3-8.9
			c-3.6,0-6.3,2.2-6.3,5.4c0,8.9,17.7,4.6,17.7,16.7c0,7.7-6.3,11.2-13.3,11.2c-3.7,0-6.8-0.6-9.1-1.3L270.5,40.4z M272.9,50.8
			c1.5,0.5,3.7,0.9,5.6,0.9v-0.1c-2.4-0.9-4.7-2.9-6.4-5.3H272l0.1-0.1v0.1H272c0,1.2,0,2.4,0.1,3.5
			C272.1,50.5,272.5,50.6,272.9,50.8z M288.4,49.9L288.4,49.9c2.5-1.5,4-4.5,4-7.6c0-11.3-17.7-7.4-17.7-16.1c0-2.6,1.5-4.7,2.7-5.8
			v-0.1c-2.6,1.1-4.7,4.2-4.7,6.9c0,5.2,4.3,7.1,8.9,8.8c4.2,1.5,8.9,2.8,8.9,8.2C290.6,46.4,289.7,48.4,288.4,49.9z M289.5,19.5
			h-1.1c-0.9,0-1.7-0.2-2.6-0.3l-0.1,0.1c2,0.8,3.4,2.7,4.6,4.5l0.1-0.1L289.5,19.5z"/>
	</g>
	<g>
		<path fill="#231F20" d="M72.6,95.5v-0.8h8c5.7,0,8.2,3.3,8.2,8c0,4.2-1.7,7.4-6,8.2v0.1c4.6,1.3,6.3,4.3,6.3,9
			c0,4.4-1.6,8.9-8.9,8.9h-7.6v-0.8h1.8V95.5H72.6z M80.2,110.6h1.1c1.6,0,2-1.1,2-3.1v-9c0-2.9-0.9-3-2.4-3h-0.7V110.6z
			 M80.2,128.2h0.7c1.5,0,2.4-0.3,2.4-2.8v-10.9c0-2.5-0.8-3-2.1-3h-1V128.2z"/>
	</g>
	<g>
		<path fill="#231F20" d="M131.3,102.5c0,11.2-6.8,17.1-15.1,17.1c-8.6,0-14.6-6.7-14.6-16.5c0-10.3,6.4-17.1,15.1-17.1
			C125.6,86,131.3,92.8,131.3,102.5z M106.1,103c0,6.9,3.8,13.2,10.4,13.2c6.7,0,10.4-6.1,10.4-13.5c0-6.5-3.4-13.2-10.4-13.2
			C109.6,89.5,106.1,95.9,106.1,103z"/>
	</g>
	<g>
		<path fill="#231F20" d="M209.7,143.7l-0.1-0.1c-6.1,0-12.9-2.5-20.1-7.4c-7.2-4.9-13-11-17.4-18.4c-1.5-2.6-2.7-5.1-3.7-7.5
			c-0.5-1.2-1-2.4-1.5-3.6c-0.5-1.2-1-2.4-1.6-3.5l-0.3-1.8l-0.2-0.9l-0.4-1.4l-0.7-2.1l-4.4-1.1l-6.9,17.9l-0.3,3.4l0.3,0.7l1.8,1
			l3.1,0.4l1,0.5l-0.7,1.2h-3l-18.3,0.2l-2.1,0.3l0.7-1.7h1.4l1.7-0.2l2.1-0.8l3.1-2.8c1.4-3.2,2.7-6.4,4-9.7
			c1.3-3.2,2.5-6.4,3.7-9.6c1.2-3.2,2.4-6.4,3.5-9.6c1.2-3.2,2.4-6.4,3.6-9.5l1.1-4.2l-0.4-0.9l-2.4-1.8l-4.8-0.3l-2.4,0.3l-1.4,0.5
			l-6.3,2.8l-5.5,5.3l-0.3,3.9l0.3,1.1L138,86h2.8l2.4,0.7l0.4,0.6v1.2l-2.1,3l-1.4,0.4l-2.4,0.3l-1-0.3l-3.1-2.2l-1-2.4l-0.4-1.3
			v-3.8c0.7-2.8,2.5-5.3,5.4-7.6c2.9-2.4,5.5-3.8,7.6-4.4l2.1-0.5l1-0.5l1.4-0.2l2.1-0.5l2.5-0.2l3.1-0.3c1.1-0.1,2.2-0.1,3.3-0.1
			c1.1,0,2.2,0,3.3,0c1.2,0,2.4,0,3.6,0c1.2,0,2.4,0,3.6,0.1c4.6,0.2,9.3,2.1,14,5.7l2,2.1l1.1,1.8l0.3,1.7l0.4,2c0,0.2,0,0.3,0,0.5
			c0,0.2,0,0.3,0,0.5c0,0.9-0.1,1.8-0.3,2.7c-0.2,0.9-0.5,1.9-0.8,2.9c-0.9,2.3-2.5,4.4-4.8,6.2l-5.5,2.4l-1.4,0.3l-1.7,0.4
			l-2.2,0.3l-0.3,1.9c1.3,4.6,3.1,9.2,5.4,14c2.2,4.6,5.6,9.2,10,13.9c5.2,5.6,10.4,9.6,15.7,12c3.9,1.6,7.8,2.5,11.7,2.5l3.4-1.5
			h0.7l2.1-2.8V135l-1.4-2l1.4-2.4l0.6-0.5l0.7-0.2h1.8l3.1,1.9l0.2,1.4l0.3,2l-0.3,1.2c-0.7,1.5-1.7,2.8-3.2,3.9
			c-1.5,1.1-2.8,1.9-4,2.2l-1.8,0.4l-1,0.4l-2.7,0.4H209.7z M164.8,94.8L164.8,94.8h2.7l3-0.2l5.6-2.1l3.5-3.7
			c1.7-2.7,2.6-5.5,2.6-8.4c0-0.4,0-0.8-0.1-1.3c0-0.5-0.1-0.9-0.2-1.3l-0.4-1.3l-1-2.4l-4.8-3.5h-4.4l-2.7,1.4
			c-2.2,3.6-3.9,7.2-5,10.9c-1.1,3.7-2.4,7.5-3.9,11.3L164.8,94.8z"/>
	</g>
	<g>
		<path fill="#231F20" d="M210.8,81.7V81h6.4c6,0,9.7,1.7,10.1,15.1v5.2c0,6.6-1.2,13.8-8,13.8h-8.5v-0.8h1.8V81.7H210.8z
			 M218.4,114.4c2.3,0,3-0.8,3-2.3V85.2c0-3.1-0.8-3.4-3-3.4V114.4z"/>
	</g>
</g>
<g>
	<g>
		<path fill="#231F20" d="M54.5,180.6c0.7,0,1-0.1,1.4,0c2.2,0.5,4.4,1.3,6.6,1.4c3.3,0.1,6.6-0.6,9.9-0.7c3.2-0.1,5.6,3.2,4.8,6.3
			c-0.8,3.5-4.4,4.2-8.4,3.2c-2.7-0.7-5.4-1.2-8.2-0.6c-2,0.5-4,0.7-6.2,1.1c0.7-2.3,2.1-3.6,4.4-4.1c3.4-0.8,6.7-0.7,10,0.4
			c1.3,0.4,2.6,0.6,4,0.6c0.6,0,1.4-0.8,1.6-1.3c0.1-0.5-0.4-1.6-0.9-1.7c-1.1-0.4-2.5-0.8-3.5-0.5c-2.8,1.1-5.6,0.9-8.4,0.7
			C58.5,185,56.3,183.6,54.5,180.6 M83,186.3c-1.2-0.6-1.9-2.4-3.8-1.1c0.7,0.4,1.3,0.8,2.1,1.2c-1.2,0.7-2.3,0.9-2.5-0.5
			c-0.9-6-5.5-7.1-10.6-6.2c-3.2,0.6-6.5,0.6-9.7,0.5c-1.6-0.1-3.3-1-5.4-1.2c0.8,1.8,1.6,3.5,2.5,5.6c-0.8-0.5-1.4-0.9-2.1-1.3
			c0.1-0.2,0.2-0.4,0.2-0.6c-2.1,0.1-2.6,1.7-3,3.4c-1.8,0.1-3.5,0.3-5.3,0.4c-0.2,0-0.4-0.4-0.6-0.6l0,0c-1.7-1.4-3.8,0.3-5.6-0.4
			c-0.2-0.1-0.7,1-1.1,1.5c0.5,0.3,1.2,0.9,1.6,0.8c2-0.9,3.2,0.4,4.8,1.5c-0.8-2.5,0.8-2.5,2.3-2.3c2.2,0.3,4.6-0.3,6.1,2.1
			c0.6-0.5,1.1-0.9,1.6-1.3c0.2,0.1,0.3,0.3,0.5,0.4c-0.7,1.4-1.4,2.9-2.3,4.7c0.9-0.1,1.6-0.1,2.2-0.4c3.5-1.6,7-1.6,10.7-0.6
			c2.1,0.6,4.3,0.8,6.4,0.9c3.2,0.1,5.4-1.7,6.6-5C80.3,187.7,82.3,188.8,83,186.3C82.9,186.2,83,186.3,83,186.3"/>
		<path fill="#231F20" d="M96.8,192.7c-0.7-0.8-1.4-1.7-2.1-2.5c0.7-0.2,1.5-0.9,2-0.7C98.1,190,98,191.2,96.8,192.7 M99.1,192.9
			c-0.2-0.2-0.4-0.4-0.6-0.7c0.1-1.3,0.2-2.6,1.9-2.8c0.4,0,1,0.7,1.4,1.1C100.9,191.4,100,192.2,99.1,192.9 M106.7,189.3
			c-1.2,0.5-2.5,1-3.7,1.5c-0.2-0.2-0.4-0.4-0.6-0.6c0.5-0.8,0.9-1.9,1.6-2.3C104.9,187.4,106.2,187.5,106.7,189.3 M93.5,185.7
			c4.5-3.2,7-3,10.2,0.8C98,190.1,98.3,189.6,93.5,185.7 M83.9,186c0.7,0.6,1.3,1.4,2.1,1.9c3.5,1.8,7,3.7,10.7,5.3
			c1.2,0.5,2.9,0.2,4.2-0.3c3.5-1.3,6.9-2.9,10.2-4.4c1-0.5,1.9-1.2,3-2c-0.3-0.4-0.5-0.8-0.7-0.9c-4.5-2.4-9-4.9-13.5-7.3
			c-0.3-0.2-0.9-0.1-1.3,0c-4.7,2-9.4,3.9-14,6c-0.7,0.3-1,1.3-1.5,2c0,0-0.1-0.1-0.1-0.1C83.3,186.1,83.6,186,83.9,186
			c0.8-0.3,1.5-0.7,2.3-1c1.3-0.5,2.6-1,3.9-1.5c1.4-0.2,3.1,0.7,3.9-1.7c0.1-0.2,0.4-0.4,0.6-0.4c1.4-0.3,2.8-0.7,4.5-1
			c1.1,1.8,4.5,1,5.7,3.6c2.8-0.4,4.5,1.8,6.9,2.7c-0.8,0.7-1.6,1.2-2.5,1.5c-0.6,0.2-1.4,0.2-2.1,0.3c0.5-0.6,0.9-1.2,1.4-1.8
			c0.1-0.2,0.4-0.2,0.6-0.4c0-0.2,0-0.4,0-0.7c-1.1-0.1-2.3-0.1-3.4-0.2c-0.9-0.1-2.1-0.2-2.5-0.7c-0.8-1-1.5-1.6-2.8-1.4
			c-0.3,0.1-0.7-0.4-1.1-0.5c-0.6-0.2-1.3-0.5-1.7-0.3c-1.2,0.5-2.3,1.2-3.5,1.8c-0.7,0.3-1.3,0.6-2.1,0.7c-1.9,0.3-3.9,0.4-6.4,0.7
			c1.8,1.3,4.7-0.7,4.7,2.9c0.5-0.6,0.6-1.1,0.8-1.1c0.9,0,1.8-0.1,2.6,0.2c0.3,0.1,0.7,1.2,0.5,1.6c-0.7,1.7-1.9,0.9-3,0.3
			C88.8,188.4,86.4,187.2,83.9,186"/>
		<path fill="#231F20" d="M44.4,180.8c-0.1,1.5-0.2,2.4-0.2,3.4c1.7-1,1.4-2.5,0.9-3.9c-0.1-0.3-2-0.5-2.3-0.1
			c-1.4,1.7-3.2,2.2-5.1,2.7c-0.9,0.3-1.5,1.3-2.2,2h-3.6c-0.2-1.2-0.5-2.7-0.8-4c-1.8-0.8-3.7-1.5-5.5-2.3c-1.6,0.4-3.3,0.9-5,1.3
			c-0.4,1.7-0.9,3.6-1.4,5.5c0.8-1.9,2.2-1.6,3.7-0.9c0.1-0.1,0.2-0.3,0.3-0.4c-0.3-0.5-0.7-0.9-0.9-1.4c-0.2-0.5-0.4-1.1-0.5-1.7
			c0.6,0.2,1.3,0.3,1.8,0.6c0.4,0.2,0.6,0.8,1.3,1.7c0-1.1-0.1-1.7,0-2.2c0.2-0.5,0.7-0.8,1.1-1.2c0.2,0.4,0.6,0.8,0.7,1.2
			c0.1,0.6,0,1.2,0,1.8c1.1-0.6,2-1,3-1.5c0.2,0.2,0.4,0.5,0.6,0.7c-0.7,0.8-1.4,1.7-2.4,2.8c0.7,0.1,1.3,0.1,1.8,0.3
			c1,0.5,2.6,0.9,2.8,1.7c0.6,2.1,1.6,1.6,2.6,1.5c1.4,0.6,2.9,1.2,4.3,1.9c1.1,0.5,2,1.2,3.1,1.8c0.7,0.4,1.3,0.8,2,1.2
			c0.4-0.9,0.7-1.9,1.1-2.8c-0.2-0.1-0.4-0.1-0.6-0.2c-0.2,0.5-0.5,1.1-0.7,1.6c-0.6-0.3-1.7-0.5-1.8-1c-0.6-1.6-2-1.5-3.2-1.9
			c-1.4-0.4-2.8-0.6-2.7-2.4c0.1-1.7,1.2-2.7,3.1-2.5c0.8,0.1,1.6,0.2,1.9-1.2C41.7,182.2,43.1,181.7,44.4,180.8"/>
		<path fill="#231F20" d="M14.6,183.9c-0.8-1.1-1.9-2-4-1.9c-0.9,0-1.8-1.3-2.7-1.8c-0.7-0.4-1.7-1-2.2-0.8
			c-0.5,0.2-0.6,1.4-0.9,2.2c0.2,0.1,0.3,0.1,0.5,0.2c0.3-0.4,0.6-0.9,0.9-1.4c0.2,0.1,0.6,0.2,0.6,0.4c0.7,2,2.3,2.3,4.1,2.5
			c2.4,0.3,3,1.1,2.6,3.2c-0.1,0.6-0.7,1.5-1.1,1.5c-2.4-0.1-3.4,1.9-5.1,2.9c-0.2,0.1-0.4,0.1-0.5,0.2c-0.9-2.1,0.8-4.5,3-4.4
			c0.5,0,1,0.2,1.4,0c0.4-0.2,0.7-0.8,0.7-1.2c0-0.3-0.9-0.8-1.1-0.7c-2.1,0.9-3.6-0.1-5.2-1.8c-0.2,1-0.3,1.6-0.5,2.6
			c-1.6-0.2-3.3-0.5-5.2-0.7c-0.5,1.3-0.3,2,1.3,1.9c1.8-0.1,3.5,0,5.5,0c-0.5,1.5-1.1,2.6-1.3,3.8c-0.1,0.7,0.4,1.5,0.7,2.2
			c0.7-0.3,1.4-0.5,2.1-0.9c1.3-0.7,2.5-1.5,3.8-2.3c0.8-0.5,1.6-1.1,2.5-1.6c0.3-0.2,0.7-0.6,1-0.5c1.1,0.3,1.9,0,2.2-1.1
			c0.1-0.6,0.1-1.7-0.1-1.8C16.8,184,15.8,184.1,14.6,183.9"/>
		<path fill="#231F20" d="M26.3,188c0,0.9,0.1,1.6,0,2.2c-0.1,0.4-0.4,0.8-0.6,1.2c-0.4-0.3-1-0.5-1.2-0.9c-0.4-0.7-0.5-1.5-0.7-2.2
			c-0.3,0-0.5-0.1-0.8-0.1c-0.4,1.1-0.8,2.2-1,3c1.5,0.5,2.6,0.9,3.8,1.3c1.4-0.6,3-1.4,5-2.4c0.2-0.8,0.6-2,1-3.3
			c-1.4,0.1-2.4,0.1-3.8,0.2c0.8,0.9,1.5,1.7,2.2,2.5C28.2,190.9,27.6,188.9,26.3,188"/>
		<path fill="#231F20" d="M27.9,185.7c-1.1-0.8-1.7-1.8-2.5-1.8c-1,0-2,0.4-2,2c0.1,1.7,1.3,1.9,2.4,1.8
			C26.4,187.6,27,186.6,27.9,185.7"/>
		<path fill="#231F20" d="M45.8,188.5c0.2,0.9,0.4,1.8,0.7,2.5c0.2,0.5,0.8,1.2,1.2,1.2c0.6-0.1,1.4-0.5,1.6-1.1
			c0.2-0.4-0.3-1.3-0.7-1.6C47.7,189,46.6,188.8,45.8,188.5"/>
		<path fill="#231F20" d="M5.7,187.1c-1.5,0.5-2.6,0.7-3.6,1.2c-0.4,0.2-1,0.7-0.9,1.1c0,0.5,0.3,1.2,0.8,1.5c0.3,0.2,1.2,0,1.4-0.3
			C4.2,189.5,4.8,188.4,5.7,187.1"/>
		<path fill="#231F20" d="M45,185.9c1.2-0.6,2.3-1.2,3.4-1.9c0.4-0.3,0.8-0.9,0.8-1.4c0-0.5-0.5-1.2-0.9-1.4
			c-0.3-0.2-1.2,0.2-1.3,0.5C46.2,183.1,45.6,184.5,45,185.9L45,185.9z"/>
		<path fill="#231F20" d="M4.5,183.6c-1.5-1.1,0.3-3.6-2.3-3.4c-0.4,0-1.2,1-1.2,1.3C1.3,182.9,2.2,183.8,4.5,183.6"/>
		<path fill="#231F20" d="M20.3,190.3c0.7-1.3,1.4-2.5,2.4-4.2c-1.1,0.3-2.7,0.4-2.7,0.7C19.8,188,20.1,189.3,20.3,190.3"/>
		<path fill="#231F20" d="M73.9,189.3c-4.3-0.5-8.6-1-12.9-1.3c-1.3-0.1-2.6,0.6-3.9,1.1c4-1.1,7.8-0.6,11.7,0.4
			c1.6,0.4,3.4,0.3,5,0.5C73.9,189.7,73.9,189.5,73.9,189.3"/>
		<path fill="#231F20" d="M65.2,183.6c-2.5-0.3-5.2-0.6-7.6-0.9C58.8,184.1,62.8,184.6,65.2,183.6"/>
		<path fill="#231F20" d="M96.7,185.5c1.2,1.2,2.4,2.3,4.2,0H96.7z"/>
	</g>
	<g>
		<path fill="#231F20" d="M243.5,180.6c-1.7,3-3.9,4.4-7.1,4.6c-2.9,0.1-5.6,0.4-8.4-0.7c-1-0.4-2.4,0.1-3.5,0.5
			c-0.5,0.2-1,1.2-0.9,1.7c0.2,0.6,1,1.3,1.6,1.3c1.3,0,2.7-0.2,4-0.6c3.3-1.1,6.7-1.1,10-0.4c2.2,0.5,3.7,1.8,4.4,4.1
			c-2.2-0.4-4.2-0.6-6.2-1.1c-2.8-0.6-5.5-0.1-8.2,0.6c-4,1-7.6,0.4-8.4-3.2c-0.7-3.1,1.7-6.4,4.8-6.3c3.3,0.1,6.6,0.8,9.9,0.7
			c2.2,0,4.4-0.9,6.6-1.4C242.4,180.5,242.8,180.6,243.5,180.6 M215,186.3C215,186.3,215.1,186.2,215,186.3c0.7,2.5,2.7,1.5,4.3,1.5
			c1.2,3.4,3.4,5.1,6.6,5c2.2-0.1,4.4-0.4,6.4-0.9c3.7-1,7.2-1.1,10.7,0.6c0.6,0.3,1.3,0.2,2.2,0.4c-0.9-1.8-1.6-3.3-2.3-4.7
			c0.1-0.1,0.3-0.3,0.5-0.4c0.5,0.4,1,0.8,1.6,1.3c1.4-2.4,3.9-1.8,6.1-2.1c1.5-0.2,3.1-0.2,2.3,2.3c1.6-1.1,2.8-2.5,4.8-1.5
			c0.3,0.2,1-0.5,1.6-0.8c-0.4-0.5-0.9-1.5-1.1-1.5c-1.8,0.7-3.9-1-5.6,0.4l0,0c-0.2,0.2-0.4,0.6-0.6,0.6c-1.7-0.1-3.5-0.2-5.3-0.4
			c-0.4-1.7-0.8-3.3-3-3.4c0.1,0.2,0.2,0.4,0.2,0.6c-0.7,0.4-1.3,0.8-2.1,1.3c0.9-2.1,1.7-3.8,2.5-5.6c-2.1,0.2-3.7,1.2-5.4,1.2
			c-3.2,0.1-6.5,0-9.7-0.5c-5.2-0.9-9.8,0.2-10.6,6.2c-0.2,1.4-1.3,1.2-2.5,0.5c0.8-0.5,1.5-0.9,2.1-1.2
			C216.9,183.8,216.2,185.7,215,186.3"/>
		<path fill="#231F20" d="M201.2,192.7c-1.2-1.6-1.3-2.7,0.1-3.2c0.5-0.2,1.4,0.4,2,0.7C202.6,191.1,201.9,191.9,201.2,192.7
			 M198.9,192.9c-0.9-0.8-1.8-1.6-2.7-2.3c0.5-0.4,1-1.1,1.4-1.1c1.7,0.2,1.8,1.5,1.9,2.8C199.3,192.5,199.1,192.7,198.9,192.9
			 M191.3,189.3c0.5-1.7,1.7-1.9,2.8-1.4c0.7,0.4,1.1,1.5,1.6,2.3c-0.2,0.2-0.4,0.4-0.6,0.6C193.8,190.3,192.6,189.8,191.3,189.3
			 M204.5,185.7c-4.8,3.9-4.5,4.4-10.2,0.8C197.5,182.7,200,182.5,204.5,185.7 M214.1,186c-2.5,1.2-5,2.5-7.4,3.7
			c-1.1,0.5-2.3,1.4-3-0.3c-0.2-0.4,0.2-1.5,0.5-1.6c0.8-0.3,1.7-0.2,2.6-0.2c0.2,0,0.4,0.5,0.8,1.1c0-3.7,2.9-1.6,4.7-2.9
			c-2.4-0.3-4.4-0.4-6.4-0.7c-0.7-0.1-1.4-0.4-2.1-0.7c-1.2-0.6-2.3-1.3-3.5-1.8c-0.5-0.2-1.2,0.1-1.7,0.3c-0.4,0.1-0.8,0.5-1.1,0.5
			c-1.3-0.2-2,0.4-2.8,1.4c-0.5,0.6-1.6,0.6-2.5,0.7c-1.1,0.2-2.3,0.2-3.4,0.2c0,0.2,0,0.4,0,0.7c0.2,0.1,0.5,0.2,0.6,0.4
			c0.5,0.6,0.9,1.2,1.4,1.8c-0.7-0.1-1.4-0.1-2.1-0.3c-0.9-0.3-1.7-0.8-2.5-1.5c2.3-0.9,4.1-3.1,6.9-2.7c1.2-2.6,4.6-1.9,5.7-3.6
			c1.6,0.4,3.1,0.7,4.5,1c0.2,0.1,0.6,0.2,0.6,0.4c0.8,2.4,2.5,1.5,3.9,1.7c1.3,0.5,2.6,1,3.9,1.5
			C212.6,185.2,213.3,185.6,214.1,186c0.3,0.1,0.6,0.2,1,0.3c0,0-0.1,0.1-0.1,0.1c-0.5-0.7-0.9-1.7-1.5-2c-4.6-2.1-9.3-4.1-14-6
			c-0.4-0.2-1-0.2-1.3,0c-4.5,2.4-9,4.8-13.5,7.3c-0.3,0.2-0.5,0.6-0.7,0.9c1.1,0.7,2,1.5,3,2c3.4,1.5,6.8,3.1,10.2,4.4
			c1.3,0.5,3.1,0.8,4.2,0.3c3.7-1.5,7.2-3.4,10.7-5.3C212.9,187.4,213.4,186.6,214.1,186"/>
		<path fill="#231F20" d="M253.6,180.8c1.3,0.9,2.7,1.3,2.8,2.1c0.3,1.4,1.1,1.2,1.9,1.2c1.9-0.1,2.9,0.8,3.1,2.5
			c0.2,1.8-1.3,2.1-2.7,2.4c-1.2,0.3-2.6,0.2-3.2,1.9c-0.2,0.5-1.2,0.7-1.8,1c-0.2-0.5-0.5-1.1-0.7-1.6c-0.2,0.1-0.4,0.1-0.6,0.2
			c0.4,0.9,0.7,1.9,1.1,2.8c0.7-0.4,1.3-0.8,2-1.2c1-0.6,2-1.3,3.1-1.8c1.4-0.7,2.9-1.3,4.3-1.9c1,0.1,2,0.6,2.6-1.5
			c0.2-0.8,1.8-1.2,2.8-1.7c0.5-0.2,1.1-0.2,1.8-0.3c-0.9-1.1-1.7-1.9-2.4-2.8c0.2-0.2,0.4-0.5,0.6-0.7c1,0.5,1.9,1,3,1.5
			c0-0.6-0.1-1.2,0-1.8c0.1-0.4,0.4-0.8,0.7-1.2c0.4,0.4,0.9,0.7,1.1,1.2c0.2,0.5,0,1.1,0,2.2c0.7-0.9,0.9-1.4,1.3-1.7
			c0.5-0.3,1.2-0.4,1.8-0.6c-0.2,0.6-0.3,1.2-0.5,1.7c-0.2,0.5-0.6,0.9-0.9,1.4c0.1,0.1,0.2,0.3,0.3,0.4c1.5-0.7,2.9-1,3.7,0.9
			c-0.5-1.9-1-3.8-1.4-5.5c-1.7-0.4-3.4-0.9-5-1.3c-1.8,0.8-3.7,1.5-5.5,2.3c-0.3,1.3-0.6,2.8-0.8,4h-3.6c-0.7-0.7-1.3-1.8-2.2-2
			c-1.9-0.6-3.7-1.1-5.1-2.7c-0.3-0.4-2.2-0.2-2.3,0.1c-0.5,1.4-0.9,3,0.9,3.9C253.8,183.3,253.7,182.3,253.6,180.8"/>
		<path fill="#231F20" d="M283.4,183.9c-1.2,0.1-2.1,0.1-2.9,0.4c-0.3,0.1-0.3,1.2-0.1,1.8c0.3,1.2,1.1,1.4,2.2,1.1
			c0.3-0.1,0.7,0.3,1,0.5c0.8,0.5,1.6,1.1,2.5,1.6c1.3,0.8,2.5,1.6,3.8,2.3c0.7,0.4,1.4,0.6,2.1,0.9c0.3-0.7,0.8-1.5,0.7-2.2
			c-0.2-1.2-0.8-2.4-1.3-3.8c2,0,3.7-0.1,5.5,0c1.6,0.1,1.8-0.6,1.3-1.9c-1.8,0.3-3.5,0.5-5.2,0.7c-0.2-0.9-0.3-1.6-0.5-2.6
			c-1.6,1.8-3.1,2.7-5.2,1.8c-0.2-0.1-1.1,0.4-1.1,0.7c0,0.4,0.3,1,0.7,1.2c0.3,0.2,0.9,0,1.4,0c2.3,0,3.9,2.4,3,4.4
			c-0.2-0.1-0.4-0.1-0.5-0.2c-1.7-1-2.7-3-5.1-2.9c-0.4,0-1-0.9-1.1-1.5c-0.4-2,0.2-2.8,2.6-3.2c1.8-0.2,3.4-0.5,4.1-2.5
			c0.1-0.2,0.4-0.3,0.6-0.4c0.4,0.5,0.6,1,0.9,1.4c0.2-0.1,0.3-0.1,0.5-0.2c-0.3-0.8-0.4-1.9-0.9-2.2c-0.5-0.2-1.5,0.4-2.2,0.8
			c-1,0.6-1.9,1.9-2.7,1.8C285.3,181.9,284.2,182.8,283.4,183.9"/>
		<path fill="#231F20" d="M271.7,188c-1.3,0.9-1.9,2.9-3.9,1.5c0.7-0.8,1.4-1.5,2.2-2.5c-1.3-0.1-2.4-0.1-3.8-0.2
			c0.4,1.4,0.7,2.5,1,3.3c2,0.9,3.7,1.7,5,2.4c1.2-0.4,2.3-0.8,3.8-1.3c-0.3-0.8-0.7-1.9-1-3c-0.3,0-0.5,0.1-0.8,0.1
			c-0.2,0.7-0.4,1.5-0.7,2.2c-0.2,0.4-0.8,0.6-1.2,0.9c-0.2-0.4-0.5-0.8-0.6-1.2C271.6,189.5,271.7,188.9,271.7,188"/>
		<path fill="#231F20" d="M270.1,185.7c0.9,0.9,1.5,1.9,2.1,1.9c1.1,0,2.3-0.1,2.4-1.8c0.1-1.5-1-2-2-2
			C271.8,183.9,271.2,184.8,270.1,185.7"/>
		<path fill="#231F20" d="M252.2,188.5c-0.9,0.3-1.9,0.5-2.8,1c-0.4,0.3-0.9,1.2-0.7,1.6c0.2,0.5,1,1,1.6,1.1c0.4,0,1-0.7,1.2-1.2
			C251.9,190.3,252,189.4,252.2,188.5"/>
		<path fill="#231F20" d="M292.3,187.1c0.9,1.3,1.5,2.5,2.3,3.4c0.3,0.3,1.1,0.5,1.4,0.3c0.4-0.3,0.8-1,0.8-1.5
			c0-0.4-0.5-0.9-0.9-1.1C294.9,187.8,293.8,187.5,292.3,187.1"/>
		<path fill="#231F20" d="M253,186c-0.6-1.4-1.2-2.9-2-4.3c-0.2-0.3-1.1-0.6-1.3-0.5c-0.4,0.3-0.9,0.9-0.9,1.4
			c0,0.5,0.4,1.1,0.8,1.4C250.7,184.8,251.9,185.3,253,186L253,186z"/>
		<path fill="#231F20" d="M293.6,183.6c2.2,0.2,3.1-0.7,3.5-2.1c0.1-0.3-0.7-1.3-1.2-1.3C293.2,180,295,182.5,293.6,183.6"/>
		<path fill="#231F20" d="M277.8,190.3c0.1-1,0.5-2.3,0.4-3.5c0-0.3-1.7-0.4-2.7-0.7C276.3,187.7,277,189,277.8,190.3"/>
		<path fill="#231F20" d="M224.1,189.3c0,0.2,0,0.4,0,0.6c1.7-0.1,3.4-0.1,5-0.5c3.9-1,7.8-1.4,11.7-0.4c-1.3-0.6-2.6-1.2-3.9-1.1
			C232.7,188.2,228.4,188.8,224.1,189.3"/>
		<path fill="#231F20" d="M232.8,183.6c2.4,1,6.3,0.5,7.6-0.9C238,183,235.3,183.3,232.8,183.6"/>
		<path fill="#231F20" d="M197.1,185.5c1.8,2.3,3,1.2,4.2,0H197.1z"/>
	</g>
</g>
<g>
	<path d="M132.4,169.2h2.2v3.2c2,0.4,3.8,1.6,5,3.3l-2.7,2.3c-0.5-0.9-1.2-1.8-2.3-2.1v7.5c3.1,1.9,5.8,4,5.8,8c0,3.6-2.1,6.7-5.8,7
		v4.2h-2.2v-4.2c-2.5-0.3-4.5-2.1-5.8-4.1l3-2.3c0.5,1.3,1.4,2.5,2.8,2.9v-8.5c-2.8-1.7-5.5-3.9-5.5-7.4c0-3.3,1.9-6.2,5.5-6.7
		V169.2z M132.4,175.9c-1.1,0.4-1.8,1.4-1.8,2.7c0,1.6,0.7,2.6,1.8,3.6V175.9z M134.6,194.9c1.5-0.6,2-1.7,2-3.3
		c0-1.8-0.8-2.7-2-3.7V194.9z"/>
	<path d="M149.9,192.1h-7.8v-3.3l7.6-16.4h4.3v16.4h2.4v3.3H154v6.3h-4.1V192.1z M149.9,188.7v-10.2h-0.1l-4.4,10.2H149.9z"/>
	<path d="M163.3,190.8v2.1c0,1.4,0.8,2.3,2,2.3c1.4,0,2.2-0.8,2.2-3.2v-5.9c0-1.7-0.9-2.4-1.9-2.4c-1.4,0-2,0.9-2.4,2h-3.5
		c0.1-4,0.3-7.2,0.3-13.4h10.8l-0.1,3.7h-7l-0.3,5.6l0.1,0.1c1.1-1.3,2.1-1.5,3.4-1.5c3.4,0,4.8,2.5,4.8,6.8v3.6
		c0,5.5-1.7,8.1-6,8.1c-3.6,0-6.4-1.6-6.4-5.9v-2H163.3z"/>
</g>
<g>
	<path d="M58,245.7c-0.1-0.4-0.3-1-0.4-1.2c-0.7,0.9-2,1.6-3.2,1.6c-3,0-5.4-2.5-5.4-5.6c0-3,2.4-5.6,5.4-5.6c1.2,0,2.4,0.7,3.2,1.6
		c0.2-0.2,0.3-0.8,0.4-1.2h0.5v4.2H58c-0.5-2.2-1.7-3.6-3.6-3.6c-2.7,0-3.5,2.7-3.5,4.7c0,2,0.8,4.7,3.5,4.7c1.8,0,3.1-1.4,3.6-3.6
		h0.5v4.2H58z"/>
	<path d="M70.2,239.7v-1.2c0-2.4-0.3-2.8-1.9-2.8v-0.5h5.5v0.5c-1.6,0-1.9,0.4-1.9,2.8v3.8c0,2.4,0.3,2.8,1.9,2.8v0.5h-5.5v-0.5
		c1.6,0,1.9-0.4,1.9-2.8v-1.8h-5.4v1.8c0,2.4,0.3,2.8,1.9,2.8v0.5h-5.5v-0.5c1.6,0,1.9-0.4,1.9-2.8v-3.8c0-2.4-0.3-2.8-1.9-2.8v-0.5
		h5.5v0.5c-1.6,0-1.9,0.4-1.9,2.8v1.2H70.2z"/>
	<path d="M84.6,243.2l0.1-0.5h0.5l-0.2,2.9h-9v-0.5c1.6,0,1.9-0.4,1.9-2.8v-3.8c0-2.4-0.3-2.8-1.9-2.8v-0.5h5.3h3.1l0.2,2.9h-0.5
		l-0.1-0.5c-0.3-1.1-0.6-1.5-2.8-1.5h-1.6v3.6h0.1c2.4,0,2.6-0.3,2.6-1.9h0.5v4.7h-0.5c0-1.6-0.2-1.9-2.6-1.9h-0.1v1.4
		c0,2.4,0.3,2.8,1.9,2.8h0.3C84,244.8,84.3,244.4,84.6,243.2z"/>
	<path d="M92.9,245.2v0.5h-5.5v-0.5c1.6,0,1.9-0.4,1.9-2.8v-3.8c0-2.4-0.3-2.8-1.9-2.8v-0.5H93h3.1l0.2,2.9h-0.5l-0.1-0.5
		c-0.3-1.1-0.6-1.5-2.8-1.5H91v3.6h0.1c2.4,0,2.6-0.3,2.6-1.9h0.5v4.7h-0.5c0-1.6-0.2-1.9-2.6-1.9H91v1.8
		C91,244.8,91.3,245.2,92.9,245.2z"/>
	<path d="M99.7,233.2c-0.6,0-1.1-0.6-1.1-1.2c0-0.6,0.5-1.2,1.1-1.2s1.3,0.5,1.3,1.5c0,1.1-0.7,2.7-2.2,3.6l-0.3-0.3
		c0.9-0.9,1.2-1.6,1.4-2.6C99.8,233.2,99.7,233.2,99.7,233.2z"/>
	<path d="M107.8,246.1c-1.2,0-2.3-0.6-2.7-0.9c-0.1,0.2-0.4,0.5-0.5,0.9h-0.4v-4.1h0.5c0.2,2,1.5,3.2,3.3,3.2c1,0,1.8-0.6,1.8-1.6
		c0-0.8-0.7-1.5-2-2.1l-1.6-0.8c-1.2-0.6-2-1.6-2-2.9c0-1.5,1.3-2.7,3-2.7c1,0,1.8,0.4,2.3,0.7c0.1-0.1,0.3-0.4,0.4-0.7h0.5v4.1
		h-0.5c-0.1-1.4-0.8-3.1-2.5-3.1c-0.9,0-1.7,0.5-1.7,1.4c0,0.8,0.6,1.3,2.1,2.1l1.6,0.8c1.4,0.7,1.9,1.8,1.9,2.7
		C111.2,244.8,109.7,246.1,107.8,246.1z"/>
	<path d="M123,246.1c-1.2,0-2.3-0.6-2.7-0.9c-0.1,0.2-0.4,0.5-0.5,0.9h-0.4v-4.1h0.5c0.2,2,1.5,3.2,3.3,3.2c1,0,1.8-0.6,1.8-1.6
		c0-0.8-0.7-1.5-2-2.1l-1.6-0.8c-1.2-0.6-2-1.6-2-2.9c0-1.5,1.3-2.7,3-2.7c1,0,1.8,0.4,2.3,0.7c0.1-0.1,0.3-0.4,0.4-0.7h0.5v4.1H125
		c-0.1-1.4-0.8-3.1-2.5-3.1c-0.9,0-1.7,0.5-1.7,1.4c0,0.8,0.6,1.3,2.1,2.1l1.6,0.8c1.4,0.7,1.9,1.8,1.9,2.7
		C126.4,244.8,124.8,246.1,123,246.1z"/>
	<path d="M137.1,243.2l0.1-0.5h0.5l-0.2,2.9h-9v-0.5c1.6,0,1.9-0.4,1.9-2.8v-3.8c0-2.4-0.3-2.8-1.9-2.8v-0.5h5.3h3.1l0.2,2.9h-0.5
		l-0.1-0.5c-0.3-1.1-0.6-1.5-2.8-1.5h-1.6v3.6h0.1c2.4,0,2.6-0.3,2.6-1.9h0.5v4.7h-0.5c0-1.6-0.2-1.9-2.6-1.9h-0.1v1.4
		c0,2.4,0.3,2.8,1.9,2.8h0.3C136.5,244.8,136.8,244.4,137.1,243.2z"/>
	<path d="M139.9,235.8v-0.5h5.5v0.5c-1.6,0-1.9,0.4-1.9,2.8v3.5c0,2.4,0.3,2.8,1.9,2.8h0.8c2.2,0,2.5-0.4,2.8-1.5l0.1-0.5h0.5
		l-0.2,2.9h-9.6v-0.5c1.6,0,1.9-0.4,1.9-2.8v-3.8C141.8,236.1,141.6,235.8,139.9,235.8z"/>
	<path d="M159.1,243.2l0.1-0.5h0.5l-0.2,2.9h-9v-0.5c1.6,0,1.9-0.4,1.9-2.8v-3.8c0-2.4-0.3-2.8-1.9-2.8v-0.5h5.3h3.1l0.2,2.9h-0.5
		l-0.1-0.5c-0.3-1.1-0.6-1.5-2.8-1.5h-1.6v3.6h0.1c2.4,0,2.6-0.3,2.6-1.9h0.5v4.7h-0.5c0-1.6-0.2-1.9-2.6-1.9h-0.1v1.4
		c0,2.4,0.3,2.8,1.9,2.8h0.3C158.5,244.8,158.9,244.4,159.1,243.2z"/>
	<path d="M171.3,245.7c-0.1-0.4-0.3-1-0.4-1.2c-0.7,0.9-2,1.6-3.2,1.6c-3,0-5.4-2.5-5.4-5.6c0-3,2.4-5.6,5.4-5.6
		c1.2,0,2.4,0.7,3.2,1.6c0.2-0.2,0.3-0.8,0.4-1.2h0.5v4.2h-0.5c-0.5-2.2-1.7-3.6-3.6-3.6c-2.7,0-3.5,2.7-3.5,4.7
		c0,2,0.8,4.7,3.5,4.7c1.8,0,3.1-1.4,3.6-3.6h0.5v4.2H171.3z"/>
	<path d="M176.6,236.2c-2.2,0-2.4,0.4-2.7,1.5l-0.1,0.5h-0.5l0.1-3h10.7l0.2,3h-0.5l-0.1-0.5c-0.3-1.1-0.6-1.5-2.8-1.5h-1.2v6.2
		c0,2.4,0.3,2.8,1.9,2.8v0.5h-5.5v-0.5c1.6,0,1.9-0.4,1.9-2.8v-6.2H176.6z"/>
	<path d="M185.5,245.7v-0.5c1.6,0,1.9-0.4,1.9-2.8v-3.8c0-2.4-0.3-2.8-1.9-2.8v-0.5h5.5v0.5c-1.6,0-1.9,0.4-1.9,2.8v3.8
		c0,2.4,0.3,2.8,1.9,2.8v0.5H185.5z"/>
	<path d="M199.4,246.1c-3.2,0-5.9-2.5-5.9-5.6c0-3,2.6-5.6,5.9-5.6s5.9,2.5,5.9,5.6C205.2,243.6,202.6,246.1,199.4,246.1z
		 M199.4,235.8c-2.8,0-3.9,2.6-3.9,4.7c0,2.1,1.1,4.7,3.9,4.7s3.9-2.6,3.9-4.7C203.3,238.4,202.2,235.8,199.4,235.8z"/>
	<path d="M207.7,235.8v-0.5h3l6.4,7.6v-4.3c0-2.4-0.3-2.8-1.9-2.8v-0.5h4.7v0.5c-1.6,0-1.9,0.4-1.9,2.8v7.5h-0.5l-7-8.4v4.7
		c0,2.4,0.3,2.8,1.9,2.8v0.5h-4.7v-0.5c1.6,0,1.9-0.4,1.9-2.8v-3.8C209.6,236.1,209.3,235.8,207.7,235.8z"/>
	<path d="M233.7,246.1c-3.2,0-5.9-2.5-5.9-5.6c0-3,2.6-5.6,5.9-5.6s5.9,2.5,5.9,5.6C239.6,243.6,237,246.1,233.7,246.1z
		 M233.7,235.8c-2.8,0-3.9,2.6-3.9,4.7c0,2.1,1.1,4.7,3.9,4.7s3.9-2.6,3.9-4.7C237.6,238.4,236.6,235.8,233.7,235.8z"/>
	<path d="M247.6,245.2v0.5h-5.5v-0.5c1.6,0,1.9-0.4,1.9-2.8v-3.8c0-2.4-0.3-2.8-1.9-2.8v-0.5h5.6h3.1l0.2,2.9h-0.5l-0.1-0.5
		c-0.3-1.1-0.6-1.5-2.8-1.5h-1.9v3.6h0.1c2.4,0,2.6-0.3,2.6-1.9h0.5v4.7h-0.5c0-1.6-0.2-1.9-2.6-1.9h-0.1v1.8
		C245.7,244.8,246,245.2,247.6,245.2z"/>
	<path d="M40.8,268.7c-0.1-0.4-0.3-1-0.4-1.2c-0.7,0.9-2,1.6-3.2,1.6c-3,0-5.4-2.5-5.4-5.6c0-3,2.4-5.6,5.4-5.6
		c1.2,0,2.4,0.7,3.2,1.6c0.2-0.2,0.3-0.8,0.4-1.2h0.5v4.2h-0.5c-0.5-2.2-1.7-3.6-3.6-3.6c-2.7,0-3.5,2.7-3.5,4.7
		c0,2,0.8,4.7,3.5,4.7c1.8,0,3.1-1.4,3.6-3.6h0.5v4.2H40.8z"/>
	<path d="M52.9,262.7v-1.2c0-2.4-0.3-2.8-1.9-2.8v-0.5h5.5v0.5c-1.6,0-1.9,0.4-1.9,2.8v3.8c0,2.4,0.3,2.8,1.9,2.8v0.5H51v-0.5
		c1.6,0,1.9-0.4,1.9-2.8v-1.8h-5.4v1.8c0,2.4,0.3,2.8,1.9,2.8v0.5h-5.5v-0.5c1.6,0,1.9-0.4,1.9-2.8v-3.8c0-2.4-0.3-2.8-1.9-2.8v-0.5
		h5.5v0.5c-1.6,0-1.9,0.4-1.9,2.8v1.2H52.9z"/>
	<path d="M67.3,266.2l0.1-0.5h0.5l-0.2,2.9h-9v-0.5c1.6,0,1.9-0.4,1.9-2.8v-3.8c0-2.4-0.3-2.8-1.9-2.8v-0.5h5.3h3.1l0.2,2.9h-0.5
		l-0.1-0.5c-0.3-1.1-0.6-1.5-2.8-1.5h-1.6v3.6h0.1c2.4,0,2.6-0.3,2.6-1.9h0.5v4.7h-0.5c0-1.6-0.2-1.9-2.6-1.9h-0.1v1.4
		c0,2.4,0.3,2.8,1.9,2.8h0.3C66.7,267.8,67,267.4,67.3,266.2z"/>
	<path d="M78.7,266.2l0.1-0.5h0.5l-0.2,2.9h-9v-0.5c1.6,0,1.9-0.4,1.9-2.8v-3.8c0-2.4-0.3-2.8-1.9-2.8v-0.5h5.3h3.1l0.2,2.9h-0.5
		l-0.1-0.5c-0.3-1.1-0.6-1.5-2.8-1.5h-1.6v3.6h0.1c2.4,0,2.6-0.3,2.6-1.9H77v4.7h-0.5c0-1.6-0.2-1.9-2.6-1.9h-0.1v1.4
		c0,2.4,0.3,2.8,1.9,2.8h0.3C78.1,267.8,78.4,267.4,78.7,266.2z"/>
	<path d="M85.5,269.1c-1.2,0-2.3-0.6-2.7-0.9c-0.1,0.2-0.4,0.5-0.5,0.9h-0.4v-4.1h0.5c0.2,2,1.5,3.2,3.3,3.2c1,0,1.8-0.6,1.8-1.6
		c0-0.8-0.7-1.5-2-2.1l-1.6-0.8c-1.2-0.6-2-1.6-2-2.9c0-1.5,1.3-2.7,3-2.7c1,0,1.8,0.4,2.3,0.7c0.1-0.1,0.3-0.4,0.4-0.7h0.5v4.1
		h-0.5c-0.1-1.4-0.8-3.1-2.5-3.1c-0.9,0-1.7,0.5-1.7,1.4c0,0.8,0.6,1.3,2.1,2.1l1.6,0.8c1.4,0.7,1.9,1.8,1.9,2.7
		C88.9,267.8,87.4,269.1,85.5,269.1z"/>
	<path d="M99.7,266.2l0.1-0.5h0.5l-0.2,2.9h-9v-0.5c1.6,0,1.9-0.4,1.9-2.8v-3.8c0-2.4-0.3-2.8-1.9-2.8v-0.5h5.3h3.1l0.2,2.9h-0.5
		l-0.1-0.5c-0.3-1.1-0.6-1.5-2.8-1.5h-1.6v3.6h0.1c2.4,0,2.6-0.3,2.6-1.9h0.5v4.7h-0.5c0-1.6-0.2-1.9-2.6-1.9h-0.1v1.4
		c0,2.4,0.3,2.8,1.9,2.8h0.3C99.1,267.8,99.4,267.4,99.7,266.2z"/>
	<path d="M106.5,269.1c-1.2,0-2.3-0.6-2.7-0.9c-0.1,0.2-0.4,0.5-0.5,0.9h-0.4v-4.1h0.5c0.2,2,1.5,3.2,3.3,3.2c1,0,1.8-0.6,1.8-1.6
		c0-0.8-0.7-1.5-2-2.1l-1.6-0.8c-1.2-0.6-2-1.6-2-2.9c0-1.5,1.3-2.7,3-2.7c1,0,1.8,0.4,2.3,0.7c0.1-0.1,0.3-0.4,0.4-0.7h0.5v4.1
		h-0.5c-0.1-1.4-0.8-3.1-2.5-3.1c-0.9,0-1.7,0.5-1.7,1.4c0,0.8,0.6,1.3,2.1,2.1l1.6,0.8c1.4,0.7,1.9,1.8,1.9,2.7
		C109.9,267.8,108.3,269.1,106.5,269.1z"/>
	<path d="M122.8,269.1c-2.3,0-4.7-1.3-4.7-4.2c0-1.9,1.2-3,2.7-4c-0.8-1.3-1.3-2.5-1.3-3.6c0-2,1.8-3.5,4-3.5c1.8,0,3.4,1.1,3.4,2.8
		c0,2.1-2.4,2.9-4.3,4.2c0.9,1.3,2.2,2.8,3.9,4.7c0.2-0.5,0.3-0.9,0.3-1.4c0.2-1.8-0.1-2.2-2.1-2.2v-0.5h5.4v0.5
		c-2,0-2.3,0.5-2.5,2.2c-0.1,0.8-0.3,1.5-0.6,2.1c0.9,1.1,2,1.9,2.9,1.9c0.4,0,1-0.2,1.6-0.8l0.4,0.4c-0.7,0.9-1.6,1.4-2.4,1.4
		c-1.3,0-2.3-0.7-3.2-1.6C125.5,268.5,124.4,269.1,122.8,269.1z M121.4,261.8c-0.9,0.8-1.6,1.7-1.6,3.3c0,1.6,1.3,3.1,3.2,3.1
		c1.2,0,2.2-0.5,2.8-1.3C124.1,265,122.5,263.3,121.4,261.8z M125.4,256.6c0-1.1-0.8-1.8-1.9-1.8c-1.5,0-2.3,1.2-2.3,2.1
		c0,1.1,0.3,2.1,0.9,3.2C123.8,259.1,125.4,258.3,125.4,256.6z"/>
	<path d="M148.3,268.7c-0.1-0.4-0.3-1-0.4-1.2c-0.7,0.9-2,1.6-3.2,1.6c-3,0-5.4-2.5-5.4-5.6c0-3,2.4-5.6,5.4-5.6
		c1.2,0,2.4,0.7,3.2,1.6c0.2-0.2,0.3-0.8,0.4-1.2h0.5v4.2h-0.5c-0.5-2.2-1.7-3.6-3.6-3.6c-2.7,0-3.5,2.7-3.5,4.7
		c0,2,0.8,4.7,3.5,4.7c1.8,0,3.1-1.4,3.6-3.6h0.5v4.2H148.3z"/>
	<path d="M160.5,262.7v-1.2c0-2.4-0.3-2.8-1.9-2.8v-0.5h5.5v0.5c-1.6,0-1.9,0.4-1.9,2.8v3.8c0,2.4,0.3,2.8,1.9,2.8v0.5h-5.5v-0.5
		c1.6,0,1.9-0.4,1.9-2.8v-1.8H155v1.8c0,2.4,0.3,2.8,1.9,2.8v0.5h-5.5v-0.5c1.6,0,1.9-0.4,1.9-2.8v-3.8c0-2.4-0.3-2.8-1.9-2.8v-0.5
		h5.5v0.5c-1.6,0-1.9,0.4-1.9,2.8v1.2H160.5z"/>
	<path d="M168.5,266.3c-0.6,1.4-0.6,1.8,1.3,1.8v0.5h-4.5v-0.5c1.5,0,1.7-0.3,2.5-2.1l3.5-8.2h0.3l3.5,8.2c0.8,1.8,1.1,2.1,2.4,2.1
		v0.5h-5.4v-0.5c1.7,0,1.9-0.4,1.3-1.8l-0.5-1.1H169L168.5,266.3z M171,260.7l-1.6,3.7h3.2L171,260.7z"/>
	<path d="M186,266c1,1.1,2.1,2.1,3.2,2.2v0.5h-3.1l-3.3-4.5h-0.7v1.2c0,2.4,0.3,2.8,1.9,2.8v0.5h-5.5v-0.5c1.6,0,1.9-0.4,1.9-2.8
		v-3.8c0-2.4-0.3-2.8-1.9-2.8v-0.5h5c2.5,0,3.8,1.3,3.8,3c0,1.5-1.1,2.7-2.9,2.9L186,266z M183.6,259.1h-1.4v4.2h1.4
		c1.3,0,2-0.9,2-2.1C185.6,260.1,184.9,259.1,183.6,259.1z"/>
	<path d="M199.6,268.7c-0.1-0.4-0.3-1-0.4-1.2c-0.7,0.9-2,1.6-3.2,1.6c-3,0-5.4-2.5-5.4-5.6c0-3,2.4-5.6,5.4-5.6
		c1.2,0,2.4,0.7,3.2,1.6c0.2-0.2,0.3-0.8,0.4-1.2h0.5v4.2h-0.5c-0.5-2.2-1.7-3.6-3.6-3.6c-2.7,0-3.5,2.7-3.5,4.7
		c0,2,0.8,4.7,3.5,4.7c1.8,0,3.1-1.4,3.6-3.6h0.5v4.2H199.6z"/>
	<path d="M208.7,268c1.7,0,2.9-1,2.9-3v-3.4c0-2.4-0.3-2.8-1.9-2.8v-0.5h4.9v0.5c-1.6,0-1.9,0.4-1.9,2.8v3.2c0,2.8-1.9,4.3-4.3,4.3
		c-2.4,0-4.3-1.5-4.3-4.3v-3.2c0-2.4-0.3-2.8-1.9-2.8v-0.5h5.5v0.5c-1.6,0-1.9,0.4-1.9,2.8v3.4C205.9,267,207,268,208.7,268z"/>
	<path d="M218.7,259.2c-2.2,0-2.4,0.4-2.7,1.5l-0.1,0.5h-0.5l0.1-3h10.7l0.2,3h-0.5l-0.1-0.5c-0.3-1.1-0.6-1.5-2.8-1.5h-1.2v6.2
		c0,2.4,0.3,2.8,1.9,2.8v0.5h-5.5v-0.5c1.6,0,1.9-0.4,1.9-2.8v-6.2H218.7z"/>
	<path d="M236.1,266.2l0.1-0.5h0.5l-0.2,2.9h-9v-0.5c1.6,0,1.9-0.4,1.9-2.8v-3.8c0-2.4-0.3-2.8-1.9-2.8v-0.5h5.3h3.1l0.2,2.9h-0.5
		l-0.1-0.5c-0.3-1.1-0.6-1.5-2.8-1.5h-1.6v3.6h0.1c2.4,0,2.6-0.3,2.6-1.9h0.5v4.7h-0.5c0-1.6-0.2-1.9-2.6-1.9h-0.1v1.4
		c0,2.4,0.3,2.8,1.9,2.8h0.3C235.5,267.8,235.9,267.4,236.1,266.2z"/>
	<path d="M246.4,266c1,1.1,2.1,2.1,3.2,2.2v0.5h-3.1l-3.3-4.5h-0.7v1.2c0,2.4,0.3,2.8,1.9,2.8v0.5H239v-0.5c1.6,0,1.9-0.4,1.9-2.8
		v-3.8c0-2.4-0.3-2.8-1.9-2.8v-0.5h5c2.5,0,3.8,1.3,3.8,3c0,1.5-1.1,2.7-2.9,2.9L246.4,266z M243.9,259.1h-1.4v4.2h1.4
		c1.3,0,2-0.9,2-2.1C245.9,260.1,245.3,259.1,243.9,259.1z"/>
	<path d="M250.6,268.7v-0.5c1.6,0,1.9-0.4,1.9-2.8v-3.8c0-2.4-0.3-2.8-1.9-2.8v-0.5h5.5v0.5c-1.6,0-1.9,0.4-1.9,2.8v3.8
		c0,2.4,0.3,2.8,1.9,2.8v0.5H250.6z"/>
	<path d="M266.9,266.2l0.1-0.5h0.5l-0.2,2.9h-9v-0.5c1.6,0,1.9-0.4,1.9-2.8v-3.8c0-2.4-0.3-2.8-1.9-2.8v-0.5h5.3h3.1l0.2,2.9h-0.5
		l-0.1-0.5c-0.3-1.1-0.6-1.5-2.8-1.5h-1.6v3.6h0.1c2.4,0,2.6-0.3,2.6-1.9h0.5v4.7h-0.5c0-1.6-0.2-1.9-2.6-1.9h-0.1v1.4
		c0,2.4,0.3,2.8,1.9,2.8h0.3C266.3,267.8,266.6,267.4,266.9,266.2z"/>
</g>
</svg>
