<?xml version="1.0" encoding="utf-8"?>
<!-- Generator: Adobe Illustrator 16.0.0, SVG Export Plug-In . SVG Version: 6.00 Build 0)  -->
<!DOCTYPE svg PUBLIC "-//W3C//DTD SVG 1.1//EN" "http://www.w3.org/Graphics/SVG/1.1/DTD/svg11.dtd">
<svg version="1.1" id="Layer_1" xmlns="http://www.w3.org/2000/svg" xmlns:xlink="http://www.w3.org/1999/xlink" x="0px" y="0px"
	 width="44.527px" height="18.252px" viewBox="0.324 2.604 44.527 18.252" enable-background="new 0.324 2.604 44.527 18.252"
	 xml:space="preserve">
<path fill="#003B3B" d="M22.426,4.876c-0.812,0.361-1.688,0.604-2.604,0.714c0.936-0.561,1.654-1.45,1.992-2.509
	c-0.875,0.52-1.846,0.897-2.879,1.101c-0.826-0.881-2.006-1.432-3.31-1.432c-2.504,0-4.534,2.03-4.534,4.534
	c0,0.355,0.041,0.702,0.118,1.034C7.441,8.128,4.1,6.323,1.863,3.58c-0.39,0.67-0.614,1.449-0.614,2.28
	c0,1.573,0.8,2.961,2.017,3.774C2.523,9.61,1.824,9.406,1.212,9.066c0,0.019,0,0.038,0,0.057c0,2.197,1.562,4.03,3.637,4.446
	c-0.38,0.104-0.78,0.158-1.194,0.158c-0.292,0-0.576-0.027-0.854-0.08c0.577,1.801,2.252,3.111,4.236,3.148
	c-1.552,1.215-3.507,1.939-5.631,1.939c-0.366,0-0.728-0.021-1.082-0.062c2.007,1.287,4.391,2.037,6.951,2.037
	c8.341,0,12.9-6.908,12.9-12.9c0-0.197-0.004-0.393-0.013-0.586C21.049,6.584,21.818,5.785,22.426,4.876z"/>
<path fill="#ED1C24" d="M44.852,4.876c-0.812,0.361-1.688,0.604-2.604,0.714c0.936-0.561,1.654-1.45,1.992-2.509
	c-0.875,0.52-1.846,0.897-2.879,1.101c-0.826-0.881-2.006-1.432-3.31-1.432c-2.504,0-4.534,2.03-4.534,4.534
	c0,0.355,0.041,0.702,0.118,1.034c-3.769-0.19-7.11-1.995-9.347-4.738c-0.391,0.67-0.614,1.449-0.614,2.28
	c0,1.573,0.8,2.961,2.017,3.774c-0.742-0.024-1.441-0.229-2.054-0.568c0,0.019,0,0.038,0,0.057c0,2.197,1.562,4.03,3.638,4.446
	c-0.381,0.104-0.781,0.158-1.195,0.158c-0.291,0-0.575-0.027-0.854-0.08c0.577,1.801,2.252,3.111,4.236,3.148
	c-1.553,1.215-3.508,1.939-5.631,1.939c-0.366,0-0.729-0.021-1.082-0.062c2.007,1.287,4.391,2.037,6.951,2.037
	c8.341,0,12.899-6.908,12.899-12.9c0-0.197-0.004-0.393-0.013-0.586C43.475,6.584,44.244,5.785,44.852,4.876z"/>
</svg>
