<?xml version="1.0" encoding="utf-8"?>
<!-- Generator: Adobe Illustrator 17.0.2, SVG Export Plug-In . SVG Version: 6.00 Build 0)  -->
<!DOCTYPE svg PUBLIC "-//W3C//DTD SVG 1.1//EN" "http://www.w3.org/Graphics/SVG/1.1/DTD/svg11.dtd">
<svg version="1.1" id="Layer_1" xmlns="http://www.w3.org/2000/svg" xmlns:xlink="http://www.w3.org/1999/xlink" x="0px" y="0px"
	 width="785px" height="66.5px" viewBox="0 0 785 66.5" enable-background="new 0 0 785 66.5" xml:space="preserve">
<g>
	<g>
		<rect x="8.938" y="31.029" fill="#003A3B" width="299.062" height="1"/>
		<path fill="#003A3B" d="M5.825,35.141c-1.992,0-3.613-1.62-3.613-3.611c0-1.992,1.621-3.613,3.613-3.613s3.613,1.621,3.613,3.613
			C9.438,33.521,7.817,35.141,5.825,35.141z M5.825,28.916c-1.441,0-2.613,1.172-2.613,2.613c0,1.44,1.172,2.611,2.613,2.611
			s2.613-1.171,2.613-2.611C8.438,30.088,7.266,28.916,5.825,28.916z"/>
	</g>
</g>
<g>
	<rect x="478" y="31.029" fill="#003A3B" width="297.774" height="1"/>
	<path fill="#003A3B" d="M778.888,35.141c-1.992,0-3.613-1.62-3.613-3.611c0-1.992,1.621-3.613,3.613-3.613s3.612,1.621,3.612,3.613
		C782.5,33.521,780.88,35.141,778.888,35.141z M778.888,28.916c-1.441,0-2.613,1.172-2.613,2.613c0,1.44,1.172,2.611,2.613,2.611
		c1.44,0,2.612-1.171,2.612-2.611C781.5,30.088,780.328,28.916,778.888,28.916z"/>
</g>
<g>
	<path fill="#003A3B" d="M342.699,54.207h-0.963l-13.763-38.911c-2.436,0-0.85,0-3.965,0c0,0,0-0.793,0-1.019
		c4.134,0,16.142,0,16.142,0v1.019h-4.927l9.798,28.546c3.115-9.006,3.965-11.781,3.965-11.781l0.68,1.529
		C349.665,33.59,346.776,41.916,342.699,54.207z M342.075,52.904l1.529-4.587c-2.945-7.817-11.611-33.021-11.611-33.021
		c-0.793,0-2.152,0-2.946,0L342.075,52.904z M360.484,14.276v1.019h-3.512l-3.908,11.385l-0.68-1.756l3.398-9.629h-5.947
		l9.742,28.546c5.834-16.935,9.685-28.546,9.685-28.546c-1.812,0-5.267,0-5.267,0v-1.019h10.421v1.019h-4.191
		c0,0-8.836,26.62-12.914,38.911h-0.963l-13.82-38.911c-2.379,0-0.85,0-3.908,0c0,0,0-0.793,0-1.019
		C342.755,14.276,360.484,14.276,360.484,14.276z M356.802,52.904l1.472-4.587c-2.945-7.817-11.554-33.021-11.554-33.021
		c-0.849,0-2.152,0-3.002,0L356.802,52.904z"/>
</g>
<g>
	<path fill="#003A3B" d="M379.75,8.306V2.529h6.344v5.777H379.75z M379.75,43.422V12.95h6.344v30.472H379.75z"/>
</g>
<g>
	<path fill="#003A3B" d="M395.419,61.529V17.98h6.937l9.108,24.911h0.121V17.98h6.756v43.549h-6.514l-9.531-27.203h-0.121v27.203
		H395.419z"/>
</g>
<g>
	<path fill="#003A3B" d="M430.531,45.993l0.044,0.088c-1.204-0.88-2.086-1.804-2.643-2.772c-0.558-0.968-0.954-1.892-1.189-2.772
		l-0.264-2.024v-3.564c0.411-1.554,0.998-2.933,1.762-4.136c0.411-0.615,0.873-1.254,1.388-1.914c0.514-0.66,1.093-1.356,1.74-2.091
		c0.822-0.675,1.601-1.203,2.335-1.584c0.353-0.176,0.704-0.351,1.057-0.527s0.705-0.366,1.057-0.573l-0.132-1.275l-0.396-1.232
		l-0.133-1.276c0-0.147-0.007-0.293-0.022-0.44c-0.015-0.146-0.022-0.293-0.022-0.44c0-2.639,1.174-5.221,3.524-7.744l1.19-0.924
		l4.625-2.024l1.013-0.308l1.057-0.22l1.718-0.308c0.558-0.029,1.152-0.059,1.784-0.088s1.417-0.044,2.357-0.044
		c1.41,0.059,2.819,0.382,4.229,0.969c0.969,0.235,1.938,0.808,2.907,1.718c0.998,0.94,1.601,1.777,1.806,2.511l0.309,2.819
		l-0.529,0.969l-1.542,2.29l-1.718,0.749l-2.599,0.308l-0.661-0.308l-2.158-1.454l-0.221-0.529v-1.498l1.057-1.586l0.484-0.176
		h0.441l1.806,0.661l0.793,0.793h1.585l0.353-0.22l0.837-1.982l-0.264-1.057l-0.925-1.454l-2.114-1.277
		c-0.823-0.353-1.63-0.529-2.423-0.529c-0.088,0-0.175,0.008-0.264,0.022c-0.088,0.015-0.176,0.022-0.264,0.022
		c-0.176,0-0.36,0.008-0.551,0.022c-0.192,0.015-0.404,0.022-0.639,0.022c-0.264,0-0.543-0.007-0.837-0.022
		s-0.587-0.036-0.881-0.066l-1.189,0.22l-1.013,0.309c-1.233,0.499-2.57,1.307-4.008,2.423c-1.469,1.145-2.57,2.423-3.304,3.832
		l-0.793,1.718l-0.528,2.511l0.22,1.586l1.322,0.176l3.788-0.176l0.837,0.176l0.749,0.353l1.41,1.233l0.308,0.44v1.058l-0.308,0.66
		l-1.41,1.85l-1.322,0.22c-0.294,0.03-0.573,0.052-0.837,0.066c-0.264,0.015-0.543,0.022-0.837,0.022s-0.602-0.006-0.925-0.022
		c-0.324-0.015-0.646-0.036-0.969-0.066c-1.174-0.176-2.32-0.865-3.436-2.07c-2.819,1.263-4.669,3.011-5.551,5.242
		c-0.881,2.202-1.322,4.244-1.322,6.122l0.133,2.07l0.396,1.057c0.176,0.617,0.484,1.278,0.925,1.982
		c0.411,0.646,1.013,1.322,1.806,2.027l1.718,0.969c0.734,0.294,1.512,0.47,2.335,0.529c0.381,0.029,0.763,0.044,1.145,0.044
		c0.381,0,0.763,0,1.145,0l1.806-0.308l0.881-0.264l3.039-1.19c1.057-0.675,2.1-1.556,3.128-2.642
		c0.529-0.558,1.013-1.102,1.454-1.63c0.44-0.528,0.851-1.042,1.233-1.542l1.101-0.308c-0.588,1.469-1.439,2.834-2.555,4.096
		c-1.174,1.292-2.379,2.349-3.612,3.172l-4.714,2.037l-1.322,0.301l-1.585,0.172h-3.788L430.531,45.993z M442.821,26.08l2.335,0.396
		l0.573-0.396l0.749-1.718l-2.379-1.278l-1.982,0.264l-1.233,0.573v0.749L442.821,26.08z"/>
</g>
<g>
	<g>
		<defs>
			<rect id="SVGID_1_" x="-681" y="-347.73" width="612" height="792"/>
		</defs>
		<clipPath id="SVGID_2_">
			<use xlink:href="#SVGID_1_"  overflow="visible"/>
		</clipPath>
		
			<circle clip-path="url(#SVGID_2_)" fill="none" stroke="#075D50" stroke-width="0.5" stroke-linecap="round" cx="-586.027" cy="48.447" r="1"/>
	</g>
</g>
<g>
	<g>
		<defs>
			<rect id="SVGID_3_" x="-681" y="-347.73" width="612" height="792"/>
		</defs>
		<clipPath id="SVGID_4_">
			<use xlink:href="#SVGID_3_"  overflow="visible"/>
		</clipPath>
		
			<circle clip-path="url(#SVGID_4_)" fill="none" stroke="#075D50" stroke-width="0.5" stroke-linecap="round" cx="-156.152" cy="48.447" r="1"/>
	</g>
</g>
</svg>
