<?xml version="1.0" standalone="no"?>
<!DOCTYPE svg PUBLIC "-//W3C//DTD SVG 1.1//EN" "http://www.w3.org/Graphics/SVG/1.1/DTD/svg11.dtd" >
<svg>
<metadata>
Created by FontForge 20110222 at Tue Nov 12 10:34:05 2013
 By Orthosie Webhosting
Copyright (C) 1996 Emigre Graphics, Designed by Zuzana Licko
</metadata>
<defs>
<font id="MrsEavesSmartLigRomanRoman" horiz-adv-x="358" >
  <font-face 
    font-family="MrsEavesSmartLigRomanRoman"
    font-weight="400"
    font-stretch="normal"
    units-per-em="1000"
    panose-1="2 11 5 0 0 0 0 0 0 0"
    ascent="800"
    descent="-200"
    x-height="333"
    cap-height="600"
    bbox="-109 -270 1368 815"
    underline-thickness="25"
    underline-position="-62"
    unicode-range="U+0020-2122"
  />
<missing-glyph horiz-adv-x="502" 
d="M-1 0h500v500h-500v-500zM9 10v480h480v-480h-480z" />
    <glyph glyph-name=".notdef" horiz-adv-x="502" 
d="M-1 0h500v500h-500v-500zM9 10v480h480v-480h-480z" />
    <glyph glyph-name=".null" horiz-adv-x="0" 
 />
    <glyph glyph-name="nonmarkingreturn" horiz-adv-x="333" 
 />
    <glyph glyph-name="space" unicode=" " horiz-adv-x="233" 
 />
    <glyph glyph-name="exclam" unicode="!" horiz-adv-x="313" 
d="M194 40q0 20 -14 34t-34 14q-19 0 -33 -14t-14 -34q0 -19 14 -33.5t33 -14.5q20 0 34 14t14 34zM99 568q0 -21 6 -73q9 -69 15 -141t9 -194h34q3 120 9.5 194t14.5 142q7 51 7 72q0 20 -14.5 34.5t-33.5 14.5t-33 -14.5t-14 -34.5z" />
    <glyph glyph-name="quotedbl" unicode="&#x22;" horiz-adv-x="412" 
d="M75 568q0 -9 9 -36q11 -32 18.5 -62.5t10.5 -76.5h17q3 45 11 76.5t19 62.5q10 27 10 36q0 20 -14.5 34.5t-33.5 14.5t-33 -14.5t-14 -34.5zM242 568q0 -9 9 -36q11 -32 18.5 -62.5t10.5 -76.5h17q3 45 11 76.5t19 62.5q10 27 10 36q0 19 -15 34t-34 15t-32.5 -14.5
t-13.5 -34.5z" />
    <glyph glyph-name="numbersign" unicode="#" horiz-adv-x="435" 
d="M301 314l19 111h78l10 53h-79l21 122h-40l-21 -122h-106l21 122h-40l-21 -122h-77l-9 -53h77l-19 -111h-77l-10 -52h79l-21 -123h40l20 123h107l-21 -123h40l20 123h78l9 52h-78zM155 314l19 111h106l-19 -111h-106z" />
    <glyph glyph-name="dollar" unicode="$" horiz-adv-x="498" 
d="M252 582v101h-36v-100q-63 -1 -105.5 -40.5t-42.5 -94.5q0 -46 28.5 -82t71.5 -58l48 -25v-227q-37 5 -59.5 21t-44.5 40q-21 24 -31 24q-7 0 -14 -5q-11 -7 -11 -20q0 -30 45.5 -61t114.5 -37v-101h36v99q69 2 116.5 47.5t47.5 115.5q0 37 -24.5 72t-68.5 58l-71 36v197
q26 -4 42 -15.5t33 -30.5q19 -20 29 -20h4q3 1 4 1q18 6 18 24q0 24 -35.5 49.5t-94.5 31.5zM252 54v210q48 -23 75 -50t27 -57q0 -45 -28.5 -73t-73.5 -30zM216 543v-179q-47 26 -66.5 49t-19.5 54q0 30 25.5 51.5t60.5 24.5z" />
    <glyph glyph-name="percent" unicode="%" horiz-adv-x="763" 
d="M704 128q0 29 -11.5 55t-32 46t-48 31t-57.5 11t-57.5 -11t-48 -31t-32 -46t-11.5 -55t11.5 -55.5t32.5 -46.5t48 -31t57 -11t57.5 11t48 31t32 46.5t11.5 55.5zM591 600l-36 18l-383 -618l36 -18zM357 473q0 29 -11.5 55.5t-32.5 46.5t-48 31t-57 11t-57.5 -11t-48 -31
t-32.5 -46.5t-12 -55.5t12 -55t32.5 -46t48 -31t57.5 -11t57 11t48 31t32.5 46.5t11.5 54.5zM638 128q0 -48 -21 -79t-62 -31t-61.5 30.5t-20.5 79.5q0 48 20.5 79t61.5 31t62 -31t21 -79zM290 473q0 -48 -21 -79t-61 -31q-41 0 -62 31t-21 79q0 49 21 79.5t62 30.5
q40 0 61 -31t21 -79z" />
    <glyph glyph-name="ampersand" unicode="&#x26;" horiz-adv-x="657" 
d="M233 357q-39 70 -39 132q0 33 25.5 61t69.5 28q34 0 56.5 -21.5t22.5 -54.5q0 -45 -33 -75t-102 -70v0zM385 75q-21 -25 -50 -39t-67 -14q-57 0 -95 38.5t-38 89.5q0 46 17.5 77.5t49.5 59.5q31 -44 75.5 -94.5t107.5 -117.5zM409 50q33 -32 64.5 -49.5t68.5 -17.5
q26 0 53.5 15.5t47.5 42.5l-17 17q-35 -35 -65 -35q-26 0 -57.5 22t-63.5 58q16 34 23 87q4 29 9 45t15.5 26t29 14.5t50.5 4.5v21h-226v-21q52 0 71 -12t19 -46q0 -12 -2 -32q-3 -30 -14 -60q-119 131 -163 196q19 13 58 36q62 36 92 65t30 75q0 50 -42 82.5t-101 32.5
q-34 0 -64 -10.5t-54 -30.5q-49 -41 -49 -103q0 -64 55 -150q-54 -34 -84 -72t-30 -93q0 -43 16.5 -76.5t45.5 -55.5t64 -32.5t71 -10.5q95 0 149 67z" />
    <glyph glyph-name="quotesingle" unicode="'" horiz-adv-x="245" 
d="M75 568q0 -9 9 -36q11 -32 18.5 -62.5t10.5 -76.5h17q3 45 11 76.5t19 62.5q10 27 10 36q0 20 -14.5 34.5t-33.5 14.5t-33 -14.5t-14 -34.5z" />
    <glyph glyph-name="parenleft" unicode="(" 
d="M330 -90l-1 1q-33 36 -59 69.5t-53.5 81t-45.5 107.5t-18 126t18 126t45.5 107.5t53.5 81t59 69.5l1 1l-23 21q-104 -86 -164 -186t-60 -220t60.5 -220.5t164.5 -185.5z" />
    <glyph glyph-name="parenright" unicode=")" 
d="M275 295q0 120 -59.5 220t-163.5 186l-24 -21l2 -2q32 -36 58.5 -69t54 -81t45.5 -107.5t18 -125.5t-18 -125.5t-45.5 -107.5t-54 -81t-58.5 -69l-2 -2l23 -21q104 85 164 185.5t60 220.5z" />
    <glyph glyph-name="asterisk" unicode="*" horiz-adv-x="407" 
d="M194 414q-2 -31 -8.5 -51.5t-17.5 -41.5q-11 -19 -11 -29q0 -20 13.5 -34.5t32.5 -14.5t34 15t15 34q0 9 -11 30q-12 21 -19 41t-10 52q27 -17 41.5 -33.5t26.5 -36.5q12 -19 20 -24q12 -7 25 -7q26 0 40 23q6 11 6 23q0 28 -23 43q-8 4 -31 5q-23 0 -44.5 4t-50.5 18
q28 14 49.5 18t44.5 4q24 1 32 6q23 14 23 42q0 13 -6 23q-14 23 -40 23q-13 0 -25 -7q-8 -5 -20 -24q-12 -20 -26 -36t-41 -34q2 32 9.5 52.5t18.5 41.5q11 20 11 29q0 19 -15 34t-34 15t-32.5 -14.5t-13.5 -34.5q0 -9 11 -29q11 -21 17.5 -41t8.5 -52q-27 17 -41 33.5
t-26 37.5q-11 19 -19 24q-11 7 -24 7q-28 0 -42 -25q-7 -10 -7 -22q0 -26 25 -42q8 -4 30 -5q23 -1 44.5 -5t50.5 -19q-29 -14 -49.5 -18t-44.5 -5q-23 -2 -31 -6q-25 -14 -25 -42q0 -12 7 -22q14 -25 42 -25q13 0 24 7q8 5 19 24q12 20 26 37t41 34z" />
    <glyph glyph-name="plus" unicode="+" horiz-adv-x="458" 
d="M251 243v157h-44v-157h-157v-44h157v-157h44v157h157v44h-157z" />
    <glyph glyph-name="comma" unicode="," horiz-adv-x="313" 
d="M154 -2q-5 -30 -17.5 -53.5t-39.5 -52.5l11 -12q44 27 68 71t24 80q0 31 -16 47t-38 16q-19 0 -33 -14t-14 -34t14 -34.5t33 -14.5q6 0 8 1z" />
    <glyph glyph-name="hyphen" unicode="-" horiz-adv-x="458" 
d="M375 183v44h-292v-44h292z" />
    <glyph glyph-name="period" unicode="." horiz-adv-x="313" 
d="M211 44q0 22 -17 37.5t-40 15.5t-39 -15.5t-16 -37.5q0 -21 16 -36.5t39 -15.5t40 15.5t17 36.5z" />
    <glyph glyph-name="slash" unicode="/" horiz-adv-x="348" 
d="M338 604l-40 14l-288 -622l40 -14z" />
    <glyph glyph-name="zero" unicode="0" horiz-adv-x="592" 
d="M296 450q-47 0 -89.5 -18t-75 -50.5t-50.5 -75t-18 -89.5t18 -90t50.5 -75.5t75 -50.5t89.5 -18t89.5 18t75 50.5t50.5 75.5t18 90t-18 89.5t-50.5 75t-75 50.5t-89.5 18zM296 393q34 0 64.5 -13.5t54.5 -38.5t37 -57t13 -67q0 -36 -13 -68t-37 -56.5t-54.5 -38
t-64.5 -13.5t-65 13.5t-54.5 38t-36.5 56.5t-13 68t13 68t36.5 56.5t54.5 38t65 13.5z" />
    <glyph glyph-name="one" unicode="1" horiz-adv-x="363" 
d="M313 0v21q-33 0 -51.5 4.5t-28 16.5t-13 34t-3.5 62v158q0 40 3.5 62t13 34t28 16.5t51.5 4.5v20h-263v-20q33 0 51 -4.5t28 -16.5t13.5 -34.5t3.5 -61.5v-158q0 -39 -3.5 -61.5t-13.5 -34.5t-28 -16.5t-51 -4.5v-21h263z" />
    <glyph glyph-name="two" unicode="2" horiz-adv-x="520" 
d="M338 176q6 4 19 14.5t30 29t30 44t13 52.5q0 30 -15.5 55t-42.5 42.5t-61.5 27t-71.5 9.5q-81 0 -129.5 -38t-48.5 -89q0 -27 15.5 -52t46.5 -44l30 31q-17 29 -17 56q0 40 31 67t72 27q49 0 78.5 -25t29.5 -68q0 -33 -21.5 -71.5t-74.5 -80.5l-177 -139v-24h206
q39 0 61.5 -3.5t34.5 -11.5t16.5 -23t4.5 -41h21l25 137h-259z" />
    <glyph glyph-name="three" unicode="3" horiz-adv-x="508" 
d="M258 115q52 -11 76.5 -49t24.5 -86q0 -58 -29.5 -93.5t-88.5 -35.5q-36 0 -59 11t-39 28q-9 9 -22 31q-9 14 -15.5 21t-15.5 7q-26 0 -26 -23q0 -15 12.5 -34.5t36.5 -37.5t59 -29.5t77 -11.5q41 0 77.5 13t64 36.5t42.5 53.5t15 64q0 58 -42 102t-114 59l46 35
q6 4 19 14.5t30 29t30 44t13 52.5q0 30 -15.5 55t-42.5 42.5t-61.5 27t-71.5 9.5q-81 0 -129.5 -38t-48.5 -89q0 -27 15.5 -52t46.5 -44l30 31q-17 29 -17 57q0 40 33 66.5t70 26.5q49 0 79 -25t30 -67q0 -37 -18.5 -71.5t-47.5 -56.5l-74 -59q-26 -19 -26 -37
q0 -10 6.5 -16.5t14.5 -6.5q9 0 16.5 6.5t18.5 19.5q13 14 20 20z" />
    <glyph glyph-name="four" unicode="4" horiz-adv-x="540" 
d="M333 492h-18l-279 -431v-19h227v-75q0 -39 -3.5 -61.5t-13.5 -34t-28 -16t-51 -4.5v-21h262v21q-33 0 -51 4.5t-28 16t-13.5 34t-3.5 61.5v75h145l8 132h-21l-5 -20q-11 -44 -31.5 -60t-84.5 -16h-11v414zM263 78h-173l173 267v-267z" />
    <glyph glyph-name="five" unicode="5" horiz-adv-x="493" 
d="M125 186l15 177h253l25 146h-23q-11 -45 -31.5 -60.5t-84.5 -15.5h-169l-31 -343h37q8 53 38 75.5t74 22.5q60 0 89.5 -45.5t29.5 -120.5q0 -76 -30 -123.5t-89 -47.5q-45 0 -66 18t-38 49q-8 16 -14.5 23.5t-16.5 7.5q-28 0 -28 -27q0 -15 11 -34t32 -36t52 -28t68 -11
q41 0 78 16t65 45t43.5 67.5t15.5 80.5q0 43 -14 81t-40 66.5t-61.5 44.5t-77.5 16q-32 0 -64 -12t-48 -32z" />
    <glyph glyph-name="six" unicode="6" horiz-adv-x="525" 
d="M145 244q9 32 42.5 53t77.5 21q32 0 55 -12t37 -33t20.5 -46.5t6.5 -54.5t-6.5 -55.5t-20.5 -47.5t-37 -33.5t-55 -12.5q-17 0 -36 8t-37.5 31.5t-31.5 68t-15 113.5zM146 299q3 58 11 108.5t24.5 91t44 65t67.5 24.5q30 0 49 -12.5t38 -33.5q11 -13 18 -18.5t15 -5.5
q10 0 18.5 7t8.5 19q0 26 -44 51t-103 25q-56 0 -99.5 -30t-72.5 -81t-43.5 -114t-14.5 -129q0 -82 19.5 -138.5t50.5 -88t65 -44t67 -12.5q41 0 78 14.5t64.5 40.5t43.5 60.5t16 72.5t-15.5 72t-43.5 60t-65 40.5t-78 14.5q-40 0 -69.5 -16t-49.5 -43z" />
    <glyph glyph-name="seven" unicode="7" horiz-adv-x="471" 
d="M418 442h-178q-40 0 -62 3t-34 11.5t-16.5 23t-4.5 41.5h-20l-42 -246h21l5 20q11 45 31.5 60.5t84.5 15.5h163l-238 -496q-7 -15 -7 -27q0 -13 7 -22t16 -11q6 -2 11 -2q15 0 24 12t19 37l220 552v28z" />
    <glyph glyph-name="eight" unicode="8" horiz-adv-x="528" 
d="M273 358q-47 26 -71 56t-24 75q0 35 21 62t65 27t65.5 -27.5t21.5 -61.5q0 -41 -20.5 -76t-57.5 -55zM241 310q71 -40 107.5 -76.5t36.5 -91.5q0 -45 -31.5 -82.5t-89.5 -37.5t-89.5 38.5t-31.5 89.5q0 53 26 93.5t72 66.5zM304 342q60 28 94 59.5t34 79.5q0 27 -13 52
t-36.5 44t-54 29.5t-64.5 10.5t-64 -10.5t-54 -30.5q-49 -41 -49 -103q0 -46 29 -79t83 -66q-31 -13 -56.5 -28t-45.5 -35.5t-32 -49t-12 -65.5q0 -34 15.5 -64.5t43.5 -53.5t64.5 -36t77.5 -13t78 13t65 37t43.5 56t15.5 69q0 36 -13.5 64.5t-35 48.5t-46.5 35t-65 35z" />
    <glyph glyph-name="nine" unicode="9" horiz-adv-x="525" 
d="M463 168q0 82 -19.5 138t-51 87.5t-65.5 44t-67 12.5q-41 0 -78 -14.5t-64.5 -40.5t-43.5 -60t-16 -72t16 -72.5t43.5 -60.5t64.5 -40.5t78 -14.5q40 0 69.5 16t49.5 43q-2 -58 -10.5 -108.5t-25 -91t-44 -64.5t-67.5 -24q-30 0 -48.5 12t-38.5 35t-32 23q-10 0 -19 -7.5
t-9 -19.5t11.5 -25.5t32 -25t48 -18.5t56.5 -7q56 0 99.5 30t72.5 81.5t43.5 115t14.5 128.5zM380 189q-9 -31 -42.5 -52.5t-77.5 -21.5q-61 0 -92 46q-14 20 -20.5 46t-6.5 55t6.5 55t20.5 47t37 33.5t55 12.5q17 0 36 -8t37.5 -31.5t31.5 -68t15 -113.5z" />
    <glyph glyph-name="colon" unicode=":" horiz-adv-x="335" 
d="M215 40q0 20 -14 34t-34 14q-19 0 -33 -14t-14 -34q0 -19 14 -33.5t33 -14.5q20 0 34 14t14 34zM215 230q0 20 -14 34t-34 14q-19 0 -33 -14t-14 -34q0 -19 14 -33.5t33 -14.5q20 0 34 14t14 34z" />
    <glyph glyph-name="semicolon" unicode=";" horiz-adv-x="335" 
d="M215 230q0 20 -14 34t-34 14q-19 0 -33 -14t-14 -34q0 -19 14 -33.5t33 -14.5q20 0 34 14t14 34zM175 -8q-5 -30 -17.5 -53.5t-39.5 -52.5l11 -12q44 27 68 71t24 80q0 31 -16 47t-38 16q-19 0 -33 -14t-14 -34q0 -19 14 -33.5t33 -14.5h8z" />
    <glyph glyph-name="less" unicode="&#x3c;" horiz-adv-x="500" 
d="M428 68l-233 200l233 200l-15 17l-330 -217l330 -218z" />
    <glyph glyph-name="equal" unicode="=" horiz-adv-x="458" 
d="M375 258v45h-292v-45h292zM375 133v45h-292v-45h292z" />
    <glyph glyph-name="greater" unicode="&#x3e;" horiz-adv-x="500" 
d="M417 268l-329 217l-15 -17l232 -200l-232 -200l15 -18z" />
    <glyph glyph-name="question" unicode="?" horiz-adv-x="504" 
d="M273 40q0 20 -14 34t-34 14q-19 0 -33 -14t-14 -34q0 -19 14 -33.5t33 -14.5q20 0 34 14t14 34zM388 459q0 -36 -16 -62t-43 -42t-59.5 -23.5t-66.5 -7.5v-164h44v94q13 1 42 7.5t68 26.5t68 60t29 100q0 38 -17.5 70t-47.5 54t-68.5 33.5t-79.5 11.5q-71 0 -119.5 -34
t-48.5 -82q0 -41 23.5 -67t51.5 -26q19 0 35 11.5t16 33.5q0 16 -12 27.5t-28 11.5q-23 0 -33 7t-10 19q0 25 32 46t85 21q64 0 109.5 -34t45.5 -92z" />
    <glyph glyph-name="at" unicode="@" horiz-adv-x="708" 
d="M426 246q-7 -40 -33.5 -66.5t-55.5 -26.5q-32 0 -47 25t-15 68q0 23 4 51q11 63 42.5 107t73.5 44q22 0 37.5 -7.5t24.5 -17.5zM508 153q-34 0 -34 36q0 11 2 24l44 250h-56q-16 9 -30 13t-34 4q-31 0 -61.5 -14t-56 -39.5t-43 -59t-24.5 -70.5q-4 -24 -4 -47
q0 -61 28.5 -99t79.5 -38q24 0 53.5 16.5t45.5 38.5q4 -21 21.5 -36t44.5 -15q31 0 64 20t61 54.5t44.5 79t16.5 92.5q0 58 -21 107t-59 84t-89 53.5t-110 18.5q-71 0 -135 -27t-113 -76t-76.5 -113t-27.5 -135q0 -64 25 -120t69.5 -98t103.5 -65t125 -23q57 0 115 19.5
t116 60.5l-11 19q-51 -32 -103 -48.5t-109 -16.5q-58 0 -106.5 19.5t-84 55.5t-55 87t-19.5 113q0 60 23 116t64.5 99.5t96.5 68.5t117 25q46 0 88 -15t74.5 -44t51 -71.5t18.5 -95.5q0 -40 -13 -78t-33 -67t-42.5 -46t-41.5 -17z" />
    <glyph glyph-name="A" unicode="A" horiz-adv-x="617" 
d="M166 208h242l48 -111q10 -22 10 -36q0 -21 -21 -30.5t-67 -9.5v-21h277v21q-31 0 -48.5 3.5t-28.5 12t-19 23t-20 42.5l-3 6l-221 509h-13l-220 -509l-3 -6q-12 -28 -20 -42.5t-19 -23t-29 -12t-49 -3.5v-21h234v21q-46 0 -67 9.5t-21 30.5q0 14 10 36zM391 245h-209
l104 241z" />
    <glyph glyph-name="B" unicode="B" horiz-adv-x="598" 
d="M334 37h-26q-33 0 -51 4.5t-27.5 16t-13 34t-3.5 61.5v148h121q62 0 95 -37.5t33 -95.5q0 -57 -33 -94t-95 -37zM213 563h89q54 0 82 -32t28 -81t-28 -80.5t-82 -31.5h-89v225zM422 326q35 21 56.5 53.5t21.5 70.5q0 65 -50.5 107.5t-142.5 42.5h-269v-21q33 0 51 -4.5
t27.5 -16t13 -33.5t3.5 -62v-325q0 -40 -3.5 -62t-13 -34t-27.5 -16.5t-51 -4.5v-21h297q101 0 158 47.5t57 120.5q0 54 -35 97t-93 61z" />
    <glyph glyph-name="C" unicode="C" horiz-adv-x="667" 
d="M593 11v220h-20q-21 -97 -77.5 -152.5t-138.5 -55.5q-57 0 -99 24.5t-68.5 65.5t-38.5 89.5t-12 97.5t12 98t38 90t68.5 65.5t99.5 24.5q82 0 138.5 -55.5t77.5 -153.5h20v220h-20q-3 -17 -13 -33t-21 -24q-39 41 -86.5 63t-99.5 22q-62 0 -118 -24.5t-98.5 -68.5
t-66.5 -102t-24 -122t24 -122t66.5 -102t98.5 -68.5t118 -24.5q52 0 99.5 22t86.5 63q10 -7 20 -23.5t14 -33.5h20z" />
    <glyph glyph-name="D" unicode="D" horiz-adv-x="688" 
d="M38 0h271q85 0 148.5 23t104.5 64t61 95.5t20 117.5t-20 117.5t-61 95.5t-104.5 64t-148.5 23h-271v-21q33 0 51 -4.5t27.5 -16t13 -33.5t3.5 -62v-325q0 -40 -3.5 -62t-13 -34t-27.5 -16.5t-51 -4.5v-21zM213 563h97q70 0 117 -23t73 -61.5t36.5 -84t10.5 -94.5
t-10.5 -94.5t-36.5 -83.5t-73 -61.5t-117 -23.5h-4q-33 0 -50.5 4.5t-26.5 16t-12.5 33.5t-3.5 62v410z" />
    <glyph glyph-name="E" unicode="E" horiz-adv-x="583" 
d="M38 0h490l8 133h-21l-5 -20q-11 -44 -31.5 -60t-84.5 -16h-86q-33 0 -51 4.5t-27.5 16t-13 34t-3.5 61.5v146h50q40 0 62 -3.5t33.5 -13t16 -28t4.5 -51.5h21v229h-21q0 -33 -4.5 -51.5t-16 -28t-33.5 -13t-62 -3.5h-50v227h148q64 0 84 -15.5t32 -59.5l5 -20h21l-9 132
h-456v-21q33 0 51 -4.5t27.5 -16t13 -33.5t3.5 -62v-325q0 -40 -3.5 -62t-13 -34t-27.5 -16.5t-51 -4.5v-21z" />
    <glyph glyph-name="F" unicode="F" horiz-adv-x="536" 
d="M213 563h165q64 0 84 -15.5t31 -59.5l5 -20h21l-8 132h-473v-21q33 0 51 -4.5t27.5 -16t13 -33.5t3.5 -62v-325q0 -40 -3.5 -62t-13 -34t-27.5 -16.5t-51 -4.5v-21h270v21q-33 0 -51 4.5t-27.5 16.5t-13 34t-3.5 62v161h50q40 0 62 -3.5t33.5 -13t16 -28t4.5 -51.5h21
v229h-21q0 -33 -4.5 -51.5t-16 -28t-33.5 -13t-62 -3.5h-50v227z" />
    <glyph glyph-name="G" unicode="G" horiz-adv-x="700" 
d="M540 163q0 -64 -48 -100.5t-117 -36.5q-66 0 -112.5 24t-73.5 64t-39 87.5t-12 98.5q0 49 12 98t38 90t68.5 65.5t99.5 24.5q83 0 140 -55.5t77 -153.5h20v220h-20q-3 -17 -13 -33t-21 -24q-39 41 -86.5 63t-99.5 22q-62 0 -118 -24.5t-98.5 -68.5t-66.5 -102t-24 -122
t24 -122t66.5 -102t98.5 -68.5t118 -24.5q34 0 60.5 6t65.5 19q38 13 67.5 20t66.5 7v76q0 40 3.5 62t13 34t27.5 16.5t51 4.5v20h-262v-20q51 0 72.5 -16t21.5 -49z" />
    <glyph glyph-name="H" unicode="H" horiz-adv-x="765" 
d="M213 300h340v-162q0 -39 -3.5 -61.5t-13.5 -34.5t-28 -16.5t-51 -4.5v-21h271v21q-33 0 -51.5 4.5t-28 16.5t-13 34t-3.5 62v325q0 40 3.5 62t13 33.5t28 16t51.5 4.5v21h-271v-21q33 0 51.5 -4.5t28 -16t13 -34t3.5 -61.5v-126h-340v126q0 40 3.5 62t13 33.5t27.5 16
t51 4.5v21h-270v-21q33 0 51 -4.5t27.5 -16t13 -33.5t3.5 -62v-325q0 -40 -3.5 -62t-13 -34t-27.5 -16.5t-51 -4.5v-21h270v21q-33 0 -51 4.5t-27.5 16.5t-13 34t-3.5 62v162z" />
    <glyph glyph-name="I" unicode="I" horiz-adv-x="346" 
d="M308 0v21q-33 0 -51 4.5t-27.5 16.5t-13 34t-3.5 62v325q0 40 3.5 62t13 33.5t27.5 16t51 4.5v21h-270v-21q33 0 51 -4.5t27.5 -16t13 -33.5t3.5 -62v-325q0 -40 -3.5 -62t-13 -34t-27.5 -16.5t-51 -4.5v-21h270z" />
    <glyph glyph-name="J" unicode="J" horiz-adv-x="346" 
d="M38 -193q-36 0 -57 20t-21 45q0 14 -10 24t-24 10q-15 0 -25 -10t-10 -24q0 -22 14 -40t36 -30t48 -18.5t49 -6.5q32 0 62.5 8.5t56 28.5t41 55.5t15.5 86.5v507q0 40 3.5 62t13 33.5t27.5 16t51 4.5v21h-270v-21q33 0 51 -4.5t27.5 -16t13 -33.5t3.5 -62v-518
q0 -70 -24.5 -104t-70.5 -34z" />
    <glyph glyph-name="K" unicode="K" horiz-adv-x="730" 
d="M296 348l175 150q55 47 91 64t92 17v21h-232v-21q45 0 45 -19q0 -20 -49 -62l-205 -175v140q0 40 3.5 62t13 33.5t27.5 16t51 4.5v21h-270v-21q33 0 51 -4.5t27.5 -16t13 -33.5t3.5 -62v-325q0 -40 -3.5 -62t-13 -34t-27.5 -16.5t-51 -4.5v-21h270v21q-33 0 -51 4.5
t-27.5 16.5t-13 34t-3.5 62v139l26 21l253 -219q23 -19 23 -34q0 -24 -61 -24v-21h281v21q-22 0 -62 17.5t-67 40.5z" />
    <glyph glyph-name="L" unicode="L" horiz-adv-x="575" 
d="M38 0h523l8 133h-21l-5 -20q-11 -44 -31 -60t-84 -16h-120q-33 0 -51 4.5t-27.5 16t-13 34t-3.5 61.5v310q0 40 3.5 62t13 33.5t27.5 16t51 4.5v21h-270v-21q33 0 51 -4.5t27.5 -16t13 -33.5t3.5 -62v-325q0 -40 -3.5 -62t-13 -34t-27.5 -16.5t-51 -4.5v-21z" />
    <glyph glyph-name="M" unicode="M" horiz-adv-x="825" 
d="M170 494l222 -511h13l208 481v-326q0 -40 -3.5 -62t-13 -34t-27.5 -16.5t-51 -4.5v-21h270v21q-33 0 -51.5 4.5t-28 16.5t-13 34t-3.5 62v325q0 40 3.5 62t13 33.5t28 16t51.5 4.5v21h-157l-211 -487l-212 487h-170v-21q33 0 51 -4.5t27.5 -16t13 -33.5t3.5 -62v-325
q0 -40 -3.5 -62t-13 -34t-27.5 -16.5t-51 -4.5v-21h228v21q-33 0 -51 4.5t-28 16.5t-13.5 34.5t-3.5 61.5v356z" />
    <glyph glyph-name="N" unicode="N" horiz-adv-x="725" 
d="M563 124l-384 476h-141v-21q33 0 51 -4.5t27.5 -16t13 -33.5t3.5 -62v-325q0 -40 -3.5 -62t-13 -34t-27.5 -16.5t-51 -4.5v-21h228v21q-33 0 -51 4.5t-28 16.5t-13.5 34.5t-3.5 61.5v348l407 -503h23v480q0 39 3.5 61.5t13.5 34t28 16t51 4.5v21h-228v-21q33 0 51 -4.5
t27.5 -16t13 -33.5t3.5 -62v-339z" />
    <glyph glyph-name="O" unicode="O" horiz-adv-x="758" 
d="M713 300q0 64 -26 122t-72 102t-107 68.5t-129 24.5q-67 0 -128 -24.5t-107 -68.5t-72 -102t-26 -122t26 -122t72 -102t107 -68.5t128 -24.5q68 0 129 24.5t107 68.5t72 102t26 122zM379 578q62 0 108 -24.5t75 -65.5t42.5 -90t13.5 -98t-13.5 -97.5t-42.5 -89.5
t-75 -65.5t-108 -24.5t-107.5 24.5t-74.5 65.5t-42.5 89.5t-13.5 97.5t13.5 98t42.5 90t74.5 65.5t107.5 24.5z" />
    <glyph glyph-name="P" unicode="P" horiz-adv-x="540" 
d="M302 600h-264v-21q33 0 51 -4.5t27.5 -16t13 -33.5t3.5 -62v-325q0 -40 -3.5 -62t-13 -34t-27.5 -16.5t-51 -4.5v-21h270v21q-33 0 -51 4.5t-27.5 16.5t-13 34t-3.5 62v125h89q101 0 158 47.5t57 120.5t-57 121t-158 48zM301 299h-88v264h88q62 0 94.5 -37t32.5 -95
t-32.5 -95t-94.5 -37z" />
    <glyph glyph-name="Q" unicode="Q" horiz-adv-x="775" 
d="M333 -13q-32 -10 -60.5 -25t-50 -32.5t-33 -33.5t-11.5 -27q0 -32 33 -32q9 1 14.5 6.5t12.5 15.5q15 21 34 33t59 12q30 0 61 -17t81 -54q58 -42 99 -64t86 -22q42 0 76.5 15t60.5 40t43.5 53.5t26.5 57.5l-16 8q-24 -50 -64.5 -73.5t-108.5 -23.5q-37 0 -68 12.5
t-75 38.5q-52 30 -90.5 45t-89.5 15q-32 0 -65 -7q27 24 64 39t69 18q61 7 116 33t96.5 68.5t64.5 97t23 116.5q0 64 -25.5 122t-72 102t-107.5 68.5t-128 24.5q-68 0 -129 -24.5t-107 -68.5t-72 -102t-26 -122q0 -57 20.5 -109t58 -94.5t89 -71t111.5 -38.5zM388 578
q62 0 108 -24.5t75.5 -65.5t43.5 -90t14 -98t-14 -97.5t-43.5 -89.5t-75.5 -65.5t-108 -24.5t-108.5 24.5t-76 65.5t-43.5 89.5t-14 97.5t14 98t43.5 89.5t76 65.5t108.5 25z" />
    <glyph glyph-name="R" unicode="R" horiz-adv-x="620" 
d="M301 299h-88v264h88q62 0 94.5 -37t32.5 -95t-32.5 -95t-94.5 -37zM339 263q83 9 130.5 55t47.5 113q0 73 -57 121t-158 48h-264v-21q33 0 51 -4.5t27.5 -16t13 -33.5t3.5 -62v-325q0 -40 -3.5 -62t-13 -34t-27.5 -16.5t-51 -4.5v-21h270v21q-33 0 -51 4.5t-27.5 16.5
t-13 34t-3.5 62v125h47l198 -263h165v21q-44 5 -92 39t-94 88z" />
    <glyph glyph-name="S" unicode="S" horiz-adv-x="498" 
d="M107 30q11 -2 36 -15q31 -14 58.5 -23t61.5 -9q39 0 73.5 13t60.5 36.5t41 57t15 73.5q0 45 -25 85t-79 67l-96 49q-68 36 -94.5 61.5t-26.5 62.5q0 38 27.5 63.5t69.5 25.5t70.5 -15t45.5 -40.5t25.5 -55.5t11.5 -64h21v220h-20q-6 -27 -29 -46q-27 20 -54.5 30.5
t-67.5 10.5q-72 0 -119 -43t-47 -106q0 -54 32 -97t79 -68l96 -49q55 -29 85 -58.5t30 -62.5q0 -48 -35.5 -79t-89.5 -31q-63 0 -102 25.5t-56.5 59t-22 59t-4.5 36.5h-20v-220h20q6 28 29 47z" />
    <glyph glyph-name="T" unicode="T" horiz-adv-x="641" 
d="M624 600h-607l-9 -135h21l5 20q12 45 32 60.5t84 15.5h131v-423q0 -39 -3.5 -61.5t-13.5 -34.5t-28 -16.5t-51 -4.5v-21h271v21q-33 0 -51 4.5t-28 16.5t-13.5 34.5t-3.5 61.5v423h131q64 0 84 -15.5t32 -60.5l5 -20h21z" />
    <glyph glyph-name="U" unicode="U" horiz-adv-x="716" 
d="M557 463v-245q0 -94 -50.5 -142t-133.5 -48q-79 0 -127 48t-48 142v245q0 40 3.5 62t13 33.5t27.5 16t51 4.5v21h-270v-21q33 0 51 -4.5t27.5 -16t13 -33.5t3.5 -62v-240q0 -113 68 -176.5t172 -63.5q105 0 173 63.5t68 176.5v240q0 39 3.5 61.5t13.5 34t28 16t51 4.5v21
h-234v-21q33 0 51.5 -4.5t28 -16t13 -34t3.5 -61.5z" />
    <glyph glyph-name="V" unicode="V" horiz-adv-x="617" 
d="M654 579v21h-233v-21q46 0 67 -9.5t21 -30.5q0 -14 -10 -36l-168 -389l-170 389q-10 22 -10 37q0 20 21 29.5t67 9.5v21h-277v-21q31 0 49 -3.5t28.5 -12t18.5 -22.5t21 -44q1 -3 2 -5l221 -509h13l220 509q1 2 2 5q13 30 21 44t18.5 22.5t28.5 12t49 3.5z" />
    <glyph glyph-name="W" unicode="W" horiz-adv-x="793" 
d="M393 426l140 -443h13l162 509q9 27 16.5 43t19.5 26t32 14t51 4v21h-225v-21q41 0 58.5 -10t17.5 -33q0 -13 -6 -33l-109 -344l-140 441h-15l-140 -442l-109 345q-7 22 -7 35q0 23 19.5 32t66.5 9v21h-281v-21q33 0 52 -3.5t30.5 -12.5t19.5 -25t18 -46l161 -509h14z" />
    <glyph glyph-name="X" unicode="X" horiz-adv-x="614" 
d="M293 263l112 -166q20 -28 20 -44t-17.5 -24t-55.5 -8v-21h285v21q-49 0 -80.5 21t-63.5 66l-150 220l127 164q2 3 9 12q32 41 57.5 58t77.5 17v21h-237v-21q74 0 74 -32q0 -17 -21 -44l-109 -140l-95 140q-19 27 -19 43t17.5 24.5t54.5 8.5v21h-284v-21q49 0 81.5 -22
t62.5 -65l131 -194l-147 -190q-33 -41 -64.5 -64t-79.5 -23v-21h238v21q-38 0 -55 9.5t-17 25.5q0 17 18 41z" />
    <glyph glyph-name="Y" unicode="Y" horiz-adv-x="625" 
d="M353 242l165 250q34 51 60.5 69t84.5 18v21h-234v-21q74 0 74 -29q0 -16 -20 -47l-146 -220l-144 220q-18 28 -18 44t17 24t55 8v21h-285v-21q52 0 82 -18.5t63 -68.5l166 -257v-97q0 -40 -3.5 -62t-13 -34t-27.5 -16.5t-51 -4.5v-21h270v21q-33 0 -51 4.5t-27.5 16.5
t-13 34t-3.5 62v104z" />
    <glyph glyph-name="Z" unicode="Z" horiz-adv-x="575" 
d="M380 563l-337 -540v-23h460l8 133h-21l-5 -20q-11 -44 -31.5 -60t-84.5 -16h-225l345 551v12h-426l-9 -132h21l5 20q11 44 31.5 59.5t84.5 15.5h184z" />
    <glyph glyph-name="bracketleft" unicode="[" 
d="M319 -88v32h-137v702h137v32h-202v-766h202z" />
    <glyph glyph-name="backslash" unicode="\" horiz-adv-x="348" 
d="M383 0l-384 618l-36 -18l384 -618z" />
    <glyph glyph-name="bracketright" unicode="]" 
d="M242 -88v766h-203v-32h138v-702h-138v-32h203z" />
    <glyph glyph-name="asciicircum" unicode="^" horiz-adv-x="485" 
d="M243 617l-201 -279l17 -15l184 182l182 -182l18 15z" />
    <glyph glyph-name="underscore" unicode="_" 
d="M359 -44v44h-360v-44h360z" />
    <glyph glyph-name="grave" unicode="`" horiz-adv-x="1063" 
d="M548 600h-531l-9 -135h21l5 20q12 45 32 60.5t84 15.5h131v-423q0 -39 -3.5 -61.5t-13.5 -34.5t-28 -16.5t-51 -4.5v-21h271v21q-33 0 -51 4.5t-28 16.5t-13.5 34.5t-3.5 61.5v423h217q26 0 41 -4.5t23 -16.5t11.5 -34.5t3.5 -61.5v-306q0 -39 -3.5 -61.5t-11.5 -34.5
t-23 -16.5t-41 -4.5v-21h212v21q-22 0 -33.5 4t-18 15.5t-8.5 34t-2 63.5v65q0 41 34 70.5t73 29.5t57.5 -28t18.5 -79v-58q0 -42 -2.5 -64t-9 -33.5t-20.5 -15.5t-39 -4v-21h221v21q-27 0 -41.5 4.5t-23 16.5t-11.5 34t-3 62v63q0 69 -29 109t-94 40q-40 0 -73.5 -21
t-57.5 -51v339q-6 -1 -20 -3.5t-41 -5.5t-57 -5.5t-61 -2.5z" />
    <glyph glyph-name="a" unicode="a" horiz-adv-x="403" 
d="M387 20l-14 19q-6 -6 -13.5 -10.5t-14.5 -4.5q-23 0 -23 39v151q0 72 -32 104t-105 32q-50 0 -88.5 -22.5t-38.5 -57.5q0 -15 10 -25t25 -10q14 0 24 10t10 25q0 22 18.5 35t38.5 13q41 0 54 -23t13 -82q-47 -8 -84 -19.5t-66.5 -28t-46 -40t-16.5 -54.5q0 -38 26 -61
t64 -23q31 0 60 14t65 46q8 -58 68 -58q37 0 66 31zM251 80q-32 -28 -52.5 -38t-38.5 -10q-20 0 -33.5 14t-13.5 37q0 67 138 99v-102z" />
    <glyph glyph-name="b" unicode="b" horiz-adv-x="497" 
d="M153 231q14 36 40.5 57.5t60.5 21.5q56 0 85 -39.5t29 -103.5t-29 -104t-85 -40q-34 0 -60.5 21.5t-40.5 58.5v128zM147 50q22 -31 55.5 -49t72.5 -18q35 0 66.5 14t55.5 40t37.5 59.5t13.5 70.5t-13.5 70.5t-37.5 59t-55.5 39.5t-66.5 14q-74 0 -122 -59v326l-150 -25
v-21q26 0 41 -4.5t23 -16.5t11.5 -34.5t3.5 -61.5v-471h21z" />
    <glyph glyph-name="c" unicode="c" horiz-adv-x="387" 
d="M218 318q15 0 25.5 -10t10.5 -33q0 -16 11.5 -28t27.5 -12q23 0 34 13.5t11 29.5q0 30 -30.5 51t-89.5 21q-30 0 -61.5 -13.5t-57.5 -39t-41.5 -61t-15.5 -78.5q0 -77 47.5 -126t128.5 -49q42 0 81 17.5t69 48.5l-18 22q-23 -22 -52 -34t-55 -12q-60 0 -90 35.5t-30 97.5
q0 69 27.5 114.5t67.5 45.5z" />
    <glyph glyph-name="d" unicode="d" horiz-adv-x="513" 
d="M344 102q-14 -36 -41 -57.5t-60 -21.5q-56 0 -85 40t-29 104t29 103.5t85 39.5q33 0 60 -21.5t41 -57.5v-129zM344 291q-48 59 -122 59q-35 0 -67 -14t-56 -39.5t-37.5 -59t-13.5 -70.5t13.5 -70.5t38 -59.5t56 -40t66.5 -14q39 0 70 16.5t53 44.5q3 -16 8 -35t8 -26
l133 25v21q-26 0 -41 4.5t-23 16.5t-11.5 34.5t-3.5 61.5v471l-150 -25v-21q27 0 42 -4.5t23 -16.5t11 -34t3 -62v-163z" />
    <glyph glyph-name="e" unicode="e" horiz-adv-x="415" 
d="M128 229q11 37 36 59t58 22q37 0 55.5 -18.5t18.5 -42.5q0 -11 -3 -20h-165zM121 192h242q4 16 4 33q0 52 -41 88.5t-99 36.5q-35 0 -68.5 -13.5t-59.5 -38.5t-41.5 -58.5t-15.5 -72.5q0 -77 51.5 -130.5t133.5 -53.5q41 0 83 19t69 47l-17 22q-21 -20 -53.5 -33
t-56.5 -13q-66 0 -99.5 37t-33.5 98q0 16 2 32z" />
    <glyph glyph-name="f" unicode="f" horiz-adv-x="313" 
d="M188 298h100v35h-100v96q0 84 18 119.5t57 35.5q22 0 31.5 -10.5t17.5 -31.5q7 -18 14 -26.5t22 -8.5q33 0 33 36q0 27 -27 50.5t-73 23.5q-32 0 -61 -10.5t-52.5 -33.5t-37 -58.5t-13.5 -85.5v-96h-82v-35h82v-160q0 -39 -3.5 -61.5t-11.5 -34.5t-23 -16.5t-41 -4.5v-21
h229v21q-27 0 -41.5 4.5t-23 16.5t-11.5 34t-3 62v160z" />
    <glyph glyph-name="g" unicode="g" horiz-adv-x="423" 
d="M263 214q0 -46 -18.5 -74.5t-53.5 -28.5t-54 29t-19 74q0 46 19 75t54 29t53.5 -28.5t18.5 -75.5zM98 36q0 10 10.5 17t27.5 12t34 7.5t40 5.5q52 7 91 45t39 91q0 46 -29 81q16 16 31 16q13 0 18.5 -5.5t10.5 -16.5t11 -17t20 -6q12 1 19 10t7 22q0 20 -15.5 36
t-43.5 16q-16 0 -39 -11t-36 -27q-43 38 -103 38q-61 0 -105 -40t-44 -96q0 -40 23 -71.5t61 -50.5q-40 -12 -62 -32.5t-22 -47.5q0 -42 37.5 -64.5t104.5 -28.5q68 -7 101 -22t33 -48q0 -34 -37.5 -55.5t-86.5 -21.5q-48 0 -87 19.5t-39 53.5q0 30 32 65l-18 11
q-63 -33 -63 -82q0 -43 48 -74.5t127 -31.5q76 0 126.5 36.5t50.5 97.5q0 51 -42.5 87t-139.5 44q-36 3 -63.5 11.5t-27.5 26.5z" />
    <glyph glyph-name="h" unicode="h" horiz-adv-x="522" 
d="M503 0v21q-27 0 -42 4.5t-23 16.5t-11.5 34.5t-3.5 61.5v63q0 69 -29 109t-94 40q-40 0 -73 -20.5t-58 -51.5v339l-150 -25v-21q27 0 42 -4.5t23 -16.5t11 -34t3 -62v-316q0 -40 -3 -62t-11 -34t-23 -16.5t-42 -4.5v-21h213v21q-22 0 -34 4t-18 15.5t-8.5 34t-2.5 63.5
v65q0 41 34 70.5t74 29.5q38 0 57 -28.5t19 -78.5v-58q0 -41 -2.5 -63t-9.5 -34t-20.5 -16t-38.5 -4v-21h221z" />
    <glyph glyph-name="i" unicode="i" horiz-adv-x="286" 
d="M267 0v21q-27 0 -41.5 4.5t-23 16.5t-11.5 34t-3 62v212l-150 -25v-21q26 0 41 -4.5t23.5 -16t11.5 -34t3 -61.5v-50q0 -39 -3.5 -61.5t-11.5 -34.5t-23 -16.5t-41 -4.5v-21h229zM196 493q0 18 -13 31t-31 13t-31 -13t-13 -31q0 -19 13 -32t31 -13t31 13t13 32z" />
    <glyph glyph-name="j" unicode="j" horiz-adv-x="273" 
d="M188 -78v428l-150 -25v-21q26 0 41 -4.5t23.5 -16t11.5 -34t3 -61.5v-266q0 -88 -19 -122t-52 -34q-25 0 -35.5 11t-19.5 32q-7 18 -14.5 26.5t-23.5 8.5q-29 0 -29 -29t32.5 -55.5t84.5 -26.5q62 0 104.5 47.5t42.5 141.5zM196 493q0 18 -13 31t-31 13t-31 -13t-13 -31
q0 -19 13 -32t31 -13t31 13t13 32z" />
    <glyph glyph-name="k" unicode="k" horiz-adv-x="440" 
d="M233 207l85 70q14 11 31 18t33 11t26.5 5.5t14.5 1.5v20h-200v-20q48 0 48 -25q0 -13 -18 -28l-84 -68v425l-150 -25v-21q27 0 42 -4.5t23 -16.5t11 -34t3 -62v-316q0 -40 -3 -62t-11 -34t-23 -16.5t-42 -4.5v-21h229v21q-26 0 -41 4.5t-23 16.5t-11.5 34.5t-3.5 61.5v18
l9 7l164 -163h111v21q-12 0 -29.5 6.5t-29.5 17.5z" />
    <glyph glyph-name="l" unicode="l" horiz-adv-x="268" 
d="M248 0v21q-26 0 -41 4.5t-23 16.5t-11.5 34.5t-3.5 61.5v479l-150 -25v-21q27 0 42 -4.5t23 -16.5t11 -34t3 -62v-316q0 -40 -3 -62t-11 -34t-23 -16.5t-42 -4.5v-21h229z" />
    <glyph glyph-name="m" unicode="m" horiz-adv-x="778" 
d="M433 203q0 22 10.5 40.5t27.5 32t35 20.5t31 7q38 0 54.5 -28t16.5 -79v-58q0 -42 -2 -64.5t-8 -34t-18 -15t-34 -3.5v-21h212v21q-26 0 -41 4.5t-23 16.5t-11.5 34.5t-3.5 61.5v63q0 70 -26 109.5t-89 39.5q-41 0 -80.5 -23.5t-59.5 -51.5q-11 36 -36.5 55.5t-69.5 19.5
q-40 0 -73 -21t-57 -51q-2 16 -7.5 40.5t-9.5 31.5l-133 -25v-21q26 0 41 -4.5t23.5 -16t11.5 -34t3 -61.5v-50q0 -39 -3.5 -61.5t-11.5 -34.5t-23 -16.5t-41 -4.5v-21h212v21q-22 0 -33.5 4t-18 15.5t-8.5 34t-2 63.5v65q0 22 10.5 40.5t27 31.5t34 20.5t31.5 7.5
q38 0 55 -28t17 -79v-58q0 -42 -2 -64.5t-8.5 -33.5t-18.5 -15t-34 -4v-21h196v21q-23 0 -34.5 4t-18 15.5t-8.5 33.5t-2 64v65z" />
    <glyph glyph-name="n" unicode="n" horiz-adv-x="555" 
d="M188 278q-2 16 -7.5 40.5t-9.5 31.5l-133 -25v-21q26 0 41 -4.5t23.5 -16t11.5 -34t3 -61.5v-50q0 -39 -3.5 -61.5t-11.5 -34.5t-23 -16.5t-41 -4.5v-21h220v21q-25 0 -38 4t-20 16t-9.5 34t-2.5 63v65q0 40 36.5 70t78.5 30q43 0 63 -28t20 -79v-58q0 -39 -3.5 -61.5
t-11.5 -34.5t-23 -16.5t-41 -4.5v-21h229v21q-27 0 -41.5 4.5t-23 16.5t-11.5 34t-3 62v63q0 67 -32.5 108t-97.5 41q-45 0 -80 -21t-59 -51z" />
    <glyph glyph-name="o" unicode="o" horiz-adv-x="487" 
d="M445 167q0 37 -15.5 70.5t-43.5 59t-65 39.5t-78 14t-77.5 -14t-64.5 -39.5t-43.5 -59t-15.5 -70.5t15.5 -70.5t43.5 -59t65 -40t77 -14.5q41 0 78 14t65 40t43.5 59.5t15.5 70.5zM364 167q0 -64 -31 -104.5t-90 -40.5t-89.5 40.5t-30.5 104.5t30.5 104.5t89.5 40.5
t90 -40.5t31 -104.5z" />
    <glyph glyph-name="p" unicode="p" horiz-adv-x="513" 
d="M384 167q0 -63 -29 -103.5t-84 -40.5q-34 0 -60.5 21.5t-41.5 58.5v129q15 35 41.5 56.5t60.5 21.5q55 0 84 -40t29 -103zM169 -113v156q23 -28 54.5 -44t68.5 -16q35 0 66.5 14t55.5 40t37.5 59.5t13.5 70.5t-13.5 70.5t-37.5 59t-55.5 39.5t-66.5 14q-39 0 -69.5 -16.5
t-54.5 -44.5q-3 19 -7.5 37t-7.5 24l-134 -25v-21q27 0 42 -4.5t23 -16t11 -33.5t3 -62v-301q0 -40 -3 -62t-11 -33.5t-23 -16t-42 -4.5v-21h229v21q-26 0 -41 4.5t-23 16t-11.5 34t-3.5 61.5z" />
    <glyph glyph-name="q" unicode="q" horiz-adv-x="497" 
d="M344 103q-14 -36 -41 -58t-60 -22q-56 0 -85 40t-29 104t29 103.5t85 39.5q33 0 60 -21.5t41 -57.5v-128zM415 -113v463h-21l-44 -67q-22 32 -55.5 49.5t-72.5 17.5q-35 0 -67 -14t-56 -39.5t-37.5 -59t-13.5 -70.5t13.5 -70.5t38 -59.5t56 -40t66.5 -14q37 0 68 16
t54 44v-156q0 -40 -3 -62t-11 -33.5t-23 -16t-42 -4.5v-21h229v21q-26 0 -41 4.5t-23 16t-11.5 34t-3.5 61.5z" />
    <glyph glyph-name="r" unicode="r" horiz-adv-x="393" 
d="M372 288q0 22 -20.5 42t-58.5 20q-30 0 -60 -21t-45 -51q-2 16 -7.5 40.5t-9.5 31.5l-133 -25v-21q26 0 41 -4.5t23.5 -16t11.5 -34t3 -61.5v-50q0 -39 -3.5 -61.5t-11.5 -34.5t-23 -16.5t-41 -4.5v-21h229v21q-27 0 -41.5 4.5t-23 16.5t-11.5 34t-3 62v55q0 53 27 85
t50 32q32 0 32 -33q0 -14 10.5 -25t24.5 -11q21 0 30.5 14t9.5 33z" />
    <glyph glyph-name="s" unicode="s" horiz-adv-x="323" 
d="M289 92q0 27 -18 52t-51 44l-48 26q-35 19 -48 31.5t-13 29.5q0 43 51 43q37 0 59 -25t22 -59h21v116h-21q0 -23 -7 -23q-3 0 -13 5q-15 8 -31 13t-39 5q-41 0 -71.5 -26t-30.5 -65q0 -27 16.5 -54.5t50.5 -45.5l55 -30q28 -14 42 -28.5t14 -32.5q0 -21 -16 -36t-40 -15
q-50 0 -80 36.5t-30 75.5h-20v-146h20q0 32 12 32q7 0 25 -10q19 -10 35 -16t35 -6q50 0 84.5 30.5t34.5 78.5z" />
    <glyph glyph-name="t" unicode="t" horiz-adv-x="295" 
d="M80 298v-202q0 -57 25 -85t68 -28q25 0 54.5 16t50.5 42l-17 17q-37 -35 -65 -35q-45 0 -45 73v202h87v35h-87v110h-34q-6 -52 -26 -82t-63 -39v-24h52z" />
    <glyph glyph-name="u" unicode="u" horiz-adv-x="522" 
d="M503 8v21q-27 0 -42 4.5t-23 16.5t-11.5 34.5t-3.5 61.5v187h-150v-20q27 0 42 -4.5t23 -16.5t11.5 -34.5t3.5 -61.5v-66q0 -22 -11 -40.5t-27.5 -31.5t-35.5 -20t-34 -7q-39 0 -57.5 28t-18.5 79v195h-150v-20q27 0 42 -4.5t23 -16.5t11 -34t3 -62v-63
q0 -69 29.5 -109.5t94.5 -40.5q39 0 73 19.5t58 44.5q3 -16 8 -36.5t8 -27.5z" />
    <glyph glyph-name="v" unicode="v" horiz-adv-x="368" 
d="M379 313v20h-140v-20q40 0 40 -22q0 -12 -11 -37l-66 -160l-71 160q-11 26 -11 38q0 21 43 21v20h-178v-20q24 0 39 -13t29 -46l122 -272h20l113 272q14 33 29.5 46t41.5 13z" />
    <glyph glyph-name="w" unicode="w" horiz-adv-x="552" 
d="M273 213l100 -231h20l100 272q12 32 28.5 45.5t42.5 13.5v20h-140v-20q36 0 36 -28q0 -12 -7 -31l-54 -156l-101 235h-22l-82 -235l-67 156q-8 18 -8 31q0 28 44 28v20h-181v-20q23 0 38.5 -13t29.5 -46l118 -272h20z" />
    <glyph glyph-name="x" unicode="x" horiz-adv-x="403" 
d="M185 132l38 -53q17 -24 17 -37q0 -21 -47 -21v-21h210v21q-31 0 -51.5 12.5t-43.5 45.5l-75 104l68 71q30 31 52.5 45t43.5 14v20h-163v-20q42 0 42 -23q0 -15 -21 -36l-42 -44l-32 44q-21 28 -21 41q0 18 50 18v20h-202v-20q25 0 43 -12t45 -47l69 -95l-76 -80
q-32 -32 -51.5 -45t-35.5 -13v-21h154v21q-45 0 -45 20q0 14 24 38z" />
    <glyph glyph-name="y" unicode="y" horiz-adv-x="373" 
d="M38 -237q0 -17 10 -25t23 -8q11 0 21 10.5t16 26.5l195 487q13 32 30 45.5t41 13.5v20h-140v-20q39 0 39 -23q0 -12 -10 -36l-64 -160l-73 160q-12 25 -12 38q0 21 44 21v20h-177v-20q24 0 38 -12.5t29 -46.5l115 -249l-50 -125q-10 -27 -22 -43t-29 -33
q-13 -12 -18.5 -20.5t-5.5 -20.5z" />
    <glyph glyph-name="z" unicode="z" horiz-adv-x="363" 
d="M320 333h-277l-7 -110h21l5 20q9 34 30 46.5t85 12.5h47l-191 -285v-17h290l8 111h-21l-5 -20q-9 -34 -29.5 -46.5t-85.5 -12.5h-61l191 285v16z" />
    <glyph glyph-name="braceleft" unicode="{" 
d="M42 304v-16l3 -1q26 -9 41 -17t27 -25t18.5 -48.5t6.5 -82.5q0 -45 12 -78t32.5 -56t44.5 -39t62 -37q22 -12 26 -15l17 21q-34 24 -55 40.5t-36.5 38.5t-24 51.5t-8.5 71.5q0 53 -6 87t-18.5 52.5t-31 28t-48.5 16.5q30 7 48.5 16.5t31 28.5t18.5 52.5t6 86.5
q0 42 8.5 72t24 51t36.5 38t55 41l-17 21q-2 -1 -25 -14q-38 -21 -62.5 -37t-45 -39.5t-32.5 -56.5t-12 -78q0 -51 -6.5 -82.5t-18 -48.5t-27 -25t-41.5 -17z" />
    <glyph glyph-name="bar" unicode="|" horiz-adv-x="270" 
d="M115 708v-708h44v708h-44z" />
    <glyph glyph-name="braceright" unicode="}" 
d="M317 288v16l-2 1q-27 9 -42.5 17t-27 25t-18 48t-6.5 83q0 46 -12 79t-33 56t-45 38.5t-63 37.5q-17 9 -25 14l-16 -21q35 -24 55.5 -40.5t35.5 -38t23.5 -51.5t8.5 -72q0 -53 6 -86.5t18.5 -52.5t31 -28.5t48.5 -16.5q-30 -7 -48 -16.5t-31 -28.5t-19 -52.5t-6 -86.5
q0 -42 -8.5 -72t-23.5 -51.5t-35.5 -38t-55.5 -40.5l16 -21q11 6 26 14q39 22 63 37.5t44.5 38.5t32.5 56.5t12 78.5q0 52 6.5 83.5t18 48t27 24.5t42.5 17z" />
    <glyph glyph-name="asciitilde" unicode="~" horiz-adv-x="423" 
d="M298 258q-16 0 -34 9t-46 26q-30 18 -50 27.5t-38 9.5q-36 0 -61 -36t-25 -93h21q6 25 22.5 43.5t33.5 18.5q12 0 29 -8.5t46 -25.5q32 -20 52.5 -30t36.5 -10q42 0 67 35.5t25 96.5h-21q-8 -30 -22 -46.5t-36 -16.5z" />
    <glyph glyph-name="nbspace" unicode="&#xa0;" horiz-adv-x="233" 
 />
    <glyph glyph-name="exclamdown" unicode="&#xa1;" horiz-adv-x="313" 
d="M194 390q0 20 -14 34t-34 14q-19 0 -33 -14t-14 -34q0 -19 14 -33.5t33 -14.5q20 0 34 14t14 34zM194 -138q0 21 -7 72q-8 68 -14 141t-10 195h-34q-3 -122 -9.5 -197t-14.5 -138q-6 -52 -6 -73q0 -20 14 -34.5t33 -14.5t33.5 14.5t14.5 34.5z" />
    <glyph glyph-name="cent" unicode="&#xa2;" horiz-adv-x="447" 
d="M248 418q17 0 28.5 -9t11.5 -34q0 -17 11.5 -28.5t27.5 -11.5q23 0 33.5 13.5t10.5 29.5q0 31 -31 51.5t-92 20.5v167h-36v-173q-28 -7 -55.5 -23t-50 -40.5t-35.5 -55.5t-13 -67q0 -65 43 -112t111 -59v-170h36v166h4q42 0 81 17.5t68 48.5l-18 22q-23 -22 -52 -34
t-54 -12q-15 0 -29 3v290zM212 138q-34 15 -53.5 46.5t-19.5 73.5q0 50 21 90t52 59v-269z" />
    <glyph glyph-name="sterling" unicode="&#xa3;" horiz-adv-x="513" 
d="M133 298v-160q0 -40 -3.5 -62t-13 -34t-27.5 -16.5t-51 -4.5v-21h460l9 133h-21l-5 -20q-11 -44 -31.5 -60t-84.5 -16h-65q-33 0 -51 4.5t-28 16t-13.5 34t-3.5 61.5v145h101v35h-101v96q0 84 18 119.5t57 35.5q23 0 32.5 -11t17.5 -32q7 -17 13.5 -25.5t21.5 -8.5
q33 0 33 34q0 28 -26.5 52t-72.5 24q-32 0 -61.5 -10.5t-53 -33.5t-37 -59t-13.5 -85v-96h-81v-35h81z" />
    <glyph glyph-name="currency" unicode="&#xa4;" horiz-adv-x="598" 
d="M500 -78v411h-312v96q0 46 7.5 76.5t21 47.5t30.5 24t39 7q33 0 46.5 -15t22.5 -42q7 -21 14.5 -31t24.5 -10q14 0 25 9.5t11 24.5q0 34 -37.5 65.5t-95.5 31.5q-35 0 -67 -10.5t-57.5 -33.5t-40.5 -59t-15 -85v-96h-82v-35h82v-160q0 -39 -3.5 -61.5t-11.5 -34.5
t-23 -16.5t-41 -4.5v-21h229v21q-27 0 -41.5 4.5t-23 16.5t-11.5 34t-3 62v160h162q27 0 42 -4.5t23 -16.5t11 -34t3 -62v-259q0 -88 -18.5 -122t-52.5 -34q-25 0 -35.5 11t-18.5 32q-7 18 -14.5 26.5t-23.5 8.5q-29 0 -29 -29q0 -28 32 -55t84 -27q62 0 104.5 47.5
t42.5 141.5z" />
    <glyph glyph-name="yen" unicode="&#xa5;" horiz-adv-x="625" 
d="M353 234h122v44h-98l141 214q34 51 60.5 69t84.5 18v21h-234v-21q74 0 74 -29q0 -16 -20 -47l-146 -220l-144 220q-18 28 -18 44t17 24t55 8v21h-285v-21q52 0 82 -18.5t63 -68.5l138 -214h-122v-44h150v-46h-150v-44h150v-6q0 -40 -3.5 -62t-13 -34t-27.5 -16.5
t-51 -4.5v-21h270v21q-33 0 -51 4.5t-27.5 16.5t-13 34t-3.5 62v6h122v44h-122v46z" />
    <glyph glyph-name="brokenbar" unicode="&#xa6;" horiz-adv-x="211" 
d="M128 708h-45v-300h45v300zM128 300h-45v-300h45v300z" />
    <glyph glyph-name="section" unicode="&#xa7;" horiz-adv-x="398" 
d="M285 223q-4 4 -10 6l-67 35q-46 24 -66.5 43.5t-20.5 44.5q0 22 16 38q1 -1 5 -3l4 -2l68 -35q38 -20 60 -40.5t22 -43.5q0 -24 -11 -43zM101 417q-18 -15 -28 -37t-10 -45q0 -39 23.5 -69.5t59.5 -47.5l68 -35q38 -21 60 -42t22 -43q0 -36 -23.5 -56t-61.5 -20
q-42 0 -69 19t-39.5 43.5t-16.5 43.5t-4 27h-20v-172h18q4 21 17 34q6 -2 18 -8q26 -12 48 -19t48 -7q59 0 100.5 39t41.5 99q0 41 -34 76q34 37 34 91q0 31 -20 60t-58 49l-67 35q-46 24 -66.5 43t-20.5 44q0 27 21 43.5t51 16.5q26 0 45 -11.5t31.5 -30.5t19.5 -41.5
t9 -47.5h20v170h-20q-2 -17 -14 -29q-17 12 -42 20t-54 8q-53 0 -89 -33.5t-36 -80.5q0 -51 38 -86z" />
    <glyph glyph-name="dieresis" unicode="&#xa8;" horiz-adv-x="1149" 
d="M281 561v-423q0 -39 -3.5 -61.5t-13.5 -34.5t-28 -16.5t-51 -4.5v-21h271v21q-33 0 -51 4.5t-28 16.5t-13.5 34.5t-3.5 61.5v162h340v-162q0 -40 -3.5 -62t-13 -34t-27.5 -16.5t-52 -4.5v-21h490l9 133h-21l-5 -20q-12 -44 -32 -60t-84 -16h-86q-33 0 -51 4.5t-28 16
t-13.5 34t-3.5 61.5v146h50q40 0 62 -3.5t34 -13t16.5 -27.5t4.5 -52h21v229h-21q0 -33 -4.5 -51.5t-16.5 -28t-34 -13t-62 -3.5h-50v227h149q64 0 84 -15.5t31 -59.5l5 -20h21l-8 132h-457v-21q33 0 51.5 -4.5t28 -16t13 -33.5t3.5 -62v-126h-340v126q0 39 3.5 61.5
t13.5 34t28 16t51 4.5v21h-439l-9 -135h21l5 20q12 45 32 60.5t84 15.5h131z" />
    <glyph glyph-name="copyright" unicode="&#xa9;" horiz-adv-x="683" 
d="M342 617q-65 0 -122.5 -24.5t-101.5 -68.5t-68.5 -101.5t-24.5 -122.5t24.5 -122.5t68.5 -101.5t101.5 -68.5t122.5 -24.5t122.5 24.5t101 68.5t68 101.5t24.5 122.5t-24.5 123t-68 101.5t-101 68t-122.5 24.5zM342 585q58 0 110 -22t91.5 -61.5t61.5 -91.5t22 -110
t-22 -110t-61.5 -91.5t-91.5 -61.5t-110 -22t-110 22t-91.5 61.5t-61.5 91.5t-22 110t22 110.5t61 91.5t91.5 61t110.5 22zM506 105v157h-18q-13 -64 -48 -101t-86 -37q-36 0 -62.5 16t-42.5 42t-23.5 56.5t-7.5 61.5q0 30 7.5 60.5t23.5 57t42.5 42.5t62.5 16
q51 0 86 -36.5t48 -100.5h18v156h-17q-2 -13 -7 -26t-9 -18q-21 26 -54 42.5t-65 16.5q-41 0 -78 -16.5t-65 -45.5t-44 -67.5t-16 -80.5q0 -43 16 -81.5t44 -67t65 -45t78 -16.5q32 0 65 16.5t54 42.5q4 -4 9 -17t7 -27h17z" />
    <glyph glyph-name="ordfeminine" unicode="&#xaa;" horiz-adv-x="998" 
d="M732 600h-271v-21q33 0 51.5 -4.5t28 -16t13 -34t3.5 -61.5v-245q0 -94 -50.5 -142t-133.5 -48q-79 0 -127 48t-48 142v245q0 40 3.5 62t13 33.5t27.5 16t51 4.5v21h-270v-21q33 0 51 -4.5t27.5 -16t13 -33.5t3.5 -62v-240q0 -113 68 -176.5t172 -63.5q62 0 114 24t85 69
v-76h427l9 133h-21l-5 -20q-12 -44 -32 -60t-84 -16h-119q-33 0 -51.5 4.5t-28 16t-13 34t-3.5 61.5v310q0 40 3.5 62t13 33.5t28 16t51.5 4.5v21z" />
    <glyph glyph-name="guillemotleft" unicode="&#xab;" horiz-adv-x="667" 
d="M428 68l-233 200l233 200l-15 17l-330 -217l330 -218zM579 122l-174 146l174 146l-11 19l-275 -165l275 -166z" />
    <glyph glyph-name="logicalnot" unicode="&#xac;" horiz-adv-x="813" 
d="M251 178v-98q-32 -28 -52.5 -38t-38.5 -10q-20 0 -33.5 14t-13.5 37q0 37 36 60t102 35zM526 229q11 37 36.5 59t57.5 22q38 0 56.5 -18.5t18.5 -43.5q0 -10 -3 -19h-166zM451 229q-80 0 -129 -6q-2 67 -34.5 97t-102.5 30q-50 0 -88.5 -22.5t-38.5 -57.5q0 -15 10 -25
t25 -10q14 0 24 10t10 25q0 22 18.5 35t38.5 13q39 0 52.5 -20.5t13.5 -84.5q-97 -16 -154.5 -51t-57.5 -91q0 -38 26 -61t64 -23q31 0 60 14t65 46q8 -58 68 -58q37 0 66 31l-14 19q-6 -6 -13.5 -10.5t-14.5 -4.5q-23 0 -23 39v124q62 5 120 5v-3q-2 -15 -2 -22
q0 -77 51.5 -130.5t133.5 -53.5q42 0 84 18.5t69 47.5l-18 22q-21 -20 -53 -33t-57 -13q-66 0 -99.5 37.5t-33.5 99.5q0 15 2 30h242q4 16 4 33q0 52 -41 88.5t-99 36.5q-56 0 -105 -33.5t-69 -87.5z" />
    <glyph glyph-name="minus" unicode="&#xad;" horiz-adv-x="458" 
d="M375 208v44h-292v-44h292z" />
    <glyph glyph-name="minus" unicode="&#x2212;" horiz-adv-x="458" 
d="M375 208v44h-292v-44h292z" />
    <glyph glyph-name="registered" unicode="&#xae;" horiz-adv-x="683" 
d="M342 617q-65 0 -122.5 -24.5t-101.5 -68.5t-68.5 -101.5t-24.5 -122.5t24.5 -122.5t68.5 -101.5t101.5 -68.5t122.5 -24.5t122.5 24.5t101 68.5t68 101.5t24.5 122.5t-24.5 123t-68 101.5t-101 68t-122.5 24.5zM428 383q0 -34 -19.5 -56t-55.5 -22h-59v157h59
q36 0 55.5 -22.5t19.5 -56.5zM550 105q-40 -42 -94 -66t-114 -24q-58 0 -110 22t-91.5 61.5t-61.5 91.5t-22 110t22 110.5t61 91.5t91.5 61t110.5 22t110 -22t91.5 -61.5t61.5 -91.5t22 -110q0 -49 -16 -94t-46 -83q-28 0 -61 24.5t-63 60.5l-57 66q50 7 79.5 37t29.5 72
q0 49 -37 80.5t-98 31.5h-195v-18q45 0 58.5 -19t13.5 -86v-144q0 -67 -13.5 -86t-58.5 -19v-18h202v18q-45 0 -58 19t-13 86v45h31l125 -168h100z" />
    <glyph glyph-name="macron" unicode="&#xaf;" horiz-adv-x="258" 
d="M203 621v23h-181v-23h181z" />
    <glyph glyph-name="degree" unicode="&#xb0;" horiz-adv-x="625" 
d="M188 298h241v-160q0 -40 -3 -62t-11 -34t-23 -16.5t-42 -4.5v-21h229v21q-26 0 -41 4.5t-23 16.5t-11.5 34.5t-3.5 61.5v160h101v35h-101v96q0 84 18 119.5t57 35.5q22 0 32 -10.5t18 -31.5q6 -18 13 -26.5t22 -8.5q33 0 33 34q0 28 -27 52t-73 24q-32 0 -61 -10.5
t-52.5 -33.5t-37 -59t-13.5 -85v-96h-241v55q0 84 18 119.5t57 35.5q22 0 31.5 -11t17.5 -32q7 -18 14 -26.5t22 -8.5q33 0 33 34q0 28 -27 52t-73 24q-32 0 -61.5 -10.5t-52.5 -33t-36.5 -58.5t-13.5 -85v-55h-82v-35h82v-160q0 -39 -3.5 -61.5t-11.5 -34.5t-23 -16.5
t-41 -4.5v-21h229v21q-27 0 -41.5 4.5t-23 16.5t-11.5 34t-3 62v160z" />
    <glyph glyph-name="plusminus" unicode="&#xb1;" horiz-adv-x="458" 
d="M408 43h-358v-44h358v44zM251 268v140h-44v-140h-157v-44h157v-141h44v141h157v44h-157z" />
    <glyph glyph-name="twosuperior" unicode="&#xb2;" horiz-adv-x="336" 
d="M289 335h-159l89 79q27 23 43.5 47.5t16.5 56.5q0 44 -36.5 71.5t-86.5 27.5q-52 0 -84 -28t-32 -66q0 -45 42 -74l26 25q-16 24 -16 46q0 26 19 42.5t43 16.5q32 0 50.5 -17.5t18.5 -46.5q0 -28 -9.5 -46.5t-34.5 -40.5l-132 -119v-22h233z" />
    <glyph glyph-name="threesuperior" unicode="&#xb3;" horiz-adv-x="336" 
d="M289 378q0 34 -24 63t-62 42l79 94v23h-216l-18 -103h22l5 17q5 21 21.5 29.5t41.5 8.5h86l-99 -104q-9 -9 -9 -18q0 -18 18 -18q15 0 24 16q11 18 16 23q26 -5 42 -25.5t16 -47.5q0 -32 -18 -55t-52 -23q-28 0 -42 10.5t-26 28.5t-21 18q-20 0 -20 -19q0 -22 30 -45
t79 -23q54 0 90.5 32t36.5 76z" />
    <glyph glyph-name="acute" unicode="&#xb4;" horiz-adv-x="1335" 
d="M360 561h145q33 0 51.5 -3.5t30.5 -12.5t19.5 -25t17.5 -47l156 -490h13l141 443l140 -443h14l161 509q9 28 17 43.5t20 25.5t31.5 14t50.5 4v21h-225v-21q41 0 58.5 -9.5t17.5 -32.5q0 -13 -6 -34l-109 -344l-140 441h-14l-140 -442l-109 345q-7 22 -7 36q0 22 19.5 31
t65.5 9v21h-762l-9 -135h21l5 20q12 45 32 60.5t84 15.5h131v-423q0 -39 -3.5 -61.5t-13.5 -34.5t-28 -16.5t-51 -4.5v-21h271v21q-33 0 -51 4.5t-28 16.5t-13.5 34.5t-3.5 61.5v423z" />
    <glyph glyph-name="mu" unicode="&#xb5;" horiz-adv-x="522" 
d="M169 -8q27 -9 53 -9q39 0 73 19.5t58 44.5q3 -16 8 -36.5t8 -27.5l134 25v21q-27 0 -42 4.5t-23 16.5t-11.5 34.5t-3.5 61.5v187h-150v-20q27 0 42 -4.5t23 -16.5t11.5 -34.5t3.5 -61.5v-66q0 -22 -10.5 -40.5t-27 -31.5t-33.5 -20t-29 -7q-46 0 -65 27.5t-19 79.5v195
h-150v-20q27 0 42 -4.5t23 -16.5t11 -34t3 -62v-245q0 -40 -3 -62t-11 -34t-23 -16.5t-42 -4.5v-21h229v21q-26 0 -41 4.5t-23 16.5t-11.5 34.5t-3.5 61.5v41z" />
    <glyph glyph-name="paragraph" unicode="&#xb6;" horiz-adv-x="513" 
d="M454 600h-234q-34 0 -65 -13.5t-54.5 -37t-37 -54.5t-13.5 -65q0 -65 44 -113t108 -55v-295q0 -39 -3.5 -61.5t-13.5 -34t-28 -16t-51 -4.5v-21h132v726h84v-726h132v21q-33 0 -51 4.5t-28 16t-13.5 34t-3.5 61.5v496q0 39 3.5 61.5t13.5 34t28 16t51 4.5v21z" />
    <glyph glyph-name="periodcentered" unicode="&#xb7;" horiz-adv-x="292" 
d="M173 233q0 20 -14.5 34.5t-33.5 14.5t-33 -14.5t-14 -34.5q0 -19 14 -33.5t33 -14.5t33.5 14.5t14.5 33.5z" />
    <glyph glyph-name="periodcentered" unicode="&#x2219;" horiz-adv-x="292" 
d="M173 233q0 20 -14.5 34.5t-33.5 14.5t-33 -14.5t-14 -34.5q0 -19 14 -33.5t33 -14.5t33.5 14.5t14.5 33.5z" />
    <glyph glyph-name="cedilla" unicode="&#xb8;" horiz-adv-x="218" 
d="M199 -126q0 37 -26.5 57t-57.5 21l75 76h-45l-108 -107v-14q19 6 38 6q27 0 45 -10.5t18 -28.5q0 -17 -9 -30t-22 -21.5t-25 -13t-29 -10.5v0v-27q16 2 39.5 8t48 18t41.5 31.5t17 44.5z" />
    <glyph glyph-name="onesuperior" unicode="&#xb9;" horiz-adv-x="336" 
d="M253 287v21q-36 0 -46 14.5t-10 66.5v232l-127 -26v-21q42 0 55.5 -13.5t13.5 -61.5v-110q0 -52 -10 -66.5t-47 -14.5v-21h171z" />
    <glyph glyph-name="ordmasculine" unicode="&#xba;" horiz-adv-x="1150" 
d="M360 561h139q52 0 82 -19t62 -69l155 -238v-97q0 -40 -3.5 -62t-13 -34t-27.5 -16.5t-51 -4.5v-21h270v21q-33 0 -51 4.5t-27.5 16.5t-13 34t-3.5 62v104l165 250q34 51 60.5 69t84.5 18v21h-234v-21q74 0 74 -29q0 -16 -20 -47l-146 -220l-144 220q-18 28 -18 44t17 24
t55 8v21h-755l-9 -135h21l5 20q12 45 32 60.5t84 15.5h131v-423q0 -39 -3.5 -61.5t-13.5 -34.5t-28 -16.5t-51 -4.5v-21h271v21q-33 0 -51 4.5t-28 16.5t-13.5 34.5t-3.5 61.5v423z" />
    <glyph glyph-name="guillemotright" unicode="&#xbb;" horiz-adv-x="667" 
d="M583 268l-329 217l-15 -17l233 -200l-233 -200l15 -18zM373 268l-274 165l-11 -19l174 -146l-174 -146l11 -20z" />
    <glyph glyph-name="onequarter" unicode="&#xbc;" horiz-adv-x="853" 
d="M636 600l-36 18l-383 -618l36 -18zM779 194h-21l-4 -16q-8 -30 -19.5 -40.5t-32.5 -11.5v213h-24l-173 -229v-17h139q0 -45 -10.5 -58t-46.5 -13v-22h171v22q-35 0 -45.5 13t-10.5 58h71zM644 126h-89l89 118v-118zM270 287v21q-36 0 -46.5 14.5t-10.5 66.5v232l-126 -26
v-21q42 0 55.5 -13.5t13.5 -61.5v-110q0 -52 -10 -66.5t-48 -14.5v-21h172z" />
    <glyph glyph-name="onehalf" unicode="&#xbd;" horiz-adv-x="853" 
d="M636 600l-36 18l-383 -618l36 -18zM781 48h-159l89 80q27 24 43.5 48t16.5 55q0 45 -36 72t-87 27q-53 0 -85 -28t-32 -66q0 -44 42 -73l27 25q-16 24 -16 47q0 25 18 41.5t41 16.5q34 0 52.5 -17t18.5 -53q0 -26 -11.5 -46t-31.5 -36l-133 -118v-23h234zM270 287v21
q-36 0 -46.5 14.5t-10.5 66.5v232l-126 -26v-21q42 0 55.5 -13.5t13.5 -61.5v-110q0 -52 -10 -66.5t-48 -14.5v-21h172z" />
    <glyph glyph-name="threequarters" unicode="&#xbe;" horiz-adv-x="853" 
d="M636 600l-36 18l-383 -618l36 -18zM771 194h-21l-4 -16q-8 -30 -19.5 -40.5t-33.5 -11.5v213h-24l-172 -229v-17h139q0 -45 -10.5 -58t-47.5 -13v-22h172v22q-35 0 -46 13t-11 58h72zM636 126h-89l89 118v-118zM306 378q0 34 -24.5 63t-62.5 42l79 94v23h-215l-19 -103
h23l5 17q4 21 20.5 29.5t41.5 8.5h87l-99 -104q-9 -9 -9 -18q0 -18 18 -18q15 0 24 16q11 18 16 23q26 -5 41.5 -25.5t15.5 -47.5q0 -32 -18 -55t-52 -23q-28 0 -42 10.5t-26 28.5t-21 18q-20 0 -20 -19q0 -22 30.5 -45t78.5 -23q55 0 91.5 32t36.5 76z" />
    <glyph glyph-name="questiondown" unicode="&#xbf;" horiz-adv-x="504" 
d="M352 390q0 20 -13.5 34t-33.5 14t-34 -14t-14 -34t14 -34t34 -14t33.5 14.5t13.5 33.5zM457 -71q0 41 -23.5 67t-51.5 26q-18 0 -34.5 -11.5t-16.5 -33.5q0 -16 12 -27.5t28 -11.5q23 0 33 -7t10 -19q0 -25 -32 -46t-84 -21q-64 0 -109.5 34t-45.5 92q0 36 16 62t43 42
t59.5 23.5t66.5 7.5v164h-45v-94q-13 -1 -42 -7.5t-68 -26.5t-68 -59.5t-29 -100.5q0 -38 17.5 -70t47.5 -54t68.5 -33.5t79.5 -11.5q71 0 119.5 34t48.5 82z" />
    <glyph glyph-name="Agrave" unicode="&#xc0;" horiz-adv-x="682" 
d="M273 344q-16 37 -16 71q0 55 36.5 89t82.5 34q57 0 87.5 -31.5t30.5 -72.5q0 -40 -19 -71.5t-61 -40.5v-24h53v-202q0 -57 24.5 -85t67.5 -28q26 0 55.5 16t49.5 42l-16 17q-37 -35 -65 -35q-45 0 -45 73v202h86v35h-86v75q0 71 -44 112.5t-116 41.5q-67 0 -115.5 -46.5
t-48.5 -125.5q0 -19 3 -40q-30 0 -61.5 -14t-57 -39.5t-41 -61t-15.5 -77.5q0 -77 47.5 -126t128.5 -49q42 0 81 17.5t69 48.5l-18 22q-23 -22 -52 -34t-55 -12q-60 0 -90 35.5t-30 97.5q0 69 27.5 114.5t67.5 45.5h5q4 -12 6 -19q11 -29 27 -46.5t37 -17.5t33 14t12 29
q0 22 -16.5 40t-48.5 26z" />
    <glyph glyph-name="Aacute" unicode="&#xc1;" horiz-adv-x="1209" 
d="M1211 313v20h-140v-20q39 0 39 -23q0 -12 -10 -36l-64 -160l-73 160q-12 25 -12 38q0 21 44 21v20h-177v-20q23 0 37 -12.5t30 -46.5l115 -249l-50 -125q-10 -27 -22.5 -43t-29.5 -32q-13 -13 -18.5 -21t-5.5 -21q0 -17 10.5 -25t23.5 -8q11 0 21 10.5t16 26.5l195 487
q13 32 30 45.5t41 13.5zM859 388q12 1 19 10t7 22q0 21 -18 37.5t-52 16.5q-17 0 -36.5 -7t-36 -21.5t-27.5 -38.5t-11 -57q0 -15 3 -32q-40 32 -94 32q-30 0 -57 -10.5t-48 -29.5t-32.5 -44t-11.5 -52q0 -40 23 -71.5t61 -50.5q-39 -12 -61.5 -33t-22.5 -47q0 -43 38 -65
t105 -28q68 -7 101 -22t33 -48q0 -34 -38 -55.5t-86 -21.5t-87 19.5t-39 53.5q0 30 32 65l-19 11q-63 -33 -63 -82q0 -43 48.5 -74.5t127.5 -31.5q75 0 125.5 36.5t50.5 97.5q0 51 -42.5 87t-138.5 44q-37 3 -64 11.5t-27 26.5t39 29q16 5 33 7.5t40 5.5q52 7 91 45t39 91
q0 46 -30 81q-3 21 -3 39q0 53 25 79q10 11 21.5 15.5t22.5 4.5q13 0 18.5 -5.5t10.5 -16.5t11 -17t20 -6zM686 214q0 -46 -18.5 -74.5t-54.5 -28.5q-35 0 -53.5 28.5t-18.5 74.5q0 47 18.5 75.5t53.5 28.5q36 0 54.5 -28.5t18.5 -75.5zM263 214q0 -46 -18.5 -74.5
t-53.5 -28.5t-54 29t-19 74q0 46 19 75t54 29t53.5 -28.5t18.5 -75.5zM98 36q0 10 10.5 17t27.5 12t34 7.5t40 5.5q52 7 91 45t39 91q0 46 -29 81q16 16 31 16q13 0 18.5 -5.5t10.5 -16.5t11 -17t20 -6q12 1 19 10t7 22q0 20 -15.5 36t-43.5 16q-16 0 -39 -11t-36 -27
q-43 38 -103 38q-61 0 -105 -40t-44 -96q0 -40 23 -71.5t61 -50.5q-40 -12 -62 -32.5t-22 -47.5q0 -42 37.5 -64.5t104.5 -28.5q68 -7 101 -22t33 -48q0 -34 -37.5 -55.5t-86.5 -21.5q-48 0 -87 19.5t-39 53.5q0 30 32 65l-18 11q-63 -33 -63 -82q0 -43 48 -74.5t127 -31.5
q76 0 126.5 36.5t50.5 97.5q0 51 -42.5 87t-139.5 44q-36 3 -63.5 11.5t-27.5 26.5z" />
    <glyph glyph-name="Acircumflex" unicode="&#xc2;" horiz-adv-x="804" 
d="M631 94l-61 133q-25 53 -58 83t-92 30q-45 0 -78.5 -18t-83.5 -58l-5 -4l-84 -68v425l-150 -25v-21q27 0 42 -4.5t23 -16.5t11 -34t3 -62v-316q0 -40 -3 -62t-11 -34t-23 -16.5t-42 -4.5v-21h229v21q-26 0 -41 4.5t-23 16.5t-11.5 34.5t-3.5 61.5v18l9 7l164 -163h111v21
q-12 0 -29.5 6.5t-29.5 17.5l-161 162l44 36q7 6 15 12q31 26 56.5 40t59.5 14q47 0 72 -55l112 -242q-18 -49 -37 -89t-42.5 -72t-53 -51t-64.5 -19q-22 0 -31 8t-15 22q-5 11 -10 16t-15 5q-35 0 -35 -39q0 -20 25.5 -38t61.5 -18q51 0 92 23.5t70 60.5t49.5 77t40.5 90
l107 266q13 32 30 45.5t41 13.5v20h-140v-20q39 0 39 -23q0 -12 -10 -36z" />
    <glyph glyph-name="Atilde" unicode="&#xc3;" horiz-adv-x="685" 
d="M188 298h112q23 0 37.5 -12.5t30.5 -46.5l105 -227q-18 -49 -37 -89t-42.5 -72t-53 -51t-64.5 -19q-22 0 -31 8t-15 22q-5 11 -10 16t-15 5q-35 0 -35 -39q0 -20 25.5 -38t61.5 -18q51 0 92 23.5t70 60.5t49.5 77.5t39.5 89.5l108 266q12 32 29.5 45.5t41.5 13.5v20h-140
v-20q39 0 39 -23q0 -12 -10 -36l-64 -160l-74 160q-11 25 -11 37q0 22 44 22v20h-283v96q0 84 18 119.5t57 35.5q22 0 31.5 -10.5t17.5 -31.5q7 -18 14 -26.5t22 -8.5q33 0 33 36q0 27 -27 50.5t-73 23.5q-32 0 -61 -10.5t-52.5 -33.5t-37 -58.5t-13.5 -85.5v-96h-82v-35h82
v-160q0 -39 -3.5 -61.5t-11.5 -34.5t-23 -16.5t-41 -4.5v-21h229v21q-27 0 -41.5 4.5t-23 16.5t-11.5 34t-3 62v160z" />
    <glyph glyph-name="Adieresis" unicode="&#xc4;" horiz-adv-x="1122" 
d="M778 231q14 36 40.5 57.5t60.5 21.5q56 0 85 -39.5t29 -103.5t-29 -104t-85 -40q-34 0 -60.5 21.5t-40.5 58.5v128zM429 298v-160q0 -40 -3 -62t-11 -34t-23 -16.5t-42 -4.5v-21h229v21q-26 0 -41 4.5t-23 16.5t-11.5 34.5t-3.5 61.5v160h101v35h-101v80q0 97 32 128
t104 31q41 0 56 -23.5t15 -90.5v-475h21l44 67q22 -31 55.5 -49t72.5 -18q35 0 66.5 14t55.5 40t37.5 59.5t13.5 70.5t-13.5 70.5t-37.5 59t-55.5 39.5t-66.5 14q-74 0 -122 -59v309h-168q-86 0 -133.5 -45t-47.5 -142v-80h-241v55q0 84 18 119.5t57 35.5q22 0 31.5 -11
t17.5 -32q7 -18 14 -26.5t22 -8.5q33 0 33 34q0 28 -27 52t-73 24q-32 0 -61.5 -10.5t-52.5 -33t-36.5 -58.5t-13.5 -85v-55h-82v-35h82v-160q0 -39 -3.5 -61.5t-11.5 -34.5t-23 -16.5t-41 -4.5v-21h229v21q-27 0 -41.5 4.5t-23 16.5t-11.5 34t-3 62v160h241z" />
    <glyph glyph-name="Aring" unicode="&#xc5;" horiz-adv-x="819" 
d="M391 245h-209l104 241zM408 208l97 -225h13l220 509l2 5q13 30 21 44t19 22.5t28.5 12t49.5 3.5v21h-234v-21q47 0 67.5 -9.5t20.5 -30.5q0 -14 -9 -36l-169 -389l-219 503h-13l-220 -509l-3 -6q-12 -28 -20 -42.5t-19 -23t-29 -12t-49 -3.5v-21h234v21q-46 0 -67 9.5
t-21 30.5q0 14 10 36l48 111h242z" />
    <glyph glyph-name="AE" unicode="&#xc6;" horiz-adv-x="758" 
d="M358 547v-261h-135zM204 249h154v-111q0 -40 -3.5 -62t-13 -34t-27.5 -16.5t-51 -4.5v-21h440l8 133h-21l-5 -20q-11 -44 -31.5 -60t-84.5 -16h-36q-33 0 -51 4.5t-27.5 16t-13 34t-3.5 61.5v96h12q39 0 59.5 -3.5t30 -13t12 -26.5t2.5 -53h21v229h-21q0 -35 -2.5 -52.5
t-12 -27t-30 -13t-59.5 -3.5h-12v277h98q64 0 84 -15.5t32 -59.5l5 -20h21l-9 132h-325l-254 -492q-14 -27 -26.5 -44t-27.5 -26q-26 -17 -82 -17v-21h234v21q-40 0 -58 7.5t-18 25.5q0 15 14 43z" />
    <glyph glyph-name="Ccedilla" unicode="&#xc7;" horiz-adv-x="911" 
d="M117 333h-82v-35h82v-160q0 -39 -3.5 -61.5t-11.5 -34.5t-23 -16.5t-41 -4.5v-21h229v21q-27 0 -41.5 4.5t-23 16.5t-11.5 34t-3 62v160h241v-160q0 -40 -3 -62t-11 -34t-23 -16.5t-42 -4.5v-21h229v21q-26 0 -41 4.5t-23 16.5t-11.5 34.5t-3.5 61.5v160h163
q26 0 41 -4.5t23 -16.5t11.5 -34.5t3.5 -61.5v-43q0 -39 -3.5 -61.5t-11.5 -34.5t-23 -16.5t-41 -4.5v-21h229v21q-27 0 -41.5 4.5t-23 16.5t-11.5 34t-3 62v195h-313v96q0 46 7.5 76.5t21 47.5t30.5 24t39 7q33 0 47 -15t23 -43q8 -20 15.5 -30t23.5 -10q14 0 25 9.5
t11 24.5q0 34 -37.5 65.5t-96.5 31.5q-35 0 -67 -10.5t-57.5 -33.5t-40.5 -59t-15 -85v-96h-241v55q0 84 18 119.5t57 35.5q22 0 31.5 -11t17.5 -32q7 -18 14 -26.5t22 -8.5q33 0 33 34q0 28 -27 52t-73 24q-32 0 -61.5 -10.5t-52.5 -33t-36.5 -58.5t-13.5 -85v-55z" />
    <glyph glyph-name="Egrave" unicode="&#xc8;" horiz-adv-x="898" 
d="M364 167q0 -64 -31 -104.5t-90 -40.5t-89.5 40.5t-30.5 104.5t30.5 104.5t89.5 40.5t90 -40.5t31 -104.5zM611 229q11 37 36.5 59t57.5 22q38 0 56.5 -18.5t18.5 -43.5q0 -10 -3 -19h-166zM527 192v-3q-2 -15 -2 -22q0 -77 51.5 -130.5t133.5 -53.5q42 0 84 18.5t69 47.5
l-18 22q-21 -20 -53 -33t-57 -13q-66 0 -99.5 37.5t-33.5 99.5q0 15 2 30h242q4 16 4 33q0 52 -41 88.5t-99 36.5q-56 0 -105 -33.5t-69 -87.5h-103q-22 54 -74 87.5t-116 33.5q-41 0 -77.5 -14t-64.5 -39.5t-43.5 -59t-15.5 -70.5t15.5 -70.5t43.5 -59t65 -40t77 -14.5
q41 0 78 14t65 40t43.5 59.5t15.5 70.5q0 7 -2 22v3h84z" />
    <glyph glyph-name="Eacute" unicode="&#xc9;" horiz-adv-x="1147" 
d="M429 333h-241v55q0 84 18 119.5t57 35.5q22 0 31.5 -11t17.5 -32q7 -18 14 -26.5t22 -8.5q33 0 33 34q0 28 -27 52t-73 24q-32 0 -61.5 -10.5t-52.5 -33t-36.5 -58.5t-13.5 -85v-55h-82v-35h82v-160q0 -39 -3.5 -61.5t-11.5 -34.5t-23 -16.5t-41 -4.5v-21h229v21
q-27 0 -41.5 4.5t-23 16.5t-11.5 34t-3 62v160h241v-160q0 -40 -3 -62t-11 -34t-23 -16.5t-42 -4.5v-21h229v21q-26 0 -41 4.5t-23 16.5t-11.5 34.5t-3.5 61.5v160h101v35h-101v80q0 52 8.5 83t26 47.5t45.5 22.5t73 6q40 0 55 -23.5t15 -90.5v-320q0 -40 -3 -62t-11 -34
t-23 -16.5t-42 -4.5v-21h213v21q-22 0 -34 4t-18 15.5t-8.5 34t-2.5 63.5v65q0 41 34 70.5t74 29.5q38 0 57 -28.5t19 -78.5v-58q0 -41 -2.5 -63t-9.5 -34t-20.5 -16t-38.5 -4v-21h221v21q-27 0 -42 4.5t-23 16.5t-11.5 34.5t-3.5 61.5v63q0 69 -29 109t-94 40
q-40 0 -73 -20.5t-58 -51.5v322h-184q-86 0 -133.5 -45t-47.5 -142v-80z" />
    <glyph glyph-name="Ecircumflex" unicode="&#xca;" horiz-adv-x="598" 
d="M117 427q0 -69 -15 -89q-8 -11 -23 -15.5t-41 -4.5v-20h79v-160q0 -39 -3.5 -61.5t-11.5 -34.5t-23 -16.5t-41 -4.5v-21h150v429q0 84 18 119.5t57 35.5q22 0 31.5 -10.5t17.5 -31.5q7 -18 14 -26.5t22 -8.5q33 0 33 34q0 28 -27 52t-73 24q-32 0 -61 -10.5t-52.5 -33.5
t-37 -58.5t-13.5 -85.5v-2zM564 92q0 27 -18 52t-51 44l-48 26q-35 19 -48 31.5t-13 29.5q0 43 51 43q37 0 59 -25t22 -59h21v116h-21q0 -23 -7 -23q-3 0 -13 5q-15 8 -31 13t-39 5q-41 0 -71.5 -26t-30.5 -65q0 -27 16.5 -54.5t50.5 -45.5l55 -30q28 -14 42 -28.5t14 -32.5
q0 -21 -16 -36t-40 -15q-50 0 -80 36.5t-30 75.5h-20v-146h20q0 32 12 32q7 0 25 -10q19 -10 35 -16t35 -6q50 0 84.5 30.5t34.5 78.5z" />
    <glyph glyph-name="Edieresis" unicode="&#xcb;" horiz-adv-x="787" 
d="M788 313v20h-140v-20q39 0 39 -23q0 -13 -9 -36l-65 -160l-73 160q-11 25 -11 38q0 21 44 21v20h-178v-20q23 0 37.5 -12.5t30.5 -46.5l115 -249l-50 -125q-10 -27 -22.5 -43t-29.5 -32q-13 -13 -18.5 -21t-5.5 -21q0 -17 10 -25t23 -8q11 0 21 10.5t17 26.5l195 487
q12 32 29.5 45.5t40.5 13.5zM437 388q12 1 19 10t7 22q0 21 -18 37.5t-52 16.5q-17 0 -36.5 -7t-36.5 -22t-27.5 -39t-10.5 -57q0 -14 2 -31q-20 16 -42 24t-51 8q-61 0 -105 -40t-44 -96q0 -40 23 -71.5t61 -50.5q-40 -12 -62 -32.5t-22 -47.5q0 -42 37.5 -64.5
t104.5 -28.5q68 -7 101 -22t33 -48q0 -34 -37.5 -55.5t-86.5 -21.5q-48 0 -87 19.5t-39 53.5q0 30 32 65l-18 11q-63 -33 -63 -82q0 -43 48 -74.5t127 -31.5q76 0 126.5 36.5t50.5 97.5q0 51 -42.5 87t-139.5 44q-36 3 -63.5 11.5t-27.5 26.5q0 10 10.5 17t27.5 12t34 7.5
t40 5.5q52 7 91 45t39 91q0 46 -29 81q-3 21 -3 40q0 27 6.5 46.5t18.5 31.5q19 20 44 20q13 0 18.5 -5.5t10.5 -16.5t11 -17t20 -6zM263 214q0 -46 -18.5 -74.5t-53.5 -28.5t-54 29t-19 74q0 46 19 75t54 29t53.5 -28.5t18.5 -75.5z" />
    <glyph glyph-name="Igrave" unicode="&#xcc;" horiz-adv-x="618" 
d="M159 350h-6q-41 0 -71.5 -26t-30.5 -65q0 -27 16.5 -54.5t50.5 -45.5l55 -30q28 -14 42 -28.5t14 -32.5q0 -21 -16 -36t-40 -15q-50 0 -80 36.5t-30 75.5h-20v-146h20q0 32 12 32q7 0 25 -10q19 -10 35 -16t35 -6q50 0 84.5 30.5t34.5 78.5q0 27 -18 52t-51 44l-48 26
q-35 19 -48 31.5t-13 29.5q0 20 13 34t37 14h7q8 -20 11 -26q9 -19 23 -30.5t28 -11.5q15 0 25.5 9t10.5 22q0 21 -13.5 34t-39.5 24q-23 43 -23 80q0 52 38 83t85 31q57 0 87.5 -31.5t30.5 -72.5q0 -40 -19 -71.5t-61 -40.5v-24h52v-202q0 -57 25 -85t68 -28q25 0 54.5 16
t50.5 42l-17 17q-35 -35 -65 -35q-45 0 -45 73v202h87v35h-87v75q0 71 -43.5 112.5t-116.5 41.5q-65 0 -114 -41t-49 -114q0 -27 8 -57z" />
    <glyph glyph-name="Iacute" unicode="&#xcd;" horiz-adv-x="818" 
d="M689 167q0 -63 -29 -103.5t-84 -40.5q-34 0 -60.5 21.5t-41.5 58.5v129q15 35 41.5 56.5t60.5 21.5q55 0 84 -40t29 -103zM474 290v118q0 71 -43.5 112.5t-116.5 41.5q-65 0 -114 -41t-49 -114q0 -27 8 -57h-6q-41 0 -71.5 -26t-30.5 -65q0 -27 16.5 -54.5t50.5 -45.5
l55 -30q28 -14 42 -28.5t14 -32.5q0 -21 -16 -36t-40 -15q-50 0 -80 36.5t-30 75.5h-20v-146h20q0 32 12 32q7 0 25 -10q19 -10 35 -16t35 -6q50 0 84.5 30.5t34.5 78.5q0 27 -18 52t-51 44l-48 26q-35 19 -48 31.5t-13 29.5q0 20 13 34t37 14h7q8 -20 11 -26
q9 -19 23 -30.5t28 -11.5q15 0 25.5 9t10.5 22q0 21 -13.5 34t-39.5 24q-23 43 -23 80q0 52 38 83t85 31q57 0 87.5 -31.5t30.5 -72.5q0 -38 -18.5 -71t-55.5 -40l-33 -5v-21q27 0 42 -4.5t23 -16.5t11 -34t3 -62v-293q0 -40 -3 -62t-11 -33.5t-23 -16t-42 -4.5v-21h229v21
q-26 0 -41 4.5t-23 16t-11.5 34t-3.5 61.5v156q23 -28 54.5 -44t68.5 -16q35 0 66.5 14t55.5 40t37.5 59.5t13.5 70.5t-13.5 70.5t-37.5 59t-55.5 39.5t-66.5 14q-38 0 -69 -16t-54 -44z" />
    <glyph glyph-name="Icircumflex" unicode="&#xce;" horiz-adv-x="845" 
d="M793 -133q0 51 -42.5 87t-138.5 44q-37 3 -64 11.5t-27 26.5t39 29q16 5 33 7.5t40 5.5q52 7 91 45t39 91q0 33 -17 62t-45 48q46 10 69 42.5t23 65.5q0 34 -16.5 52t-37.5 18q-14 0 -23 -7t-10 -19q0 -14 6 -20t17 -11t16.5 -10.5t5.5 -18.5q0 -25 -23 -47t-70 -22
q-6 0 -20 1q-15 2 -25 2q-30 0 -57 -10.5t-48 -29.5t-32.5 -44t-11.5 -52q0 -40 23 -71.5t61 -50.5q-39 -12 -61.5 -33t-22.5 -47q0 -43 38 -65t105 -28q68 -7 101 -22t33 -48q0 -34 -38 -55.5t-86 -21.5t-87 19.5t-39 53.5q0 30 32 65l-19 11q-63 -33 -63 -82
q0 -43 48.5 -74.5t127.5 -31.5q75 0 125.5 36.5t50.5 97.5zM437 388q12 1 19 10t7 22q0 21 -18 37.5t-52 16.5q-17 0 -36.5 -7t-36.5 -22t-27.5 -39t-10.5 -57q0 -14 2 -31q-20 16 -42 24t-51 8q-61 0 -105 -40t-44 -96q0 -40 23 -71.5t61 -50.5q-40 -12 -62 -32.5
t-22 -47.5q0 -42 37.5 -64.5t104.5 -28.5q68 -7 101 -22t33 -48q0 -34 -37.5 -55.5t-86.5 -21.5q-48 0 -87 19.5t-39 53.5q0 30 32 65l-18 11q-63 -33 -63 -82q0 -43 48 -74.5t127 -31.5q76 0 126.5 36.5t50.5 97.5q0 51 -42.5 87t-139.5 44q-36 3 -63.5 11.5t-27.5 26.5
q0 10 10.5 17t27.5 12t34 7.5t40 5.5q52 7 91 45t39 91q0 46 -29 81q-3 21 -3 40q0 27 6.5 46.5t18.5 31.5q19 20 44 20q13 0 18.5 -5.5t10.5 -16.5t11 -17t20 -6zM686 214q0 -46 -18.5 -74.5t-54.5 -28.5q-35 0 -53.5 28.5t-18.5 74.5q0 47 18.5 75.5t53.5 28.5
q36 0 54.5 -28.5t18.5 -75.5zM263 214q0 -46 -18.5 -74.5t-53.5 -28.5t-54 29t-19 74q0 46 19 75t54 29t53.5 -28.5t18.5 -75.5z" />
    <glyph glyph-name="Idieresis" unicode="&#xcf;" horiz-adv-x="706" 
d="M188 333v96q0 84 18 119.5t57 35.5q22 0 31.5 -10.5t17.5 -31.5q7 -18 14 -26.5t22 -8.5q33 0 33 34q0 28 -27 52t-73 24q-32 0 -61 -10.5t-52.5 -33.5t-37 -58.5t-13.5 -85.5v-96h-82v-35h82v-160q0 -39 -3.5 -61.5t-11.5 -34.5t-23 -16.5t-41 -4.5v-21h229v21
q-27 0 -41.5 4.5t-23 16.5t-11.5 34t-3 62v160h162q27 0 42 -4.5t23 -16.5t11 -34t3 -62v-43q0 -40 -3 -62t-11 -34t-23 -16.5t-42 -4.5v-21h229v21q-26 0 -41 4.5t-23 16.5t-11.5 34.5t-3.5 61.5v55q0 53 27 85t51 32q31 0 31 -33q0 -14 10.5 -25t24.5 -11q21 0 30.5 14
t9.5 33q0 22 -20 42t-58 20q-30 0 -60 -21t-46 -51v55h-312z" />
    <glyph glyph-name="Eth" unicode="&#xd0;" horiz-adv-x="713" 
d="M208 324v239h101q71 0 119 -23t74.5 -61.5t37.5 -83.5t11 -95q0 -49 -11 -94.5t-37.5 -84t-74.5 -61.5t-119 -23h-5q-33 0 -51 4.5t-28 16t-13.5 34t-3.5 61.5v126h100v45h-100zM133 279v-141q0 -40 -3.5 -62t-13 -34t-27.5 -16.5t-51 -4.5v-21h271q85 0 148.5 23
t104.5 64t61 95.5t20 117.5t-20 117.5t-61 95.5t-104.5 64t-148.5 23h-271v-21q33 0 51 -4.5t27.5 -16t13 -33.5t3.5 -62v-139h-116v-45h116z" />
    <glyph glyph-name="Ntilde" unicode="&#xd1;" horiz-adv-x="911" 
d="M429 333h-241v55q0 84 18 119.5t57 35.5q22 0 31.5 -11t17.5 -32q7 -18 14 -26.5t22 -8.5q33 0 33 34q0 28 -27 52t-73 24q-32 0 -61.5 -10.5t-52.5 -33t-36.5 -58.5t-13.5 -85v-55h-82v-35h82v-160q0 -39 -3.5 -61.5t-11.5 -34.5t-23 -16.5t-41 -4.5v-21h229v21
q-27 0 -41.5 4.5t-23 16.5t-11.5 34t-3 62v160h241v-160q0 -40 -3 -62t-11 -34t-23 -16.5t-42 -4.5v-21h229v21q-26 0 -41 4.5t-23 16.5t-11.5 34.5t-3.5 61.5v160h163q26 0 41 -4.5t23 -16.5t11.5 -34.5t3.5 -61.5v-259q0 -88 -19 -122t-52 -34q-25 0 -35.5 11t-19.5 32
q-7 18 -14.5 26.5t-23.5 8.5q-29 0 -29 -29t32.5 -55.5t84.5 -26.5q62 0 104.5 47.5t42.5 141.5v411h-313v96q0 46 7.5 76.5t21 47.5t30.5 24t39 7q33 0 47 -15t23 -43q8 -20 15.5 -30t23.5 -10q14 0 25 9.5t11 24.5q0 34 -37.5 65.5t-96.5 31.5q-35 0 -67 -10.5
t-57.5 -33.5t-40.5 -59t-15 -85v-96z" />
    <glyph glyph-name="Ograve" unicode="&#xd2;" horiz-adv-x="886" 
d="M384 167q0 -63 -29 -103.5t-84 -40.5q-34 0 -60.5 21.5t-41.5 58.5v129q15 35 41.5 56.5t60.5 21.5q55 0 84 -40t29 -103zM169 -113v156q23 -28 54.5 -44t68.5 -16q35 0 66.5 14t55.5 40t37.5 59.5t13.5 70.5t-13.5 70.5t-37.5 59t-55.5 39.5t-66.5 14q-39 0 -69.5 -16.5
t-54.5 -44.5q-3 19 -7.5 37t-7.5 24l-134 -25v-21q27 0 42 -4.5t23 -16t11 -33.5t3 -62v-301q0 -40 -3 -62t-11 -33.5t-23 -16t-42 -4.5v-21h229v21q-26 0 -41 4.5t-23 16t-11.5 34t-3.5 61.5zM673 12q-17 -48 -36 -88.5t-43 -72.5t-53.5 -51t-63.5 -19q-22 0 -31 8t-16 22
q-4 11 -9 16t-15 5q-35 0 -35 -39q0 -20 25.5 -38t61.5 -18q51 0 91.5 23.5t70 60.5t49 76.5t40.5 90.5l108 266q12 32 29.5 45.5t41.5 13.5v20h-140v-20q38 0 38 -23q0 -12 -9 -36l-64 -160l-74 160q-11 25 -11 37q0 22 44 22v20h-178v-20q23 0 37.5 -12.5t30.5 -46.5z" />
    <glyph glyph-name="Oacute" unicode="&#xd3;" horiz-adv-x="608" 
d="M320 333h-132v96q0 84 18 119.5t57 35.5q22 0 31.5 -10.5t17.5 -31.5q7 -18 14 -26.5t22 -8.5q33 0 33 36q0 27 -27 50.5t-73 23.5q-32 0 -61 -10.5t-52.5 -33.5t-37 -58.5t-13.5 -85.5v-96h-82v-35h82v-160q0 -39 -3.5 -61.5t-11.5 -34.5t-23 -16.5t-41 -4.5v-21h229v21
q-27 0 -41.5 4.5t-23 16.5t-11.5 34t-3 62v160h205v-202q0 -57 24.5 -85t67.5 -28q25 0 55 16t50 42l-17 17q-35 -35 -65 -35q-45 0 -45 73v202h87v35h-87v121h-34q-5 -56 -29.5 -88.5t-79.5 -32.5z" />
    <glyph glyph-name="Ocircumflex" unicode="&#xd4;" horiz-adv-x="799" 
d="M670 167q0 -63 -29 -103.5t-84 -40.5q-34 0 -61 21.5t-41 58.5v129q14 35 41 56.5t61 21.5q55 0 84 -40t29 -103zM332 322l-27 -4v-21q27 0 42 -4.5t23 -16.5t11 -34t3 -62v-293q0 -40 -3 -62t-11 -33.5t-23 -16t-42 -4.5v-21h229v21q-26 0 -41 4.5t-23 16t-11.5 34
t-3.5 61.5v156q23 -28 54.5 -44t68.5 -16q35 0 66.5 14t55.5 40t37.5 59.5t13.5 70.5t-13.5 70.5t-37.5 59t-55.5 39.5t-66.5 14q-39 0 -70 -16t-53 -44v118q0 78 -49 122.5t-131 44.5q-68 0 -117.5 -23t-49.5 -59q0 -19 13 -32t31 -13q17 0 27.5 9.5t18.5 26.5
q9 24 31.5 43.5t53.5 19.5q59 0 94 -33.5t35 -79.5q0 -40 -20 -73t-60 -39zM267 0v21q-27 0 -41.5 4.5t-23 16.5t-11.5 34t-3 62v212l-150 -25v-21q26 0 41 -4.5t23.5 -16t11.5 -34t3 -61.5v-50q0 -39 -3.5 -61.5t-11.5 -34.5t-23 -16.5t-41 -4.5v-21h229z" />
    <glyph glyph-name="Otilde" unicode="&#xd5;" horiz-adv-x="837" 
d="M549 229q11 37 36.5 59t57.5 22q38 0 56.5 -18.5t18.5 -43.5q0 -10 -3 -19h-166zM128 229q11 37 36 59t58 22q37 0 55.5 -18.5t18.5 -42.5q0 -11 -3 -20h-165zM367 229q-2 52 -42.5 86.5t-97.5 34.5q-35 0 -68.5 -13.5t-59.5 -38.5t-41.5 -58.5t-15.5 -72.5
q0 -77 51.5 -130.5t133.5 -53.5q41 0 83 19t69 47l-17 22q-21 -20 -53.5 -33t-56.5 -13q-66 0 -99.5 37t-33.5 98q0 16 2 32h242h102v-3q-2 -15 -2 -22q0 -37 13.5 -71t38 -59.5t59 -39.5t74.5 -14q42 0 84 18.5t69 47.5l-18 22q-21 -20 -53 -33t-57 -13q-66 0 -99 37
t-33 98q0 16 2 32h241q5 17 5 34q0 52 -41.5 88t-99.5 36q-56 0 -104.5 -33.5t-69.5 -87.5h-107z" />
    <glyph glyph-name="Odieresis" unicode="&#xd6;" horiz-adv-x="1191" 
d="M485 454v-316q0 -40 -3 -62t-11 -34t-23 -16.5t-42 -4.5v-21h229v21q-27 0 -41.5 4.5t-23 16.5t-11.5 34t-3 62v18l9 7l163 -163h111v21q-11 0 -29 6.5t-29 17.5l-162 162l44 36q6 5 17 14q31 25 56 38.5t58 13.5q47 0 73 -55l111 -242q-17 -48 -36 -88.5t-43 -72.5
t-53.5 -51t-63.5 -19q-22 0 -31 8t-16 22q-4 11 -9 16t-15 5q-35 0 -35 -39q0 -20 25.5 -38t61.5 -18q51 0 91.5 23.5t70 60.5t49 76.5t40.5 90.5l108 266q12 32 29.5 45.5t41.5 13.5v20h-140v-20q38 0 38 -23q0 -12 -9 -36l-64 -160l-61 133q-25 53 -58.5 83t-91.5 30
q-46 0 -80.5 -19t-86.5 -61v0l-84 -68v425l-150 -25q-87 -14 -139 -68.5t-52 -143.5q0 -4 1 -14q1 -11 1 -16q-30 0 -61.5 -14t-57 -39.5t-41 -61t-15.5 -77.5q0 -77 47.5 -126t128.5 -49q42 0 81 17.5t69 48.5l-18 22q-23 -22 -52 -34t-55 -12q-60 0 -90 35.5t-30 97.5
q0 69 27.5 114.5t67.5 45.5h5q4 -12 6 -19q11 -29 27 -46.5t37 -17.5t33 14t12 29q0 22 -16.5 40t-48.5 26q-20 34 -20 69q0 30 13.5 56.5t36.5 47.5t51 34t56 16h8q5 1 8 1q38 0 48.5 -25t10.5 -89z" />
    <glyph glyph-name="multiply" unicode="&#xd7;" horiz-adv-x="0" 
 />
    <glyph glyph-name="Oslash" unicode="&#xd8;" horiz-adv-x="808" 
d="M563 516q41 -41 61.5 -99t20.5 -117q0 -49 -14 -97.5t-43 -89.5t-75.5 -65.5t-108.5 -24.5q-72 0 -126 35zM247 83q-42 40 -63 98.5t-21 118.5q0 49 14 98t43.5 90t75.5 65.5t108 24.5q73 0 129 -37zM218 38l-39 -63l36 -18l38 61q72 -35 151 -35q68 0 129 24.5t107 68.5
t72 102t26 122q0 80 -39.5 149t-106.5 113l40 63l-36 18l-38 -62q-72 36 -154 36q-67 0 -128 -24.5t-107 -68.5t-72 -102t-26 -122q0 -81 39.5 -150t107.5 -112z" />
    <glyph glyph-name="Ugrave" unicode="&#xd9;" horiz-adv-x="668" 
d="M494 94l-73 160q-12 25 -12 38q0 21 44 21v20h-302v110h-34q-6 -52 -26 -82t-63 -39v-24h52v-202q0 -57 25 -85t68 -28q25 0 54.5 16t50.5 42l-17 17q-37 -35 -65 -35q-45 0 -45 73v202h132q23 0 37 -12.5t30 -46.5l105 -227q-18 -49 -37 -89t-42.5 -72t-53 -51
t-64.5 -19q-21 0 -30 8t-16 22q-4 11 -9 16t-15 5q-18 0 -26.5 -10.5t-8.5 -28.5q0 -20 25 -38t61 -18q51 0 92 23.5t70 60.5t49.5 77t40.5 90l107 266q13 32 30 45.5t41 13.5v20h-140v-20q39 0 39 -23q0 -12 -10 -36z" />
    <glyph glyph-name="Uacute" unicode="&#xda;" horiz-adv-x="843" 
d="M456 333h-305v110h-34q-6 -52 -26 -82t-63 -39v-24h52v-202q0 -57 25 -85t68 -28q25 0 54.5 16t50.5 42l-17 17q-37 -35 -65 -35q-45 0 -45 73v202h131q23 0 38.5 -13t29.5 -46l111 -257h20l86 231l99 -231h20l101 272q12 33 28.5 46t42.5 13v20h-140v-20q36 0 36 -28
q0 -12 -7 -31l-54 -156l-102 235h-22l-81 -235l-68 156q-8 18 -8 30q0 29 44 29v20z" />
    <glyph glyph-name="Ucircumflex" unicode="&#xdb;" horiz-adv-x="971" 
d="M798 94l-74 160q-11 25 -11 37q0 22 44 22v20h-303v110h-34q-4 -46 -23.5 -78t-55.5 -32h-182v110h-34q-6 -52 -26 -82t-63 -39v-24h52v-202q0 -57 25 -85t68 -28q25 0 54.5 16t50.5 42l-17 17q-35 -35 -65 -35q-45 0 -45 73v202h224v-202q0 -57 25 -85t68 -28
q25 0 54.5 16t50.5 42l-17 17q-35 -35 -65 -35q-45 0 -45 73v202h132q24 0 38 -12.5t29 -46.5l105 -227q-17 -48 -36 -88.5t-43 -72.5t-53.5 -51t-63.5 -19q-22 0 -31 8t-16 22q-4 11 -9 16t-15 5q-35 0 -35 -39q0 -20 25.5 -38t61.5 -18q51 0 91.5 23.5t70 60.5t49 76.5
t40.5 90.5l108 266q12 32 29.5 45.5t41.5 13.5v20h-140v-20q38 0 38 -23q0 -12 -9 -36z" />
    <glyph glyph-name="Udieresis" unicode="&#xdc;" horiz-adv-x="893" 
d="M188 298h241v-160q0 -40 -3 -62t-11 -34t-23 -16.5t-42 -4.5v-21h229v21q-26 0 -41 4.5t-23 16.5t-11.5 34.5t-3.5 61.5v160h101v35h-101v80q0 52 8.5 83t26 47.5t45.5 22.5t73 6q40 0 55 -23.5t15 -90.5v-320q0 -40 -3 -62t-11 -34t-23 -16.5t-42 -4.5v-21h229v21
q-26 0 -41 4.5t-23 16.5t-11.5 34.5t-3.5 61.5v462h-184q-86 0 -133.5 -45t-47.5 -142v-80h-241v55q0 84 18 119.5t57 35.5q22 0 31.5 -11t17.5 -32q7 -18 14 -26.5t22 -8.5q33 0 33 34q0 28 -27 52t-73 24q-32 0 -61.5 -10.5t-52.5 -33t-36.5 -58.5t-13.5 -85v-55h-82v-35
h82v-160q0 -39 -3.5 -61.5t-11.5 -34.5t-23 -16.5t-41 -4.5v-21h229v21q-27 0 -41.5 4.5t-23 16.5t-11.5 34t-3 62v160z" />
    <glyph glyph-name="Yacute" unicode="&#xdd;" horiz-adv-x="0" 
 />
    <glyph glyph-name="Thorn" unicode="&#xde;" horiz-adv-x="513" 
d="M384 167q0 -63 -29 -103.5t-84 -40.5q-34 0 -60.5 21.5t-41.5 58.5v129q15 35 41.5 56.5t60.5 21.5q55 0 84 -40t29 -103zM98 454v-567q0 -40 -3 -62t-11 -33.5t-23 -16t-42 -4.5v-21h229v21q-26 0 -41 4.5t-23 16t-11.5 34t-3.5 61.5v156q23 -28 54.5 -44t68.5 -16
q35 0 66.5 14t55.5 40t37.5 59.5t13.5 70.5t-13.5 70.5t-37.5 59t-55.5 39.5t-66.5 14q-38 0 -69 -16t-54 -44v327l-150 -25v-21q27 0 42 -4.5t23 -16.5t11 -34t3 -62z" />
    <glyph glyph-name="germandbls" unicode="&#xdf;" horiz-adv-x="553" 
d="M519 92q0 27 -18 52t-51 44l-48 26q-35 19 -48 31.5t-13 29.5q0 43 51 43q37 0 59 -25t22 -59h21v116h-21q0 -23 -7 -23q-3 0 -13 5q-15 8 -31 13t-39 5q-41 0 -71.5 -26t-30.5 -65q0 -27 16.5 -54.5t50.5 -45.5l55 -30q28 -14 42 -28.5t14 -32.5q0 -21 -16 -36t-40 -15
q-50 0 -80 36.5t-30 75.5h-20v-146h20q0 32 12 32q7 0 25 -10q19 -10 35 -16t35 -6q50 0 84.5 30.5t34.5 78.5zM153 -97v526q0 84 18 119.5t57 35.5q22 0 31.5 -10.5t17.5 -31.5q7 -18 14 -26.5t22 -8.5q33 0 33 34q0 28 -27 52t-73 24q-32 0 -61 -10.5t-52.5 -33.5
t-37 -58.5t-13.5 -85.5v-526q0 -72 -9.5 -101.5t-32.5 -29.5q-18 0 -25.5 9.5t-12.5 27.5q-5 17 -10.5 25t-19.5 8q-27 0 -27 -28q0 -25 25.5 -48t65.5 -23q49 0 83 39t34 121z" />
    <glyph glyph-name="agrave" unicode="&#xe0;" horiz-adv-x="920" 
d="M429 333h-241v55q0 84 18 119.5t57 35.5q22 0 31.5 -11t17.5 -32q7 -18 14 -26.5t22 -8.5q33 0 33 34q0 28 -27 52t-73 24q-32 0 -61.5 -10.5t-52.5 -33t-36.5 -58.5t-13.5 -85v-55h-82v-35h82v-160q0 -39 -3.5 -61.5t-11.5 -34.5t-23 -16.5t-41 -4.5v-21h229v21
q-27 0 -41.5 4.5t-23 16.5t-11.5 34t-3 62v160h241v-160q0 -40 -3 -62t-11 -34t-23 -16.5t-42 -4.5v-21h229v21q-26 0 -41 4.5t-23 16.5t-11.5 34.5t-3.5 61.5v160h205v-202q0 -57 25 -85t68 -28q25 0 54.5 16t50.5 42l-17 17q-37 -35 -65 -35q-45 0 -45 73v202h87v35h-87
v121h-34q-6 -57 -30 -89t-79 -32h-133v96q0 84 18 119.5t57 35.5q22 0 32 -10.5t18 -31.5q6 -18 13 -26.5t22 -8.5q16 0 24.5 10t8.5 26q0 27 -27 50.5t-73 23.5q-32 0 -61 -10.5t-52.5 -33.5t-37 -59t-13.5 -85v-96z" />
    <glyph glyph-name="aacute" unicode="&#xe1;" horiz-adv-x="1018" 
d="M429 333h-241v55q0 84 18 119.5t57 35.5q22 0 31.5 -11t17.5 -32q7 -18 14 -26.5t22 -8.5q33 0 33 34q0 28 -27 52t-73 24q-32 0 -61.5 -10.5t-52.5 -33t-36.5 -58.5t-13.5 -85v-55h-82v-35h82v-160q0 -39 -3.5 -61.5t-11.5 -34.5t-23 -16.5t-41 -4.5v-21h229v21
q-27 0 -41.5 4.5t-23 16.5t-11.5 34t-3 62v160h241v-160q0 -40 -3 -62t-11 -34t-23 -16.5t-42 -4.5v-21h229v21q-26 0 -41 4.5t-23 16.5t-11.5 34.5t-3.5 61.5v160h163q26 0 41 -4.5t23 -16.5t11.5 -34.5t3.5 -61.5v-43q0 -39 -3.5 -61.5t-11.5 -34.5t-23 -16.5t-41 -4.5
v-21h229v21q-27 0 -41.5 4.5t-23 16.5t-11.5 34t-3 62v55q0 53 27 85t50 32q32 0 32 -33q0 -14 10.5 -25t24.5 -11q21 0 30.5 14t9.5 33q0 22 -20.5 42t-58.5 20q-30 0 -60 -21t-45 -51v55h-313v96q0 84 18 119.5t57 35.5q22 0 32 -10.5t18 -31.5q6 -18 13 -26.5t22 -8.5
q33 0 33 34q0 28 -27 52t-73 24q-32 0 -61 -10.5t-52.5 -33.5t-37 -59t-13.5 -85v-96z" />
    <glyph glyph-name="acircumflex" unicode="&#xe2;" horiz-adv-x="998" 
d="M500 298h113q23 0 37 -12.5t30 -46.5l105 -227q-18 -49 -37 -89t-42.5 -72t-53 -51t-64.5 -19q-21 0 -30 8t-16 22q-4 11 -9 16t-15 5q-18 0 -26.5 -10.5t-8.5 -28.5q0 -20 25 -38t61 -18q51 0 92 23.5t70 60.5t49.5 77t40.5 90l107 266q13 32 30 45.5t41 13.5v20h-140
v-20q39 0 39 -23q0 -12 -10 -36l-64 -160l-73 160q-12 25 -12 38q0 21 44 21v20h-283v96q0 84 18 119.5t57 35.5q22 0 32 -10.5t18 -31.5q6 -18 13 -26.5t22 -8.5q16 0 24.5 10t8.5 26q0 27 -27 50.5t-73 23.5q-32 0 -61 -10.5t-52.5 -33.5t-37 -59t-13.5 -85v-96h-241v55
q0 84 18 119.5t57 35.5q22 0 31.5 -11t17.5 -32q7 -18 14 -26.5t22 -8.5q33 0 33 34q0 28 -27 52t-73 24q-32 0 -61.5 -10.5t-52.5 -33t-36.5 -58.5t-13.5 -85v-55h-82v-35h82v-160q0 -39 -3.5 -61.5t-11.5 -34.5t-23 -16.5t-41 -4.5v-21h229v21q-27 0 -41.5 4.5t-23 16.5
t-11.5 34t-3 62v160h241v-160q0 -40 -3 -62t-11 -34t-23 -16.5t-42 -4.5v-21h229v21q-26 0 -41 4.5t-23 16.5t-11.5 34.5t-3.5 61.5v160z" />
    <glyph glyph-name="atilde" unicode="&#xe3;" horiz-adv-x="1078" 
d="M693 563h89q54 0 82 -32t28 -81t-28 -80.5t-82 -31.5h-89v225zM814 37h-26q-33 0 -51 4.5t-27.5 16t-13 34t-3.5 61.5v148h121q62 0 95 -37.5t33 -95.5q0 -57 -33 -94t-95 -37zM405 -17l208 481v-326q0 -40 -3.5 -62t-13 -34t-27.5 -16.5t-51 -4.5v-21h297
q101 0 158 47.5t57 120.5q0 54 -35 97t-93 61q35 21 56.5 53.5t21.5 70.5q0 65 -50 107.5t-143 42.5h-156l-211 -487l-212 487h-170v-21q33 0 51 -4.5t27.5 -16t13 -33.5t3.5 -62v-325q0 -40 -3.5 -62t-13 -34t-27.5 -16.5t-51 -4.5v-21h228v21q-33 0 -51 4.5t-28 16.5
t-13.5 34.5t-3.5 61.5v356l222 -511h13z" />
    <glyph glyph-name="adieresis" unicode="&#xe4;" horiz-adv-x="1067" 
d="M391 245h-209l104 241zM841 245h-209l104 241zM533 113l-218 504h-13l-220 -509l-3 -6q-12 -28 -20 -42.5t-19 -23t-29 -12t-49 -3.5v-21h234v21q-46 0 -67 9.5t-21 30.5q0 14 10 36l48 111h242l97 -225h13l98 225h242l48 -111q10 -22 10 -36q0 -21 -21 -30.5t-67 -9.5
v-21h277v21q-31 0 -48.5 3.5t-28.5 12t-19 23t-20 42.5l-3 6l-221 509h-13z" />
    <glyph glyph-name="aring" unicode="&#xe5;" horiz-adv-x="967" 
d="M488 51q-50 -28 -117 -28q-63 0 -110.5 24.5t-77.5 65.5t-44.5 89.5t-14.5 97.5t14.5 98t44.5 89.5t77.5 65.5t110.5 25q65 0 117 -29q-54 -44 -85.5 -109.5t-31.5 -139.5t31.5 -139t85.5 -110zM532 518q43 -40 64.5 -99t21.5 -119q0 -61 -21.5 -119.5t-64.5 -98.5
q-38 39 -56 97.5t-18 120.5t18 120.5t56 97.5zM573 551q46 27 105 27q85 0 142 -55.5t78 -153.5h20v220h-20q-3 -17 -13 -33t-21 -24q-39 41 -86.5 63t-99.5 22q-80 0 -147 -39q-75 39 -160 39q-67 0 -128 -24.5t-107 -68.5t-72 -102t-26 -122t26 -122t72 -102t107 -68.5
t128 -24.5q86 0 160 40q66 -40 147 -40q52 0 99.5 22t86.5 63q10 -7 20 -23.5t14 -33.5h20v220h-20q-21 -97 -78.5 -152.5t-141.5 -55.5q-58 0 -105 26q61 44 96 110t35 141t-35 141t-96 110z" />
    <glyph glyph-name="ae" unicode="&#xe6;" horiz-adv-x="624" 
d="M337 229q11 39 35 60t64 21q35 0 52.5 -18.5t17.5 -43.5q0 -10 -3 -19h-166zM275 73q24 -41 66 -65.5t95 -24.5q42 0 83.5 18.5t68.5 47.5l-17 22q-21 -20 -53.5 -33t-56.5 -13q-66 0 -99.5 37t-33.5 99q0 15 2 31h242q4 16 4 33q0 52 -41 88.5t-99 36.5q-36 0 -69.5 -14
t-60.5 -40q-29 54 -121 54q-50 0 -88.5 -22.5t-38.5 -57.5q0 -15 10 -25t25 -10q14 0 24 10t10 25q0 22 18.5 35t38.5 13q41 0 54 -22.5t13 -81.5v-1q-47 -8 -84 -19.5t-66.5 -28t-46 -40t-16.5 -54.5q0 -38 26 -61t64 -23q51 0 85.5 19.5t61.5 66.5zM251 104
q-11 -36 -40 -54t-51 -18q-19 0 -32 12.5t-13 33.5q0 40 31.5 63.5t104.5 40.5v-78z" />
    <glyph glyph-name="ccedilla" unicode="&#xe7;" horiz-adv-x="1160" 
d="M693 563h97q70 0 117 -23t73 -61.5t36.5 -84t10.5 -94.5t-10.5 -94.5t-36.5 -83.5t-73 -61.5t-117 -23.5h-4q-33 0 -50.5 4.5t-26.5 16t-12.5 33.5t-3.5 62v410zM405 -17l208 481v-326q0 -40 -3.5 -62t-13 -34t-27.5 -16.5t-51 -4.5v-21h271q85 0 148.5 23t104.5 64
t61 95.5t20 117.5t-20 117.5t-61 95.5t-104.5 64t-148.5 23h-158l-211 -487l-212 487h-170v-21q33 0 51 -4.5t27.5 -16t13 -33.5t3.5 -62v-325q0 -40 -3.5 -62t-13 -34t-27.5 -16.5t-51 -4.5v-21h228v21q-33 0 -51 4.5t-28 16.5t-13.5 34.5t-3.5 61.5v356l222 -511h13z" />
    <glyph glyph-name="egrave" unicode="&#xe8;" horiz-adv-x="1047" 
d="M213 563h335q33 0 51.5 -4.5t28 -16t13 -33.5t3.5 -62v-309q0 -40 -3.5 -62t-13 -34t-27.5 -16.5t-52 -4.5v-21h271v21q-33 0 -51 4.5t-28 16.5t-13.5 34.5t-3.5 61.5v161h50q40 0 62 -3.5t34 -13t16.5 -27.5t4.5 -52h21v229h-21q0 -33 -4.5 -51.5t-16.5 -28t-34 -13
t-62 -3.5h-50v227h165q64 0 84.5 -15.5t31.5 -59.5l5 -20h21l-8 132h-984v-21q33 0 51 -4.5t27.5 -16t13 -33.5t3.5 -62v-325q0 -40 -3.5 -62t-13 -34t-27.5 -16.5t-51 -4.5v-21h270v21q-33 0 -51 4.5t-27.5 16.5t-13 34t-3.5 62v161h50q40 0 62 -3.5t33.5 -13t16 -28
t4.5 -51.5h21v229h-21q0 -33 -4.5 -51.5t-16 -28t-33.5 -13t-62 -3.5h-50v227z" />
    <glyph glyph-name="eacute" unicode="&#xe9;" horiz-adv-x="1063" 
d="M613 464v-326q0 -40 -3.5 -62t-13 -34t-27.5 -16.5t-51 -4.5v-21h490l8 133h-21l-5 -20q-11 -44 -31.5 -60t-84.5 -16h-86q-33 0 -51 4.5t-27.5 16t-13 34t-3.5 61.5v146h50q40 0 62 -3.5t33.5 -13t16 -28t4.5 -51.5h21v229h-21q0 -33 -4.5 -51.5t-16 -28t-33.5 -13
t-62 -3.5h-50v227h148q64 0 84 -15.5t32 -59.5l5 -20h21l-9 132h-343l-211 -487l-212 487h-170v-21q33 0 51 -4.5t27.5 -16t13 -33.5t3.5 -62v-325q0 -40 -3.5 -62t-13 -34t-27.5 -16.5t-51 -4.5v-21h228v21q-33 0 -51 4.5t-28 16.5t-13.5 34.5t-3.5 61.5v356l222 -511h13z
" />
    <glyph glyph-name="ecircumflex" unicode="&#xea;" horiz-adv-x="1000" 
d="M488 51q-50 -28 -117 -28q-63 0 -110.5 24.5t-77.5 65.5t-44.5 89.5t-14.5 97.5t14.5 98t44.5 89.5t77.5 65.5t110.5 25q65 0 117 -29q-54 -44 -85.5 -109.5t-31.5 -139.5t31.5 -139t85.5 -110zM532 518q43 -40 64.5 -99t21.5 -119t-21.5 -118t-63.5 -98q-39 39 -57 96
t-18 120q0 62 18 120.5t56 97.5zM573 551q46 27 105 27q85 0 142 -55.5t78 -153.5h20v220h-20q-3 -17 -13 -33t-21 -24q-39 41 -86.5 63t-99.5 22q-80 0 -147 -39q-75 39 -160 39q-67 0 -128 -24.5t-107 -68.5t-72 -102t-26 -122t26 -122t72 -102t107 -68.5t128 -24.5
q87 0 159 40q68 -40 148 -40q34 0 60.5 6t65.5 19q38 13 67.5 20t66.5 7v76q0 40 3.5 62t13 34t27.5 16.5t51 4.5v20h-258v-20q52 0 74 -16t22 -49q0 -64 -51.5 -100.5t-122.5 -36.5q-70 0 -119 27q59 43 92.5 108t33.5 139q0 75 -35 141t-96 110z" />
    <glyph glyph-name="edieresis" unicode="&#xeb;" horiz-adv-x="1002" 
d="M553 300v-162q0 -39 -3.5 -61.5t-13.5 -34.5t-28 -16.5t-51 -4.5v-21h490l8 133h-21l-5 -20q-11 -44 -31.5 -60t-84.5 -16h-85q-33 0 -51.5 4.5t-28 16t-13 34t-3.5 61.5v146h50q40 0 62 -3.5t33.5 -13t16 -28t4.5 -51.5h21v229h-21q0 -33 -4.5 -51.5t-16 -28t-33.5 -13
t-62 -3.5h-50v227h148q64 0 84.5 -15.5t31.5 -59.5l5 -20h21l-9 132h-456v-21q33 0 51.5 -4.5t28 -16t13 -34t3.5 -61.5v-126h-340v126q0 40 3.5 62t13 33.5t27.5 16t51 4.5v21h-270v-21q33 0 51 -4.5t27.5 -16t13 -33.5t3.5 -62v-325q0 -40 -3.5 -62t-13 -34t-27.5 -16.5
t-51 -4.5v-21h270v21q-33 0 -51 4.5t-27.5 16.5t-13 34t-3.5 62v162h340z" />
    <glyph glyph-name="igrave" unicode="&#xec;" horiz-adv-x="1022" 
d="M636 563h89q54 0 82 -32t28 -81t-28 -80.5t-82 -31.5h-89v225zM758 37h-26q-33 0 -51.5 4.5t-28 16t-13 34t-3.5 61.5v148h122q62 0 94.5 -37.5t32.5 -95.5q0 -57 -32.5 -94t-94.5 -37zM557 0h201q102 0 158.5 47.5t56.5 120.5q0 54 -34.5 97t-93.5 61q36 21 57 53.5
t21 70.5q0 65 -50.5 107.5t-142.5 42.5h-269v-21q33 0 51.5 -4.5t28 -16t13 -34t3.5 -61.5v-245q0 -94 -50.5 -142t-133.5 -48q-79 0 -127 48t-48 142v245q0 40 3.5 62t13 33.5t27.5 16t51 4.5v21h-270v-21q33 0 51 -4.5t27.5 -16t13 -33.5t3.5 -62v-240q0 -113 68 -176.5
t172 -63.5q62 0 114 24t85 69v-76z" />
    <glyph glyph-name="iacute" unicode="&#xed;" horiz-adv-x="857" 
d="M213 563h335q33 0 51.5 -4.5t28 -16t13 -33.5t3.5 -62v-309q0 -40 -3.5 -62t-13 -34t-27.5 -16.5t-52 -4.5v-21h271v21q-33 0 -51 4.5t-28 16.5t-13.5 34.5t-3.5 61.5v325q0 39 3.5 61.5t13.5 34t28 16t51 4.5v21h-781v-21q33 0 51 -4.5t27.5 -16t13 -33.5t3.5 -62v-325
q0 -40 -3.5 -62t-13 -34t-27.5 -16.5t-51 -4.5v-21h270v21q-33 0 -51 4.5t-27.5 16.5t-13 34t-3.5 62v161h50q40 0 62 -3.5t33.5 -13t16 -28t4.5 -51.5h21v229h-21q0 -33 -4.5 -51.5t-16 -28t-33.5 -13t-62 -3.5h-50v227z" />
    <glyph glyph-name="icircumflex" unicode="&#xee;" horiz-adv-x="1118" 
d="M600 -17v294l27 21l252 -219q23 -20 23 -34q0 -24 -60 -24v-21h281v21q-22 0 -62.5 17.5t-67.5 40.5l-310 269l175 150q55 47 91.5 64t92.5 17v21h-233v-21q46 0 46 -19t-50 -62l-205 -175v140q0 39 3.5 61.5t13.5 34t28 16t51 4.5v21h-254v-21q33 0 51.5 -4.5t28 -16
t13 -34t3.5 -61.5v-307l-359 444h-141v-21q33 0 51 -4.5t27.5 -16t13 -33.5t3.5 -62v-325q0 -40 -3.5 -62t-13 -34t-27.5 -16.5t-51 -4.5v-21h228v21q-33 0 -51 4.5t-28 16.5t-13.5 34.5t-3.5 61.5v348l407 -503h23z" />
    <glyph glyph-name="idieresis" unicode="&#xef;" horiz-adv-x="1086" 
d="M548 0h524l8 133h-21l-5 -20q-11 -44 -31.5 -60t-84.5 -16h-119q-33 0 -51 4.5t-28 16t-13.5 34t-3.5 61.5v310q0 39 3.5 61.5t13.5 34t28 16t51 4.5v21h-781v-21q33 0 51 -4.5t27.5 -16t13 -33.5t3.5 -62v-325q0 -40 -3.5 -62t-13 -34t-27.5 -16.5t-51 -4.5v-21h270v21
q-33 0 -51 4.5t-27.5 16.5t-13 34t-3.5 62v161h50q40 0 62 -3.5t33.5 -13t16 -28t4.5 -51.5h21v229h-21q0 -33 -4.5 -51.5t-16 -28t-33.5 -13t-62 -3.5h-50v227h335q33 0 51.5 -4.5t28 -16t13 -33.5t3.5 -62v-309q0 -40 -3.5 -62t-13 -34t-27.5 -16.5t-52 -4.5v-21z" />
    <glyph glyph-name="eth" unicode="&#xf0;" horiz-adv-x="525" 
d="M390 244q-2 -68 -16.5 -113t-35 -68.5t-41 -31.5t-37.5 -8q-62 0 -95.5 44t-33.5 105q0 59 33.5 102.5t95.5 43.5q45 0 83 -21.5t47 -52.5zM326 586q-48 34 -107 34q-73 0 -115 -17.5t-42 -39.5q0 -6 3 -12q8 -13 18 -13q9 0 31 14q25 17 48 26.5t56 9.5q42 0 75 -27
l-135 -101l27 -28l136 101q30 -40 48 -103t20 -131q-19 26 -53.5 42.5t-75.5 16.5t-78 -14.5t-64.5 -40.5t-43.5 -60t-16 -72t16 -72t44 -60.5t64.5 -41t77.5 -14.5q33 0 67 12.5t65.5 44t51 88t19.5 138.5q0 85 -28 164.5t-78 129.5l12 9t23 17t24.5 18t18.5 14l-28 28z
" />
    <glyph glyph-name="ntilde" unicode="&#xf1;" horiz-adv-x="1066" 
d="M841 245h-209l104 241zM752 617l-219 -505l-3 -6q-15 -38 -35.5 -53.5t-80.5 -15.5h-106q-33 0 -51 4.5t-27.5 16t-13 34t-3.5 61.5v310q0 40 3.5 62t13 33.5t27.5 16t51 4.5v21h-270v-21q33 0 51 -4.5t27.5 -16t13 -33.5t3.5 -62v-325q0 -40 -3.5 -62t-13 -34
t-27.5 -16.5t-51 -4.5v-21h375h233v21q-46 0 -67 9.5t-21 30.5q0 14 10 36l48 111h242l48 -111q10 -22 10 -36q0 -21 -21 -30.5t-67 -9.5v-21h277v21q-31 0 -48.5 3.5t-28.5 12t-19 23t-20 42.5l-3 6l-221 509h-13z" />
    <glyph glyph-name="ograve" unicode="&#xf2;" horiz-adv-x="1075" 
d="M538 512q40 -40 60 -97t20 -115t-20 -115t-60 -97q-40 40 -60 97t-20 115q0 59 20 115.5t60 96.5zM538 574q-80 43 -167 43q-67 0 -128 -24.5t-107 -68.5t-72 -102t-26 -122t26 -122t72 -102t107 -68.5t128 -24.5q87 0 167 43q78 -43 166 -43q68 0 129 24.5t107 68.5
t72 102t26 122t-26 122t-72 102t-107 68.5t-129 24.5q-88 0 -166 -43zM494 54q-51 -31 -123 -31q-63 0 -110.5 24.5t-77.5 65.5t-44.5 89.5t-14.5 97.5t14.5 98t44.5 89.5t77.5 65.5t110.5 25q70 0 123 -32q-57 -44 -90 -108.5t-33 -137.5t33 -137t90 -109zM581 546
q53 32 123 32q63 0 110.5 -24.5t77.5 -66t44.5 -90t14.5 -97.5t-14.5 -97.5t-44.5 -89.5t-77.5 -65.5t-110.5 -24.5q-72 0 -123 31q57 45 90 109t33 137t-33 137.5t-90 108.5z" />
    <glyph glyph-name="oacute" unicode="&#xf3;" horiz-adv-x="1299" 
d="M1283 600h-815v-21q33 0 51 -4.5t27.5 -16t13 -33.5t3.5 -62v-339l-384 476h-141v-21q33 0 51 -4.5t27.5 -16t13 -33.5t3.5 -62v-325q0 -40 -3.5 -62t-13 -34t-27.5 -16.5t-51 -4.5v-21h228v21q-33 0 -51 4.5t-28 16.5t-13.5 34.5t-3.5 61.5v348l407 -503h23v461
q0 39 3.5 61.5t13.5 34.5t28 16.5t51 4.5h243v-423q0 -40 -3.5 -62t-13 -34t-27.5 -16.5t-52 -4.5v-21h271v21q-33 0 -51 4.5t-28 16.5t-13.5 34.5t-3.5 61.5v423h131q64 0 84.5 -16t31.5 -60l5 -20h21z" />
    <glyph glyph-name="ocircumflex" unicode="&#xf4;" horiz-adv-x="1020" 
d="M781 299h-88v264h88q62 0 94.5 -37t32.5 -95t-32.5 -95t-94.5 -37zM613 464v-326q0 -40 -3.5 -62t-13 -34t-27.5 -16.5t-51 -4.5v-21h270v21q-33 0 -51 4.5t-27.5 16.5t-13 34t-3.5 62v125h89q101 0 158 47.5t57 120.5t-57 121t-158 48h-151l-211 -487l-212 487h-170v-21
q33 0 51 -4.5t27.5 -16t13 -33.5t3.5 -62v-325q0 -40 -3.5 -62t-13 -34t-27.5 -16.5t-51 -4.5v-21h228v21q-33 0 -51 4.5t-28 16.5t-13.5 34.5t-3.5 61.5v356l222 -511h13z" />
    <glyph glyph-name="otilde" unicode="&#xf5;" horiz-adv-x="768" 
d="M448 299h-88v264h88q62 0 95 -37.5t33 -94.5q0 -58 -32.5 -95t-95.5 -37zM281 561v-423q0 -39 -3.5 -61.5t-13.5 -34.5t-28 -16.5t-51 -4.5v-21h271v21q-33 0 -51 4.5t-28 16.5t-13.5 34.5t-3.5 61.5v125h48l198 -263h165v21q-44 5 -92.5 38.5t-94.5 88.5l-97 115
q82 9 129.5 55t47.5 113q0 73 -57 121t-158 48h-432l-9 -135h21l5 20q12 45 32 60.5t84 15.5h131z" />
    <glyph glyph-name="odieresis" unicode="&#xf6;" horiz-adv-x="730" 
d="M360 561h131q64 0 84 -15.5t32 -60.5l5 -20h21l-9 135h-607l-9 -135h21l5 20q12 45 32 60.5t84 15.5h131v-423q0 -39 -3.5 -61.5t-13.5 -34.5t-28 -16.5t-51 -4.5v-21h490l8 133h-20l-5 -20q-12 -44 -32 -60t-84 -16h-86q-33 0 -51 4.5t-28 16t-13.5 34t-3.5 61.5v146h42
q40 0 62 -3.5t33.5 -13t16 -28t4.5 -51.5h21v229h-21q0 -33 -4.5 -51.5t-16 -28t-33.5 -13t-62 -3.5h-42v225z" />
    <glyph glyph-name="divide" unicode="&#xf7;" horiz-adv-x="1063" 
d="M548 600h-531l-9 -135h21l5 20q12 45 32 60.5t84 15.5h131v-423q0 -39 -3.5 -61.5t-13.5 -34.5t-28 -16.5t-51 -4.5v-21h271v21q-33 0 -51 4.5t-28 16.5t-13.5 34.5t-3.5 61.5v423h217q26 0 41 -4.5t23 -16.5t11.5 -34.5t3.5 -61.5v-306q0 -39 -3.5 -61.5t-11.5 -34.5
t-23 -16.5t-41 -4.5v-21h212v21q-22 0 -33.5 4t-18 15.5t-8.5 34t-2 63.5v65q0 41 34 70.5t73 29.5t57.5 -28t18.5 -79v-58q0 -42 -2.5 -64t-9 -33.5t-20.5 -15.5t-39 -4v-21h221v21q-27 0 -41.5 4.5t-23 16.5t-11.5 34t-3 62v63q0 69 -29 109t-94 40q-40 0 -73.5 -21
t-57.5 -51v339q-6 -1 -20 -3.5t-41 -5.5t-57 -5.5t-61 -2.5z" />
    <glyph glyph-name="oslash" unicode="&#xf8;" horiz-adv-x="513" 
d="M343 276q38 -41 38 -109q0 -64 -33 -104.5t-96 -40.5q-35 0 -59 12zM160 58q-37 37 -37 109q0 64 32.5 104.5t96.5 40.5q34 0 59 -13zM135 18l-27 -43l36 -18l26 42q40 -16 82 -16q41 0 77.5 14t64.5 40t43.5 59.5t15.5 70.5q0 45 -23 84.5t-62 64.5l26 42l-36 18
l-25 -42q-40 16 -81 16t-78 -14t-64.5 -39.5t-43.5 -59t-16 -70.5q0 -45 23 -84.5t62 -64.5z" />
    <glyph glyph-name="ugrave" unicode="&#xf9;" horiz-adv-x="1115" 
d="M360 561h395v-423q0 -40 -3.5 -62t-13 -34t-27.5 -16.5t-52 -4.5v-21h271v21q-33 0 -51 4.5t-28 16.5t-13.5 34.5t-3.5 61.5v423h131q64 0 84.5 -16t31.5 -60l5 -20h21l-9 135h-1081l-9 -135h21l5 20q12 45 32 60.5t84 15.5h131v-423q0 -39 -3.5 -61.5t-13.5 -34.5
t-28 -16.5t-51 -4.5v-21h271v21q-33 0 -51 4.5t-28 16.5t-13.5 34.5t-3.5 61.5v423z" />
    <glyph glyph-name="uacute" unicode="&#xfa;" horiz-adv-x="1103" 
d="M636 563h97q70 0 117 -23t73 -61.5t36.5 -84t10.5 -94.5t-10.5 -94.5t-36.5 -83.5t-73 -61.5t-117 -23.5h-4q-32 0 -50 4.5t-27 16t-12.5 33.5t-3.5 62v410zM557 0h176q85 0 148 23t104 64t61 95.5t20 117.5t-20 117.5t-61 95.5t-104 64t-148 23h-272v-21q33 0 51.5 -4.5
t28 -16t13 -34t3.5 -61.5v-245q0 -94 -50.5 -142t-133.5 -48q-79 0 -127 48t-48 142v245q0 40 3.5 62t13 33.5t27.5 16t51 4.5v21h-270v-21q33 0 51 -4.5t27.5 -16t13 -33.5t3.5 -62v-240q0 -113 68 -176.5t172 -63.5q62 0 114 24t85 69v-76z" />
    <glyph glyph-name="ucircumflex" unicode="&#xfb;" horiz-adv-x="963" 
d="M724 299h-88v264h88q62 0 95 -37.5t33 -94.5q0 -58 -32.5 -95t-95.5 -37zM557 218q0 -94 -50.5 -142t-133.5 -48q-79 0 -127 48t-48 142v245q0 40 3.5 62t13 33.5t27.5 16t51 4.5v21h-270v-21q33 0 51 -4.5t27.5 -16t13 -33.5t3.5 -62v-240q0 -113 68 -176.5t172 -63.5
q62 0 114 24t85 69v-76h175v21q-33 0 -51.5 4.5t-28 16.5t-13 34t-3.5 62v125h89q101 0 158 47.5t57 120.5t-57 121t-158 48h-264v-21q33 0 51.5 -4.5t28 -16t13 -34t3.5 -61.5v-245z" />
    <glyph glyph-name="udieresis" unicode="&#xfc;" horiz-adv-x="863" 
d="M638 245h-210l105 241zM315 -17l98 225h241l49 -111q10 -22 10 -36q0 -21 -21 -30.5t-68 -9.5v-21h278v21q-31 0 -49 3.5t-29 12.5t-18.5 22t-20.5 44l-2 5l-221 509h-14l-217 -503l-170 389q-10 22 -10 37q0 20 21 29.5t67 9.5v21h-277v-21q31 0 49 -3.5t28.5 -12
t18.5 -22.5t21 -44q1 -3 2 -5l221 -509h13z" />
    <glyph glyph-name="yacute" unicode="&#xfd;" horiz-adv-x="0" 
 />
    <glyph glyph-name="thorn" unicode="&#xfe;" horiz-adv-x="540" 
d="M301 174h-88v264h88q62 0 94.5 -37t32.5 -95t-32.5 -95t-94.5 -37zM133 475v-337q0 -40 -3.5 -62t-13 -34t-27.5 -16.5t-51 -4.5v-21h270v21q-33 0 -51 4.5t-27.5 16.5t-13 34t-3.5 62h89q99 0 157 48t58 120t-58 120.5t-157 48.5h-89q0 35 4 55t13.5 30.5t27.5 14.5
t50 4v21h-270v-21q32 0 50 -4t27.5 -14.5t13.5 -30.5t4 -55z" />
    <glyph glyph-name="ydieresis" unicode="&#xff;" horiz-adv-x="658" 
d="M263 214q0 -46 -18.5 -74.5t-53.5 -28.5t-54 29t-19 74q0 46 19 75t54 29t53.5 -28.5t18.5 -75.5zM563 493q0 24 -18.5 39.5t-36.5 21.5q-33 12 -66 12q-35 0 -66 -13t-54 -37q-50 -51 -50 -130q0 -32 9 -66q-20 16 -40 23t-50 7q-61 0 -105 -40t-44 -96q0 -40 23 -71.5
t61 -50.5q-40 -12 -62 -32.5t-22 -47.5q0 -42 37.5 -64.5t104.5 -28.5q68 -7 101 -22t33 -48q0 -34 -37.5 -55.5t-86.5 -21.5q-48 0 -87 19.5t-39 53.5q0 30 32 65l-18 11q-63 -33 -63 -82q0 -43 48 -74.5t127 -31.5q76 0 126.5 36.5t50.5 97.5q0 51 -42.5 87t-139.5 44
q-36 3 -63.5 11.5t-27.5 26.5q0 10 10.5 17t27.5 12t34 7.5t40 5.5q52 7 91 45t39 91q0 46 -29 81q-11 41 -11 78q0 73 37.5 113.5t82.5 40.5q44 0 60 -35q9 -20 19 -29.5t24 -9.5q16 0 28 12t12 28zM639 0v21q-26 0 -41 4.5t-23 16.5t-11.5 34.5t-3.5 61.5v212l-150 -25
v-21q27 0 42 -4.5t23 -16t11 -33.5t3 -62v-50q0 -40 -3 -62t-11 -34t-23 -16.5t-42 -4.5v-21h229z" />
    <glyph glyph-name="OE" unicode="&#x152;" horiz-adv-x="934" 
d="M512 600q-52 17 -108 17q-67 0 -128 -24.5t-107 -68.5t-72 -102t-26 -122t26 -122t72 -102t107 -68.5t128 -24.5q56 0 107 17h368l9 133h-21l-5 -20q-12 -44 -32 -60t-84 -16h-86q-33 0 -51 4.5t-28 16t-13.5 34t-3.5 61.5v146h50q40 0 62 -3.5t34 -13t16.5 -27.5
t4.5 -52h21v229h-21q0 -33 -4.5 -51.5t-16.5 -28t-34 -13t-62 -3.5h-50v227h149q64 0 84 -15.5t31 -59.5l5 -20h21l-8 132h-334zM404 578q44 0 81 -14v-528q-39 -13 -81 -13q-62 0 -107.5 24.5t-74.5 65.5t-42.5 89.5t-13.5 97.5t13.5 98t42.5 90t74.5 65.5t107.5 24.5z" />
    <glyph glyph-name="oe" unicode="&#x153;" horiz-adv-x="738" 
d="M450 229q11 39 35 60t64 21q35 0 52.5 -18.5t17.5 -43.5q0 -10 -3 -19h-166zM402 53q24 -33 62 -51.5t85 -18.5q42 0 84 18.5t69 47.5l-18 22q-21 -20 -53 -33t-57 -13q-66 0 -99.5 37.5t-33.5 99.5q0 15 2 30h242q4 16 4 33q0 53 -41 89t-99 36q-42 0 -81 -19t-65 -53
q-28 34 -70 53t-90 19q-41 0 -77.5 -14t-64.5 -39.5t-43.5 -59t-15.5 -70.5t15.5 -70.5t43.5 -59t65 -40t77 -14.5q47 0 88 18.5t71 51.5zM364 167q0 -64 -31 -104.5t-90 -40.5t-89.5 40.5t-30.5 104.5t30.5 104.5t89.5 40.5t90 -40.5t31 -104.5z" />
    <glyph glyph-name="Scaron" unicode="&#x160;" horiz-adv-x="498" 
d="M364 803l-12 12l-107 -76l-107 76l-12 -12l119 -129zM107 30q11 -2 36 -15q31 -14 58.5 -23t61.5 -9q39 0 73.5 13t60.5 36.5t41 57t15 73.5q0 45 -25 85t-79 67l-96 49q-68 36 -94.5 61.5t-26.5 62.5q0 38 27.5 63.5t69.5 25.5t70.5 -15t45.5 -40.5t25.5 -55.5t11.5 -64
h21v220h-20q-6 -27 -29 -46q-27 20 -54.5 30.5t-67.5 10.5q-72 0 -119 -43t-47 -106q0 -54 32 -97t79 -68l96 -49q55 -29 85 -58.5t30 -62.5q0 -48 -35.5 -79t-89.5 -31q-63 0 -102 25.5t-56.5 59t-22 59t-4.5 36.5h-20v-220h20q6 28 29 47z" />
    <glyph glyph-name="scaron" unicode="&#x161;" horiz-adv-x="323" 
d="M286 537l-12 12l-107 -76l-107 76l-12 -12l119 -129zM289 92q0 27 -18 52t-51 44l-48 26q-35 19 -48 31.5t-13 29.5q0 43 51 43q37 0 59 -25t22 -59h21v116h-21q0 -23 -7 -23q-3 0 -13 5q-15 8 -31 13t-39 5q-41 0 -71.5 -26t-30.5 -65q0 -27 16.5 -54.5t50.5 -45.5
l55 -30q28 -14 42 -28.5t14 -32.5q0 -21 -16 -36t-40 -15q-50 0 -80 36.5t-30 75.5h-20v-146h20q0 32 12 32q7 0 25 -10q19 -10 35 -16t35 -6q50 0 84.5 30.5t34.5 78.5z" />
    <glyph glyph-name="Ydieresis" unicode="&#x178;" horiz-adv-x="834" 
d="M411 458v-320q0 -39 -3.5 -61.5t-11.5 -34.5t-23 -16.5t-41 -4.5v-21h212v21q-22 0 -33.5 4t-18 15.5t-8.5 34t-2 63.5v65q0 41 34 70.5t73 29.5t57.5 -28t18.5 -79v-58q0 -42 -2.5 -64t-9 -33.5t-20.5 -15.5t-39 -4v-21h221v21q-27 0 -41.5 4.5t-23 16.5t-11.5 34t-3 62
v63q0 69 -29 109t-94 40q-40 0 -73.5 -21t-57.5 -51v322h-184q-87 0 -134 -45t-47 -142v-80h-82v-35h82v-160q0 -39 -3.5 -61.5t-11.5 -34.5t-23 -16.5t-41 -4.5v-21h229v21q-27 0 -41.5 4.5t-23 16.5t-11.5 34t-3 62v160h100v35h-100v80q0 52 8.5 83t25.5 47.5t45 22.5
t73 6q41 0 56 -23.5t15 -90.5z" />
    <glyph glyph-name="florin" unicode="&#x192;" horiz-adv-x="316" 
d="M189 -78v376h101v35h-101v96q0 84 18 119.5t57 35.5q23 0 32.5 -11t17.5 -32q7 -17 13.5 -25.5t21.5 -8.5q33 0 33 34q0 28 -26.5 52t-72.5 24q-32 0 -61.5 -10.5t-53 -33.5t-37 -59t-13.5 -85v-96h-81v-35h81v-376q0 -88 -18.5 -122t-51.5 -34q-24 0 -35 10.5t-20 31.5
q-8 18 -16 27t-25 9q-26 -2 -26 -28q0 -29 32 -56t85 -27q62 0 104 47.5t42 141.5z" />
    <glyph glyph-name="circumflex" unicode="&#x2c6;" horiz-adv-x="1043" 
d="M724 299h-88v264h88q62 0 95 -37.5t33 -94.5q0 -58 -32.5 -95t-95.5 -37zM762 264q85 10 131.5 55.5t46.5 111.5q0 73 -57 121t-158 48h-264v-21q33 0 51.5 -4.5t28 -16t13 -34t3.5 -61.5v-245q0 -94 -50.5 -142t-133.5 -48q-79 0 -127 48t-48 142v245q0 40 3.5 62
t13 33.5t27.5 16t51 4.5v21h-270v-21q33 0 51 -4.5t27.5 -16t13 -33.5t3.5 -62v-240q0 -113 68 -176.5t172 -63.5q62 0 114 24t85 69v-76h175v21q-33 0 -51.5 4.5t-28 16.5t-13 34t-3.5 62v125h47l199 -263h165v21q-44 5 -92.5 38.5t-94.5 88.5z" />
    <glyph glyph-name="tilde" unicode="&#x2dc;" horiz-adv-x="809" 
d="M465 231q14 36 41 57.5t61 21.5q55 0 84 -40t29 -103t-29 -103.5t-84 -40.5q-34 0 -61 21.5t-41 58.5v128zM394 458v-475h21l44 67q22 -31 55.5 -49t73.5 -18q35 0 66.5 14t55.5 40t37.5 59.5t13.5 70.5t-13.5 70.5t-37.5 59t-55.5 39.5t-66.5 14q-37 0 -68.5 -15.5
t-54.5 -43.5v309h-167q-87 0 -134 -45t-47 -142v-80h-82v-35h82v-160q0 -39 -3.5 -61.5t-11.5 -34.5t-23 -16.5t-41 -4.5v-21h229v21q-27 0 -41.5 4.5t-23 16.5t-11.5 34t-3 62v160h100v35h-100v80q0 97 31.5 128t103.5 31q41 0 56 -23t15 -91z" />
    <glyph glyph-name="endash" unicode="&#x2013;" horiz-adv-x="525" 
d="M525 183v44h-526v-44h526z" />
    <glyph glyph-name="emdash" unicode="&#x2014;" horiz-adv-x="667" 
d="M667 183v44h-668v-44h668z" />
    <glyph glyph-name="quoteleft" unicode="&#x2018;" horiz-adv-x="252" 
d="M178 611l-11 12q-43 -28 -67.5 -71.5t-24.5 -79.5q0 -31 16 -47.5t38 -16.5q19 0 33 14.5t14 34.5t-13.5 34t-33.5 14q-6 0 -8 -1q5 30 17.5 54.5t39.5 52.5z" />
    <glyph glyph-name="quoteright" unicode="&#x2019;" horiz-adv-x="268" 
d="M130 521q-5 -30 -17.5 -54.5t-39.5 -52.5l11 -11q44 27 68 70.5t24 79.5q0 31 -16 47.5t-38 16.5q-19 0 -33 -14.5t-14 -34.5q0 -19 14 -33.5t33 -14.5q6 0 8 1z" />
    <glyph glyph-name="quotesinglbase" unicode="&#x201a;" horiz-adv-x="292" 
d="M133 -8q-4 -29 -16.5 -53t-40.5 -53l12 -12q43 27 67 71t24 80q0 31 -16 47t-38 16q-19 0 -33 -14t-14 -34q0 -19 14 -33.5t33 -14.5h8z" />
    <glyph glyph-name="quotedblleft" unicode="&#x201c;" horiz-adv-x="418" 
d="M345 611l-12 12q-43 -28 -67 -71.5t-24 -79.5q0 -31 16 -47.5t38 -16.5q19 0 33 14.5t14 34.5t-13.5 34t-33.5 14q-6 0 -8 -1q4 30 16.5 54t40.5 53zM178 611l-11 12q-43 -28 -67.5 -71.5t-24.5 -79.5q0 -31 16 -47.5t38 -16.5q19 0 33 14.5t14 34.5t-13.5 34t-33.5 14
q-6 0 -8 -1q5 30 17.5 54.5t39.5 52.5z" />
    <glyph glyph-name="quotedblright" unicode="&#x201d;" horiz-adv-x="418" 
d="M130 521q-5 -30 -17.5 -54.5t-39.5 -52.5l11 -11q44 27 68 70.5t24 79.5q0 31 -16 47.5t-38 16.5q-19 0 -33 -14.5t-14 -34.5q0 -19 14 -33.5t33 -14.5q6 0 8 1zM297 521q-5 -30 -17.5 -54t-40.5 -53l12 -11q44 27 68 70.5t24 79.5q0 31 -16.5 47.5t-38.5 16.5
q-19 0 -32.5 -14.5t-13.5 -34.5q0 -19 13.5 -33.5t32.5 -14.5q6 0 9 1z" />
    <glyph glyph-name="quotedblbase" unicode="&#x201e;" horiz-adv-x="418" 
d="M130 -8q-5 -30 -17.5 -53.5t-39.5 -52.5l11 -12q44 27 68 71t24 80q0 31 -16 47t-38 16q-19 0 -33 -14t-14 -34q0 -19 14 -33.5t33 -14.5h8zM297 -8q-5 -30 -17.5 -53.5t-40.5 -52.5l12 -12q44 27 68 71t24 80q0 31 -16.5 47t-38.5 16q-19 0 -32.5 -14t-13.5 -34
t13.5 -34t32.5 -14h9z" />
    <glyph glyph-name="dagger" unicode="&#x2020;" horiz-adv-x="448" 
d="M238 426l90 -29q6 -2 12 -2q18 0 32 14.5t14 33.5t-14 33t-32 14q-6 0 -12 -2l-92 -30l34 101q0 2 1 6q1 3 1 5q0 19 -14.5 33t-33.5 14t-33 -14t-14 -33v-5q1 -4 1 -6l35 -101l-94 30q-6 2 -11 2q-18 0 -32 -14t-14 -33t14 -33.5t32 -14.5q5 0 11 2l92 30l-28 -204
l37 -410h8l37 410z" />
    <glyph glyph-name="daggerdbl" unicode="&#x2021;" horiz-adv-x="448" 
d="M386 -20q0 19 -14.5 33.5t-32.5 14.5q-2 0 -6 -1q-3 -1 -5 -1l-90 -29l25 215l-25 214l90 -30q2 0 5 -1h6q18 0 32.5 14.5t14.5 33.5q0 18 -14 32.5t-32 14.5q-6 0 -12 -2l-92 -31l34 102q0 2 1 5q1 4 1 6q0 18 -14.5 32.5t-33.5 14.5t-33 -14.5t-14 -32.5v-6q1 -3 1 -5
l35 -102l-94 31q-6 2 -11 2q-18 0 -32 -14.5t-14 -32.5q0 -19 14.5 -33.5t32.5 -14.5h5q3 1 5 1l92 31l-26 -216l26 -215l-92 30q-2 0 -5 1t-5 1q-18 0 -32.5 -14.5t-14.5 -33.5q0 -18 14.5 -33t32.5 -15q2 0 5 1t5 1l94 31l-35 -102q0 -2 -1 -5v-6q0 -17 14 -31.5t33 -14.5
t33.5 14.5t14.5 31.5q0 3 -1 6t-1 5l-34 102l92 -31q2 0 5 -1t6 -1q18 0 32.5 15t14.5 33z" />
    <glyph glyph-name="bullet" unicode="&#x2022;" horiz-adv-x="270" 
d="M135 307q-32 0 -54.5 -22.5t-22.5 -54.5q0 -31 23 -54t54 -23q32 0 54.5 22.5t22.5 54.5t-22.5 54.5t-54.5 22.5z" />
    <glyph glyph-name="ellipsis" unicode="&#x2026;" horiz-adv-x="896" 
d="M194 40q0 20 -14 34t-34 14q-19 0 -33 -14t-14 -34q0 -19 14 -33.5t33 -14.5q20 0 34 14t14 34zM486 40q0 19 -14.5 33.5t-33.5 14.5t-33 -14t-14 -34q0 -19 14 -33.5t33 -14.5t33.5 14.5t14.5 33.5zM778 40q0 19 -14.5 33.5t-34.5 14.5t-33 -14t-13 -34t13 -34t33 -14
t34.5 14.5t14.5 33.5z" />
    <glyph glyph-name="perthousand" unicode="&#x2030;" horiz-adv-x="1133" 
d="M704 128q0 29 -11.5 55t-32 46t-48 31t-57.5 11t-57.5 -11t-48 -31t-32 -46t-11.5 -55t11.5 -55.5t32.5 -46.5t48 -31t57 -11t57.5 11t48 31t32 46.5t11.5 55.5zM591 600l-36 18l-383 -618l36 -18zM357 473q0 29 -11.5 55.5t-32.5 46.5t-48 31t-57 11t-57.5 -11t-48 -31
t-32.5 -46.5t-12 -55.5t12 -55t32.5 -46t48 -31t57.5 -11t57 11t48 31t32.5 46.5t11.5 54.5zM638 128q0 -48 -21 -79t-62 -31t-61.5 30.5t-20.5 79.5q0 48 20.5 79t61.5 31t62 -31t21 -79zM290 473q0 -48 -21 -79t-61 -31q-41 0 -62 31t-21 79q0 49 21 79.5t62 30.5
q40 0 61 -31t21 -79zM1075 128q0 29 -11.5 55t-32 46t-48 31t-57.5 11t-57.5 -11t-48 -31t-32 -46t-11.5 -55t11.5 -55.5t32.5 -46.5t48 -31t57 -11t57.5 11t48 31t32 46.5t11.5 55.5zM1008 128q0 -49 -20.5 -79.5t-61.5 -30.5t-62 31t-21 79t21 79t62 31t61.5 -31t20.5 -79
z" />
    <glyph glyph-name="guilsinglleft" unicode="&#x2039;" horiz-adv-x="500" 
d="M428 68l-233 200l233 200l-15 17l-330 -217l330 -218z" />
    <glyph glyph-name="guilsinglright" unicode="&#x203a;" horiz-adv-x="500" 
d="M417 268l-329 217l-15 -17l232 -200l-232 -200l15 -18z" />
    <glyph glyph-name="trademark" unicode="&#x2122;" horiz-adv-x="1013" 
d="M199 566v-233q0 -67 -13 -86t-58 -19v-18h202v18q-45 0 -58.5 19t-13.5 86v233h50q58 0 76.5 -12t27.5 -46l4 -18h19l-7 110h-400l-6 -110h18l5 18q8 34 27 46t77 12h50zM583 513l137 -318h12l131 305v-167q0 -36 -2.5 -55.5t-9.5 -30.5q-13 -19 -58 -19v-18h201v18
q-45 0 -58 19t-13 86v144q0 67 13 86t58 19v18h-121l-131 -304l-131 304h-133v-18q45 0 58 -19q7 -10 9.5 -30t2.5 -56v-144q0 -36 -2.5 -55.5t-9.5 -30.5q-13 -19 -58 -19v-18h175v18q-45 0 -57 19q-8 11 -10.5 30.5t-2.5 55.5v180z" />
    </font>
</defs>
</svg>
